<?xml version="1.0" encoding="UTF-8"?>
<svg version="1.1" viewBox="0 0 1000 300" xmlns="http://www.w3.org/2000/svg">
<title>Alexander</title>
<desc>Created with Sketch.</desc>
<g fill="none" fill-rule="evenodd">
<g transform="translate(-140 -4222)">
<g transform="translate(140 4222)">
<rect width="1e3" height="300" fill="#fff" fill-opacity=".01"/>
<g transform="translate(343 21)">
<g transform="translate(156.77 128.92) scale(-1 1) rotate(180) translate(-156.76 -128.76)">
<g transform="translate(4.3145 3.8293)" fill="#F2E200">
<path d="m142.99 249.36c-29.311-1.9602-58.805-13.083-83.414-31.501-5.3874-4.0117-14.975-12.81-19.769-18.052-19.769-21.654-32.325-47.183-37.255-75.857-1.5523-8.9806-1.9632-13.129-2.2828-23.614l-0.27394-9.938 28.261 0.13676 28.261 0.13676 0.091312-5.0146c0.45656-18.873 11.505-41.621 28.398-58.397 22.737-22.52 54.057-31.729 85.788-25.164 27.896 5.7896 52.048 25.027 65.516 52.197 5.2048 10.576 8.0355 20.742 8.629 30.999l0.31959 5.1513 25.659 0.045587c14.153 0.045587 27.622 0 29.996-0.045587l4.246-0.091174-0.27394 11.169c-0.59353 23.66-5.4787 43.171-15.888 63.822-17.715 35.056-48.487 61.998-86.336 75.538-9.8161 3.5558-24.289 6.9292-33.055 7.7498-1.8719 0.18235-3.7895 0.41028-4.3373 0.50146-2.8763 0.41028-17.075 0.54704-22.28 0.22794z"/>
</g>
<path d="m57.071 90.654l0.022951-1.2595c0.48236-19.94 11.982-43.595 29.531-61.023 23.664-23.438 56.296-33.016 89.269-26.195 29.075 6.0342 54.192 26.044 68.178 54.258 5.4239 11.021 8.3916 21.682 9.0148 32.451l0.097105 1.5652 22.066 0.039207c12.494 0.040243 27.068 0.0096724 29.901-0.044722l8.2608-0.17738-0.098314 4.0084-0.27399 11.171c-0.60646 24.175-5.6102 44.247-16.298 65.451-18.166 35.95-49.71 63.554-88.452 77.412-10.058 3.6435-24.853 7.1059-33.991 7.9613-1.6769 0.16336-3.5982 0.38739-4.0792 0.46745l-0.088122 0.013616c-3.1615 0.45096-17.579 0.5951-23.058 0.25922l-0.021247-0.001362c-30.078-2.0115-60.277-13.412-85.45-32.252-5.5033-4.098-15.274-13.035-20.311-18.542-20.275-22.209-33.149-48.412-38.2-77.785-1.5934-9.2182-2.0139-13.553-2.3372-24.16l-0.38292-13.892 56.699 0.27438z" stroke="#F2E200" stroke-width="7.68"/>
<path d="m147.31 253.19c-29.311-1.9602-58.805-13.083-83.414-31.501-5.3874-4.0117-14.975-12.81-19.769-18.052-19.769-21.654-32.325-47.183-37.255-75.857-1.5523-8.9806-1.9632-13.129-2.2828-23.614l-0.27394-9.938 28.261 0.13676 28.261 0.13676 0.091312-5.0146c0.45656-18.873 11.505-41.621 28.398-58.397 22.737-22.52 54.057-31.729 85.788-25.164 27.896 5.7896 52.048 25.027 65.516 52.197 5.2048 10.576 8.0355 20.742 8.629 30.999l0.31959 5.1513 25.659 0.045587c14.153 0.045587 27.622 0 29.996-0.045587l4.246-0.091174-0.27394 11.169c-0.59353 23.66-5.4787 43.171-15.888 63.822-17.715 35.056-48.487 61.998-86.336 75.538-9.8161 3.5558-24.289 6.9292-33.055 7.7498-1.8719 0.18235-3.7895 0.41028-4.3373 0.50146-2.8763 0.41028-17.075 0.54704-22.28 0.22794zm2.5111-14.497c1.2327-2.4161 3.8351-7.4307 5.7527-11.123 1.9632-3.6925 4.8852-9.2998 6.5288-12.491 1.6893-3.2367 3.6525-6.4734 4.4286-7.2939l1.4153-1.4132-4.7026-0.31911c-2.5567-0.13676-5.1591-0.41028-5.7527-0.50146-1.1871-0.27352-1.461 0.45587-0.36525 0.91174 1.0501 0.3647 0.91312 1.4588-0.54787 4.6499l-1.2327 2.8264-6.5288-0.27352c-3.8351-0.18235-6.7571-0.54704-7.0767-0.86615-0.63918-0.63822-2.1002-4.8778-2.1002-6.1087 0-0.45587 0.36525-1.0485 0.82181-1.322 0.45656-0.27352 0.7305-0.54704 0.63918-0.54704-0.77615-0.22794-10.592-0.68381-10.592-0.50146 0 0.13676 0.45656 0.68381 0.95878 1.2308s1.8719 3.4646 3.059 6.4734c1.1871 3.0087 4.246 10.804 6.8028 17.232 2.5567 6.4278 4.8395 12.217 5.0678 12.81 0.22828 0.59263 0.59353 1.0941 0.77615 1.0941 0.22828 0 1.4153-2.0058 2.6481-4.4675zm38.945-2.3705c1.0501-2.1882 3.2872-6.9748 5.0222-10.667s4.1547-8.7983 5.2961-11.351c1.1871-2.5529 2.2828-4.6499 2.4198-4.6499 0.4109-0.045587 6.2092 17.961 6.2092 19.238 0 0.63822-0.4109 1.55-0.95878 2.0514-0.54787 0.45587-0.91312 0.91174-0.82181 1.0029 0.13697 0.13676 9.0399-2.6896 10.912-3.4646 0.50222-0.22794 0.36525-0.41028-0.50222-0.63822-0.63919-0.18235-1.6436-1.0029-2.2371-1.8691s-3.2416-8.1601-5.8896-16.229c-4.6113-14.132-5.4787-16.411-5.9353-15.91-0.091312 0.13676-1.4153 2.8264-2.8763 5.9719-1.461 3.1911-4.2917 9.2086-6.3005 13.403-2.0545 4.2396-4.0177 8.4792-4.4286 9.4821-0.4109 0.95733-0.86746 1.7779-1.0501 1.7779-0.27394-0.045587-5.5244-16.138-6.0723-18.691-0.18262-0.82057 0.091312-1.6411 0.77615-2.5073 0.54787-0.72939 0.82181-1.2764 0.63918-1.2764-0.22828 0-2.8307 0.77498-5.7983 1.7323-5.1591 1.7323-5.3418 1.8235-4.0177 2.3705 1.9176 0.82057 2.9676 3.3279 8.4007 19.922 2.5567 7.841 4.7939 14.269 5.0222 14.269 0.18262 0 1.1871-1.7779 2.1915-3.9661zm-76.885-2.0058c-0.91312-0.95733-1.324-2.5073-2.4198-9.8468l-1.2784-8.7071 1.9632-1.322c12.008-8.2057 15.751-10.531 16.801-10.531 2.1915 0 1.2327-0.72939-3.9721-2.872-2.8307-1.1853-5.2961-2.2338-5.5244-2.3705-0.22828-0.091174-0.13697 0.31911 0.22828 0.86615 0.77615 1.2308 0.68484 1.322-5.844 5.9719-4.1547 2.9176-5.0678 3.419-5.3418 2.7808-0.54787-1.55-1.461-12.628-1.0501-12.992 0.22828-0.22794 0.82181-0.50146 1.3697-0.63822 1.0501-0.22794 1.0501-0.22794-6.3462-3.419-3.6525-1.55-4.9309-1.6867-3.2872-0.31911 0.36525 0.31911 0.77615 1.0941 0.95878 1.7323 0.45656 1.8691 2.6937 17.46 2.6481 18.827 0 1.0941-0.7305 1.7779-5.0222 4.6043-8.0355 5.3337-9.9987 6.4734-11.231 6.4734-1.7806 0-0.77615 0.63822 4.7482 3.0543 4.8852 2.1426 5.9809 2.4161 4.8852 1.0941-0.4109-0.50146-0.22828-0.91174 0.77615-1.8235 1.3697-1.2764 7.7615-5.8351 7.8072-5.5616 1.3697 10.85 1.324 11.351-0.63918 11.397-1.0957 0 8.9486 4.6955 10.181 4.741 0.45656 0 0.31959-0.31911-0.4109-1.1397zm129.62-21.699c7.9898-6.6557 10.729-10.759 11.049-16.411 0.50222-9.2542-6.8941-18.235-15.888-19.374-3.0133-0.3647-7.4419 0.63822-10.866 2.5073-2.2371 1.2308-13.788 10.531-14.519 11.67-0.22828 0.3647 0 0.41028 0.63918 0.22794 1.8719-0.59263 3.5612 0.91174 11.049 9.7556 11.871 13.995 11.368 13.311 11.368 15.636 0 1.7323 0.091312 1.9602 0.7305 1.4132 0.36525-0.31911 3.2872-2.7352 6.4375-5.4249zm-168.52-5.9719c0-0.22794-0.50222-0.22794-1.1871-0.091174-1.461 0.3647-3.4699-0.86615-7.6702-4.6955l-2.8307-2.5985 3.0133-3.419 3.0133-3.419 3.1503 2.7352c3.4242 3.0543 4.6569 4.9234 4.2004 6.4278-0.18262 0.54704-0.13697 0.91174 0.13697 0.82057 0.4109-0.18235 4.9309-5.0146 6.3005-6.7925 0.63919-0.82057 0.59353-0.86615-0.45656-0.59263-1.461 0.31911-3.7438-1.0029-7.168-4.2396-2.4198-2.2794-2.4654-2.3249-1.598-3.3279 2.0545-2.5073 6.1636-6.5189 6.6658-6.5189 0.86747 0 6.6201 5.1969 7.7615 7.066 0.68484 1.0941 1.0044 2.1882 0.82181 2.8264-0.4109 1.8691 0.4109 1.1853 2.7394-2.1882l2.2371-3.2367-7.9442-7.1572c-4.383-3.9205-8.3551-7.4307-8.8573-7.7498-0.77615-0.59263-0.82181-0.50146-0.54787 0.77498 0.18262 1.0485-0.045656 1.8691-0.91312 3.1455-1.461 2.1426-15.067 17.414-18.08 20.286-1.9176 1.8691-2.3741 2.0514-3.8351 1.8235l-1.6893-0.27352 2.6481 2.5073c1.4153 1.3676 5.4331 5.0146 8.8573 8.1145l6.2092 5.6072 2.5111-2.7352c1.4153-1.5044 2.5111-2.9176 2.5111-3.0999zm210.47-44.356c0-0.22794-1.5523-1.2764-3.4242-2.3705-2.3285-1.3676-3.2872-1.6867-3.0133-1.1397 0.86747 1.8691 0.31959 3.8293-2.1915 8.0233-1.4153 2.3705-2.6024 4.3764-2.6481 4.4219-0.091313 0.13676-7.305-4.0117-7.8072-4.4219-0.27394-0.22794 3.8808-6.9292 4.9309-7.9321 0.63918-0.59263 1.6893-1.0485 2.3741-1.0485s1.2327-0.13676 1.2327-0.31911c-0.045656-0.22794-7.2593-4.6043-8.6747-5.1969-0.18262-0.091174-0.22828 0.6838-0.091312 1.7323 0.22828 1.5955-0.045656 2.4617-1.461 4.9234-3.0133 5.4249-2.5567 5.1969-6.6201 2.8264-4.2004-2.4617-5.2048-3.2823-5.2048-4.2396 0-1.1397 4.2004-7.5674 5.844-8.9351 0.86746-0.77498 1.8719-1.1853 2.3741-1.0485s0.91312 0.045587 0.91312-0.13676c0-0.3647-6.3919-3.3734-7.168-3.3734-0.4109 0-12.008 19.147-12.008 19.876 0 0.22794 0.22828 0.18235 0.54787-0.13676 1.5067-1.5044 3.5155-0.63822 15.295 6.3822 12.464 7.4307 14.793 9.2086 14.838 11.169 0 0.86615 1.8262-1.8235 5.9809-8.7071 3.2872-5.516 5.9809-10.166 5.9809-10.348zm-125.97 13.494c0.4109-1.0029 2.0545-4.6043 3.6068-8.0233 2.5567-5.516 8.4464-18.508 29.357-64.642 3.2416-7.1116 7.4419-16.366 9.3595-20.56 1.9176-4.2396 3.9721-8.7527 4.5656-10.075s2.2371-4.969 3.6525-8.1145c4.2004-9.2086 7.031-13.585 10.318-15.864 1.1414-0.77498 1.8262-1.6411 1.8262-2.2794v-1.0029l-19.906-0.045587c-19.815-0.045587-19.86-0.045587-19.86 0.95733 0 0.68381 0.54787 1.2308 1.8719 1.7779 1.324 0.54704 2.1915 1.322 2.7394 2.5073 1.1871 2.5073 0.45656 5.6528-3.6981 15.773l-3.4699 8.4792h-23.65-23.65l-0.68484-1.322c-1.7349-3.419-7.4876-17.369-7.8528-19.101-0.63918-2.8264 0.18262-4.969 2.4198-6.1542 1.1414-0.63822 1.7806-1.322 1.7806-1.9147 0-0.95733-0.31959-0.95733-18.354-0.95733h-18.308v1.0485c0 0.72939 0.4109 1.2764 1.324 1.6411 2.1915 0.86615 5.0678 4.6499 7.5333 9.7556 1.2784 2.644 8.8573 19.01 16.801 36.378 7.9442 17.369 16.208 35.33 18.308 39.98 2.1002 4.6043 4.383 9.5277 5.0222 10.986 7.5789 16.503 14.245 31.045 14.61 31.729 0.27394 0.54704 1.0044 0.82057 2.0089 0.82057 1.4153 0 1.7349-0.22794 2.3285-1.7779zm-122.22-1.0941c-0.18262-0.6838 0.22828-1.4132 1.3697-2.5073 1.5523-1.4588 17.395-11.67 20.956-13.494l1.598-0.82057 1.5067 1.6411c0.82181 0.86615 2.1458 2.8264 2.922 4.3764 1.2327 2.4617 1.324 2.9632 0.86747 4.2396-0.31959 0.82057-0.50222 1.55-0.36525 1.6867 0.18262 0.18235 6.4832-4.6043 6.4832-4.9234 0-0.27352-11.094-17.733-11.505-18.189-0.31959-0.27352-0.45656 0-0.45656 0.77498 0 1.8691-2.7394 4.0572-13.286 10.622-12.418 7.7498-13.651 8.3424-15.523 7.613-0.82181-0.27352-1.4153-0.3647-1.324-0.18235s1.5067 2.5073 3.1959 5.1969c2.922 4.6955 4.109 6.0175 3.5612 3.9661zm257.73-37.199c2.0545-8.9806 2.3741-13.266 1.2784-16.138-1.4153-3.7381-5.0222-6.0175-9.4965-6.0175-2.6024 0-4.6569 1.0029-6.5745 3.1455l-1.598 1.8235-6.1179-6.2454c-3.3786-3.4646-6.2549-6.7469-6.4375-7.2939-0.54787-1.6867-1.0501-1.1397-1.9632 2.097-1.324 5.0146-1.0044 5.6984 7.4876 13.767 3.9264 3.7381 7.3506 6.8836 7.5789 6.9748 0.22828 0.045587 0.54787-0.59263 0.7305-1.4588 1.1414-5.744 6.8028-7.8866 10.318-3.9205 1.2327 1.3676 1.461 2.0514 1.461 3.9205-0.045656 1.2308-0.31959 3.1455-0.63918 4.194-0.68484 2.2794 0.68484 2.3705-14.427-1.0485-11.825-2.6896-14.062-3.4646-14.884-5.3337-0.54787-1.2764-1.1871-1.3676-1.1871-0.22794 0 0.45587-0.50222 3.0999-1.1414 5.8807s-1.0957 5.1057-1.0044 5.1969 0.54787-0.18235 0.95878-0.59263c1.4153-1.4132 2.8307-1.2308 16.528 1.9147 6.2092 1.4132 12.008 2.7808 12.875 3.0087 2.1915 0.63822 3.9264 1.8235 3.9264 2.6896 0 0.41028 0.13697 0.72939 0.36525 0.72939 0.18262 0 1.0957-3.1911 1.9632-7.066zm-237.18 4.2852c-0.22828-0.45587-0.91312-2.9632-1.5523-5.5616-0.91312-3.7837-1.1871-4.5131-1.5523-3.6925-0.27394 0.54704-0.82181 1.0941-1.2327 1.2308-0.77615 0.22794-6.1179-0.3647-6.4832-0.72939-0.091312-0.13676-0.91312-3.0999-1.8262-6.5645l-1.6436-6.3822 1.598-1.4132c2.9676-2.5985 3.9721-3.0999 4.9765-2.4617 0.50222 0.31911 1.0044 0.59263 1.0957 0.59263 0.091312 0-0.36525-2.2794-1.0501-5.0602-0.68484-2.7352-1.3697-5.0146-1.598-5.0146-0.18262 0-0.45656 0.41028-0.63919 0.91174-0.13697 0.50146-7.2137 6.4734-15.706 13.266-8.492 6.7469-15.523 12.354-15.66 12.491-0.7305 0.59263 2.7394 1.3676 19.632 4.4219 10.41 1.8691 19.358 3.7381 19.906 4.1028 1.3697 0.95733 2.2828 0.91174 1.7349-0.13676z" fill="#DF0716" fill-rule="nonzero"/>
<path d="m145.44 224.15c-1.0957-3.0543-1.9176-5.6072-1.8719-5.6528 0.091312-0.045587 2.1458 0.045587 4.5656 0.13676 2.8307 0.13676 4.4743 0.3647 4.4743 0.72939 0 0.72939-4.52 10.348-4.8852 10.348-0.13697 0-1.1871-2.5073-2.2828-5.5616z" fill="#DF0716" fill-rule="nonzero"/>
<path d="m236.38 206.14c-11.551-13.722-13.332-15.955-13.332-16.913 0-1.2764 3.1959-4.2396 5.9353-5.4704 5.6157-2.5529 12.418 0.6838 15.706 7.4307 2.4654 5.1513 1.3697 10.394-2.922 14.314-3.1959 2.872-3.4699 2.9176-5.3874 0.63822z" fill="#DF0716" fill-rule="nonzero"/>
<path d="m153.7 131.25c-0.27394-0.72939-3.9264-9.3909-8.0355-19.238-4.1547-9.8924-7.6702-18.235-7.8072-18.554-0.18262-0.50146 3.2872-0.59263 16.391-0.59263 15.66 0 16.664 0.045587 16.391 0.82057-0.4109 1.4588-15.751 38.156-16.071 38.521-0.18262 0.18235-0.59353-0.22794-0.86746-0.95733z" fill="#DF0716" fill-rule="nonzero"/>
<path d="m33.078 131.61c-2.8307-0.41028-5.2504-0.91174-5.3874-1.0485-0.13697-0.13676 1.8262-1.8235 4.3373-3.7381 2.5111-1.9147 4.7026-3.3734 4.7939-3.2367 0.13697 0.13676 0.68484 1.8235 1.2327 3.7837 0.50222 1.9147 1.0501 3.9205 1.1871 4.3764 0.31959 0.95733 0.68484 0.95733-6.1636-0.13676z" fill="#DF0716" fill-rule="nonzero"/>
</g>
</g>
</g>
</g>
</g>
</svg>
