<?xml version="1.0" encoding="UTF-8"?>
<svg version="1.1" viewBox="0 0 1000 300" xmlns="http://www.w3.org/2000/svg">
<title>BlackMonk</title>
<desc>Created with Sketch.</desc>
<g fill="none" fill-rule="evenodd">
<g transform="translate(-140 -3867)">
<g transform="translate(140 3867)">
<rect width="1e3" height="300" fill="#fff" fill-opacity=".01"/>
<g transform="translate(372 22)" fill="#000" fill-rule="nonzero">
<g transform="translate(128.55 128.52) scale(-1 1) rotate(180) translate(-128.45 -128.45)">
<path d="m120.29 256.79c-13.914-1.1728-25.086-3.547-36.457-7.7805-39.314-14.617-68.857-47.198-79.686-87.845-4.1143-15.532-5.2-32.896-3.0857-49.715 2.7714-22.197 12.229-44.566 26.457-62.616 19.657-24.943 48.114-41.906 79.114-47.141 8.2286-1.4016 11.629-1.6591 21.6-1.6591 9.7143-0.028605 11.971 0.14302 20.086 1.373 36.971 5.5779 70.914 28.462 90.171 60.814 20.057 33.696 23.857 74.372 10.343 110.79-12.971 34.955-40.229 62.444-74.857 75.602-10.057 3.8044-19.914 6.2072-31.343 7.6089-3.6857 0.45768-19.057 0.82954-22.343 0.5721zm19.8-4.3479c19.657-1.9737 37.743-8.1524 54.229-18.479 24.343-15.218 42.914-38.788 52-65.963 2.7143-8.1238 4.6571-16.734 5.6286-25.029 0.37143-2.9749 0.91428-10.898 0.91428-13.13l0.028571-1.4302h-37.343c-33.743 0-37.314 0.057209-37.486 0.48628-0.11429 0.25744-0.17143 0.71512-0.17143 1.0584 0 1.8021-1.6286 3.5756-23.171 25.086-16.714 16.734-22 21.854-23.029 22.312-0.91428 0.40047-2 0.6007-3.3143 0.6007-1.3143 0-2.4-0.20023-3.2857-0.6007-1.0571-0.45768-6.3429-5.5779-23.057-22.312-21.543-21.511-23.143-23.284-23.143-25.086 0-0.34326-0.085714-0.80093-0.2-1.0584-0.17143-0.42907-3.7429-0.48628-37.486-0.48628h-37.314v1.4302c0 2.2312 0.54286 10.155 0.91428 13.13 3.2571 27.461 15.657 53.234 34.971 72.742 2.4571 2.46 5.8 5.6351 7.4571 7.0654 14.114 12.128 31.543 21.368 48.886 25.945 8.9143 2.3456 15.6 3.404 26.257 4.1477 2.7429 0.20023 14.343-0.085814 17.714-0.42907zm-9.7714-78.349c0.82857-0.40047 7.9143-7.2942 22.4-21.854 22.943-23.027 22.229-22.197 21.714-24.915-0.17143-1.0584-2.4286-3.404-21.686-22.712-11.829-11.842-21.943-21.74-22.457-21.997-1.2286-0.6007-2.6-0.5721-3.8 0.028605-1.3429 0.65791-43.029 42.335-43.743 43.737-0.68571 1.3444-0.71428 2.2884-0.11429 3.7758 0.62857 1.4874 42.057 43.05 43.8 43.908 1.4857 0.74372 2.3429 0.74372 3.8857 0.028604zm-68.314-69.796c0.82857-1.0298 3-3.69 4.8286-5.9212 2.5143-3.0035 3.3429-4.2335 3.3429-4.8628 0-2.174-3.7714-8.8389-10.429-18.479-2.1143-3.0321-3.9429-5.721-4.1143-5.9498-0.2-0.28605-0.17143-0.54349 0.028571-0.74372 0.22857-0.22884 1.4 0.17163 4.0286 1.373 10.057 4.5768 19.657 8.324 22.229 8.6673l1.3143 0.20023 2.4-2.9463c1.3143-1.6019 3.5143-4.2907 4.8857-5.9784l2.4571-3.0321-0.31429-1.5161c-0.48571-2.2884-1.8571-2.3742-3.9714-0.25744l-1.0571 1.0584-13.686-11.27c-7.5143-6.2072-13.686-11.385-13.657-11.528 0-0.14302 0.34286-0.77233 0.74286-1.4016 0.57143-0.82954 0.74286-1.4302 0.68571-2.3456l-0.085714-1.2014-1.6571-0.085814-1.6571-0.085814-4.4857 5.4635c-2.4857 3.0035-4.6286 5.6924-4.7714 6.007-0.14286 0.28605-0.17143 1.1442-0.057143 1.8879 0.17143 1.1156 0.34286 1.4016 0.91428 1.5447 1.0286 0.25744 1.6857-0.028605 2.8857-1.2014 0.54286-0.5721 1.1143-1.0584 1.2286-1.0584s2.2 1.6305 4.6571 3.6614c2.4286 2.0023 6.7429 5.5493 9.5428 7.8377 2.8 2.317 5.1429 4.2335 5.2 4.2907 0.057143 0.05721 0.028571 0.28605-0.057143 0.5721-0.17143 0.40047-0.28571 0.40047-1.3143-0.028605-9.2-4.0047-22.2-8.7531-26.143-9.5826-2.9143-0.6007-2.8571-0.62931-4.0571 0.65791-0.77143 0.82954-1.0857 1.4016-1.0857 2.1168 0 1.9737 4.3714 9.3824 11.6 19.623 2.5429 3.6042 3.9714 5.8926 3.8571 6.1786-0.11429 0.31465-0.28571 0.37186-0.54286 0.17163-0.54286-0.42907-16.086-13.215-17.343-14.274l-1.0857-0.91535 0.88571-1.4302c0.62857-0.97256 0.85714-1.6877 0.77143-2.4028l-0.085714-1.0298-1.8-0.05721-1.8-0.05721-4.6571 5.721c-4.9429 6.0642-4.9714 6.15-4.1714 8.2668 0.45714 1.2586 2.8286 0.71512 4.1429-0.97256 1.1714-1.5161 1.5429-1.2872 13.886 8.8961 6.3143 5.1775 12 9.8973 12.6 10.469 1.4571 1.2872 1.5143 2.3742 0.22857 4.3193-1.4286 2.1454-0.74286 3.4898 1.8286 3.5184 1.3429 0 1.4286-0.05721 2.9143-1.8879zm134.43-6.6077c0.37143-6.9796 0.42857-7.4659 1.6286-11.928 0.68571-2.5744 1.2571-4.6912 1.2857-4.7484 0.057143-0.05721 9.4286-0.91535 20.857-1.8879s20.914-1.8879 21.086-2.0595c0.6-0.6007-0.31428-1.7735-1.6857-2.1168-3.1429-0.80093-5.8286-2.2884-9.1143-4.9772l-2-1.6305-3.1714 0.028605c-1.7714 0-8.3143 0.25744-14.6 0.54349-7.0857 0.31465-11.543 0.40047-11.771 0.22884-0.2-0.14302-0.37143-0.45768-0.37143-0.65791 0-0.54349 10.657-8.2668 11.4-8.2382 0.34286 0 1.3429 0.51489 2.2286 1.2014 2.2571 1.7163 3.4 1.6019 4.0286-0.37186l0.37143-1.087-5.3143-7.3228c-2.9143-4.0047-5.5429-7.5803-5.8857-7.8949-0.57143-0.6007-0.57143-0.6007-1.4571 0.40047-1.0286 1.1442-1 1.6305 0.2 4.6626 0.37143 1.0012 0.62857 1.8879 0.57143 2.0309-0.085714 0.11442-2.0857 1.6019-4.4286 3.2896-2.3429 1.6877-4.5714 3.3468-4.9143 3.6614-0.42857 0.40047-1.5714 0.74372-3.2571 1.0012-1.4 0.22884-3.0571 0.62931-3.6571 0.85814-0.88571 0.37186-1.0286 0.5721-0.85714 1.1442 0.65714 2.3456 1.0286 1.8879-5.3429 6.5219-3.2 2.3456-5.9714 4.2907-6.0857 4.3193-0.14286 0-0.68571-0.82954-1.2571-1.9165-0.91428-1.8307-0.97143-2.1168-0.88571-4.3479 0.11429-2.317 0.37143-3.0321 6.1429-17.735 7.1428-18.164 6.9429-16.963 3.0286-18.45-1.3143-0.51489-2.5143-0.91535-2.6857-0.91535-0.22857 0-19.771 12.014-31.229 19.222-1.1714 0.74372-2.1429 1.1728-2.3143 1.0298-0.34286-0.37186 5.2857-14.474 6.8286-17.134 1.5714-2.6889 3.7143-5.063 5.2286-5.864 0.82857-0.42907 1.6571-0.5721 2.7143-0.51489 1.3429 0.05721 1.5429 0 1.7714-0.62931 0.31429-0.82954 0.057143-2.5744-0.45714-2.9749-0.74286-0.62931-14.371-5.7496-14.829-5.6065-0.28571 0.085814-0.82857 0.42907-1.2286 0.71512-1.3143 1.0298-0.8 2.8319 1.5429 5.3205l0.85714 0.94396-0.51429 2.2312c-0.42857 1.9451-1.9143 5.9212-7.6571 20.452-1.8571 4.7198-3.1429 6.15-7.0286 7.9521-2.2 1.0012-2.5143 1.23-2.4857 1.8879 0.057143 2.0309 0 1.9737 7.2286 4.8342 3.7714 1.4588 6.9714 2.6889 7.1143 2.6889 0.25714-0.028605 8.5143-5.2633 21.714-13.788 3.1143-2.0309 5.7143-3.6328 5.7714-3.5756 0.17143 0.17163-5.2286 13.73-6.0857 15.332-1.6 2.9177-4.3143 4.491-6.7143 3.8903-1.0857-0.28605-1.1429-0.25744-1.4571 0.5721-0.2 0.62931-0.2 1.2014 0.085714 1.9451 0.34286 1.0584 0.48571 1.1442 5.8 3.2323 3.0286 1.1728 5.6286 2.317 5.8571 2.5172 0.2 0.20023 2.4 3.1751 4.8857 6.6077l4.5429 6.2358 1.3714 0.085814c1.2 0.085814 1.4286 0 1.6-0.54349 0.22857-0.77233-0.028571-2.1168-0.82857-3.9761l-0.6-1.4016 1.7714-1.6591c2.5429-2.46 9.6857-7.5517 10.829-7.7805 1.1714-0.22884 1.1714-0.31465 0.4 4.1477-1.4857 8.5528-3.6857 15.59-5.1143 16.362-0.57143 0.31465-0.82857 0.20023-1.9714-0.85814-0.74286-0.68652-1.4286-1.23-1.5714-1.23-0.65714 0.028605-1.5714 1.3158-1.5714 2.2598 0 0.28605 2 3.2609 4.4286 6.6363l4.4286 6.0928 1.2286 0.028604h1.2l0.37143-7.2942zm-84.028-33.725c8.9428-2.1168 10.086-2.5744 11.857-4.634 2.9143-3.4326 5.2-10.67 5.8857-18.679 0.028571-0.14302 0.42857-0.42907 0.91428-0.68651 1.0571-0.54349 1.3714-1.4874 0.94286-2.6602-0.2-0.45768-2.4857-3.5756-5.1143-6.9224-4.0857-5.2061-5.0571-6.2644-6.8571-7.4659-3.9429-2.6316-8.0571-4.4337-10.171-4.4337-1.7429 0-16.029 3.5756-17.343 4.3479-3.1143 1.8307-6.1143 6.6077-8.5714 13.616-0.85714 2.4886-0.91428 2.8605-0.51429 3.2609 0.4 0.40047 0.34286 0.82954-0.57143 4.0905-1.4286 5.063-1.1429 6.3217 1.6286 7.2656 0.62857 0.22884 1.2286 0.5721 1.3143 0.80093 0.11429 0.22884 0.6 1.2872 1.0571 2.3456 1.1143 2.5458 4.4857 6.007 7.6 7.8377 2.3143 1.373 8.1714 3.8903 9.0857 3.8903 0.28571 0 4.2571-0.88675 8.8571-1.9737z"/>
<path d="m119.46 242.85c-0.25714-0.31465-1.4-3.404-2.4857-6.8365-3.6571-11.471-6.2571-17.506-8.5714-19.795-0.71428-0.71512-1.3143-1.4588-1.3143-1.6305 0-0.17163 0.4-0.82954 0.91428-1.4874 0.88571-1.1156 0.91428-1.23 0.71428-3.0607-0.11429-1.0298-0.48571-2.7175-0.8-3.69-0.62857-1.8879-2.5143-5.2633-2.9429-5.2633-0.11429 0-0.68571 0.68652-1.2 1.5161-0.57143 0.88675-1.1714 1.4874-1.4286 1.4302-0.25714-0.05721-0.71428-1.0012-1.1143-2.4028-0.8-2.8319-2.2857-5.3205-4.0857-6.951-0.77143-0.68652-3.9714-3.0035-7.1428-5.1489l-5.7429-3.8903-1.6571 1.6591c-0.91428 0.91535-3 3.6042-4.6286 6.007l-3 4.3193v2.603c0 1.7163-0.11429 2.6888-0.37143 2.8891-0.2 0.14302-1.3429 0.65791-2.5143 1.087l-2.1429 0.80093-3.2857 4.8914c-3.6286 5.3777-3.9714 6.2644-3.9714 10.269 0 1.2014-0.14286 2.2884-0.31429 2.4028-0.17143 0.085815-2.4286-1.2586-5.0286-3.0321-2.6-1.7735-6.4-4.3765-8.4571-5.7782-2.0857-1.4302-3.8286-2.603-3.9143-2.6888-0.42857-0.34326 0.77143-1.1156 2.9714-1.8593 4.0286-1.4016 5.0286-2.2598 8.4286-7.2084l3-4.3193v-2.46c0-1.4874 0.14286-2.603 0.37143-2.8891 0.2-0.25744 1.3429-0.82954 2.5429-1.2872l2.1714-0.82954 2.5714-3.7472c3.4571-4.9772 3.8-5.8354 3.9714-9.5826 0.085714-1.9165 0.028571-3.2609-0.17143-3.6042-0.31429-0.54349-0.34286-0.54349-0.34286 0.085814-0.028571 0.94396-1.3714 5.0917-2.4286 7.4372l-0.91428 2.0023-3.7143 1.7735c-4.4571 2.1168-3.9143 2.2026-9.7143-1.4302-2.8857-1.8307-4.2-2.4886-4.6571-2.3742-0.45714 0.11442-1.3714 1.6019-3.4 5.5207l-2.7714 5.3491-1.7714 0.85814-1.8 0.85814-4.6-1.8593-4.6286-1.8307-7.4286-15.761c-7.1428-15.103-7.4286-15.818-7.0857-16.677 0.22857-0.54349 0.68571-0.97256 1.0857-1.087 1.3429-0.34326 2.0857 0.11442 3.2 1.9451 1.1429 1.8307 2.2 2.7461 3.1429 2.7175 0.28571 0 2.7429-1.0584 5.4857-2.3456l4.9429-2.317 1.3429-1.9737c1.1143-1.6305 1.6571-2.1454 3.1714-2.8891 1.7143-0.85814 1.9143-0.88675 4.1714-0.65791l2.4 0.22884 4.2286-2.0309c4.4571-2.1168 5.2857-2.8033 6.2857-5.2061 0.48571-1.1728 0.65714-3.4898 0.31429-4.0619-0.17143-0.28605 2.1714-1.7449 2.3714-1.4874 0.028571 0.05721 1.1429 3.0893 2.4857 6.7507 2.2571 6.2644 2.6286 7.0368 6.0571 12.758 2.0286 3.404 3.8286 6.8079 4.1143 7.7233 0.28571 1.0012 0.45714 2.7175 0.45714 4.4623-0.028571 2.2884 0.057143 2.7747 0.37143 2.5172 0.28571-0.25744 3.1429 1.5733 11.743 7.4659 6.2571 4.2621 13.771 9.411 16.686 11.413l5.3143 3.6328 4.1429 0.28605c8.2857 0.62931 7.8 0.51489 8.4857 1.6305 0.97143 1.6019 0.8 2.0023-1.4286 3.2037-1.1429 0.6007-2.2 1.4016-2.4571 1.8593-0.4 0.71512-0.37143 1.0012 0.22857 3.1179 0.77143 2.5744 1.8 4.4337 2.9429 5.2919 0.71428 0.54349 1.9714 0.71512 8.8286 1.23l2.2571 0.17163 1.0857-1.4588c1.4-1.8593 2.3429-3.7186 2.8286-5.5779 0.68571-2.5458 0.62857-2.6888-1.2857-3.2896-1.5714-0.48628-3.4-1.8307-3.4-2.4886 0-0.14302 0.37143-0.71512 0.85714-1.2872l0.82857-1.0012 7.8 0.51489c4.2571 0.28605 8.2286 0.5721 8.7714 0.65791l1.0286 0.17163-0.2 2.4314c-0.2 2.6602-0.31429 2.8891-1.7143 3.3754-0.85714 0.28605-1.2286 0.97256-5.4 10.212-4.9714 10.984-11.914 25.201-13.629 27.861l-1.0857 1.7449h-2.2286c-1.8571 0-2.3143-0.11442-2.7429-0.6007zm3.0857-12.157c1.0857-1.6591 4.4-12.214 3.9714-12.643-0.25714-0.25744-8.9428-0.85814-9.1428-0.6293-0.37143 0.34326 2.0857 9.8687 3.2286 12.5 0.71428 1.6591 1.2286 1.8593 1.9429 0.77233zm-84.6-51.517c2.9143-1.6591 4.3429-3.6614 4.8-6.6935 0.11429-0.77233 0.11429-1.8879 0-2.4314-0.17143-0.91535-0.34286-1.0584-1.5429-1.4016-0.77143-0.22884-2.2286-0.31465-3.5143-0.22884-1.8857 0.11442-2.6857 0.37186-5.4286 1.6591-3.0571 1.4588-3.2286 1.6019-3.8 2.9463-1.2 2.8033-0.62857 3.6328 3.7714 5.5493 1.8 0.77233 3.4857 1.4302 3.7429 1.4588 0.25714 0 1.1429-0.37186 1.9714-0.85814zm19.486-6.6363c3.0286-1.0298 5.2857-2.4028 6.2857-3.833 1.2-1.7449 1.4-4.491 0.48571-7.094-0.34286-0.97256-0.74286-1.9165-0.88571-2.0595s-1.7714-0.68651-3.6-1.2586l-3.3429-1.0012-6.0571 2.9177c-7.1714 3.4326-7.2286 3.4898-5.7714 6.2931 1.2 2.317 4.4 5.5207 6.1429 6.1214 1.9143 0.68652 4.6286 0.65791 6.7429-0.085815z"/>
<path d="m169.63 231.61c-1.1714-0.22884-2.9714-0.71512-4.0571-1.0584-3.0571-1.0298-9.4571-4.2621-12.971-6.6077-3.6-2.3742-3.5143-2.2026-2.7714-5.4063 0.45714-1.8593 0.42857-1.9451-0.31429-3.8044-2.0571-5.2061-0.77143-11.156 3.7714-17.449 0.68571-0.97256 3.2-3.69 5.6-6.0642 4.6857-4.6626 5.8-5.3491 10.6-6.7507 3.0857-0.88675 10.343-0.91535 14.029-0.085815 2.8857 0.68652 3.3714 1.2014 3.3714 3.8044v1.5733l-1.7429-0.20023c-4.0857-0.48628-9.6-0.5721-11.571-0.20023-3.2857 0.62931-7.0571 3.2896-8.8 6.2644-1.4286 2.4028-1.9714 4.6912-1.9714 8.467-0.028571 1.8879 0.057143 3.7186 0.17143 4.0619 0.14286 0.42907 0.91428 0.85814 2.6 1.4588 1.3429 0.48628 2.6857 1.087 3.0286 1.3444 0.57143 0.48628 0.57143 0.51489-0.37143 3.1179l-0.94286 2.603 1.7429 2.1454c2.2 2.6888 4.5429 4.634 7.0286 5.7782 1.6 0.77233 2.2857 0.91535 4.2 0.91535 3.0571 0 5.2-0.85814 7.4857-2.9749 3.2286-3.0035 4.7429-7.094 5.0857-13.788l0.2-3.8616 1.6-0.42907c0.88571-0.22884 1.6571-0.37186 1.6857-0.31465 0.028572 0.05721 1.4857 2.7747 3.2286 6.0356 2.9429 5.5493 3.1429 6.0356 2.9143 7.0654-0.37143 1.5733-1 1.9451-3.0286 1.7449l-1.6571-0.17163-5.2 4.3193-5.2 4.3193-5.3714 2.1454c-4.8 1.9165-5.6571 2.174-7.8286 2.2884-1.4 0.05721-3.3429-0.05721-4.5429-0.28605z"/>
<path d="m215.09 203.52c-0.48571-0.91535-0.37143-2.5744 0.28571-4.4623 0.34286-0.94396 0.6-1.8021 0.6-1.9165s-2.6-1.6591-5.7714-3.4326c-3.1714-1.8021-6.2-3.4898-6.7143-3.8044l-0.97143-0.54349-1.0286 0.91535c-0.57143 0.48628-1.1714 0.91535-1.3429 0.91535-0.48571 0-2.9429-2.9463-3.7143-4.4051-0.62857-1.1728-1.2286-1.5733-6.6571-4.634l-5.9714-3.3468-1.6857 1.7163c-2.3714 2.3742-3.0571 2.7175-4.4 2.0595-0.57143-0.25744-1.1143-0.5721-1.1714-0.68652-0.057143-0.085815 2.1429-4.1763 4.8857-9.0391l5.0286-8.8675 1.3714-0.085814c1.5143-0.085814 2.3429 0.42907 2.3429 1.5161 0 0.34326-0.22857 1.5161-0.48571 2.603l-0.48571 1.9451 0.74286 0.62931c0.4 0.37186 3.3429 2.1168 6.5143 3.8903 4.5714 2.603 5.8286 3.1751 6.0286 2.8319 0.14286-0.22884 0.28571-0.54349 0.28571-0.68652s-3.0571-6.3217-6.8286-13.73l-6.8-13.444 0.65714-2.5172c0.37143-1.4016 0.82857-3.8903 1.0286-5.5207 0.28571-2.5172 0.25714-3.3182-0.17143-5.4349-0.37143-1.8021-0.42857-2.6316-0.2-3.0607 0.31429-0.54349 0.37143-0.5721 1.1714-0.085814 0.68571 0.37186 3.2 4.6054 11.171 18.908 5.6857 10.097 10.514 18.65 10.771 18.965 0.45714 0.6007 0.48571 0.6007 5.4-0.25744 4.5429-0.80094 5.5429-1.1156 11.971-3.6328 6.6857-2.603 7.0571-2.7175 7.4571-2.174 0.94286 1.2872 0.8 1.6877-3.2286 8.7531-3.8286 6.7507-3.9714 6.951-5.0286 7.1512-2.0286 0.37186-2.6857-0.91535-1.6286-3.2896l0.6-1.3444-0.94286-0.40047c-1.9429-0.82954-10.743 0.42907-18.514 2.603-2.5429 0.71512-4 1.3444-3.0571 1.3444 0.17143 0 0.4 0.25744 0.51429 0.5721 0.34286 1.0584 12.429 7.5517 14.057 7.5517 0.2 0 0.97143-0.62931 1.7143-1.4016 2.3429-2.4314 3.8-2.6316 4.4857-0.6007 0.31429 1.0298 0.22857 1.2586-4.3714 9.411-2.5714 4.5768-4.7714 8.4384-4.8857 8.5242-0.11429 0.11442-0.77143 0.28605-1.4571 0.37186-1.0571 0.17163-1.3143 0.11442-1.5714-0.37186z"/>
<path d="m121 161.19c-2.3714-1.087-4-4.0619-3.6-6.5505 0.28571-1.7449 1.3714-3.404 2.8286-4.4337 1.1714-0.82954 1.5429-0.91535 3.4857-0.91535 1.9714 0 2.3429 0.085814 3.5143 0.91535 5.1429 3.6042 2.7429 11.528-3.5143 11.528-0.82857 0-2.0286-0.25744-2.7143-0.54349z"/>
<path d="m138.03 145.83c-2.6571-0.6293-4.8571-3.4612-4.8571-6.2931 0.028572-3.4898 3-6.3217 6.6571-6.3217 1.5714 0 3.9429 1.3158 4.9143 2.7461 1.1714 1.6877 1.4 4.6912 0.45714 6.4933-0.8 1.5733-2.4571 2.9463-4.0857 3.3468-1.4571 0.37186-1.6571 0.37186-3.0857 0.028604z"/>
<path d="m99.343 139.13c-2.6286-1.0012-4.2857-3.3182-4.2571-5.9784 0.028571-6.4075 7.8286-8.8389 11.514-3.6042 0.82857 1.1728 0.91428 1.5447 0.91428 3.5184 0 1.9737-0.085714 2.3456-0.91428 3.4898-1.6 2.2884-4.9143 3.4612-7.2571 2.5744z"/>
<path d="m153.49 129.78c-1.6571-0.6007-2.5143-1.2586-3.4286-2.603-1.0286-1.5733-1.2571-3.9761-0.54286-5.8354 0.82857-2.2026 3.5429-4.0619 5.8857-4.0333 3.4 0 6.2857 2.9177 6.2571 6.3503 0 3.0035-1.9143 5.5207-4.6571 6.2358-1.6286 0.40047-2.1143 0.37186-3.5143-0.11442z"/>
<path d="m114.37 122.86c-3.6286-1.6877-4.7143-6.4647-2.1429-9.5826 2.5429-3.1179 6.8-3.2609 9.4857-0.37186 1.9429 2.1168 2.3429 4.4051 1.1429 6.951-0.82857 1.7449-1.3714 2.2884-3.2 3.1179-1.7714 0.80093-3.4 0.77233-5.2857-0.11442z"/>
<path d="m130.91 107.33c-4.1143-1.4302-5.5429-6.6077-2.8-9.9545 3.3143-4.0333 9.7714-2.6316 11.029 2.4028 1.2286 4.8628-3.5143 9.2107-8.2286 7.5517z"/>
<path d="m106.74 59.04c-4.2571-1.2872-8.4-8.3526-10.343-17.535-1-4.8056-0.94286-8.8961 0.14286-11.699 0.82857-2.1454 3.3143-4.777 5.2857-5.6637 3.3429-1.4588 7.8857 0.94396 11.086 5.864 0.82857 1.2872 1.2857 2.7747 2.8286 9.3538 1.7714 7.6375 1.8 7.8377 1.5143 10.012-0.42857 2.8319-1.2571 5.5207-2.1143 6.7793-0.97143 1.4016-2.2571 2.174-4.4571 2.7175-2.1429 0.48628-2.7714 0.51489-3.9429 0.17163z"/>
</g>
</g>
</g>
</g>
</g>
</svg>
