<?xml version="1.0" encoding="UTF-8"?>
<svg version="1.1" viewBox="0 0 1043 300" xmlns="http://www.w3.org/2000/svg">
<title>Choinkowo</title>
<desc>Created with Sketch.</desc>
<g fill="none" fill-rule="evenodd">
<g transform="translate(-119 -5230)">
<g transform="translate(119 5230)">
<rect x="21" width="1e3" height="300" fill="#fff" fill-opacity=".01"/>
<g transform="translate(0 53)" fill="#C71535" fill-rule="nonzero">
<g transform="translate(521.23 97.434) scale(-1 1) rotate(180) translate(-521.22 -97.221)">
<path d="m85.836 193.43l-2.6674-0.85141v-4.6828-4.6828l-2.6674-0.37249c-27.581-3.7781-50.574-18.092-65.511-40.708-6.5084-9.8444-10.883-20.487-13.39-32.726-2.0272-9.7912-2.1339-24.531-0.26674-34.11 1.8138-9.2591 4.1078-16.017 8.2155-24.318 4.6946-9.472 9.7093-16.443 17.338-23.999 7.522-7.5563 14.511-12.558 24.06-17.294 17.871-8.7802 35.423-11.494 55.001-8.4077 33.129 5.2149 61.35 28.948 72.073 60.61 3.7877 11.175 4.5345 16.07 4.5345 29.906 0 10.643-0.16004 13.037-1.2803 18.092-3.8944 17.986-11.576 32.513-23.846 45.231-14.671 15.166-32.489 24.372-52.814 27.298l-6.295 0.90462v4.6828c0 4.5763-0.053348 4.6828-1.5471 5.2681-2.5073 1.0111-8.0021 1.1175-10.936 0.15964zm7.8954-26.926l1.7605-5.6938 6.8285-0.15964 6.7751-0.15964-5.3881-3.7781c-2.9875-2.1285-5.3881-3.8846-5.3881-3.9378 0-0.053214 0.85356-2.8735 1.9205-6.2259 1.067-3.3524 1.8672-6.1727 1.8138-6.2259-0.053348-0.053214-2.5073 1.5964-5.3881 3.7249l-5.2814 3.8314-1.7605-1.2771c-0.90691-0.69177-3.1475-2.3414-4.908-3.6717-1.8138-1.3303-3.4142-2.2882-3.5743-2.0753-0.21339 0.15964 0.53348 2.9267 1.6004 6.0663l1.9739 5.8002-5.3881 3.8846-5.3881 3.8846 6.6685 0.31928 6.6685 0.26607 1.9739 5.9599c1.1203 3.3524 2.1873 5.8535 2.3473 5.5874 0.21339-0.21285 1.1736-2.9799 2.1339-6.1195zm10.403-43.954c6.7751-10.855 12.323-19.955 12.323-20.221 0.053348-0.74498-8.1088-2.2882-15.631-2.9799-6.295-0.58535-15.204-0.21285-21.606 0.85141l-1.9205 0.31928 1.4404-0.85141c6.0816-3.5121 23.58-5.002 33.609-2.8203 0.85356 0.15964 1.6538 0 2.0272-0.42571 0.32008-0.42571 3.0408-5.5342 6.0283-11.334 3.0408-5.8535 6.6151-12.718 8.0021-15.272 1.3337-2.501 2.3473-4.9488 2.1873-5.3213-0.69352-1.8625-17.018-5.5874-28.808-6.5984-9.1224-0.7982-20.059-0.10643-29.234 1.756-2.9341 0.58535-5.3881 1.0111-5.4415 0.90462-0.32009-0.31928 9.1224-3.1396 13.284-3.991 9.3358-1.9157 25.714-1.6496 40.011 0.58535 2.7741 0.47892 5.2281 0.7982 5.3881 0.7982 0.53348 0.053213 5.1747-6.8645 11.363-16.709 3.9477-6.2259 5.2281-8.727 4.6946-9.0462-0.96026-0.53213-12.483-2.9267-21.072-4.3635-24.113-4.0974-37.503-4.3635-56.495-1.1175-6.8285 1.2239-22.033 4.8424-22.726 5.481-0.21339 0.21285 4.0011 6.9709 9.3892 15.059 5.3881 8.0352 9.816 14.74 9.816 14.846s-2.1339 0.74498-4.7479 1.49c-4.5345 1.1707-5.4415 1.8625-4.2678 3.0864 0.58682 0.63856 19.685 34.163 19.685 34.535 0 0.15964-1.4404 0.53213-3.0942 0.90462-2.1339 0.42571-2.9875 0.85141-2.7207 1.2771 0.58682 0.95784 12.003 18.412 19.365 29.587 3.4142 5.1617 6.295 9.3655 6.5084 9.3655 0.21339-0.053214 5.9216-8.9398 12.643-19.795z"/>
<path d="m343.13 185.87c-3.0942-1.3835-10.403-8.727-14.724-14.793-11.31-15.911-24.273-42.677-30.675-63.377-1.2803-4.1506-2.7207-8.727-3.1475-10.217-2.8808-9.2591-17.498-26.553-28.648-33.79-8.1088-5.3213-13.337-6.8645-19.045-5.6938-2.7207 0.53213-3.681 1.0643-5.8149 3.2992-3.2542 3.3524-4.1611 6.3856-4.0544 13.463 0.21339 17.773 15.791 40.176 28.061 40.442 1.9739 0.053213 2.6674-0.21285 3.6276-1.3303 0.96026-1.2239 1.067-1.9157 0.74687-4.7892-0.37343-3.9378-2.5073-8.6205-4.8013-10.536l-1.6538-1.3835 2.2406-1.9689c2.5607-2.3414 3.7343-2.4478 7.0419-0.85141 2.8808 1.3835 5.6015 4.3103 7.0952 7.7159 2.1873 4.8956 0.53348 12.984-3.5743 17.667-2.5607 2.8203-5.6015 4.1506-9.7626 4.1506-16.004 0.053213-35.743-18.997-40.598-39.165-1.9205-7.982-1.3337-18.252 1.4404-25.276 3.2009-8.1416 10.456-12.505 18.352-11.015 5.1747 1.0111 8.5356 2.1817 14.084 4.9488 9.4425 4.6828 16.751 10.323 25.714 19.795l5.9749 6.2792v-6.7049c0-10.536 1.8138-21.498 3.9477-24.052 0.37343-0.42571 1.2803-0.74498 2.0806-0.74498 3.1475-0.053213 7.5754 6.9709 14.937 23.733 4.7479 10.802 10.563 22.083 13.657 26.713 3.5209 5.1617 8.4289 9.6848 11.043 10.217 4.8546 0.90462 6.7218-1.49 6.6151-8.4609-0.053348-4.736-0.85356-8.1948-5.8682-24.744-3.3609-11.334-4.3745-16.39-3.7343-19.423 1.4404-7.0774 12.803-10.323 21.392-6.1727 4.3745 2.1285 9.3358 7.237 14.137 14.421l3.7877 5.6406 0.96026-3.7249c1.9739-7.9288 6.7751-14.048 13.124-16.869 6.7751-2.9799 17.925-0.95784 25.287 4.6295 7.7354 5.9067 12.963 14.793 18.352 31.183 3.6276 11.068 4.4812 15.272 4.4812 22.616 0 5.6938-0.16004 6.7049-1.3337 9.0995-2.5073 4.8956-7.0419 7.1306-14.457 7.1306-14.884 0-32.755-15.911-42.838-38.101-9.2291-20.274-16.965-30.065-23.633-30.065-2.5607 0-4.5879 2.3414-5.1747 5.9599-0.53348 3.4589 0.53348 8.6738 4.7479 22.828 4.6412 15.538 5.2814 18.944 5.0147 24.744-0.21339 4.0442-0.48013 5.3213-1.8672 7.8756-2.3473 4.3635-5.3881 6.3324-10.083 6.6517-3.0942 0.15964-4.1078 0-6.8285-1.3303-7.8954-3.8846-18.938-17.454-31.048-38.26-2.9341-5.1085-3.2009-4.5231-1.8672 4.736 1.1203 8.3013 2.614 13.889 7.5754 28.788 4.3212 13.09 6.7751 18.465 12.323 27.245 6.7751 10.802 9.0157 13.037 19.579 19.636 6.8818 4.2571 8.5356 6.2792 8.8557 10.696 0.32009 4.2571-0.90691 7.6627-3.5743 10.004-2.2939 2.0221-4.0011 2.1285-7.4687 0.53213zm78.634-74.02c2.4006-1.5432 3.681-4.6828 3.681-9.0462 0-4.9488-1.1736-9.2059-4.2678-15.751-3.0408-6.4388-4.9613-9.5252-9.5492-15.485-6.7218-8.6205-12.27-12.292-17.978-11.813-2.7207 0.26607-3.4142 0.53213-4.9613 2.2882-4.5345 4.8956-3.841 13.197 2.0272 25.436 6.4551 13.463 13.977 21.977 22.299 25.063 2.5073 0.95784 6.7751 0.58535 8.749-0.69177z"/>
<path d="m630.78 185.82c-3.0942-1.5964-9.6026-8.248-13.764-14.155-11.31-15.804-22.886-39.537-30.622-62.845-3.5743-10.696-6.9352-17.188-15.738-30.385-5.9216-8.9398-12.857-16.975-16.058-18.625-2.0806-1.0643-4.8013-1.0643-6.9352 0.053213-3.3609 1.756-3.2009 3.6717 1.227 15.591 4.0011 10.749 5.4948 15.538 6.7218 21.551 2.2939 10.696-0.1067 21.392-5.6548 25.649-1.9205 1.4368-2.454 1.5432-6.8818 1.49-9.9227-0.15964-18.725-5.002-31.102-17.188-3.4142-3.3524-5.6548-5.2149-5.7615-4.736-0.1067 0.4257 0.85356 3.9378 2.0806 7.7159 3.5209 10.749 2.9341 13.942-2.5073 13.995-2.3473 0-2.8274-0.26607-5.2281-2.7139-2.9875-3.0864-4.5879-7.0774-11.31-27.511-3.4676-10.696-4.1611-12.133-7.362-16.869-4.4279-6.492-14.084-16.23-18.778-18.944-1.9205-1.1175-5.0147-2.3414-6.8285-2.7139-3.0408-0.63856-3.5209-0.58535-5.1214 0.37249-3.4142 1.9689-4.1611 3.6185-4.3745 9.472-0.16004 4.1506 0.053347 6.0663 1.0136 9.3123 1.6538 5.481 6.9885 15.432 14.884 27.777 7.3086 11.441 9.4959 15.645 8.9624 17.294-0.64017 1.9157-4.1078 4.5231-6.135 4.5231-2.0806-0.053213-5.2281-2.0753-8.0555-5.3213-9.4425-10.696-22.459-42.038-22.726-54.49-0.1067-7.1306 2.9875-11.92 9.6559-14.953 2.614-1.2239 3.5743-1.3303 7.5754-1.1175 7.8954 0.42571 14.884 3.991 23.1 11.813 2.8808 2.7139 5.2281 4.6295 5.2281 4.2038 0-0.42571-0.37343-2.2882-0.80021-4.1506-0.96026-3.9378-1.067-7.7159-0.26674-9.2591 0.96026-1.756 3.5743-2.7139 7.4687-2.7139 3.1475 0 3.7343 0.15964 4.2678 1.1175 0.37343 0.63856 1.7605 5.1085 3.1475 9.9509 2.5073 8.8334 6.135 19.21 8.2155 23.254 1.8672 3.8314 6.8285 11.068 9.6026 14.102 5.4948 6.0663 14.457 11.494 20.165 12.186 3.5209 0.4257 7.0419-0.42571 9.1224-2.235 1.4404-1.2239 1.5471-1.5964 1.4937-5.1617-0.053348-4.5231-0.90691-8.727-5.0147-24.744-4.5345-17.56-4.5879-20.753-0.58682-25.063 8.0021-8.5673 21.552-1.1707 37.45 20.434 1.8138 2.5542 3.5209 4.6295 3.7343 4.6295 0.16004 0 0.26674-4.9488 0.16004-11.015-0.16004-9.1527 0-11.388 0.74687-13.41 1.1203-2.8735 3.0408-4.0442 6.5618-4.0974 5.0147 0 7.8421 3.6185 11.897 15.113 1.1736 3.246 2.8274 7.5031 3.7877 9.472 1.8138 3.7781 5.6548 8.4077 6.9885 8.4077 0.48013 0 2.454-3.5121 5.0147-8.7802 8.3756-17.56 14.564-24.212 22.566-24.159 6.9885 0 16.378 7.1838 24.7 18.944 1.9739 2.7671 3.7877 5.0553 4.0011 5.0553 0.26674 0 0.48013-0.95784 0.48013-2.1285 0-5.0553 2.6674-11.175 6.8818-15.645 4.0544-4.3103 8.3222-6.2259 13.71-6.2259 12.537-0.053213 22.459 6.6517 29.928 20.115 2.9875 5.4277 7.0952 16.922 9.976 27.937 1.8138 6.8113 1.8672 17.188 0.16005 20.381-1.6004 2.9799-3.0942 4.4699-5.9749 6.0131-2.0272 1.0643-3.2009 1.2239-8.4823 1.2239-5.3881 0-6.6151-0.15964-9.6026-1.4368-11.203-4.6828-24.273-17.933-31.102-31.396-7.9488-15.698-24.273-33.311-30.835-33.365-3.0942 0-7.4687 5.3745-14.831 18.146-3.7877 6.5452-5.7082 11.015-6.1883 14.368-0.53348 3.8846 4.6946 10.696 11.256 14.634 3.681 2.235 7.4153 3.0332 9.2825 2.0221 0.69352-0.31928 2.1339-1.6496 3.2009-2.8203 3.4676-3.8314 5.7615-3.5121 8.4289 1.0111 1.387 2.3946 1.5471 3.0864 1.4404 7.2902-0.16004 6.1195-1.6538 9.3655-5.1747 11.122-2.9341 1.49-6.6684 1.6496-10.029 0.47892-8.4823-2.9799-24.006-18.199-39.21-38.314-4.5345-6.0663-4.8546-6.3324-5.0147-4.736-0.32009 2.7671 1.0136 11.867 2.7207 18.731 2.614 10.43 9.8693 30.97 13.017 36.877 4.6946 8.7802 10.563 17.294 14.297 20.753 1.9205 1.756 5.9749 4.736 8.9624 6.5452 3.0408 1.8625 6.4551 4.3103 7.5754 5.4277 3.4676 3.4589 4.0544 8.6738 1.4937 13.569-2.2406 4.4699-5.9216 5.6406-10.296 3.2992zm83.276-74.605c2.5073-2.3946 3.2009-4.2038 3.2009-8.4609 0-9.6848-8.1088-25.808-18.138-36.079-4.6412-4.7892-8.6957-7.0241-12.643-7.0241-9.7093 0-11.736 10.962-4.908 25.968 8.1088 17.773 18.885 28.309 28.061 27.405 2.0272-0.21285 3.2009-0.69177 4.4278-1.8092z"/>
<path d="m1029.5 183.75c-14.724-8.4609-34.142-45.604-45.399-86.95-2.0272-7.4498-4.5879-18.944-5.3348-23.893-1.4937-10.217 2.7207-20.008 10.296-23.946 3.4676-1.8092 10.029-1.7028 14.884 0.26607 9.6026 3.8846 19.098 13.995 25.393 27.139 1.5471 3.1928 2.4006 5.747 2.5607 7.9288 0.32009 3.1928 0.26674 3.246-1.6004 4.3635-2.1339 1.3303-4.0011 1.49-4.8013 0.47892-0.26674-0.37249-0.85356-1.8625-1.227-3.1928-3.0408-10.749-17.551-24.052-26.194-24.052-5.4415 0-7.9488 7.0774-6.4017 17.88 2.1873 14.846 11.15 40.655 21.126 60.769 5.6548 11.388 8.2155 14.527 15.951 19.529 9.2291 5.9067 11.15 7.4498 12.27 9.6848 3.1475 6.1727-0.85356 15.645-6.6151 15.591-1.227 0-3.2008-0.63856-4.908-1.5964z"/>
<path d="m476.66 149.16c-5.2814-2.235-7.522-4.0974-8.6423-7.0241-0.48013-1.2771-0.37343-2.0221 0.53348-4.0442 0.85356-2.0221 1.6004-2.7139 3.681-3.6185 3.2009-1.4368 6.2417-1.1175 10.243 1.0643 8.749 4.7892 10.456 10.483 4.1611 13.729-2.2939 1.1707-7.0952 1.1175-9.976-0.10643z"/>
<path d="m781.76 123.56c-0.80021-0.69177-1.5471-2.2882-2.0272-4.4167-1.8672-8.0884-8.0021-23.627-13.604-34.589-9.0157-17.614-19.899-28.842-23.793-24.478-3.1475 3.5121-4.1078 13.463-2.1873 22.562 1.9739 9.3655 6.2417 19.423 12.803 30.544 2.9341 4.8956 3.0408 5.2149 2.1873 6.2259-1.6004 1.756-7.522 4.5763-9.1758 4.4167-4.2678-0.53213-14.457-22.562-18.992-40.974-5.7615-23.733 5.9216-41.187 22.353-33.311 6.0283 2.8735 11.683 8.993 18.085 19.689l1.067 1.8625 0.37344-5.8535c0.37343-6.7049 0.96026-8.7802 3.1475-11.654 1.9739-2.6607 2.7207-3.246 5.7615-4.6295 3.4142-1.5432 9.4959-1.2239 14.351 0.74498 14.457 5.8535 31.208 25.968 40.171 48.211 3.8944 9.738 5.2814 17.667 3.681 21.179-0.90691 1.9689-6.1883 4.3635-10.189 4.6828-2.8274 0.21285-3.4676 0.10643-4.5879-1.0111-2.454-2.235-3.2009-6.0131-3.6276-17.241l-0.32009-10.377-2.9341-5.5342c-4.7479-8.9398-8.9624-14.793-14.937-20.753-6.2417-6.2259-11.256-9.4187-13.07-8.3013-1.9205 1.1707-2.5073 4.4699-2.1873 12.771 0.32009 10.057 2.1339 18.199 7.6287 34.801 1.5471 4.736 2.8274 9.0995 2.8274 9.7912 0 1.4368-1.6004 4.0442-3.1475 5.1085-0.58682 0.4257-2.7207 0.95784-4.6946 1.1707-3.0942 0.31928-3.841 0.21285-4.9613-0.63856z"/>
<path d="m866.85 122.87c-7.3086-2.3946-13.07-6.3856-20.325-13.995-11.15-11.707-18.565-26.713-18.512-37.462 0.053349-10.111 6.295-19.689 14.777-22.669 5.0147-1.756 14.19-0.53213 20.379 2.7139 4.4278 2.3414 10.723 8.6205 13.71 13.729 4.3745 7.5031 9.8693 22.403 12.057 32.779 1.227 5.5342 1.387 13.144 0.37344 16.549-0.96026 3.246-3.4142 6.2792-6.4551 7.8223-3.2542 1.7028-11.683 2.0221-16.004 0.53213zm9.4425-11.122c2.7741-2.0753 3.681-4.4167 3.681-9.3655-0.053349-10.004-7.8421-25.276-18.352-35.919-4.6946-4.7892-7.4153-6.3324-11.79-6.6517-4.3212-0.26607-6.6684 0.95784-8.2155 4.4699-1.2803 2.7139-1.4937 8.5141-0.48013 12.558 0.90691 3.7249 5.5482 14.048 8.6957 19.316 4.6412 7.6627 13.017 15.272 18.298 16.603 2.6674 0.69177 6.5084 0.21285 8.1622-1.0111z"/>
<path d="m914.7 123.35c-0.58682-0.21285-1.7071-1.0643-2.4006-1.8092-1.227-1.3835-1.2803-1.5964-1.4937-17.507-0.21339-16.656-0.90691-24.851-3.1475-35.706-2.614-12.824-5.068-20.221-15.844-47.573-4.8013-12.186-4.7479-16.656 0.37343-19.795 2.1873-1.3835 4.5879-1.0643 6.4017 0.74498 1.2803 1.2239 11.63 33.258 20.859 64.494 2.9875 10.111 4.4812 14.208 6.7751 18.465 7.4687 13.995 15.631 22.935 23.206 25.542 5.1747 1.756 9.2291 0.15964 11.576-4.5763 1.1736-2.3414 1.3337-3.4589 1.3337-9.3655 0-7.7159-1.1203-12.186-4.8013-19.263-6.6684-12.824-17.498-20.487-30.461-21.551-6.0816-0.47892-7.6287-1.4368-6.5084-4.0442 1.067-2.6607 2.7741-3.5121 7.1486-3.4589 8.3756 0 20.699 4.736 29.608 11.334 9.3358 6.9177 15.044 15.059 18.512 26.394 1.3337 4.4699 1.5471 5.9067 1.5471 13.676 0.053349 8.6205 0.053349 8.6738-1.7071 12.399-2.4006 5.1085-6.7218 9.3655-11.15 11.015-2.7207 1.0111-4.1078 1.2239-7.8954 1.0111-6.7218-0.31928-11.736-2.9267-18.085-9.3123-2.6674-2.6607-6.0283-6.492-7.5754-8.5673-1.4937-2.0753-3.0942-3.7781-3.4676-3.7781-0.58682 0-0.74686 1.756-0.74686 7.7159 0 6.3856-0.16005 7.982-1.0136 9.5784-1.8672 3.4056-7.4687 5.4277-11.043 3.9378z"/>
<path d="m884.5 62.685c-4.0544-1.5432-6.4551-4.7892-6.4551-8.8334 0-2.8735 0.42678-3.6185 2.8808-4.8956 4.8013-2.3946 12.91-0.85141 15.684 2.9799 1.4937 2.1285 1.5471 5.6406 0.053343 7.5563-2.3473 3.246-8.1622 4.736-12.163 3.1928z"/>
</g>
</g>
</g>
</g>
</g>
</svg>
