<?xml version="1.0" encoding="UTF-8"?>
<svg version="1.1" viewBox="0 0 1000 300" xmlns="http://www.w3.org/2000/svg">
<title>Ergo</title>
<desc>Created with Sketch.</desc>
<g fill="none" fill-rule="evenodd">
<g transform="translate(-140 -411)">
<g transform="translate(140 411)">
<rect width="1e3" height="300" fill="#fff" fill-opacity=".01"/>
<g transform="translate(117 77)">
<path d="m410.67 101.68c-6.7345 4.1149-14.493 6.2244-22.374 6.0833-21.194 0-31.579-14.63-31.579-32.515 0-20.136 14.169-33.458 32.699-33.458 7.0025-0.29869 13.973 1.1102 20.316 4.1062l-5.359 12.41c-4.4496-1.8149-9.2163-2.7148-14.018-2.6462-13.382 0-17.924 8.0604-17.924 19.193 0 12.015 6.0553 19.771 16.743 19.771 2.6188 0.11813 5.2294-0.37103 7.6297-1.4296v-11.163h-10.809v-12.623h24.645l0.030276 32.272z" fill="#E4032E" fill-rule="nonzero"/>
<path d="m338.43 106.64c-1.6952-6.2581-4.5847-12.126-8.5077-17.277-1.0968-1.6366-2.5996-2.9576-4.3598-3.8325h-5.147v21.292h-14.745v-63.388c3.0277-0.51708 5.3287-0.79083 8.5986-1.095 3.2699-0.30417 6.3884-0.45625 10.143-0.45625 4.2769-0.097231 8.5438 0.45654 12.656 1.6425 3.1144 0.91085 6.0098 2.4533 8.5077 4.5321 2.1842 1.8464 3.8621 4.2232 4.8745 6.9046 1.0493 2.5986 1.5841 5.3778 1.5744 8.1821 0.041452 3.7973-1.0099 7.5258-3.0277 10.737-2.0954 3.0994-4.8065 5.7299-7.9628 7.7258v0.27375c7.0242 3.2242 10.99 13.596 14.866 24.79l-17.47-0.030417zm-1.2413-43.131c0.11945-2.4356-0.95481-4.7758-2.8763-6.2658-2.2522-1.5989-4.9645-2.411-7.7206-2.3117h-2.5432c-0.81747 0-3.0277 0.21292-3.6635 0.33458v18.25c0.99913 0 3.0277 0.21292 4.6929 0.21292 3.1689 0.10398 6.2878-0.81258 8.9013-2.6158 2.1815-1.9136 3.3652-4.7293 3.2093-7.6346v0.030417z" fill="#E4032E" fill-rule="nonzero"/>
<path d="m253.96 91.554v-48.667h43.296v13.596h-28.46v10.92h24.221v12.745h-24.221v6.8438c-0.2062 1.6193 0.32592 3.2457 1.4482 4.4263 1.1223 1.1806 2.715 1.7895 4.3346 1.657h23.949v13.505h-29.732c-11.081 0-14.957-5.11-14.957-15.208" fill="#E4032E" fill-rule="nonzero"/>
<path d="m478.58 74.673c0 19.193-12.716 32.972-31.427 33.002-17.682 0-30.852-12.623-30.882-32.972 0-21.809 15.592-33.063 31.427-33.063 15.138 0 30.852 10.615 30.882 33.032m-15.32 0c0-9.125-4.4204-19.801-15.895-19.801-10.385 0-15.865 9.125-15.865 19.801 0 12.167 6.7517 19.801 15.895 19.801 11.475 0 15.865-10.524 15.865-19.801" fill="#E4032E" fill-rule="nonzero"/>
<path d="m521.18 43.405c4.7534 0 5.4498 0.24333 5.8737 1.3992l21.345 59.465c0.42387 1.1254-0.27249 1.5512-5.359 1.5512h-1.0294c-4.9957 0-6.2067-0.42583-6.57-1.46l-4.9351-14.387h-19.862l-4.6929 14.509c-0.33304 1.0342-1.3019 1.4904-6.2976 1.4904h-0.75692c-5.0865 0-5.6012-0.24333-5.1773-1.46l21.012-59.586c0.33304-0.94292 0.78719-1.3992 5.7828-1.3992l0.66609-0.12167zm-7.2967 37.017h13.473l-0.93858-3.0417c-3.0277-9.5508-4.5112-14.296-5.7223-18.798-1.2111 4.3192-3.0277 10.676-5.8434 18.98l-0.96885 2.8592z" fill="#625954" fill-rule="nonzero"/>
<path d="m571.29 43.374c9.7491 0 16.228 1.2167 20.709 5.8704 3.0299 3.4533 4.5852 7.9659 4.3296 12.562 0.27656 7.5157-3.9255 14.476-10.688 17.702l1.9983 3.65c3.9004 7.2783 8.3224 14.262 13.231 20.896 0.78719 1.0342 0.33304 1.7338-3.3607 1.7338h-4.7534c-3.0277 0-4.1479 0-5.359-1.3079-4.1215-5.4001-7.6824-11.209-10.627-17.338l-2.846-5.2925h-5.3892v22.63c0 1.0342-1.3019 1.3079-5.8737 1.3079h-0.93858c-4.8443 0-5.692-0.24333-5.692-1.3079v-59.799c0-1.1254 0.5147-1.3079 3.8754-1.3079h11.384zm-3.0277 28.622h4.2387c3.1725 0.27695 6.3206-0.7553 8.7197-2.8592 1.7694-1.9741 2.6558-4.5906 2.4524-7.2392 0.15994-2.2293-0.59489-4.4273-2.0891-6.0833-2.5811-2.0035-5.8463-2.9001-9.083-2.4942h-4.1479l-0.09083 18.676z" fill="#625954" fill-rule="nonzero"/>
<path d="m644.89 43.313c1.2111 0 1.4836 0.1825 1.4836 4.5929v0.69958c0 4.2583-0.33304 4.7754-1.4533 4.7754h-23.737v15.786h20.013c1.2111 0 1.4533 0.1825 1.4836 4.5929v0.69958c0 4.2583-0.33304 4.7754-1.4533 4.7754h-20.104v16.486h24.221c1.2111 0 1.4533 0.1825 1.4836 4.5929v0.69958c0 4.2583-0.33304 4.7754-1.4533 4.7754h-32.699c-3.3607 0-3.8754-0.1825-3.8754-1.3079v-59.83c0-1.1254 0.5147-1.3079 3.8754-1.3079l32.214-0.030417z" fill="#625954" fill-rule="nonzero"/>
<path d="m662.39 43.313c4.8443 0 5.4498 0.42583 6.0553 1.3688l15.562 23.755c3.9894 5.4735 7.4084 11.344 10.203 17.52-0.33304-4.1671-0.5147-13.961-0.54498-20.014v-21.292c0-0.94292 0.78719-1.3079 5.5104-1.3079h0.60553c4.4809 0 5.6012 0.33458 5.6012 1.3079v59.83c0 1.0342-0.42387 1.3079-4.9957 1.3079h-0.5147c-4.1479 0-5.1773-0.24333-5.8737-1.3688l-15.562-23.755c-6.6609-10.129-9.083-14.052-10.294-17.581 0.42387 4.0758 0.60553 14.113 0.60553 20.105v21.292c0 1.0342-1.0294 1.3079-5.5104 1.3079h-0.5147c-4.7534 0-5.692-0.1825-5.692-1.3079v-59.86c0-1.1254 0.24221-1.3079 4.9048-1.3079h0.45415z" fill="#625954" fill-rule="nonzero"/>
<path d="m738.42 43.252c4.7534 0 5.4498 0.24333 5.8737 1.3688l21.345 59.465c0.42387 1.1254-0.24221 1.5512-5.359 1.5512h-0.99913c-4.9957 0-6.2067-0.42583-6.57-1.46l-4.9351-14.387h-19.862l-4.7232 14.387c-0.33304 1.0342-1.3019 1.46-6.2976 1.4904h-0.84775c-5.0865 0-5.6012-0.27375-5.1773-1.46l21.012-59.586c0.33304-0.94292 0.78719-1.3992 5.7828-1.3992l0.75692 0.030417zm-7.2967 36.895h13.473l-0.93858-3.0417c-3.0277-9.5204-4.5112-14.296-5.7223-18.798-1.2111 4.3192-3.0277 10.676-5.8434 18.98l-0.96885 2.8592z" fill="#625954" fill-rule="nonzero"/>
<g fill="#625954" fill-rule="nonzero">
<g transform="translate(0 94.292)" opacity=".3">
<path d="m2.0891 2.8592c7.327 5.2317 42.66-1.6121 68.97 12.958 46.596 25.763 70.06 34.949 104.79 34.097 28.642-0.69958 78.356-14.995 26.977-11.893-5.904 0.365-25.705 0.97333-25.705 0.97333l-15.35-1.4904c-23.12-2.1799-45.562-9.0398-65.973-20.166-34.546-19.162-61.795-14.691-61.795-14.691l-31.912 0.21292z"/>
</g>
<g transform="translate(33.304 9.125)" opacity=".3">
<path d="m58.01 15.999c-6.0553-1.1254-5.3287-6.0833-0.60553-12.167-2.2708-5.5358-40.177 13.262-40.177 13.262-1.3322 0.42583-13.503 8.2733-13.503 8.2733l-1.0294 11.498 7.7508 5.9008-7.7508 4.4408-0.33304 40.393 15.138 0.42583 21.194 4.7146v-13.262l-7.9325-2.8288v-37.443s64.126-8.4862 74.541-10.068c2.5735-0.27375 1.1505 46.477 1.1505 46.477l8.1747-0.42583v-44.043s23.374 0.57792 29.671-2.1292c4.9957-2.1292 11.687-6.6612 6.8728-14.144-3.9662-6.0833-20.376-3.8325-31.064-3.6196-10.688 0.21292-55.225 7.0567-62.097 4.745z"/>
</g>
<path d="m43.568 49.518c-1.5132-0.42727-2.9527-1.0837-4.269-1.9467-0.30277-0.57792-3.0277-2.0075 0.30277-4.4408 4.8521-2.7599 9.914-5.1297 15.138-7.0871 8.9049-3.0295 18.114-5.0695 27.461-6.0833 0.11705 0 0.21194 0.095326 0.21194 0.21292 0.0010883 0.10667-0.076565 0.19768-0.18166 0.21292-3.8395 0.72557-7.6392 1.6494-11.384 2.7679-6.8329 1.6451-13.501 3.9155-19.922 6.7829-2.5432 1.3079-8.7802 3.5892-9.9005 5.2317-1.1202 1.6425 3.2699 4.0454 3.5726 4.5017s-0.72664-0.24333-0.81747-0.15208c-0.057484 0.027393-0.12418 0.027393-0.18166 0h-0.030277z" stroke="#625954" stroke-linecap="round" stroke-linejoin="round" stroke-width="3.024"/>
<path d="m42.266 49.731c-2.1837-0.38448-4.2533-1.2577-6.0553-2.555-0.83813-4.5339-0.83813-9.184 0-13.718 8.1142-7.7258 37.028-18.25 49.896-21.292 80.687-19.193 172.18-7.0263 195.77-4.38 6.0553 0.66917-71.423-3.0417-86.894-3.4979-8.538-0.15208-51.47 2.4029-69.031 4.8362-8.7197 1.2167-18.529 2.1596-27.249 4.0454-8.7197 1.8858-17.106 3.9846-25.493 6.5092-8.4372 2.1231-16.658 5.0355-24.554 8.6992-1.9074 1.0038-8.4169 3.3458-10.688 6.0833-0.74877 4.0089-0.9929 8.0965-0.72664 12.167 0.3936 1.0038 4.3598 2.0075 5.2076 2.6767 0.10033 0.067195 0.12744 0.20337 0.060553 0.30417-0.066885 0.10079-0.20244 0.12803-0.30277 0.060833l0.060553 0.060833z" stroke="#625954" stroke-linecap="round" stroke-linejoin="round" stroke-width="3.024"/>
<path d="m178.15 39.937c-0.63581 0.39542-25.735 1.0038-36.877 1.7946-1.968 0-1.3019-2.7679-3.2093-2.6158-7.9022 0.57792-15.32 1.1862-20.679 1.7946-14.048 1.5208-28.036 3.4675-41.873 6.0833-6.9031 1.3383-13.927 2.555-20.709 4.2888-3.391 0.88208-3.8149 0.79083-7.2058 1.7642-3.2785 0.84788-6.3629 2.3249-9.083 4.3496-2.0285 2.4029-1.5138 34.401-1.5138 34.401s-0.84775 5.1404-1.4836 4.2888c-1.0378-1.4629-1.5792-3.2227-1.5441-5.0188 0-1.3383 0-33.032 1.5441-35.983 2.1814-2.2851 4.9302-3.9441 7.9628-4.8058 3.4112-1.0747 6.8526-2.0278 10.324-2.8592 6.9334-1.6729 13.988-2.8592 20.982-3.9846 14.048-2.2204 28.157-3.7412 42.387-4.8058l21.194-1.6121c1.8166 0 1.6047 2.6158 3.4213 2.4638 10.355-0.73 34.909-0.82125 35.575-1.3688 0.66609-0.5475-1.1505-3.0417 4.6021-3.0417 11.263 0 39.36 1.0646 39.36 1.1558s-28.46-0.27375-39.117 0c-4.8745 0.39542-3.4213 3.3154-4.0571 3.7108z" stroke="#625954" stroke-width="3.024"/>
<path d="m1.7258 96.938c9.083 0.15208 18.166-0.33458 27.249-0.63875 9.0896-0.45609 18.201-0.19166 27.249 0.79083 4.5627 0.58787 9.0761 1.513 13.503 2.7679 4.3976 1.3157 8.7144 2.8899 12.928 4.7146 8.4472 3.5588 16.561 7.7258 24.706 11.71 2.0285 0.97333 4.1176 2.0075 6.0553 3.0417 1.9377 1.0342 4.1176 1.7338 6.0553 2.4942 4.2052 1.5237 8.4908 2.8133 12.837 3.8629 4.3296 1.095 8.7197 1.9467 13.14 2.6767s8.8711 1.3383 13.352 1.825c4.4809 0.48667 9.083 0.88208 13.473 1.1862 4.3901 0.30417 9.083 0.5475 13.564 0.76042 9.083 0.39542 38.209 0.24333 38.209 0.9125s-28.793 1.7642-37.785 1.825c-45.415 0.30417-66.609-8.8817-68.123-9.5204-2.1496-0.85167-4.269-1.7642-6.3581-2.7679s-4.0874-2.0683-6.0553-3.0417c-8.0839-4.1975-16.047-8.5167-24.221-12.167-4.079-1.8778-8.2644-3.513-12.535-4.8971-4.2886-1.3397-8.6707-2.3564-13.11-3.0417-8.9544-1.2702-17.996-1.8195-27.037-1.6425-9.083 0-18.166 0.24333-27.249-0.21292-0.061871 6.38e-4 -0.12093-0.025919-0.16167-0.072699-0.040744-0.04678-0.059105-0.10911-0.050263-0.17063 0-0.11759 0.094887-0.21292 0.21194-0.21292" stroke="#625954" stroke-width="3.024"/>
</g>
<path d="m45.597 91.098l3.0277-1.2471v-62.78s-3.0277 0.30417-3.0277 0.66917v63.358z" fill="#625954" fill-rule="nonzero"/>
<path d="m180.33 36.439v47.876" stroke="#625954" stroke-width="6.048"/>
<path d="m139.58 39.177v45.564" stroke="#625954" stroke-width="6.048"/>
<path d="m36.635 91.737c0.71423-0.48975 1.4748-0.90746 2.2708-1.2471 1.5642-0.66899 3.1727-1.228 4.814-1.6729 3.2423-0.86741 6.5265-1.5679 9.8399-2.0988 6.6003-1.1254 13.231-1.7642 19.862-2.3421 6.6306-0.57792 13.291-0.82125 19.922-0.94292l19.922-0.21292h39.814c13.261 0 55.558 0.365 68.849 0.69958 0.075718 0 0.14568 0.040582 0.18354 0.10646s0.037859 0.14704 0 0.21292-0.10782 0.10646-0.18354 0.10646l-68.819 1.0038c-13.261 0.32444-26.512 0.74014-39.753 1.2471-6.6205 0.28389-13.241 0.61847-19.862 1.0038-6.6003 0.39542-13.231 0.69958-19.801 0.97333-3.3002 0-6.6003 0.27375-9.9005 0.45625s-6.6003 0.39542-9.8702 0.60833c-3.2699 0.21292-6.57 0.5475-9.8096 1.0342-1.8075 0.1531-3.5827 0.57332-5.2681 1.2471-1.4041 0.73202-2.437 2.0236-2.846 3.5588 0 0-0.24221 0.27375-0.36332 0.21292-0.12111-0.060833 0.30277-3.3762 0.99913-3.9542z" fill="#625954" fill-rule="nonzero" stroke="#625954" stroke-width="4.536"/>
<path d="m71.816 86.049v15.087" stroke="#625954" stroke-width="5.4432"/>
<path d="m97.824 82.885v31.907" stroke="#625954" stroke-width="5.4432"/>
<path d="m129.07 83.676v43.192" stroke="#625954" stroke-width="5.4432"/>
<path d="m168.7 83.828v47.42" stroke="#625954" stroke-width="5.4432"/>
<path d="m49.654 87.205v9.9462" stroke="#625954" stroke-width="5.4432"/>
</g>
</g>
</g>
</g>
</svg>
