<?xml version="1.0" encoding="UTF-8"?>
<svg version="1.1" viewBox="0 0 1000 300" xmlns="http://www.w3.org/2000/svg">
<title>GamesFactory</title>
<desc>Created with Sketch.</desc>
<g fill="none" fill-rule="evenodd">
<g transform="translate(-140 -3512)">
<g transform="translate(140 3512)">
<rect width="1e3" height="300" fill="#fff" fill-opacity=".01"/>
<g transform="translate(221 26)" fill="#000" fill-rule="nonzero">
<g transform="translate(278.96 124.96) scale(-1 1) rotate(180) translate(-278.92 -124.42)">
<path d="m100.66 244.93c-3.5787-2.1659-7.7079-4.5622-9.1302-5.3917-1.4682-0.78341-6.4692-3.6866-11.103-6.4055-4.6339-2.7189-16.471-9.5853-26.244-15.253-9.8185-5.6682-22.482-12.995-28.171-16.313-5.7351-3.318-12.892-7.4654-15.921-9.1705-3.0281-1.7512-6.5609-3.8249-7.8456-4.6083l-2.2482-1.4286v-62.074-62.12l2.0187-1.1521c1.147-0.64516 9.0844-5.2995 17.71-10.276 21.151-12.304 29.639-17.235 42.164-24.47 5.8268-3.3641 14.039-8.1106 18.306-10.599 20.646-12.028 27.024-15.668 27.483-15.668 0.27528 0 4.9092 2.5806 10.323 5.7143 5.4598 3.1336 13.351 7.6959 17.572 10.184 4.2669 2.4424 15.324 8.8479 24.592 14.24 15.737 9.1705 34.778 20.23 48.909 28.341l6.0104 3.5023v62.304 62.304l-3.3952 2.0276c-1.8352 1.106-5.9645 3.5023-9.1302 5.3456-12.342 7.0968-37.714 21.797-52.992 30.691-2.6611 1.5668-9.2679 5.3917-14.682 8.5253-5.4598 3.1336-13.764 7.9724-18.49 10.691-4.6798 2.765-8.7173 4.977-8.9008 4.977-0.18352-0.046083-3.2575-1.7972-6.8362-3.917zm11.378-9.2166c2.3399-1.3825 9.5891-5.576 16.104-9.3548 13.627-7.9263 12.892-6.9124 9.5432-13.41-7.2491-14.009-25.143-18.433-38.448-9.4931-6.5151 4.3779-11.103 12.535-11.287 20.092l-0.045881 3.1336 9.8643 5.7604c5.4139 3.1797 9.9102 5.7604 9.9102 5.7604 0.04588 0 2.0187-1.106 4.3587-2.4885zm-42.256-22.028c0.27528-1.0138 0.50469-2.0276 0.50469-2.3041 0-0.2765-1.6058-2.4424-3.6246-4.7926-3.3493-3.9631-3.5787-4.3318-2.9364-5.2995 0.32116-0.59908 1.927-3.1797 3.441-5.8065 3.2116-5.4378 2.294-5.1152 9.9561-3.4562l4.1293 0.92166 2.6152-2.212c1.4223-1.1521 3.3952-2.765 4.3587-3.4562l1.7893-1.3364 0.13764-5.6682 0.13764-5.6682 5.781-2.0276c3.2116-1.106 6.1021-2.0276 6.5151-2.0276 0.41293-0.046083 2.1105 1.8894 3.854 4.2857l3.1199 4.3318h4.1293c2.2482 0.046083 4.8175 0.13825 5.781 0.32258 1.6058 0.2765 1.7435 0.13825 5.2304-4.1475 2.5693-3.2258 3.7622-4.3318 4.3128-4.1475 0.45881 0.18433 3.3493 1.2903 6.4692 2.5346l5.6892 2.212-0.32116 5.9908c-0.2294 4.0553-0.18352 5.9908 0.13764 5.9908 0.27528 0 2.1564 1.5207 4.221 3.4101l3.6705 3.4562 5.3222-1.0599c3.5328-0.69124 5.5057-0.87558 5.8727-0.59908 0.32116 0.2765 1.7435 2.8111 3.2116 5.6221s2.8905 5.1152 3.1658 5.1152c0.32116 0 4.0834-2.0737 8.442-4.6544 4.3587-2.5346 10.415-6.0369 13.443-7.788 3.0281-1.7512 8.2126-4.7005 11.424-6.5899l5.9186-3.4562v-3.5023c0-1.9355-0.091762-3.5023-0.18352-3.5023s-1.1011 0.73733-2.294 1.659c-1.147 0.92166-2.3399 1.7051-2.6611 1.7051s-3.6246-2.0276-7.3868-4.5622l-6.8362-4.5161-2.8446 1.1521c-1.5599 0.64516-4.6339 1.659-6.8362 2.3041l-3.9457 1.1521-2.6611 7.5576c-2.2023 6.3594-2.8446 7.6498-3.7163 7.8802-0.59645 0.13825-4.9551 0.092166-9.6349-0.13825l-8.5797-0.41475-1.2847-4.1014c-0.68821-2.3041-1.7435-5.8065-2.3399-7.8341-0.96349-3.4562-1.147-3.7327-2.5234-4.0092-0.82585-0.13825-3.9457-1.2903-6.928-2.4885-6.2398-2.5346-4.7716-2.8571-13.994 2.765-5.1845 3.1336-5.7351 3.3641-6.6986 2.765-1.4223-0.87558-12.847-11.06-13.305-11.797-0.18352-0.32258 1.147-3.9631 3.0281-8.1106l3.3493-7.5576-1.5599-2.3041c-0.87173-1.2903-2.5693-4.2857-3.7622-6.682l-2.2023-4.3318-7.4327-1.1521c-4.0834-0.59908-7.5703-1.2903-7.7538-1.4747-0.41293-0.36866-2.7987-15.806-2.7987-17.834 0-1.3364 0.32116-1.6129 6.928-4.7465 5.5057-2.6728 6.9739-3.5945 7.0197-4.3318 0-1.0138 2.1105-11.29 2.6611-13.088 0.2294-0.73733-0.91761-2.3502-4.8633-6.9124-3.3952-4.0092-5.001-6.2212-4.8175-6.7281 0.73409-1.9355 9.1761-15.253 9.8185-15.53 0.41293-0.13825 3.9916 0.553 7.9374 1.5207l7.1574 1.7972 2.4776-2.3963c2.4776-2.3963 5.6433-4.8848 8.1668-6.4977l1.3305-0.82949v-7.9263-7.8802l1.3305-0.553c1.927-0.73733 16.242-5.3917 16.655-5.3917 0.18352 0 2.4317 2.8571 4.9551 6.3594l4.6798 6.3134 3.1658-0.2765c1.7435-0.13825 5.1386-0.092166 7.5244 0.13825 3.2575 0.2765 4.4963 0.23041 5.001-0.23041 0.55057-0.50691 0.36704-0.73733-0.96349-1.4286-0.91761-0.46083-2.8446-1.5668-4.2669-2.4424-8.5338-5.1152-55.745-32.258-56.158-32.258-0.27528 0-4.7257 2.4885-9.9102 5.4839-5.1845 3.0415-15.095 8.8018-22.023 12.765l-12.525 7.2811 1.1011 0.96774c1.0553 0.92166 1.0553 1.106 0.68821 6.2673l-0.36705 5.3456 1.5141 1.1982c0.87173 0.64516 2.7528 2.3502 4.2669 3.7327l2.707 2.5806 5.368-1.0599c3.1658-0.59908 5.5516-0.87558 5.8268-0.59908 0.55057 0.59908 6.2856 11.106 6.2856 11.521 0 0.18433-1.7435 2.2581-3.8999 4.5622-2.8905 3.1336-3.8081 4.424-3.5787 5.1613 0.13764 0.50691 0.50469 2.9493 0.77997 5.3456l0.59645 4.3779 4.9551 2.8111c4.9551 2.765 5.001 2.8111 4.7257 4.3318-0.18352 0.82949-0.77997 3.9171-1.3764 6.8203l-1.0553 5.3456-4.5422 0.553c-2.5234 0.32258-5.0469 0.59908-5.6433 0.59908-0.77997 0.046083-1.5141 0.87558-2.7987 3.0876-0.96349 1.659-2.294 3.6866-2.9364 4.5622l-1.147 1.5207 2.1105 5.7143c1.1929 3.1336 2.0187 5.8986 1.8811 6.0829-0.50469 0.87558-9.9561 8.1106-10.553 8.1106-0.36705 0-2.7987-1.4286-5.4139-3.1797l-4.7257-3.1336-2.6152 1.0138c-1.4223 0.553-3.6705 1.2903-5.001 1.659l-2.3399 0.59908-1.9729 5.53-1.9729 5.4839-2.6611 0.13825c-1.4223 0.092166-4.5422-0.046083-6.928-0.23041l-4.3128-0.36866-1.5141-5.1613c-0.82585-2.8111-1.6976-5.3456-1.8352-5.6221-0.18352-0.2765-1.0553-0.69124-1.8811-0.87558-0.87173-0.18433-3.0281-0.96774-4.8175-1.7512l-3.2116-1.4747-3.5328 2.1659-3.4869 2.1198-0.13764 24.654-0.091761 24.654 7.0656 4.0553c9.6808 5.576 27.437 15.899 43.449 25.3 4.4045 2.5806 8.2585 4.7005 8.5797 4.7005 0.32116 0.046083 0.77997-0.78341 1.0553-1.7512zm94.331-66.452c10.507-1.4747 19.775-7.235 25.785-16.129 7.9374-11.751 8.2585-27.051 0.77997-39.862-2.5693-4.3779-9.1761-10.691-13.718-13.041-20.784-10.876-45.881-0.73733-52.625 21.244-4.1751 13.594-1.0094 26.959 8.5797 36.728 8.8091 8.894 19.408 12.673 31.199 11.06zm-118.92-34.562c4.6798-1.2442 7.8456-3.1336 11.654-7.0046 7.2491-7.3272 9.6808-15.76 7.2033-25.392-3.4869-13.687-17.205-22.35-30.786-19.447-7.3409 1.5668-12.892 5.2074-16.746 11.06-6.148 9.2166-6.3774 20.691-0.59645 29.401 3.441 5.1152 8.3962 8.9401 14.407 11.014 3.7622 1.2903 10.828 1.4747 14.865 0.36866z"/>
<g transform="translate(301.35 55.3)">
<path d="m13.609 137.16c-5.6809-1.8813-9.2314-4.7482-11.45-9.3172-1.7753-3.7627-1.9528-5.7336-1.9528-23.562 0-18.993 0.088763-19.62 2.3078-24.189 1.864-3.6731 3.373-5.1065 7.1898-7.0775 4.3494-2.2397 5.5921-2.4189 13.048-2.0605 7.2786 0.26876 8.6988 0.7167 12.072 3.1356 5.8584 4.121 7.5449 8.3317 8.0775 19.62 0.53258 12.542 0.35505 12.811-11.273 12.722-9.3202 0-10.297-0.26876-11.273-3.4043-1.2427-3.9419 0.79887-5.9128 6.1247-5.9128h4.7045l-0.44382-5.8232c-0.35505-4.8378-0.79887-6.1816-2.9292-7.9733-3.5505-3.1356-10.03-3.1356-13.137 0-3.018 3.046-3.4618 6.4503-3.1067 23.92 0.26629 14.244 0.44382 15.23 2.4854 17.38 2.5741 2.8668 6.3022 3.6731 10.74 2.5085 3.4618-0.98547 6.2134-4.569 6.2134-8.1525 0-2.6876 1.864-4.0315 5.5033-4.0315 4.1719 0 5.3258 0.80629 6.1247 3.9419 1.4202 5.5545-3.1955 13.259-9.9415 16.843-4.5269 2.3293-14.202 3.046-19.084 1.4334z"/>
<path d="m67.666 137.34c-1.4202-0.7167-2.6629-3.2252-4.4382-9.0484-1.3315-4.4794-5.3258-17.738-8.9651-29.295-3.5505-11.646-6.4797-22.128-6.4797-23.293 0-3.5835 8.0775-6.6295 9.9415-3.8523 0.35505 0.7167 1.5977 3.9419 2.6629 7.3462l1.864 6.092h10.563 10.652l1.6865-6.0024c2.2191-8.1525 3.373-9.2276 8.1662-7.7942 2.0416 0.62712 3.9056 1.8813 4.2606 2.8668 0.44382 1.6126-3.373 15.23-13.137 47.213-2.6629 8.5109-4.9708 14.244-6.1247 15.23-2.1303 1.7918-7.4561 2.1501-10.652 0.53753zm9.3202-29.206c1.864-6.5399 3.373-12.184 3.373-12.453s-3.373-0.44794-7.4561-0.44794c-5.0595 0-7.4561 0.26876-7.4561 1.0751 0 2.5085 6.9235 25.174 7.5449 24.547 0.35505-0.44794 2.1303-6.092 3.9944-12.722z"/>
<path d="m106.46 136.62c-1.7753-1.8813-1.864-3.1356-1.864-32.789v-30.908l2.3966-1.0751c3.2842-1.523 5.4146-1.4334 7.7224 0.53753 1.864 1.523 2.0416 2.5981 2.2191 21.412l0.26629 19.709 4.9708-9.6755c7.7224-14.692 9.2314-14.692 17.575 0.089588l5.4146 9.5859 0.17753-20.157c0.26629-17.738 0.44382-20.426 1.864-21.412 2.1303-1.6126 5.9471-1.523 8.4325 0.26876 2.0416 1.4334 2.1303 1.523 2.1303 31.535v30.102l-2.3078 2.3293c-5.3258 5.3753-10.03 1.9709-18.196-13.169-3.1955-6.0024-6.1247-10.84-6.391-10.84-0.35505 0-3.373 5.1065-6.6573 11.378-6.2134 11.646-9.2314 14.872-13.758 14.872-1.1539 0-2.9292-0.80629-3.9944-1.7918z"/>
<path d="m170.1 136.98l-2.1303-1.4334v-30.818c0-28.847 0.088764-30.997 1.6865-32.431 1.5977-1.4334 3.9944-1.6126 19.794-1.3438l18.108 0.26876 1.1539 2.5085c0.88763 1.7022 0.9764 3.1356 0.26629 4.9273l-0.88763 2.4189h-14.025-13.936v9.4067 9.4067h7.3674c9.4089 0 12.161 2.2397 9.3202 7.615-0.79887 1.523-1.9528 1.7918-8.8763 1.7918h-7.8999l0.26629 9.138 0.26629 9.2276 13.758 0.26876 13.758 0.26876 0.88763 2.4189c0.71011 1.6126 0.62134 3.1356-0.26629 4.8378l-1.1539 2.5085-17.664 0.26876c-14.912 0.17918-18.019 0-19.794-1.2542z"/>
<path d="m228.33 137.52c-3.8168-1.1646-8.6988-4.4794-10.385-6.9879-2.3966-3.7627-3.5505-10.482-2.3966-14.692 1.509-5.8232 5.7696-9.8547 15.889-15.14 13.315-6.8087 15.889-11.199 10.119-17.022-2.6629-2.5981-3.1955-2.7772-8.3438-2.4189-4.5269 0.35835-6.2134 0.98547-9.2314 3.4043-4.1719 3.4043-6.5685 3.7627-8.7876 1.2542-7.7224-8.5109 12.072-19.53 26.54-14.782 6.746 2.2397 10.03 4.8378 12.072 9.4067 2.3078 5.1065 2.3078 13.886 0 18.993-2.2191 4.8378-5.8584 7.7046-16.066 12.453-11.007 5.1065-13.492 9.0484-8.7876 13.797 1.864 1.8813 3.2842 2.3293 7.2786 2.3293 2.6629 0 6.8348-0.7167 9.2314-1.523 4.9708-1.7918 7.0123-1.3438 8.255 1.9709 1.509 4.0315-0.53258 6.8983-5.9471 8.5109-4.9708 1.523-15.267 1.7022-19.439 0.44794z"/>
<path d="m52.576 47.93c-1.5977-1.9709-14.291-45.063-13.758-46.496 1.1539-3.046 3.2842-1.0751 4.7932 4.3898l1.5977 5.644h9.1426 9.1426l1.6865-5.2857c1.5977-5.1961 3.2842-7.0775 4.9708-5.3753 0.79887 0.7167-2.1303 10.93-11.45 40.763-2.2191 7.0775-3.9944 8.9588-6.1247 6.3608zm6.0359-19.799l3.7281-12.453-7.4561-0.26876c-4.0831-0.17918-7.5449-0.089588-7.8112 0.17918-0.53258 0.53753 6.5685 24.995 7.2786 24.995 0.35505 0 2.2191-5.5545 4.2606-12.453z"/>
<path d="m117.64 48.198c-7.8112-0.44794-9.764-0.80629-9.764-1.8813 0-1.1646 1.4202-1.523 6.3022-1.7022l6.3022-0.26876v-22.128c0-21.322 0-22.039 1.7753-22.039 1.7753 0 1.864 0.80629 2.1303 21.859l0.26629 21.859 6.0359 0.53753c4.6157 0.26876 6.1247 0.80629 6.3022 1.9709 0.26629 1.0751-0.62134 1.6126-3.1955 2.0605-1.9528 0.35835-4.1719 0.53753-4.9708 0.44794-0.79887-0.089588-5.7696-0.44794-11.184-0.7167z"/>
<path d="m180.93 48.109l-2.2191-0.53753v-23.472c0-22.845 0-23.472 1.864-23.472 1.6865 0 1.864 0.7167 2.1303 10.661l0.26629 10.661 4.2606-0.35835 4.3494-0.26876 5.3258-10.303c5.0595-9.7651 7.3674-12.274 8.7876-9.9443 0.35505 0.53753-1.7753 5.5545-4.5269 11.109-2.8404 5.5545-4.7932 10.213-4.3494 10.392 0.53258 0.17918 2.3078 1.2542 3.9944 2.4189 8.0775 5.4649 5.7696 21.143-3.2842 22.666-4.9708 0.80629-14.113 1.0751-16.599 0.44794zm18.552-6.5399c2.3966-2.8668 2.6629-9.0484 0.62134-12.005-1.6865-2.4189-6.6573-3.8523-12.516-3.5835l-4.2606 0.17918-0.26629 9.2276-0.26629 9.2276 7.3674-0.35835c6.5685-0.26876 7.6337-0.62712 9.3202-2.6876z"/>
<path d="m16.095 24.189c0-23.293 0-24.01 1.7753-24.01 1.6865 0 1.864 0.80629 2.1303 11.019l0.26629 11.109 5.5921 0.44794c4.0831 0.35835 5.5921 0.80629 5.5921 1.8813 0 1.0751-1.4202 1.4334-5.8584 1.7022l-5.7696 0.26876v8.8692 8.8692l10.918 0.26876c9.4977 0.17918 10.918 0.44794 11.273 1.8813 0.26629 1.523-0.88763 1.7022-12.871 1.7022h-13.048v-24.01z"/>
<path d="m83.288 46.944c-1.2427-0.62712-3.1955-2.3293-4.2606-3.7627-1.6865-2.4189-1.9528-4.2106-2.2191-16.932-0.17753-8.3317 0.088763-15.678 0.62134-17.649 1.6865-5.4649 4.882-7.7942 11.362-8.2421 9.0539-0.62712 14.912 3.1356 14.912 9.8547 0 2.5085-0.44382 3.1356-1.864 3.1356-1.3315 0-2.1303-0.98547-2.8404-3.7627-0.53258-2.0605-1.7753-4.121-2.7517-4.6586-2.3966-1.3438-8.0775-1.2542-10.563 0.089588-4.0831 2.1501-4.3494 3.4043-4.3494 19.441v15.32l2.3966 2.3293c1.7753 1.6126 3.5505 2.3293 6.0359 2.3293 5.7696 0 8.0775-1.4334 9.3202-5.644 0.79887-2.6876 1.6865-3.7627 2.8404-3.7627 1.3315 0 1.7753 0.62712 1.7753 3.046 0 6.1816-5.1483 10.123-13.315 10.034-2.6629 0-5.9471-0.53753-7.1011-1.1646z"/>
<path d="m147.2 46.496c-4.5269-2.8668-5.3258-6.092-5.3258-22.307 0-16.843 0.88763-20.068 6.0359-22.487 4.7045-2.2397 12.693-1.9709 15.889 0.53753 4.2606 3.4043 5.1483 6.8983 5.1483 21.859 0 15.409-1.1539 19.799-5.5921 22.487-3.5505 2.0605-12.693 2.0605-16.155-0.089588zm14.735-4.3898c2.3078-2.3293 2.3078-2.5981 2.3078-17.918 0-15.32 0-15.678-2.3078-17.918-1.6865-1.7022-3.2842-2.3293-6.1247-2.3293-8.4325 0-10.208 3.4939-10.208 20.247 0 16.753 1.6865 20.157 10.03 20.157 3.1067 0 4.6157-0.53753 6.3022-2.2397z"/>
<path d="m209.95 46.855c0-0.62712 3.1067-7.3462 6.9235-14.872l7.0123-13.617v-9.138c0-8.4213 0.088763-9.0484 1.864-9.0484 1.7753 0 1.864 0.62712 1.864 9.0484v9.0484l7.0123 13.797c3.8168 7.5254 7.0123 14.244 7.0123 14.961 0 0.62712-0.79887 1.1646-1.6865 1.1646-1.1539 0-3.373-3.4939-7.7224-12.274-3.2842-6.7191-6.2134-12.184-6.4797-12.184-0.26629 0-3.1955 5.4649-6.4797 12.184-4.3494 8.8692-6.4797 12.274-7.7224 12.274-0.88763 0-1.5977-0.62712-1.5977-1.3438z"/>
</g>
</g>
</g>
</g>
</g>
</g>
</svg>
