<?xml version="1.0" encoding="UTF-8"?>
<svg version="1.1" viewBox="0 0 1000 300" xmlns="http://www.w3.org/2000/svg" xmlns:xlink="http://www.w3.org/1999/xlink">
<title>GamesFanatic</title>
<desc>Created with Sketch.</desc>
<defs>
<path id="path-1" d="m68.735 132.41c-12.746-0.32787-27.631-1.4124-43.351-3.1778-8.7208-0.9836-12.1-1.6898-15.391-3.2408-4.7085-2.2194-8.0246-6.179-9.265-11.047-1.2024-4.7162-0.64551-9.8991 1.8606-17.415 4.8983-14.691 12.151-30.63 20.897-45.876 5.3919-9.3946 10.379-17.049 17.188-26.355 6.5311-8.9407 7.4044-10.05 10.088-12.711 6.645-6.5826 14.277-10.87 21.808-12.245 1.6454-0.30265 5.9995-0.41614 7.9993-0.21437 8.6069 0.88272 16.454 5.2711 23.34 13.039 1.4556 1.6393 4.8983 5.889 7.1386 8.8272 11.24 14.641 22.504 33.871 30.921 52.761 3.1516 7.087 7.2272 17.1 8.6322 21.248 2.7086 8.0075 3.3415 14.628 1.8859 19.71-0.46832 1.6393-1.734 4.1109-2.7719 5.3972-3.9617 4.9306-9.8346 7.4148-19.808 8.3984-0.7974 0.075662-3.0757 0.31526-5.0502 0.52963-18.049 1.942-38.655 2.8121-56.122 2.3707zm24.833-11.374c7.5437-0.30265 13.923-0.68095 20.264-1.2106 3.2655-0.26481 10.759-0.99621 11.366-1.1097 0.1772-0.037831 1.367-0.15132 2.658-0.26482 6.7842-0.6179 10.442-1.715 12.493-3.7579 0.65817-0.65573 0.94929-1.0719 1.1771-1.6519 1.0252-2.7616 0.54426-6.9356-1.5442-13.266-1.4935-4.5523-7.1893-18.184-10.797-25.864-6.1387-13.077-14.885-28.07-23.188-39.735-3.0883-4.3632-8.1006-10.769-10.759-13.758-4.2401-4.7793-8.8473-7.7175-13.746-8.7641-1.8479-0.39092-5.2527-0.4918-6.9361-0.20176-3.7845 0.65573-8.6069 3.0517-12.619 6.2547-1.4429 1.1349-4.1642 3.7831-5.2527 5.0819-2.1137 2.5221-9.9865 13.392-13.619 18.802-12.543 18.676-22.859 39.205-29.529 58.764-2.6707 7.8562-2.7972 11.879-0.45566 14.224 2.0251 2.005 4.5186 2.5599 18.087 3.9975 11.758 1.2358 23.327 2.1059 32.82 2.4464 2.1264 0.088273 4.3667 0.16394 4.9869 0.18915 2.3795 0.10088 21.226-0.03783 24.593-0.17654z"/>
<linearGradient id="a" x1="11.188%" x2="74.999%" y1="11.509%" y2="87.039%">
<stop stop-color="#0E4563" offset="0"/>
<stop stop-color="#31A4DD" offset="1"/>
</linearGradient>
<path id="path-4" d="m4.2274 89.476c-1.772-0.60529-3.1769-1.9294-3.8478-3.6318-0.24049-0.60529-0.30377-1.034-0.30377-2.1437l-0.012657-1.3997 1.7467-4.1614c0.96194-2.2951 2.4555-5.8764 3.3035-7.9445 5.9615-14.439 9.4929-21.866 14.619-30.719 3.3288-5.7503 7.1386-11.879 11.645-18.739 1.1518-1.7528 2.7213-4.1362 3.4807-5.2963 3.506-5.3215 7.8221-10.479 10.202-12.144 2.6453-1.8663 5.0755-2.7743 8.5056-3.1652 1.3163-0.15132 3.8225-0.10088 4.4806 0.088271l0.30377 0.088272v27.036c0 14.88 0.037972 29.104 0.075943 31.639l0.088601 4.5901h-14.834c-9.0752 0-14.834-0.050442-14.834-0.1261 0-0.31526 0.87334-2.4338 1.5315-3.7326 0.99991-1.942 2.1137-3.4678 3.7718-5.1954 2.8099-2.9004 6.0501-4.8802 9.8093-5.9899l1.2277-0.3657v-11.702c0-8.1336-0.037971-11.677-0.13923-11.614-0.22783 0.13871-5.3413 7.894-7.7335 11.715-4.9489 7.9319-7.6323 12.825-11.404 20.857-2.2403 4.7793-5.6324 12.333-7.0374 15.687l-0.3544 0.8575 13.29-0.050441c13.847-0.050442 14.771-0.01261 17.1 0.51702 6.202 1.4376 11.569 5.435 14.657 10.933 0.68349 1.2232 1.5568 3.2282 1.7593 4.0605l0.0886 0.3657-30.149-0.01261h-30.149l-0.886-0.30265z"/>
<path id="path-6" d="m18.138 88.051c-0.87334-0.050441-2.0251-0.20176-2.5694-0.31526-7.7209-1.6393-13.733-8.6506-15.1-17.617-0.1772-1.1475-0.21517-5.9016-0.29111-35.662l-0.088601-34.35 0.39237 0.088272c0.67083 0.16393 3.0124 1.3493 3.9743 2.0303 5.6957 4.0353 10.429 12.799 11.556 21.4 0.16454 1.2862 0.20251 3.3669 0.20251 11.992v10.441l3.2909 0.063051c2.7086 0.050441 3.5187 0.11349 4.5819 0.35309 7.6323 1.6646 13.72 6.8852 16.442 14.06l0.51894 1.3745-11.885 0.075662-11.885 0.063051-0.49363 0.4918-0.50629 0.50441-0.037972 1.5763c-0.075943 2.459 0.43034 3.9344 1.8606 5.4855 0.75943 0.84489 1.9492 1.5889 3.101 1.942 0.36706 0.11349 2.1897 0.20176 5.9109 0.25221 4.835 0.088272 5.5312 0.1261 6.8349 0.39092 5.8856 1.198 10.91 4.5019 14.265 9.382 1.1771 1.7024 2.3542 4.0857 2.8858 5.8259l0.088601 0.30265-15.72-0.025221c-8.6575-0.01261-16.442-0.063051-17.328-0.1261z"/>
<path id="path-8" d="m8.9739 41.046c-5.1515-0.40353-7.5943-1.942-8.5183-5.3594-0.34174-1.2862-0.48097-7.1626-0.41769-17.604 0.063286-9.8738 0.12657-11.097 0.64551-13.064 0.27846-1.0467 0.92397-2.2698 1.5315-2.913 0.74677-0.76923 2.8605-1.5385 5.1641-1.8411 0.63286-0.088272 4.6578-0.17654 9.9485-0.21437 8.0499-0.050441 8.9359-0.037831 9.4675 0.15132 0.68349 0.26482 1.3163 0.94577 1.5062 1.6267s0.18986 20.441 0 21.122c-0.16454 0.59268-0.67083 1.2232-1.2404 1.5258-0.36706 0.20176-0.86069 0.22698-3.9364 0.22698-3.9997 0-4.2401-0.050441-4.8983-1.034l-0.3544-0.52963-0.063286-6.5952-0.063286-6.5826-0.40503-0.42875c-0.6202-0.65573-1.0632-0.78184-2.7972-0.78184-1.8479 0-2.3795 0.21437-2.9618 1.1854l-0.3544 0.60529v10.063 10.063l0.32909 0.56746c0.1772 0.31526 0.54426 0.69356 0.7974 0.8575 0.46831 0.29004 0.55691 0.29004 7.1133 0.3657 7.4297 0.063051 7.2652 0.050441 8.012 1.034 0.36706 0.45397 0.36706 0.46658 0.40503 3.1147 0.025314 1.4502 0.012657 2.7869-0.037971 2.9382-0.11391 0.47919-0.74677 1.1349-1.329 1.3997-0.50629 0.22698-1.0252 0.2396-8.3031 0.22698-4.2781-0.01261-8.4423-0.063051-9.2397-0.1261z"/>
<path id="path-10" d="m8.803 41.021c-0.60754-0.18915-1.5315-1.034-1.7973-1.6393-0.11391-0.27743-1.1771-5.662-2.3542-11.955-1.1771-6.3051-2.7086-14.477-3.3921-18.159-0.69614-3.6822-1.2531-6.9987-1.2531-7.3644 0-0.78184 0.40503-1.3997 1.1518-1.715 0.54426-0.22698 8.0499-0.25221 8.8473-0.037831 0.6202 0.17654 1.5315 0.97099 1.772 1.5385 0.10126 0.22698 0.3544 1.7654 0.56957 3.4048s0.48097 3.14 0.59489 3.3543c0.27846 0.55485 0.87334 1.0971 1.4809 1.3745 0.60754 0.27743 2.4555 0.34048 3.2909 0.11349 0.64551-0.17654 1.4429-0.89533 1.734-1.5511 0.11391-0.26482 0.40503-1.8285 0.6202-3.4426 0.21517-1.6267 0.48097-3.1147 0.58223-3.3165 0.24049-0.46658 0.83537-1.0467 1.3417-1.3241 0.34174-0.18915 0.98726-0.22698 4.5692-0.26482 3.949-0.037831 4.1895-0.025221 4.7211 0.22698 0.69614 0.34048 1.0505 0.90794 1.0379 1.715-0.012657 1.0719-6.8095 36.582-7.1639 37.402-0.27846 0.64312-1.1898 1.4502-1.8733 1.6519-0.68349 0.20176-13.834 0.20176-14.48-0.01261zm7.5943-9.5334c0.13923-0.56746 1.9492-12.005 1.9492-12.345 0-0.59268-0.50629-1.3619-1.0632-1.6519-1.4556-0.7314-3.1896 0.21437-3.1896 1.7402 0 0.63051 1.7087 11.98 1.8606 12.383 0.13923 0.37831 0.32909 0.31526 0.443-0.1261z"/>
<path id="path-12" d="m1.3732 40.857c-0.56957-0.27743-0.75943-0.46658-1.0379-1.0214l-0.32909-0.68095v-18.55-18.55l0.32909-0.69356c0.29111-0.55485 0.46831-0.7314 1.0505-1.0214l0.7088-0.34048 3.3795 0.037831 3.3795 0.037831 0.55691 0.3657c0.30377 0.20176 0.67083 0.60529 0.82271 0.89533 0.25314 0.50441 0.2658 0.75662 0.2658 9.4577 0 5.4855 0.050629 9.0668 0.12657 9.2685 0.15189 0.39092 0.41769 0.44136 0.68349 0.1261 0.10126-0.11349 1.8986-3.2913 3.987-7.0491 3.3795-6.0655 3.8604-6.8726 4.2781-7.0996 0.443-0.2396 0.50629-0.25221 0.92397-0.050441 0.39237 0.18915 0.87334 0.99621 4.2781 7.087 2.1011 3.7705 3.9111 6.9735 4.025 7.0996 0.29112 0.32787 0.55691 0.27743 0.7088-0.11349 0.075943-0.20176 0.12657-3.7831 0.12657-9.2685 0-8.7011 0.012658-8.9533 0.2658-9.4577 0.15188-0.29004 0.51894-0.69356 0.82271-0.89533l0.55691-0.3657h3.6073 3.6073l0.5316 0.35309c0.32908 0.21437 0.65817 0.59268 0.82271 0.94577l0.29111 0.58007v18.625c0 20.366 0.037971 19.092-0.7974 19.899-0.68349 0.66834-1.1771 0.7314-4.7338 0.69356-3.1769-0.050441-3.1769-0.050441-3.9364-0.41614-1.1518-0.56746-1.81-1.4123-3.4301-4.401-6.202-11.475-6.5058-11.98-7.1766-11.98-0.63286 0-1.1771 0.87011-4.9363 7.8814-2.0758 3.8587-3.9743 7.2383-4.2148 7.5157-0.24049 0.26482-0.84803 0.68095-1.329 0.92055l-0.87334 0.42875-3.3288 0.037831-3.3288 0.037831-0.68349-0.34048z"/>
<path id="path-14" d="m1.6516 40.945c-0.64551-0.30265-1.2024-0.92055-1.3796-1.5763-0.18986-0.68095-0.18986-36.847 0-37.528 0.1772-0.66834 0.73412-1.2862 1.3796-1.5763 0.50629-0.2396 1.1645-0.25221 12.1-0.2396 8.6322 0 11.683 0.050441 11.999 0.16393 0.63286 0.22698 1.3417 0.97099 1.5062 1.5763 0.075943 0.30265 0.11391 1.488 0.10126 2.8751-0.050628 2.3203-0.050628 2.3455-0.41769 2.913-0.7088 1.0467-0.6202 1.034-7.7462 1.0845l-6.2526 0.050441-0.54426 0.35309c-0.96194 0.63051-1.1012 1.1223-1.1012 3.9092 0 2.5599 0.063286 2.9256 0.64551 3.5309 0.7088 0.74401 0.93663 0.79445 3.7465 0.87011 2.8225 0.075662 3.1769 0.16393 3.6832 0.89533 0.443 0.63051 0.56957 1.2232 0.55692 2.7364 0 1.7276-0.12657 2.3077-0.68349 2.9256-0.6202 0.70617-1.3417 0.87011-3.987 0.87011-2.4302 0-2.658 0.050441-3.3162 0.74401-0.56957 0.59268-0.64551 0.9836-0.64551 3.0895 0 2.1059 0.075943 2.4968 0.64551 3.0895 0.72146 0.76923 0.55691 0.74401 7.0247 0.75662 5.5059 0 5.9868 0.01261 6.4805 0.2396 0.64551 0.30265 1.0505 0.71878 1.329 1.3745 0.25314 0.60529 0.29112 4.691 0.05063 5.4098-0.20251 0.60529-0.72146 1.1601-1.3796 1.4628-0.50629 0.22698-1.1138 0.2396-11.885 0.2396-10.746 0-11.404-0.01261-11.91-0.2396z"/>
<path id="path-16" d="m8.5687 41.046c-4.1895-0.32787-6.4172-1.3241-7.2525-3.2661-1.0379-2.4086-1.4935-7.1879-1.2024-12.547 0.15188-2.7364 0.34174-3.6696 0.9746-4.855 0.49363-0.90794 1.7973-2.2068 2.7086-2.6608 1.4682-0.74401 1.8606-0.78184 7.1893-0.87011l4.9363-0.088272 0.50629-0.40353c0.94929-0.75662 0.99991-0.95838 0.94929-4.0227-0.025315-2.2825-0.075943-2.7869-0.2658-3.14l-0.24049-0.42875-7.4044-0.037831c-8.2904-0.050441-7.9234 0-8.5942-0.99621-0.34174-0.4918-0.34174-0.51702-0.34174-3.3165 0-3.1526 0.037971-3.3165 0.886-3.9596l0.49363-0.37831 7.6323-0.037831c8.3537-0.037831 9.5941 0.037831 11.936 0.70617 1.7973 0.51702 2.8605 1.1475 4.1895 2.4464 1.3796 1.3619 1.9492 2.4212 2.4555 4.5649 0.60754 2.5473 0.59489 7.831-0.025315 11.526-0.3544 2.1437-1.2404 3.43-2.9365 4.2749-1.9872 0.99621-4.0629 1.3367-9.1638 1.4628l-3.5946 0.088272-0.46831 0.35309c-0.83537 0.63051-0.92397 1.0214-0.886 3.4804 0.050628 2.4086 0.11391 2.5851 1.0379 3.2156l0.443 0.30265h6.4678c6.4425 0 6.4678 0 7.05 0.29004 1.1391 0.58007 1.3163 1.1349 1.3163 4.0731 0 2.9382-0.1772 3.493-1.3163 4.0731l-0.58223 0.30265-7.7209-0.02522c-4.2401-0.01261-8.3664-0.063051-9.1764-0.1261z"/>
<path id="path-18" d="m1.6201 41.046c-0.6202-0.2396-1.1265-0.69356-1.367-1.2358-0.24049-0.51702-0.25314-1.2862-0.25314-19.205v-18.651l0.27846-0.58007c0.1772-0.35309 0.49363-0.7314 0.82271-0.94577l0.54426-0.35309 3.6579-0.037831c3.1263-0.037831 3.7339-0.01261 4.2148 0.17654 0.68349 0.25221 1.3163 0.93316 1.5062 1.6141 0.0886 0.31526 0.13923 2.8878 0.13923 7.0491 0 6.3682 0.012657 6.5573 0.27846 7.1122 0.18986 0.40353 0.46831 0.69356 0.89866 0.94577 0.60754 0.35309 0.68349 0.35309 3.2149 0.42875 2.9365 0.063051 3.2655 0.16393 3.8098 1.1223 0.27846 0.47919 0.30377 0.70617 0.30377 2.5473 0 2.232-0.075943 2.5094-0.7974 3.1273-0.6202 0.51702-1.1898 0.60529-3.6199 0.60529-2.4428 0.01261-2.8225 0.088272-3.4427 0.75662-0.56957 0.59268-0.64551 0.9836-0.64551 3.1652 0 2.1185 0.075943 2.5094 0.64551 3.1526 0.60754 0.68095 0.55691 0.66834 7.4677 0.74401l6.4551 0.063051 0.49363 0.37831c0.89866 0.68095 0.94929 0.89533 0.94929 3.7957 0 2.459-0.012657 2.6103-0.30377 3.1147-0.16454 0.29004-0.51894 0.68095-0.78474 0.8575l-0.48097 0.32787-11.834 0.02522c-7.2525 0.02522-11.961-0.02522-12.151-0.10088z"/>
<path id="path-20" d="m8.6448 40.92c-0.68349-0.31526-1.1138-0.66834-1.4682-1.2484-0.1772-0.27743-0.87334-3.7579-2.3163-11.463-1.1391-6.0781-2.7086-14.414-3.4807-18.524-0.91131-4.8297-1.3796-7.667-1.3417-7.9949 0.10126-0.70617 0.43034-1.1349 1.1012-1.4376 0.55691-0.2396 0.86069-0.25221 4.7464-0.21437 4.1389 0.037831 4.1515 0.037831 4.7464 0.37831 0.31643 0.17654 0.75943 0.56746 0.9746 0.87011 0.3544 0.50441 0.40503 0.76923 0.75943 3.5057 0.21517 1.6267 0.48097 3.2156 0.59489 3.5183 0.2658 0.68095 1.0632 1.4376 1.7467 1.6267 0.27846 0.075662 1.0252 0.13871 1.6454 0.13871 1.3796 0 2.2783-0.3657 2.8479-1.1728 0.45566-0.66834 0.51894-0.93316 0.92397-4.0605 0.20251-1.4502 0.45566-2.8751 0.56957-3.1526 0.27846-0.63051 1.0632-1.3241 1.7467-1.5258 0.34174-0.10088 1.8353-0.15132 4.4173-0.15132 3.544 0 3.9617 0.025221 4.468 0.25221 0.64551 0.30265 0.96194 0.7314 1.0632 1.425 0.063286 0.52963-1.5062 9.0163-5.0755 27.453-2.1644 11.147-2.0631 10.807-3.3162 11.576l-0.65817 0.40353-7.05 0.037831c-6.8728 0.02522-7.0627 0.02522-7.6449-0.2396zm7.6955-9.2559c0.1772-0.32787 2.0125-11.639 2.0125-12.408 0.012657-1.778-2.1517-2.6986-3.5313-1.488-0.84803 0.74401-0.84803 0.75662 0.13923 7.3013 0.82271 5.5359 1.0505 6.86 1.1898 6.86 0.025314 0 0.11391-0.1261 0.18986-0.26482z"/>
<path id="path-22" d="m1.8858 41.097c-0.49363-0.10088-1.4429-1.0971-1.6075-1.6898-0.20251-0.7314-0.20251-36.86 0-37.579 0.18986-0.68095 0.81006-1.3619 1.4935-1.6141 0.48097-0.18915 1.0759-0.21437 3.8857-0.17654 3.1896 0.037831 3.3288 0.050441 3.8098 0.34048 0.2658 0.17654 0.6202 0.52963 0.7974 0.79445l0.30377 0.4918 0.063286 8.4363c0.063286 8.7894 0.0886 9.0037 0.60754 8.575 0.11391-0.10088 2.1137-3.9722 4.4427-8.6002 4.5566-9.0668 4.43-8.865 5.8856-9.6342l0.69614-0.3657 3.3035-0.037831c2.8225-0.037831 3.3921-0.01261 3.8857 0.17654 0.69614 0.26482 1.3163 0.94577 1.5062 1.6393 0.10126 0.35309 0.12657 6.343 0.11391 19.029l-0.037972 18.524-0.30377 0.52963c-0.1772 0.29004-0.5316 0.68095-0.7974 0.8575l-0.48097 0.32787h-3.5313-3.544l-0.55691-0.3657c-1.0759-0.70617-1.0126-0.16393-1.0885-9.7225-0.063286-8.8524-0.0886-9.0668-0.60754-8.638-0.11391 0.10088-2.1264 3.9722-4.4553 8.6128-4.5692 9.1046-4.5313 9.0542-5.9615 9.7477l-0.73411 0.3657-3.3921 0.02522c-1.8606 0.01261-3.5313-0.01261-3.6959-0.050441z"/>
<path id="path-24" d="m9.0055 41.059c-0.6202-0.18915-1.2404-0.64312-1.6201-1.1854-0.39237-0.55485-0.34174-0.29004-5.9109-30.038-1.5948-8.4741-1.5948-8.4363-0.92397-9.1424 0.59489-0.64312 0.89866-0.68095 5.1261-0.68095 2.177 0 4.1642 0.063051 4.43 0.1261 0.60754 0.17654 1.4049 0.84489 1.7087 1.4376 0.16454 0.32787 0.36706 1.3997 0.60754 3.2661 0.46831 3.7705 0.69614 4.3127 1.9872 4.918 0.55691 0.25221 0.886 0.31526 1.9112 0.31526 0.74677 0 1.4049-0.075662 1.6707-0.17654 0.68349-0.29004 1.3796-0.97099 1.5948-1.5889 0.11391-0.30265 0.39237-1.8537 0.60754-3.4552 0.45566-3.3291 0.63286-3.7831 1.7087-4.4136l0.6202-0.3657 4.0123-0.037831c2.4935-0.025221 4.2148 0.01261 4.5313 0.10088 0.27846 0.075662 0.68349 0.31526 0.886 0.52963 0.67083 0.69356 0.64551 1.0214-0.91131 9.2812-2.7846 14.729-5.5312 28.802-5.7337 29.357-0.25314 0.68095-1.1645 1.5132-1.8859 1.7276-0.6202 0.18915-13.809 0.20176-14.416 0.025221zm8.4929-15.574c0.60754-3.7957 0.96194-6.3682 0.91131-6.633-0.24049-1.3115-1.8606-2.005-3.139-1.3619-0.68349 0.35309-1.0505 0.95838-1.0505 1.7276 0 0.78184 1.6834 12.018 1.8733 12.421 0.088601 0.22698 0.1772 0.27743 0.27846 0.18915 0.075942-0.075662 0.58223-2.9382 1.1265-6.343z"/>
<path id="path-26" d="m1.6516 41.046c-0.58223-0.16393-1.329-0.95838-1.5189-1.6267-0.10126-0.37831-0.13923-1.3493-0.11392-2.8751 0.05063-2.5851 0.13923-2.8625 0.99992-3.5183l0.49363-0.37831 4.9869-0.063051c2.7466-0.050441 5.0122-0.088272 5.0249-0.10088 0.012656-0.02522 0.16454-0.29004 0.32908-0.59268l0.30377-0.56746 0.075942-14.83 0.063286-14.83 0.30377-0.4918c0.16454-0.26482 0.5316-0.6179 0.7974-0.79445 0.48097-0.29004 0.59489-0.30265 4.1895-0.34048l3.7085-0.037831 0.68349 0.32787c0.40503 0.20176 0.81006 0.52963 1.0126 0.83228l0.32909 0.4918 0.075943 14.767c0.050628 13.682 0.075943 14.804 0.29111 15.195 0.12657 0.22698 0.39237 0.54224 0.58223 0.69356 0.34174 0.26482 0.49363 0.27743 4.9363 0.27743h4.5945l0.54426 0.31526c0.30377 0.18915 0.67083 0.55485 0.84803 0.8575 0.29111 0.52963 0.30377 0.63051 0.2658 3.2408l-0.037971 2.686-0.39237 0.50441c-0.20251 0.27743-0.6202 0.6179-0.92397 0.74401-0.51894 0.2396-1.1898 0.25221-16.29 0.2396-8.7841 0-15.935-0.063051-16.163-0.1261z"/>
<path id="path-28" d="m1.3541 40.908c-0.34174-0.16393-0.72146-0.50441-0.93663-0.81967l-0.3544-0.52963v-18.953-18.953l0.3544-0.54224c0.65817-0.97099 0.886-1.0214 5.0375-1.0719l3.6579-0.037831 0.72146 0.37831c0.5316 0.27743 0.78474 0.50441 1.0252 0.94577l0.30377 0.58007v18.676 18.676l-0.27846 0.58007c-0.1772 0.35309-0.49363 0.71878-0.82271 0.93316l-0.54426 0.35309-3.7971 0.037831c-3.6579 0.037831-3.8098 0.02522-4.3667-0.25221z"/>
<path id="path-30" d="m8.6446 41.034c-1.7973-0.13871-3.7971-0.64312-4.9996-1.2232-1.734-0.8575-2.8605-2.4212-3.3415-4.6532-0.20251-0.94577-0.22783-2.3455-0.22783-13.821-0.012656-13.859-0.012656-13.859 0.72146-15.738 0.886-2.2825 2.2277-3.9596 3.7592-4.6658 1.5821-0.7314 2.696-0.81967 12.442-0.88272 9.6068-0.063051 9.4549-0.075662 10.176 0.76923 0.5316 0.64312 0.63286 1.2862 0.58223 3.884-0.050628 2.6734-0.15189 3.0265-1.0379 3.6191-0.443 0.29004-0.49363 0.30265-5.2401 0.30265-2.6453 0.01261-5.7337 0.050441-6.8855 0.10088-2.3795 0.10088-2.6074 0.18915-3.139 1.2232l-0.29112 0.59268 0.025315 10.328c0.037971 10.113 0.050628 10.34 0.31643 10.794 0.54426 0.93316 0.41769 0.92055 7.7715 0.92055h6.5817l0.49363 0.34048c0.86069 0.58007 0.94929 0.88272 0.99991 3.5687 0.05063 2.6355-0.037971 3.2534-0.60754 3.9092-0.67083 0.80706-0.48097 0.79445-8.9613 0.76923-4.2655-0.01261-8.379-0.075662-9.1385-0.13871z"/>
</defs>
<g fill="none" fill-rule="evenodd">
<g transform="translate(-140 -7647)">
<g transform="translate(140 7647)">
<rect width="1e3" height="300" fill="#fff" fill-opacity=".01"/>
<g transform="translate(388 26)">
<g transform="translate(112.5 124.05) scale(-1 1) rotate(180) translate(-112.5 -123.93)">
<g transform="translate(35.75 115.33)" fill="#000" fill-rule="nonzero">
<path id="p" d="m68.735 132.41c-12.746-0.32787-27.631-1.4124-43.351-3.1778-8.7208-0.9836-12.1-1.6898-15.391-3.2408-4.7085-2.2194-8.0246-6.179-9.265-11.047-1.2024-4.7162-0.64551-9.8991 1.8606-17.415 4.8983-14.691 12.151-30.63 20.897-45.876 5.3919-9.3946 10.379-17.049 17.188-26.355 6.5311-8.9407 7.4044-10.05 10.088-12.711 6.645-6.5826 14.277-10.87 21.808-12.245 1.6454-0.30265 5.9995-0.41614 7.9993-0.21437 8.6069 0.88272 16.454 5.2711 23.34 13.039 1.4556 1.6393 4.8983 5.889 7.1386 8.8272 11.24 14.641 22.504 33.871 30.921 52.761 3.1516 7.087 7.2272 17.1 8.6322 21.248 2.7086 8.0075 3.3415 14.628 1.8859 19.71-0.46832 1.6393-1.734 4.1109-2.7719 5.3972-3.9617 4.9306-9.8346 7.4148-19.808 8.3984-0.7974 0.075662-3.0757 0.31526-5.0502 0.52963-18.049 1.942-38.655 2.8121-56.122 2.3707zm24.833-11.374c7.5437-0.30265 13.923-0.68095 20.264-1.2106 3.2655-0.26481 10.759-0.99621 11.366-1.1097 0.1772-0.037831 1.367-0.15132 2.658-0.26482 6.7842-0.6179 10.442-1.715 12.493-3.7579 0.65817-0.65573 0.94929-1.0719 1.1771-1.6519 1.0252-2.7616 0.54426-6.9356-1.5442-13.266-1.4935-4.5523-7.1893-18.184-10.797-25.864-6.1387-13.077-14.885-28.07-23.188-39.735-3.0883-4.3632-8.1006-10.769-10.759-13.758-4.2401-4.7793-8.8473-7.7175-13.746-8.7641-1.8479-0.39092-5.2527-0.4918-6.9361-0.20176-3.7845 0.65573-8.6069 3.0517-12.619 6.2547-1.4429 1.1349-4.1642 3.7831-5.2527 5.0819-2.1137 2.5221-9.9865 13.392-13.619 18.802-12.543 18.676-22.859 39.205-29.529 58.764-2.6707 7.8562-2.7972 11.879-0.45566 14.224 2.0251 2.005 4.5186 2.5599 18.087 3.9975 11.758 1.2358 23.327 2.1059 32.82 2.4464 2.1264 0.088273 4.3667 0.16394 4.9869 0.18915 2.3795 0.10088 21.226-0.03783 24.593-0.17654z"/>
</g>
<g transform="translate(35.75 115.33)">
<mask id="z" fill="white">
<use xlink:href="#p"/>
</mask>
<rect x="-61.931" y="-138.9" width="275.37" height="283.75" fill="url(#a)" fill-rule="nonzero" mask="url(#z)"/>
</g>
<g transform="translate(56.615 135.19)" fill="#000" fill-rule="nonzero">
<path id="d" d="m4.2274 89.476c-1.772-0.60529-3.1769-1.9294-3.8478-3.6318-0.24049-0.60529-0.30377-1.034-0.30377-2.1437l-0.012657-1.3997 1.7467-4.1614c0.96194-2.2951 2.4555-5.8764 3.3035-7.9445 5.9615-14.439 9.4929-21.866 14.619-30.719 3.3288-5.7503 7.1386-11.879 11.645-18.739 1.1518-1.7528 2.7213-4.1362 3.4807-5.2963 3.506-5.3215 7.8221-10.479 10.202-12.144 2.6453-1.8663 5.0755-2.7743 8.5056-3.1652 1.3163-0.15132 3.8225-0.10088 4.4806 0.088271l0.30377 0.088272v27.036c0 14.88 0.037972 29.104 0.075943 31.639l0.088601 4.5901h-14.834c-9.0752 0-14.834-0.050442-14.834-0.1261 0-0.31526 0.87334-2.4338 1.5315-3.7326 0.99991-1.942 2.1137-3.4678 3.7718-5.1954 2.8099-2.9004 6.0501-4.8802 9.8093-5.9899l1.2277-0.3657v-11.702c0-8.1336-0.037971-11.677-0.13923-11.614-0.22783 0.13871-5.3413 7.894-7.7335 11.715-4.9489 7.9319-7.6323 12.825-11.404 20.857-2.2403 4.7793-5.6324 12.333-7.0374 15.687l-0.3544 0.8575 13.29-0.050441c13.847-0.050442 14.771-0.01261 17.1 0.51702 6.202 1.4376 11.569 5.435 14.657 10.933 0.68349 1.2232 1.5568 3.2282 1.7593 4.0605l0.0886 0.3657-30.149-0.01261h-30.149l-0.886-0.30265z"/>
</g>
<g transform="translate(56.615 135.19)">
<mask id="s" fill="white">
<use xlink:href="#d"/>
</mask>
<rect x="-82.797" y="-158.76" width="275.37" height="283.75" fill="url(#a)" fill-rule="nonzero" mask="url(#s)"/>
</g>
<g transform="translate(119.88 136.78)" fill="#000" fill-rule="nonzero">
<path id="c" d="m18.138 88.051c-0.87334-0.050441-2.0251-0.20176-2.5694-0.31526-7.7209-1.6393-13.733-8.6506-15.1-17.617-0.1772-1.1475-0.21517-5.9016-0.29111-35.662l-0.088601-34.35 0.39237 0.088272c0.67083 0.16393 3.0124 1.3493 3.9743 2.0303 5.6957 4.0353 10.429 12.799 11.556 21.4 0.16454 1.2862 0.20251 3.3669 0.20251 11.992v10.441l3.2909 0.063051c2.7086 0.050441 3.5187 0.11349 4.5819 0.35309 7.6323 1.6646 13.72 6.8852 16.442 14.06l0.51894 1.3745-11.885 0.075662-11.885 0.063051-0.49363 0.4918-0.50629 0.50441-0.037972 1.5763c-0.075943 2.459 0.43034 3.9344 1.8606 5.4855 0.75943 0.84489 1.9492 1.5889 3.101 1.942 0.36706 0.11349 2.1897 0.20176 5.9109 0.25221 4.835 0.088272 5.5312 0.1261 6.8349 0.39092 5.8856 1.198 10.91 4.5019 14.265 9.382 1.1771 1.7024 2.3542 4.0857 2.8858 5.8259l0.088601 0.30265-15.72-0.025221c-8.6575-0.01261-16.442-0.063051-17.328-0.1261z"/>
</g>
<g transform="translate(119.88 136.78)">
<mask id="r" fill="white">
<use xlink:href="#c"/>
</mask>
<rect x="-146.06" y="-160.35" width="275.37" height="283.75" fill="url(#a)" fill-rule="nonzero" mask="url(#r)"/>
</g>
<g transform="translate(20.467 50.315)" fill="#000" fill-rule="nonzero">
<path id="b" d="m8.9739 41.046c-5.1515-0.40353-7.5943-1.942-8.5183-5.3594-0.34174-1.2862-0.48097-7.1626-0.41769-17.604 0.063286-9.8738 0.12657-11.097 0.64551-13.064 0.27846-1.0467 0.92397-2.2698 1.5315-2.913 0.74677-0.76923 2.8605-1.5385 5.1641-1.8411 0.63286-0.088272 4.6578-0.17654 9.9485-0.21437 8.0499-0.050441 8.9359-0.037831 9.4675 0.15132 0.68349 0.26482 1.3163 0.94577 1.5062 1.6267s0.18986 20.441 0 21.122c-0.16454 0.59268-0.67083 1.2232-1.2404 1.5258-0.36706 0.20176-0.86069 0.22698-3.9364 0.22698-3.9997 0-4.2401-0.050441-4.8983-1.034l-0.3544-0.52963-0.063286-6.5952-0.063286-6.5826-0.40503-0.42875c-0.6202-0.65573-1.0632-0.78184-2.7972-0.78184-1.8479 0-2.3795 0.21437-2.9618 1.1854l-0.3544 0.60529v10.063 10.063l0.32909 0.56746c0.1772 0.31526 0.54426 0.69356 0.7974 0.8575 0.46831 0.29004 0.55691 0.29004 7.1133 0.3657 7.4297 0.063051 7.2652 0.050441 8.012 1.034 0.36706 0.45397 0.36706 0.46658 0.40503 3.1147 0.025314 1.4502 0.012657 2.7869-0.037971 2.9382-0.11391 0.47919-0.74677 1.1349-1.329 1.3997-0.50629 0.22698-1.0252 0.2396-8.3031 0.22698-4.2781-0.01261-8.4423-0.063051-9.2397-0.1261z"/>
</g>
<g transform="translate(20.467 50.315)">
<mask id="q" fill="white">
<use xlink:href="#b"/>
</mask>
<rect x="-46.648" y="-73.884" width="275.37" height="283.75" fill="url(#a)" fill-rule="nonzero" mask="url(#q)"/>
</g>
<g transform="translate(54.622 50.315)" fill="#000" fill-rule="nonzero">
<path id="o" d="m8.803 41.021c-0.60754-0.18915-1.5315-1.034-1.7973-1.6393-0.11391-0.27743-1.1771-5.662-2.3542-11.955-1.1771-6.3051-2.7086-14.477-3.3921-18.159-0.69614-3.6822-1.2531-6.9987-1.2531-7.3644 0-0.78184 0.40503-1.3997 1.1518-1.715 0.54426-0.22698 8.0499-0.25221 8.8473-0.037831 0.6202 0.17654 1.5315 0.97099 1.772 1.5385 0.10126 0.22698 0.3544 1.7654 0.56957 3.4048s0.48097 3.14 0.59489 3.3543c0.27846 0.55485 0.87334 1.0971 1.4809 1.3745 0.60754 0.27743 2.4555 0.34048 3.2909 0.11349 0.64551-0.17654 1.4429-0.89533 1.734-1.5511 0.11391-0.26482 0.40503-1.8285 0.6202-3.4426 0.21517-1.6267 0.48097-3.1147 0.58223-3.3165 0.24049-0.46658 0.83537-1.0467 1.3417-1.3241 0.34174-0.18915 0.98726-0.22698 4.5692-0.26482 3.949-0.037831 4.1895-0.025221 4.7211 0.22698 0.69614 0.34048 1.0505 0.90794 1.0379 1.715-0.012657 1.0719-6.8095 36.582-7.1639 37.402-0.27846 0.64312-1.1898 1.4502-1.8733 1.6519-0.68349 0.20176-13.834 0.20176-14.48-0.01261zm7.5943-9.5334c0.13923-0.56746 1.9492-12.005 1.9492-12.345 0-0.59268-0.50629-1.3619-1.0632-1.6519-1.4556-0.7314-3.1896 0.21437-3.1896 1.7402 0 0.63051 1.7087 11.98 1.8606 12.383 0.13923 0.37831 0.32909 0.31526 0.443-0.1261z"/>
</g>
<g transform="translate(54.622 50.315)">
<mask id="ae" fill="white">
<use xlink:href="#o"/>
</mask>
<rect x="-80.803" y="-73.884" width="275.37" height="283.75" fill="url(#a)" fill-rule="nonzero" mask="url(#ae)"/>
</g>
<g transform="translate(92.631 50.315)" fill="#000" fill-rule="nonzero">
<path id="n" d="m1.3732 40.857c-0.56957-0.27743-0.75943-0.46658-1.0379-1.0214l-0.32909-0.68095v-18.55-18.55l0.32909-0.69356c0.29111-0.55485 0.46831-0.7314 1.0505-1.0214l0.7088-0.34048 3.3795 0.037831 3.3795 0.037831 0.55691 0.3657c0.30377 0.20176 0.67083 0.60529 0.82271 0.89533 0.25314 0.50441 0.2658 0.75662 0.2658 9.4577 0 5.4855 0.050629 9.0668 0.12657 9.2685 0.15189 0.39092 0.41769 0.44136 0.68349 0.1261 0.10126-0.11349 1.8986-3.2913 3.987-7.0491 3.3795-6.0655 3.8604-6.8726 4.2781-7.0996 0.443-0.2396 0.50629-0.25221 0.92397-0.050441 0.39237 0.18915 0.87334 0.99621 4.2781 7.087 2.1011 3.7705 3.9111 6.9735 4.025 7.0996 0.29112 0.32787 0.55691 0.27743 0.7088-0.11349 0.075943-0.20176 0.12657-3.7831 0.12657-9.2685 0-8.7011 0.012658-8.9533 0.2658-9.4577 0.15188-0.29004 0.51894-0.69356 0.82271-0.89533l0.55691-0.3657h3.6073 3.6073l0.5316 0.35309c0.32908 0.21437 0.65817 0.59268 0.82271 0.94577l0.29111 0.58007v18.625c0 20.366 0.037971 19.092-0.7974 19.899-0.68349 0.66834-1.1771 0.7314-4.7338 0.69356-3.1769-0.050441-3.1769-0.050441-3.9364-0.41614-1.1518-0.56746-1.81-1.4123-3.4301-4.401-6.202-11.475-6.5058-11.98-7.1766-11.98-0.63286 0-1.1771 0.87011-4.9363 7.8814-2.0758 3.8587-3.9743 7.2383-4.2148 7.5157-0.24049 0.26482-0.84803 0.68095-1.329 0.92055l-0.87334 0.42875-3.3288 0.037831-3.3288 0.037831-0.68349-0.34048z"/>
</g>
<g transform="translate(92.631 50.315)">
<mask id="ad" fill="white">
<use xlink:href="#n"/>
</mask>
<rect x="-118.81" y="-73.884" width="275.37" height="283.75" fill="url(#a)" fill-rule="nonzero" mask="url(#ad)"/>
</g>
<g transform="translate(140.21 50.315)" fill="#000" fill-rule="nonzero">
<path id="m" d="m1.6516 40.945c-0.64551-0.30265-1.2024-0.92055-1.3796-1.5763-0.18986-0.68095-0.18986-36.847 0-37.528 0.1772-0.66834 0.73412-1.2862 1.3796-1.5763 0.50629-0.2396 1.1645-0.25221 12.1-0.2396 8.6322 0 11.683 0.050441 11.999 0.16393 0.63286 0.22698 1.3417 0.97099 1.5062 1.5763 0.075943 0.30265 0.11391 1.488 0.10126 2.8751-0.050628 2.3203-0.050628 2.3455-0.41769 2.913-0.7088 1.0467-0.6202 1.034-7.7462 1.0845l-6.2526 0.050441-0.54426 0.35309c-0.96194 0.63051-1.1012 1.1223-1.1012 3.9092 0 2.5599 0.063286 2.9256 0.64551 3.5309 0.7088 0.74401 0.93663 0.79445 3.7465 0.87011 2.8225 0.075662 3.1769 0.16393 3.6832 0.89533 0.443 0.63051 0.56957 1.2232 0.55692 2.7364 0 1.7276-0.12657 2.3077-0.68349 2.9256-0.6202 0.70617-1.3417 0.87011-3.987 0.87011-2.4302 0-2.658 0.050441-3.3162 0.74401-0.56957 0.59268-0.64551 0.9836-0.64551 3.0895 0 2.1059 0.075943 2.4968 0.64551 3.0895 0.72146 0.76923 0.55691 0.74401 7.0247 0.75662 5.5059 0 5.9868 0.01261 6.4805 0.2396 0.64551 0.30265 1.0505 0.71878 1.329 1.3745 0.25314 0.60529 0.29112 4.691 0.05063 5.4098-0.20251 0.60529-0.72146 1.1601-1.3796 1.4628-0.50629 0.22698-1.1138 0.2396-11.885 0.2396-10.746 0-11.404-0.01261-11.91-0.2396z"/>
</g>
<g transform="translate(140.21 50.315)">
<mask id="ac" fill="white">
<use xlink:href="#m"/>
</mask>
<rect x="-166.39" y="-73.884" width="275.37" height="283.75" fill="url(#a)" fill-rule="nonzero" mask="url(#ac)"/>
</g>
<g transform="translate(170.91 50.315)" fill="#000" fill-rule="nonzero">
<path id="l" d="m8.5687 41.046c-4.1895-0.32787-6.4172-1.3241-7.2525-3.2661-1.0379-2.4086-1.4935-7.1879-1.2024-12.547 0.15188-2.7364 0.34174-3.6696 0.9746-4.855 0.49363-0.90794 1.7973-2.2068 2.7086-2.6608 1.4682-0.74401 1.8606-0.78184 7.1893-0.87011l4.9363-0.088272 0.50629-0.40353c0.94929-0.75662 0.99991-0.95838 0.94929-4.0227-0.025315-2.2825-0.075943-2.7869-0.2658-3.14l-0.24049-0.42875-7.4044-0.037831c-8.2904-0.050441-7.9234 0-8.5942-0.99621-0.34174-0.4918-0.34174-0.51702-0.34174-3.3165 0-3.1526 0.037971-3.3165 0.886-3.9596l0.49363-0.37831 7.6323-0.037831c8.3537-0.037831 9.5941 0.037831 11.936 0.70617 1.7973 0.51702 2.8605 1.1475 4.1895 2.4464 1.3796 1.3619 1.9492 2.4212 2.4555 4.5649 0.60754 2.5473 0.59489 7.831-0.025315 11.526-0.3544 2.1437-1.2404 3.43-2.9365 4.2749-1.9872 0.99621-4.0629 1.3367-9.1638 1.4628l-3.5946 0.088272-0.46831 0.35309c-0.83537 0.63051-0.92397 1.0214-0.886 3.4804 0.050628 2.4086 0.11391 2.5851 1.0379 3.2156l0.443 0.30265h6.4678c6.4425 0 6.4678 0 7.05 0.29004 1.1391 0.58007 1.3163 1.1349 1.3163 4.0731 0 2.9382-0.1772 3.493-1.3163 4.0731l-0.58223 0.30265-7.7209-0.02522c-4.2401-0.01261-8.3664-0.063051-9.1764-0.1261z"/>
</g>
<g transform="translate(170.91 50.315)">
<mask id="ab" fill="white">
<use xlink:href="#l"/>
</mask>
<rect x="-197.09" y="-73.884" width="275.37" height="283.75" fill="url(#a)" fill-rule="nonzero" mask="url(#ab)"/>
</g>
<g fill="#000" fill-rule="nonzero">
<path id="k" d="m1.6201 41.046c-0.6202-0.2396-1.1265-0.69356-1.367-1.2358-0.24049-0.51702-0.25314-1.2862-0.25314-19.205v-18.651l0.27846-0.58007c0.1772-0.35309 0.49363-0.7314 0.82271-0.94577l0.54426-0.35309 3.6579-0.037831c3.1263-0.037831 3.7339-0.01261 4.2148 0.17654 0.68349 0.25221 1.3163 0.93316 1.5062 1.6141 0.0886 0.31526 0.13923 2.8878 0.13923 7.0491 0 6.3682 0.012657 6.5573 0.27846 7.1122 0.18986 0.40353 0.46831 0.69356 0.89866 0.94577 0.60754 0.35309 0.68349 0.35309 3.2149 0.42875 2.9365 0.063051 3.2655 0.16393 3.8098 1.1223 0.27846 0.47919 0.30377 0.70617 0.30377 2.5473 0 2.232-0.075943 2.5094-0.7974 3.1273-0.6202 0.51702-1.1898 0.60529-3.6199 0.60529-2.4428 0.01261-2.8225 0.088272-3.4427 0.75662-0.56957 0.59268-0.64551 0.9836-0.64551 3.1652 0 2.1185 0.075943 2.5094 0.64551 3.1526 0.60754 0.68095 0.55691 0.66834 7.4677 0.74401l6.4551 0.063051 0.49363 0.37831c0.89866 0.68095 0.94929 0.89533 0.94929 3.7957 0 2.459-0.012657 2.6103-0.30377 3.1147-0.16454 0.29004-0.51894 0.68095-0.78474 0.8575l-0.48097 0.32787-11.834 0.02522c-7.2525 0.02522-11.961-0.02522-12.151-0.10088z"/>
</g>
<mask id="aa" fill="white">
<use xlink:href="#k"/>
</mask>
<rect x="-26.181" y="-23.569" width="275.37" height="283.75" fill="url(#a)" fill-rule="nonzero" mask="url(#aa)"/>
<g transform="translate(28.441)" fill="#000" fill-rule="nonzero">
<path id="j" d="m8.6448 40.92c-0.68349-0.31526-1.1138-0.66834-1.4682-1.2484-0.1772-0.27743-0.87334-3.7579-2.3163-11.463-1.1391-6.0781-2.7086-14.414-3.4807-18.524-0.91131-4.8297-1.3796-7.667-1.3417-7.9949 0.10126-0.70617 0.43034-1.1349 1.1012-1.4376 0.55691-0.2396 0.86069-0.25221 4.7464-0.21437 4.1389 0.037831 4.1515 0.037831 4.7464 0.37831 0.31643 0.17654 0.75943 0.56746 0.9746 0.87011 0.3544 0.50441 0.40503 0.76923 0.75943 3.5057 0.21517 1.6267 0.48097 3.2156 0.59489 3.5183 0.2658 0.68095 1.0632 1.4376 1.7467 1.6267 0.27846 0.075662 1.0252 0.13871 1.6454 0.13871 1.3796 0 2.2783-0.3657 2.8479-1.1728 0.45566-0.66834 0.51894-0.93316 0.92397-4.0605 0.20251-1.4502 0.45566-2.8751 0.56957-3.1526 0.27846-0.63051 1.0632-1.3241 1.7467-1.5258 0.34174-0.10088 1.8353-0.15132 4.4173-0.15132 3.544 0 3.9617 0.025221 4.468 0.25221 0.64551 0.30265 0.96194 0.7314 1.0632 1.425 0.063286 0.52963-1.5062 9.0163-5.0755 27.453-2.1644 11.147-2.0631 10.807-3.3162 11.576l-0.65817 0.40353-7.05 0.037831c-6.8728 0.02522-7.0627 0.02522-7.6449-0.2396zm7.6955-9.2559c0.1772-0.32787 2.0125-11.639 2.0125-12.408 0.012657-1.778-2.1517-2.6986-3.5313-1.488-0.84803 0.74401-0.84803 0.75662 0.13923 7.3013 0.82271 5.5359 1.0505 6.86 1.1898 6.86 0.025314 0 0.11391-0.1261 0.18986-0.26482z"/>
</g>
<g transform="translate(28.441)">
<mask id="y" fill="white">
<use xlink:href="#j"/>
</mask>
<rect x="-54.622" y="-23.569" width="275.37" height="283.75" fill="url(#a)" fill-rule="nonzero" mask="url(#y)"/>
</g>
<g transform="translate(66.982)" fill="#000" fill-rule="nonzero">
<path id="i" d="m1.8858 41.097c-0.49363-0.10088-1.4429-1.0971-1.6075-1.6898-0.20251-0.7314-0.20251-36.86 0-37.579 0.18986-0.68095 0.81006-1.3619 1.4935-1.6141 0.48097-0.18915 1.0759-0.21437 3.8857-0.17654 3.1896 0.037831 3.3288 0.050441 3.8098 0.34048 0.2658 0.17654 0.6202 0.52963 0.7974 0.79445l0.30377 0.4918 0.063286 8.4363c0.063286 8.7894 0.0886 9.0037 0.60754 8.575 0.11391-0.10088 2.1137-3.9722 4.4427-8.6002 4.5566-9.0668 4.43-8.865 5.8856-9.6342l0.69614-0.3657 3.3035-0.037831c2.8225-0.037831 3.3921-0.01261 3.8857 0.17654 0.69614 0.26482 1.3163 0.94577 1.5062 1.6393 0.10126 0.35309 0.12657 6.343 0.11391 19.029l-0.037972 18.524-0.30377 0.52963c-0.1772 0.29004-0.5316 0.68095-0.7974 0.8575l-0.48097 0.32787h-3.5313-3.544l-0.55691-0.3657c-1.0759-0.70617-1.0126-0.16393-1.0885-9.7225-0.063286-8.8524-0.0886-9.0668-0.60754-8.638-0.11391 0.10088-2.1264 3.9722-4.4553 8.6128-4.5692 9.1046-4.5313 9.0542-5.9615 9.7477l-0.73411 0.3657-3.3921 0.02522c-1.8606 0.01261-3.5313-0.01261-3.6959-0.050441z"/>
</g>
<g transform="translate(66.982)">
<mask id="x" fill="white">
<use xlink:href="#i"/>
</mask>
<rect x="-93.163" y="-23.569" width="275.37" height="283.75" fill="url(#a)" fill-rule="nonzero" mask="url(#x)"/>
</g>
<g transform="translate(104.59)" fill="#000" fill-rule="nonzero">
<path id="h" d="m9.0055 41.059c-0.6202-0.18915-1.2404-0.64312-1.6201-1.1854-0.39237-0.55485-0.34174-0.29004-5.9109-30.038-1.5948-8.4741-1.5948-8.4363-0.92397-9.1424 0.59489-0.64312 0.89866-0.68095 5.1261-0.68095 2.177 0 4.1642 0.063051 4.43 0.1261 0.60754 0.17654 1.4049 0.84489 1.7087 1.4376 0.16454 0.32787 0.36706 1.3997 0.60754 3.2661 0.46831 3.7705 0.69614 4.3127 1.9872 4.918 0.55691 0.25221 0.886 0.31526 1.9112 0.31526 0.74677 0 1.4049-0.075662 1.6707-0.17654 0.68349-0.29004 1.3796-0.97099 1.5948-1.5889 0.11391-0.30265 0.39237-1.8537 0.60754-3.4552 0.45566-3.3291 0.63286-3.7831 1.7087-4.4136l0.6202-0.3657 4.0123-0.037831c2.4935-0.025221 4.2148 0.01261 4.5313 0.10088 0.27846 0.075662 0.68349 0.31526 0.886 0.52963 0.67083 0.69356 0.64551 1.0214-0.91131 9.2812-2.7846 14.729-5.5312 28.802-5.7337 29.357-0.25314 0.68095-1.1645 1.5132-1.8859 1.7276-0.6202 0.18915-13.809 0.20176-14.416 0.025221zm8.4929-15.574c0.60754-3.7957 0.96194-6.3682 0.91131-6.633-0.24049-1.3115-1.8606-2.005-3.139-1.3619-0.68349 0.35309-1.0505 0.95838-1.0505 1.7276 0 0.78184 1.6834 12.018 1.8733 12.421 0.088601 0.22698 0.1772 0.27743 0.27846 0.18915 0.075942-0.075662 0.58223-2.9382 1.1265-6.343z"/>
</g>
<g transform="translate(104.59)">
<mask id="w" fill="white">
<use xlink:href="#h"/>
</mask>
<rect x="-130.77" y="-23.569" width="275.37" height="283.75" fill="url(#a)" fill-rule="nonzero" mask="url(#w)"/>
</g>
<g transform="translate(137.29)" fill="#000" fill-rule="nonzero">
<path id="g" d="m1.6516 41.046c-0.58223-0.16393-1.329-0.95838-1.5189-1.6267-0.10126-0.37831-0.13923-1.3493-0.11392-2.8751 0.05063-2.5851 0.13923-2.8625 0.99992-3.5183l0.49363-0.37831 4.9869-0.063051c2.7466-0.050441 5.0122-0.088272 5.0249-0.10088 0.012656-0.02522 0.16454-0.29004 0.32908-0.59268l0.30377-0.56746 0.075942-14.83 0.063286-14.83 0.30377-0.4918c0.16454-0.26482 0.5316-0.6179 0.7974-0.79445 0.48097-0.29004 0.59489-0.30265 4.1895-0.34048l3.7085-0.037831 0.68349 0.32787c0.40503 0.20176 0.81006 0.52963 1.0126 0.83228l0.32909 0.4918 0.075943 14.767c0.050628 13.682 0.075943 14.804 0.29111 15.195 0.12657 0.22698 0.39237 0.54224 0.58223 0.69356 0.34174 0.26482 0.49363 0.27743 4.9363 0.27743h4.5945l0.54426 0.31526c0.30377 0.18915 0.67083 0.55485 0.84803 0.8575 0.29111 0.52963 0.30377 0.63051 0.2658 3.2408l-0.037971 2.686-0.39237 0.50441c-0.20251 0.27743-0.6202 0.6179-0.92397 0.74401-0.51894 0.2396-1.1898 0.25221-16.29 0.2396-8.7841 0-15.935-0.063051-16.163-0.1261z"/>
</g>
<g transform="translate(137.29)">
<mask id="v" fill="white">
<use xlink:href="#g"/>
</mask>
<rect x="-163.47" y="-23.569" width="275.37" height="283.75" fill="url(#a)" fill-rule="nonzero" mask="url(#v)"/>
</g>
<g transform="translate(178.62)" fill="#000" fill-rule="nonzero">
<path id="f" d="m1.3541 40.908c-0.34174-0.16393-0.72146-0.50441-0.93663-0.81967l-0.3544-0.52963v-18.953-18.953l0.3544-0.54224c0.65817-0.97099 0.886-1.0214 5.0375-1.0719l3.6579-0.037831 0.72146 0.37831c0.5316 0.27743 0.78474 0.50441 1.0252 0.94577l0.30377 0.58007v18.676 18.676l-0.27846 0.58007c-0.1772 0.35309-0.49363 0.71878-0.82271 0.93316l-0.54426 0.35309-3.7971 0.037831c-3.6579 0.037831-3.8098 0.02522-4.3667-0.25221z"/>
</g>
<g transform="translate(178.62)">
<mask id="u" fill="white">
<use xlink:href="#f"/>
</mask>
<rect x="-204.8" y="-23.569" width="275.37" height="283.75" fill="url(#a)" fill-rule="nonzero" mask="url(#u)"/>
</g>
<g transform="translate(197.22)" fill="#000" fill-rule="nonzero">
<path id="e" d="m8.6446 41.034c-1.7973-0.13871-3.7971-0.64312-4.9996-1.2232-1.734-0.8575-2.8605-2.4212-3.3415-4.6532-0.20251-0.94577-0.22783-2.3455-0.22783-13.821-0.012656-13.859-0.012656-13.859 0.72146-15.738 0.886-2.2825 2.2277-3.9596 3.7592-4.6658 1.5821-0.7314 2.696-0.81967 12.442-0.88272 9.6068-0.063051 9.4549-0.075662 10.176 0.76923 0.5316 0.64312 0.63286 1.2862 0.58223 3.884-0.050628 2.6734-0.15189 3.0265-1.0379 3.6191-0.443 0.29004-0.49363 0.30265-5.2401 0.30265-2.6453 0.01261-5.7337 0.050441-6.8855 0.10088-2.3795 0.10088-2.6074 0.18915-3.139 1.2232l-0.29112 0.59268 0.025315 10.328c0.037971 10.113 0.050628 10.34 0.31643 10.794 0.54426 0.93316 0.41769 0.92055 7.7715 0.92055h6.5817l0.49363 0.34048c0.86069 0.58007 0.94929 0.88272 0.99991 3.5687 0.05063 2.6355-0.037971 3.2534-0.60754 3.9092-0.67083 0.80706-0.48097 0.79445-8.9613 0.76923-4.2655-0.01261-8.379-0.075662-9.1385-0.13871z"/>
</g>
<g transform="translate(197.22)">
<mask id="t" fill="white">
<use xlink:href="#e"/>
</mask>
<rect x="-223.41" y="-23.569" width="275.37" height="283.75" fill="url(#a)" fill-rule="nonzero" mask="url(#t)"/>
</g>
</g>
</g>
</g>
</g>
</g>
</svg>
