<?xml version="1.0" encoding="UTF-8"?>
<svg version="1.1" viewBox="0 0 1000 300" xmlns="http://www.w3.org/2000/svg">
<title>GdyniaMojeMiasto</title>
<desc>Created with Sketch.</desc>
<g fill="none" fill-rule="evenodd">
<g transform="translate(-140 -2349)">
<g transform="translate(140 2349)">
<rect width="1e3" height="300" fill="#fff" fill-opacity=".01"/>
<g transform="translate(341 25)" fill-rule="nonzero">
<g transform="translate(158.07 126.52) scale(-1 1) rotate(180) translate(-157.35 -124.35)">
<path d="m154.61 246.95c-2.7633-0.42676-4.9599-0.99578-4.9599-1.2092 0-0.28451 1.9839-2.1338 4.4639-4.0543 4.6764-3.6275 7.7232-7.8951 13.037-17.995 1.9839-3.8409 3.3302-5.6191 4.2513-5.6191 0.7794 0 3.5428 1.0669 6.1644 2.2761 4.4639 2.205 5.0307 2.2761 10.557 1.8493 6.5187-0.56902 12.258-1.9204 20.194-4.6233 8.29-2.8451 9.1403-1.8493 4.889 5.7613-3.3302 5.9036-7.7232 11.452-11.762 14.866-2.6216 2.2049-2.4799 1.8493 1.1337-1.9204 6.2352-6.686 12.825-17.426 11.479-18.778-0.28342-0.21338-4.2513 0.7824-8.8569 2.2761-8.786 2.9162-19.839 4.6944-23.807 3.9831-1.3462-0.28451-4.0387-1.2803-6.0935-2.2761l-3.7553-1.7782-1.1337 1.9916c-0.70855 1.0669-2.8342 4.9078-4.889 8.5353-2.2674 4.1965-5.1016 7.9663-7.5815 10.313l-3.897 3.6275 2.0548 0.42676c1.1337 0.28451 2.5508 0.64015 3.1176 0.85353 2.1257 0.64015 19.981 0.28451 23.949-0.49789 2.1965-0.49789 5.6684-1.5648 7.7232-2.4183 4.3222-1.7782 7.2981-2.2761 6.8729-1.138-0.35428 1.138-10.203 4.7655-15.588 5.6902-5.6684 0.99578-20.477 0.92466-27.563-0.14226z" fill="#000029"/>
<path d="m141.78 215.8c-0.28342-0.42676 1.1337-2.5606 3.1885-4.6944 6.5895-6.9705 9.0694-11.736 11.833-22.761 1.3462-5.4768 2.4799-10.456 2.4799-11.025 0-0.92466-1.6297-1.0669-9.1403-0.92466-10.912 0.28451-11.479-0.35564-3.897-4.5522 6.8021-3.6275 9.3529-7.0416 11.479-15.15 0.92112-3.4141 2.5508-9.3888 3.6136-13.301 1.6297-5.7613 2.0548-8.6775 2.0548-15.292 0-4.5522-0.28342-10.171-0.56684-12.518-0.56684-3.9831-0.49598-4.2676 0.85026-4.2676 0.85026 0 1.6297 0.28451 1.8422 0.64015 0.70855 1.0669 9.7071 5.1212 16.013 7.1127 8.9986 2.8451 18.281 3.6986 35.002 3.2007 15.588-0.49789 24.091-1.7782 34.506-5.3346 11.549-3.8409 23.453-11.38 26.216-16.43 0.7794-1.4937 1.7714-2.6317 2.2674-2.6317 1.4171 0 1.7714 9.5311 0.56684 15.648-0.56684 3.0585-1.4171 10.313-1.8422 16.075-0.42513 5.7613-1.0628 10.527-1.4171 10.669s-0.49598 0.7824-0.28342 1.4937c0.35428 0.99578 0.28342 1.0669-0.28342 0.21338-0.92112-1.2803-4.2513 0.56902-10.983 6.117-2.4091 2.0627-8.8569 5.9036-14.313 8.6064-9.4237 4.7655-9.8488 5.05-9.8488 7.255 0 4.3388-2.3382 11.238-7.1564 21.196-2.6216 5.4768-4.9599 9.8156-5.1724 9.6022-0.21256-0.21338 0.7794-2.5606 2.1965-5.1212 5.5975-10.385 10.628-27.526 8.0775-27.526-0.42513 0-2.4799 1.138-4.5347 2.4895-4.1096 2.774-20.123 9.3888-27.279 11.238-5.3141 1.4225-21.752 1.5648-29.192 0.28451-3.1176-0.49789-7.2272-0.64015-10.77-0.28451-5.7393 0.56902-5.7393 0.56902-5.7393 2.7028 0 1.138-1.0628 6.0458-2.2674 10.882-2.4799 9.4599-5.2433 15.15-9.9197 20.271l-2.9051 3.2007h5.5975c3.1176 0 8.2192 0.35564 11.337 0.7824 14.171 1.9916 39.466-3.6986 52.149-11.736 4.889-3.0585 6.6604-3.8409 7.0855-3.1296 0.92112 1.4225 0.85026 1.5648-1.7714 3.343-8.5026 5.6902-14.809 8.2508-29.972 11.949-8.4317 2.0627-11.62 2.2049-37.553 1.4937-3.0468-0.071127-6.8021 0.14226-8.29 0.42676-1.7714 0.42676-2.9051 0.35564-3.2593-0.21338zm72.556-43.957c9.7071-3.4141 18.989-7.3973 18.493-7.8951-0.14171-0.14226-4.4639 0.85353-9.5654 2.2761-12.329 3.4141-24.587 5.9036-34.577 7.1839-6.6604 0.7824-7.7232 1.0669-5.5975 1.4937 1.4171 0.28451 6.9438 0.42676 12.258 0.28451 9.282-0.14226 10.061-0.28451 18.989-3.343zm-54.275-1.9204c0-4.2676 0.56684-4.9789 2.2674-2.9162 1.8422 2.205 8.4317 5.4768 11.124 5.4768 3.6845 0 26.854-3.343 33.089-4.8367 2.8342-0.64015 11.408-2.8451 18.989-4.9078 16.084-4.3388 28.484-9.8867 36.561-16.573 6.8021-5.6191 10.203-7.6106 12.612-7.3973l2.1256 0.14226v-6.8994c0-3.7698 0.49599-10.242 1.1337-14.297 0.56684-4.1254 1.1337-9.3177 1.1337-11.594v-4.1254l-2.4799 2.2761c-6.377 5.9747-12.329 9.5311-22.107 13.23-9.6363 3.5564-19.627 5.5479-33.869 6.6148-19.981 1.4225-33.798-0.35564-48.961-6.4726-2.7633-1.138-5.1724-1.9204-5.385-1.7071s-0.070855 2.9162 0.35428 5.9036c0.92112 7.1839 0.14171 13.23-3.5428 27.597-4.393 16.999-5.2433 18.635-11.124 22.405l-3.401 2.205h5.7393 5.7393v-4.1254zm5.1724 1.7782c-2.9051-1.7782-2.9759-1.7782-2.9759 0.28451 0 1.5648 0.28342 1.7071 2.6216 1.4225l2.6925-0.28451-2.3382-1.4225z" fill="#000029"/>
<path d="m31.389 96.662c-14.667-4.0543-27.421-17.568-30.468-32.292-3.401-16.288 3.1885-28.238 17.785-31.936 9.4237-2.4183 23.099-0.071128 33.231 5.7613l3.897 2.2049 4.393 13.585c2.4091 7.4684 4.6056 14.368 4.889 15.292l0.56684 1.7071-15.092-0.21338-15.021-0.21338-2.4799-7.255-2.4091-7.3261 3.9679 0.071127h4.0387l-0.99197-2.8451c-0.85026-2.5606-1.2045-2.8451-3.9679-2.9874-3.8262-0.28451-7.2272 1.3514-9.1403 4.5522-4.1096 6.686 1.2045 19.418 9.3529 22.547 4.3222 1.7071 8.786 1.138 11.408-1.4225l1.9839-1.9204 10.345 3.6986c5.6684 2.0627 10.487 3.912 10.699 4.0543 0.6377 0.64015-3.9679 8.1085-6.1644 9.9578-1.2045 1.0669-4.1096 2.774-6.3061 3.8409-3.5428 1.6359-5.3141 1.9204-12.329 2.0627-5.5267 0.14225-9.4237-0.14225-12.187-0.92466z" fill="#000029"/>
<path d="m75.248 94.599c-0.35428-0.92466-4.889-14.795-10.132-30.798-5.1724-16.004-9.6363-29.518-9.8488-30.158-0.35428-0.85353 2.0548-0.92466 16.297-0.49789 18.918 0.56902 24.374 1.4937 32.381 5.3346 20.335 9.8156 29.263 36.417 16.793 49.789-6.4478 6.8994-10.841 8.1085-30.68 8.1085-14.1 0-14.171-0.071127-14.809-1.7782zm23.666-18.707c6.9438-3.6275 3.8262-16.786-5.0307-21.338-2.8342-1.4225-8.9986-2.774-8.9986-1.9204 0 0.28451 1.7005 5.9036 3.7553 12.376 3.8262 11.878 3.8262 11.949 6.0227 11.949 1.2045 0 3.1176-0.49789 4.2513-1.0669z" fill="#000029"/>
<path d="m122.86 95.666c0-0.35564 2.1256-8.7487 4.8181-18.564l4.8181-17.853-3.7553-11.096c-1.9839-6.117-3.5428-11.238-3.401-11.38 0.21256-0.14225 5.5267 0.14225 11.904 0.64015l11.62 0.99578 3.4719 10.456 3.4719 10.527 10.77 11.736c5.9518 6.4726 10.912 11.665 10.983 11.594 0.14171-0.14225-2.7633-9.6022-6.4478-21.054-3.6845-11.38-6.5187-20.911-6.3061-21.125 0.21256-0.21338 5.3141 0.14225 11.408 0.7824 6.0227 0.71127 11.195 1.2803 11.479 1.2803 0.28342 0 1.9131 4.2676 3.5428 9.4599 1.7005 5.2634 3.2593 10.029 3.5428 10.669 0.21256 0.64015 1.3462-3.2007 2.4799-8.4642 1.1337-5.2634 2.1257-9.6733 2.3382-9.8156 0.49598-0.49789 29.759 3.912 30.397 4.6233 0.49598 0.56902 15.588 45.664 15.588 46.731 0 0.28451-5.1724 0.56902-11.479 0.56902h-11.549l-5.0307-15.719-4.9599-15.719-2.0548 10.242c-1.1337 5.6902-2.6216 12.803-3.2593 15.719l-1.2045 5.4768h-22.248-22.178l-5.8101-7.824-5.8101-7.7529-0.85026 5.8324c-0.42513 3.2007-1.0628 6.686-1.2754 7.7529l-0.49598 1.9916h-12.258c-6.8729 0-12.258-0.35564-12.258-0.71127z" fill="#000029"/>
<path d="m241.62 72.692l-7.8649-23.614 2.7633 0.49789c1.488 0.21338 6.9438 0.92466 12.045 1.6359 5.1016 0.64015 9.4946 1.4225 9.778 1.7071 0.21256 0.28451 3.6136 10.171 7.5815 21.978l7.0855 21.48h-11.762-11.833l-7.7941-23.685z" fill="#000029"/>
<path d="m274.78 75.111c-7.8649-11.665-14.313-21.623-14.313-22.121 0-0.56902 0.7794-0.71127 2.2674-0.42676 3.5428 0.71127 23.24-0.92466 31.46-2.5606 3.9679-0.85353 9.9197-2.4895 13.179-3.6986l5.9518-2.1338v26.104 26.104h-12.187-12.116l-14.242-21.267zm19.06-8.2508c-1.1337-10.598-0.85026-10.1-5.0307-10.1h-3.6136l4.0387 7.255c2.1965 4.0543 4.1804 7.8951 4.393 8.6775 0.85026 2.6317 0.92112 0.7824 0.21256-5.8324z" fill="#000029"/>
<path d="m174.52 36.631c-1.2754-1.4937-1.2754-1.4937 1.2754-1.4937 1.6297 0 3.1176 0.49789 3.9679 1.4937 1.2754 1.4225 1.2754 1.4937-1.2754 1.4937-1.6297 0-3.1176-0.56902-3.9679-1.4937z" fill="#F47920"/>
<path d="m243.74 36.631c-1.3462-1.4937-1.3462-1.4937 1.0628-1.4937 2.6216 0 5.2433 1.0669 5.2433 2.2049 0 1.4225-4.9599 0.7824-6.3061-0.71127z" fill="#F47920"/>
<path d="m292.7 35.848c-1.488-0.85353-2.5508-2.2049-2.8342-3.6986-0.35428-1.4937-0.99197-2.2761-1.8422-2.2761-1.8422 0-2.2674-0.71127-1.4171-2.1338 0.56684-0.92466 0.14171-2.7028-1.7714-7.1839-1.4171-3.2719-2.7633-6.9705-3.1176-8.1085-0.49599-2.2049 0.49599-4.2676 2.1965-4.1965 1.2045 0 7.0855 5.8324 7.0146 6.9705 0 0.42676-0.56684 0.071128-1.2045-0.85353-1.2045-1.7071-3.1885-2.2761-3.1885-0.92466 0 0.42676 1.2045 3.912 2.6925 7.824 2.5508 6.6148 2.9051 7.1127 4.8181 7.1127 1.1337 0 2.2674 0.35564 2.4799 0.7824 0.28342 0.35564-0.35428 0.71127-1.4171 0.71127-2.2674 0-2.2674 0.35564-0.77941 4.1254 0.6377 1.4937 1.0628 2.8451 0.92112 2.9874-0.14171 0.21338-1.2754-0.35564-2.5508-1.138z" fill="#F47920"/>
<path d="m124.21 30.229c-1.2754-0.71127-2.0548-1.8493-2.3382-3.5564-0.21256-1.3514-1.6297-5.7613-3.1176-9.7445-1.488-4.0543-2.6216-7.4684-2.4091-7.6818 0.85026-0.85353 4.3222 1.4225 5.4558 3.6275 2.4799 4.9789 7.8649 12.518 8.9277 12.518 0.56684 0 1.0628-0.14225 1.0628-0.28451 0-0.14225-1.488-3.8409-3.3302-8.2508-1.7714-4.3388-2.9759-7.8951-2.6216-7.8951 2.3382 0 4.8181 2.1338 8.0775 6.8994 8.0775 11.878 10.274 12.732 5.385 2.0627-4.3222-9.4599-4.1096-10.456 1.4171-7.3261 2.4091 1.3514 2.6925 1.7071 1.7714 2.6317-1.1337 1.138-1.2045 0.71127 2.9759 10.954 1.5588 3.6275 2.5508 6.7571 2.3382 6.9705-0.99197 1.0669-5.8101-3.2007-10.487-9.3177-7.5106-9.8156-7.4398-9.8867-2.0548 2.5606 1.4171 3.4852 2.4799 6.4015 2.2674 6.6148s-1.5588-0.14225-3.0468-0.7824c-1.8422-0.7824-3.897-2.7028-6.0935-5.7613-6.5895-9.0332-6.5187-8.9621-4.8181-4.5522 0.7794 2.1338 1.9839 5.1212 2.5508 6.686 1.9839 4.6944 1.5588 5.5479-1.9131 3.6275z" fill="#F47920"/>
<path d="m154.75 26.957c-6.5895-6.6148-9.3529-14.439-6.1644-17.568 1.6297-1.7071 2.6216-1.4937 6.7312 1.3514 6.3061 4.3388 10.699 11.452 10.699 17.497 0 3.1296-1.1337 3.5564-4.1804 1.4937-1.7005-1.138-2.1965-1.7782-1.4171-1.9916 3.401-0.71127-1.6297-15.79-5.3141-15.79-1.7005 0-3.2593 2.2761-3.2593 4.6944 0.070855 3.2719 2.2674 7.9663 5.5975 11.665 4.1096 4.6233 2.3382 3.6986-2.6925-1.3514z" fill="#F47920"/>
<path d="m211.29 30.229c-1.4171-0.71127-2.1257-1.9204-2.4799-3.912-0.28342-1.4937-1.8422-6.0458-3.401-10.1-1.5588-3.9831-2.7633-7.255-2.6216-7.255 0.070855 0 1.2045 0.35564 2.5508 0.85353 1.6297 0.56902 2.8342 1.7782 3.897 3.912 2.6925 5.1923 7.2981 11.665 8.4317 11.665 1.2045 0 0.85026-1.2803-3.2593-11.025-2.1965-5.4057-2.1965-5.4768-0.6377-4.9789 2.8342 0.85353 3.2593 1.2803 7.6523 7.3973 7.7941 11.096 9.5654 11.523 4.889 1.2803-4.3222-9.3888-4.0387-10.811 1.6297-7.3261 2.1965 1.3514 2.5508 1.8493 1.6297 2.2049-1.4171 0.56902-1.2754 1.2803 2.6925 10.74 3.3302 7.824 3.2593 7.6818 1.8422 7.6818-1.8422 0-6.1644-4.3388-10.983-10.954-2.4799-3.4141-4.6764-6.117-4.8181-5.9747s1.2754 3.912 3.1176 8.3219c1.9131 4.4099 3.2593 8.1797 3.1176 8.3219-0.21256 0.21338-1.6297-0.21338-3.2593-0.99578-2.5508-1.2092-5.8101-4.8367-10.841-12.163-1.2045-1.8493-1.2045-1.7782-0.21256 1.138 0.56684 1.6359 1.7005 4.7655 2.5508 6.8994 2.2674 5.7613 2.1256 6.2592-1.488 4.2676z" fill="#F47920"/>
<path d="m301.13 26.175c-3.8262-4.0543-5.1724-6.117-6.0935-9.2466-1.2754-4.4099-0.63769-7.6106 1.5588-8.4642 3.6136-1.3514 13.675 8.4642 15.659 15.15 1.2045 4.1254 0.92111 7.7529-0.56684 7.7529-0.42513 0-1.7714-0.71127-2.9759-1.5648-1.9839-1.4225-2.0548-1.6359-0.92112-2.4895 1.5588-1.138 0.99197-4.9789-1.5588-10.598-1.8422-4.0543-4.1096-5.5479-5.9518-3.9831-2.9051 2.3472-1.5588 8.3219 3.3302 14.723 1.6297 2.1338 2.8342 3.912 2.6925 3.912-0.14171 0-2.4799-2.3472-5.1724-5.1923z" fill="#F47920"/>
<path d="m173.81 29.802c-0.99197-0.49789-2.4799-3.343-4.393-8.393-5.8101-15.364-9.282-21.623-9.4237-16.715-0.070856 1.6359-0.070856 1.6359-0.77941-0.14225-0.70855-1.8493-0.28342-4.5522 0.77941-4.5522 0.35428 0 2.1256 1.4225 3.9679 3.2007 3.3302 3.1296 3.897 4.3388 13.037 26.815 0.35428 0.7824-1.3462 0.71127-3.1885-0.21338z" fill="#F47920"/>
<path d="m185.22 28.451c-5.7393-3.6275-9.5654-9.9578-9.5654-15.648 0-4.9078 3.1885-5.8324 7.6523-2.3472 2.9051 2.2761 5.385 5.9747 4.0387 5.9747-0.6377 0-1.488-0.99578-2.0548-2.2761-1.1337-2.8451-1.7714-3.2007-3.6845-2.2049-1.1337 0.64015-1.488 1.5648-1.488 3.912 0 3.9831 0.35428 4.481 4.5347 6.0458 3.9679 1.4937 8.5026 5.8324 7.8649 7.5395-0.70855 1.7782-3.5428 1.4225-7.2981-0.99578zm2.3382-2.1338c0-1.6359-2.1965-3.912-3.8262-3.912-1.9131 0-1.7005 1.9916 0.49598 4.1965 1.9131 1.9204 3.3302 1.8493 3.3302-0.28451z" fill="#F47920"/>
<path d="m243.32 29.518c-1.4171-0.7824-2.9759-3.4852-5.8101-10.1-3.6845-8.4642-4.2513-11.238-2.3382-11.167 1.2754 0 6.7312 3.6275 6.7312 4.5522 0 0.56902-0.42513 0.49789-1.2045-0.14225-2.9051-2.4183-1.6297 2.4895 3.1176 12.163 3.2593 6.4726 3.2593 6.7571-0.49598 4.6944z" fill="#F47920"/>
<path d="m254.72 28.593c-1.7005-1.138-3.897-3.1296-4.9599-4.4099-2.6925-3.2719-5.6684-9.8867-5.6684-12.803 0-1.9916 0.28342-2.4183 1.7005-2.4183 0.92112 0 3.1885 1.3514 5.0307 3.0585 1.7714 1.6359 2.4799 2.4895 1.488 1.8493-0.99197-0.64015-2.1257-1.138-2.4091-1.138-1.2754-0.071127-0.49599 4.9789 1.3462 8.8909 2.9759 6.5437 5.0307 8.1085 7.4398 5.6902 0.92112-0.99578 0.7794-1.7071-1.2754-5.8324-1.3462-2.5606-2.4799-5.3346-2.5508-6.1881-0.070854-0.7824-0.42513-2.5606-0.70855-3.912-0.49599-2.2049-0.42513-2.4183 1.2045-2.4183 0.99197 0 2.9759 0.99578 4.393 2.2761 1.9131 1.7071 2.1256 2.0627 0.7794 1.4225-1.7714-0.85353-1.7714-0.85353-1.3462 2.2049 0.21256 1.7071 1.6297 5.6902 3.0468 8.7487 1.488 3.1296 2.6925 5.8324 2.6925 6.0458 0 0.14225-0.6377 0.071127-1.488-0.14225-0.85026-0.28451-1.488-0.14225-1.488 0.28451 0 1.5648-4.2513 0.7824-7.2272-1.2092z" fill="#F47920"/>
<path d="m274 29.376c-2.6925-1.3514-6.0935-5.3346-6.0935-7.1839 0-0.64015 1.0628-2.0627 2.4091-3.1296 1.3462-1.0669 3.0468-2.4895 3.897-3.1296 1.3462-1.2092 1.3462-1.2092-0.28342-2.6317-2.1257-1.6359-4.0387-1.7071-5.5975-0.21338-0.92112 0.92466-0.99197 1.5648-0.35428 2.8451 0.42513 0.92466-0.42513 0.35564-1.9131-1.2803-1.4171-1.6359-2.6216-3.2007-2.6216-3.5564s0.85026-1.138 1.8422-1.7782c2.6216-1.7071 6.3061-0.35564 9.7071 3.5564 3.5428 4.1965 3.401 5.9036-0.77941 8.8198-1.8422 1.2092-3.3302 2.7028-3.3302 3.2719 0 3.0585 5.6684 3.4852 7.1564 0.56902l0.85026-1.7782 1.6297 2.3472c1.3462 1.8493 1.488 2.5606 0.77941 3.4141-1.2045 1.4225-4.2513 1.3514-7.2981-0.14225z" fill="#F47920"/>
</g>
</g>
</g>
</g>
</g>
</svg>
