<?xml version="1.0" encoding="UTF-8"?>
<svg version="1.1" viewBox="0 0 1000 300" xmlns="http://www.w3.org/2000/svg">
<title>Goyello</title>
<desc>Created with Sketch.</desc>
<g fill="none" fill-rule="evenodd">
<g transform="translate(-140 -1268)">
<g transform="translate(140 1268)">
<rect width="1e3" height="300" fill="#fff" fill-opacity=".01"/>
<g transform="translate(104 33)">
<path transform="translate(60.635 144.79) rotate(-90) translate(-60.635 -144.79)" d="m-23.388 133.46c-0.0028906 2.3552 0.026537 2.5954 0 4.021-0.20371 10.943 1.2657 31.428 13.516 44.968 17.403 19.234 28.857 19.277 28.857 19.277s37.466 0.09975 68.854 0.09975c31.388 0 56.834-25.537 56.834-57.038s-25.445-57.038-56.834-57.038c-31.388 0-56.834 25.537-56.834 57.038v51.102" stroke="#393634" stroke-width="20.328"/>
<g transform="translate(147.62 58.5)">
<path transform="translate(66.386 56.861) rotate(180) translate(-66.386 -56.861)" d="m66.386 113.1c31.198 0 56.49-25.178 56.49-56.237s-25.291-56.237-56.49-56.237c-31.198 0-56.49 25.178-56.49 56.237s25.291 56.237 56.49 56.237z" stroke="#393634" stroke-width="20.328"/>
<path d="m65.943 121.95c34.522 0 62.836-26.456 65.602-60.113 0.14681-1.7862 0.22166-5.4167 0.22166-5.4167s-1.7908 30.877-28.713 43.942c-26.922 13.066-53.583 0-53.583 0s-30.677-11.381-30.29-43.804c0.16037-13.44 3.6058-23.293 15.172-34.662 11.566-11.369 31.692-12.39 31.692-12.39s-26.939-3.5845-45.226 9.4054c-18.287 12.99-20.394 28.664-20.7 37.508-1.25 36.175 29.47 65.53 65.824 65.53z" fill="#EE7220" fill-rule="nonzero"/>
</g>
<g transform="translate(300.96 49.725)" stroke="#393634" stroke-width="20.328">
<path transform="translate(78.779 123.63) rotate(-90) translate(-78.779 -123.63)" d="m24.07 88.652c-0.0028782 2.3434 0.026423 2.632 0 4.0503-0.20284 10.888 0.74459 32.991 12.942 46.463 17.328 19.137 37.814 18.447 37.814 18.447s16.234 0.72047 47.487 0.72047l11.195 0.26683"/>
<path transform="translate(57.008 61.908) rotate(180) translate(-57.008 -61.908)" d="m113.67 123.33v-66.016c0-31.38-25.367-56.819-56.659-56.819-31.292 0-56.659 25.439-56.659 56.819 0 31.38 0.1818 66.016 0.1818 66.016"/>
</g>
<g transform="translate(421.86 35.1)" stroke="#393634" stroke-width="20.328">
<path transform="translate(87.437 77.109) rotate(180) translate(-87.437 -77.109)" d="m129.33 35.486l-83.784 83.246"/>
<path transform="translate(80.619 80.443) rotate(225) translate(-80.619 -80.443)" d="m80.619 137c31.42 0 56.891-25.322 56.891-56.558 0-31.236-25.471-56.558-56.891-56.558-31.42 0-56.891 25.322-56.891 56.558l0.60363 10.838"/>
</g>
<path d="m637.11 0v181.35-181.35z" stroke="#393634" stroke-width="20.328"/>
<path d="m589.93 0v181.35-181.35z" stroke="#393634" stroke-width="20.328"/>
<path transform="translate(730 115.54) rotate(180) translate(-730 -115.54)" d="m730 172.58c31.757 0 57.5-25.537 57.5-57.038 0-31.501-25.744-57.038-57.5-57.038-31.757 0-57.501 25.537-57.501 57.038 0 31.501 25.744 57.038 57.501 57.038z" stroke="#393634" stroke-width="20.328"/>
</g>
</g>
</g>
</g>
</svg>
