<?xml version="1.0" encoding="UTF-8"?>
<svg version="1.1" viewBox="0 0 1000 384" xmlns="http://www.w3.org/2000/svg">
<title>Grupa.NetPG</title>
<desc>Created with Sketch.</desc>
<g fill="none" fill-rule="evenodd">
<g transform="translate(-140 -4684)">
<g transform="translate(140 4684)">
<rect width="1e3" height="300" fill="#fff" fill-opacity=".01"/>
<g transform="translate(333 10)" fill="#3B5A9A" fill-rule="nonzero">
<g transform="translate(166.77 187.21) scale(-1 1) rotate(180) translate(-166.76 -186.76)">
<path d="m163.93 354.47c-78.71-10.396-143.32-18.894-143.64-18.94-0.85849 0-0.90368-219.77-0.045184-219.73 0.31629 0 30.409-3.6613 66.872-8.0911 36.463-4.4298 66.827-8.0459 67.505-8.0459 1.4007 0 2.1688 1.4013 2.1688 4.0682 0 1.8533-1.1296 2.5765-4.2473 2.5765-1.4911 0-2.2592 0.36162-4.2925 2.1697-3.2081 2.9381-5.2413 3.1641-11.296 1.4013-7.0939-2.0793-8.9464-1.2656-6.7324 3.0285 2.0333 3.9778 7.2746 6.3283 16.131 7.1871 5.3769 0.54242 7.365 1.3109 8.5398 3.3901 0.63258 1.13 0.58739 1.3561-0.18074 2.2149-0.99405 1.0848-4.4732 1.9437-7.862 1.9437-2.3044 0-7.0939 0.76843-7.5457 1.2204-0.13555 0.1356 0.22592 1.1752 0.81331 2.3505 0.54221 1.1752 1.0392 3.0285 1.0392 4.1134-0.045184 1.7177-0.31629 2.2149-2.3947 4.249-1.3103 1.3109-2.3947 2.7573-2.3496 3.2997 0 0.72323-0.36147 0.90404-1.8074 0.90404-0.99405 0-2.214 0.27121-2.711 0.63282-0.72294 0.54242-0.76813 0.85883-0.31629 2.2601 0.67776 1.9889 4.428 5.7406 8.4946 8.4527 6.5065 4.3394 8.1783 6.6899 8.1783 11.391 0 3.3901-1.2652 7.0515-3.2984 9.5828-1.9429 2.3957-2.4399 3.8422-1.9429 5.5598 1.0392 3.6613 3.2081 6.1926 11.296 13.425 3.5695 3.2093 8.1783 7.4131 10.212 9.402l3.6599 3.5709-0.31629 2.3053-0.2711 2.2601 1.2652-0.49722c0.72294-0.27121 1.9429-0.49722 2.7562-0.49722s1.8525-0.31641 2.3044-0.72323c1.0392-0.94924 1.5814-0.63282 2.6659 1.3561 0.67776 1.2656 0.81331 2.6217 0.72294 7.8199-0.13555 5.9666-0.090368 6.5091 1.1296 9.176 1.1748 2.5765 1.22 3.1641 1.0392 7.4131-0.2711 5.2886-1.3103 8.4527-3.9762 12.295-2.3044 3.3901-4.9702 5.0626-8.4042 5.3338-2.5303 0.18081-2.8918 0.045202-5.6932-1.7177-5.5124-3.6161-18.345-7.2323-21.959-6.2378-0.90368 0.27121-2.214 1.2204-3.0273 2.2149-1.2652 1.5821-4.5184 8.4075-8.5398 18.262-0.8585 2.0341-1.9429 4.1586-2.3947 4.7462l-0.85849 1.0848-1.3555-0.99444c-0.72294-0.54242-3.0273-3.2093-5.0606-5.9214-2.0785-2.7573-8.4494-10.622-14.233-17.493-13.013-15.595-14.594-18.262-12.426-20.838 0.67776-0.76843 1.22-1.6273 1.22-1.9437 0-0.90404-2.9821-3.8874-4.6088-4.5654-0.94886-0.36161-4.7895-3.8422-8.8561-7.9103-6.5065-6.5995-10.257-9.7184-10.257-8.5431 0 0.90404 3.7955 6.2378 7.5005 10.532 2.1688 2.4861 4.6991 5.5598 5.648 6.8707l1.6718 2.3505-1.8977-1.6725c-1.0392-0.85883-4.0214-3.9778-6.642-6.8255-4.2021-4.6558-6.5065-6.8255-8.5849-8.0459-0.45184-0.27121-0.45184 0.045202 0.090368 1.3561 0.99405 2.3053 2.8466 4.9722 7.0939 9.9896 3.6147 4.2942 6.3709 8.5883 5.8287 9.1308-0.49702 0.49722-4.2925-3.4353-8.2687-8.4075-3.7503-4.6558-8.5849-9.6732-8.9916-9.2664-0.45184 0.40682 3.7051 6.8255 8.0427 12.43 6.868 8.8596 7.0487 9.1308 7.0487 11.165 0 2.6669 1.3555 3.8874 4.1117 3.5709 1.2652-0.1356 2.5303-0.63282 3.2081-1.2656 0.63258-0.58762 1.3103-0.94924 1.5814-0.76843 0.45184 0.27121 11.16 13.787 26.297 33.133 6.4161 8.2267 8.4946 11.255 8.7205 12.611 0.18074 1.2656 0.67776 2.0341 1.7622 2.7121 0.81331 0.54242 1.9881 1.8533 2.6207 2.9833 0.76813 1.4465 1.4007 1.9889 2.1688 1.9889 1.1296 0 7.9524 7.0515 27.788 28.703 4.7895 5.2434 10.935 11.617 13.646 14.193 2.6659 2.5765 5.4673 5.6502 6.145 6.8255 1.3103 2.2601 2.5755 2.9833 4.5636 2.6217 1.7622-0.36161 2.1236-2.0341 0.99405-4.6558-0.90368-2.0793-5.0606-6.5995-25.936-28.387-5.5576-5.7858-12.561-13.244-15.634-16.544l-5.5124-6.0118 0.63258-1.8081c0.72294-1.9889 0.85849-5.5598 0.2711-7.0515-0.63258-1.5369 3.7955-9.7636 7.3198-13.425l2.8918-3.0737 3.9762 2.4861c2.214 1.4013 6.9583 4.4298 10.528 6.7803l6.5065 4.249-1.7622 2.1245c-0.99405 1.1752-2.7562 2.5765-4.0214 3.1641-2.0333 0.94924-2.2592 1.1752-2.2592 2.6669 0 1.9889-0.8585 3.1641-3.8858 5.1982-3.3888 2.2601-3.9762 3.4353-3.2532 6.1022 0.99405 3.7517 3.434 9.1308 4.1117 9.1308 0.36147 0 1.1748 0.81363 1.8074 1.8533 0.90368 1.3561 1.5814 1.8985 2.8466 2.1245 0.94886 0.18081 2.0333 0.67803 2.4399 1.0848 0.58739 0.58762 1.4459 0.72323 4.1569 0.54242 6.7324-0.45202 10.528-3.6613 15.272-12.883 2.711-5.2434 2.937-5.5146 4.3377-5.5146 1.4911-0.045202 4.4732-0.99444 9.4886-3.0737 2.5755-1.0848 3.4792-1.1752 7.8168-1.0848 4.8799 0.090404 4.9702 0.090404 8.359-1.6725 5.5576-2.8929 8.2235-5.7858 11.883-12.928 2.6659-5.153 3.4792-6.3283 4.8347-7.0063 0.90368-0.45202 1.9429-1.4013 2.3496-2.1245 0.36147-0.72323 2.3496-3.1189 4.3828-5.2886 4.428-4.6558 5.6028-6.7803 7.5457-13.696 0.81331-2.8025 2.8466-8.0459 4.5636-11.617 3.2984-6.8707 3.9762-9.8088 3.2984-14.284-0.31629-2.0341-0.54221-2.2601-2.937-3.6161-2.3947-1.4013-2.6659-1.4465-4.6539-0.90404-1.7622 0.45202-2.5755 0.40682-5.0154-0.22601-1.5814-0.45202-3.2984-0.81363-3.8858-0.81363-1.1296 0-1.0844-0.90404-0.090368 9.2664l0.2711 3.0737 1.717 0.27121c5.1058 0.94924 4.5636 3.2093-2.4851 10.668-1.8525 1.9437-4.1117 4.927-5.0154 6.5543-2.9821 5.4242-11.115 13.832-12.245 12.657-0.72294-0.72323-1.5363-46.106-0.94886-52.072l0.40666-3.6161-2.3947-3.0285c-4.2925-5.3338-6.0998-8.4075-6.6872-11.12-0.2711-1.4465-0.40666-2.7573-0.22592-2.9381 0.58739-0.58762 3.931 3.6613 4.7895 6.057 0.76813 2.1697 0.94886 2.3505 3.4792 3.1189 1.4911 0.40682 3.2984 0.72323 4.0666 0.63282 1.3103-0.18081 1.4007-0.31641 2.5303-5.2886l1.22-5.1078-1.4007-2.7121c-1.1296-2.3053-1.4007-3.4805-1.6266-7.5035-0.22592-4.3394-0.36147-4.9722-1.7622-7.1419-1.4459-2.2601-1.5363-2.6669-1.5363-6.6447 0-4.5654 0.72294-7.9103 2.6207-11.662 1.0844-2.0793 1.1296-2.4861 0.72294-6.4187-0.63258-6.3283 0.49702-15.956 2.5303-20.748 0.36147-0.85883 1.5363-3.0737 2.6207-4.8366 2.1688-3.6161 2.4399-5.7858 0.99405-7.9555-0.81331-1.3109-0.8585-1.5369-0.18074-2.8025 0.36147-0.76843 2.1688-2.9381 3.9762-4.8818 2.0785-2.2601 3.434-4.2038 3.7503-5.3338l0.49702-1.7629 36.418-4.4298c20.016-2.3957 37.006-4.5202 37.729-4.6558l1.3103-0.22601v146.45 146.45l-1.0844-0.045202c-0.58739-0.045201-65.426-8.5883-144.09-18.985z"/>
<path d="m175.86 182.39c-0.81331-1.6273-2.1236-3.6613-2.8466-4.5202-0.76813-0.85883-1.5363-2.3505-1.6718-3.2545-0.18074-0.94924-1.0392-2.7573-1.8525-3.9778-3.3888-5.0174-3.6147-3.9326 1.8977-9.3116 6.5065-6.3735 8.0879-9.5376 11.522-23.234 0.54221-2.2149 1.0844-4.1586 1.22-4.3394 0.13555-0.22601 1.1748 0.090404 2.3044 0.63282 1.5363 0.76843 2.1688 1.4013 2.3947 2.3957 0.58739 2.5765-0.22592 5.0174-2.937 8.5431-2.6659 3.5257-2.7562 3.797-3.2081 7.5487-0.13555 1.2204-0.67776 3.0285-1.1748 4.023-0.72294 1.4917-0.90368 2.8025-0.90368 6.5995 0 3.3449-0.45184 6.8707-1.4459 12.114-0.76813 4.023-1.4911 7.8651-1.5814 8.5431-0.13555 0.99444-0.40666 0.72323-1.717-1.7629z"/>
<path d="m163.02 179.77c-0.90368-0.22601-2.1688-0.81363-2.8014-1.2204l-1.1748-0.76843 1.5363-1.3561 1.4911-1.3561 1.3555 2.1245c0.72294 1.13 1.717 2.3505 2.214 2.6217 0.81331 0.45202 0.81331 0.49722-0.090368 0.45202-0.49702 0-1.6718-0.22601-2.5303-0.49722z"/>
<path d="m12.561 47.191c-5.1962-1.4917-8.9916-4.701-11.341-9.6732-1.1296-2.4409-1.22-3.1641-1.22-8.5883s0.090368-6.1474 1.2652-8.6335c1.4911-3.2093 4.2021-6.0118 7.2294-7.4583 4.3828-2.1697 11.838-2.0793 16.673 0.13561l2.5755 1.1752v7.8651 7.8651h-5.6932-5.6932v-1.4013-1.4465h4.0214 4.0666v-5.4242-5.4694l-1.5814-0.85883c-2.3496-1.2657-9.8953-1.1752-12.426 0.18081-2.5755 1.4013-4.7443 3.7517-6.0546 6.5995-1.5814 3.4353-1.5814 10.803 0 14.239 1.4459 3.0737 4.0214 5.7406 7.0035 7.1419 3.1177 1.4917 8.4946 1.5821 12.426 0.22601 1.4911-0.54242 2.8014-0.94924 2.8918-0.94924 0.090368 0 0.090368 0.76843 0 1.7177-0.13555 1.5369-0.36147 1.8081-2.0333 2.3957-2.9821 1.0396-9.082 1.2204-12.109 0.36161z"/>
<path d="m316.69 47.371c-5.648-1.0848-10.799-5.1078-13.239-10.306-1.1296-2.3957-1.2652-3.2093-1.2652-8.1363 0-5.2434 0.090368-5.605 1.5814-8.6335 1.7622-3.5709 3.931-5.6954 7.5457-7.3679 4.6991-2.1697 13.6-2.2149 19.203-0.090404l2.7562 1.0396v8.95 8.95h-7.5909-7.5909v-3.0737-3.0737h3.5695 3.5695v-3.5257c0-4.0682-0.045184-4.1134-4.4732-4.0682-3.7503 0-6.642 1.3561-8.5398 4.1134-1.1748 1.6725-1.4459 2.5765-1.6266 5.6954-0.090367 2.0341 0.045184 4.5654 0.31629 5.605 0.67776 2.4409 2.9821 5.1982 5.4673 6.5091 2.6207 1.3561 8.359 1.4013 12.29 0.045202l2.711-0.94924v3.6613c0 4.1586 0.31629 3.8422-4.4732 4.701-3.2532 0.58762-7.1842 0.58762-10.212-0.045202z"/>
<path d="m161.85 47.1c-0.18074-0.13561-0.31629-8.1815-0.31629-17.764v-17.493h3.7954 3.7955v12.476 12.43l8.1783-12.43 8.1783-12.476h4.1569 4.1569l-0.090368 17.674-0.13555 17.674-3.6599 0.13561-3.7051 0.13561-0.090367-12.069-0.13555-12.114-7.8168 12.069-7.862 12.069h-4.0666c-2.214 0-4.2021-0.13561-4.3828-0.31641z"/>
<polygon points="201.88 29.652 201.88 11.843 212.55 11.843 223.21 11.843 223.21 14.917 223.21 18.036 216.57 18.036 209.92 18.036 209.92 22.284 209.92 26.579 215.62 26.579 221.31 26.579 221.31 29.652 221.31 32.726 215.62 32.726 209.92 32.726 209.92 36.749 209.92 40.817 216.11 40.817 222.26 40.817 222.26 44.117 222.26 47.462 212.05 47.462 201.88 47.462"/>
<polygon points="226.06 44.117 226.06 40.817 231.03 40.817 236.04 40.817 236.04 26.307 236.04 11.843 240.06 11.843 244.08 11.843 244.08 26.307 244.08 40.817 249.05 40.817 254.07 40.817 254.07 44.117 254.07 47.462 240.06 47.462 226.06 47.462"/>
<path d="m272.91 47.191c-0.18074-0.22601-0.36147-8.2719-0.36147-17.855v-17.493h4.0214 4.0214l0.13555 6.057 0.13555 6.057 4.5184 0.22601c5.3317 0.31641 8.1331 1.4465 10.663 4.3846 2.5303 2.9833 3.2532 7.1419 2.0785 11.526-0.67776 2.3505-3.7955 5.4694-6.3709 6.3283-2.1236 0.67803-18.299 1.3561-18.842 0.76843zm13.149-6.3735c2.7562-0.63283 4.0666-2.3505 4.0666-5.2886 0-3.1189-1.6718-4.927-4.8347-5.4242-4.428-0.63283-4.428-0.67803-4.5636 4.9722-0.090368 2.7121-0.045184 5.2434 0.090368 5.5598 0.2711 0.72323 2.5303 0.81363 5.2413 0.18081z"/>
<path d="m89.374 37.246c-1.4007-0.45202-2.8466-1.4013-3.931-2.6217l-1.717-1.8985v2.1245c0 2.1245 0 2.1697-1.6718 2.1697h-1.6266v-18.533-18.488h1.6266 1.6718v7.8651 7.8651l1.2652-1.5369c1.6718-1.9889 3.7955-2.8477 6.9131-2.8025 4.5184 0 7.862 2.3053 9.9405 6.8707 0.8585 1.8985 1.0844 3.2093 1.0844 6.8707 0 4.023-0.13555 4.8366-1.3103 7.2323-0.99405 2.0341-1.8525 3.0285-3.3436 3.8874-2.5755 1.4917-6.0546 1.8985-8.9012 0.99444zm5.4221-2.8025c0.85849-0.36161 2.1236-1.3109 2.8014-2.1697 3.6599-4.2942 2.5303-14.013-1.9429-16.996-2.2592-1.4917-5.9643-1.4465-8.1783 0-2.711 1.8533-3.7503 4.249-3.7503 8.8143 0 5.7858 1.3103 8.4075 4.9702 10.125 2.3044 1.0396 4.0214 1.0848 6.0998 0.22601z"/>
<path d="m114.63 37.472c-3.4792-0.72323-5.0154-1.8985-5.1962-3.9778l-0.13555-1.7629 1.8074 1.1752c3.7503 2.4409 8.4946 2.7573 10.483 0.63283 1.0392-1.0848 2.1688-5.1078 1.6266-5.605-0.18074-0.18081-2.1688-0.54242-4.3828-0.85883-5.6932-0.76843-7.4554-1.3109-9.3079-3.0285-2.711-2.4861-3.1177-7.0063-0.90368-10.125 1.0392-1.5369 3.6599-2.5765 6.4161-2.5313 2.8918 0 5.2413 0.99444 6.868 2.8929 0.63258 0.72323 1.2652 1.3561 1.4007 1.3561 0.13555 0 0.2711-0.85883 0.2711-1.8985 0-1.8081 0.090368-1.8985 1.4459-1.8985h1.4459l-0.13555 10.577c-0.13555 10.17-0.18074 10.577-1.2652 12.114-1.9881 2.7573-5.9191 3.8874-10.437 2.9381zm8.6301-15.007c-0.090368-4.8818-3.1629-8.2267-7.5005-8.2267-2.711 0-3.7955 0.54242-4.7895 2.4409-1.3555 2.5765 0 5.6954 2.8918 6.7803 1.1748 0.45202 8.359 1.5821 8.9916 1.4465 0.2711-0.045202 0.45184-1.1752 0.40666-2.4409z"/>
<path d="m42.021 36.433c-0.90368-0.58762-1.9881-1.8533-2.4851-2.7573l-0.85849-1.6273v2.4861 2.4861h-1.6718-1.6718v-12.611-12.566h1.6718 1.6718v7.5035c0 9.0404 0.54221 11.572 3.1629 13.877 1.5814 1.4013 1.8977 1.4917 4.0214 1.2204l2.3496-0.27121-0.13555 1.5369c-0.18074 1.4465-0.2711 1.5369-2.3044 1.6725-1.6266 0.090404-2.5755-0.13561-3.7503-0.94924z"/>
<path d="m51.962 28.568c0-9.3568 0.40666-11.933 2.214-14.284 1.4911-1.9889 3.6599-2.8929 6.8228-2.8929 2.8466 0 5.1962 0.99444 6.8228 2.9381l1.22 1.4013v-1.9437c0-1.8985 0-1.9437 1.6266-1.9437h1.6718v12.566 12.611h-1.6718-1.6266v-8.4075c0-7.5939-0.13555-8.5883-1.0392-10.487-1.3103-2.7121-3.2532-3.8874-6.3709-3.8874-2.8918-0.045202-4.2925 0.85883-5.4673 3.4805-0.76813 1.6725-0.90368 3.1641-0.90368 10.622v8.6787h-1.6718-1.6266v-8.4527z"/>
<path d="m149.2 19.12c-1.717-0.67803-2.8466-2.2601-2.8466-3.9326 0-2.8025 1.8525-4.0682 5.6028-3.8874 2.9821 0.18081 4.5184 4.5654 2.3044 6.6447-1.1296 1.0848-3.7955 1.6725-5.0606 1.1752z"/>
</g>
</g>
</g>
</g>
</g>
</svg>
