<?xml version="1.0" encoding="UTF-8"?>
<svg version="1.1" viewBox="0 0 1000 302" xmlns="http://www.w3.org/2000/svg">
<title>Krolm</title>
<desc>Created with Sketch.</desc>
<g fill="none" fill-rule="evenodd">
<g transform="translate(-140 -6098)">
<g transform="translate(140 6066)">
<rect y="33" width="1e3" height="300" fill="#fff" fill-opacity=".01"/>
<g transform="translate(344 32)" fill="#000" fill-rule="nonzero">
<g transform="translate(155.39 150.99) scale(-1 1) rotate(180) translate(-155.38 -150.88)">
<path d="m6.0326 300.62c-4.1164-2.2688-5.2519-7.1609-5.8907-25.453-1.4904-38.499 10.22-66.575 33.57-80.685 6.1746-3.7577 9.7941-4.7503 15.046-4.3958 9.1554 0.709 18.666 7.3736 23.066 16.023 1.7033 3.3323 2.2001 5.4593 2.4131 9.8551l0.21292 5.6011-5.039 2.4815c-12.136 5.9556-25.834 17.158-34.067 27.864-8.2328 10.777-14.904 24.744-18.382 38.782-2.484 9.7133-5.8197 12.762-10.93 9.926z"/>
<path d="m297.23 300.26c-1.0646-0.9217-2.484-4.4667-4.5422-11.699-3.1937-11.131-8.1618-22.404-13.556-30.7-8.9425-13.826-23.35-26.446-39.248-34.458l-4.7551-2.3397 0.4968-4.8921c1.4904-16.378 18.098-29.424 32.505-25.524 8.1618 2.1979 19.943 11.344 26.544 20.561 4.6842 6.5937 9.5812 17.371 11.781 25.949 3.6905 14.535 5.11 33.961 3.4067 45.66-0.35486 2.7651-0.92264 6.9482-1.2065 9.4297-0.35486 3.6868-0.85166 4.8212-2.9099 6.8773-2.7679 2.7651-5.9617 3.1905-8.5167 1.1344z"/>
<path d="m138.11 247.09c-19.162-1.9143-37.97-8.3662-52.945-18.08l-6.0326-3.8995 0.35486-5.3884c0.92264-16.591-11.001-31.267-27.892-34.458l-5.039-0.9217-2.1292-4.7503c-2.484-5.3884-6.5294-17.229-6.5294-19.001 0-1.1344 10.149-1.2053 117.32-1.2053 100.28 0 117.39 0.1418 117.39 1.0635 0 1.3471-4.7551 14.96-6.9553 19.994l-1.7743 3.8995-5.039 0.8508c-2.6969 0.4963-6.8843 1.7725-9.2264 2.9069-5.11 2.4815-13.343 10.564-15.614 15.244-3.2647 6.9482-4.6842 15.598-3.1228 19.639 0.63875 1.7725 0.35486 2.0561-5.039 5.672-23.066 15.244-54.365 21.837-87.722 18.434zm27.182-22.972c15.543-8.9334 17.53-10.635 17.53-15.031 0-2.6233-1.2065-5.1757-6.6714-14.676-3.6196-6.381-7.4521-12.691-8.4457-14.038-2.2711-3.0487-6.1036-4.8212-8.8715-4.1122-2.9808 0.709-26.331 14.251-28.957 16.732-1.8453 1.8434-2.2001 2.6942-2.2001 5.672 0.070972 3.1196 0.99361 5.1757 7.8069 16.803 8.0908 13.967 10.007 16.094 14.549 16.094 1.4904 0 6.6004-2.4815 15.259-7.4445z"/>
<path d="m148.19 221.92c-1.8453-1.7725-1.9162-3.545-0.35486-5.8138 1.6324-2.3397 5.8197-2.2688 7.3811 0.1418 3.1228 4.7503-3.0518 9.7133-7.0262 5.672z"/>
<path d="m142.65 212.35c-1.5614-1.7016-1.5614-4.8212-0.070972-6.381 2.7679-2.7651 7.8069-0.4963 7.8069 3.4032 0 3.8286-5.181 5.8138-7.736 2.9778z"/>
<path d="m167.28 211.42c-2.4131-1.9143-2.555-4.3958-0.28389-6.5228 2.3421-2.127 4.5422-1.9852 6.4585 0.3545 1.9872 2.5524 1.9162 3.6868-0.28389 5.8847-2.2711 2.2688-3.3357 2.2688-5.8907 0.2836z"/>
<path d="m136.98 202.56c-1.7743-1.7725-1.9162-3.545-0.35486-5.8138 1.7033-2.3397 5.8907-2.2688 7.4521 0.1418 3.1228 4.7503-3.0518 9.7133-7.0972 5.672z"/>
<path d="m161.75 202.14c-3.4776-2.4106-1.3485-8.508 2.9808-8.508 1.9162 0 4.3293 2.6942 4.3293 4.8212 0 2.1979-2.4131 4.8921-4.3293 4.8921-0.70972 0-2.0582-0.5672-2.9808-1.2053z"/>
<path d="m156.07 192.07c-1.0646-0.8508-1.9162-2.2688-1.9162-3.1905 0-1.9852 2.8389-4.8921 4.6842-4.8921 1.6324 0 4.968 3.1905 4.968 4.8212 0 1.418-3.2647 4.8212-4.6842 4.8212-0.63875 0-1.9872-0.709-3.0518-1.5598z"/>
<path d="m36.125 153.64c-0.70972-1.1344-2.7679-14.96-3.4067-23.113-0.85167-9.2879-0.42583-11.344 2.626-12.762 1.3485-0.5672 35.06-0.7799 120.23-0.7799h118.31l1.9872 1.4889c1.7743 1.418 1.9162 1.9852 1.9872 7.0191 0 5.8847-1.8453 21.27-3.0518 25.879l-0.7807 2.836h-118.81c-65.294 0-118.88-0.2836-119.09-0.5672zm22.285-9.926c2.8389-1.7725 4.968-6.381 4.3293-9.5006-0.63875-3.1905-3.2647-6.0265-6.5294-7.1609-3.6905-1.2762-6.7423-0.4963-9.7232 2.5524-1.9872 1.9852-2.2711 2.836-2.2711 6.3101 0 3.2614 0.35486 4.3958 1.8453 6.0265 3.4067 3.6159 8.2328 4.3249 12.349 1.7725zm51.1-0.1418c2.9808-2.0561 4.8971-6.6646 4.0454-9.8551-0.28389-1.1344-1.6324-3.2614-2.9808-4.6085-2.2001-2.1979-2.9808-2.4815-6.3875-2.4815s-4.1874 0.2836-6.3165 2.4815c-8.2328 8.1535 1.9872 20.845 11.639 14.464zm52.59-1.5598c7.0972-7.799-2.1292-19.214-11.568-14.322-2.9099 1.4889-4.6132 4.6794-4.6132 8.6498 0 2.6233 0.42583 3.545 2.9808 6.0974 2.9099 2.9069 3.1228 2.9778 6.8843 2.6233 3.1937-0.2836 4.1874-0.7799 6.3165-3.0487zm48.545 2.127c3.9035-1.9852 5.7487-6.5228 4.5422-10.919-0.85166-3.1905-2.626-4.8921-6.3875-6.1683-8.0908-2.836-15.401 6.6646-10.575 13.684 2.9808 4.3958 7.9489 5.7429 12.42 3.4032zm51.313-0.3545c9.0844-5.5302 3.2647-19.427-7.0972-17.087-6.5294 1.418-9.2973 8.8625-5.5358 14.676 2.555 3.8286 8.3747 4.963 12.633 2.4106z"/>
<path d="m58.055 97.771c-6.6714-6.7355-14.407-13.542-15.259-13.542-0.21292 0-0.42583 1.8434-0.42583 4.1122s-0.42583 4.8212-0.85167 5.6011c-1.7743 3.4032-7.4521 3.2614-8.5876-0.2127-0.28389-0.9217-0.4968-11.415-0.35486-23.326 0.21292-22.901 0.42583-24.248 3.8325-25.311 1.0646-0.3545 2.2711 0 3.6196 0.9217 1.8453 1.418 1.9162 1.9143 2.3421 9.8551l0.35486 8.3662 9.5812-9.0043c8.8005-8.2953 9.7941-9.0043 12.42-9.0043 3.6196 0 7.4521 3.4741 7.4521 6.7355 0 2.2688-0.85167 3.1196-10.859 10.564-6.3875 4.7503-12.278 9.6424-12.278 10.21 0 0.709 11.214 9.926 18.382 15.173 3.7615 2.7651 7.0262 5.5302 7.2392 6.1683 0.92264 2.2688-0.99361 6.8773-3.2647 8.0826-4.5422 2.3397-6.2455 1.7016-13.343-5.3884z"/>
<path d="m82.186 102.81c-1.2065-1.3471-1.2775-1.9143-0.4968-3.9704 2.3421-6.5228 3.8325-33.11 2.4131-44.313-0.56778-5.0339-0.63875-7.2318 0-7.9408 1.9872-2.4106 11.143-1.8434 12.136 0.7799 0.28389 0.5672-0.070972 3.8286-0.63875 7.2318-1.3485 7.5863-1.3485 8.7916-0.070972 8.7916 0.56778 0 4.4712-3.7577 8.6586-8.2953 6.8843-7.3736 7.8779-8.1535 9.6522-7.7281 3.1228 0.7799 5.3229 3.3323 5.11 5.8847-0.21292 1.7725-1.1356 2.836-4.4712 5.1048-2.2711 1.5598-6.4585 5.1757-9.2264 8.0826l-4.968 5.1757 7.8779 7.5863c8.2328 7.8699 9.2264 9.7133 7.0262 12.62-1.7743 2.3397-26.118 12.478-29.879 12.478-0.99361 0-2.3421-0.709-3.1228-1.4889zm19.943-13.046c1.5614-0.7799 2.8389-1.6307 2.8389-1.9852 0-0.709-8.8005-7.3027-9.7232-7.3027s-1.4904 2.9778-1.4904 7.9408v4.6794l2.7679-0.9926c1.5614-0.5672 4.0454-1.6307 5.6068-2.3397z"/>
<path d="m134.49 93.801c-7.8779-8.0826-10.149-10.777-9.7941-11.84 0.21292-0.7799 3.6196-4.3249 7.4521-7.8699 3.9035-3.545 7.0972-6.9482 7.0972-7.5154 0-0.5672-2.6969-3.8995-5.9617-7.3736-6.2455-6.5937-6.9553-8.2953-4.8261-11.344 3.2647-4.6085 5.6778-3.6868 11.71 4.5376 5.6068 7.5863 6.1746 7.9408 8.3747 5.672 0.99361-0.9926 3.5486-4.1122 5.7487-7.0191 3.2647-4.254 4.4003-5.2466 6.3165-5.3884 2.9808-0.3545 5.4649 1.9852 5.4649 5.0339 0 1.8434-1.2775 3.6159-6.4585 9.0752l-6.4585 6.8064 7.594 7.1609c4.7551 4.4667 7.523 7.6572 7.523 8.6498 0 2.2688-19.517 21.908-21.717 21.837-1.2065 0-4.8261-3.1196-12.065-10.422zm18.169-6.6646l4.8261-4.5376-2.626-2.2688c-1.4194-1.2053-3.8325-3.0487-5.3939-4.1122l-2.7679-1.8434-2.7679 1.7016c-1.4904 0.9217-3.9035 2.6942-5.2519 3.8995l-2.555 2.1979 4.6842 4.7503c2.555 2.6233 5.2519 4.7503 5.8907 4.7503 0.63875 0 3.3357-2.0561 5.9617-4.5376z"/>
<path d="m178.92 103.16l-1.7033-1.2053v-27.013c0-26.091 0.070972-27.013 1.4904-28.36 2.3421-2.127 5.4649-1.7016 8.6586 1.1344 3.6196 3.1905 7.594 4.8921 16.536 7.1609 4.1164 0.9926 7.594 2.3397 8.1618 3.0487 1.5614 2.127 1.1356 6.0265-0.92264 8.0826-2.4131 2.4106-3.6905 2.2688-10.504-0.7799-8.3037-3.8286-11.427-4.6794-12.349-3.3323-0.42583 0.6381-0.4968 8.2244-0.28389 19.71 0.56778 21.483 0.42583 22.192-4.4712 22.546-1.8453 0.1418-3.6196-0.2836-4.6132-0.9926z"/>
<path d="m220.79 102.45c-2.1292-2.127-2.2001-2.7651-0.70972-9.7133 0.78069-3.8286 1.0646-10.351 1.0646-24.957 0-18.93 0.070972-19.923 1.5614-21.199 1.8453-1.7016 5.6068-1.7725 7.2392-0.0709 0.92264 0.9217 1.3485 2.9778 1.5614 8.6498l0.28389 7.4445 4.8261 4.4667c2.626 2.4815 6.4585 5.8138 8.5166 7.4445 3.2647 2.5524 3.9744 2.836 5.3229 2.127 2.0582-1.0635 7.3101-5.2466 11.923-9.5006l3.5486-3.2614v-5.3175c0-6.1683 0.92264-10.777 2.3421-11.699 1.5614-0.9926 5.6068-0.709 6.8133 0.4963 1.4194 1.3471 1.8453 7.3736 2.3421 33.607 0.4968 23.113 0.63875 22.617-5.4649 22.617-3.9035 0-4.1164-0.1418-14.478-8.3662-4.2583-3.4032-7.736-5.6011-8.2328-5.3175-0.4968 0.2836-4.1874 2.7651-8.3037 5.4593-14.691 9.7133-16.82 10.493-20.156 7.09zm46.629-19.427c0-4.1122-0.28389-5.5302-1.0646-5.5302-1.0646 0-6.6714 3.8286-7.4521 5.1048-0.56778 0.8508 7.0262 6.8773 7.8779 6.3101 0.35486-0.1418 0.63875-2.836 0.63875-5.8847zm-30.589 2.836c2.484-1.4889 4.4712-3.0487 4.4712-3.3323 0-0.8508-8.4457-7.2318-9.5103-7.2318-0.63875 0-0.92264 1.5598-0.92264 5.4593 0 5.1048 0.42583 7.9408 1.2065 7.9408 0.14194 0 2.2711-1.2762 4.7551-2.836z"/>
<path d="m121.36 24.106c0-9.926 0.21292-14.322 0.85166-14.96 0.4968-0.4963 2.2001-0.8508 3.7615-0.8508 2.2711 0 2.8389 0.2127 2.8389 1.3471 0 0.7799-0.70972 1.5598-1.4904 1.7725-1.4194 0.4254-1.4904 1.2053-1.7033 13.329l-0.21292 12.904-2.0582 0.2836-1.9872 0.2127v-14.038z"/>
<path d="m35.628 27.084c-3.8325-3.4032-4.5422-10.493-1.7033-16.094 1.6324-3.1905 4.8971-4.0413 9.4393-2.2688 1.8453 0.709 1.5614-3.1196-0.35486-5.0339-1.5614-1.4889-3.5486-1.6307-8.0908-0.4963-0.70972 0.1418-1.2065-0.4254-1.3485-1.418-0.28389-1.6307-0.070972-1.7016 6.1036-1.7016 9.0844 0 8.8005-0.6381 9.6522 21.057 0.21292 6.5937 0.14194 7.2318-1.0646 7.2318-0.78069 0-1.5614-0.2836-1.7743-0.709-0.28389-0.3545-1.2775-0.2127-2.484 0.3545-3.1228 1.6307-5.8197 1.3471-8.3747-0.9217zm8.0198-2.6233c0.56778-0.4963 0.92264-2.9778 0.92264-5.8847 0-4.5376-0.21292-5.1757-1.8453-6.2392-1.0646-0.709-2.4131-0.9926-3.3357-0.709-3.1228 0.9217-3.9035 9.7842-1.0646 12.62 1.3485 1.3471 4.1164 1.4889 5.3229 0.2127z"/>
<path d="m105.46 27.935c-1.1356-0.6381-1.9872-0.7799-1.9872-0.3545 0 0.4254-0.85166 0.7799-1.9162 0.7799h-1.8453v-14.18-14.18l2.0582 0.2127c1.9162 0.2127 2.0582 0.4963 2.2711 4.4667l0.21292 4.254 1.9872-0.709c6.5294-2.4815 11.71 4.8212 9.8651 13.826-1.3485 6.3101-5.5358 8.6498-10.646 5.8847zm4.4712-3.1196c2.7679-1.8434 2.9099-9.9969 0.14194-12.478-1.1356-1.0635-1.9162-1.2053-3.4776-0.6381-1.9162 0.6381-2.0582 0.9926-2.2711 5.8847-0.21292 4.6085 0 5.3175 1.4194 6.5228 1.7033 1.418 2.7679 1.5598 4.1874 0.709z"/>
<path d="m136.34 28.218c-2.6969-0.5672-3.1228-0.9926-2.9808-2.3397 0.28389-1.7016 0.56778-1.7016 5.6778-0.7799 2.8389 0.5672 4.6842-0.6381 4.6842-3.1905 0-1.5598-0.35486-1.7016-3.6905-1.7016-5.11 0-7.523-2.0561-7.523-6.381 0-5.3884 4.6132-7.799 9.7232-5.1757 1.9872 0.9926 2.3421 0.9926 3.9744-0.0709 1.7033-1.0635 1.9162-1.0635 2.626 0.2127 0.42583 0.8508 0.42583 1.8434 0 2.4815-0.35486 0.5672-0.63875 3.8286-0.63875 7.1609-0.070972 7.2318-0.35486 8.1535-3.0518 9.5715-2.3421 1.2053-4.0454 1.2762-8.8005 0.2127zm7.3811-13.258c0-3.545-5.11-5.2466-6.7423-2.1979-1.3485 2.4815 0.28389 4.4667 3.7615 4.4667 2.7679 0 2.9808-0.1418 2.9808-2.2688z"/>
<path d="m161.6 27.935c-1.7033-0.7799-2.7679-0.8508-3.2647-0.3545-0.42583 0.4254-1.5614 0.7799-2.484 0.7799-1.7033 0-1.7033-0.0709-1.7033-10.068v-9.9969h2.2001 2.2711v7.0191c0 6.6646 0.070972 7.09 1.7743 8.2244 2.555 1.7016 5.11 1.1344 5.7487-1.1344 0.28389-0.9926 0.4968-4.6085 0.56778-7.9408 0.070972-4.6085 0.35486-6.1683 1.2065-6.4519 1.9162-0.7799 3.4776 0.2836 3.0518 2.0561-0.28389 0.8508-0.42583 4.6794-0.42583 8.4371 0 6.381-0.21292 7.09-1.8453 8.7916-2.1292 2.0561-3.4776 2.1979-7.0972 0.6381z"/>
<path d="m178.57 28.006c-2.4131-1.3471-3.3357-4.1831-2.4131-7.0191 0.4968-1.3471 1.9872-2.5524 5.039-4.0413 3.4067-1.6307 4.2583-2.4106 4.1164-3.6159-0.35486-2.1979-2.7679-2.836-6.2455-1.7016-2.2711 0.7799-3.0518 0.8508-3.4776 0.1418-1.0646-1.7016-0.63875-2.6233 1.7743-3.4032 3.5486-1.2762 7.3811-0.9926 10.078 0.6381 2.0582 1.2053 2.4131 1.9143 2.4131 4.254 0 3.7577-0.70972 4.6794-5.3229 6.9482-2.8389 1.2762-3.9744 2.2688-3.9744 3.3323 0 1.2762 0.4968 1.4889 4.2583 1.3471 3.2647-0.1418 4.3293 0.1418 4.6842 1.0635 0.63875 1.7725-0.4968 2.4815-4.8971 2.836-2.7679 0.2836-4.6842 0-6.0326-0.7799z"/>
<path d="m215.83 28.006c-1.1356-0.6381-2.555-2.127-3.1937-3.3323-1.4904-2.836-1.4904-9.926 0-12.691 2.4131-4.7503 9.7941-5.8138 13.627-1.9852 3.6196 3.6159 3.4776 13.4-0.21292 16.874-2.2711 2.127-7.4521 2.6942-10.22 1.1344zm7.736-4.3249c0.4968-0.9217 0.92264-3.3323 0.92264-5.3884 0-4.8921-1.2775-7.0191-4.0454-7.0191-2.9808 0-4.4712 2.3397-4.4712 7.0191s1.4904 7.09 4.4712 7.09c1.4904 0 2.484-0.5672 3.1228-1.7016z"/>
<path d="m265.79 28.006c-4.4712-2.4815-5.8907-12.62-2.4131-17.371 2.555-3.3323 9.5812-4.1122 13.343-1.3471 1.2065 0.8508 1.2775 1.2053 0.42583 2.1979-0.70972 0.8508-1.3485 0.9926-2.7679 0.4254-4.5422-1.7016-8.4457 0.1418-8.4457 3.9704 0 1.1344 0.70972 1.3471 5.9617 1.3471h5.9617l-0.070971 3.4741c0 6.8064-6.1036 10.493-11.994 7.3027zm7.594-4.6085c1.1356-2.9778 0.92264-3.1905-3.4067-3.1905-4.3293 0-4.6132 0.2836-3.2647 3.2614 1.4194 3.0487 5.5358 3.0487 6.6714-0.0709z"/>
<path d="m54.649 27.651c-0.21292-0.3545-0.070972-1.5598 0.35486-2.6233 0.42583-1.0635 0.78069-5.3175 0.78069-9.3588v-7.3736h2.2001 2.2711v6.9482c0 7.5154 0.63875 9.0043 4.4712 9.5006 1.2065 0.2127 1.9162 0.7799 2.0582 1.9143 0.21292 1.4889-0.070972 1.7016-2.2001 1.7016-1.2775 0-3.0518-0.5672-3.8325-1.2762-1.3485-1.2053-1.4194-1.2053-2.1292 0-0.78069 1.3471-3.2647 1.7016-3.9744 0.5672z"/>
<path d="m69.198 27.509c0-0.4963 1.2065-4.8921 2.6969-9.7842 2.0582-6.5937 3.1937-9.0043 4.1874-9.2879 0.92264-0.2836 1.2065-0.7799 0.85166-1.9143-0.70972-2.5524-3.3357-4.3958-5.6068-3.9704-1.8453 0.3545-2.9099-0.4254-2.9099-2.1979 0-0.2127 2.0582-0.2836 4.6132-0.1418 3.8325 0.2127 4.7551 0.4963 5.8907 2.127 1.0646 1.3471 8.1618 23.822 8.1618 25.666 0 0.2127-0.99361 0.3545-2.2001 0.3545-2.1292 0-2.2001-0.1418-4.2583-8.1535-1.2065-4.4667-2.3421-7.9408-2.555-7.6572-0.21292 0.2836-1.2065 3.4032-2.2001 6.8773-0.92264 3.4741-1.9872 6.9482-2.3421 7.6572-0.78069 1.418-4.3293 1.7725-4.3293 0.4254z"/>
<path d="m193.61 26.871c0-1.3471 0.4968-1.4889 4.8971-1.4889h4.968l-2.6969-3.545c-10.078-13.329-10.078-13.755 0.21292-13.4 6.6714 0.2127 7.1682 0.2836 7.3811 1.7725 0.21292 1.4889 0 1.5598-5.181 1.2053l-5.3229-0.4254 4.4712 5.8847c8.3037 10.99 8.2328 11.486-1.6324 11.486-6.6004 0-7.0972-0.0709-7.0972-1.4889z"/>
<path d="m231.65 27.509c0-0.9926 2.2001-10.777 3.7615-16.449 0.70972-2.6233 0.92264-2.7651 3.6196-2.7651l2.8389-0.0709 1.2775 5.8138c2.2001 10.21 2.2001 10.21 3.8325 2.0561l1.4194-7.4445 3.0518-0.2127 3.0518-0.2836 2.3421 9.3588c1.2775 5.1048 2.3421 9.6424 2.3421 10.068 0 0.4254-0.92264 0.7799-2.0582 0.7799-2.0582 0-2.1292-0.1418-3.4776-6.8773-2.0582-10.139-2.2711-10.493-3.3357-4.963-2.4131 12.478-2.2001 11.84-4.8971 11.84-2.9099 0-2.7679 0.2127-4.5422-9.0752-0.70972-4.0413-1.4904-7.1609-1.6324-6.9482-0.21292 0.1418-1.0646 3.7577-1.9162 8.0117-1.5614 7.3027-1.7033 7.6572-3.6905 7.8699-1.2775 0.1418-1.9872-0.1418-1.9872-0.709z"/>
</g>
</g>
</g>
</g>
</g>
</svg>
