<?xml version="1.0" encoding="UTF-8"?>
<svg version="1.1" viewBox="0 0 1000 300" xmlns="http://www.w3.org/2000/svg">
<title>LabeerYNT</title>
<desc>Created with Sketch.</desc>
<g fill="none" fill-rule="evenodd">
<g transform="translate(-140 -6555)">
<g transform="translate(140 6555)">
<rect width="1e3" height="300" fill="#fff" fill-opacity=".01"/>
<g transform="translate(392 16)">
<g transform="translate(108.41 134.01) scale(-1 1) rotate(180) translate(-108.4 -133.9)" fill="#492503" fill-rule="nonzero">
<path d="m90.362 266.41c-6.0461-2.1972-9.5638-5.3831-11.543-10.766-1.9787-5.0535-2.0887-5.1633-7.1454-5.1633-8.6844 0-16.929-4.7239-20.667-11.755-2.3085-4.5042-1.9787-15.929 0.65957-23.18 2.3085-6.0422 7.3652-11.975 12.422-14.501 3.5177-1.8676 3.6277-1.8676 4.0674 3.6253l0.32979 4.8338h15.94 16.05l1.3191-3.9549c0.87943-2.6366 2.6383-4.6141 5.6064-6.1521 2.6383-1.3183 5.0567-3.7352 5.9362-5.8225 1.8688-4.3943 7.0355-9.4478 11.433-11.096 11.433-4.2845 25.723 3.5155 28.252 15.49 0.7695 3.6253 1.6489 4.7239 4.3972 5.6028 4.0674 1.3183 9.344 5.9324 11.543 10.217 0.87943 1.7577 1.6489 6.1521 1.6489 9.8873 0 7.9098-2.6383 12.853-9.234 17.358-3.4078 2.307-5.1667 2.6366-11.213 2.307-5.1667-0.32958-7.2553-0.10986-7.2553 0.98873 0 0.76901-1.3191 2.9662-2.9681 4.9436-3.8475 4.5042-10.113 6.4816-15.72 4.9436-3.9574-1.0986-4.2872-0.98873-5.6064 2.0873-3.7376 9.1183-17.259 13.952-28.252 10.107z"/>
<path d="m71.344 205.76c0-0.43943-0.7695-8.1295-1.7589-17.028-0.87943-8.8985-1.6489-16.808-1.6489-17.577 0-1.0986 8.2447-1.4282 37.596-1.4282h37.706l-0.7695 4.2845c-0.32979 2.4169-0.65957 4.9436-0.65957 5.7126 0 0.98873-1.7589 1.2084-5.7163 0.76901-11.323-1.3183-18.578 2.1972-23.305 11.315-1.4291 2.8563-3.8475 5.2732-6.8156 6.7014-2.8582 1.538-4.8369 3.4056-5.2766 5.2732-0.7695 2.8563-0.7695 2.8563-15.06 2.8563-7.805 0-14.291-0.43943-14.291-0.87887z"/>
<path d="m64.089 197.75c-0.32979-0.54929-1.2092-8.569-2.0887-17.907l-1.539-17.028-2.8582 0.10986c-5.6064 0.10986-22.645 3.076-18.908 3.1859 3.078 0.10986 3.8475 0.65915 3.8475 2.6366 0 2.0873-0.54964 2.307-4.3972 1.7577-2.6383-0.43943-3.5177-0.32958-2.0887 0.21972 2.1986 0.87887-15.72 2.5267-28.582 2.5267-5.3865 0-5.6064-0.21972-3.9574-2.0873 0.98936-1.0986 2.9681-4.7239 4.2872-8.0197 1.4291-3.2958 3.4078-6.7014 4.2872-7.3605 1.4291-1.2084 1.3191-1.7577-0.98936-3.845-1.539-1.3183-4.617-5.0535-6.9255-8.3492l-4.1773-5.8225 5.2766-0.76901c2.8582-0.43943 7.695-0.65915 10.773-0.65915h5.4964l0.54964 4.2845c0.21986 2.4169 0.32979 1.3183 0.10993-2.307l-0.21986-6.4816 5.9362-1.2084c9.8936-1.9775 21.216-3.6253 37.486-5.2732 8.4645-0.98873 15.72-1.9775 16.16-2.307 0.32979-0.43943 0.10993-2.0873-0.54964-3.845-0.98936-2.8563-0.32979-11.865 1.2092-15.929 0.87943-2.307 4.8369-1.9775 6.7057 0.65915 2.3085 3.1859 4.9468 3.2958 7.805 0.10986 1.7589-2.0873 2.3085-2.307 1.8688-0.87887-0.43972 1.4282 0.21986 2.4169 2.0887 3.2958 3.4078 1.538 4.617 4.1746 2.8582 6.3718-2.1986 2.5267-5.3865 1.7577-8.0248-1.8676-2.7482-3.9549-4.5071-4.5042-4.5071-1.4282 0 2.4169-2.1986 4.8338-4.2872 4.8338-1.8688 0-1.9787-3.6253-0.21986-5.3831 0.65957-0.76901 0.87943-2.4169 0.43972-3.7352-1.539-4.8338-2.8582-2.1972-2.8582 5.3831 0 13.732-3.7376 12.414 34.957 12.414h33.858l1.2092-12.084c0.7695-6.7014 1.2092-12.304 0.98936-12.414-1.2092-1.2084-62.66-1.538-79.589-0.43943-19.128 1.3183-44.961 4.0648-49.358 5.3831-1.2092 0.32958-2.0887-0.32958-2.5284-2.0873-1.0993-4.0648-4.617-33.177-4.0674-33.727 0.21986-0.21972 9.7837-1.6479 21.106-3.076 20.667-2.5267 20.777-2.5267 24.624-6.4816 2.3085-2.1972 10.333-6.9211 18.798-10.986l14.95-7.1408v-12.414c0-10.986-0.21986-12.524-2.4184-14.611-2.7482-2.5267-8.5745-4.1746-20.777-5.9324-8.5745-1.2084-11.103-2.7465-8.9042-5.3831 1.7589-2.1972 78.599-2.1972 80.358 0 2.4184 2.8563-0.54964 4.1746-12.532 6.0422-17.589 2.6366-20.667 3.6253-21.986 7.1408-1.7589 4.7239-0.87943 24.718 1.3191 25.817 0.87943 0.43943 7.695 3.7352 14.95 7.2507 14.511 7.0309 22.096 12.194 17.808 12.194-1.4291 0-3.7376-0.87887-5.2766-1.9775-4.7269-3.7352-11.213-7.0309-22.535-11.865-9.1241-3.845-11.872-4.6141-15.5-3.9549-4.9468 0.76901-33.308 14.391-35.397 16.918-1.0993 1.4282 4.5071 1.6479 37.596 1.6479 36.167 0 55.404 1.0986 82.447 4.6141l5.4964 0.76901 0.21986 8.1295c0.21986 7.2507 0.21986 7.5802 0.65958 2.1972l0.43972-6.0422h10.883c5.9362 0 10.883 0.21972 10.883 0.43943 0 1.0986-8.4645 12.963-10.883 15.16l-2.6383 2.4169 3.2979 3.9549c1.8688 2.0873 3.2979 4.5042 3.2979 5.2732 0 0.65915 1.3191 3.1859 2.8582 5.4929l2.8582 4.1746h-18.138c-12.202 0-17.589-0.43943-16.379-1.0986 2.1986-1.538 0.87943-1.538-2.8582-0.10986-2.6383 1.0986-2.9681 0.87887-2.9681-1.7577 0-2.4169 0.54964-2.8563 4.2872-2.9662 5.6064-0.21972-6.7057-1.8676-15.39-1.9775l-5.9362-0.10986-0.7695 8.3492c-0.43972 4.5042-1.0993 10.217-1.4291 12.414l-0.65957 4.1746 9.6737 0.76901c5.3865 0.43943 12.202 1.0986 15.17 1.538l5.4964 0.65915v5.6028c0 7.5802-2.4184 29.112-3.2979 29.991-0.43972 0.43943-6.8156 0-14.071-0.76901-21.876-2.5267-58.262-3.2958-82.557-1.6479-11.982 0.76901-22.096 1.538-22.316 1.7577-0.10993 0.10986 0.54964 7.6901 1.539 16.698 0.98936 9.0084 1.7589 17.138 1.7589 18.017 0 1.6479-1.8688 2.1972-2.6383 0.76901zm-33.748-29.112c-2.0887-0.87887-2.0887-0.98873 0.65957-1.538 1.9787-0.43943 1.6489-0.54929-1.2092-0.43943-3.8475 0.21972-4.0674 0-4.7269-4.3943l-0.7695-4.6141-0.10993 5.3831c-0.10993 4.7239 0.10993 5.4929 2.4184 5.9324 4.3972 0.76901 6.266 0.65915 3.7376-0.32958zm-6.5957-19.335c-0.32979-1.7577-0.54964-0.65915-0.54964 2.5267 0 3.1859 0.21986 4.6141 0.43972 3.1859 0.32979-1.4282 0.32979-3.9549 0.10993-5.7126zm66.727 3.9549c-0.32979-1.9775-0.87943-7.2507-1.3191-11.645l-0.65957-7.9098 7.5851 0.43943c6.156 0.43943 7.5851 0.21972 7.0355-1.0986-0.32979-0.87887-0.54964-2.307-0.54964-3.1859 0-1.8676-8.1347-2.1972-17.699-0.87887-4.617 0.54929-5.1667 0.98873-4.2872 2.6366 0.54964 1.0986 1.2092 7.2507 1.3191 13.732l0.32979 11.755h4.3972c4.3972 0 4.3972-0.10986 3.8475-3.845zm35.837 0.87887c-0.65957-1.6479 5.8262-18.237 9.1241-23.29 2.3085-3.5155 2.1986-3.7352-2.3085-3.7352-3.4078 0-4.2872 0.54929-6.156 4.1746l-2.1986 4.1746-2.6383-2.6366c-2.3085-2.307-2.7482-2.4169-3.6277-0.76901-1.8688 3.2958-4.3972 2.307-4.3972-1.6479 0-2.8563-0.43972-3.4056-1.8688-2.8563-0.98936 0.32958-2.8582 0.65915-4.0674 0.65915-1.7589 0-1.9787 0.43943-1.0993 1.9775 1.9787 3.4056 9.344 22.631 9.344 24.169 0 1.0986 1.6489 1.538 5.2766 1.538 4.1773 0 5.1667-0.32958 4.617-1.7577zm-23.965-43.394c-0.54964-3.1859-3.2979-4.2845-3.2979-1.3183 0 2.4169 0.87943 3.845 2.5284 3.845 0.65957 0 0.87943-1.2084 0.7695-2.5267zm90.911-16.589v-9.2281l-0.43972 8.3492c-0.32979 8.1295-0.43972 8.4591-3.2979 8.4591-1.7589 0-2.6383 0.43943-2.0886 1.2084 0.32979 0.65915 1.8688 0.98873 3.1879 0.76901 2.3085-0.32958 2.5284-0.98873 2.6383-9.5577zm-117.62-2.7465c-0.32979-1.2084 0.21986-3.4056 1.0993-4.7239 1.7589-2.307 1.8688-2.4169 4.0674-0.43943 1.2092 1.2084 1.9787 2.9662 1.6489 4.1746-0.43972 1.7577 0.32979 2.0873 4.7269 2.0873h5.2766l-2.0887-2.6366c-1.2092-1.4282-3.7376-4.2845-5.7163-6.3718-3.078-3.4056-3.5177-4.7239-3.5177-10.766v-6.8112h-4.9468c-4.5071 0-4.8369 0.21972-3.7376 2.1972 0.65957 1.2084 1.2092 4.5042 1.2092 7.3605 0 4.0648-0.87943 6.3718-4.7269 11.645l-4.617 6.4816h5.9362c5.3865 0 5.9362-0.21972 5.3865-2.1972zm74.642 0.32958c1.539-3.845 0.7695-4.5042-4.0674-4.0648l-4.7269 0.43943 0.87943-9.1183c0.32979-4.9436 0.98936-9.9971 1.3191-11.096 0.43972-1.6479-0.21986-1.9775-4.1773-1.9775h-4.617v10.986c0 6.0422-0.43972 10.986-0.87943 10.986-0.54964 0-2.6383-0.54929-4.7269-1.0986-3.7376-1.0986-3.8475-0.98873-3.5177 1.9775 0.43972 2.9662 0.7695 3.1859 7.9149 3.7352 14.071 1.3183 15.83 1.2084 16.599-0.76901zm-42.433-6.4816c2.9681-3.9549 5.9362-7.6901 6.4858-8.3492 0.65957-0.76901 0.98936 1.9775 0.65957 7.1408l-0.43972 8.4591h3.9574c3.078 0 3.7376-0.43943 3.1879-1.8676-0.43972-0.98873-0.65957-7.2507-0.65957-13.842v-11.975h-3.5177c-2.8582 0-4.3972 1.2084-9.344 7.6901l-5.9362 7.8 0.43972-7.8 0.54964-7.6901h-3.6277-3.5177l0.43972 11.535c0.32979 7.6901 0 12.084-0.7695 12.963-2.1986 2.1972-1.4291 3.1859 2.6383 3.1859 3.5177 0 4.617-0.87887 9.4539-7.2507z"/>
<path d="m118.72 144.13c-2.3085-4.7239-0.43972-8.0197 3.1879-5.7126 1.2092 0.76901 1.2092 1.6479-0.10993 4.9436l-1.6489 3.845-1.4291-3.076z"/>
<path d="m146.87 184.78c-1.6489-1.7577 0.7695-22.191 2.7482-22.851 1.3191-0.43943 1.4291 0.98873 0.7695 7.3605-1.4291 13.403-2.1986 16.808-3.5177 15.49z"/>
<path d="m55.844 120.4c-1.539-11.096-1.9787-19.884-0.87943-19.884 1.7589 0 2.3085 2.1972 3.1879 13.622 0.54964 7.1408 0.43972 10.656-0.43972 10.656-0.65957 0-1.4291-1.9775-1.8688-4.3943z"/>
<path d="m113.34 113.48c-2.8582-1.9775-3.7376-5.3831-2.0886-8.569 2.3085-4.3943 5.8262-5.1633 9.8936-2.1972 2.6383 1.9775 3.2979 2.1972 3.2979 0.76901 0-0.98873 0.54964-1.7577 1.2092-1.7577 0.54964 0 1.0993 1.7577 1.0993 3.9549s0.87943 4.8338 1.9787 5.9324c1.9787 1.9775 2.0886 1.8676 2.4184-0.54929 0.21986-1.7577 1.2092-2.4169 3.078-2.4169 1.539 0 3.078 0.43943 3.5177 1.0986 0.32979 0.65915-0.10993 0.87887-1.2092 0.43943-1.2092-0.54929-2.0886 0-2.5284 1.7577-0.65957 2.6366-2.1986 3.076-4.9468 1.3183-1.0993-0.76901-1.9787-0.65915-2.5284 0.21972-1.2092 1.9775-1.8688 0.87887-2.3085-3.6253-0.54964-4.5042-5.3865-9.0084-8.3546-7.8-2.6383 0.98873-2.1986 3.5155 0.7695 4.8338 3.4078 1.538 3.6277 6.8112 0.32979 7.1408-1.3191 0.21972-2.8582 0-3.6277-0.54929zm4.1773-4.2845c-0.7695-0.98873-1.8688-1.7577-2.4184-1.7577-1.539 0-1.3191 2.7465 0.32979 4.3943 2.0887 2.0873 3.9574-0.32958 2.0887-2.6366z"/>
<path d="m98.331 113.48c-2.8582-1.9775-3.7376-5.3831-2.0887-8.569 2.3085-4.3943 5.8262-5.1633 9.8936-2.1972 2.6383 1.9775 3.5312 2.7217 4.8731 3.4173 0.78348 0.40616 0 5.1222 0 4.9436-0.54964-4.5042-7.1816-10.229-10.15-9.0201-2.6383 0.98873-2.1986 3.5155 0.7695 4.8338 3.4078 1.538 3.6277 6.8112 0.32979 7.1408-1.3191 0.21972-2.8582 0-3.6277-0.54929zm4.0053-3.8609c-0.7695-0.98873-1.8688-1.7577-2.4184-1.7577-1.539 0-1.3191 2.7465 0.32979 4.3943 2.0886 2.0873 3.9574-0.32958 2.0886-2.6366z"/>
</g>
<path d="m85.204 145.68c0.057389 1.2207-0.054299 2.1662-0.33506 2.8366-0.46109 1.1009-2.3042 2.4843-4.958 4.5118-0.45605 0.42339-0.61592 0.76655-0.47961 1.0295" stroke="#492503" stroke-linecap="round" stroke-linejoin="round" stroke-width="1.1583"/>
<path d="m180.67 162.23c2.2964 0.7702 3.9576 1.3906 4.9837 1.8613 2.7776 1.274 1.4407 0.9493 2.2421 1.274 1.2283 0.49773 2.4187-0.093508 2.7712 0 0.27062 0.071792-4.8143-0.97193-3.5334-0.75027 1.6511 0.28573 3.4074 0.53582 5.2687 0.75027 0.39273 5.1363 0.74822 9.1998 1.0665 12.191 0.31826 2.9909 0.56009 9.3332 0.72547 19.027" stroke="#fff" stroke-linecap="round" stroke-linejoin="round" stroke-width="1.1583"/>
<path transform="translate(31.37 114.18) scale(-1 1) translate(-31.37 -114.18)" d="m26.13 97.088c5.6386 1.1571 8.9709 1.971 9.997 2.4416 2.7776 1.274-14.849 2.4009-14.039 2.6448 1.1288 0.33999 13.686-2.0446 14.039-1.9511 0.27062 0.071793-2.5336-0.91536-1.2527-0.6937 1.6511 0.28573 2.6471 0.51696 2.9879 0.6937 0.39346 5.5405 0.74933 9.8061 1.0676 12.797 0.31826 2.9909 0.90092 9.0767 1.748 18.257" stroke="#fff" stroke-linecap="round" stroke-linejoin="round" stroke-width="1.1583"/>
</g>
</g>
</g>
</g>
</svg>
