<?xml version="1.0" encoding="UTF-8"?>
<svg version="1.1" viewBox="0 0 1000 300" xmlns="http://www.w3.org/2000/svg">
<title>Lider</title>
<desc>Created with Sketch.</desc>
<g fill="none" fill-rule="evenodd">
<g transform="translate(-140 -34)">
<g transform="translate(140 34)">
<rect width="1e3" height="300" fill="#fff" fill-opacity=".01"/>
<g transform="translate(243 44)">
<path d="m1.4398 139.45l0.050674-139.45h17.25s8.193e-4 8.8773 0.0012289 13.316l0.011641 126.14c0 5.9169 1.6377 9.4981 4.9132 10.744 2.4956 0.93424 5.6931 1.4014 9.5925 1.4014h71.593v17.283h-71.593c-8.8907 0-16.065-1.557-21.525-4.6712-6.863-3.8927-10.294-12.145-10.294-24.757zm174.74-9.9263c-1.1698-6.7733-1.7547-14.403-1.7547-22.889 0-8.486 0.50692-16.116 1.5208-22.889 1.0138-6.7733 2.8465-13.43 5.4981-19.969 5.7711-13.858 17.079-20.787 33.925-20.787 5.7711 0 13.102 0.85638 21.993 2.5692s16.845 3.9705 23.864 6.7732l-0.10168-52.335h17.183l-0.001596 168.88h-12.4l-4.6793-13.78c-3.8994 2.8027-10.723 6.0336-20.472 9.6927-9.7485 3.6591-18.444 5.4886-26.087 5.4886-7.6428 0-14.272-1.8685-19.887-5.6054-5.6152-3.737-9.8265-8.8363-12.634-15.298-2.8076-6.4618-4.7962-13.079-5.9661-19.853zm15.559-22.071c0 30.363 7.8767 45.544 23.63 45.544 12.946 0 28.232-3.5812 45.857-10.744v-75.907c-15.598-4.0484-30.883-6.0725-45.857-6.0725-8.1108 0-14.077 3.3477-17.898 10.043-3.8214 6.6954-5.7321 19.074-5.7321 37.136zm114.1-1.1678c0-13.702 0.93584-24.718 2.8076-33.049 1.8717-8.3303 5.2642-14.636 10.177-18.918s10.372-7.0846 16.377-8.4081c6.0051-1.3235 13.804-1.9853 23.396-1.9853s16.806 0.38926 21.642 1.1678c4.8353 0.77853 9.5925 2.5691 14.272 5.3719 4.6793 2.8027 8.0327 7.2403 10.06 13.313 2.0277 6.0726 3.0415 14.091 3.0415 24.057 0 18.996-10.684 28.494-32.053 28.494h-52.408c0 14.481 1.6377 24.173 4.9132 29.078 3.2755 4.9048 9.5145 7.3571 18.717 7.3571 28.388 0 47.884-0.77852 58.491-2.3356v13.079c-15.442 4.3598-34.938 6.5397-58.491 6.5397-15.754 0-26.516-4.5154-32.287-13.546-5.7711-9.031-8.6567-25.769-8.6567-50.215zm17.313-7.0068h52.408c9.8265 0 14.74-3.8148 14.74-11.444 0-11.989-1.7547-19.424-5.2642-22.305-3.5095-2.8806-11.737-4.3208-24.683-4.3208-16.066 0-25.658 1.6349-28.778 4.9047-4.3673 4.6712-6.8629 9.8095-7.4868 15.415-0.62391 5.6055-0.93585 11.522-0.93585 17.751zm109.66 69.601v-124.02h12.166l5.1472 15.648c11.854-7.1625 19.341-11.25 22.461-12.262s5.9271-1.9074 8.4227-2.6859c4.6793-1.4014 10.684-2.102 18.015-2.102 7.3309 0 12.244 0.62282 14.74 1.8685v17.05c-3.7434-0.93424-9.0466-1.4014-15.91-1.4014-6.863 0-12.985 0.62282-18.366 1.8685-5.3812 1.2457-9.6705 2.5691-12.868 3.9705s-8.6956 3.9705-16.494 7.7075v94.358h-17.313z" fill="#0E1C39"/>
<path transform="translate(139.13 84.769) scale(1 -1) translate(-139.13 -84.769)" d="m150.47 5.5252v12.612c0 3.8927-1.8717 5.839-5.6151 5.839h-11.698c-3.5875 0-5.3812-1.9463-5.3812-5.839v-12.612c0-3.5813 1.7937-5.3719 5.3812-5.3719h11.698c3.7434 0 5.6151 1.7906 5.6151 5.3719zm-2.6544 40.052l1.4264 123.81h-20.579l1.2968-123.81h17.856z" fill="#E21430"/>
<g transform="translate(0 181.46)">
<path d="m1.8429 22.997v-16.834h1.7047v7.5429h1.889l5.2984-7.5429h2.0733l-5.8052 8.3938 5.8052 8.4398h-2.0733l-5.2984-7.5889h-1.8659v7.5889h-1.7277zm24.634-1.2418c-0.78324-0.90454-1.1749-2.5296-1.1749-4.8753 0-2.3457 0.39162-3.9669 1.1749-4.8638s2.1961-1.3453 4.2387-1.3453 3.4478 0.45609 4.2157 1.3683c0.76788 0.9122 1.1518 2.5488 1.1518 4.9098s-0.38394 3.9784-1.1518 4.8523c-0.76788 0.87388-2.1731 1.3108-4.2157 1.3108s-3.4555-0.45226-4.2387-1.3568zm0.67957-6.8645c-0.099825 0.57492-0.14974 1.33-0.14974 2.2652 0 0.9352 0.072948 1.7017 0.21885 2.2997 0.1459 0.59791 0.3993 1.0348 0.7602 1.3108 0.36091 0.27596 0.72948 0.45227 1.1057 0.52892 0.37626 0.076656 0.91377 0.11498 1.6125 0.11498 0.69877 0 1.244-0.038327 1.6356-0.11498 0.39162-0.076656 0.7602-0.25679 1.1057-0.54042 0.34555-0.28363 0.58743-0.72056 0.72565-1.3108 0.13822-0.59025 0.20733-1.4066 0.20733-2.4491s-0.05759-1.8781-0.17277-2.5066c-0.11518-0.62858-0.34171-1.1-0.67957-1.4143s-0.70261-0.50976-1.0942-0.58641c-0.39162-0.076656-0.92529-0.11498-1.601-0.11498s-1.1825 0.022996-1.5204 0.06899c-0.33787 0.045994-0.67573 0.15331-1.0136 0.32195-0.33787 0.16864-0.58743 0.4216-0.74868 0.75889s-0.29179 0.79338-0.39162 1.3683zm22.291 3.7599v-13.66h1.7047v13.66c0 0.9352 0.1075 1.5829 0.32251 1.9432s0.54519 0.59408 0.99057 0.7014c1.2593 0.32195 1.9427 0.48293 2.0502 0.48293v1.2188h-2.0272c-2.0272 0-3.0408-1.4488-3.0408-4.3464zm18.362 3.1045c-0.78324-0.90454-1.1749-2.5296-1.1749-4.8753 0-2.3457 0.39162-3.9669 1.1749-4.8638s2.1961-1.3453 4.2387-1.3453 3.4478 0.45609 4.2157 1.3683c0.76788 0.9122 1.1518 2.5488 1.1518 4.9098s-0.38394 3.9784-1.1518 4.8523c-0.76788 0.87388-2.1731 1.3108-4.2157 1.3108s-3.4555-0.45226-4.2387-1.3568zm0.67957-6.8645c-0.099825 0.57492-0.14974 1.33-0.14974 2.2652 0 0.9352 0.072948 1.7017 0.21885 2.2997s0.3993 1.0348 0.7602 1.3108c0.36091 0.27596 0.72948 0.45227 1.1057 0.52892 0.37626 0.076656 0.91377 0.11498 1.6125 0.11498s1.244-0.038327 1.6356-0.11498c0.39162-0.076656 0.7602-0.25679 1.1057-0.54042 0.34555-0.28363 0.58743-0.72056 0.72565-1.3108s0.20733-1.4066 0.20733-2.4491-0.05759-1.8781-0.17277-2.5066c-0.11518-0.62858-0.34171-1.1-0.67957-1.4143s-0.70261-0.50976-1.0942-0.58641c-0.39162-0.076656-0.92529-0.11498-1.601-0.11498s-1.1825 0.022996-1.5204 0.06899c-0.33787 0.045994-0.67573 0.15331-1.0136 0.32195-0.33787 0.16864-0.58743 0.4216-0.74868 0.75889s-0.29179 0.79338-0.39162 1.3683z" fill="#0E1C39"/>
<path d="m53.632 11.498l-5.2192 2.3356" stroke="#0E1C39" stroke-linecap="square" stroke-width="1.44"/>
</g>
<path d="m106.59 204.45v-16.834h1.7508l8.9842 13.66v-13.66h1.7047v16.834h-1.7047l-9.0072-13.66v13.66h-1.7277zm25.606-11.751c1.6586-0.45993 3.6705-0.6899 6.0355-0.6899 0.99825 0 1.8237 0.29129 2.4764 0.87387 0.6527 0.58258 0.97905 1.4718 0.97905 2.6676v8.8997h-1.267l-0.43769-1.4718-0.34555 0.16098c-1.9965 0.96586-3.586 1.4488-4.7685 1.4488-0.87539 0-1.6049-0.26829-2.1885-0.80488-0.58359-0.53659-0.87538-1.2801-0.87538-2.2307v-1.4028c0-0.9352 0.2726-1.6788 0.81779-2.2307s1.2939-0.82788 2.246-0.82788h5.1141c0.015357-0.50593 0.023036-0.88537 0.023036-1.1383s-0.007679-0.38711-0.023036-0.40244c0-1.2572-0.66037-1.8857-1.9811-1.8857s-3.2558 0.091986-5.8052 0.27596v-1.2418zm1.3131 8.7387c0 0.96586 0.45304 1.4488 1.3591 1.4488 0.55288 0 1.2555-0.099651 2.1078-0.29896 0.85235-0.1993 1.5703-0.39094 2.1539-0.57492l0.85235-0.29896v-3.2885l-5.1141 0.36795c-0.46073 0.045994-0.80243 0.20697-1.0251 0.48293s-0.33403 0.61324-0.33403 1.0119v1.1498zm20.952-0.6899v-8.5087h1.7047v8.5087c0 0.72056 0.19197 1.2686 0.57591 1.6443s0.87538 0.56342 1.4743 0.56342c0.59895 0 1.1595-0.061324 1.6817-0.18397 0.52216-0.12265 0.94065-0.24913 1.2555-0.37944 0.31483-0.13032 0.8485-0.37944 1.601-0.74739v-9.4056h1.7047v12.211h-1.1979l-0.5068-1.4258c-0.046073 0.015332-0.215 0.11115-0.5068 0.28746s-0.47225 0.27979-0.54136 0.31045c-0.069109 0.030663-0.2342 0.11882-0.49528 0.26446-0.26108 0.14565-0.44537 0.2338-0.55287 0.26446-0.1075 0.030663-0.28412 0.091986-0.52984 0.18397s-0.44537 0.15331-0.59895 0.18397c-0.49145 0.091987-0.92146 0.13798-1.29 0.13798-1.1672 0-2.0886-0.38327-2.7644-1.1498-0.67574-0.76656-1.0136-1.6864-1.0136-2.7596zm23.233 3.7025v-17.983h1.7047v10.119h0.92146l4.6764-4.3464h2.3728l-5.4366 5.1972 5.4366 7.014h-2.1194l-4.9298-6.1631h-0.92146v6.1631h-1.7047zm22.242-1.2418c-0.78324-0.90454-1.1749-2.5296-1.1749-4.8753s0.39162-3.9669 1.1749-4.8638 2.1961-1.3453 4.2387-1.3453c2.0426 0 3.4478 0.4561 4.2157 1.3683 0.76788 0.9122 1.1518 2.5488 1.1518 4.9098s-0.38394 3.9784-1.1518 4.8523c-0.76788 0.87388-2.1731 1.3108-4.2157 1.3108-2.0426 0-3.4555-0.45226-4.2387-1.3568zm0.67957-6.8645c-0.099824 0.57492-0.14974 1.33-0.14974 2.2652s0.072948 1.7017 0.21885 2.2997 0.3993 1.0348 0.7602 1.3108c0.36091 0.27596 0.72948 0.45227 1.1057 0.52892 0.37626 0.076656 0.91378 0.11498 1.6125 0.11498 0.69878 0 1.244-0.038327 1.6356-0.11498s0.7602-0.25679 1.1057-0.54042 0.58743-0.72056 0.72565-1.3108 0.20733-1.4066 0.20733-2.4491-0.05759-1.8781-0.17277-2.5066c-0.11518-0.62858-0.3417-1.1-0.67957-1.4143s-0.70261-0.50976-1.0942-0.58641c-0.39162-0.076655-0.92529-0.11498-1.601-0.11498-0.67574 0-1.1825 0.022997-1.5204 0.06899-0.33787 0.045994-0.67573 0.15331-1.0136 0.32195-0.33787 0.16864-0.58743 0.4216-0.74868 0.75889-0.16126 0.33728-0.2918 0.79338-0.39162 1.3683zm20.319-4.1049h1.866l3.6167 9.7046 3.179-9.7046h1.8429l-1.244 3.9094 2.6722 5.7951 3.7319-9.7046h1.866l-4.6764 12.211h-1.7047l-2.7183-5.9791-2.0042 5.9791h-1.8429l-4.5842-12.211zm29.153 6.0481c0-1.3491 0.092144-2.4338 0.27644-3.254 0.18429-0.82022 0.51832-1.4411 1.0021-1.8627s1.0213-0.69756 1.6125-0.82788 1.3591-0.19547 2.3036-0.19547 1.6548 0.038327 2.1309 0.11498c0.47609 0.076656 0.94449 0.25296 1.4052 0.52892 0.46073 0.27596 0.79092 0.71289 0.99057 1.3108s0.29947 1.3875 0.29947 2.3687c0 1.8704-1.052 2.8056-3.156 2.8056h-5.1602c0 1.4258 0.16125 2.3801 0.48376 2.8631s0.93681 0.72439 1.8429 0.72439c2.7951 0 4.7148-0.076654 5.7591-0.22997v1.2878c-1.5204 0.42927-3.4401 0.6439-5.7591 0.6439-1.5511 0-2.6108-0.4446-3.179-1.3338s-0.85235-2.5373-0.85235-4.9443zm1.7047-0.6899h5.1602c0.96753 0 1.4513-0.37561 1.4513-1.1268 0-1.1805-0.17277-1.9126-0.51832-2.1962-0.34555-0.28363-1.1557-0.42544-2.4303-0.42544-1.5818 0-2.5263 0.16098-2.8335 0.48293-0.43002 0.45993-0.67573 0.96586-0.73716 1.5178s-0.092146 1.1345-0.092146 1.7477z" fill="#0E1C39"/>
<path d="m289.8 204.45v-16.834h1.7047v16.834h-1.7047zm14.94 0v-12.211h1.1979l0.5068 1.4258c0.046073-0.015331 0.215-0.11115 0.5068-0.28746 0.2918-0.17631 0.47225-0.27979 0.54136-0.31045 0.069109-0.030662 0.2342-0.11882 0.49528-0.26446 0.26108-0.14565 0.44537-0.2338 0.55287-0.26446 0.1075-0.030662 0.28412-0.091986 0.52984-0.18397s0.44537-0.15331 0.59895-0.18397c0.49145-0.091986 0.92145-0.13798 1.29-0.13798 1.1672 0 2.0886 0.38327 2.7644 1.1498 0.67574 0.76656 1.0136 1.6864 1.0136 2.7596v8.5087h-1.7047v-8.5087c0-0.72056-0.19197-1.2686-0.57591-1.6443s-0.87538-0.56342-1.4743-0.56342c-0.59895 0-1.1595 0.061324-1.6817 0.18397s-0.94065 0.24913-1.2555 0.37944c-0.31483 0.13032-0.8485 0.37944-1.601 0.74739v9.4056h-1.7047zm21.851-10.509v-1.3108l2.2345-0.39094v-2.2767c0-1.2418 0.215-2.1463 0.64502-2.7136 0.18429-0.22997 0.46457-0.4331 0.84083-0.60941 0.37626-0.17631 0.93297-0.26446 1.6701-0.26446s1.7047 0.18397 2.9026 0.55192v1.1268l-2.8335-0.022996c-0.70645 0-1.1441 0.18397-1.3131 0.55192-0.13822 0.32195-0.20733 0.78188-0.20733 1.3798v2.2767h3.4094v1.7017h-3.4094v10.509h-1.7047v-10.509h-2.2345zm20.86 9.2676c-0.78324-0.90454-1.1749-2.5296-1.1749-4.8753s0.39162-3.9669 1.1749-4.8638 2.1961-1.3453 4.2387-1.3453c2.0426 0 3.4478 0.4561 4.2157 1.3683 0.76788 0.9122 1.1518 2.5488 1.1518 4.9098s-0.38394 3.9784-1.1518 4.8523c-0.76788 0.87388-2.1731 1.3108-4.2157 1.3108-2.0426 0-3.4555-0.45226-4.2387-1.3568zm0.67957-6.8645c-0.099825 0.57492-0.14974 1.33-0.14974 2.2652s0.072948 1.7017 0.21885 2.2997 0.3993 1.0348 0.7602 1.3108c0.3609 0.27596 0.72948 0.45227 1.1057 0.52892 0.37626 0.076656 0.91377 0.11498 1.6125 0.11498 0.69877 0 1.244-0.038327 1.6356-0.11498s0.7602-0.25679 1.1057-0.54042 0.58743-0.72056 0.72565-1.3108 0.20733-1.4066 0.20733-2.4491-0.057591-1.8781-0.17277-2.5066c-0.11518-0.62858-0.34171-1.1-0.67958-1.4143s-0.70261-0.50976-1.0942-0.58641c-0.39162-0.076655-0.92529-0.11498-1.601-0.11498s-1.1825 0.022997-1.5204 0.06899c-0.33787 0.045994-0.67573 0.15331-1.0136 0.32195-0.33787 0.16864-0.58743 0.4216-0.74868 0.75889s-0.29179 0.79338-0.39162 1.3683zm21.931 8.1063v-12.211h1.1979l0.5068 1.5408c1.1672-0.70523 1.9043-1.1077 2.2115-1.2073 0.30715-0.099652 0.58359-0.1878 0.82931-0.26446 0.46073-0.13798 1.052-0.20697 1.7738-0.20697 0.72181 0 1.2056 0.061323 1.4513 0.18397v1.6788c-0.36858-0.091987-0.89074-0.13798-1.5665-0.13798-0.67574 0-1.2785 0.061324-1.8084 0.18397s-0.95217 0.25296-1.267 0.39094c-0.31483 0.13798-0.85618 0.39094-1.6241 0.75889v9.2906h-1.7047zm20.284 0v-12.211h1.1979l0.5068 1.4718c0.092146-0.061324 0.28028-0.17247 0.56439-0.33345 0.28412-0.16098 0.48376-0.27596 0.59895-0.34495 0.11518-0.06899 0.29947-0.16481 0.55287-0.28746s0.46457-0.20697 0.6335-0.25296l0.57591-0.20697c0.36858-0.12265 0.89074-0.18397 1.5665-0.18397s1.3208 0.16097 1.9351 0.48293c0.61431 0.32196 1.052 0.75889 1.3131 1.3108 1.4436-1.1958 3.0869-1.7937 4.9298-1.7937 1.075 0 1.9734 0.36794 2.6953 1.1038 0.72181 0.7359 1.0827 1.6787 1.0827 2.8286v8.4168h-1.7047v-8.4168c0-0.67457-0.19581-1.215-0.58743-1.6213-0.39162-0.40628-0.8869-0.60941-1.4858-0.60941-0.92146 0-1.7162 0.091985-2.3843 0.27596s-1.3783 0.52125-2.1309 1.0119v9.3596h-1.7047v-8.4168c0-0.67457-0.19581-1.215-0.58743-1.6213-0.39162-0.40628-0.88306-0.60941-1.4743-0.60941s-1.1365 0.061323-1.6356 0.18397c-0.49912 0.12265-0.8869 0.24146-1.1633 0.35645-0.27644 0.11498-0.80627 0.36411-1.5895 0.74739v9.3596h-1.7047zm31.088-11.751c1.6586-0.45993 3.6705-0.6899 6.0355-0.6899 0.99825 0 1.8237 0.29129 2.4764 0.87387 0.6527 0.58258 0.97905 1.4718 0.97905 2.6676v8.8997h-1.267l-0.43769-1.4718-0.34555 0.16098c-1.9965 0.96586-3.586 1.4488-4.7685 1.4488-0.87539 0-1.6049-0.26829-2.1885-0.80488-0.58359-0.53659-0.87538-1.2801-0.87538-2.2307v-1.4028c0-0.9352 0.2726-1.6788 0.81779-2.2307 0.5452-0.55192 1.2939-0.82788 2.2461-0.82788h5.1141c0.015358-0.50593 0.023036-0.88537 0.023036-1.1383s-0.007678-0.38711-0.023036-0.40244c0-1.2572-0.66037-1.8857-1.9811-1.8857s-3.2558 0.091986-5.8052 0.27596v-1.2418zm1.3131 8.7387c0 0.96586 0.45304 1.4488 1.3591 1.4488 0.55288 0 1.2555-0.099651 2.1078-0.29896 0.85235-0.1993 1.5703-0.39094 2.1539-0.57492l0.85235-0.29896v-3.2885l-5.1141 0.36795c-0.46073 0.045994-0.80243 0.20697-1.0251 0.48293-0.22269 0.27596-0.33403 0.61324-0.33403 1.0119v1.1498zm20.261-7.5199v-1.2878l2.2806-0.41394 0.41466-3.4035h1.29v3.4035h3.5706v1.7017h-3.5706v6.1631c0 0.9352 0.1075 1.5829 0.32251 1.9432 0.21501 0.36028 0.54519 0.59408 0.99057 0.7014 1.2593 0.32195 1.9427 0.48293 2.0502 0.48293v1.2188h-2.0272c-2.0272 0-3.0408-1.4488-3.0408-4.3464v-6.1631h-2.2806zm19.202-1.6788h1.866l2.9717 9.5436c0.1075 0.30662 0.21117 0.50592 0.31099 0.59791s0.18813 0.16481 0.26492 0.21847c0.076788 0.053659 0.15358 0.088154 0.23036 0.10348s0.14974 0.026829 0.21885 0.034495c0.069109 0.007665 0.13438 0.011498 0.19581 0.011498 0.13822-0.030662 0.23804-0.053659 0.29947-0.06899l3.5015-10.44h1.912l-5.3905 16.075-1.7277 2.3457h-1.0597l2.1654-6.2091c-1.3208 0-2.2422-0.8432-2.7644-2.5296l-2.9947-9.6816zm24.131 12.211v-17.983h1.7047v10.119h0.92146l4.6764-4.3464h2.3728l-5.4366 5.1972 5.4366 7.014h-2.1194l-4.9298-6.1631h-0.92146v6.1631h-1.7047zm21.759-14.189v-1.2418c0-0.38328 0.18429-0.57492 0.55287-0.57492h1.1518c0.35323 0 0.52984 0.19164 0.52984 0.57492v1.2418c0 0.35262-0.17661 0.52892-0.52984 0.52892h-1.1518c-0.36858 0-0.55287-0.17631-0.55287-0.52892zm0.23036 14.189v-12.211h1.7047v12.211h-1.7047z" fill="#0E1C39"/>
</g>
</g>
</g>
</g>
</svg>
