<?xml version="1.0" encoding="UTF-8"?>
<svg version="1.1" viewBox="0 0 1000 300" xmlns="http://www.w3.org/2000/svg">
<title>Maluchy3MiastaIOkolic</title>
<desc>Created with Sketch.</desc>
<g fill="none" fill-rule="evenodd">
<g transform="translate(-140 -10057)">
<g transform="translate(140 10057)">
<rect width="1e3" height="300" fill="#fff" fill-opacity=".01"/>
<g transform="translate(80 22)" fill-rule="nonzero">
<g transform="translate(419.92 113.5) scale(-1 1) rotate(180) translate(-419.92 -113.5)">
<polygon points="312.45 146.59 312.45 66.188 329.66 66.188 346.9 66.188 346.9 146.59 346.9 227 329.66 227 312.45 227" fill="#8E2BB2"/>
<path d="m607.97 146.59v-80.398h17.296 17.296l0.048 34.642c0.048001 26.928 0.112 34.834 0.272 35.492 0.112 0.4651 0.32 1.3632 0.48 2.0208 0.432 1.9085 2 4.7953 3.616 6.7038 2.288 2.6623 4.896 4.5066 7.856 5.5331 3.344 1.1708 7.76 1.267 11.424 0.27264 5.824-1.5877 9.84-6.3991 11.488-13.809 1.04-4.6029 0.992-3.0632 1.072-38.491l0.063999-32.38h17.136l17.136 0.016038-0.08 34.898c-0.064002 36.759-0.048001 36.021-0.864 41.714-2.768 19.39-12.736 31.915-28.304 35.508-3.168 0.73774-5.152 0.94624-9.248 0.94624-4.432 0-6.272-0.22453-10.016-1.1868-5.44-1.3793-10.352-3.8651-14.832-7.4897-1.808-1.4594-4.736-4.4264-5.952-6.0142-0.448-0.57736-0.912-1.0425-1.04-1.0425-0.208 0-0.24 4.2019-0.24 31.739v31.739h-17.312-17.296v-80.414z" fill="#8E2BB2"/>
<path d="m9.712 218.6c0-0.080189-0.416-6.6557-0.928-14.61-0.496-7.9548-2.656-41.811-4.768-75.25-2.128-33.439-3.904-61.184-3.952-61.666l-0.064-0.88208h15.936 15.952v0.83397c0 1.1868 2.624 56.758 3.024 64.2 0.704 12.718 1.52 33.567 1.904 48.547 0.192 7.5699 0.192 7.5699 0.56 7.618 0.416 0.064152 0.32 0.38491 1.232-4.5066 1.84-9.8312 4.16-20.528 7.232-33.343 3.152-13.119 5.152-20.737 13.264-50.519 4.32-15.877 7.952-29.205 8.048-29.59l0.192-0.7217h13.68 13.664l0.352 1.0585c1.2 3.6727 18.384 58.683 20.032 64.119 6.32 20.817 10.784 36.47 14.096 49.461 0.976 3.7849 1.072 4.0897 1.408 4.0415 0.336-0.048112 0.352-0.1283 0.336-2.1491-0.016-1.1547 0.048-7.7944 0.128-14.739 0.208-17.77 0.384-23.287 2.32-73.582 0.656-16.583 1.168-30.279 1.168-30.44 0-0.28868 0.912-0.28868 16.736-0.30472h16.72l-0.096 1.2349c-0.112 1.2991-7.824 150.18-7.808 150.92v0.43302l-22.624-0.048112-22.624-0.048115-7.712-23.993c-10.032-31.274-10.528-32.878-14.4-47.488-2.368-8.9812-4.304-16.808-6.56-26.687l-1.792-7.9227-0.496-0.048114-0.496-0.048113-1.152 5.8538c-2.592 13.119-7.328 33.391-10.496 44.938-1.04 3.817-13.824 47.697-15.744 54.096l-0.416 1.3953h-22.928c-13.152 0-22.928-0.064151-22.928-0.16038z" fill="#8E2BB2"/>
<path d="m231.65 179.24c-8.112-0.52925-13.248-1.283-19.84-2.9349-5.952-1.4915-12.048-3.7689-16.384-6.1425l-1.392-0.75378 0.32-1.1387c0.528-1.8283 5.936-20.673 5.952-20.705 0-0.016038 1.248 0.5934 2.784 1.3632 6.592 3.3038 13.504 5.4689 20.576 6.4312 7.872 1.0745 15.376 0.3368 19.952-1.9727 4.848-2.4378 7.344-6.4633 7.344-11.82v-1.5877l-3.312-0.11226c-7.44-0.22453-12.736-0.67359-18.016-1.5396-20.048-3.2557-33.616-11.339-39.712-23.704-1.664-3.3519-2.816-7.1368-3.408-11.146-0.384-2.5179-0.416-8.5161-0.08-10.777 1.12-7.5218 4.336-14.001 9.504-19.165 6.432-6.4151 15.552-9.8793 25.968-9.8793 8.192 0 16.096 2.0047 22.256 5.6453 3.232 1.9085 6.272 4.3142 8.208 6.5434 1.072 1.2028 1.696 1.4594 1.856 0.73774 0.048001-0.20849 0.432-2.2453 0.848-4.5066 0.432-2.2613 0.848-4.5227 0.944-5.0038l0.176-0.88208 15.456-0.016038h15.472l-0.096 0.38491c-0.208 0.80189-0.784 5.7255-1.024 8.7246-0.576 6.9765-0.64 9.8954-0.768 36.037-0.128 28.419-0.112 27.954-1.008 32.99-1.728 9.7189-5.68 17.658-11.584 23.303-6.656 6.335-15.28 9.9274-27.216 11.323-2.144 0.2566-11.488 0.4651-13.776 0.30472zm20.448-68.722l-0.063999-8.2114-0.464-1.4274c-2.8-8.4199-10.816-13.76-19.504-12.975-8.256 0.73774-12.8 6.3189-12.016 14.723 0.304 3.2076 1.424 5.7576 3.52 8.051 3.92 4.2661 11.472 6.9444 21.76 7.6982 3.232 0.24057 3.92 0.27264 5.52 0.32076l1.312 0.032076-0.064-8.2114z" fill="#8E2BB2"/>
<path d="m556.8 179.16c-18.928-1.4434-33.792-8.4359-44.016-20.721-4.224-5.068-7.6-11.243-9.824-17.994-1.2-3.6566-2.064-7.5699-2.624-12.044-0.384-2.967-0.448-12.333-0.096-15.493 1.104-9.9755 4.032-18.556 8.832-25.821 1.84-2.7745 3.248-4.5227 5.728-7.0727 5.776-5.95 12.528-10.104 21.008-12.91 6.592-2.1811 12.816-3.2076 20.752-3.4 10.816-0.25661 22.288 1.3793 30.48 4.3623 1.712 0.60944 2.016 0.76982 1.984 1.0585-0.064 0.52925-3.952 24.923-3.984 24.971-0.016 0.016038-0.864-0.27264-1.888-0.62548-2.496-0.88208-6.848-1.9406-9.712-2.3736-3.424-0.51321-10-0.64151-12.848-0.25661-13.872 1.9085-23.184 11.291-25.104 25.276-0.592 4.3623-0.512 9.2218 0.24 13.215 2.368 12.526 11.184 21.186 23.6 23.175 3.44 0.56132 9.888 0.4651 14.368-0.19245 3.312-0.49717 7.6-1.684 9.456-2.6302 0.352-0.19245 0.688-0.30472 0.72-0.25661 0.112 0.096228 5.456 25.58 5.392 25.645-0.144 0.14434-3.84 1.2991-5.584 1.7321-3.824 0.96227-7.52 1.6038-12.256 2.133-2.816 0.32076-11.712 0.44906-14.624 0.22453z" fill="#8E2BB2"/>
<path d="m374.14 140.73c0.063999-39.18 0.016-37.192 0.976-42.981 3.008-18.123 11.936-29.173 26.528-32.829 4.704-1.1708 10.592-1.5557 15.968-1.0264 5.488 0.54529 9.856 1.7481 14.368 3.9613 4.176 2.0528 7.072 4.1698 10.416 7.618 1.728 1.7802 2.656 2.9029 4.896 5.95 0.24 0.33679 0.416 0.44906 0.528 0.33679 0.144-0.1283 1.712-14.354 1.712-15.412 0-0.11226 5.216-0.16038 15.04-0.16038h15.056l-0.096 0.96227c-0.096 0.99435-0.304 6.1746-0.624 15.108-0.096 2.951-0.208 23.704-0.256 49.814l-0.096001 44.746h-17.2-17.2l-0.047999-34.562-0.048001-34.562-0.384-1.684c-0.8-3.5283-2.32-6.351-4.848-9.0133-3.344-3.5283-7.296-5.2925-12.224-5.501-9.84-0.41698-15.696 5.3887-17.456 17.289-0.56 3.7689-0.608 6.4953-0.608 37.256v30.777h-17.232-17.216l0.048-36.085z" fill="#8E2BB2"/>
<path d="m723.95 176.53c0.047999-0.16038 9.248-23.223 20.432-51.241 11.184-28.018 20.528-51.417 20.752-51.995 0.592-1.5236 0.8-3.1595 0.592-4.3623-0.288-1.5236-1.456-3.6246-4.08-7.3774-1.968-2.7745-6.064-6.7359-9.12-8.7887-4.224-2.8227-10.928-5.8538-16.544-7.4736l-1.232-0.35283 0.112-9.1095c0.048001-5.0038 0.112-11.531 0.112-14.498v-5.3887l2.976 0.11226c10.88 0.38491 22.528 4.4264 32.224 11.178 7.152 4.9717 13.696 12.237 19.552 21.683 7.072 11.403 14.528 28.002 23.04 51.241 1.504 4.1217 26.848 75.811 26.992 76.372 0.08 0.27264-0.848 0.28868-18.288 0.24057l-18.352-0.032077-6.528-26.11c-3.584-14.354-7.184-28.98-8.016-32.493-1.328-5.6132-3.712-16.006-3.712-16.182 0-0.048113-0.224-0.064151-0.496-0.064151-0.32 0-0.528 0.096227-0.576 0.28868-0.048001 0.16038-1.008 3.7849-2.128 8.035-1.12 4.2661-2.336 8.8529-2.688 10.184-0.368 1.3472-4.336 14.594-8.848 29.429l-8.192 26.992h-19.04c-18.064 0-19.04-0.016039-18.944-0.28868z" fill="#8E2BB2"/>
<path d="m480.18 59.116c-1.84-1.1226-2.256-4.1217-1.344-9.7671 0.448-2.7585 0.448-2.8708 0.528-13.616 0.047999-5.95 0.096-10.906 0.128-11.018 0.016-0.1283-0.72-0.36887-1.936-0.62548-2.176-0.48114-2.608-0.7217-3.664-2.0528-0.544-0.70567-0.656-0.97831-0.656-1.6038 0-0.64151 0.08-0.85001 0.544-1.3151 0.752-0.75378 1.744-0.86604 3.888-0.43302 0.912 0.19245 1.776 0.33679 1.92 0.33679 0.24 0 0.288-0.38491 0.32-3.4802 0.048001-3.801 0.256-6.2227 0.64-7.7463 0.72-2.7745 2.16-4.234 4.24-4.2821 0.928-0.016038 2.064 0.49717 4.016 1.8604 1.44 1.0104 2.08 1.7962 2.192 2.7585 0.224 1.9887-1.84 3.0953-3.984 2.133-0.4-0.19245-0.784-0.27264-0.848-0.20849-0.448 0.49717-0.56 1.5557-0.624 5.7095l-0.08 4.3944 1.808 0.27264c2.016 0.32076 9.824 1.1387 9.936 1.0425 0.032-0.016038-0.096-0.4651-0.288-1.0104-1.216-3.5604-0.368-7.4736 2.192-10.04 3.568-3.5764 10.4-3.5283 14.384 0.096227l1.04 0.94623 0.08-0.56132c0.048001-0.30472 0.16-1.2349 0.272-2.0849 0.496-4.2981 2.048-7.9227 3.648-8.5963 1.456-0.60944 3.392 0.16038 4.72 1.8604 0.688 0.88208 0.368 2.117-0.688 2.7745-0.48 0.30472-0.624 0.54529-0.912 1.5717-0.448 1.5717-0.976 4.1698-1.232 6.2066-0.144 1.1066-0.224 4.9717-0.24 12.718-0.032 8.2435-0.096 11.226-0.24 11.499-0.48 0.91416-1.936 1.283-3.104 0.80189-0.752-0.32076-1.856-1.3472-2.08-1.9085-0.096-0.25661-0.224-1.0425-0.288-1.7642l-0.112-1.283-0.88 0.080189c-1.168 0.1283-3.488-0.19245-4.912-0.68963-2.56-0.86604-4.704-2.2293-6.944-4.4104l-1.264-1.2349-0.784 0.28868c-0.768 0.27264-0.96 0.27264-5.888-0.27264-2.8-0.30472-5.824-0.67359-6.72-0.80189s-1.664-0.22453-1.712-0.22453c-0.192 0-0.192 2.3896-0.047999 10.521 0.192 9.7991 0.047999 14.113-0.576 17.93-0.416 2.534-1.136 4.5227-1.84 5.1321-0.64 0.52925-1.824 0.57736-2.608 0.096227zm32.512-32.268c1.264-1.0745 1.04-5.5331-0.464-8.7567-0.688-1.4434-2.448-3.2878-3.808-3.9613-0.96-0.4651-1.2-0.51321-2.208-0.4651-4.448 0.27264-5.312 4.8755-1.808 9.5586 1.168 1.5557 3.232 3.1595 4.832 3.7208 0.48 0.17642 1.328 0.32076 1.904 0.32076 0.88 0.016038 1.12-0.048114 1.552-0.41698z" fill="#000"/>
<path d="m605.47 55.972c-0.816-0.41698-1.856-1.5396-2.064-2.2453-0.24-0.80189 0.192-13.023 0.784-22.148 0.224-3.5283 0.4-6.7199 0.4-7.1048 0-0.70567-0.032001-0.75378-2-2.5019-1.44-1.283-2.064-1.9566-2.256-2.4538-0.608-1.4915-0.32-1.6679 2.832-1.7962l2.192-0.080189-0.064-6.768c-0.064-6.6557-0.064-6.784 0.304-7.4736 0.192-0.40095 0.608-0.86604 0.896-1.0425 0.576-0.36887 1.68-0.43302 2.368-0.17642 0.64 0.24057 1.808 1.3632 2.064 1.9887 0.24 0.5934 0.272 4.3302 0.08 9.302-0.063999 1.5236-0.095998 2.8066-0.063999 2.8547 0.112 0.16038 5.072-0.35283 6.512-0.67359 4.464-0.97831 7.504-2.5179 10.064-5.084 1.984-1.9727 3.072-2.3576 4.592-1.6198 1.616 0.78585 2.176 2.4698 1.296 3.9613-0.512 0.88208-2.704 2.8066-4.576 4.0415-4.128 2.7264-9.856 4.4746-15.936 4.8595l-1.712 0.11226 3.632 3.2236c8.352 7.3774 13.84 12.51 14.24 13.279 0.32 0.60944 0.304 1.7321-0.032 2.2613-0.368 0.54529-1.408 1.0745-2.112 1.0745-1.056-0.016038-1.952-0.64151-6.032-4.3142-2.256-2.0208-5.344-4.7312-6.88-6.0302-1.52-1.283-2.928-2.4859-3.136-2.6783-0.208-0.19245-0.416-0.30472-0.464-0.25661-0.144 0.14434-0.912 15.509-1.024 20.528-0.128 5.7736-0.208 6.1906-1.296 6.8642-0.704 0.44906-1.808 0.48114-2.608 0.096227z" fill="#000"/>
<path d="m660.21 54.08c-1.296-0.41698-2.208-1.267-2.496-2.3095-0.208-0.75378 0.015999-9.0133 0.48-17.08 0.416-7.4095 0.8-16.792 0.992-23.608l0.128-5.3406 0.464-0.60944c0.672-0.88208 1.376-1.251 2.336-1.251 1.216-0.016038 2.208 0.67359 2.864 1.9406 0.288 0.5934 0.24 2.9991-0.4 16.744-0.304 6.8-0.672 17.016-0.928 25.853-0.128 4.234-0.272 4.8755-1.28 5.3406-0.736 0.35283-1.632 0.48114-2.16 0.32076z" fill="#000"/>
<path d="m337.57 52.765c-2-0.32076-5.936-1.6359-7.984-2.6623-2.064-1.0425-4.096-2.6462-4.64-3.6566-0.464-0.88208-0.208-2.1972 0.544-2.8387 0.72-0.60944 2.784-0.86604 3.712-0.4651 0.688 0.30472 1.696 1.1226 1.808 1.4594 0.096001 0.32076 2.976 1.7802 4.528 2.2934 1.984 0.65755 3.824 0.49717 4.88-0.43302 0.672-0.5934 0.864-1.1708 1.024-3.1113 0.128-1.6359-0.192-3.0793-0.992-4.4425-0.624-1.0745-2.448-2.983-3.888-4.0736-1.232-0.9302-4.192-2.6623-6.032-3.5123-1.536-0.70567-1.744-0.89812-2.352-2.133-0.496-0.99435-0.544-1.5557-0.192-2.2453 0.528-1.0264 1.84-1.3311 4.032-0.9302 0.832 0.14434 2.384 0.30472 3.456 0.36887 1.856 0.080189 1.984 0.064151 3.856-0.49717 2.448-0.75378 3.984-1.4434 5.296-2.3896 1.936-1.3793 2.656-2.4859 2.656-4.0415 0.016-3.6085-4.784-7.4897-11.056-8.9491-2.064-0.48114-5.328-0.43302-6.976 0.080189-3.36 1.0585-4.672 2.4217-5.024 5.2123-0.176 1.4274-0.384 1.7161-1.568 2.2132-1.024 0.44906-1.616 0.36887-2.672-0.32076-1.088-0.73774-1.552-1.5236-1.632-2.7745-0.144-2.3576 0.704-4.3944 2.656-6.335 1.84-1.8604 3.936-2.9991 6.688-3.6406 1.808-0.43302 6.736-0.41698 8.784 0 5.04 1.0585 9.088 3.0632 12.192 6.0463 2.928 2.8066 4.32 5.6774 4.32 8.885 0 1.5717-0.464 3.2076-1.264 4.4746-0.8 1.267-2.32 2.9189-3.376 3.6727-1.856 1.3151-4.816 2.5981-7.232 3.1434-0.528 0.11226-0.992 0.27264-1.04 0.32076-0.032001 0.064151 0.688 0.75378 1.616 1.5236 2.336 1.9245 3.984 3.8491 4.928 5.7736 0.416 0.85001 0.832 1.8925 0.928 2.3095 0.256 1.1226 0.208 3.6727-0.08 4.7632-1.008 3.9293-4.336 6.7199-8.224 6.9284-0.656 0.032076-1.408 0.032076-1.68-0.016038z" fill="#000"/>
<path d="m412.1 42.965c-1.088-0.38491-2.432-1.6519-2.8-2.6302-0.224-0.57736-0.224-0.78585-0.048001-1.3311 0.304-0.89812 0.88-1.2991 2.08-1.3953 1.936-0.17642 3.952 1.0906 4.448 2.7745 0.256 0.85001-0.064 1.9566-0.688 2.4217-0.64 0.4651-1.92 0.54529-2.992 0.16038z" fill="#000"/>
<path d="m551.18 42.949c-0.672-0.22453-1.168-0.56132-1.792-1.2189-1.088-1.1387-1.392-1.9887-1.024-2.8708 0.336-0.80189 0.912-1.1547 2.08-1.251 2.56-0.22453 4.912 1.9245 4.432 4.0576-0.192 0.83397-0.624 1.251-1.456 1.4434-0.912 0.22453-1.2 0.20849-2.24-0.16038z" fill="#000"/>
<path d="m678.66 43.062c-0.848-0.27264-2-1.1226-2.576-1.8764-0.624-0.81793-0.736-1.9887-0.272-2.7425 0.96-1.5236 4.464-0.97831 5.776 0.89812 0.848 1.1868 0.784 2.9029-0.128 3.4963-0.544 0.36887-2.032 0.48114-2.8 0.22453z" fill="#000"/>
<path d="m439.2 37.609c-0.656-0.3368-1.568-1.2028-1.84-1.7481-0.128-0.22453-0.272-1.0264-0.336-1.7642l-0.128-1.3472-1.792-0.016038c-2.272-0.016038-4.064-0.48114-6.224-1.5877-2.112-1.0906-3.52-2.1811-5.328-4.1057-3.392-3.6085-5.12-7.8425-4.608-11.226 0.576-3.6566 2.976-6.5114 6.4-7.5859 1.056-0.33679 1.6-0.40095 3.36-0.38491 1.808 0.016038 2.288 0.080189 3.456 0.4651 1.472 0.48114 3.008 1.3953 4.176 2.4698l0.752 0.68963 0.08-0.7217c0.336-2.8387 0.496-3.7849 0.864-5.2283 0.688-2.7104 1.776-4.667 2.96-5.2765 1.168-0.60944 3.056-0.016038 4.32 1.3632 1.264 1.3632 1.12 2.2934-0.528 3.4963-0.4 0.27264-1.184 3.2236-1.664 6.1906-0.336 2.133-0.368 2.9029-0.4 13.777-0.047999 9.8312-0.096 11.563-0.304 11.884-0.56 0.85001-2.208 1.1868-3.216 0.65755zm-4.144-10.585c0.768-0.54529 0.944-1.2028 0.928-3.2717-0.031999-3.3519-1.088-6.1265-3.088-8.1312-1.44-1.4594-2.512-1.9727-4.048-1.9727-2.8-0.016038-4.56 2.2453-4.016 5.1642 0.304 1.684 1.472 3.801 2.944 5.4208 0.864 0.9302 2.896 2.3255 4.016 2.7264 1.072 0.38491 2.752 0.41698 3.264 0.064151z" fill="#000"/>
<path d="m361.41 37.208c-0.688-0.20849-1.984-1.3632-2.304-2.0528-0.224-0.48114-0.24-1.0745-0.128-4.4264 0.08-2.133 0.272-5.2283 0.448-6.8963 0.272-2.7585 0.272-3.4321 0.064-7.4897-0.368-7.6501-0.112-10.232 1.232-11.996 0.864-1.1387 1.488-1.4755 2.72-1.4755 1.264 0 1.92 0.36887 2.72 1.5717 0.912 1.3472 1.248 2.8227 2.224 9.7831 0.272 2.0528 1.472 8.035 1.84 9.3501 0.368 1.2189 0.768 2.4057 1.2 3.4481l0.208 0.51321 0.224-1.0104c0.128-0.56132 0.48-2.4217 0.8-4.1538 1.088-5.8378 2.272-10.393 3.168-12.189 0.928-1.8283 2.112-2.5821 4.304-2.7264 1.168-0.080189 1.424-0.048114 2.24 0.33679 1.024 0.4651 2.896 2.133 4 3.5604 0.96 1.251 2.608 4.2019 3.6 6.4633 0.448 1.0425 0.848 1.8604 0.88 1.8283 0.016001-0.016038 0.352-1.3632 0.72-2.983 0.848-3.6727 1.648-6.1585 2.688-8.3557 1.792-3.7689 3.312-5.2765 5.376-5.2765 2.464 0 5.936 3.5283 5.968 6.0463 0 0.83397-0.047999 0.9302-0.64 1.4434-0.704 0.62548-1.28 0.75378-2.432 0.5934-0.64-0.11226-0.896-0.25661-1.424-0.86604-0.736-0.85001-0.64-0.91416-1.648 1.1226-0.896 1.7962-1.104 2.5661-2.592 9.4142-1.792 8.2274-2.304 9.8312-3.536 11.194-1.2 1.3472-2.816 1.283-4.224-0.16038-0.608-0.62548-1.904-3.5764-2.56-5.8699-0.592-2.0208-2.192-6.4312-2.944-8.051-0.592-1.267-2.192-4.0095-2.416-4.1538-0.272-0.17642-1.392 4.3623-2.608 10.505-1.728 8.6604-2.288 10.376-3.76 11.226-1.12 0.65755-1.936 0.78585-3.04 0.4651-0.816-0.22453-1.136-0.44906-2.288-1.6519-1.552-1.5877-2.592-3.4-3.712-6.4793l-0.688-1.9085-0.128 1.3953c-0.064 0.78585-0.176 2.967-0.256 4.8755-0.144 3.6085-0.24 4.0897-0.992 4.7632-0.4 0.36887-1.552 0.51321-2.304 0.27264z" fill="#000"/>
<path d="m460.02 35.54c-5.04-1.3311-8.624-5.6293-8.624-10.36 0-1.267 0.4-2.1972 1.36-3.1595 1.152-1.1547 4.976-4.0255 8.544-6.4151 4.24-2.8227 5.104-3.4963 5.456-4.234 0.256-0.56132 0.256-0.64151 0.015999-1.0264-0.336-0.51321-1.264-0.99435-2.416-1.2349-2.848-0.5934-5.584 0.38491-8.192 2.967-1.776 1.7481-3.248 4.0576-3.776 5.95-0.256 0.89812-0.688 1.4274-1.536 1.8604-1.168 0.60944-2.432 0.36887-3.344-0.62548-1.04-1.1226-1.232-2.117-0.752-3.9293 1.312-4.9557 5.824-9.3821 11.296-11.066 1.36-0.41698 1.728-0.4651 4.336-0.4651 2.544-0.016038 2.992 0.032076 4.112 0.38491 4.304 1.3472 6.56 3.6246 6.56 6.6076 0 1.6198-1.04 3.384-3.216 5.4529-1.856 1.7642-2.4 2.1811-6.656 5.0198-5.392 3.6246-6.08 4.25-6.08 5.501 0 1.5877 2.384 3.7047 4.208 3.7047 0.768 0.016038 0.896-0.11226 2.24-1.9566 1.136-1.5877 1.584-1.9085 2.656-1.9085 1.664 0 3.568 2.3095 3.248 3.9132-0.176 0.94623-1.04 2.4217-1.872 3.2396-1.92 1.8925-4.656 2.55-7.568 1.7802z" fill="#000"/>
<path d="m696.58 34.963c-2.56-0.85001-5.2-3.5764-6.88-7.1048-1.68-3.5604-2.56-6.768-2.72-10.024-0.336-6.7038 2.464-11.339 7.68-12.734 1.648-0.43302 5.28-0.38491 7.472 0.11226 4.88 1.1066 8.64 2.8547 12.432 5.8217 3.744 2.9189 5.152 5.6293 3.76 7.217-0.688 0.78585-1.424 1.0264-2.512 0.78585-1.136-0.24057-1.504-0.51321-2.592-1.9406-0.976-1.267-3.072-3.1755-4.432-4.0255-2.816-1.7802-6.128-2.8868-9.184-3.0793-3.456-0.22453-5.168 0.80189-6.08 3.6566-0.24 0.73774-0.288 1.5076-0.288 4.0415 0.015999 2.7745 0.064 3.3198 0.464 5.1321 0.592 2.534 1.776 5.1161 2.784 6.0302 0.384 0.33679 0.752 0.60944 0.816 0.60944 0.144 0 1.104-2.133 1.392-3.1113 0.528-1.7481 1.216-2.4378 2.432-2.4378 0.816 0 1.568 0.36887 2.336 1.1547 0.912 0.94623 1.104 1.6519 0.832 2.951-0.608 2.8868-2.224 5.6453-3.856 6.6076-0.928 0.54529-2.752 0.70567-3.856 0.33679z" fill="#000"/>
<path d="m411.87 32.509c-1.6-0.30472-2.64-1.8123-3.104-4.4746-0.352-2.101-0.224-14.643 0.176-16.663 0.784-3.9613 2.016-5.8217 3.84-5.8057 1.296 0 2.352 0.75378 2.896 2.0528 0.352 0.83397 0.32 1.4594-0.08 2.5019-0.192 0.48114-0.512 1.5236-0.688 2.3255-0.512 2.101-0.624 7.9067-0.256 12.109 0.32 3.7047 0.352 6.351 0.063999 6.9284-0.4 0.78585-1.664 1.2349-2.848 1.0264z" fill="#000"/>
<path d="m550.99 32.509c-1.072-0.20849-1.776-0.78585-2.336-1.9245-0.688-1.3953-0.976-3.1113-1.104-6.5916-0.128-3.3198 0.176-10.906 0.496-12.622 0.464-2.534 1.472-4.7793 2.432-5.4368 0.672-0.44906 1.968-0.51321 2.688-0.1283 1.008 0.51321 1.872 1.9085 1.872 3.0312 0 0.19245-0.16 0.75378-0.352 1.251-0.832 2.1972-1.008 3.4481-1.104 7.6019-0.064 2.9029-0.016 4.7632 0.176 7.0406 0.352 3.9613 0.352 6.1104 0.016001 6.768-0.416 0.80189-1.584 1.2349-2.784 1.0104z" fill="#000"/>
<path d="m677.97 32.429c-1.04-0.27264-1.648-0.88208-2.224-2.1651-0.784-1.7642-0.944-3.7208-0.864-10.729 0.08-7.5538 0.32-9.3501 1.632-11.948 0.688-1.3953 1.312-1.8925 2.4-1.9887 2.384-0.20849 3.904 2.101 2.992 4.5548-1.136 3.0632-1.472 7.9067-0.96 13.937 0.464 5.3566 0.48 6.5755 0.144 7.217-0.576 1.1226-1.68 1.5076-3.12 1.1226z" fill="#000"/>
<path d="m583.41 31.466c-0.512-0.048114-1.296-0.27264-1.728-0.48114-0.784-0.38491-1.6-1.3472-1.6-1.8925 0-0.14434-0.528-1.7642-1.184-3.5764-1.376-3.8651-1.856-5.9661-1.84-8.2755 0-2.55 0.576-4.2981 1.872-5.6293 1.472-1.5236 4.208-2.133 7.264-1.6198 3.248 0.56132 6.736 2.6944 8.768 5.3887 0.976 1.2991 2.016 3.4321 2.288 4.6991 0.608 2.9029-1.536 6.8161-4.912 8.9652-2.72 1.7161-6.352 2.7104-8.928 2.4217zm3.328-6.1104c2.288-0.60944 4.08-1.8604 4.592-3.1915 0.736-1.9566-0.672-4.7151-2.992-5.9019-1.792-0.89812-4.272-0.9302-4.768-0.048114-0.16 0.25661-0.208 1.1226-0.208 2.8227 0.032 2.7264 0.288 4.7151 0.752 5.8217 0.304 0.70567 0.352 0.73774 1.04 0.73774 0.4 0 1.104-0.11226 1.584-0.24057z" fill="#000"/>
<path d="m641.2 31.466c-1.136-0.11226-2.416-0.70567-2.784-1.267-0.24-0.35283-1.6-4.1859-2.672-7.4576-0.576-1.7802-0.912-3.833-0.896-5.6293 0-2.4378 0.608-4.218 1.888-5.501 1.12-1.1226 2.272-1.5717 4.464-1.7642 5.728-0.49717 12.048 3.9934 13.728 9.7671 0.672 2.3415-0.304 5.2604-2.544 7.5699-2.768 2.8547-7.552 4.6831-11.184 4.2821zm3.328-6.1104c1.488-0.40095 3.344-1.3793 3.888-2.0689 0.752-0.97831 0.896-1.3472 0.896-2.3576 0-1.8123-1.296-3.6887-3.248-4.6831-1.728-0.89812-4.32-0.91416-4.656-0.032076-0.304 0.78585-0.368 2.4859-0.192 4.667 0.192 2.3576 0.368 3.2396 0.8 4.1698 0.224 0.48114 0.336 0.54529 0.944 0.54529 0.384 0 1.088-0.11226 1.568-0.24057z" fill="#000"/>
</g>
</g>
</g>
</g>
</g>
</svg>
