<?xml version="1.0" encoding="UTF-8"?>
<svg version="1.1" viewBox="0 0 1000 300" xmlns="http://www.w3.org/2000/svg">
<title>Mors</title>
<desc>Created with Sketch.</desc>
<g fill="none" fill-rule="evenodd">
<g transform="translate(-140 -10502)">
<g transform="translate(140 10502)">
<rect width="1e3" height="300" fill="#fff" fill-opacity=".01"/>
<g transform="translate(369 19)" fill-rule="nonzero">
<ellipse cx="131" cy="131.06" rx="131" ry="130.94" fill="#fff"/>
<rect x="17.086" y="209.93" width="42.03" height="29.157" fill="#fff"/>
<g transform="translate(130.73 130.73) scale(-1 1) rotate(180) translate(-130.73 -130.67)" fill="#223D7F">
<path d="m128.52 261.32c-2.6194-0.045337-5.8738-0.22102-8.6917-0.47037-7.3366-0.64605-13.363-1.7228-22.656-4.052-13.579-3.3946-26.5-9.1411-38.31-17.041-2.5514-1.7115-6.3727-4.443-8.5386-6.1205-4.3373-3.3493-8.2551-6.7892-12.048-10.598-5.8398-5.8541-10.171-11.119-15.671-19.042-5.4429-7.8376-10.177-16.775-13.607-25.706-2.4607-6.3982-4.1275-12.139-6.0893-20.974-3.5152-15.806-3.8441-32.535-0.95251-48.545 0.48192-2.6976 0.84479-4.3807 1.8483-8.6367 1.287-5.4688 2.523-9.7191 4.0879-14.117l0.30049-0.83873-0.18143-0.17001c-0.75407-0.71973-1.2814-1.9835-1.4174-3.4003-0.073706-0.75939-0.056697-1.0711 0.21545-3.2586 0.11339-0.91241 0.45925-3.9557 0.77108-6.7495 2.0581-18.497 3.9575-33.113 6.5428-50.392l0.27215-1.8078 0.41389-0.60072c3.1353-4.562 7.7051-8.0133 13.817-10.428 5.2955-2.0912 11.691-3.3946 19.288-3.9217 2.8915-0.20402 4.0992-0.23802 8.1247-0.23802 4.1105 0 5.2842 0.034003 9.1963 0.26635 6.6846 0.3967 15.002 1.3148 22.475 2.4879 0.47059 0.073673 0.75974 0.096341 0.85046 0.062338 0.37987-0.14735 3.3791-1.0654 4.7455-1.4621 4.1219-1.1844 10.926-2.7769 15.212-3.559 11.453-2.0968 23.325-2.5502 35.124-1.3374 4.5925 0.47604 9.8426 1.3431 14.344 2.3689 3.8497 0.8784 6.798 1.5981 8.8391 2.1592 13.681 3.7516 26.682 9.9118 38.429 18.208 0.66902 0.47604 1.253 0.8784 1.287 0.90107 0.16442 0.096341 2.4663-0.78773 3.7647-1.4451 1.4288-0.72539 2.4436-1.4338 3.4869-2.4369 1.854-1.7908 2.8745-3.848 3.192-6.4435 0.10772-0.8614 0.045357-2.9129-0.11906-3.8536-0.35152-2.0515-1.0772-4.222-2.0298-6.0638-0.40822-0.78773-0.51594-1.0371-0.30049-0.69139 0.062366 0.10201 0.48192 0.60638 0.9355 1.1334 5.7264 6.5795 13.556 15.8 16.964 19.994 6.8887 8.4554 14.067 18.316 18.659 25.615 0.33451 0.53838 0.83344 1.3318 1.0999 1.7568 0.94117 1.4905 1.7463 2.8619 2.1318 3.627 1.3494 2.7032 2.1715 5.2421 2.523 7.798 0.14174 0.99741 0.13607 2.9752 0 3.9217-0.61233 4.154-3.0786 7.3559-7.4216 9.6341-1.185 0.62338-2.1715 1.0201-4.0198 1.6151-9.8993 3.2019-17.015 4.8171-25.242 5.7408-4.5301 0.51004-7.1892 0.70272-10.239 0.75373-12.326 0.20402-30.633-2.0288-51.254-6.2565-1.2133-0.24935-2.9653-0.58371-3.9008-0.74806-5.9815-1.0428-10.194-1.9608-25.865-5.6388-12.4-2.9072-18.364-4.2277-25.423-5.6218-17.922-3.5476-32.748-5.3384-47.059-5.6898-4.2239-0.10768-9.0715-0.056671-11.668 0.11901-9.0829 0.60638-16.482 2.8449-22.429 6.7892-1.7803 1.1788-3.2487 2.3859-4.8079 3.9443-2.2679 2.2669-4.0935 4.7434-5.4939 7.4409-0.35719 0.69139-0.35152 0.68572 0.33451-0.4137 2.4777-3.9557 5.8511-7.2199 10.115-9.7815 0.89581-0.53838 2.9823-1.6491 3.022-1.6095 0.0056697 0.017001-0.35719 0.66872-0.81644 1.4508-8.3118 14.219-13.675 30.075-15.699 46.385-2.7158 21.886 0.40255 43.869 9.0659 63.937 9.9503 23.054 26.993 42.719 48.47 55.918 7.9773 4.9021 16.47 8.8691 25.321 11.827 9.9957 3.3379 20.468 5.3781 31.053 6.0412 5.0801 0.31736 10.551 0.31736 15.66 0 21.715-1.3544 42.642-8.4724 60.7-20.645 4.394-2.9639 8.9751-6.5172 12.848-9.9571 2.7271-2.4255 5.9702-5.5878 8.3458-8.1323 18.642-20.011 30.01-45.348 32.465-72.386 0.3742-4.1427 0.47626-6.5342 0.47626-11.278 0-4.018-0.034018-5.1401-0.23813-8.24-0.82778-12.485-3.5662-24.777-8.1077-36.389-0.34585-0.88407-0.79943-2.0062-1.0092-2.4992-0.20411-0.48737-0.36853-0.88974-0.36286-0.89541 0.011339-0.0056673 0.31183-0.096341 0.66902-0.20402 1.6159-0.48737 3.9971-1.2694 4.0822-1.3488 0.051028-0.045337 0.11339-0.085007 0.13607-0.07934 0.062367 0 1.8653-0.91241 2.2282-1.1221 0.36853-0.22102 0.26648-0.35136 0.86746 1.1221 2.0694 5.0834 3.8327 10.479 5.1764 15.794 0.57264 2.2498 1.5478 6.4152 1.939 8.2457 3.4472 16.163 3.5719 33.181 0.36286 49.474-0.51027 2.6012-1.7179 7.8263-2.472 10.711-3.2034 12.269-8.2097 23.779-15.047 34.603-1.9844 3.1396-5.4939 8.1323-7.9489 11.306-5.1368 6.6419-11.045 12.864-17.366 18.293-3.158 2.7089-5.7547 4.7207-10.024 7.7696-6.0326 4.307-11.181 7.4183-17.378 10.496-7.8299 3.8933-15.365 6.7042-23.847 8.9087-1.6215 0.41937-6.9114 1.6718-8.5386 2.0175-7.6711 1.6265-14.9 2.4709-22.957 2.6806-2.0524 0.051004-2.8008 0.051004-5.029 0.017001zm86.735-181.9c1.7973-0.22668 5.5166-1.3828 8.3628-2.5955 0.97519-0.4137 2.5797-1.2128 3.3395-1.6548 1.1169-0.65172 2.3926-1.5925 2.9369-2.1592l0.20411-0.21535-0.073706-0.8784c-0.23813-2.9469-0.68036-7.662-0.75974-8.0983l-0.034018-0.19268-0.83912 0.82173c-3.0446 2.9582-5.9475 5.1004-8.0453 5.9278-0.67469 0.26069-1.956 0.59505-2.7782 0.71406-0.78242 0.11901-1.9844 0.12468-2.5627 0.011334-1.27-0.24369-2.2452-0.87274-2.9709-1.9212l-0.32317-0.4647 0.00567-0.77073c0-0.68572 0.017009-0.8274 0.16442-1.2524 0.26648-0.77073 0.57831-1.2354 1.3437-1.9948 0.74273-0.74239 0.89581-0.85007 4.961-3.525 5.1254-3.3719 7.4046-5.2874 8.788-7.3673 1.9787-2.9752 2.472-6.3358 1.4004-9.6058-0.25514-0.78206-0.82778-2.0005-1.287-2.7372-1.5648-2.5049-4.1502-4.1597-7.6087-4.8681-1.5251-0.31169-2.1205-0.3627-4.3997-0.3627-2.0864 0.0056671-2.9312 0.062338-4.5584 0.31169-0.25514 0.03967-0.8788-0.073673-4.4904-0.79906-3.7987-0.76506-6.2423-1.2694-7.518-1.5698l-0.46492-0.10201-6.1176 5.6218c-3.3621 3.0943-6.7356 6.1998-7.4953 6.9026l-1.3834 1.2751-1.6556-0.34003c-0.90715-0.19268-1.6669-0.35703-1.6896-0.3797-0.022679-0.017001 1.0376-3.5703 2.3643-7.8886 1.3267-4.324 2.4153-7.8943 2.421-7.9396 0.022678-0.10768-10.024-2.4029-10.081-2.3009-0.022679 0.034003-0.78242 2.4879-1.6952 5.4518-1.151 3.7233-1.6669 5.3158-1.6782 5.1741-0.14174-2.0628-0.54996-3.6666-1.3267-5.2251-1.5932-3.2076-4.2012-5.1854-8.1814-6.1998-4.944-1.2638-9.8086-0.12468-12.831 3.0149-0.31183 0.32303-0.69737 0.76506-0.8618 0.98608-0.15875 0.22102-0.30049 0.39103-0.30616 0.38536-0.022678-0.022668 0.54429-5.5765 0.77108-7.5259l0.19277-1.6775h-0.39121c-0.69737 0-8.9525 0.23802-8.9695 0.25502-0.011339 0.011334-0.36853 5.0607-0.78809 11.221-0.42523 6.1602-0.77675 11.21-0.78809 11.221-0.01134 0.011334-1.8937-3.967-4.1899-8.8464l-4.1672-8.8634-1.1566 0.03967c-0.64068 0.022668-1.3891 0.062338-1.6669 0.07934l-0.5046 0.03967-3.7477 8.9994c-2.0638 4.9531-3.7647 8.9824-3.7874 8.9541-0.022679-0.022668-0.60099-4.9531-1.2814-10.955-0.68603-5.9958-1.2643-10.932-1.2814-10.96-0.028348-0.045337-9.0318 0.22668-9.0942 0.27769-0.022678 0.011334 5.2955 40.497 5.3182 40.531 0.034018 0.051004 7.2572-0.3797 7.3196-0.4307 0.039688-0.034002 1.9164-5.1174 4.1729-11.295s4.1162-11.227 4.1332-11.227c0.022679 0 2.1375 4.8907 4.7002 10.87 2.5684 5.9845 4.6888 10.904 4.7172 10.932 0.056697 0.068005 8.0793-0.4307 8.1644-0.50437 0.022678-0.022669 0.073706-0.38536 0.10205-0.80473 0.045358-0.59505 0.64068-9.4414 0.65202-9.6511 0.00567-0.022668 0.045358 0.034003 0.10206 0.13601 0.16442 0.30602 0.60666 0.85007 1.0489 1.2864 1.8994 1.8702 5.046 3.1453 8.9411 3.6156 1.4061 0.17001 2.7952 0.062338 4.2409-0.32303 2.7668-0.74806 5.4202-2.6749 7.1268-5.1741 0.22112-0.32303 0.27782-0.3797 0.2438-0.23802-2.5457 11.374-4.292 19.342-4.2353 19.376 0.14741 0.085007 2.7101 0.78206 4.6492 1.2638 8.9525 2.2272 16.533 2.8959 20.751 1.8305 3.0957-0.78206 5.6357-2.8846 7.0815-5.8655 0.5613-1.1674 1.1736-3.1623 1.4004-4.5847 0.1304-0.83307 0.17576-2.6522 0.090715-3.4853-0.26648-2.5332-1.1623-4.7207-2.7271-6.6589-0.48192-0.60072-1.3607-1.4848-1.9277-1.9495-0.22679-0.18135-0.40822-0.34569-0.40822-0.36836s0.91282-0.85574 2.0298-1.8532c1.1169-0.99741 2.489-2.2215 3.0446-2.7202 0.55563-0.49871 1.0262-0.89541 1.0376-0.88407 0.017009 0.017001 0.78809 5.3328 0.78809 5.4461 0 0.011334 0.43657-0.4137 0.96952-0.94641 2.9199-2.9186 5.2388-4.6244 7.4953-5.5198 2.7215-1.0768 4.8249-1.5755 6.6619-1.5811 1.151-0.0056671 1.7349 0.11334 2.5457 0.49871 0.54996 0.27202 1.2247 0.85574 1.4798 1.2921 0.36286 0.61772 0.48192 1.5415 0.28915 2.3065-0.28348 1.1278-1.185 2.3575-2.6194 3.593-0.95251 0.82173-4.1446 3.1396-7.9489 5.7805-2.2339 1.5471-2.8859 2.0968-3.9008 3.2813-1.2984 1.5188-1.8653 2.6692-2.1772 4.4204-0.12473 0.67439-0.14174 0.96908-0.14174 2.2612 0 1.2921 0.01701 1.5925 0.13607 2.2498 0.40255 2.2272 1.1906 4.0463 2.54 5.8428 0.60666 0.8104 1.1169 1.3374 1.7009 1.7681 2.3529 1.7625 5.5166 2.4765 8.9865 2.0345zm-189.76-33.64c4.927-0.11901 5.4769-0.15301 6.3671-0.40237 0.98653-0.27202 1.7916-0.70839 2.4266-1.3148 0.61233-0.58371 0.9922-1.1674 1.2417-1.9042 0.19844-0.56105 0.19844-0.60072 0.20411-1.5868 0-0.87274-0.017009-1.0824-0.13607-1.5188-0.37987-1.4111-1.0943-2.2612-2.4947-2.9752-0.27215-0.13601-0.49326-0.26069-0.49326-0.27202 0-0.011334 0.65769-1.7171 1.4628-3.78 0.79943-2.0685 1.4458-3.7743 1.4288-3.7913-0.045358-0.03967-5.8001 0.07934-5.8398 0.11901-0.022679 0.022668-0.5613 1.5188-1.2076 3.3266l-1.1736 3.2983-0.82211 0.051004c-0.44791 0.028336-0.82778 0.045337-0.83912 0.028336-0.017009-0.011334-0.062367-1.4961-0.096385-3.2983-0.039688-1.7965-0.090715-3.2813-0.10772-3.3039-0.034018-0.028336-5.2558 0.062338-5.2955 0.096341-0.022679 0.017001 0.35152 16.814 0.38554 17.092 0.011339 0.14168 0.056697 0.24935 0.096385 0.24935s2.2395-0.051004 4.893-0.11334zm22.458-0.51571l0.60666-0.034003 0.090715-0.30602c1.3097-4.46 4.9213-17.069 4.8986-17.098-0.045358-0.03967-5.3238 0.062338-5.3692 0.10768-0.017009 0.017001-0.22679 0.78773-0.47059 1.7115-0.24947 0.92941-0.45358 1.6945-0.46492 1.7001-0.011339 0.011334-1.0546 0.028336-2.3246 0.03967l-2.3132 0.022668-0.53862-1.6378c-0.29482-0.90107-0.55563-1.6548-0.57831-1.6775-0.039688-0.03967-4.2353 0.051004-4.2806 0.096341-0.022679 0.022669 4.2239 12.83 5.2445 15.794l0.47625 1.3941 2.2055-0.03967c1.219-0.022668 2.4833-0.056671 2.8178-0.073673zm12.042-0.26069c1.5251-0.034003 3.1297-0.090674 3.5719-0.11901 2.9199-0.22668 4.8816-1.2978 6.2934-3.4399 1.185-1.7965 1.6782-3.9273 1.4458-6.1998-0.21545-2.0685-0.94684-3.7743-2.2055-5.1344-1.4174-1.5301-3.2601-2.3745-5.4713-2.5105-0.5613-0.034003-7.8469 0.11334-7.8922 0.15868-0.017009 0.017001 0.36853 17.217 0.38554 17.29 0.0056697 0.028336 1.1169 0.017001 3.8724-0.045337zm17.962-0.40803c0.88447-0.022668 1.6329-0.056671 1.6556-0.07934 0.034018-0.034003-0.32884-17.251-0.36286-17.296-0.022679-0.028336-5.2785 0.10201-5.3068 0.13034s0.34018 16.735 0.37987 17.041l0.028348 0.25502 0.9922-0.0056671c0.54429-0.0056672 1.7236-0.022668 2.6137-0.045337zm14.169-0.15868c1.6726-0.27202 3.039-0.96341 4.2183-2.1365 1.6045-1.6095 2.4096-3.746 2.404-6.4152 0-2.2102-0.53862-4.1767-1.5762-5.7578-0.62934-0.96341-1.9504-2.1252-3.0333-2.6635-1.9277-0.95774-4.8306-1.0314-6.9681-0.17001-2.421 0.98041-4.1672 3.1509-4.7342 5.8995-0.36853 1.8135-0.24947 4.1483 0.31183 5.8201 0.68036 2.0402 2.0978 3.797 3.7704 4.6584 0.8788 0.45904 1.8597 0.74239 2.9596 0.85574 0.62367 0.068006 1.9674 0.022668 2.6478-0.090674zm102.29-18.407l0.26648-0.03967-1.0999-0.65739c-14.906-8.9144-31.614-14.559-48.844-16.503-4.7739-0.53838-9.0659-0.7764-14.021-0.7764-7.8072 0-14.979 0.65172-22.594 2.0515-0.618 0.11334-1.168 0.22669-1.219 0.24369-0.051027 0.022668 0.60666 0.18135 1.4571 0.35703 6.18 1.2694 10.472 2.1988 18.506 3.984 3.0049 0.66872 6.9964 1.5528 8.8674 1.9608 1.871 0.4137 4.4507 1.0144 5.7264 1.3374 19.107 4.8511 35.385 7.5996 47.546 8.0303 1.6556 0.056671 5.063 0.068006 5.4089 0.011334z"/>
<path d="m180.15 66.736c-1.0092-0.090674-3.2147-0.52138-4.3146-0.8444-0.31183-0.090674-0.38554-0.13601-0.3742-0.22102 0.022679-0.20968 2.3359-10.575 2.3643-10.603 0.10206-0.10201 2.8575 0.53271 4.0992 0.94641 2.4777 0.82173 4.2579 1.9552 4.978 3.1679 0.26081 0.44204 0.51594 1.1958 0.60666 1.8191 0.29482 2.0345-0.81644 4.3013-2.5684 5.2364-0.63501 0.33436-1.9901 0.53838-3.5095 0.52704-0.57264-0.0056672-1.151-0.017002-1.2814-0.028336z"/>
<path d="m156.85 51.429c-0.40822-0.062338-1.1566-0.40237-1.7293-0.78773-1.7179-1.1448-2.7158-3.1056-2.9823-5.8541-0.085045-0.85007-0.039687-2.4935 0.090715-3.2756 0.16442-0.99741 0.58398-2.1818 1.2076-3.4173 1.0999-2.1875 2.523-3.5023 4.2239-3.9046 0.62367-0.14735 1.905-0.085007 2.5967 0.11901 2.1318 0.64039 3.3565 2.2498 3.8611 5.0834 0.11906 0.65172 0.13607 0.96341 0.13607 2.2725 0.00567 1.6661-0.045358 2.1818-0.32884 3.2983-0.73139 2.9129-2.2849 5.1458-4.1842 6.0128-0.91282 0.41937-1.9901 0.58938-2.8915 0.45337z"/>
<path d="m25.74 41.54c-0.022679-0.30036-0.039688-1.0541-0.039688-1.6718v-1.1164l0.9355-0.017001c1.4514-0.022668 1.9617 0 2.3189 0.10201 0.55563 0.16435 0.94684 0.4647 1.1113 0.86707 0.30616 0.73106 0.079376 1.5981-0.51027 1.9778-0.3742 0.24369-0.94117 0.32869-2.4323 0.36836l-1.3437 0.03967-0.039688-0.54971z"/>
<path d="m45.085 40.061c-0.11906-0.28336-1.4571-4.7944-1.4288-4.8171 0.017009-0.022668 0.64068-0.045337 1.3891-0.056671l1.3551-0.017001-0.49893 1.9552c-0.7484 2.9299-0.77675 3.0319-0.81644 2.9356z"/>
<path d="m61.335 40.044c-0.017009-0.53271-0.062366-2.3179-0.090715-3.9727-0.034018-1.6548-0.073706-3.3266-0.096385-3.7233l-0.028348-0.71972 0.73706-0.03967c0.41389-0.017001 0.89581-0.011334 1.1056 0.022668 1.2814 0.20402 2.3076 1.4565 2.6648 3.2416 0.079376 0.40237 0.10772 0.79906 0.10205 1.6378 0 0.99175-0.017009 1.1561-0.15875 1.6945-0.21545 0.8104-0.618 1.6095-1.0262 2.0232-0.57264 0.58938-1.236 0.79906-2.54 0.79906l-0.62934 0.0056671-0.039688-0.96908z"/>
<path d="m89.961 40.509c-0.9355-0.28902-1.5195-1.2524-1.8483-3.0376-0.14741-0.83307-0.18143-3.0886-0.056697-3.9557 0.28915-1.9722 1.0376-2.8789 2.3869-2.8732 1.5195 0.011334 2.2055 1.0314 2.4607 3.6723 0.34585 3.5533-0.16442 5.6501-1.5025 6.1488-0.39121 0.14735-1.0489 0.17001-1.4401 0.045337z"/>
<path d="m129.05 230.31c-0.14741-0.011335-0.82778-0.056672-1.5195-0.10768-11.164-0.8104-20.541-2.8166-28.065-6.0128-1.3607-0.57238-4.0141-1.9042-5.2105-2.6069-7.6031-4.4714-12.298-10.564-13.658-17.727-0.12473-0.63472-0.12473-0.85007-0.18143-19.693-0.034018-10.484-0.062366-20.481-0.062366-22.221v-3.1679l0.22112-0.056671c2.5344-0.65172 4.6945-1.2751 8.6803-2.5105 1.4741-0.45337 3.3338-1.0258 4.1389-1.2694l1.4571-0.43637 0.034018-0.4137c0.051027-0.57238 0.1304-3.8876 0.090715-3.8876-0.068037 0-4.4224-0.8444-4.6775-0.90674-0.45925-0.10768-1.1623-0.49304-1.3891-0.7594-0.3175-0.36836-0.36286-0.66872-0.3175-1.9042 0.051027-1.5188 0.20411-3.2019 0.31183-3.525 0.10205-0.31736 0.3742-0.57805 0.60099-0.57805 0.085046-0.005667 0.43657 0.096342 0.78809 0.20968 0.5613 0.19268 3.6796 1.4224 4.4337 1.7455 0.15875 0.073672 0.29482 0.11901 0.30049 0.11334 0.01134-0.011334 0-1.0314-0.022679-2.2725l-0.034018-2.2555-1.4288-0.58938c-0.78809-0.32869-1.9731-0.81607-2.6307-1.0938-1.9674-0.8104-2.4947-1.2921-2.6421-2.3915-0.039688-0.26636-0.056697-1.2808-0.045357-2.4255 0.017009-1.7171 0.034018-1.9892 0.12473-2.1932 0.24947-0.56105 0.54429-0.53271 1.956 0.17568 0.83912 0.41937 2.1261 1.1334 3.3962 1.8815 0.54996 0.32303 1.0262 0.58371 1.0602 0.58371 0.034018 0 0.051028-0.090674 0.034018-0.22102-0.017009-0.12468-0.062367-1.0768-0.10205-2.1138l-0.073706-1.8872-1.1056-0.58938c-0.60666-0.32303-1.7066-0.90674-2.438-1.2864-2.4777-1.2978-2.8122-1.6831-2.9256-3.4173-0.079376-1.2411-0.073706-3.542 0.011339-3.8196 0.090715-0.30036 0.2438-0.43637 0.49893-0.4307 0.3742 0.011334 1.9617 0.91241 4.411 2.4992 0.62367 0.40237 1.1509 0.73673 1.1623 0.73673 0.056697 0-0.28349-4.5224-0.34585-4.5847-0.079376-0.07934-1.3097-0.7594-3.1127-1.7285-0.90148-0.48737-1.7973-0.98041-1.9957-1.1051-0.48759-0.31736-0.95818-0.7594-1.1453-1.0768-0.27782-0.48171-0.3175-0.7934-0.35719-2.9469-0.034018-1.8135-0.022679-2.0288 0.068037-2.2782 0.20411-0.52138 0.47058-0.52138 1.5308 0.017002 0.85613 0.43637 2.2395 1.2524 3.6343 2.1365 0.47625 0.30602 0.8788 0.55538 0.89014 0.55538 0.028349 0-0.011339-0.45337-0.27782-3.1509-0.17009-1.7625-0.21545-2.0628-0.30616-2.1308-0.062367-0.045337-1.253-0.65172-2.6534-1.3544-3.1127-1.5585-3.4642-1.7851-3.9631-2.5389-0.18143-0.27769-0.1871-0.32302-0.3175-1.6378-0.068037-0.74806-0.1304-1.8135-0.13607-2.3745-0.0056692-1.0031 0-1.0257 0.14174-1.1788 0.27215-0.28902 0.60099-0.20402 2.2339 0.59505 1.0205 0.49304 2.5684 1.3148 3.5833 1.9042l0.54996 0.31169 0.039688-0.31169c0.017009-0.17001 0.022679-1.0994 0.01134-2.0628-0.028348-1.8645-0.068037-2.1592-0.34585-2.5162-0.24947-0.31736-2.5797-1.5981-4.7569-2.6239-0.75974-0.35703-1.2757-0.83307-1.6215-1.4905-0.39121-0.74806-0.41389-0.90674-0.39121-2.5899 0.017009-1.4905 0.017009-1.4961 0.15875-1.6095 0.20978-0.17001 0.40822-0.19835 0.86746-0.11901 0.34018 0.056671 0.5613 0.14734 1.1623 0.49304 0.91282 0.52138 1.922 1.1561 3.4755 2.1818l1.185 0.78206-0.039688-0.66305c-0.045358-0.68006-0.15875-1.7511-0.28348-2.5672-0.056697-0.40237-0.10206-0.51571-0.36286-0.88974-0.39121-0.55538-1.7916-1.9552-2.6364-2.6295-0.81644-0.64605-2.6024-1.8418-3.6513-2.4425-3.691-2.1082-8.0113-3.627-12.74-4.494-0.49893-0.090674-0.91849-0.17568-0.92416-0.18702-0.011339-0.011334-0.051027-1.3318-0.090715-2.9356-0.090715-3.797-0.31183-9.5094-0.39121-10.082l-0.028348-0.19835 0.45925 0.045337c0.25514 0.022668 0.48192 0.051004 0.5046 0.068006 0.022679 0.011334 0.27215 0.034002 0.5613 0.045337 0.618 0.034003 4.6378 0.48171 6.9851 0.78206 11.793 1.5075 24 3.7856 39.767 7.4296 2.6931 0.61772 7.4557 1.7455 12.74 3.0092 11.311 2.7032 16.516 3.865 21.46 4.7887 0.98653 0.18135 3.1013 0.61205 4.7059 0.95208 19.521 4.1483 35.237 6.3869 48.266 6.8799 2.0014 0.073672 7.1778 0.03967 8.2891-0.056671 0.35719-0.034003 1.4061-0.11334 2.3189-0.18702 4.1446-0.30602 7.4443-0.69139 10.829-1.2524 1.304-0.21535 3.1467-0.56105 3.3735-0.62338 0.15308-0.045337 1.6272 1.7568 2.6307 3.2133 1.4741 2.1422 2.7158 4.647 3.5152 7.0839 0.81077 2.4652 1.219 4.528 1.6499 8.4043l0.18143 1.6265v36.088 36.088l-26.154-0.017002-26.149-0.017001-0.028349-29.752-0.034018-29.752-0.15875-0.95208c-0.618-3.712-1.6159-6.7949-3.2601-10.082-4.0652-8.121-11.339-14.61-21.165-18.866-8.2211-3.5646-18.013-5.6275-29.811-6.2792-1.8086-0.096341-3.09-0.056671-6.4691 0.21535-12.32 0.97475-23.013 3.729-30.991 7.9793-1.5705 0.83873-1.4628 0.76506-1.4288 0.96908 0.017009 0.10201 0.14174 1.5471 0.27782 3.2133 0.13607 1.6718 0.25514 3.0432 0.26081 3.0489 0.0056692 0.011334 0.45925-0.23802 1.0149-0.55538 8.4479-4.7661 20.683-7.6336 35.152-8.2343 0.79943-0.028336 1.7122-0.068006 2.0241-0.085007 1.1566-0.056671 5.8965 0.35136 9.1963 0.79906 9.7916 1.3148 18.109 3.967 24.312 7.7526 1.6726 1.0201 3.5152 2.3462 4.8589 3.4966 0.89581 0.77073 2.574 2.4482 3.2828 3.2756 3.4358 4.035 5.5393 8.6934 6.1176 13.561 0.12473 1.0258 0.13607 2.2272 0.051028 4.6697-0.12473 3.4513-0.15308 16.027-0.085045 31.929 0.039687 8.2627 0.085045 16.967 0.10772 19.353l0.039687 4.3297h-25.967-25.962v-9.8778-9.8778h6.4805 6.4805l0.039688-3.1736c0.062366-5.0097 0.15308-21.49 0.15308-27.622-0.005669-6.2112-0.079375-11.958-0.18143-13.04-0.3742-4.1087-2.4323-6.4095-6.8207-7.611-1.9787-0.54404-5.0971-0.83307-6.6902-0.62905-2.8348 0.36836-5.1311 1.8702-6.6789 4.358-0.42523 0.68572-0.89581 1.7001-1.1963 2.5672l-0.24947 0.72539v45.79 45.79l0.1304 0.60638c0.58398 2.6239 2.0354 4.4657 4.4507 5.6445 1.168 0.56671 2.2849 0.90107 3.7647 1.1221 0.99787 0.14734 2.438 0.23235 3.4699 0.19268 3.2147-0.11334 5.613-1.0031 7.3253-2.7146 1.1623-1.1618 1.9334-2.6352 2.3359-4.4544 0.12473-0.57238 0.12473-0.64605 0.14741-9.8155l0.017008-9.2374h19.515 19.521l0.034018 0.36836c0.022679 0.19835 0.039688 2.7429 0.039688 5.6501 0 4.3637-0.017009 5.4008-0.090715 5.9845-1.2133 9.4584-5.7207 16.837-13.5 22.079-6.7583 4.5564-16.159 7.4919-27.696 8.6367-3.8327 0.3797-8.3968 0.61205-9.9106 0.49871zm36.195-60.706c0-0.022668-0.38554-0.48171-0.8618-1.0201-0.47625-0.53838-0.86179-0.99175-0.86179-1.0087s0.55563-0.32303 1.2303-0.68572c0.68036-0.35703 1.4911-0.7934 1.8086-0.96341l0.57831-0.30602 0.96385 1.0428c0.52728 0.57805 0.94684 1.0711 0.94117 1.0938-0.011339 0.028335-0.36286 0.47037-0.78242 0.98041-0.43657 0.52704-0.7484 0.95208-0.71438 0.98041 0.085046 0.090674 6.4181 4.273 6.4351 4.256 0.011339-0.011334-0.51027-2.9809-1.1566-6.5965l-1.1793-6.5852h-10.909-10.903l-0.034018 0.16435c-0.10206 0.51004-2.0581 13.199-2.0468 13.267 0.01134 0.056671 1.1623-0.73673 3.2657-2.2442 1.7803-1.2751 3.2487-2.3462 3.2601-2.3689 0.00567-0.028335-0.41956-0.49871-0.95251-1.0484-0.52728-0.54404-0.9355-1.0144-0.90148-1.0371 0.034018-0.022668 0.56697-0.45337 1.1793-0.95774 0.618-0.51004 1.151-0.91808 1.185-0.90674 0.20978 0.068005 3.3735 1.8815 3.3735 1.9382 0 0.03967-0.20411 0.27202-0.45358 0.51571s-0.6917 0.70272-0.98086 1.0144l-0.53295 0.57238 1.7349 2.4029c0.95818 1.3204 2.0411 2.8279 2.4153 3.3436l0.68036 0.94074 2.1091-3.3719c1.1623-1.8532 2.1091-3.3889 2.1091-3.4116zm1.9447-11.98c-0.022679-0.073673-0.45358-1.4735-0.96385-3.1056-0.5046-1.6378-0.91849-2.9922-0.90715-3.0092 0.00567-0.022668 1.6782 0.42503 3.708 0.99175s3.7363 1.0258 3.793 1.0314c0.096385 0 0.10772-0.30602 0.10772-5.6501 0-3.2699-0.022679-5.6558-0.056697-5.6558-0.028349 0-1.7349 0.4137-3.793 0.91807-2.0581 0.50437-3.7533 0.90674-3.759 0.89541-0.011339-0.005667 0.55563-1.3941 1.2643-3.0772 0.70304-1.6888 1.2814-3.0829 1.2814-3.1056 0-0.017001-3.1353-0.034002-6.9624-0.034002-3.8327 0-6.9681 0.017001-6.9681 0.03967 0 0.017001 0.49893 1.3828 1.1113 3.0319 0.60666 1.6491 1.0943 3.0149 1.0772 3.0319-0.01701 0.017001-1.6612-0.3967-3.6456-0.92374-1.9901-0.52704-3.6286-0.95208-3.6399-0.95208s-0.022678 2.5672-0.022678 5.7125c0 3.1396 0.017009 5.7125 0.039687 5.7125 0.022679 0 1.6442-0.4307 3.6059-0.95774 1.9674-0.52704 3.5833-0.94641 3.5946-0.92941 0.01134 0.011334-0.41956 1.3714-0.95818 3.0149-0.53862 1.6491-0.98086 3.0319-0.98086 3.0716 0 0.068006 1.0999 0.085007 6.5542 0.085007h6.5542l-0.034018-0.13601zm-5.4259-22.544c3.2091-0.03967 5.8398-0.07934 5.8568-0.090674 0.01134-0.005668-0.5046-1.3884-1.1509-3.0602-0.64068-1.6775-1.1566-3.0602-1.1453-3.0716 0.01134-0.011334 1.6499 0.40803 3.6399 0.93508 1.9901 0.52138 3.6286 0.94641 3.6399 0.92941 0.01134-0.011335 0.01701-2.6182 0.00567-5.7918l-0.011339-5.7748-3.5436 1.2071c-1.9447 0.66872-3.5492 1.2014-3.5606 1.1844-0.011339-0.011334 0.45925-1.3828 1.0546-3.0432 0.58965-1.6661 1.0772-3.0432 1.0772-3.0716 0-0.022668-3.1183-0.039669-6.934-0.039669s-6.934 0.017001-6.934 0.045337c0 0.028335 0.4309 1.2014 0.95818 2.6069 0.52728 1.4054 1.0319 2.7542 1.1226 3.0036l0.17009 0.45904-0.24947-0.07934c-0.13607-0.03967-1.7519-0.54404-3.5833-1.1221-1.837-0.57805-3.3735-1.0484-3.4132-1.0484-0.051027 0-0.068036 1.3998-0.068036 5.9562v5.9562l0.14741-0.034003c0.079376-0.022669 1.7349-0.58371 3.674-1.2524 1.939-0.66872 3.5379-1.2071 3.5492-1.1958 0.017009 0.017002-0.85046 2.9582-1.871 6.3528-0.039688 0.13034-0.19844 0.13034 7.5691 0.03967z"/>
<path d="m21.619 177.71c-0.022679-0.35136-0.028348-17.647-0.0056697-38.429l0.039688-37.783 0.20978-0.80473c0.11906-0.44204 0.39688-1.3544 0.618-2.0232 2.6648-7.9283 8.1984-14.769 16.737-20.674 3.4925-2.4199 7.7902-4.8001 12.439-6.8912 1.4855-0.66305 3.8837-1.6605 3.9518-1.6321 0.073706 0.022668 0.40255 7.5883 0.34018 7.6676-0.022679 0.022668-0.5046 0.14168-1.0772 0.25502-2.6024 0.53838-5.1878 1.3091-7.5407 2.2555-3.4642 1.3884-6.9511 3.3323-9.3947 5.2251-0.81077 0.62905-2.0468 1.8248-2.2055 2.1252-0.15308 0.31169-0.22679 1.7681-0.17576 3.6836 0.051027 1.8645 0.045358 1.8588 0.45925 1.6831 0.14174-0.062338 1.4061-0.64038 2.8122-1.2808 4.6435-2.1308 8.0056-3.5986 8.9921-3.9387 1.2076-0.40803 1.8823-0.10768 2.0468 0.92941 0.10772 0.65172 0.2438 3.2189 0.1871 3.5136-0.15308 0.7934-0.51027 1.1674-1.3891 1.4621-3.2374 1.0654-11.657 4.7831-12.536 5.5311-0.1304 0.11334-0.26648 0.29469-0.30049 0.3967-0.085046 0.26069 0.0056697 2.9412 0.10205 3.1226 0.1304 0.23802 0.27782 0.27202 0.58965 0.14168 0.15875-0.062338 1.6499-0.65739 3.3224-1.3204 1.6669-0.66305 4.1616-1.6661 5.5336-2.2272 1.3777-0.56671 2.6874-1.0881 2.9199-1.1561 0.84479-0.26069 1.4968-0.21535 1.7179 0.12468 0.12473 0.19835 0.23246 1.5131 0.20411 2.5785-0.022679 1.0484-0.085046 1.2354-0.63501 1.8248-0.60666 0.65739-0.92983 0.83874-3.4585 1.9155-1.8653 0.78773-5.0517 2.1988-8.1757 3.6156l-1.8994 0.85574 0.045358 1.7851c0.022679 0.98608 0.056697 2.0005 0.079376 2.2668l0.034018 0.48171 1.6669-0.73673c5.0347-2.2158 10.325-4.4317 11.283-4.7264 0.81644-0.24935 1.321-0.14168 1.5705 0.33436 0.17009 0.32303 0.19844 1.3998 0.073706 2.6295-0.12473 1.2581-0.32884 1.7398-0.92983 2.2158-0.34018 0.26636-0.86746 0.53271-3.2147 1.6038-0.9355 0.42503-2.9936 1.3771-4.5811 2.1195-1.5932 0.74239-3.5322 1.6491-4.3146 2.0118l-1.4231 0.66305 0.045358 1.9665c0.022679 1.0824 0.051027 1.9722 0.062367 1.9835s0.57831-0.23802 1.2587-0.55538c4.292-2.0005 8.788-3.984 10.767-4.7604 1.9107-0.74806 2.6421-0.91241 3.1524-0.71406 0.53295 0.19835 0.70871 0.59505 0.70871 1.5811-0.0056697 0.78773-0.17009 2.2442-0.30049 2.6749-0.22112 0.71972-0.98653 1.5811-1.8767 2.1138-0.19844 0.11901-0.99787 0.44204-1.7689 0.71972-2.7158 0.98608-5.5903 2.1082-11.13 4.358l-0.67469 0.27202 0.039688 1.4905c0.022679 0.81607 0.051027 1.6491 0.073706 1.8532l0.034018 0.35703 1.0489-0.43637c4.0028-1.6775 8.9071-3.5306 11.073-4.188 2.0468-0.61772 3.073-0.62338 3.6513-0.017001 0.41389 0.43637 0.48192 1.1108 0.28915 2.9526-0.1304 1.2751-0.23813 1.7625-0.49893 2.2045-0.18143 0.30602-0.57264 0.68006-0.9355 0.8954-0.32884 0.18702-1.202 0.47604-1.7519 0.56671-1.3097 0.22668-2.7611 0.64605-5.596 1.6151-2.3302 0.79906-6.9227 2.4765-7.0191 2.5672-0.045358 0.03967 0.11906 4.3864 0.17009 4.443 0.0056697 0.005667 0.52161-0.18702 1.1396-0.42503 5.6243-2.2045 10.806-3.7856 12.916-3.9443 0.8051-0.056672 1.3947 0.085007 1.7293 0.4137 0.14741 0.14734 0.27215 0.34569 0.31183 0.48737 0.090715 0.32869 0.085046 1.0484-0.022679 2.0855-0.051027 0.48737-0.079376 0.93508-0.062367 0.99741 0.011339 0.068006 0 0.40803-0.028348 0.7594-0.16442 1.8872-1.0376 2.9242-2.6761 3.1679-0.31183 0.051004-3.0446 0.74239-6.0723 1.5471s-5.8001 1.5358-6.1516 1.6265l-0.64635 0.16435 0.039688 0.47604c0.11339 1.4508 0.36286 3.2983 0.51027 3.8593 0.073706 0.27202 0.12473 0.30602 1.2927 0.8444 5.0857 2.3519 11.952 4.1257 19.39 4.9984 5.012 0.58371 9.7235 0.60072 14.157 0.03967l0.81644-0.10201v9.1524 9.1524h-26.069-26.069l-0.045358-0.64039z"/>
<path d="m83.452 146.18c-0.20978-0.045336-0.58398-0.15301-0.83345-0.23235-1.0319-0.34003-3.4982-0.82173-7.0304-1.3714-3.5889-0.56105-4.343-0.62905-7.2175-0.62338-4.4564 0-7.8072 0.28902-9.423 0.80473-0.28349 0.090674-0.67469 0.16435-0.98086 0.18135-0.45358 0.028336-0.53295 0.017001-0.74273-0.10768-0.14741-0.090674-0.28348-0.23802-0.3742-0.41937l-0.14741-0.27769 0.068036-2.1875c0.039688-1.2071 0.096385-2.3462 0.1304-2.5332 0.16442-0.96908 0.79376-1.7058 1.7576-2.0685 0.73139-0.27202 4.1219-0.61772 7.0248-0.71406 2.5287-0.090674 5.5563 0.028336 8.3571 0.32869 1.321 0.13601 4.3997 0.95208 7.4103 1.9608 1.8483 0.61772 2.8915 1.0484 3.2657 1.3601 0.31183 0.25502 0.54429 0.67439 0.66335 1.1958 0.17576 0.75373 0.28349 3.7856 0.14741 4.2617-0.028348 0.11901-0.12473 0.27769-0.20978 0.35703-0.14174 0.13601-0.20411 0.14734-0.81644 0.15868-0.40822 0.005667-0.81644-0.022669-1.0489-0.073673z"/>
<path d="m84.133 134.13c-0.53295-0.051004-1.0262-0.18135-1.8143-0.48171-0.82211-0.31169-1.8767-0.57805-3.8441-0.96908-2.8292-0.56671-5.5393-0.98608-7.0248-1.0824-1.9901-0.13601-5.5847 0.045337-8.5783 0.42504-1.9164 0.24935-3.107 0.51004-4.2183 0.92374-0.84479 0.31736-1.3154 0.36836-1.6952 0.17001-0.17576-0.096341-0.30049-0.21535-0.37987-0.37403-0.11339-0.21535-0.11906-0.34003-0.10772-2.2612 0.0056697-1.1164 0.039688-2.1988 0.073706-2.4142 0.1304-0.88974 0.70304-1.6378 1.5592-2.0515 0.90148-0.4307 5.0574-1.0938 7.9886-1.2751 2.3473-0.14735 5.2388-0.12468 7.4443 0.056671 2.4947 0.20402 9.1906 2.2498 10.642 3.2529 0.29482 0.20402 0.61233 0.64605 0.7484 1.0428 0.15875 0.4477 0.23246 0.96908 0.33451 2.2782 0.20978 2.6579 0.12473 2.8732-1.1283 2.7599z"/>
<path d="m82.698 122.23c-0.26081-0.056672-0.6917-0.19268-0.95251-0.30036-0.98653-0.3967-1.27-0.48737-2.1715-0.71406-1.6782-0.42503-4.4054-0.92941-6.9624-1.2864-1.0886-0.15868-1.287-0.16435-3.2147-0.16435-1.6726 0-2.3019 0.028335-3.3905 0.13601-1.7519 0.17568-3.0163 0.33436-4.2636 0.54404-1.8767 0.31169-2.489 0.47604-4.3997 1.1731-0.81077 0.29469-1.4288 0.18135-1.6385-0.30036-0.10205-0.23235-0.10772-0.39103-0.068036-2.4199l0.039688-2.1705 0.1871-0.3967c0.33451-0.70839 0.9922-1.2808 1.7633-1.5358 0.71438-0.23235 3.0503-0.70839 4.8079-0.98041 2.455-0.37403 4.5754-0.52704 7.4103-0.52704 3.09 0 3.7817 0.068005 6.1573 0.65172 3.4585 0.83874 6.5712 1.9608 7.3366 2.6352 0.55563 0.48737 0.76541 1.1504 0.90715 2.8336 0.17576 2.1422 0.15875 2.5615-0.11906 2.8052-0.12473 0.11334-0.21545 0.13601-0.54996 0.13034-0.22112 0-0.61233-0.051004-0.8788-0.11334z"/>
<path d="m55.438 111.26c-0.28349-0.10201-0.4309-0.26069-0.49893-0.55538-0.022679-0.11901-0.045358-1.1051-0.045358-2.1818 0.0056697-1.9325 0.011339-1.9722 0.15308-2.3235 0.10205-0.26636 0.24947-0.45904 0.5613-0.7764 0.68036-0.66872 0.94684-0.77073 3.6059-1.3658 3.9858-0.88974 7.6144-1.2978 11.612-1.3034 1.7066-0.005668 2.1602 0.011333 2.6818 0.10201 4.3827 0.74239 8.1644 1.8418 9.0375 2.6352 0.53862 0.48171 0.72005 1.0371 0.90148 2.8109 0.19844 1.9438 0.15875 2.4539-0.20411 2.6182-0.36853 0.16435-1.5138-0.022669-2.489-0.40803-1.0602-0.41937-2.3529-0.70839-4.927-1.0938-2.5797-0.38536-3.9461-0.52138-5.6414-0.55538-1.7349-0.034003-2.4607 0.011335-4.7002 0.28902-3.7987 0.4647-6.7243 1.0938-8.3004 1.7795-0.53862 0.23802-1.1453 0.41937-1.3891 0.4137-0.068036 0-0.22679-0.03967-0.35719-0.085007z"/>
<path d="m54.718 100.93c-0.1871-0.073672-0.4309-0.3967-0.47059-0.61205-0.022679-0.10768-0.028348-1.0598-0.017009-2.1252l0.017009-1.9325 0.16442-0.33436c0.21545-0.4477 0.70871-0.90107 1.253-1.1618 0.75974-0.35703 4.5584-1.0994 7.7221-1.5018 2.6591-0.34569 6.917-0.60638 8.3345-0.51571 2.455 0.15301 7.0644 1.0994 9.0035 1.8475 0.69737 0.27202 0.98086 0.43637 1.2473 0.73673 0.4309 0.47604 0.53862 0.83873 0.70304 2.4425 0.19277 1.9098 0.15308 2.3859-0.20978 2.5502-0.37987 0.17001-1.4004 0.017002-2.6478-0.40237-1.27-0.42503-2.8519-0.70839-5.8681-1.0371-3.8837-0.4307-5.5506-0.42503-9.0885 0.022668-3.4188 0.4307-6.4578 1.0371-7.9376 1.5755-0.32317 0.12468-0.78809 0.28336-1.0262 0.3627-0.43657 0.14734-0.94684 0.18135-1.1793 0.085007z"/>
<path d="m53.709 90.85c-0.30049-0.31736-0.32317-0.53838-0.32317-2.6069v-1.8702l0.17576-0.3627c0.29482-0.58371 0.81644-0.96908 1.5818-1.1674 0.51027-0.13034 3.7874-0.66872 5.1084-0.83874 1.3437-0.17568 3.1524-0.35136 4.6832-0.45904 1.4571-0.10201 6.146-0.10201 7.382 0 3.1013 0.26069 5.0801 0.61205 7.0815 1.2694 1.3494 0.44204 1.4174 0.47037 1.6726 0.65739 0.39688 0.28336 0.44791 0.47604 0.65202 2.3972 0.10206 0.95208 0.1871 1.8135 0.19277 1.9155 0.022679 0.73106-0.81644 0.86707-2.3699 0.38536-2.506-0.78206-5.4939-1.1788-9.406-1.2411-5.2161-0.07934-8.9638 0.39103-14.923 1.8928-1.168 0.28902-1.2587 0.29469-1.5081 0.028336z"/>
</g>
</g>
</g>
</g>
</g>
</svg>
