<?xml version="1.0" encoding="UTF-8"?>
<svg version="1.1" viewBox="0 0 1000 300" xmlns="http://www.w3.org/2000/svg">
<title>Polufka</title>
<desc>Created with Sketch.</desc>
<g fill="none" fill-rule="evenodd">
<g transform="translate(-140 -5675)">
<g transform="translate(140 5675)">
<rect width="1e3" height="300" fill="#fff" fill-opacity=".01"/>
<g transform="translate(116 33)" fill="#000" fill-rule="nonzero">
<g transform="translate(384.15 117.61) scale(-1 1) rotate(180) translate(-383.84 -117.32)">
<path d="m208.37 234.17c-4.5871-1.2556-7.0692-6.4349-7.8233-16.417-0.18851-2.417-0.53412-7.7847-0.81689-11.96-0.72263-11.175-1.728-18.834-6.2209-47.147-0.81689-5.0538-2.2307-14.094-3.2047-20.058l-1.6966-10.829 0.84831-2.5112c1.1625-3.3901 3.5189-16.134 3.5189-19.022 0-2.8879-0.72263-7.408-1.7909-11.049-1.728-5.8699-6.0638-15.036-10.054-21.157l-2.1051-3.2331 0.15709-2.6995c0.21993-4.1121 1.9794-6.7488 5.7182-8.6008 5.5297-2.7309 13.353-1.9462 32.675 3.2645 27.083 7.3452 32.487 8.6636 41.724 10.202 8.2003 1.3498 9.9912 1.4753 24.224 1.8206 7.4462 0.15695 14.044 0.40807 14.704 0.50224 0.62837 0.12556 2.3564 0.78475 3.8017 1.4753 3.3932 1.6323 6.1267 4.3946 6.8807 6.9999 1.0054 3.3273 0.43986 6.9058-1.2567 7.973-2.7648 1.7264-17.626 1.5695-31.387-0.34529-12.159-1.695-29.628-5.3363-40.844-8.5694-15.207-4.3318-23.25-6.0582-28.151-6.0582-3.7388 0-5.4669 1.0045-7.1635 4.1121-0.62837 1.1928-0.69121 1.8206-0.65979 5.6188 0.062837 5.1479 0.75405 10.045 4.5557 31.923 1.5395 8.8519 3.2047 18.614 3.676 21.753 2.2621 15.098 5.624 32.457 11.625 60.363 4.4929 20.654 4.4929 20.654 3.3932 24.955-1.6652 6.4349-4.6814 9.1658-10.085 9.1344-1.4453-0.031389-3.3618-0.21973-4.2415-0.43946z"/>
<path d="m482.75 234.17c-5.9381-1.3812-13.007-6.4977-19.291-14-3.6132-4.3318-5.9067-7.8788-8.3888-13.027-5.027-10.359-7.2577-19.336-11.028-44.197-0.56554-3.6412-1.2567-7.408-1.5395-8.4125-0.75405-2.6367-2.4507-5.5874-5.6868-9.825-5.9067-7.7533-7.2891-9.982-7.2891-11.52 0-0.6278 0.91114-1.7892 3.3932-4.3318 1.8851-1.9148 3.6446-3.8609 3.8645-4.3004 0.84831-1.6009 0.37702-8.695-1.8537-28.533-1.8223-16.354-3.8645-29.82-7.0692-46.802-3.7388-19.87-6.6608-26.932-13.322-32.175-1.7909-1.4439-1.0997-1.4125-8.5459-0.21973-3.9273 0.6278-4.2415 0.6278-5.027 0.12556-2.1365-1.4125-4.43-6.6546-4.43-10.139 0-2.3856 0.94256-3.5157 4.4615-5.2735 2.5449-1.2242 3.1105-1.4125 5.6868-1.5067 8.0746-0.37668 15.05 3.7982 22.15 13.278 6.755 8.9461 10.588 18.426 13.667 33.775 1.0054 4.9282 2.9219 18.677 5.1841 36.914 0.87972 7.3452 1.9165 15.507 2.2621 18.143 0.37702 2.6054 1.2567 9.4483 2.0108 15.161 0.72263 5.6816 1.3824 10.673 1.4767 11.049 0.12568 0.69058 0.37702 0.69058 8.326 0.9103 19.762 0.50224 41.85 2.9193 56.962 6.2152 7.4777 1.6009 8.4202 1.9776 10.305 3.9865 2.4821 2.6054 4.4615 5.7129 5.0898 7.9102l0.28277 0.97308-2.3878-0.15695c-1.3196-0.094169-4.8699-0.6278-7.8861-1.1928-6.001-1.0986-14.578-2.1345-21.867-2.6995-6.755-0.47085-30.728-1.0673-35.126-0.84752-6.5979 0.34529-9.6141 1.2556-11.091 3.4529-0.72263 1.0986-0.78547 1.5067-0.78547 5.0224 0 10.704 5.1841 35.69 9.9912 48.121 2.4192 6.2466 4.9013 10.767 8.5145 15.507 3.2675 4.3004 6.1895 6.1838 9.9912 6.4349 1.6652 0.12556 2.2307 0 3.299-0.6278 2.6706-1.5381 4.0216-4.2376 5.5297-11.175 1.0054-4.7085 1.0368-15.695 0.031419-21.22-0.37702-1.9776-0.62838-3.6726-0.56554-3.7354 0.31419-0.34529 2.9848 1.9148 4.4615 3.7982 7.4462 9.3542 11.531 21.816 9.7398 29.852-0.87972 3.9551-2.2307 6.278-5.4669 9.5111-2.8591 2.8879-5.2783 4.426-8.5773 5.4304-2.2621 0.72197-7.0692 0.87892-9.457 0.34529z"/>
<path d="m80.809 231.09c-9.6455-0.69058-28.528-3.1076-38.111-4.8654-7.4148-1.3812-17.437-3.6726-22.244-5.1165-8.5773-2.6054-13.322-5.0224-16.903-8.5694-1.9165-1.9148-2.2621-2.4484-2.9219-4.5829-0.53412-1.7578-0.69121-2.9506-0.56554-4.5515 0.12567-1.9776 0.21993-2.2601 1.2882-3.2332 2.1993-1.9776 2.5449-1.9462 14.358 1.9462 18.129 5.9641 27.114 8.3497 38.425 10.233 8.1689 1.3498 15.144 2.2601 23.721 3.0448 8.8915 0.84752 33.21 0.84752 40.907 0 20.579-2.2601 29.628-6.121 29.659-12.619 0.031419-5.6188-3.1733-13.09-8.4831-19.744-3.9902-4.991-13.95-14.188-21.71-19.995-12.348-9.2914-31.701-19.273-60.67-31.233-4.9013-2.0403-11.845-4.9596-15.395-6.4663-3.5817-1.5381-6.5979-2.7623-6.6922-2.7623-0.37702 0-0.15709 3.7982 0.62837 11.771 1.0368 9.9506 1.6652 14.439 3.7702 26.116 2.1051 11.614 1.9794 11.143 4.65 19.273 4.5243 13.843 5.0584 15.758 4.9956 17.578-0.062837 3.6726-1.5709 6.4663-3.9902 7.4394-1.351 0.53363-5.0584 0.72197-6.5351 0.3139-0.87972-0.21973-3.8645-4.0493-5.4669-7.0313-2.3564-4.3004-4.2415-10.045-6.001-17.955-0.47128-2.1973-1.5709-6.9999-2.4507-10.704-0.91114-3.7354-2.0108-8.9147-2.4821-11.551-1.1939-6.8744-3.9902-25.771-5.2783-35.91-2.1051-16.48-2.2307-18.646-2.0422-35.439 0.094256-8.3497 0.31419-17.013 0.53412-19.273 1.5081-17.578 4.0216-27.215 8.1374-31.013 1.4138-1.287 1.8851-1.4439 4.43-1.3184 3.079 0.15695 5.5925 1.7578 6.975 4.4574 1.2882 2.4798 1.1939 6.9999-0.75405 35.941-1.1311 17.264-1.2882 27.372-0.37702 29.13 0.53412 1.0673 0.87972 1.2242 8.0118 3.6412 4.053 1.4125 9.4256 3.3273 11.876 4.269 30.225 11.583 68.776 33.43 87.658 49.627 10.054 8.6322 15.238 15.695 19.605 26.681 3.3932 8.6008 4.053 12.211 3.079 17.013-1.4138 7.1883-6.001 12.273-15.207 16.888-9.0172 4.5201-23.595 7.5336-41.221 8.4752-5.4354 0.28251-23.69 0.37668-27.209 0.094169z"/>
<path d="m521.71 224.34c-2.7334-0.97308-5.5925-4.2062-6.7236-7.5963-0.56554-1.695-0.78547-4.1121-1.351-13.749-1.2567-21.785-2.7334-39.457-4.1473-50.255-0.72263-5.556-0.81689-5.2107 1.4138-4.9596 4.43 0.50224 10.714 1.4125 10.871 1.6009 0.094257 0.094169 1.0368 5.0224 2.1051 10.986 1.0368 5.9641 3.1733 17.139 4.7128 24.829 5.1841 25.677 5.8753 31.327 4.2101 34.686-1.5081 3.0448-4.7128 4.8968-8.4202 4.834-0.91114-0.031389-2.1051-0.18834-2.6706-0.37668z"/>
<path d="m343.41 213.51c0-0.72196 0.12568-1.0045 0.40844-0.87891 0.25135 0.094169 3.6132 0.34529 7.5091 0.59641 7.8233 0.50224 7.5719 0.59641-2.8905 1.0986l-5.027 0.25112v-1.0673z"/>
<path d="m379.19 213.54c-0.5027-0.81614 0.43986-1.0045 5.1527-1.0045s4.9327 0.03139 4.9327 0.65919-0.21993 0.65919-4.9327 0.65919c-2.9534 0-5.027-0.12556-5.1527-0.3139z"/>
<path d="m392.39 213.61c-2.1679-0.15695-2.4192-0.50224-0.91114-1.1928 1.0682-0.47085 2.1993-0.53363 7.6976-0.47085 6.3466 0.09417 6.4094 0.09417 5.2155 0.65919-0.69121 0.3139-2.7648 0.72197-4.7756 0.9103-3.5503 0.34529-3.9902 0.34529-7.2263 0.09417z"/>
<path d="m407 200.42l-0.18851-11.771-1.5081-8.5694c-1.2253-6.9685-4.4929-26.87-4.4929-27.403 0-0.06278-0.59696-0.12556-1.3196-0.12556h-1.3196v-2.0717c0-2.3856 0.56554-13.686 0.84831-17.61 0.21993-2.5426 0.28277-2.7309 0.94256-2.7309h0.72263l-1.2253-4.8654c-1.3824-5.5246-2.4192-12.148-2.9848-19.368-0.21993-2.6995-0.47128-5.0538-0.59696-5.1793-0.31419-0.37668-1.6966 6.0896-1.948 8.9775l-0.21993 2.4798-0.59696-2.3228c-0.75405-2.9193-0.75405-7.9416 0-11.677 0.40844-2.0403 0.59696-5.0538 0.69121-11.018l0.12568-8.1613 0.87972 0.18834c1.948 0.47085 4.2729 1.9148 6.1267 3.7668l1.948 1.9462-0.062838 11.332c-0.062837 12.744 0.34561 22.695 1.2882 31.421 0.34561 3.2645 0.78547 9.5111 0.97398 13.843 0.40844 8.538 1.0368 15.412 2.8277 31.17 2.1679 19.242 2.7963 26.932 2.7963 34.78v4.7712h-1.7594-1.7909l-0.15709-11.803z"/>
<path d="m388.78 210.41c-1.0997-0.25112-2.1993-0.47085-2.4507-0.47085-1.728-0.09417 2.7334-1.6637 4.6814-1.6637h1.5709v1.3184c0 1.2242-0.094256 1.287-0.91114 1.287-0.5027-0.03139-1.8223-0.25112-2.8905-0.47085z"/>
<path d="m300.71 206.89c0.43986-8.0044 2.1051-18.928 4.2101-27.623l1.0682-4.4574 1.5395-0.09417c1.3824-0.094169 1.6338-0.25112 2.1051-1.1614 0.31419-0.59641 0.75405-2.5426 1.0054-4.3632 0.59696-4.5201 0.59696-4.426-0.47128-4.4574-1.7594 0-1.7909-0.18834-0.62837-4.6143 0.59696-2.2601 1.5081-4.9282 1.9794-5.9641 0.87972-1.852 3.6132-4.7399 4.1473-4.426 0.43986 0.28251 1.0368 2.982 1.0368 4.8026 0 1.6323 0 1.695 0.87972 1.6009 1.0997-0.12556 1.1939-0.56502 1.9165-6.8744 0.5027-4.7399 0.65979-10.547 0.25135-10.547-0.15709 0-1.0682 0.21973-2.0736 0.50224-1.0054 0.25112-2.1365 0.47085-2.5763 0.47085-0.81689 0.03139-0.81689 0.03139 0.15709-3.6412l0.5027-1.852 3.6132-1.5695c2.0108-0.87891 4.3672-2.1345 5.2469-2.8565 1.8851-1.5067 2.1993-1.5381 2.4821-0.43946 0.28277 1.13-0.31419 2.6054-1.8537 4.6143-0.72263 0.94169-1.2882 1.9148-1.2882 2.1659 0 0.25112 0.34561 1.0359 0.81689 1.695 0.94256 1.4125 1.0054 1.6637 0.28277 2.2601-1.6338 1.3498-2.8591 6.2466-3.4561 13.812l-0.40844 5.1165-2.3878 4.6143c-5.624 10.767-7.729 17.202-7.729 23.574v2.8879l1.0368 0.34529c1.3196 0.47085 1.6966 0.15695 2.4821-1.8834 0.47128-1.2242 0.59696-2.417 0.56554-5.9013 0-3.704 0.062837-4.3632 0.47128-4.3632 0.28277 0 0.87972-0.34529 1.3196-0.75336l0.81689-0.72197-0.21993 6.9058c-0.28277 9.825-0.97398 13.09-3.299 15.475l-1.3196 1.3498-0.37702-2.3228-0.37702-2.2915-0.72263 1.5695c-0.97398 2.2287-1.728 5.2735-1.948 8.0044l-0.15709 2.3542 6.378 0.21973c6.4094 0.21973 15.238 1.0359 16.086 1.5067 0.25135 0.12556-4.7442 0.34529-11.059 0.47085s-13.479 0.3139-15.898 0.40807l-4.3672 0.21973 0.21993-3.7668z"/>
<path d="m345.29 210l-3.8645-0.12556v-1.287c0-0.84752 0.15709-1.3184 0.40844-1.3184 0.91114 0 20.265 1.0045 25.669 1.3184 5.6868 0.34529 9.457 0.72197 12.693 1.287 1.5709 0.28251-25.826 0.34529-34.906 0.12556z"/>
<path d="m390.82 181.97c-0.69121-4.3004-1.6024-10.484-2.0736-13.749-0.75405-5.3677-0.94256-6.1838-2.1051-8.5694-0.72263-1.4439-1.5395-3.5157-1.8223-4.6143-0.62838-2.4798-0.62838-7.0313 0-11.049 0.8483-5.2735 0.69121-4.9282 2.1679-4.9282 0.75405 0 1.351 0.15695 1.4453 0.40807 0.25135 0.84752 1.5395 9.7308 1.6966 11.771l0.18851 2.1345-1.1939-1.6009-1.1625-1.6323v1.287c0 2.1031 0.78547 6.121 2.8905 14.314 2.3878 9.2286 3.2047 14.282 2.8905 17.798-0.21993 2.574-1.0997 6.278-1.4767 6.278-0.12568 0-0.78547-3.547-1.4453-7.8475z"/>
<path d="m653.54 174.62c-7.8861-1.4125-19.291-7.8161-29.722-16.637-3.9588-3.3587-10.651-10.296-13.51-14-16.558-21.471-25.606-45.735-22.904-61.65 1.1311-6.8116 3.7702-12.713 7.4462-16.637 2.8591-3.0448 4.9327-4.1435 8.2945-4.3632 7.5405-0.47085 21.805 5.2107 32.047 12.776 5.5925 4.1435 9.2685 7.408 19.323 17.39 5.5611 5.4618 10.211 9.9506 10.305 9.9506 0.12568 0.03139 0.25135-0.21973 0.25135-0.47085 0-0.28251 0.43986-1.9148 1.0054-3.6412 2.8277-8.8833 11.531-16.448 20.988-18.3 2.7334-0.53363 11.939-0.21973 15.269 0.50224 8.9543 1.9776 19.48 7.4394 29.251 15.224 4.3044 3.4215 18.851 16.511 22.841 20.529 4.3672 4.426 9.2371 10.233 10.243 12.211 2.3564 4.6143 3.7702 12.399 2.5763 14-0.47128 0.59641-0.56554 0.59641-1.3196 0.094169-0.43986-0.28251-2.2936-2.1345-4.0844-4.0807-16.746-18.237-30.79-30.134-43.326-36.663-11.594-6.0582-21.836-7.7533-28.497-4.7085-5.5611 2.5426-10.085 8.538-12.159 16.197-0.62838 2.3856-0.75405 3.547-0.72263 7.9102 0.031419 6.121 0.28277 7.6591 3.5817 21.533 3.0162 12.933 3.3304 14.879 2.6706 17.421-1.0997 4.1748-3.4875 8.9461-5.781 11.551-1.5081 1.695-3.4875 2.6054-7.4462 3.4215-2.8277 0.59641-14.138 0.87892-16.621 0.43946zm9.2999-13.937c1.3824-0.59641 2.3564-1.6637 3.2675-3.6726 0.72263-1.5695 0.75405-2.0089 0.75405-9.3856 0-6.5605-0.094256-8.3811-0.72263-11.708-1.2882-7.0313-3.7702-14.471-6.8493-20.592-4.0216-8.0044-12.253-17.986-19.794-24.045-8.6716-6.9685-20.265-12.493-28.434-13.592-2.9219-0.37668-3.0476-0.37668-4.6186 0.40807-1.1939 0.59641-1.8537 1.2242-2.6392 2.5426-4.3358 7.251-2.3878 19.587 5.6868 36.161 4.3044 8.8833 9.2999 16.95 14.296 23.166 3.2047 3.9865 10.274 10.829 14.17 13.717 5.0584 3.7668 11.059 6.4977 15.615 7.0941 3.4561 0.43946 8.106 0.40807 9.2685-0.094169z"/>
<path d="m587.53 170.54c-4.1787-1.2242-7.3834-3.3587-12.63-8.3811-4.8071-4.6457-7.6033-7.973-14.39-17.013-7.7918-10.39-16.212-20.56-31.544-38.044-11.782-13.466-15.081-17.202-15.207-17.076-0.062837 0.06278 0.25135 2.2287 0.69121 4.8654 0.43986 2.6054 1.5395 10.547 2.4507 17.61 2.3564 18.237 2.6078 20.089 2.5449 20.184-0.031419 0.03139-2.4507-0.37668-5.3412-0.9103-2.8905-0.53363-5.7182-1.0359-6.2523-1.13l-1.0368-0.18834-0.40844-3.5157c-1.6966-15.036-5.9381-45.955-7.6033-55.623-1.6338-9.4797-2.1051-13.341-2.1365-18.143-0.031419-7.2824 0.5027-8.13 5.2469-8.0986 4.7128 0.03139 6.975 1.0045 8.2945 3.6412 1.0997 2.2287 1.4767 4.8026 1.7909 12.211 0.34561 9.0089 0.87972 10.829 4.5557 16.04 2.3564 3.2959 4.8385 6.2466 9.5199 11.143l3.9902 4.2062 2.1051-1.2556c2.8591-1.7264 10.243-9.1658 16.275-16.448 12.536-15.13 18.694-21.094 25.952-25.049 8.2631-4.5201 17.752-4.9596 27.303-1.3498 7.3206 2.8251 17.594 9.6053 25.543 16.919l1.8851 1.7264-4.6186-2.2601c-2.5449-1.2556-6.4723-2.8879-8.703-3.6098-9.4256-3.1076-15.018-3.1704-19.542-0.21973-1.2882 0.84752-2.1993 1.1614-4.3358 1.4439-4.9327 0.6278-9.8655 2.7937-14.798 6.4349-1.5395 1.13-7.9489 7.2824-15.647 15.004-9.3942 9.3856-14.013 13.78-16.495 15.632-1.8851 1.4125-3.6132 2.6367-3.8645 2.7309-0.25135 0.094169-0.43986 0.28251-0.43986 0.40807 0 0.3139 5.0584 6.3407 9.8655 11.74 8.6716 9.7308 20.296 21 30.131 29.224 6.9121 5.7443 14.547 13.184 16.055 15.569 0.78547 1.2242 1.0368 2.0089 1.0368 3.2018 0 3.1704-2.0422 6.686-4.6814 8.0358-1.3824 0.72197-3.8017 0.87892-5.5611 0.34529z"/>
<path d="m153.73 157.48c-10.337-1.2556-24.318-10.892-35.346-24.358-14.453-17.672-22.621-31.139-27.052-44.511-1.9165-5.8699-2.8591-10.578-3.3618-16.825-0.31419-4.1435-0.28277-5.2107 0.15709-7.5022 2.1365-10.767 12.41-22.381 21.145-23.888 1.6652-0.28251 3.676-0.28251 8.2317 0.03139 13.479 0.87891 22.527 3.1076 32.079 7.8161 11.279 5.5874 21.145 14.816 29.534 27.749 6.6294 10.139 11.216 22.506 11.216 30.228 0 2.3542-2.5449 15.758-3.5189 18.457-1.1939 3.2332-5.5925 11.928-6.8493 13.529-0.59696 0.72197-2.3878 3.2645-4.0216 5.6188-4.9013 7.1255-10.243 11.897-14.798 13.152-2.2621 0.6278-4.8699 0.81614-7.4148 0.50224zm1.2567-18.614c5.1527-1.2556 12.442-5.8385 15.647-9.8564 3.9273-4.9282 5.7496-12.399 5.404-22.224-0.31419-9.2286-1.8223-14.188-6.378-20.717-5.8439-8.3811-11.342-14.22-18.16-19.305-11.059-8.2241-16.369-10.202-28.497-10.673-4.3358-0.18834-5.3726-0.12556-6.8493 0.37668-3.5189 1.1614-7.3206 4.8968-9.5513 9.3856l-1.2253 2.4798 0.062838 4.1121c0.062837 6.3094 1.6652 14.847 3.7702 20.058 2.8277 7.0941 9.3314 17.17 18.82 29.224 6.8493 8.7264 9.5199 11.834 11.656 13.717 4.1787 3.6412 5.8125 4.3318 10.023 4.1121 1.6966-0.094169 4.0844-0.40807 5.2783-0.69058z"/>
<path d="m325.15 151.83c-0.53412-4.3004 0.12568-9.3542 1.6338-12.43 0.56554-1.1614 1.8223-2.7623 3.3932-4.3004l2.5135-2.4798v-1.8206-1.7892l1.5709-0.3139c1.2253-0.21973 1.6652-0.47085 2.0422-1.1614 0.69121-1.3812 3.1419-1.7892 10.085-1.7578l5.7496 0.03139-3.6132-1.0673c-2.0736-0.56502-3.2675-1.0673-2.7963-1.0986 0.43986-0.03139 4.43-0.21973 8.8287-0.40807 4.43-0.18834 9.3314-0.50224 10.934-0.72196l2.9219-0.34529 4.4929 1.852c2.4821 1.0359 6.0324 2.2287 7.9804 2.6681 1.948 0.43946 3.6446 0.97308 3.7702 1.1928 0.62838 1.0045 0.65979 2.6054 0.094256 3.3901-0.5027 0.72196-0.87972 0.81614-2.4507 0.84752-1.0054 0-2.702-0.28251-3.7702-0.65919-1.7594-0.59641-2.7648-0.65919-13.007-0.65919-14.955 0-23.658 0.59641-30.413 2.0089l-1.5395 0.34529-1.6966 5.3363c-4.9013 15.318-4.7442 14.879-5.6554 14.973-0.81689 0.094169-0.87972 0-1.0682-1.6323z"/>
<path d="m309.63 150.67c-0.094256-1.2242-0.28277-3.8923-0.40844-5.9327-0.18851-3.3273-0.15709-3.704 0.31419-3.704 0.40844 0 0.56554 0.28251 0.56554 1.0986 0 1.1928 0.37702 1.5381 1.8537 1.5381 0.75405 0 0.78547 0.06278 0.59696 1.2242-0.62837 3.6098-1.5709 6.9999-2.1051 7.4708-0.56554 0.50224-0.62838 0.43946-0.81689-1.695z"/>
<path d="m363.42 147.88c0.25135-1.13 0.5027-2.1031 0.56554-2.1659 0.094256-0.09417 0.87972 3.3587 0.87972 3.9237 0 0.15695-0.43986 0.28251-0.97398 0.28251h-0.97398l0.5027-2.0403z"/>
<path d="m310.76 140.53c0-1.695 0.094256-2.1345 0.47128-2.1345 0.31419 0 0.5027 0.28251 0.5027 0.81614 0 0.69058 0.15709 0.81614 1.0054 0.81614 0.97398 0 1.0054 0.06278 0.91114 1.2242-0.094256 1.2242-0.15709 1.2556-1.5081 1.3498l-1.3824 0.094169v-2.1659z"/>
<path d="m393.39 136.95c-0.65979-0.72196-1.4453-2.2287-2.1051-4.0493l-1.0682-2.9193-3.2047-1.7264c-3.1419-1.695-3.2361-1.7892-3.8017-3.4843-0.72263-2.0089-1.9165-3.7354-2.8591-4.0179-0.53412-0.18834-0.56554-0.34529-0.31419-1.0359 0.43986-1.13 0.47128-1.0673-1.0997-1.7578-4.9956-2.2287-14.861-2.2287-29.596-0.03139-4.9956 0.72197-10.305 1.4125-11.813 1.5381-3.079 0.25112-3.3618 0.12556-3.3618-1.7892 0-0.81614 0.28277-1.3184 1.1311-2.0717 0.65979-0.56502 1.2253-1.4439 1.4138-2.1973 0.28277-1.2242 0.28277-1.2242 3.5817-2.1659 3.2047-0.9103 3.3932-0.9103 9.3942-0.72196 9.4256 0.28251 17.783 1.2556 27.931 3.2018l5.3726 1.0673v1.7264c0 0.97308 0.15709 1.7578 0.34561 1.7578 0.15709 0 0.31419-0.37668 0.31419-0.81614 0-0.75336 0.12568-0.81614 1.4767-0.81614 1.3196 0 1.5081 0.06278 1.5081 0.72197 0 1.5067 0.31419 1.6009 3.079 0.9103 1.4453-0.37668 2.6392-0.65919 2.7334-0.65919 0.062838 0 0.12568 0.75336 0.12568 1.6637 0 1.852-0.094256 1.8834-2.4821 1.1614l-1.5709-0.47085 0.21993 1.5381c0.31419 2.2287 1.5081 4.3946 2.9219 5.3049 0.78547 0.50224 1.2253 1.0673 1.2253 1.5067 0 0.40807 0.15709 1.5695 0.37702 2.6367 0.34561 1.6323 0.5027 1.9462 1.3196 2.2287 0.91114 0.3139 0.94256 0.37668 0.94256 2.6054 0 2.6681-0.43986 2.9193-2.1365 1.1614z"/>
<path d="m311.01 132.03c-0.094257-2.1031 0.21993-8.1927 0.53412-9.9506 0.18851-0.97308 0.21993-1.0045 1.8223-0.87891 0.91114 0.062779 1.6652 0.03139 1.6652-0.03139 0-0.094169-0.25135-0.65919-0.56554-1.2556-1.2567-2.5426-0.43986-6.686 1.8537-9.2914 1.0054-1.1614 1.0682-1.3498 1.5081-5.9955 0.25135-2.6367 0.37702-5.5874 0.28277-6.5919l-0.18851-1.8206-1.9165-0.37668-1.948-0.37668-0.37702-1.852c-0.34561-1.7578-0.47128-6.9058-0.15709-7.2197 0.28277-0.28251 2.1365 0.9103 2.2936 1.4753 0.094256 0.3139 0.25135 1.4125 0.37702 2.417 0.40844 3.2018 1.2882 3.4529 2.8277 0.75336l1.0682-1.852-1.3196-1.0986c-0.72263-0.59641-1.728-1.6009-2.1993-2.2287l-0.8483-1.13 1.2567-2.574c0.69121-1.4439 1.6966-3.0134 2.2621-3.5157 0.91114-0.87891 1.1311-0.9103 3.3618-0.81613l2.4192 0.09417-0.062837 9.7308c-0.062837 10.516-0.53412 21.094-1.0368 23.762-0.15709 0.94169-0.31419 1.7578-0.31419 1.8206 0 0.062779-1.3196 0.12556-2.9219 0.12556h-2.9219l-0.21993 1.0359c-0.21993 1.0673 0.21993 1.9148 0.97398 1.9148 0.72263 0 0.87972 0.59641 0.43986 1.7578-0.21993 0.6278-0.28277 1.5067-0.18851 1.9776 0.21993 0.84752 0.31419 0.87892 2.5449 0.87892 1.2567 0 2.2936 0.094169 2.2936 0.18834 0 0.09417-0.21993 0.65919-0.47128 1.2556-0.40844 1.0045-0.59696 1.0986-2.2621 1.287-2.3564 0.25112-4.3358 1.287-5.3098 2.7937-0.72263 1.0986-1.7594 4.1121-2.325 6.7488-0.15709 0.75336-0.37702 0.9103-1.1625 0.9103-0.94256 0-0.94256-0.03139-1.0682-2.0717z"/>
<path d="m391.76 125.9c-0.094256-0.3139-0.25135-1.2556-0.37702-2.1345l-0.21993-1.6009 1.5395 1.1928c0.8483 0.65919 1.6966 1.1928 1.8537 1.1928 0.43986 0 0.37702 0.87891-0.062837 1.1614-0.18851 0.12556-0.8483 0.34529-1.4767 0.47085-0.87972 0.21973-1.1311 0.15695-1.2567-0.28251z"/>
<path d="m334.58 85.757c-0.91114-0.18834-0.91114-0.47085-0.094256-1.4753l0.65979-0.78475 0.81689 1.0045c0.43986 0.53363 0.81689 1.0986 0.8483 1.2242 0 0.25112-0.94256 0.25112-2.2307 0.03139z"/>
<path d="m337.78 81.362c0.37702-0.69058 0.69121-1.3812 0.69121-1.4753s-0.62837-0.15695-1.351-0.15695c-1.2882 0-1.351-0.06278-1.2567-0.9103 0.094257-0.84752 0.28277-0.94169 2.2621-1.3184 2.1365-0.40807 2.7648-0.37668 20.799 0.50224l4.7756 0.25112-2.1365 0.40807c-3.079 0.59641-23.627 4.0179-24.067 4.0179-0.21993 0-0.12568-0.50224 0.28277-1.3184z"/>
</g>
</g>
</g>
</g>
</g>
</svg>
