<?xml version="1.0" encoding="UTF-8"?>
<svg version="1.1" viewBox="0 0 1000 300" xmlns="http://www.w3.org/2000/svg">
<title>PortalMMO</title>
<desc>Created with Sketch.</desc>
<g fill="none" fill-rule="evenodd">
<g transform="translate(-140 -9056)">
<g transform="translate(140 9056)">
<rect width="1e3" height="300" fill="#fff" fill-opacity=".01"/>
<g transform="translate(31 34)" fill-rule="nonzero">
<g transform="translate(469.33 116.1) scale(-1 1) rotate(180) translate(-468.64 -115.64)">
<path d="m810.51 230.46c-29.344-2.8047-62.046-19.701-72.81-37.555-7.4044-12.313-9.0499-24.9-4.7992-37.418 2.5367-7.5247 5.142-11.697 10.764-17.238 13.849-13.75 33.731-16.965 51.146-8.3456 10.421 5.1305 16.454 11.766 21.665 23.737 3.9765 9.2348 8.9128 16.417 15.632 22.779 6.7188 6.3618 14.26 10.877 23.379 13.886 5.9647 1.9838 8.3643 2.3942 16.043 2.7362 21.322 0.82088 38.736-7.4563 52.791-24.968l1.9882-2.531-2.1939 4.3096c-6.9931 14.228-22.693 31.672-37.022 41.181-23.173 15.323-49.637 22.027-76.581 19.427z" fill="#1B6CA0"/>
<path d="m53.339 194.27c-12.615-2.2574-23.31-7.7983-32.84-16.828-9.7355-9.098-15.563-19.017-18.991-32.014-2.0568-7.6615-1.9197-23.19 0.27424-31.193 7.3359-27.02 29.823-46.585 57.247-49.663 4.3878-0.47884 50.117-0.68406 136.37-0.54725l129.85 0.20522 20.774 65.328c11.449 35.913 20.842 65.396 20.842 65.533 0 0.13681-69.382 0.20522-154.26 0.20522-121.97-0.068406-155.29-0.27362-159.26-1.0261zm256.69-56.025v-42.754h-7.6101-7.5416v42.754 42.754h7.5416 7.6101v-42.754zm-87.139 29.415v-10.398h5.759 5.759v-7.5247-7.5247h-5.759-5.759v-14.707c0-9.5085 0.27424-15.323 0.82272-16.486 1.0284-2.189 4.7992-3.6255 8.0215-3.0099l2.331 0.41044v4.8568c0 6.2934 2.2625 10.945 7.1302 14.639 3.8393 2.9415 7.7472 4.2412 20.225 6.7038 11.655 2.3258 12.615 2.6678 12.615 5.4041 0 1.3681-0.82272 3.0099-2.1254 4.4464-1.8511 2.0522-2.5367 2.3258-6.7874 2.5994-2.6053 0.13681-5.5533 0.13681-6.5132-0.13681-2.7424-0.68406-6.0333-3.8308-6.5817-6.225-0.47992-2.1206-0.54848-2.1206-5.2791-2.1206-7.0616 0-10.147 0.68406-10.147 2.1206 0 3.2151 2.5367 8.414 5.6905 11.561 4.3878 4.378 8.4328 5.7461 18.237 6.225 14.055 0.68406 23.173-2.531 27.013-9.5085 1.0284-1.847 1.3026-5.5409 1.5769-25.516 0.3428-20.659 0.47992-23.6 1.6454-25.31 0.6856-1.0261 1.2341-2.0522 1.2341-2.2574 0-0.20522-3.8393-0.41044-8.57-0.41044h-8.57l-0.47992 2.0522-0.47992 2.0522-4.9363-2.531c-10.97-5.6093-25.23-3.3519-31.332 4.9252l-1.7826 2.3942v-4.4464c0-5.4041-0.06856-5.4041-10.901-5.0621-11.929 0.41044-15.426 3.0099-16.523 12.313-0.3428 2.8731-0.61704 11.903-0.61704 20.18v14.981l-5.6219-0.47884c-7.7472-0.68406-12.478-3.0099-15.083-7.4563l-1.9882-3.3519-0.3428-17.58-0.41136-17.649-7.3359-0.20522-7.4044-0.20522v8.8244 8.756l-1.9197-3.8992c-2.7424-5.4041-7.8844-10.329-13.712-13.134-4.5935-2.1206-5.3477-2.2574-13.163-2.2574-6.9931 0-8.9128 0.27362-12.615 1.7102-5.3477 2.189-12.272 8.8244-14.809 14.228-0.95984 2.1206-1.9197 3.7623-2.0568 3.7623-0.20568 0-1.3026-1.9154-2.3996-4.2412-2.7424-5.7461-6.7874-10.124-12.135-12.997-4.3193-2.3258-5.0049-2.4626-11.381-2.4626-7.1302 0-8.4328 0.41044-14.946 5.1305l-1.6454 1.1629v-12.313-12.313h-7.1988-7.1988v40.565 40.633h7.1988 7.1988v-3.0099-2.9415l2.5367 2.2574c4.6621 4.036 6.5817 4.72 13.643 4.72 5.8961 0 6.9931-0.20522 11.312-2.3258 5.4848-2.7362 10.421-7.6615 12.958-13.134 0.89128-1.9154 1.8511-3.4887 2.0568-3.4887 0.13712-0.068406 1.2341 1.847 2.3996 4.2412 2.5367 5.2673 8.3643 10.877 13.918 13.476 3.7708 1.7786 4.9363 1.9838 12.821 1.9838 8.57 0 8.7756-0.068406 14.192-2.7362 6.1018-3.0099 10.147-6.9774 13.095-12.929l1.8511-3.6939v8.756 8.8244h7.5416 7.6101v-3.7623-3.7623l3.0166 3.0099c4.1821 4.1044 7.6101 5.4041 14.398 5.4041h5.6219v10.329 10.329h7.5416 7.5416v-10.466z" fill="#1B6CA0"/>
<path d="m135.95 144.27c-3.6337-1.0945-7.8158-5.6777-9.1184-10.056-2.4681-8.3456-0.82272-18.196 3.7708-22.779 5.6219-5.6093 13.643-5.7461 19.608-0.41044 3.7708 3.4203 5.3477 7.8667 5.3477 14.981 0 7.1827-1.5769 11.561-5.3477 14.981-4.1136 3.6939-8.9128 4.7884-14.26 3.2835z" fill="#1B6CA0"/>
<path d="m78.981 143.24c-6.3075-1.9154-10.147-8.414-10.147-17.102 0-12.929 7.6101-21.069 17.277-18.47 4.2507 1.1629 8.7756 5.8145 10.01 10.329 1.3026 4.5148 0.75416 14.365-0.95984 17.717-3.4965 6.8406-9.4612 9.6453-16.18 7.5247z" fill="#1B6CA0"/>
<path d="m272.59 124.98c-0.61704-0.34203-4.6621-1.2997-9.0499-2.189-4.3193-0.88928-8.7756-2.0522-9.804-2.5994-4.5249-2.3258-5.4848-6.7722-2.1254-10.466 1.8511-2.0522 2.5367-2.3258 6.9245-2.5994 10.832-0.68406 16.112 4.2412 16.18 15.118 0 3.4887-0.27424 3.8307-2.1253 2.7362z" fill="#1B6CA0"/>
<path d="m392.57 194.07c-0.20568-0.27362-9.4612-29.278-20.636-64.439-11.244-35.161-20.636-64.644-20.979-65.602l-0.61704-1.5733 18.785 0.13681 18.785 0.20522 14.809 43.985c8.1586 24.216 15.015 43.985 15.22 43.985s8.4328-7.7299 18.305-17.238l17.963-17.17h8.3643 8.2957l17.894 17.375c10.49 10.124 18.1 17.033 18.374 16.554 0.27424-0.41044 7.0616-20.385 15.152-44.327l14.672-43.506h18.717c16.043 0 18.58 0.13681 18.237 1.0261-0.20568 0.61566-9.4612 29.62-20.568 64.507-11.107 34.887-20.499 64.097-20.911 64.986-0.6856 1.6418-0.75416 1.6418-17.071 1.6418h-16.386l-18.443-18.333-18.374-18.401-17.826 18.401-17.894 18.333h-16.797c-9.187 0-16.934-0.27362-17.071-0.54725z" fill="#484848"/>
<path d="m561.02 181.76c-2.2625-7.1142-4.1136-13.339-4.1136-13.818 0-1.3681 18.305-58.761 18.717-58.761 0.20568 0 3.428 9.0296 7.1302 20.043s6.9931 20.453 7.3359 20.932c0.41136 0.68406 5.9647-4.3096 18.511-16.417l17.963-17.375h8.4328 8.3643l17.757 17.238c9.7355 9.4401 17.963 17.238 18.168 17.238 0.27424 0 1.1655-2.3942 2.0568-5.2673 4.7306-14.776 17.551-44.532 26.67-61.908 19.06-36.118 30.235-50.279 50.323-63.823 8.2957-5.5409 21.185-11.697 28.384-13.544 7.8158-1.9838 20.225-1.5733 27.218 0.82087 25.093 8.6192 36.611 37.418 24.681 61.702-3.5651 7.2511-11.518 15.255-18.58 18.949-8.2272 4.1728-12.546 5.1989-21.596 4.9252-21.459-0.61566-26.464-0.41044-32.36 1.2313-16.317 4.6516-30.989 16.349-38.462 30.646-1.3026 2.3942-6.9245 19.017-12.615 37.008l-10.353 32.698-16.866 0.20522-16.866 0.13681-17.894-18.333-17.894-18.401-18.443 18.333-18.374 18.401h-16.591-16.591l-4.1136-12.86z" fill="#484848"/>
<path d="m887.37 173.34c-12.066-1.9154-19.608-5.4725-26.875-12.655-11.038-10.945-15.563-26.063-12.409-41.044 1.3712-6.4986 4.2507-12.45 9.2556-19.085 8.2272-11.013 12.409-22.027 13.232-34.545 1.9882-32.493-20.225-59.582-53.477-64.986l-6.4446-1.0261 12.958 0.27362c14.535 0.27362 22.008 1.5733 34.623 5.7461 34.211 11.424 61.704 39.197 72.947 73.537 4.3878 13.408 5.4162 19.838 5.4162 36.05 0.068561 17.512-0.82272 22.642-5.8276 32.972-5.4848 11.355-15.769 20.043-27.561 23.327-4.2507 1.1629-12.821 1.9154-15.837 1.4365z" fill="#1B6CA0"/>
</g>
</g>
</g>
</g>
</g>
</svg>
