<?xml version="1.0" encoding="UTF-8"?>
<svg version="1.1" viewBox="0 0 1000 300" xmlns="http://www.w3.org/2000/svg">
<title>PrzystanekPlanszowka</title>
<desc>Created with Sketch.</desc>
<g fill="none" fill-rule="evenodd">
<g transform="translate(-140 -8002)">
<g transform="translate(140 8002)">
<rect width="1e3" height="300" fill="#fff" fill-opacity=".01"/>
<g transform="translate(150 9)" fill="#0B69A6" fill-rule="nonzero">
<g transform="translate(89.705 141.54) scale(-1 1) rotate(180) translate(-89.553 -141.35)">
<path d="m87.181 278.26c-1.4419-2.4379-4.5476-5.43-6.8769-6.6489-2.4402-1.219-6.1005-4.211-8.2079-6.6489-2.8839-3.3245-5.6568-4.9867-11.535-6.7598l-7.6533-2.4379v-20.833-20.723l7.2097-2.4379c3.8821-1.3298 7.4315-2.7704 7.8752-3.1028 0.55459-0.66489-0.99826-19.947-2.4402-29.255-0.55459-3.6569-1.2201-4.4326-4.8804-5.6516-11.979-3.7677-22.96-10.86-34.052-21.941-9.5389-9.5301-11.979-12.744-16.638-22.274-11.979-24.269-13.088-49.091-3.2166-73.803 8.4298-20.833 23.071-36.458 44.145-46.986 23.182-11.636 54.128-11.636 77.31 0 33.386 16.733 53.241 50.31 50.579 85.993-0.88734 13.52-3.2166 21.831-9.6499 34.907-9.428 19.282-30.613 37.677-50.689 44.105-3.5494 1.219-4.4367 2.1055-4.9913 5.0975-0.99826 6.5381-2.7729 29.255-2.3293 29.699 0.22184 0.22163 3.6603 1.6622 7.7643 3.1028l7.3206 2.6596v20.723 20.723l-7.8752 2.4379c-6.2114 1.8839-8.4298 3.1028-10.204 5.984-1.2201 1.9947-4.8804 4.9867-8.097 6.7598-3.8821 2.1055-6.5442 4.5434-8.097 7.4246l-2.1074 4.211-2.662-4.3218zm-2.7729-70.368c-0.22184-0.22163-3.993 0.55408-8.4298 1.8839-4.3258 1.219-10.981 3.1028-14.641 4.211l-6.766 1.8839v17.841c0.11092 11.303 0.55459 18.285 1.2201 18.728 0.77643 0.44326 7.4315 2.4379 14.863 4.4326l13.643 3.7677 0.33275-26.152c0.22184-14.295 0.11092-26.263-0.22184-26.596zm25.289 48.648c6.8769-1.8839 13.088-3.7677 13.643-4.1002 0.66551-0.44326 1.2201-8.3112 1.2201-18.728v-17.841l-6.766-1.8839c-3.6603-1.1082-10.094-2.8812-14.419-4.1002-4.2149-1.219-7.9861-2.3271-8.4298-2.2163-0.33275 0-0.66551 11.968-0.66551 26.707 0 20.833 0.22184 26.596 1.4419 26.152 0.77643-0.22163 7.0987-2.1055 13.976-3.9894zm-29.171-65.935l9.0953-2.992 9.3171 3.1028c5.2131 1.773 9.6499 2.992 9.8717 2.6596 1.1092-0.99734 2.4402-18.506 1.4419-19.06-0.44367-0.33245-5.3241-2.1055-10.759-3.9894l-9.8717-3.3245-10.537 3.5461-10.426 3.5461v4.3218c0 6.0949 1.2201 15.293 2.1074 15.293 0.44367 0 4.7695-1.4406 9.7608-3.1028zm-16.527-27.593c0-2.8812-6.5442-68.373-7.6533-77.793-0.66551-4.8759-1.1092-5.5408-4.104-6.2057-3.2166-0.66489-3.4385-1.1082-3.4385-6.3165v-5.6516l-8.097-4.7651c-4.5476-2.6596-8.2079-5.2083-8.2079-5.6516s3.5494-0.99734 7.8752-1.1082c9.7608-0.33245 18.191-2.7704 40.707-11.857 9.7608-3.9894 21.518-7.9787 26.177-8.9761 15.418-3.2137 27.397 0 39.154 10.638l6.2114 5.5408-3.6603 3.7677c-1.9965 2.1055-6.9878 5.7624-11.203 8.0895-5.8787 3.5461-7.4315 4.9867-7.4315 7.203 0 2.2163-0.44367 2.7704-1.9965 2.3271-1.1092-0.33245-10.315-2.992-20.409-5.984l-18.412-5.3192-8.6516 3.9894c-4.8804 2.2163-8.7625 4.3218-8.7625 4.6543 0 0.33245 3.8821-0.77571 8.7625-2.3271l8.6516-2.992 20.076 6.6489c18.856 6.3165 19.743 6.7598 16.97 8.2004-2.2184 1.219-3.1057 2.7704-3.6603 6.5381-1.9965 14.517-7.8752 79.122-7.2097 79.787 0.33275 0.33245 5.3241-1.6622 10.87-4.4326 15.75-7.9787 31.833-25.044 37.49-39.783 1.1092-3.1028 0.99826-3.2137-1.5529-2.5488-3.6603 0.88653-9.7608-2.3271-11.425-5.984-0.77642-1.5514-1.9965-2.7704-2.8839-2.7704-0.88734 0-2.9948-1.3298-4.5476-2.8812-3.8821-3.8785-3.8821-10.971 0-15.403 2.662-3.2137 3.3275-3.3245 15.085-3.6569l12.312-0.44326-0.66551-5.43c-1.9965-16.401-9.3171-34.02-18.412-44.105-7.0987-7.8679-17.636-13.076-27.729-13.852-9.9826-0.77571-19.189 1.5514-44.367 11.414-25.4 9.9734-36.381 12.411-46.586 10.638-3.993-0.66489-8.097-1.6622-9.0953-1.9947-1.5529-0.66489-2.8839 1.1082-6.766 8.8653-5.3241 10.971-8.2079 21.055-8.2079 29.034v5.43l11.757 0.44326c11.203 0.33245 11.868 0.55408 14.53 3.6569 3.8821 4.4326 3.8821 11.525 0 15.403-1.5529 1.5514-3.6603 2.8812-4.5476 2.8812-0.88734 0-2.1074 1.219-2.8839 2.7704-1.6638 3.6569-7.7643 6.8706-11.425 5.984l-2.8839-0.77571 1.7747 4.3218c3.3275 7.8679 12.423 20.168 20.187 27.15 6.6551 5.984 23.847 16.401 27.175 16.401 0.55459 0 1.1092-1.3298 1.1092-2.7704zm14.752-12.633l10.87-3.7677 11.092 3.8785c12.423 4.4326 13.199 4.211 13.31-3.3245 0-2.3271 0.33275-5.984 0.77643-8.3112l0.66551-4.211-12.977-4.4326-12.977-4.3218-12.866 4.4326-12.756 4.3218 0.66551 5.984c1.1092 10.084 1.7747 13.409 2.662 13.52 0.44367 0 5.6568-1.6622 11.535-3.7677zm-54.128-36.791c1.1092-0.88652 2.1074-2.4379 2.1074-3.3245 0-0.88652 1.5529-2.2163 3.4385-2.8812 6.5442-2.3271 8.097-10.638 2.7729-14.849-2.5511-2.1055-4.7695-2.4379-13.421-2.4379h-10.315v4.9867c0.11092 2.6596 0.77643 8.0895 1.5529 11.857 1.1092 5.43 2.1074 7.3138 4.3258 8.422 3.1057 1.5514 6.4332 0.99734 9.5389-1.773zm141.31 0.77571c1.5529-1.1082 3.7712-10.971 4.2149-18.395l0.33275-5.3192h-11.203c-13.088 0-16.083 1.6622-16.083 8.3112 0 4.1002 3.2166 8.6436 6.3223 8.6436 0.88734 0 2.5511 1.5514 3.5494 3.5461 2.7729 5.2083 8.5407 6.7598 12.866 3.2137zm-88.291-4.5434l11.979-3.9894 13.421 4.4326c7.4315 2.4379 13.643 4.3218 13.865 4.1002 0.22184-0.22163 0.55459-4.8759 0.77642-10.195l0.44367-9.7518-14.308-4.7651-14.308-4.7651-14.197 4.7651-14.308 4.7651 0.44367 9.1977c0.44367 9.8626 0.88734 11.303 2.8839 10.527 0.77643-0.22163 6.766-2.2163 13.31-4.3218zm-24.18-73.028c4.7695-1.219 17.525-5.6516 28.395-10.084 10.759-4.3218 24.18-8.7544 29.726-9.8626 9.6499-1.9947 9.8717-2.1055 6.5442-3.4353-12.645-5.0975-34.052-6.3165-47.806-2.6596-9.5389 2.5488-22.627 8.2004-22.627 9.8626 0 1.3298 11.203 0.33245 25.4-2.2163 5.3241-0.99734 9.9826-1.5514 10.204-1.219 0.77643 0.77571-19.078 8.422-25.844 9.9734-3.3275 0.77571-9.8717 1.5514-14.53 1.8839-7.6533 0.33245-8.9844 0.77571-11.314 3.4353-3.4385 3.9894-3.3275 4.9867 0.55459 5.5408 7.0987 1.1082 12.977 0.77571 21.296-1.219z"/>
<path d="m64.665 240.36c-2.5511-2.8812-2.4402-9.7518 0.22184-12.19 4.8804-4.3218 11.868-0.88652 11.868 5.7624 0 7.4246-7.5424 11.525-12.09 6.4273zm4.2149-1.5514c-0.77643-0.77571-1.4419-2.7704-1.4419-4.4326 0-1.6622 0.66551-3.6569 1.4419-4.4326 0.99826-1.1082 0.88734-1.3298-0.66551-1.3298-1.1092 0-2.5511 1.219-3.3275 2.7704-0.99826 2.3271-0.88734 3.4353 0.66551 5.8732 1.1092 1.5514 2.5511 2.992 3.3275 2.992 0.99826 0 0.99826-0.44326 0-1.4406z"/>
<path d="m109.59 248.12c-1.9965-1.9947-1.7747-6.2057 0.44367-8.422 2.662-2.6596 4.7695-2.2163 6.9878 1.1082 1.7747 2.6596 1.7747 3.1028 0 5.7624-1.9965 3.1028-5.2131 3.7677-7.4315 1.5514zm6.5442-4.211c0.22184-2.2163-0.22184-3.6569-0.99826-3.6569-0.77643 0-0.99826 0.88652-0.55459 2.3271 0.44367 1.3298 0.11092 3.2137-0.77642 4.211-1.331 1.6622-1.2201 1.8839 0.22184 1.3298 0.99826-0.33245 1.8856-2.2163 2.1074-4.211z"/>
<path d="m101.05 226.84c-1.1092-2.2163-0.88734-3.4353 0.66551-5.7624 0.99826-1.6622 2.5511-2.992 3.4385-2.992 2.2184 0 5.435 3.8785 5.435 6.5381 0 5.43-7.3206 7.0922-9.5389 2.2163zm7.7643-3.9894c-1.2201-3.7677-2.3293-2.8812-2.4402 1.6622-0.11092 3.5461 0.11092 3.8785 1.5529 2.4379 0.99826-0.99734 1.331-2.5488 0.88734-4.1002z"/>
<path d="m34.163 133.09c-2.5511-1.9947-4.9913-4.211-5.435-4.9867-1.5529-2.4379-0.99826-6.2057 1.2201-8.2004 2.9948-2.6596 17.858-2.6596 20.52 0 1.8856 1.8839 2.3293 5.8732 0.88734 8.2004-1.331 2.2163-9.7608 8.5328-11.314 8.5328-0.77643 0-3.4385-1.6622-5.8787-3.5461zm9.5389-1.6622c0.99826-1.6622 2.5511-2.8812 3.3275-2.8812 1.9965 0 3.2166-3.3245 2.3293-5.984-0.55459-1.8839-1.8856-2.2163-8.6516-2.2163-5.5459 0-8.3188 0.55408-9.3171 1.6622-1.6638 1.9947-0.55459 6.5381 1.6638 6.5381 0.77643 0 2.3293 1.219 3.4385 2.8812 0.99826 1.5514 2.662 2.8812 3.5494 2.8812 0.99826 0 2.5511-1.3298 3.6603-2.8812z"/>
<path d="m133.1 133.09c-5.3241-4.3218-6.2114-5.5408-6.2114-8.7544-0.11092-4.5434 3.4385-6.3165 12.423-6.3165 6.4332 0 8.5407 0.44326 10.094 2.1055 1.9965 2.2163 2.4402 5.6516 0.99826 7.9787-1.4419 2.2163-9.7608 8.5328-11.314 8.5328-0.77643 0-3.4385-1.6622-5.9896-3.5461zm9.5389-1.6622c1.1092-1.6622 2.5511-2.8812 3.4385-2.8812 1.8856 0 3.1057-3.3245 2.2184-5.984-0.55459-1.8839-1.8856-2.2163-8.5407-2.2163-5.5459 0-8.4298 0.55408-9.428 1.6622-1.6638 1.9947-0.44367 6.5381 1.6638 6.5381 0.88734 0 2.4402 1.219 3.4385 2.8812 1.1092 1.5514 2.662 2.8812 3.6603 2.8812 0.88734 0 2.5511-1.3298 3.5494-2.8812z"/>
<path d="m21.407 254.99c-1.7747-5.3192-1.4419-5.7624 8.7625-8.5328 5.3241-1.4406 9.9826-2.5488 10.204-2.3271 0.22184 0.22163-3.8821 3.1028-8.9844 6.4273-6.2114 3.8785-9.6499 5.43-9.9826 4.4326z"/>
<path d="m147.41 250.33c-4.9913-3.2137-8.8734-5.984-8.6516-6.2057s4.8804 0.88652 10.204 2.3271c9.2062 2.5488 9.8717 2.8812 9.5389 5.5408-0.22184 1.4406-0.77643 3.1028-1.2201 3.4353-0.44367 0.44326-4.8804-1.8839-9.8717-5.0975z"/>
<path d="m19.743 234.38c0-4.1002 0.66551-4.211 13.31-1.8839 8.8734 1.6622 8.5407 2.1055-2.9948 4.1002-10.426 1.773-10.315 1.773-10.315-2.2163z"/>
<path d="m148.96 236.59c-11.425-2.4379-11.535-2.5488-2.8839-4.1002 13.199-2.4379 14.53-2.2163 14.53 1.8839 0 3.1028-0.44367 3.4353-3.2166 3.3245-1.7747 0-5.5459-0.55408-8.4298-1.1082z"/>
<path d="m36.048 223.74c-16.638-4.6543-16.083-4.3218-15.418-7.4246 0.22184-1.6622 0.88734-3.1028 1.331-3.4353 0.33275-0.22163 5.2131 2.4379 10.537 5.8732 10.204 6.4273 10.537 6.9814 3.5494 4.9867z"/>
<path d="m138.54 224.4c0-0.66489 15.972-10.86 17.636-11.303 0.66551-0.11082 1.6638 1.219 2.1074 2.8812 0.77642 2.4379 0.55459 3.3245-0.99826 3.7677-8.3188 2.4379-18.745 5.0975-18.745 4.6543z"/>
</g>
<g transform="translate(236.88 73.404)">
<g transform="translate(231.69 68.55) scale(-1 1) rotate(180) translate(-231.41 -68.399)">
<path d="m1.2163 111.97v-24.699h5.4735 5.4735v8.0597 8.0597l7.8193 0.51998c6.3423 0.34665 8.4274 0.86664 11.381 2.8599 4.6047 3.0332 6.6029 7.0197 6.6898 13.26 0.086881 6.4131-2.2589 10.66-7.6455 13.606-3.5621 1.9933-5.3866 2.2533-16.594 2.5999l-12.598 0.43332v-24.699zm20.851 15.253c3.4752-1.2133 4.6916-3.2066 4.6916-7.6264 0-5.1998-3.2146-7.7131-9.5569-7.7131h-5.0391v7.5397c0 4.1598 0.26064 7.8864 0.60817 8.1464 0.95569 0.9533 6.0817 0.77997 9.2963-0.34665z"/>
<path d="m47.784 111.97v-24.699h5.4735 5.4735v8.5797c0 5.0265 0.34752 8.8397 0.95569 9.1863 2.5195 1.5599 5.126-0.69331 9.9913-8.8397l4.9522-8.493 6.1685-0.25999c3.3884-0.17333 6.1685 0 6.1685 0.25999 0 1.04-9.5569 16.379-11.295 18.113-1.8245 1.8199-1.7376 1.9066 2.4327 4.2465 2.4327 1.4733 5.2129 7.7131 5.2129 11.96 0 5.1998-2.6064 9.273-7.4718 11.786-3.3015 1.6466-5.9079 2.0799-15.986 2.4266l-12.076 0.43332v-24.699zm19.896 15.253c3.3015-1.1266 4.6916-3.2066 4.6916-7.0197 0-4.5065-2.6064-6.7598-8.5143-7.2797l-5.126-0.43332v7.2797c0 3.9865 0.26064 7.5397 0.52129 7.7997 0.95569 0.9533 5.2129 0.77997 8.4274-0.34665z"/>
<path d="m93.744 135.11c-0.26064-0.69331-0.34752-2.5999-0.26064-4.3332l0.34752-3.0332 10.947-0.43332 11.034-0.43332-12.163-17.333c-8.4274-11.96-12.076-18.026-12.076-19.759v-2.5132h19.114 19.201v4.0732 4.0732l-11.903 0.25999-11.816 0.25999 11.903 16.813c11.729 16.726 13.38 19.673 12.337 22.273-0.78193 1.9933-35.969 2.0799-36.664 0.086663z"/>
<path d="m135.36 135.8c0-0.34665 3.8228-7.2797 8.6012-15.426l8.6881-14.733v-9.1863-9.1863h5.4735 5.4735v9.013 9.013l6.5161 11.266c3.649 6.1531 7.4718 12.826 8.6881 14.819 1.1295 1.9933 2.0851 3.9865 2.0851 4.3332 0.086881 0.9533-8.8618 0.86664-10.773-0.17333-0.86881-0.43332-3.7359-5.3731-6.4292-10.92-2.6933-5.5465-5.126-10.053-5.4735-10.053-0.34752 0-2.8671 4.5065-5.5604 10.053-2.7802 5.6331-5.7341 10.486-6.5161 10.92-1.8245 0.9533-10.773 1.2133-10.773 0.25999z"/>
<path d="m193.22 134.59c-5.2129-2.6866-7.1242-5.8065-7.5586-12.306-0.34752-5.1998-0.17376-5.8065 2.5195-8.9263 2.172-2.4266 4.5178-3.8132 9.2963-5.2865 9.3831-3.0332 11.729-5.9798 8.5143-10.573-1.9114-2.6866-7.8193-2.7732-12.511-0.17333-1.9114 0.9533-3.9965 1.8199-4.6916 1.8199-1.3901 0-5.126-4.5932-5.126-6.3264 0-0.51998 2.172-2.0799 4.7784-3.4665 3.9965-2.0799 5.9948-2.5132 11.642-2.5132 6.1685 0 7.2111 0.25999 10.686 2.6866 4.5178 3.2932 6.6898 7.2797 6.6898 12.826 0 7.2797-3.9965 11.613-12.598 13.953-5.4735 1.5599-9.2963 4.3332-9.2963 6.7598 0 4.6798 5.821 6.2398 12.25 3.4665 2.4327-1.1266 4.5178-1.9066 4.6916-1.9066 0.60817 0 3.9965 5.8065 3.9965 6.9331 0 0.51998-1.9983 1.8199-4.5178 2.9466-5.9079 2.5132-13.814 2.5132-18.766 0.086664z"/>
<path d="m224.41 135.72c-0.17376-0.34665-0.26064-2.3399-0.26064-4.3332l0.17376-3.6399 7.0374-0.25999 7.0374-0.25999v-19.933-20.019h5.4735 5.4735v20.019 19.933l6.9505 0.25999 7.0374 0.25999v4.1598 4.0732l-19.288 0.25999c-10.513 0.086663-19.374-0.086664-19.635-0.51998z"/>
<path d="m279.41 131.21c-1.0426-2.9466-2.8671-7.7131-4.0834-10.746-7.1242-18.026-12.25-31.632-12.25-32.412 0-1.2133 9.7307-0.9533 10.599 0.34665 0.4344 0.60664 1.3901 2.9466 2.172 5.1998l1.477 4.1598 9.6438 0.25999 9.5569 0.25999 1.1295-3.0332c2.6933-7.2797 2.8671-7.5397 8.5143-7.7997 2.8671-0.17333 5.2129 0.086664 5.2129 0.43332 0 0.43332-2.5195 7.1064-5.5604 14.906-3.0408 7.7131-7.1242 18.459-9.2094 23.832l-3.7359 9.793h-5.7341-5.7341l-1.9983-5.1998zm11.034-14.559c1.6507-4.9398 3.1277-9.4463 3.3884-10.053 0.34752-0.86664-1.3901-1.1266-6.5161-1.1266-3.8228 0-6.9505 0.25999-6.9505 0.60664s1.3032 4.3332 2.7802 8.8397c1.5639 4.5932 3.0408 8.8397 3.2146 9.4463s0.52128 1.1266 0.78193 1.1266c0.17376 0 1.7376-3.9865 3.3015-8.8397z"/>
<path d="m319.63 111.88v-24.612h5.0391 5.0391l-0.26064 14.993c-0.17376 8.3197 0 14.906 0.4344 14.819 0.34752-0.17333 5.9079-6.7598 12.337-14.819l11.555-14.559 4.344-0.25999 4.344-0.25999v24.612 24.699l-4.7784-0.25999-4.7784-0.25999v-15.253c0-8.4064-0.26064-15.166-0.60817-14.993-0.34752 0.086663-5.6473 6.4998-11.729 14.299s-11.729 14.646-12.598 15.253c-0.78193 0.60664-3.0408 1.1266-4.9522 1.1266h-3.3884v-24.526z"/>
<path d="m376.02 135.98c-0.17376-0.17333-0.34752-11.18-0.26064-24.352l0.17376-23.919 15.639-0.25999 15.639-0.17333v4.0732 4.1598h-10.078-9.9913v5.8065 5.8931l7.4718 0.25999 7.5586 0.25999 0.26064 3.8999 0.26064 3.8999h-7.8193-7.7324v5.8931 5.8931h9.9913 10.078v4.5932 4.5065h-15.378c-8.4274 0-15.552-0.17333-15.812-0.43332z"/>
<path d="m418.16 111.88v-24.612h5.4735 5.4735v10.486 10.573l2.9539-0.25999c2.5195-0.25999 3.5621-1.3 7.8193-7.6264 9.2094-13.779 8.5143-13.173 15.204-13.173 3.3015 0 5.9079 0.25999 5.9079 0.51998 0 0.86664-13.727 21.666-15.725 23.832l-1.9114 2.0799 2.2589 2.4266c2.6064 2.9466 14.509 19.066 14.509 19.759 0 0.25999-2.6064 0.51998-5.6473 0.51998-6.4292 0-7.1242-0.51998-15.639-12.74-3.7359-5.2865-5.2997-6.8464-7.298-7.1064l-2.4327-0.25999v10.053 10.053h-5.4735-5.4735v-24.526z"/>
<path d="m273.15 54.078c-1.5639-2.1666-2.7802-4.2465-2.7802-4.5065 0-0.25999 1.7376-0.51998 3.9096-0.51998 3.7359 0 6.6898 1.8199 14.248 8.753 0.17376 0.17333-2.6064 0.34665-6.1685 0.34665h-6.4292l-2.7802-4.0732z"/>
<path d="m184.1 44.978c-10.773-4.0732-12.598-18.373-2.8671-23.052 2.0851-0.9533 5.821-2.5999 8.3406-3.5532 4.1703-1.4733 4.6047-1.9933 4.8653-4.7665 0.52129-5.6331-4.8653-7.1931-12.424-3.5532l-4.0834 1.9933-2.172-2.5132c-3.0408-3.4665-2.6933-4.5932 2.172-6.9331 6.4292-2.9466 13.553-3.3799 18.245-1.04 5.5604 2.8599 7.993 6.7598 7.993 13.086 0 4.5065-0.34752 5.5465-2.6064 7.973-1.477 1.4733-4.7784 3.3799-7.298 4.2465-7.6455 2.5132-9.6438 3.8132-9.6438 6.2398 0 1.3866 0.86881 2.8599 2.3458 3.8132 1.9983 1.3 2.8671 1.3866 6.1685 0.43332 7.7324-2.3399 7.6455-2.3399 9.1225 0.60664 0.86881 1.5599 1.477 3.0332 1.477 3.2932 0 0.25999-1.6507 1.3-3.7359 2.3399-4.8653 2.5132-11.295 3.0332-15.899 1.3866z"/>
<path d="m266.81 44.632c-9.5569-3.3799-15.117-11.44-15.03-22.099s5.4735-18.113 15.552-21.233c11.816-3.7265 24.5 1.6466 29.192 12.393 5.2997 12.22-1.6507 27.386-14.248 31.199-6.3423 1.8199-9.3831 1.7333-15.465-0.25999zm15.812-9.3597c6.7767-5.2865 6.7767-18.286 0.086881-24.439-1.9983-1.8199-3.3884-2.2533-7.8193-2.2533s-5.7341 0.43332-7.8193 2.2533c-3.649 3.4665-4.9522 6.6731-4.9522 12.306 0 9.3597 4.2572 14.126 12.771 14.126 3.9965 0 5.821-0.51998 7.7324-1.9933z"/>
<path d="m0.26064 30.159c-0.086881-8.4064-0.17376-18.286-0.17376-22.013l-0.086881-6.8464 5.2129-0.25999 5.2129-0.34665-0.26064 7.1064-0.26064 7.1064 5.4735 0.51998c7.4718 0.77997 11.555 2.2533 14.509 5.3731 5.0391 5.2865 4.8653 15.166-0.34752 20.019-3.7359 3.4665-8.5143 4.5932-19.548 4.5932h-9.6438l-0.086881-15.253zm20.678 5.8065c3.0408-2.5999 3.3884-7.7131 0.78193-10.573-1.3901-1.5599-2.6064-1.8199-6.6898-1.6466l-4.9522 0.25999v6.5864c0.086881 3.6399 0.17376 6.8464 0.17376 7.1064 0.086881 0.25999 1.9114 0.43332 4.1703 0.43332 2.8671 0 4.6916-0.60664 6.5161-2.1666z"/>
<path d="m42.311 23.139v-22.273l13.727-0.086664h13.727l-0.34752 3.8999-0.26064 3.8999-6.5161-0.34665c-11.121-0.51998-10.339-1.9933-10.339 19.066v18.113h-5.0391-4.9522v-22.273z"/>
<path d="m89.835 43.852c-0.4344-0.86664-2.6933-6.4998-4.9522-12.566-2.3458-5.9798-5.9079-15.166-7.9062-20.453-1.9983-5.2865-3.649-9.7063-3.649-9.793 0-0.17333 2.2589-0.17333 5.126 0l5.2129 0.25999 1.477 4.5065 1.5639 4.5932h8.9487 8.9487l1.477-4.5932 1.5639-4.5065 5.2997-0.25999c4.7784-0.25999 5.2129-0.17333 4.6916 1.3-0.34752 0.9533-1.8245 4.7665-3.3015 8.493-1.477 3.7265-5.0391 13-7.993 20.453l-5.2997 13.693-5.126 0.25999c-4.2572 0.17333-5.3866 0-6.0817-1.3866zm9.47-17.679c1.2163-3.7265 2.2589-7.1931 2.2589-7.7997 0-0.86664-1.8245-1.1266-5.9079-1.1266-3.649 0-5.9079 0.34665-5.9079 0.9533 0 0.51998 1.0426 4.0732 2.2589 7.973 1.3032 3.8132 2.6064 7.5397 2.8671 8.3197 0.60817 1.9066 1.5639 0.17333 4.4309-8.3197z"/>
<path d="m125.28 23.139v-22.273h4.5178 4.5178l0.26064 13.779 0.26064 13.866 10.947-13.779 10.947-13.866h3.9096 3.9096v22.273 22.359l-4.344-0.25999-4.344-0.25999v-13.953c0.086881-16.379 1.477-16.553-13.119 1.8199-9.47 11.873-9.8175 12.133-13.553 12.393l-3.9096 0.25999v-22.359z"/>
<path d="m212.6 44.805c-0.86881-0.86664-0.78193-6.6731 0-6.7598 0.4344 0 4.9522-0.086664 10.078-0.17333 5.126-0.086664 9.3831-0.51998 9.3831-0.9533s-1.8245-3.2932-3.9965-6.4131c-2.172-3.0332-6.8636-9.7063-10.426-14.733s-6.6029-10.4-6.7767-11.873l-0.26064-2.5999 16.942-0.25999 17.029-0.25999 0.4344 2.9466c0.26064 1.6466 0.26064 3.2932 0.086881 3.7265-0.26064 0.34665-5.126 0.69331-10.86 0.69331-5.7341 0-10.426 0.17333-10.426 0.43332 0 0.17333 4.9522 7.3664 10.947 15.773 8.3406 11.7 10.947 16.033 10.947 18.199v2.8599h-16.247c-8.9487 0-16.594-0.25999-16.855-0.60664z"/>
<path d="m302.69 43.852c0.60817-1.4733 6.9505-21.579 11.642-36.919l1.9114-6.0664h4.6916 4.6916l3.7359 12.046c2.0851 6.5864 4.0834 13.173 4.4309 14.559 0.95569 3.9865 1.9983 2.9466 4.0834-4.1598 1.1295-3.5532 3.1277-10.053 4.4309-14.299l2.5195-7.7131 4.6047-0.25999 4.6047-0.34665 1.9114 5.8065c0.95569 3.1199 3.7359 11.873 6.0817 19.326 2.2589 7.5397 4.6047 14.819 5.0391 16.293 0.52128 1.4733 0.86881 2.8599 0.86881 3.0332s-2.3458 0.25999-5.2129 0.086664l-5.2129-0.25999-1.2163-4.0732c-0.60816-2.2533-2.3458-8.4064-3.649-13.693-1.3901-5.2865-2.954-9.533-3.3884-9.6197-0.52128 0-2.6933 5.7198-4.8653 12.74s-4.4309 13.346-4.9522 13.953c-0.52129 0.60664-2.2589 1.1266-3.9096 1.1266-1.6507 0-3.3884-0.51998-3.9096-1.1266-0.52129-0.60664-2.7802-7.1064-5.0391-14.299-2.2589-7.2797-4.4309-13.173-4.8653-13.086-0.4344 0.086664-1.1295 1.7333-1.5639 3.6399-2.4327 10.573-6.2554 23.572-7.2111 24.179-0.60817 0.34665-3.3015 0.69331-5.9948 0.69331-4.2572 0-4.7784-0.17333-4.2572-1.5599z"/>
<path d="m376.19 23.139v-22.273h4.9522 5.0391v9.533c0 9.273 0.08688 9.533 2.0851 9.533 3.0408 0 3.7359-0.69331 9.9044-10.053l5.821-8.5797 5.2997-0.51998c2.954-0.25999 5.4735-0.17333 5.7341 0.17333 0.52128 0.9533-13.119 21.493-15.03 22.533-1.3901 0.77997-1.3032 1.04 0.4344 2.9466 2.5195 2.7732 14.075 18.026 14.075 18.546 0 0.25999-2.4327 0.43332-5.3866 0.43332-6.0817 0-6.3423-0.17333-13.38-10.486-4.7784-6.9331-5.5604-7.7131-7.993-7.7131-1.3901 0-1.5639 1.04-1.5639 9.0997v9.0997h-5.0391-4.9522v-22.273z"/>
<path d="m434.67 43.852c-0.4344-0.86664-2.6933-6.4998-4.9522-12.566-2.3458-5.9798-5.9079-15.166-7.9062-20.366-1.9983-5.1998-3.4752-9.7063-3.3015-10.053 0.26064-0.25999 2.5195-0.34665 5.126-0.086664l4.8653 0.51998 1.477 4.5065 1.5639 4.5932h8.8619 8.8618l1.5639-4.5932 1.6507-4.5065 5.2997-0.25999c4.7784-0.25999 5.2129-0.17333 4.6916 1.3-0.34752 0.9533-1.8245 4.7665-3.3015 8.493-1.477 3.7265-5.0391 13-7.993 20.453l-5.2997 13.693-5.126 0.25999c-4.2572 0.17333-5.3866 0-6.0817-1.3866zm8.9487-16.639c1.5639-4.1598 2.7802-8.1464 2.7802-8.753 0-0.9533-1.5639-1.2133-5.9079-1.2133-3.649 0-5.9079 0.34665-5.9079 0.9533 0 0.51998 1.0426 4.0732 2.2589 7.973 1.3032 3.8132 2.6064 7.5397 2.7802 8.233 0.60817 1.8199 1.0426 1.1266 3.9965-7.1931z"/>
</g>
</g>
</g>
</g>
</g>
</g>
</svg>
