<?xml version="1.0" encoding="UTF-8"?>
<svg version="1.1" viewBox="0 0 1000 300" xmlns="http://www.w3.org/2000/svg">
<title>RadioGdansk</title>
<desc>Created with Sketch.</desc>
<g fill="none" fill-rule="evenodd">
<g transform="translate(-140 -9501)">
<g transform="translate(140 9501)">
<rect width="1e3" height="300" fill="#fff" fill-opacity=".01"/>
<g transform="translate(76 52)" fill-rule="nonzero">
<path d="m75.034 85.901c-4.764-11.615-8.5753-19.116-15.245-22.262 14.292-2.9037 22.629-11.615 22.629-22.02 0-14.277-12.863-24.681-34.539-24.681-15.245 0-27.155 4.3556-36.921 11.131l1.191 1.9358c5.2404-2.6617 10.243-4.5975 15.245-5.8074l-14.292 66.785c-2.382 10.889-5.2404 15.97-12.387 16.454l-0.71461 2.4198c6.9079-0.24198 13.578-0.24198 20.009-0.24198 6.1933 0 12.625 0.24198 18.342 0.24198l0.4764-2.4198c-5.7169-1.2099-8.0989-3.8716-8.0989-9.437 0-1.6938 0.4764-4.3556 1.191-8.2272l5.0022-23.23c0.4764 0 1.191-0.24198 1.6674-0.24198 10.481 0 17.389 14.519 26.917 43.556 3.8112-0.24198 7.1461-0.24198 10.957-0.24198s7.6225 0.24198 11.196 0.24198l0.71461-2.4198c-6.9079-1.4519-8.3371-9.679-13.339-21.536zm-31.919-24.44c-1.6674 0-3.3348-0.24198-5.2404-0.48395l8.3371-39.442c10.243 0.9679 17.627 9.679 17.627 20.81 0.2382 11.131-8.0989 19.116-20.724 19.116z" fill="#1F2436"/>
<path d="m145.54 100.9c0-1.9358 0.4764-4.5975 1.191-8.4691l9.2899-42.104h-4.5258c-18.103 0-31.204 1.6938-38.827 6.5333-13.578 7.9852-20.485 20.568-20.485 35.086 0 12.099 6.6697 19.6 16.436 19.6 6.6697 0 13.578-3.8716 20.962-11.615l-2.8584 11.373c8.8135-0.9679 17.151-1.6938 24.535-1.9358l0.2382-2.4198c-4.2876-0.72593-5.9551-2.1778-5.9551-6.0494zm-14.292-9.921c-4.0494 6.5333-9.2899 9.921-14.054 9.921-5.2404 0-8.5753-4.1136-8.5753-11.615 0-17.664 11.434-32.909 25.011-32.909 1.4292 0 3.0966 0.24198 5.0022 0.48395l-7.3843 34.119z" fill="#1F2436"/>
<path d="m214.62 100.66c0-0.9679 0.2382-2.1778 0.4764-3.6296l17.627-80.578c-8.5753 1.4519-17.151 2.4198-25.964 3.8716l-0.71461 2.4198c5.2404 0.72593 7.1461 2.4198 7.1461 6.7753 0 1.2099-0.2382 3.6296-0.95281 7.0173l-2.8584 13.793h-0.95281c-12.625 0-22.629 2.9037-30.728 9.437-10.481 8.4691-16.674 20.568-16.674 32.667 0 11.857 6.6697 19.116 17.151 19.116 7.1461 0 13.816-3.8716 20.485-11.373l-2.6202 11.131c8.5753-0.9679 16.912-1.6938 24.297-1.6938l0.4764-2.4198c-4.2876-0.9679-6.1933-2.9037-6.1933-6.5333zm-14.53-7.5012c-4.5258 5.8074-9.0517 8.4691-13.339 8.4691-5.4787 0-8.3371-3.8716-8.3371-11.857 0-19.842 10.957-34.119 26.202-34.119 1.191 0 2.382 0.24198 3.573 0.24198l-8.0989 37.264z" fill="#1F2436"/>
<path d="m267.5 27.827c0 4.8395-3.8112 8.7111-8.5753 8.7111-4.5258 0-8.3371-3.8716-8.3371-8.7111s3.8112-8.7111 8.3371-8.7111c4.5258 0 8.5753 3.8716 8.5753 8.7111z" fill="#1F2436"/>
<path d="m254.4 97.032c-0.2382 1.6938-0.4764 2.9037-0.4764 3.8716 0 3.8716 2.1438 5.8074 7.1461 6.5333l-0.4764 2.4198c-5.9551-0.24198-11.91-0.24198-17.627-0.24198-5.4787 0-10.957 0.24198-16.198 0.24198l0.71461-2.4198c5.9551-0.9679 8.5753-3.8716 10.004-9.921l5.7169-26.859c0.4764-2.4198 0.95281-4.8395 0.95281-6.7753 0-4.3556-2.1438-6.5333-7.1461-7.0173l0.71461-2.4198c8.8135-0.72593 17.865-1.9358 26.679-3.8716l-10.004 46.459z" fill="#1F2436"/>
<path d="m310.14 50.331c-10.719 0-20.009 3.8716-27.631 11.373-9.0517 9.1951-14.054 20.326-14.054 30.731 0 12.099 6.9079 19.116 19.533 19.116 13.578 0 27.631-8.7111 35.969-23.956 3.0966-5.5654 4.764-12.099 4.764-18.39 0.2382-11.857-6.6697-18.874-18.58-18.874zm-4.0494 43.556c-1.4292 3.8716-3.573 7.0173-5.4787 8.9531-2.382 2.1778-4.5258 3.3877-6.9079 3.3877-5.0022 0-8.0989-3.8716-8.0989-11.373 0-12.341 4.2876-24.923 9.7663-33.151 2.6202-3.8716 6.1933-5.8074 9.2899-5.8074 5.2404 0 7.6225 3.8716 7.6225 12.099-0.2382 7.5012-2.382 15.97-6.1933 25.891z" fill="#1F2436"/>
<path d="m823.23 54.202l-11.196 12.099 16.198 30.489c3.3348 6.0494 6.9079 9.1951 11.91 9.437l-0.7146 2.9037c-3.8112-0.24198-7.6225-0.48395-11.91-0.48395-4.0494 0-8.3371 0.24198-12.625 0.48395l-16.674-33.393-4.0494 18.39c-0.4764 1.6938-0.4764 3.1457-0.4764 4.3556 0 4.3556 2.1438 6.5333 6.9079 7.7432l-0.4764 2.9037c-6.1933-0.24198-12.387-0.48395-18.342-0.48395-6.1933 0-12.387 0.24198-18.58 0.48395l0.71461-2.9037c7.3843-1.2099 10.243-4.3556 11.672-11.373l15.483-71.141c0.7146-3.3877 1.191-5.8074 1.191-7.9852 0-5.0815-2.6202-7.5012-8.3371-8.2272l0.95281-2.9037c10.243-1.2099 20.009-2.6617 30.013-4.3556l-15.245 71.141s18.103-19.358 20.247-22.262c1.4292-1.9358 0.95281-4.8395-2.6202-5.0815l-1.4292-0.24198 0.71461-3.3877c5.4787 0.24198 23.344-0.48395 30.013-1.2099l-0.71461 3.6296c-7.8607 0.24198-13.101 1.9358-22.629 11.373z" fill="#1F2436"/>
<path d="m528.57 98.242c0-1.2099 0.2382-2.4198 0.4764-4.3556l20.724-93.886c-10.004 1.6938-20.009 2.9037-30.252 4.3556l-0.7146 2.9037c5.9551 0.9679 8.3371 2.9037 8.3371 7.7432 0 1.4519-0.2382 4.3556-1.191 8.2272l-3.3348 16.212h-1.191c-14.769 0-26.44 3.6296-35.969 11.131-12.148 9.679-19.294 23.956-19.294 37.99 0 13.793 7.8607 22.262 20.009 22.262 8.3371 0 16.198-4.3556 23.82-13.067l-3.0966 12.825c10.243-1.2099 19.771-1.9358 28.346-1.9358l0.4764-2.9037c-4.764-0.72593-7.1461-3.1457-7.1461-7.5012zm-16.912-8.4691c-5.2405 6.5333-10.719 9.679-15.483 9.679-6.4315 0-9.7663-4.5975-9.7663-13.793 0-22.988 12.863-39.684 30.49-39.684 1.4292 0 2.8584 0.24198 4.0494 0.48395l-9.2899 43.314z" fill="#1F2436"/>
<path d="m609.32 98.726c0-2.1778 0.4764-5.3235 1.4292-9.679l10.719-49.121h-5.2405c-21.2 0-36.445 1.9358-45.497 7.5012-15.721 9.437-24.058 23.956-24.058 40.894 0 14.277 7.8607 22.988 19.056 22.988 7.8607 0 15.721-4.5975 24.297-13.793l-3.0966 13.551c10.243-1.2099 20.009-1.9358 28.822-2.4198l0.2382-2.9037c-4.764-0.72593-6.6697-2.6617-6.6697-7.0173zm-16.674-11.373c-4.764 7.5012-10.719 11.373-16.436 11.373-6.1933 0-10.004-4.8395-10.004-13.551 0-20.81 13.339-38.474 29.061-38.474 1.6674 0 3.573 0.24198 5.7169 0.48395l-8.3371 40.168z" fill="#1F2436"/>
<path d="m444.72 59.284c7.1461 0 14.054 0 21.2-0.24198l-0.4764 3.1457c-10.243 1.2099-10.957 6.2914-13.101 16.212l-5.7169 26.133c-11.91 4.5975-23.582 7.0173-34.539 7.0173-29.775 0-49.308-18.874-49.308-47.669 0-15.97 5.9551-31.699 17.389-44.523 10.957-12.099 26.202-19.116 43.353-19.116 13.816 0 23.344 4.5975 29.299 4.5975 3.573 0 6.1933-1.2099 7.6225-3.6296h3.0966l-5.7169 27.343h-3.0966c-0.95281-13.309-11.91-22.262-26.917-22.262-23.344 0-42.162 23.956-42.162 59.768 0 24.44 12.387 39.2 28.822 39.2 8.0989 0 12.625-4.3556 14.53-13.067l3.0966-15.486c0.4764-2.9037 0.95281-5.0815 0.95281-5.8074 0-5.3235-2.8584-7.5012-9.2899-8.4691l0.71461-3.1457h20.247z" fill="#1F2436"/>
<path d="m743.19 53.719c0 4.5975 4.764 8.9531 10.243 15.97 5.0022 6.5333 9.0517 11.373 9.0517 19.116 0 12.341-11.91 22.504-28.584 22.504-7.3843 0-12.625-3.1457-15.721-3.1457-1.191 0-2.382 0.72593-3.8112 1.9358h-3.0966l4.5258-21.052h3.0966c0.4764 10.889 6.6697 17.18 14.292 17.18 6.4315 0 10.957-4.3556 10.957-11.131 0-6.0494-3.8112-10.163-7.8607-15.486-5.7169-7.5012-11.196-13.309-11.196-22.262 0-10.647 8.3371-17.906 21.676-17.906 5.2405 0 10.243 1.4519 15.245 1.4519 1.6674 0 3.3348-0.72593 5.0022-2.4198h3.0966l-3.573 17.664h-3.0966c0-6.5333-4.764-10.889-10.957-10.889-5.7169 0-9.2899 3.3877-9.2899 8.4691z" fill="#1F2436"/>
<path d="m670.54 31.457h-6.4315l20.009-18.148c3.3348-2.9037 5.9551-4.5975 8.3371-4.5975 3.573 0 5.9551 2.4198 5.9551 5.8074 0 2.4198-1.6674 4.8395-5.4787 6.5333l-22.391 10.405z" fill="#1F2436"/>
<path d="m697.93 94.128c-0.4764 1.6938-0.4764 3.1457-0.4764 4.3556 0 4.3556 2.1438 6.5333 7.1461 7.7432l-0.71461 2.9037c-6.1933-0.24198-12.148-0.48395-18.342-0.48395-5.9551 0-12.148 0.24198-18.342 0.48395l0.4764-2.9037c7.3843-1.2099 10.243-4.3556 11.672-11.373l5.9551-27.827c0.4764-1.9358 0.4764-4.1136 0.4764-5.5654 0-7.2593-3.573-11.131-9.7663-11.131-7.3843 0-15.245 6.5333-17.389 16.938l-5.7169 26.859c-0.4764 1.9358-0.4764 3.6296-0.4764 4.3556 0 4.3556 2.1438 6.5333 7.1461 7.5012l-0.71461 2.9037c-6.1933-0.24198-12.148-0.48395-18.342-0.48395-5.9551 0-12.148 0.24198-18.342 0.48395l0.47641-2.9037c7.3843-1.2099 10.243-4.3556 11.672-11.373l6.6697-31.215c0.7146-3.3877 1.191-6.0494 1.191-8.2272 0-5.0815-2.382-7.5012-8.3371-8.2272l0.71461-2.9037c10.243-1.2099 20.247-2.6617 30.252-4.3556l-2.8584 12.583c7.6225-8.2272 15.721-12.583 25.011-12.583 11.672 0 18.342 6.5333 18.342 18.874 0 2.4198-0.4764 5.5654-1.191 8.9531l-6.1933 26.617z" fill="#1F2436"/>
<path d="m846.57 177.13l-0.71461-0.24198v0.72592c-12.625-1.6938-24.297-3.1457-35.492-4.5975-55.501-7.5012-95.519-13.067-159.36-6.5333-35.016 3.6296-68.364 8.7111-100.76 13.793-46.688 7.2593-88.611 13.793-125.06 13.793-10.481 0-20.485-0.48395-30.013-1.6938-65.744-8.2272-81.465-50.331-81.465-50.815l0.71461-0.24198-0.4764-0.48395 1.191-0.72593 0.4764 0.48395c10.719 9.921 36.445 26.133 108.62 27.343 70.27 1.2099 159.12-25.891 232.96-28.553 59.074-2.1778 117.91 11.615 188.66 35.328l0.71461 0.24198 0.7146 0.24198-0.7146 1.9358z" fill="#EF4135"/>
</g>
</g>
</g>
</g>
</svg>
