<?xml version="1.0" encoding="UTF-8"?>
<svg version="1.1" viewBox="0 0 1000 300" xmlns="http://www.w3.org/2000/svg">
<title>Rebel</title>
<desc>Created with Sketch.</desc>
<g fill="none" fill-rule="evenodd">
<g transform="translate(-140 -668)">
<g transform="translate(140 668)">
<rect width="1e3" height="300" fill="#fff" fill-opacity=".01"/>
<g transform="translate(115 45)" fill="#E50046" fill-rule="nonzero">
<g transform="translate(385.78 105.43) scale(-1 1) rotate(180) translate(-385.5 -104.5)">
<path d="m336.79 208.13c-0.54307-0.25702-1.2862-0.91385-1.6578-1.4279l-0.6574-0.91385-0.085749-98.81c-0.085747-95.811-0.057164-98.838 0.4859-99.866 0.31441-0.57115 1.0861-1.3422 1.715-1.7135l1.1719-0.65683 24.667 0.057115c24.552 0.085673 24.667 0.085673 25.524 0.71394 1.6578 1.2565 2.0008 2.2846 2.1437 6.4826l0.11433 3.8267 2.2009-2.0847c10.318-9.7953 24.038-14.536 39.244-13.536 15.12 0.99952 28.583 5.6544 40.673 14.05 8.3461 5.7972 16.807 14.764 22.037 23.303 5.4307 8.9386 9.3179 19.619 10.89 29.843 0.74314 4.9976 0.88606 14.879 0.28582 20.105-2.1151 18.248-9.8038 34.269-22.637 47.063-12.148 12.108-27.325 19.762-44.446 22.332-4.4589 0.68538-12.948 0.91385-16.807 0.48548-10.718-1.228-20.437-5.5402-28.583-12.765l-2.9154-2.5702-0.085746 31.556c-0.08575 30.957-0.08575 31.585-0.68598 32.584-0.31441 0.57116-0.97181 1.3137-1.4291 1.6563-0.85748 0.62827-0.97181 0.62827-25.524 0.71394-22.266 0.057116-24.752 0.028558-25.639-0.42837zm91.464-97.839c9.4322-2.7415 16.378-8.2817 20.637-16.449 2.8297-5.4545 3.8586-10.138 3.5728-16.506-0.34299-7.9962-3.2584-14.907-8.7177-20.676-2.8868-3.0271-5.4593-4.9119-9.3465-6.7967-3.9158-1.9419-6.6597-2.7415-11.033-3.227-5.8594-0.62827-11.605 0.39981-17.207 3.0842-20.094 9.6811-24.638 36.126-8.9749 51.947 4.516 4.5692 10.404 7.7106 16.864 9.0528 3.1727 0.65683 11.262 0.42837 14.206-0.42837z"/>
<path d="m717.25 207.96c-0.54307-0.37125-1.2576-1.0566-1.6006-1.5136l-0.62881-0.85673v-98.924-98.895l0.62881-0.85673c0.34299-0.45692 1.0576-1.1423 1.6006-1.5136l1.0004-0.65683h24.524 24.524l1.0004 0.65683c0.54307 0.37125 1.2576 1.0566 1.6006 1.5136l0.62881 0.85673v98.895 98.924l-0.62881 0.85673c-0.34299 0.45692-1.0576 1.1423-1.6006 1.5136l-1.0004 0.68538h-24.524-24.524l-1.0004-0.68538z"/>
<path d="m97.981 157.47c-0.34299-0.057115-1.3434-0.25702-2.258-0.42837-9.0607-1.742-17.55-7.9962-22.037-16.221-4.5732-8.3674-5.1734-18.877-1.5435-27.73 3.8301-9.3955 12.005-16.535 21.923-19.219 2.7153-0.71394 3.5157-0.79962 8.1174-0.79962 4.5446 0 5.4021 0.085673 8.0317 0.79962 11.29 3.0271 19.979 11.48 23.152 22.475 5.2878 18.42-6.6883 37.553-25.61 40.866-2.258 0.39981-8.2603 0.5426-9.7752 0.25702z"/>
<path d="m220.29 157.35c-22.352-2.3132-42.159-13.308-55.393-30.728-3.4585-4.5692-5.545-7.939-8.0889-13.194-2.6868-5.4831-4.2588-9.7382-5.6593-15.336-1.8579-7.425-2.1437-10.024-2.1437-19.448 0-7.3108 0.085748-8.91 0.68598-12.28 3.63-20.847 14.206-38.296 30.783-50.747 5.4021-4.0552 13.434-8.396 19.808-10.738 25.124-9.2241 53.163-5.1404 74.457 10.795 12.148 9.1099 21.523 21.504 26.725 35.383 1.8293 4.8263 1.6578 6.8824-0.71456 8.4531l-1.029 0.68539h-22.151c-12.29 0-22.437-0.11423-22.837-0.25702-0.37157-0.17135-2.1723-1.742-4.0016-3.5412-1.8007-1.8277-4.173-3.8553-5.2306-4.5407-8.6605-5.6259-18.922-6.911-28.668-3.5697-5.3163 1.8277-10.69 5.5402-14.12 9.7953-4.4589 5.5116-6.8312 11.337-7.4886 18.534l-0.22866 2.1704 54.192 0.085673 54.164 0.057115 0.8289 0.62827c1.7435 1.2851 2.0865 2.0562 2.0294 4.7406-0.085747 5.2546-1.7435 13.593-3.973 20.048-4.0873 11.766-10.204 21.561-18.922 30.214-12.262 12.223-27.411 19.791-44.789 22.361-3.6871 0.5426-14.634 0.79962-18.236 0.42837z"/>
<path d="m600.66 157.32c-31.098-3.1699-57.422-24.103-67.226-53.489-2.4867-7.4821-3.6586-14.222-3.9444-22.503-0.71456-21.418 7.117-41.809 21.951-57.087 4.6018-4.712 8.2604-7.7963 13.377-11.195 15.663-10.395 34.671-14.764 53.707-12.337 13.948 1.7706 28.125 7.8248 39.33 16.792 3.2584 2.6273 9.175 8.5388 11.805 11.823 6.3167 7.8819 13.691 22.132 13.691 26.444 0 1.5421-0.82889 2.9986-2.1723 3.8267-0.94322 0.57115-1.5435 0.59971-23.123 0.59971-18.979 0-22.266-0.057116-23.009-0.45692-0.4859-0.22846-1.572-1.2565-2.4295-2.2561-0.88606-0.99952-2.5153-2.5416-3.63-3.4555-11.29-9.2241-26.61-10.081-38.672-2.1704-4.2016 2.7415-8.7748 7.9105-11.033 12.394-2.0008 4.0266-3.3727 9.167-3.3727 12.765v1.7706l53.992 0.085673 53.992 0.057115 0.85748 0.62827c2.3152 1.7135 2.5438 3.0557 1.7435 9.3384-4.5732 35.012-31.584 62.541-66.626 67.91-4.4875 0.68539-14.863 0.97096-19.207 0.51404z"/>
<path d="m3.2012 152.73c-1.5435-0.5426-2.2009-1.1994-2.7725-2.6844-0.40016-1.1138-0.45732-8.5102-0.37157-71.766l0.085748-70.509 0.62882-0.85673c0.34299-0.45692 1.0576-1.1423 1.6006-1.5136l1.0004-0.65683h24.524 24.524l1.0004 0.65683c0.54307 0.37125 1.2576 1.0566 1.6006 1.5136l0.62882 0.85673 0.085748 70.68 0.085748 70.68-0.68598 1.3422c-0.40016 0.77106-1.1147 1.5707-1.715 1.9419-1.029 0.57116-1.572 0.59971-25.067 0.65683-19.722 0.057115-24.209 0-25.153-0.34269z"/>
</g>
</g>
</g>
</g>
</g>
</svg>
