<?xml version="1.0" encoding="UTF-8"?>
<svg version="1.1" viewBox="0 0 1000 300" xmlns="http://www.w3.org/2000/svg">
<title>Sopot</title>
<desc>Created with Sketch.</desc>
<g fill="none" fill-rule="evenodd">
<g transform="translate(-140 -1631)">
<g transform="translate(140 1631)">
<rect width="1e3" height="300" fill="#fff" fill-opacity=".01"/>
<g transform="translate(276 5)" fill-rule="nonzero">
<g transform="translate(199.62 157.9) scale(-1 1) rotate(180) translate(-199.38 -133.88)" fill="#1093C7">
<path d="m381.94 265.89c-1.2575-2.1251-2.1035-3.2448-5.556-7.2437-3.0638-3.5647-4.207-5.3242-5.1215-7.8378-0.34296-0.95974-2.1264-9.6659-4.2527-20.68l-3.6582-19.012 0.43442-1.7138c0.93742-3.5419 0.41155-5.8498-1.7834-8.0892l-1.0975-1.1197-4.87-0.29706c-8.8026-0.50272-12.209-1.4853-13.764-3.9532-1.1203-1.7824 0.16005-6.5353 1.9434-7.2894 2.0578-0.84548 5.1901-0.63982 12.347 0.89118 2.6294 0.57127 3.0409 0.45702 3.0409-0.73123 0-0.38846-1.2118-8.3406-2.6522-17.664-2.5379-16.247-2.698-17.07-3.4982-18.806-1.0975-2.3765-1.3032-3.5419-0.68592-3.976 0.22864-0.18281 0.75451-0.31991 1.1661-0.31991 1.1661 0 1.4176-0.29706 1.2347-1.3254-0.16005-0.89118-0.50301-1.3025-2.515-3.0849-1.4862-1.3254-1.6462-2.7421-0.38869-3.4733 0.50301-0.29706 0.84597-0.68553 0.84597-0.95974 0-0.59412-0.98315-1.3939-1.9434-1.5996-0.41155-0.091404-0.77738-0.27421-0.84597-0.43417-0.045729-0.15996 0.068591-1.0283 0.2515-1.9652 0.3201-1.4853 0.3201-2.0109-0.022862-4.7987-0.54874-4.3874-0.54874-14.83 0-19.675 1.0975-9.506 3.3839-16.887 6.8135-21.96 1.2118-1.8052 4.0012-4.6387 5.1444-5.2328 0.5716-0.29706 0.70878-0.25136 2.1035 0.82263 1.3718 1.0283 1.9434 1.8052 1.9434 2.605 0 0.15996-0.43442 0.86833-0.96029 1.5767-1.3718 1.8509-1.2804 2.6278 0.41155 2.9935 0.91456 0.18281 1.3032 0.75408 1.0975 1.5767-0.068594 0.31991-0.8231 2.1708-1.6691 4.0903-0.8231 1.9195-1.509 3.7475-1.509 4.0218 0 0.38846 0.29723 0.66267 1.3032 1.0968 1.6462 0.73123 1.7148 1.2111 0.45728 3.0392-2.1492 3.1077-2.5608 5.1643-1.9206 9.346 0.20578 1.3711 0.59446 4.3417 0.86883 6.581 2.4236 20.292 5.7389 38.252 10.335 55.779 2.4922 9.5288 3.3153 12.294 3.8412 12.865 1.3947 1.4853 4.4356 2.4679 9.9687 3.222 3.6582 0.50272 5.9446 0.98259 6.9049 1.4625 2.1264 1.0968 3.1095 2.6278 2.9952 4.7301l-0.068593 1.3711-2.1721 0.11425-2.1492 0.11425-0.11432 1.0968-0.13718 1.074-1.2347 0.068553c-1.0517 0.068552-8.1624-0.91404-9.5114-1.3025-0.36582-0.11426-0.41155 0.045701-0.41155 1.2339 0 4.3645 1.8291 12.362 6.7906 29.638l2.2407 7.815-0.45728 0.61697c-0.43442 0.57127-0.43442 0.66267-0.068594 1.3482 1.2804 2.4679 2.2178 8.0892 1.9663 11.791-0.48014 7.5636-3.7497 12.02-9.5571 13.071l-0.8917 0.15995-0.96029-1.6681z"/>
<path d="m47.1 251.89c-0.11432-0.15995-0.36582-0.73123-0.5716-1.2568-0.27437-0.73123-0.52587-1.0054-1.1203-1.1654-0.70878-0.20566-0.86883-0.13711-1.852 0.77693-1.2347 1.1197-1.3718 1.1425-4.367 0.61697-12.872-2.2394-27.322-14.145-34.296-28.267-3.6125-7.3351-5.1444-14.259-4.8472-21.868 0.20578-5.5071 1.1889-9.4146 3.6354-14.396 3.6811-7.5865 9.2142-13.825 22.818-25.821 9.6257-8.5005 12.987-11.631 16.142-15.082 5.373-5.8498 8.7112-10.557 11.363-15.973 3.0638-6.284 4.5499-11.768 4.5499-16.864 0.022864-3.5876-0.22864-4.8901-1.4862-7.9978-1.2575-3.1306-1.2347-4.0675 0.045728-5.6899 1.509-1.9195 1.1661-2.9478-1.0289-3.2677-1.6005-0.25136-1.7377-0.52557-0.86883-1.8509 1.2347-1.9195 0.48014-2.8107-1.9663-2.3308-2.3093 0.45702-2.6522-0.27421-1.509-3.1763 0.34296-0.89118 0.54874-1.7824 0.48014-1.988-0.20578-0.52557-1.2575-0.45702-2.0578 0.13711l-0.68592 0.50272-2.1264-2.148c-1.4176-1.3939-3.2467-2.8792-5.4188-4.3417-1.8063-1.2111-4.1612-2.9706-5.2359-3.8846s-2.1492-1.6681-2.3779-1.6681c-0.2515 0-0.84597 0.15996-1.3261 0.34276-0.77738 0.34276-0.8917 0.34276-1.006 0-0.091456-0.20566 0.068592-0.98259 0.36582-1.7138 0.70878-1.8738 0.59446-1.9423-1.7605-1.3711l-0.68592 0.15996 0.13718-1.0511c0.18291-1.4168-0.022864-1.7367-1.0517-1.531-0.70878 0.11425-0.91456 0.045702-1.6462-0.70838-0.75451-0.77693-0.93742-0.86833-2.2178-0.86833-1.3032 0.022851-1.4404-0.045702-2.6294-1.0968-2.7208-2.4222-7.9795-5.3928-13.581-7.655-3.2924-1.3253-3.9097-1.8509-3.9097-3.3362 0-1.531 0.5716-2.1023 2.2178-2.2394 3.9555-0.31991 14.473 3.7247 25.265 9.7345 15.799 8.7747 24.602 15.264 30.775 22.668 6.1733 7.3808 10.174 16.613 11.341 26.073 0.36582 2.9249 0.3201 8.6605-0.091456 11.814-2.6065 19.812-17.4 40.972-43.625 62.406-4.7328 3.8618-6.0361 5.3928-8.0939 9.4603-0.52587 1.0968-1.2804 2.9249-1.6233 4.0903-0.5716 1.8509-0.64019 2.5136-0.66306 5.5756-0.022864 2.6964 0.091456 3.8161 0.41155 4.9129 0.66306 2.1937 1.3947 3.976 1.6005 3.8389 0.11432-0.045702 0.27437-0.59412 0.36582-1.1654 0.13718-0.91403 0.41155-1.3025 2.0349-2.9249 3.4296-3.3819 5.9218-4.6616 9.4886-4.8444 1.7834-0.091404 2.4464-0.022851 3.704 0.41132 3.864 1.3025 7.4537 4.5702 11.341 10.329 2.2178 3.2677 4.0469 6.6267 6.7449 12.317 2.0806 4.3874 2.4007 5.21 2.6065 6.9467 0.68592 5.3243-0.8231 11.631-3.4296 14.465-1.6691 1.8052-2.9952 1.9652-4.0012 0.47987-0.91456-1.3482-1.6462-1.0968-2.2864 0.73123-0.2515 0.77693-0.43442 0.93689-1.0517 1.0054-0.41155 0.045703-0.8231-0.068551-0.93742-0.25136z"/>
<path d="m197.96 162.2c-3.7954-0.91404-7.2708-5.2785-9.5343-11.974-0.50301-1.5082-2.6065-11.494-6.1047-28.952-5.0301-25.159-5.373-26.736-6.0132-27.49-1.509-1.7824-1.5776-2.9021-0.3201-5.1643 1.0517-1.8281 0.8917-2.1708-1.3032-3.2448-2.1264-1.0054-2.5608-1.5996-2.1949-2.8792 0.22864-0.77693 0.27437-0.77693 1.6233-0.77693 1.0975 0 1.4404-0.091403 1.6233-0.45702 0.43442-0.75408 0.022864-1.8738-1.1432-3.062-0.91456-0.93689-1.0746-1.2111-1.006-1.9195 0.068592-0.70838 0.22864-0.89118 1.509-1.5767 1.852-0.95974 2.1264-1.6224 1.2118-2.9249-0.34296-0.50272-1.0746-1.2796-1.6005-1.691-2.0806-1.691-4.0927-3.7247-4.4128-4.5245-0.20578-0.43417-0.52587-2.0794-0.73165-3.6104-0.27437-1.9423-0.5716-3.1534-1.006-3.9989-0.75451-1.4625-1.3032-4.136-0.98315-4.7301 0.16005-0.29706 0.50301-0.41132 1.1203-0.43417 1.1432 0 2.012-0.57127 1.9206-1.2796-0.045728-0.38846-0.38869-0.61697-1.4404-0.93689-0.73165-0.22851-1.4176-0.59412-1.4862-0.79978-0.091456-0.22851 0.22864-0.68553 0.84597-1.2568 0.70878-0.68553 0.96029-1.0511 0.8917-1.4853-0.091456-0.54842-0.18291-0.59412-1.8748-0.66267-0.98315-0.045702-1.9434-0.18281-2.1264-0.34276-0.36582-0.31991-0.29723-1.3025 0.20578-2.5136 0.29723-0.68553 0.27437-0.82263-0.11432-1.2339-0.22864-0.27421-0.73165-0.54842-1.1203-0.61697-0.38869-0.068553-1.0289-0.20566-1.4404-0.27421l-0.75451-0.15996 1.1432-1.1425 1.1203-1.1425-3.4982-17.252c-1.9434-9.506-3.4982-17.572-3.4982-17.915 0-1.2796 1.3261-2.9706 2.698-3.4962 1.0517-0.41132 2.7437-0.31991 3.7497 0.20566 0.98315 0.50272 2.4236 1.988 2.9952 3.0849 0.66306 1.2568 7.2936 19.286 17.057 46.364l2.5608 7.0609 2.5379 2.7193c1.3947 1.4853 3.018 3.0392 3.6125 3.4505 1.4862 1.0054 4.6871 2.5593 8.1167 3.9075 8.5283 3.3819 16.188 8.3863 23.138 15.127 13.901 13.482 22.795 32.403 25.105 53.402l0.38869 3.519-0.73165 1.8281c-2.0578 5.1643-4.2298 8.3634-7.4994 10.991-3.8412 3.0849-9.7172 4.5702-15.205 3.7932-1.1889-0.15996-4.4813-0.89118-7.3165-1.6224-2.8351-0.73123-5.9218-1.4853-6.8592-1.691-2.7208-0.59412-2.9723-0.41132-6.219 4.3874-3.1095 4.6159-5.0758 5.9869-7.6366 5.3928z"/>
<path d="m290.3 159.38c-0.52587-0.43417-3.1781-3.3819-6.2876-6.9924-3.8183-4.4331-8.3454-10.946-11.295-16.224-4.6643-8.3863-7.7509-18.098-8.6655-27.33-0.29723-3.1763-0.3201-9.5745-0.022865-12.408l0.20578-2.0794 1.2804-1.1654c0.68592-0.63982 2.2864-2.1251 3.5668-3.2905 6.0818-5.6899 6.6763-6.0098 11.295-6.0098 2.8809 0 3.0866 0.045702 5.7846 0.95974 5.7617 2.0109 11.112 5.6899 17.491 12.088 6.0132 6.0098 10.129 11.517 13.307 17.755 2.7665 5.4614 3.8869 9.7802 3.4525 13.368-0.091456 0.86833-0.13718 1.6681-0.068591 1.7595 0.045726 0.091403 0.41155 0.25136 0.80024 0.31991 1.4862 0.29706 1.9663 1.7138 0.86883 2.4907-1.8291 1.2568-2.0349 1.531-2.0349 2.4679 0 1.2339 0.48014 1.4853 1.852 1.0283 1.2118-0.41132 1.7605-0.29706 1.7605 0.41132 0 0.86833-0.41155 1.3482-2.4007 2.8792-1.0289 0.79978-1.9434 1.6224-2.0349 1.8281-0.43442 1.1425 0.34296 2.2622 1.5319 2.2622 0.59446 0 0.77738-0.15996 1.0746-0.86833 0.20578-0.47987 0.50301-0.82263 0.66306-0.75408 0.96029 0.31991 1.7148 3.3819 1.1661 4.7301-0.36582 0.84548-0.75451 0.89118-1.6919 0.25136-1.1432-0.82263-2.9952-0.1371-2.4464 0.86833 0.13718 0.25136 0.75451 0.91403 1.349 1.4625 0.96029 0.86833 1.1203 1.1425 1.0517 1.7824-0.045729 0.41132-0.27437 0.86833-0.50301 1.0054-0.3201 0.20566-0.52587 0.13711-1.0289-0.38846-0.3201-0.36561-0.68592-0.66268-0.80024-0.66268-0.38869 0-0.73165 0.63982-0.59446 1.1425 0.13718 0.45702 0.045729 0.54842-0.54874 0.54842-0.96029 0-1.2804-0.41132-1.2804-1.6453 0-0.82263-0.13718-1.1882-0.68592-1.7367-1.3718-1.3482-2.9037-1.2111-3.7954 0.36561-0.75451 1.3254-0.73165 2.605 0.068593 3.4048 0.52587 0.54842 0.75451 0.59412 1.7834 0.50272 1.349-0.1371 2.1949 0.34276 3.2467 1.7595 0.68592 0.91404 0.73165 1.4625 0.20578 1.9195-0.3201 0.25136-0.52587 0.22851-1.2118-0.1371-1.0517-0.57127-1.6005-0.29706-1.7605 0.86833l-0.13718 0.79978h-1.6691c-1.2118 0-1.9663-0.1371-2.6294-0.47987-1.4633-0.73123-1.6005-1.1425-0.64019-2.1251 0.52587-0.54842 0.75451-0.98259 0.70878-1.3711-0.16005-1.0283-1.0975-0.84548-3.3839 0.63982-2.0349 1.3025-2.1264 1.3253-2.9495 1.0511-0.75451-0.22851-0.98315-0.50272-1.5548-1.7595-0.84597-1.9195-1.3261-2.2851-3.2238-2.605-1.4404-0.25136-1.6233-0.22851-2.1949 0.18281-0.38869 0.29706-0.84597 1.074-1.1661 1.9195-0.70878 2.0109-1.5776 3.1534-3.5211 4.7301-1.2347 1.0054-1.5548 1.074-2.2864 0.47987z"/>
<path d="m136.2 152.1c-2.8123-1.8509-4.8929-3.0392-6.3562-3.5876l-1.1661-0.45702-2.012 1.1882c-1.7377 1.0283-2.0349 1.1425-2.4693 0.86833-0.2515-0.15996-1.3947-0.82263-2.515-1.4625-1.6691-0.95974-2.7437-1.8738-5.8989-5.0272-6.9507-6.9695-12.529-14.693-16.896-23.376-6.4476-12.842-8.5969-24.999-6.2419-35.076l0.50301-2.0794 2.6065-2.6278c3.3381-3.4048 6.1961-5.5299 9.4886-7.1523 3.4753-1.691 5.2816-2.1251 8.7569-2.1251 2.1492 0 3.1781 0.11425 4.6871 0.52557 11.912 3.3819 22.91 17.481 35.462 45.405l1.7605 3.9532-0.20578 2.6278c-0.27437 3.4733-0.091456 12.522 0.2515 13.368 0.22864 0.52557 0.11432 1.0968-0.66306 3.5876-1.7377 5.5071-3.4296 8.7519-5.4416 10.534-2.1264 1.8509-4.9844 2.3993-7.7052 1.4625l-1.2575-0.43417-1.006 0.68553c-0.5716 0.36561-1.1432 0.66268-1.2804 0.66268-0.13718-0.022851-1.2118-0.66268-2.4007-1.4625z"/>
</g>
<path d="m81.969 34.201c34.473 11.518 58.473 21.123 72 28.814 13.528 7.691 33.32 23.249 59.377 46.674 27.357-27.438 50.128-46.988 68.314-58.648 18.186-11.66 48.531-26.625 91.035-44.896-69.487-6.959-124.16-8.0008-164.03-3.1253-39.863 4.8755-82.097 15.269-126.7 31.181z" fill="#F3C21E"/>
</g>
</g>
</g>
</g>
</svg>
