<?xml version="1.0" encoding="UTF-8"?>
<svg version="1.1" viewBox="0 0 1001 300" xmlns="http://www.w3.org/2000/svg">
<title>SpeedNet</title>
<desc>Created with Sketch.</desc>
<g fill="none" fill-rule="evenodd">
<g transform="translate(-140 -968)">
<g transform="translate(140 968)">
<rect width="1e3" height="300" fill="#fff" fill-opacity=".01"/>
<g transform="translate(1 96)" fill="#000" fill-rule="nonzero">
<g transform="translate(499.76 54.256) scale(-1 1) rotate(180) translate(-499.55 -53.55)">
<path d="m2.9802 106.09c-0.64321-0.32278-1.4365-0.92532-1.7367-1.3127-1.2435-1.657-1.2435-1.4418-1.2221-13.966 0-7.4886 0.085761-11.9 0.23584-12.459 0.30016-1.0544 1.5651-2.4962 2.7872-3.1633 0.85761-0.47342 1.2435-0.49494 7.0539-0.55949 7.2468-0.086076 8.0187 0.043038 9.6053 1.6354 1.608 1.6139 1.5866 1.3342 1.5866 14.375 0 10.716-0.042881 11.706-0.40737 12.696-0.49313 1.2696-1.994 2.6899-3.2589 3.0772-0.60033 0.17215-3.0231 0.25823-7.1825 0.25823h-6.282l-1.1792-0.58101z"/>
<path d="m64.857 106.43c-6.8395-0.9038-13.465-4.2392-18.396-9.2962-2.2941-2.3456-2.6372-2.7759-4.2452-5.2506-2.1869-3.3785-3.6663-7.1443-4.5239-11.534-0.55745-2.7759-0.55745-8.7152 0-11.47 1.4151-7.2734 5.2314-13.923 10.592-18.463 4.2452-3.5721 8.4475-5.7025 14.065-7.0797 1.8868-0.4519 2.4871-0.47342 26.586-0.60253 19.511-0.10759 24.849-0.21519 25.557-0.4519 4.0093-1.3127 6.8609-4.5835 7.547-8.6291 0.81473-4.8418-2.0583-9.7696-6.7752-11.663-0.94338-0.36582-3.0874-0.40886-34.776-0.49494-31.903-0.10759-33.811-0.15063-34.669-0.53797-1.1792-0.53797-2.3156-1.6354-2.8301-2.7544-0.38593-0.81772-0.42881-1.5494-0.42881-7.4886 0-7.1873 0.042881-7.4671 1.3507-8.9734 0.36449-0.40886 1.1792-0.98987 1.801-1.2481l1.1149-0.49494 34.626 0.086076c34.498 0.064557 34.626 0.064557 36.663 0.55949 2.873 0.66709 4.5668 1.2696 7.2254 2.5392 9.691 4.6051 16.338 13.772 17.86 24.596 0.34304 2.4316 0.15008 8.3924-0.34305 10.652-1.4579 6.4987-4.2023 11.599-8.7691 16.161-3.7306 3.7228-7.6542 6.1759-12.393 7.7683-4.674 1.5494-2.873 1.4418-30.059 1.5924-24.506 0.12911-24.656 0.12911-25.921 0.62405-4.4382 1.6785-7.1611 5.5519-7.1611 10.114 0 4.2608 2.3584 7.8544 6.4107 9.7696l1.3507 0.62405 33.876 0.12911 33.876 0.10759 1.072 0.51646c0.60033 0.30127 1.3722 0.9038 1.7581 1.3557 1.2435 1.5063 1.3722 2.4747 1.2864 9.3608-0.064321 5.8316-0.085761 6.219-0.55745 7.0797-0.64321 1.2266-2.0797 2.4962-3.1517 2.7975-1.0291 0.27975-67.387 0.27975-69.617 0z"/>
<path d="m162.37 106.09c-1.3079-0.66709-2.3799-1.8937-2.7658-3.2494-0.15008-0.53797-0.19296-16.548-0.15008-49.967l0.064321-49.149 0.68609-1.119c0.40737-0.68861 1.0935-1.3557 1.7795-1.7861l1.0935-0.68861 6.4321-0.064557c7.2683-0.086076 7.8257 0 9.348 1.3342 1.801 1.5924 1.801 1.657 1.8868 11.319l0.064321 8.5215 28.301 0.086076c31.474 0.064557 29.738 0 34.626 1.6354 4.6097 1.5278 8.5333 3.9165 12.049 7.2949 4.6954 4.519 7.6113 9.662 9.155 16.182l0.60033 2.4962v14.913c0 13.751-0.021441 15.085-0.42881 16.957-2.4013 11.491-10.334 20.572-21.14 24.166-5.1028 1.7-1.4151 1.5709-43.031 1.6354l-37.371 0.064557-1.2007-0.58101zm74.741-21.347c3.2589-1.0975 5.5531-3.4 6.7537-6.8 0.49313-1.3987 0.51457-1.6785 0.57889-12.567 0.1072-12.825 0-14.289-1.1578-16.656-0.94338-1.8937-2.8301-3.8734-4.5239-4.7342-2.5728-1.3127-1.265-1.2481-30.788-1.2481h-27.186v21.239 21.239h27.465c27.229 0 27.487-0.021519 28.859-0.47342z"/>
<path d="m309.9 106.52c-7.3112-0.94684-13.829-4.1316-18.91-9.2316-4.481-4.4975-7.3969-9.9202-8.812-16.376-0.40737-1.8076-0.42881-3.3785-0.42881-27.566s0.02144-25.758 0.42881-27.566c1.4151-6.4557 4.331-11.878 8.812-16.376 4.481-4.4975 10.056-7.5101 16.423-8.8443 1.9511-0.40886 3.6234-0.43038 39.429-0.43038h37.371l1.1149 0.68861c0.68609 0.43038 1.3507 1.0975 1.7795 1.7861l0.68609 1.119 0.064322 6.6063c0.064321 6.3696 0.04288 6.6494-0.42881 7.7468-0.53601 1.2481-1.608 2.3456-2.8944 2.9266-0.72897 0.3443-4.2452 0.38734-37.263 0.49494-35.312 0.10759-36.513 0.10759-37.478 0.53797-3.3018 1.3987-5.4887 3.7873-6.4535 7.0152-0.36449 1.162-0.42881 2.2165-0.42881 7.4671v6.0899l30.059 0.12911c27.422 0.086076 30.124 0.12911 30.724 0.47342 0.94338 0.51646 1.8868 1.4848 2.4442 2.5608 0.47169 0.86076 0.49313 1.1835 0.49313 7.5747 0 6.3911-0.02144 6.7139-0.49313 7.5747-0.55745 1.0759-1.5008 2.0443-2.4442 2.5608-0.60033 0.3443-3.3018 0.38734-30.724 0.49494l-30.059 0.10759v6.0899c0 5.2506 0.064321 6.3051 0.42881 7.4671 0.96482 3.2278 3.1517 5.6165 6.4535 7.0152 0.96482 0.43038 2.1655 0.43038 37.478 0.55949 33.018 0.086076 36.534 0.12911 37.263 0.47342 1.2864 0.58101 2.3584 1.6785 2.8944 2.9266 0.47169 1.0975 0.49313 1.3772 0.42881 7.7468l-0.064322 6.6063-0.68609 1.119c-0.42881 0.68861-1.0935 1.3557-1.7795 1.7861l-1.1149 0.68861-36.813 0.021519c-20.261 0-37.135-0.021519-37.499-0.064557z"/>
<path d="m430.8 106.3c-3.2161-0.49494-5.8747-1.3557-9.0478-2.9051-7.9758-3.8949-13.829-10.716-16.466-19.087-1.4365-4.5405-1.3936-3.9595-1.3936-30.966s-0.042881-26.425 1.3936-30.944c1.9725-6.3266 5.939-11.943 11.235-15.946 2.6586-2.0013 7.2468-4.3468 10.184-5.1861 4.5882-1.2911 3.5162-1.2696 43.245-1.2051 40.501 0.086076 36.985-0.064557 38.571 1.5494 1.5008 1.5494 1.5008 1.6354 1.5008 9.1671v6.7785l-0.66465 1.119c-0.87905 1.3987-2.144 2.281-3.6877 2.5823-0.79329 0.15063-13.765 0.23671-36.513 0.23671-34.004-0.021519-35.334 0-36.663 0.40886-2.5943 0.81772-5.0385 2.8835-6.2391 5.2937-1.0077 1.9797-1.2007 3.6152-1.2007 9.8126v5.724h29.866c28.644 0 29.931 0.021519 30.788 0.40886 0.49313 0.23671 1.2221 0.77468 1.6295 1.1835 1.3722 1.4633 1.4151 1.7646 1.4151 9.0595 0 7.381-0.064321 7.6823-1.608 9.1456-1.5866 1.5278 0.66465 1.4418-32.268 1.4418h-29.824v5.7025c0 6.1975 0.19296 7.8329 1.2007 9.8126 1.2007 2.4101 3.6449 4.4759 6.2391 5.2937 1.3293 0.40886 2.6586 0.43038 36.663 0.43038 22.748 0 35.72 0.064557 36.513 0.21519 1.5437 0.30127 2.8087 1.1835 3.6877 2.5823l0.66465 1.119v6.7785c0 7.5316 0 7.6177-1.5008 9.1671-1.5866 1.6139 1.9725 1.4848-38.893 1.5063-30.552 0.043038-37.156 0-38.828-0.27975z"/>
<path d="m529.53 106.37c-1.0935-0.40886-2.4442-1.6139-3.0231-2.7114l-0.49313-0.94683v-49.365-49.365l0.49313-0.94683c0.64321-1.2266 2.1012-2.4316 3.2804-2.7759 0.70753-0.19367 10.399-0.23671 37.992-0.17215 36.684 0.064557 37.049 0.064557 39.043 0.53797 6.1534 1.4418 11.128 4.0456 15.351 8.0481 4.0093 3.8089 6.8609 8.2848 8.5118 13.363 1.608 4.9494 1.5866 4.2392 1.5866 31.31 0 22.638-0.042881 24.446-0.42881 26.662-1.2221 7.0152-4.5025 13.084-9.6696 18.011-4.2237 4.0025-9.1979 6.6063-15.351 8.0481-2.0154 0.47342-2.3156 0.47342-39.279 0.51646-29.009 0.043038-37.435 0-38.014-0.21519zm74.012-21.584c1.8653-0.60253 3.0874-1.3557 4.4382-2.7975 1.3293-1.3987 2.1869-2.9696 2.68-4.8418 0.49313-1.9367 0.49313-45.663 0-47.6-0.49313-1.8722-1.3507-3.443-2.68-4.8418-1.3507-1.4418-2.5728-2.1949-4.4382-2.7975-1.3079-0.40886-2.5728-0.40886-28.816-0.40886h-27.444v31.848 31.87h27.444c26.243 0 27.508-0.021519 28.816-0.43038z"/>
<path d="m651.64 106.33c-1.2435-0.43038-2.9159-2.2595-3.2375-3.5721-0.36449-1.4848-0.36449-97.352 0-98.837 0.34305-1.3772 2.1655-3.2924 3.4519-3.6367 0.55745-0.15063 3.3447-0.25823 7.204-0.25823 7.0324 0 7.354 0.064557 8.8763 1.5924 1.608 1.6139 1.4794-1.3127 1.608 36.324l0.1072 33.957 32.761-35.377c27.379-29.589 32.932-35.463 33.854-35.937 1.1149-0.55949 1.1792-0.55949 7.3969-0.55949 4.138 0 6.6036 0.086076 7.1611 0.25823 1.1792 0.3443 2.6372 1.657 3.1517 2.7759 0.40737 0.88228 0.42881 2.819 0.42881 50.29 0 47.471-0.02144 49.408-0.42881 50.29-0.51457 1.119-1.9725 2.4316-3.1517 2.7759-0.55745 0.17215-3.0231 0.25823-7.0968 0.25823-6.7108 0-7.0324-0.043038-8.619-1.2696-0.40737-0.30127-0.96482-0.98987-1.2435-1.5063l-0.51457-0.94684-0.1072-34.108-0.1072-34.108-32.632 35.227c-17.946 19.389-32.932 35.463-33.318 35.743-0.36449 0.30127-1.0291 0.62405-1.4794 0.75316-1.2864 0.3443-12.993 0.25823-14.065-0.12911z"/>
<path d="m798.76 106.52c-0.45025-0.043038-1.608-0.25823-2.5943-0.4519-11.321-2.2165-20.626-10.48-24.185-21.476-1.5437-4.7772-1.4794-3.357-1.4794-31.246 0-23.305 0.02144-25.349 0.40737-27.178 1.7581-8.7582 6.6036-16.032 13.872-20.873 3.1517-2.1089 6.5607-3.5721 10.935-4.6481l2.0154-0.49494 37.328-0.064557 37.306-0.086076 1.1363 0.49494c1.3079 0.58101 2.5085 1.8506 2.873 3.1203 0.17152 0.55949 0.25728 3.0557 0.25728 7.2734 0 5.7671-0.042881 6.4987-0.40737 7.3164-0.53601 1.119-1.6509 2.2165-2.8516 2.7544-0.83617 0.38734-2.873 0.43038-37.371 0.53797l-36.47 0.10759-1.3293 0.62405c-3.0231 1.4203-5.0814 3.7013-5.9819 6.6494-0.40737 1.3127-0.45025 2.0873-0.45025 7.6608v6.1759l30.016 0.064557 30.016 0.064557 1.0935 0.68861c0.68609 0.40886 1.3722 1.0975 1.7795 1.7861l0.68609 1.0975v6.9291 6.9291l-0.68609 1.0975c-0.40737 0.68861-1.0935 1.3772-1.7795 1.7861l-1.0935 0.68861-30.016 0.064557-30.016 0.064557v6.1759c0 5.5734 0.042881 6.3481 0.45025 7.6608 0.9005 2.9481 2.9588 5.2291 5.9819 6.6494l1.3293 0.62405 36.47 0.12911c34.498 0.086076 36.534 0.12911 37.371 0.51646 1.2007 0.53797 2.3156 1.6354 2.8516 2.7544 0.36449 0.81772 0.40737 1.5494 0.40737 7.3164 0 4.1532-0.085762 6.7139-0.23584 7.2734-0.38593 1.2481-1.4579 2.4532-2.7872 3.0557l-1.1363 0.53798-36.47-0.043038c-20.047-0.021519-36.813-0.064557-37.242-0.1076z"/>
<path d="m895.58 106.09c-0.64321-0.32278-1.4151-0.92532-1.7152-1.3127-1.2007-1.5709-1.2435-1.9152-1.2435-8.6291 0-4.1532 0.085762-6.5633 0.25728-7.1443 0.36449-1.1835 1.7581-2.7544 2.9373-3.2709 0.92194-0.38734 2.0154-0.40886 20.154-0.47342l19.211-0.064557v-40.563c0-33.505 0.042881-40.692 0.30016-41.273 0.49313-1.1835 1.5008-2.238 2.7229-2.7975 1.0935-0.51646 1.2864-0.53797 7.547-0.53797 6.2606 0 6.4535 0.021519 7.547 0.53797 1.2221 0.55949 2.2298 1.6139 2.7229 2.7975 0.25728 0.58101 0.3216 7.7683 0.3216 41.273v40.563l19.189 0.064557c21.698 0.064557 20.261-0.064557 21.976 1.8937 1.3293 1.5063 1.4151 2.0873 1.3293 9.3608l-0.064321 6.4557-0.68609 1.119c-0.42881 0.68861-1.0935 1.3557-1.7795 1.7861l-1.1149 0.68861-49.206 0.043038-49.227 0.064557-1.1792-0.58101z"/>
<path d="m4.0522 31.891c-1.7581-0.53797-3.409-2.0873-3.8164-3.5937-0.15008-0.62405-0.2144-4.7987-0.17152-12.739l0.064321-11.835 0.68609-1.119c0.40737-0.68861 1.0935-1.3557 1.7795-1.7861l1.0935-0.68861 6.4321-0.064557c7.2683-0.086076 7.8257 0 9.348 1.3557 1.8439 1.6139 1.8224 1.3772 1.8224 14.654 0 13.019 0.02144 12.739-1.5866 14.353-1.5437 1.5494-2.2941 1.6785-9.2194 1.657-3.2161 0-6.1105-0.086076-6.4321-0.19367z"/>
</g>
</g>
</g>
</g>
</g>
</svg>
