<?xml version="1.0" encoding="UTF-8"?>
<svg version="1.1" viewBox="0 0 1000 300" xmlns="http://www.w3.org/2000/svg">
<title>SwiatZabawek</title>
<desc>Created with Sketch.</desc>
<g fill="none" fill-rule="evenodd">
<g transform="translate(-140 -7185)">
<g transform="translate(140 7185)">
<rect width="1e3" height="300" fill="#fff" fill-opacity=".01"/>
<g transform="translate(95 10)" fill-rule="nonzero">
<g transform="translate(405 140.5) scale(-1 1) rotate(180) translate(-405 -140.5)">
<path d="m32.631 273.26l-6.3207-7.2814 3.2365-0.11437 3.2365-0.11437 8.6814 7.0908c4.7976 3.8885 8.8718 7.2432 9.1003 7.4339 0.19038 0.19061-2.3227 0.30498-5.5972 0.30498l-5.978-0.038122-6.3588-7.2814z" fill="#6C6C6C"/>
<polygon points="179.91 276.01 179.91 271.39 183.91 271.39 187.91 271.39 187.91 276.01 187.91 280.62 183.91 280.62 179.91 280.62" fill="#6C6C6C"/>
<path d="m280.66 265.79v-5.604h-5.4068-5.3688v-3.3929-3.3929l5.2926-0.11437 5.2926-0.11437 0.19038-16.812c0.19038-16.621 0.22846-16.812 1.1423-18.68 0.49499-1.0293 1.7515-2.6304 2.7034-3.5454 3.503-3.2404 7.8437-4.3841 16.563-4.3841 9.3287 0 13.822 1.1055 17.211 4.2697 3.1223 2.9354 3.6934 4.8034 3.8838 12.428l0.1523 6.5189h-3.3888-3.4269l-0.11423-5.7184c-0.11423-5.0703-0.22846-5.8327-1.0661-7.167-1.7134-2.7829-5.483-3.6979-13.936-3.431-5.2926 0.19061-5.8638 0.26686-7.996 1.3343-4.1884 2.1349-4.6072 4.3078-4.4549 22.797l0.11423 12.39 16.297 0.11437 16.297 0.11437v3.3929 3.3929h-16.182-16.182v5.604 5.604h-3.8076-3.8076v-5.604z" fill="#6C6C6C"/>
<path d="m18.81 260.18c-1.4088-0.22873-3.8076-0.76245-5.3307-1.2199-2.2846-0.6862-3.1603-1.2199-4.8738-2.8973-2.475-2.5161-3.3888-5.2609-3.4269-9.9881 0-8.3869 2.7796-11.894 10.204-13.152 1.6373-0.26686 10.014-0.57184 19.99-0.72432 15.878-0.22873 17.325-0.30498 18.772-0.99118 2.3227-1.1818 3.1984-3.4691 2.9319-7.5482-0.26653-3.5073-0.83768-4.7272-2.8177-5.7946-1.1804-0.64808-2.7796-0.72432-18.886-0.72432-17.287 0-17.629 0.038122-19.495 0.87681-2.2846 1.0674-3.2746 2.8973-3.6934 6.8239l-0.30461 2.5161h-3.465-3.465l0.15231-2.2873c0.38076-5.7946 1.7515-9.3781 4.493-11.818 3.9219-3.5454 8.0341-4.0791 27.605-3.8122 7.5772 0.15249 14.888 0.41935 16.297 0.6862 5.5211 0.99118 8.8718 2.9354 10.585 6.1758 0.72345 1.4105 0.87576 2.478 1.0281 6.9001 0.19038 7.0145-0.38076 9.035-3.3126 11.97-3.503 3.5073-3.4269 3.5073-24.597 3.8122-11.728 0.15249-18.696 0.41934-19.571 0.6862-3.5411 1.2199-4.5692 2.8973-4.3788 7.1289 0.11423 2.4398 0.30461 3.0879 1.1423 3.9647 1.8657 1.9824 3.9599 2.2873 16.411 2.5161 20.18 0.30498 24.293-0.64808 25.016-5.9471l0.26653-1.9442h3.5411 3.5411v3.0879c-0.038076 6.2139-3.0842 9.3781-10.699 11.17-2.1323 0.49559-5.7115 0.64808-16.868 0.76245-7.8437 0.038122-15.383-0.038122-16.792-0.22873z" fill="#6C6C6C"/>
<path d="m217.68 260.22c-9.0622-1.4105-13.365-5.7565-13.365-13.457v-1.7918h4.1884 4.1884v1.9442c0 2.7829 1.2184 4.4603 3.998 5.4515 2.018 0.6862 3.3507 0.76245 15.002 0.80057 13.936 0 16.259-0.26686 19.419-2.3636 2.513-1.6393 3.3126-3.9647 3.503-9.9499 0.076152-2.7829 0.038076-5.0703-0.11423-5.0703-0.19038 0-1.0281 0.60996-1.9419 1.3724-1.7896 1.5249-4.9119 2.8592-8.2245 3.4691-1.2946 0.22873-7.9199 0.3431-16.411 0.22873-12.832-0.11437-14.507-0.22873-16.868-0.95306-7.6914-2.3255-10.204-6.1758-9.8999-15.287 0.1523-3.7741 0.34269-5.0321 1.0661-6.6714 1.8657-4.0791 5.6353-6.557 11.613-7.6245 4.493-0.80057 28.519-0.76245 31.946 0.038122 3.503 0.83869 5.3307 1.868 7.2345 4.0791l1.6373 1.9061v-3.126l0.038076-3.0879 3.6934 0.11437 3.6934 0.11437 0.11423 16.621c0.038076 10.331-0.076153 17.651-0.34269 19.366-1.0661 7.0908-4.7596 11.132-12.184 13.381-1.5611 0.45747-4.9119 0.60996-15.992 0.6862-7.6914 0.038122-14.888-0.038122-15.992-0.19061zm29.814-26.457c2.7796-0.53371 4.7215-1.5249 5.7495-2.9354 1.1423-1.563 1.2184-8.6919 0.076153-10.446-1.9038-2.9354-6.4349-3.5454-23.912-3.3166-14.736 0.15249-16.106 0.38122-18.086 2.7448-2.7415 3.2404-2.2846 10.56 0.76153 12.58 2.2465 1.4868 4.7596 1.7155 19.229 1.7536 7.958 0 14.964-0.15249 16.182-0.38122z" fill="#6C6C6C"/>
<path d="m73.982 259.84c0-0.19061 4.9119-11.437 10.966-24.932l10.966-24.551 5.4449-0.11437 5.4068-0.11437 0.57115 1.2962c0.26653 0.72432 3.8076 10.331 7.8057 21.349 3.998 11.017 7.3107 20.052 7.3868 20.09 0.076153 0.11437 11.499-32.251 14.621-41.401l0.45692-1.2962h5.483 5.4449l11.575 24.627c6.3968 13.533 11.651 24.78 11.728 25.008s-1.5992 0.38122-4.2265 0.38122h-4.3407l-8.3387-18.299c-4.6072-10.102-8.986-19.671-9.7095-21.31-0.95191-2.0586-1.485-2.7829-1.7134-2.4017-0.15231 0.3431-3.5792 9.9118-7.6153 21.31l-7.2726 20.739-6.0161-0.11437-5.978-0.11437-7.3868-20.815c-4.0361-11.475-7.5011-20.967-7.6534-21.12-0.15231-0.15249-4.4169 9.1875-9.481 20.815l-9.1764 21.12-4.493 0.11437c-2.5511 0.038123-4.4549-0.038122-4.4549-0.26686z" fill="#6C6C6C"/>
<path d="m180.1 259.69c-0.11423-0.26686-0.15231-11.475-0.076153-24.932l0.076153-24.398 3.9219-0.11437 3.8838-0.11437v25.008 25.046h-3.8076c-2.6653 0-3.8838-0.15249-3.998-0.49559z" fill="#6C6C6C"/>
<path d="m6.3968 177.73v-9.9881h26.996c15.687 0 26.92-0.15249 26.806-0.38122-0.11423-0.19061-12.718-9.8356-28.024-21.425l-27.758-21.12v-10.179-10.141h46.567 46.567v10.179 10.217l-28.519 0.11437-28.519 0.076245 27.796 21.272 27.834 21.234 0.11423 10.064 0.11423 10.102h-45.006-44.968v-10.026z" fill="#EC6724"/>
<path d="m128.74 156.42c-8.9099-17.193-18.581-35.911-21.513-41.63l-5.3307-10.293h13.136 13.136l3.9219 6.9764 3.9219 7.0145h23.912c21.627 0 23.95-0.076245 24.445-0.64808 0.30461-0.38122 2.0942-3.4691 3.9599-6.9001l3.4269-6.2521 13.327-0.11437c7.4249-0.076244 13.213 0.038123 13.136 0.22873-0.076152 0.19061-9.5572 18.947-21.094 41.63l-21.018 41.286h-15.573-15.611l-16.182-31.298zm39.257-3.431c4.0742-7.8532 7.3487-14.41 7.2726-14.601-0.26654-0.38122-29.623-0.38122-29.89 0.038122-0.26654 0.41935 14.545 29.392 14.888 29.087 0.15231-0.15249 3.6173-6.6714 7.7295-14.525z" fill="#EC6724"/>
<path d="m226.71 146.12v-41.668l41.656 0.11437c45.996 0.11437 43.179-0.038122 48.89 2.6686 3.3507 1.6011 5.4449 3.5835 7.0822 6.7095 2.0942 3.9647 2.8557 8.2344 2.5892 14.525-0.38076 9.9499-3.6553 15.249-10.699 17.422-1.1804 0.38122-2.4369 0.76245-2.7415 0.87681-0.30461 0.076245 0.34269 0.60996 1.485 1.1818 3.3126 1.6393 5.8638 4.2316 7.5391 7.6245 1.4088 2.8592 1.485 3.2404 1.6754 7.7007 0.19038 5.8708-0.41884 9.5687-2.1704 13.228-2.4369 5.0703-6.5491 8.3107-13.174 10.293-2.2084 0.64808-5.2926 0.72432-42.265 0.83869l-39.866 0.11437v-41.63zm68.614 22.759c2.6653-0.99118 4.1884-3.431 4.1884-6.5952 0-2.5542-0.95191-4.7653-2.5892-5.9471-1.1042-0.80057-1.5992-0.83869-23.684-0.95306l-22.541-0.11437v7.0145 7.0526h21.742c14.431 0 22.16-0.15249 22.884-0.45747zm2.6653-30.917c1.98-0.83869 3.7696-3.126 4.0742-5.2609 0.60922-3.9266-0.76153-7.3576-3.4269-8.73-1.2565-0.60996-3.3126-0.6862-24.674-0.6862h-23.265v7.6245 7.5863h22.998c18.391 0 23.227-0.11437 24.293-0.53371z" fill="#EC6724"/>
<path d="m355.29 146.31c-11.804-22.797-21.437-41.515-21.437-41.63s5.8638-0.19061 13.06-0.19061h13.098l3.8076 6.9001 3.8076 6.9001 24.064 0.076245 24.102 0.11437 0.91383-1.4868c0.53307-0.83869 2.2846-4.0028 3.9219-7.0145l2.97-5.4896h13.289 13.327l-7.996 15.706c-4.4169 8.6156-13.936 27.334-21.17 41.515l-13.136 25.809-15.573 0.11437-15.573 0.11437-21.475-41.439zm44.626 6.3664c3.8838-7.5101 7.0822-13.877 7.0822-14.105 0-0.3431-3.998-0.45747-15.002-0.45747-8.491 0-14.964 0.15249-14.964 0.3431 0 0.30498 13.669 27.41 14.545 28.782 0.45692 0.72432 0.30461 0.95306 8.3387-14.563z" fill="#EC6724"/>
<path d="m447.47 187.22c0.11423-0.26686 5.7115-18.718 12.451-40.982 6.7395-22.302 12.375-40.791 12.489-41.134 0.19038-0.57184 1.9419-0.60996 14.088-0.60996h13.86l9.1383 28.287c5.0261 15.592 9.2526 28.439 9.4049 28.592 0.11423 0.15249 4.3026-12.542 9.2906-28.211l9.0241-28.477h13.746 13.746l13.098 41.21c7.1964 22.683 13.098 41.363 13.098 41.553 0 0.15249-5.3688 0.30498-11.956 0.30498-11.08-0.038123-11.994-0.076245-12.184-0.72432-0.11423-0.38122-3.5411-12.123-7.6534-26.114-9.8237-33.586-9.4429-32.251-9.7856-31.603-0.15231 0.3431-4.493 13.61-9.6333 29.507l-9.3287 28.935-11.194-0.038123h-11.233l-9.976-29.392c-5.5211-16.202-10.09-29.43-10.204-29.43-0.11423 0-3.503 12.123-7.5772 26.914-4.0742 14.83-7.7295 28.058-8.1103 29.43l-0.72345 2.5161h-12.032c-9.4429 0-11.994-0.11437-11.842-0.53371z" fill="#EC6724"/>
<polygon points="597.3 146.12 597.3 104.49 641.09 104.49 684.88 104.49 684.88 114.48 684.88 124.51 653.09 124.51 621.29 124.51 621.29 130.91 621.29 137.32 650.69 137.32 680.08 137.32 680.08 146.12 680.08 154.93 650.69 154.93 621.29 154.93 621.29 161.33 621.29 167.74 652.48 167.74 683.66 167.74 683.66 177.73 683.66 187.75 640.48 187.75 597.3 187.75" fill="#EC6724"/>
<path d="m699.27 146.12v-41.63h11.956 11.994l0.11423 15.706 0.11423 15.706 4.988 0.11437 5.0261 0.11437 17.972-15.821 17.934-15.821h16.83 16.792l-0.98999 0.91494c-0.57115 0.53371-11.385 9.9881-24.102 21.044-12.679 11.055-23.074 20.167-23.074 20.205 0 0.11437 34.345 33.281 39.752 38.351l2.8177 2.7067h-16.182-16.182l-15.611-15.401-15.573-15.363-5.2926-0.038122h-5.2926v15.401 15.44h-11.994-11.994v-41.63z" fill="#EC6724"/>
<path d="m0 65.837v-25.008h347.79 347.83l-0.41884 1.2199c-0.57115 1.6774 0.11423 3.9647 1.7134 5.7946l1.2184 1.4105h-3.6173-3.6553v1.9824 2.0205h1.8277c1.5992 0 1.8277 0.076245 1.5992 0.6862-0.1523 0.38122-0.76153 2.0967-1.3708 3.8122l-1.0661 3.0879h-6.1684-6.2065l-1.1804-3.3166c-0.60922-1.7917-1.2184-3.5073-1.3327-3.7741-0.11423-0.38122 0.34269-0.49559 1.6754-0.49559h1.8277v-2.0205-1.9824h-6.2065-6.1684v1.9824 2.0205h1.7134 1.7515l5.5592 15.478 5.5592 15.516 3.008 0.11437 2.97 0.11437 5.5592-15.63 5.5972-15.592h1.7134 1.7515v-1.9442c-0.038078-1.6774-0.1523-2.0205-0.98999-2.4017-1.0661-0.45747-2.7796-2.6304-3.1984-3.9647-0.38076-1.2199 0.30461-2.2873 1.7515-2.8973 0.68537-0.30498 1.2184-0.6862 1.2184-0.87681s23.15-0.3431 53.764-0.3431h53.802v25.008 25.046h-43.597-43.559v-1.2199-1.1818h-2.3988-2.3988v1.1818 1.2199h-358.83-358.83v-25.046zm32.175 18.794c3.1603-0.80057 6.1684-2.5161 7.0822-3.9647 0.53307-0.87681 0.72345-2.0205 0.72345-4.1172v-2.9354l-2.2846 0.11437-2.3227 0.11437-0.19038 2.173c-0.15231 1.4486-0.45692 2.3255-1.0281 2.7448-3.8457 2.9354-11.461 2.6686-15.84-0.53371-7.0061-5.0703-6.5872-17.994 0.72345-23.026 4.3026-2.9735 12.299-3.0117 15.726-0.11437 1.1423 0.95306 1.2184 1.1818 1.2184 4.0028v2.9735h-3.3888-3.3888v1.9824 2.0205h5.7876 5.8257l-0.11423-6.1758c-0.11423-5.9471-0.15231-6.2139-1.1042-7.2432-3.1984-3.3929-12.337-5.2609-18.201-3.6597-8.1864 2.173-13.403 9.1875-13.403 18.07 0 8.6538 4.988 15.363 13.136 17.613 2.5892 0.72432 8.2245 0.72432 11.042-0.038122zm270.34-0.53371c3.2365-1.4105 3.8838-2.3636 4.0742-5.8708l0.15231-2.9735h-2.4369-2.4369v1.5249c0 1.9061-1.1042 3.0117-3.6173 3.6979-3.5411 0.91494-7.2345-0.26686-8.2626-2.7067-1.2946-3.126 0.60922-5.8327 5.5211-7.6626 9.3668-3.5454 11.918-6.0233 11.918-11.475 0-4.041-2.1323-7.3195-5.978-9.1494-1.485-0.6862-2.5511-0.83869-6.2065-0.83869-3.7315 0-4.6834 0.11437-6.3968 0.91494-3.8457 1.7917-5.3688 4.041-5.3688 7.8532v2.2492h2.3988 2.3988v-1.4105c0-2.0586 0.76153-3.3929 2.5511-4.3078 2.018-1.0293 6.1684-1.1437 8.3007-0.19061 2.7415 1.1818 3.998 4.8415 2.4369 7.0908-1.1042 1.6011-2.1323 2.2873-5.2926 3.6216-8.7956 3.6597-10.699 5.0703-11.651 8.4632-1.0281 3.8504 0.53307 8.5394 3.465 10.331 2.513 1.563 4.493 1.9824 8.5672 1.868 2.8938-0.076245 4.3026-0.3431 5.8638-1.0293zm63.892 0.60996c8.1103-2.173 13.403-9.1494 13.403-17.651 0-5.0703-1.5992-9.2256-4.9119-12.847-3.465-3.8122-7.996-5.7565-13.289-5.7565-5.1403-0.038122-9.7095 1.9061-13.06 5.4896-6.8157 7.2814-6.8538 18.985-0.11423 25.847 3.5792 3.5835 7.9199 5.4134 12.984 5.4515 1.6373 0 3.8838-0.22873 4.988-0.53371zm124.66-0.60996c4.6834-1.6393 5.9018-3.2023 5.9018-7.6626v-2.8211l-2.3227 0.11437-2.2846 0.11437-0.22846 2.1349c-0.1523 1.6393-0.41884 2.3255-1.1804 2.8973-1.7134 1.2962-3.6553 1.7917-7.3868 1.7536-4.3026 0-6.5872-0.91494-9.2906-3.6597-2.4369-2.5161-3.465-5.4515-3.465-9.9118 0-3.2023 0.11423-3.8885 1.2184-6.2139 1.6754-3.5835 2.9319-4.9559 6.0541-6.4808 2.2846-1.1437 3.0842-1.3343 5.6734-1.3343 3.3126 0 6.0922 0.64808 7.5772 1.7917 0.76153 0.57184 1.0281 1.2199 1.2184 2.8973l0.19038 2.1349 2.3227 0.11437 2.2846 0.11437v-2.8211c0-3.2404-0.60922-4.7272-2.3607-6.0233-3.4269-2.4398-11.651-3.5454-16.221-2.2111-3.465 0.99118-5.2926 2.0586-7.8437 4.4603-5.9018 5.6802-7.2726 14.83-3.3888 22.53 2.0181 3.9647 6.7776 7.7007 11.309 8.8444 2.475 0.60996 9.5952 0.19061 12.223-0.76245zm150.48 0c3.2365-1.4105 3.8838-2.3636 4.0742-5.8708l0.1523-2.9735h-2.4369-2.4369v1.5249c0 1.9061-1.1042 3.0117-3.6173 3.6979-3.5411 0.91494-7.2345-0.26686-8.2626-2.7067-1.2946-3.126 0.60922-5.8327 5.5211-7.6626 9.3668-3.5454 11.918-6.0233 11.918-11.475 0-4.041-2.1323-7.3195-5.978-9.1494-1.485-0.6862-2.5511-0.83869-6.2065-0.83869-3.7315 0-4.6834 0.11437-6.3968 0.91494-3.8457 1.7917-5.3688 4.041-5.3688 7.8532v2.2492h2.3988 2.3988v-1.4105c0-2.0586 0.76153-3.3929 2.5511-4.3078 2.018-1.0293 6.1684-1.1437 8.3007-0.19061 2.7415 1.1818 3.998 4.8415 2.4369 7.0908-1.1042 1.6011-2.1323 2.2873-5.2926 3.6216-8.7956 3.6597-10.699 5.0703-11.651 8.4632-1.0281 3.8504 0.53307 8.5394 3.465 10.331 2.513 1.563 4.493 1.9824 8.5672 1.868 2.8938-0.076245 4.3026-0.3431 5.8638-1.0293zm-581.58-1.6393v-1.9824h-2.2084-2.1704v-13.61-13.61h2.1704 2.2084v-2.0205-1.9824h-7.0061-7.0441l0.15231 1.868 0.11423 1.9061 2.0942 0.11437 2.0942 0.15249v13.572 13.533l-2.0942 0.15249-2.0942 0.11437-0.11423 1.9061-0.15231 1.9061h7.0441 7.0061v-2.0205zm31.185-2.2111v-4.1935h-2.2084-2.1704v2.2111 2.2111h-6.0161-5.978v-5.604-5.604h6.3968 6.3968v-2.0205-1.9824h-6.3968-6.3968v-6.0233-5.9852h6.3968 6.3968v2.173 2.2111h2.1704 2.2084v-4.1935-4.1935h-13.403-13.441l0.15231 1.868 0.11423 1.9061 2.0942 0.11437 2.0942 0.15249v13.572 13.533l-2.0942 0.15249-2.0942 0.11437-0.11423 1.9061-0.15231 1.9061h13.022 13.022v-4.2316zm27.072 3.5835c2.6653-0.91494 3.9219-1.9061 5.2165-4.1172 0.95191-1.6011 1.1042-2.2873 1.1042-5.0703-0.038076-2.5161-0.22846-3.5454-0.87576-4.8415-1.0281-1.868-3.3507-4.0791-4.988-4.6509l-1.1423-0.38122 0.95191-1.258c0.49499-0.6862 1.98-3.0879 3.1984-5.3371 2.5892-4.6128 2.7796-4.8034 4.4549-4.994 1.1042-0.15249 1.1804-0.26686 1.2946-2.0586l0.15231-1.868-3.0461-0.038122c-3.8457 0-3.8076 0-8.1483 7.7007-3.6553 6.5952-3.8457 6.7095-8.3387 6.7095l-2.0942 0.038122v-5.2228-5.1846h2.1704 2.2084v-2.0205-1.9824h-7.0061-7.0441l0.15231 1.868 0.11423 1.9061 2.0942 0.11437 2.0942 0.15249v13.572 13.533l-2.0942 0.15249-2.0942 0.11437-0.11423 1.9061-0.15231 1.9061h10.014c8.1483 0 10.357-0.15249 11.918-0.64808zm47.481-0.038122c4.3407-1.4868 6.8538-5.7946 6.5111-11.094-0.19038-3.126-0.95191-4.9559-2.8557-6.9764-2.475-2.6304-3.7696-3.0498-10.357-3.2023l-5.8638-0.15249v-4.5747-4.5366h2.1704 2.2084v-2.0205-1.9824h-7.0061-7.0441l0.15231 1.868 0.11423 1.9061 2.0942 0.11437 2.0942 0.15249v13.572 13.533l-2.0942 0.15249-2.0942 0.11437-0.11423 1.9061-0.15231 1.9061h10.166c8.3768 0 10.471-0.11437 12.07-0.6862zm24.217-1.3343v-1.9824h-2.2084-2.2084v-13.61-13.61h6.2065 6.2065v2.9735 3.0117h2.1704 2.2084v-4.994-4.994h-13.213-13.213l0.11423 1.868 0.11423 1.9061 2.0942 0.11437 2.1323 0.15249v13.572 13.61h-2.2084-2.2084v1.9824 2.0205h7.0061 7.0061v-2.0205zm40.133-13.724l5.5592-15.478h1.7134 1.7515v-2.0205-1.9824h-6.2065-6.1684v1.9824 2.0205h1.7896c0.98999 0 1.7896 0.038122 1.7896 0.076245 0 0.076245-0.60922 1.7155-1.3327 3.6979l-1.2946 3.6216-6.1684 0.11437-6.2065 0.076245-1.1423-3.2785c-0.6473-1.8299-1.2565-3.5454-1.3327-3.8122-0.15231-0.38122 0.34269-0.49559 1.6373-0.49559h1.8657v-2.0205-1.9824h-6.2065-6.2065v1.9824 2.0205h1.7515 1.7134l5.1022 14.296c2.8177 7.8532 5.3688 14.906 5.6734 15.63l0.53307 1.2962 2.8938-0.11437 2.9319-0.11437 5.5592-15.516zm29.814 3.736c4.493-6.5952 8.6053-12.657 9.1003-13.495l0.87576-1.5249v11.513l0.038077 11.513h-2.2084-2.2084v1.9824 2.0205h7.0061 7.0061v-2.0205-1.9824h-2.2084-2.2084v-15.63-15.63l-2.6653 0.11437-2.6653 0.11437-4.988 7.2051c-2.7415 3.9647-6.8538 9.9499-9.1383 13.305l-4.1123 6.0996v-11.399-11.36l2.2846-0.15249 2.2846-0.11437 0.11423-1.9061 0.15231-1.868h-7.2345-7.2726l0.15231 1.868 0.11423 1.9061 2.0942 0.11437 2.0942 0.15249v13.572 13.533l-2.0942 0.15249-2.0942 0.11437-0.11423 1.9061-0.15231 1.9061 4.9499-0.038122 4.9119-0.038122 8.1864-11.932zm78.361 10.331c0-1.4868-0.83768-2.8592-9.0622-14.677-4.9499-7.2051-9.4049-13.495-9.8618-13.991l-0.7996-0.87681h7.8437 7.8818v2.9735 3.0117h2.2084 2.2084v-4.994-4.994h-13.213-13.174v1.6011c0 1.4868 0.83768 2.8973 9.0241 14.715 4.988 7.2051 9.4429 13.495 9.8999 13.991l0.7996 0.91494h-7.463-7.463v-2.8211-2.7829h-2.2084-2.2084v4.8034 4.8034h12.794 12.794v-1.6774zm56.696-0.22873l-0.11423-1.9061-2.018-0.19061-2.018-0.22873 2.8177-11.894c1.5611-6.557 2.8938-11.894 3.008-11.894 0.11423 0 1.9038 6.2902 3.998 13.991l3.7696 14.029h2.2465 2.2465l3.7315-13.915c2.0561-7.6626 3.8838-14.105 4.0742-14.296 0.19038-0.22873 0.34269 0.038122 0.34269 0.60996 0 0.53371 1.2184 6.0233 2.7034 12.161l2.7034 11.208-2.018 0.22873-2.0181 0.19061-0.11423 1.9061-0.11423 1.9061h6.3968 6.4349v-1.9824-1.9824l-1.6754-0.15249-1.7134-0.11437-3.6173-14.41c-2.018-7.9294-3.7696-14.906-3.9219-15.516-0.26654-1.0674-0.34269-1.0674-3.1984-1.0674h-2.9319l-3.465 12.542c-1.9038 6.9001-3.465 12.733-3.465 13 0 1.9442-1.0661-1.3343-4.1503-12.542l-3.5792-13h-2.8938-2.9319l-0.34269 1.2962c-0.19038 0.6862-1.98 7.7388-3.9219 15.592l-3.5411 14.334h-1.7134-1.7134v1.9824 2.0205h6.4349 6.3968l-0.11423-1.9061zm49.575 0l-0.11423-1.9061-1.7134-0.19061-1.7134-0.22873 3.5792-5.909 3.5411-5.909 3.465 5.8708c1.8657 3.2023 3.4269 5.909 3.4269 5.9852 0 0.11437-0.72345 0.19061-1.5992 0.19061h-1.5992v1.9824 2.0205h6.0161 5.978v-2.0205-1.9824l-1.7134-0.038122h-1.6754l-4.9119-8.2344-4.8738-8.2344v-5.3752-5.3371h2.1704 2.2084v-2.0205-1.9824h-7.0061-6.968v1.9824 2.0205h2.1704 2.2084v5.4896 5.5277l-4.9119 8.0819-4.8738 8.0819h-1.7134l-1.6754 0.038122v1.9824 2.0205h6.2065 6.2065l-0.11423-1.9061zm72.041-0.11437v-1.9824h-2.2084-2.1704v-5.8327-5.7946h9.1764 9.2145v5.7946 5.8327h-2.2084-2.2084v1.9824 2.0205h7.0061 7.0441l-0.15231-1.9061-0.11423-1.9061-2.0942-0.11437-2.0942-0.15249v-13.572-13.533l2.0942-0.15249 2.0942-0.11437 0.11423-1.9061 0.15231-1.868h-7.0441-7.0061v1.9824 2.0205h2.2084 2.2084v5.7946 5.7946h-9.2145-9.1764v-5.7946-5.7946h2.1704 2.2084v-2.0205-1.9824h-7.0061-7.0441l0.1523 1.868 0.11423 1.9061 2.0942 0.11437 2.0942 0.15249v13.572 13.533l-2.0942 0.15249-2.0942 0.11437-0.11423 1.9061-0.1523 1.9061h7.0441 7.0061v-2.0205zm54.373 0v-1.9824h-2.2084-2.1704v-13.61-13.61h2.1704 2.2084v-2.0205-1.9824h-7.0061-7.0441l0.1523 1.868 0.11423 1.9061 2.0942 0.11437 2.0942 0.15249v13.572 13.533l-2.0942 0.15249-2.0942 0.11437-0.11423 1.9061-0.1523 1.9061h7.0441 7.0061v-2.0205zm30.804 0v-1.9824h-2.018-1.98v-5.4134-5.4134h2.2846 2.2846l3.6173 5.0703c1.98 2.7829 3.6553 5.2228 3.7315 5.4134 0.07615 0.19061-0.53307 0.3431-1.2946 0.3431h-1.4469v1.9824 2.0205h6.0161 5.978v-2.0205-1.9824l-1.7134-0.038122h-1.6754l-4.5311-6.1758-4.5311-6.2139 1.1804-1.4868c0.6473-0.83869 2.475-3.8504 4.0742-6.7095 3.6553-6.4808 3.7315-6.5952 5.6734-6.5952h1.5231v-2.0205-1.9824h-2.8177c-1.6373 0-3.2746 0.22873-3.8838 0.53371-0.7996 0.41935-2.2465 2.5923-5.0261 7.5863-2.1323 3.8504-4.1503 7.2051-4.4549 7.472-0.30461 0.22873-1.5611 0.57184-2.7796 0.6862l-2.2084 0.22873v-6.2521-6.2521h2.1704 2.2084v-2.0205-1.9824h-7.0061-7.0441l0.1523 1.868 0.11423 1.9061 2.0942 0.11437 2.0942 0.15249v13.572 13.533l-2.0942 0.15249-2.0942 0.11437-0.11423 1.9061-0.1523 1.9061h6.8157 6.8538v-2.0205zm63.55 0v-1.9824h-2.2084-2.1704v-13.61-13.61h2.1704 2.2084v-2.0205-1.9824h-7.0061-7.0441l0.15231 1.868 0.11423 1.9061 2.0942 0.11437 2.0942 0.15249v13.572 13.533l-2.0942 0.15249-2.0942 0.11437-0.11423 1.9061-0.15231 1.9061h7.0441 7.0061v-2.0205zm66.786 0.38122c0-1.4868-0.83768-2.8592-8.491-13.915-4.6453-6.7477-8.986-12.923-9.5952-13.762-0.60922-0.80057-1.1042-1.563-1.1042-1.6774 0-0.15249 3.3888-0.22873 7.5772-0.22873h7.6153v2.9735 3.0117h2.1704 2.2084v-4.994-4.994h-13.174-13.213v1.6011c0 1.4868 0.87576 2.8973 9.7856 15.63l9.7856 13.991h-7.3868-7.3868v-2.8211-2.7829h-2.2084-2.1704v4.8034 4.8034h12.794 12.794v-1.6393zm31.185-2.5923v-4.1935h-2.2084-2.2084v2.2111 2.2111h-5.978-6.0161v-5.604-5.604h6.3968 6.3968v-2.0205-1.9824h-6.3968-6.3968v-6.0233-5.9852h6.3968 6.3968v2.173 2.2111h2.2084 2.2084v-4.1935-4.1935h-13.441-13.403l0.11423 1.868 0.11423 1.9061 2.0942 0.11437 2.1323 0.15249v13.572 13.533l-2.1323 0.15249-2.0942 0.11437-0.11423 1.9061-0.11423 1.9061h13.022 13.022v-4.2316zm19.191 2.2111v-1.9824h-2.018-1.98v-5.4134-5.4134h2.2846 2.2846l3.6173 5.0703c1.98 2.7829 3.6553 5.2228 3.7315 5.4134 0.07615 0.19061-0.53307 0.3431-1.2946 0.3431h-1.4469v1.9824 2.0205h6.0161 5.978v-2.0205-1.9824l-1.7134-0.038122h-1.6754l-4.5311-6.1758-4.5311-6.2139 1.1804-1.4868c0.6473-0.83869 2.475-3.8504 4.0742-6.7095 3.6553-6.4808 3.7315-6.5952 5.6734-6.5952h1.5231v-2.0205-1.9824h-2.8177c-1.6373 0-3.2746 0.22873-3.8838 0.53371-0.7996 0.41935-2.2465 2.5923-5.0261 7.5863-2.1323 3.8504-4.1503 7.2051-4.4549 7.472-0.30461 0.22873-1.5611 0.57184-2.7796 0.6862l-2.2084 0.22873v-6.2521-6.2521h2.1704 2.2084v-2.0205-1.9824h-7.0061-7.0441l0.1523 1.868 0.11423 1.9061 2.0942 0.11437 2.0942 0.15249v13.572 13.533l-2.0942 0.15249-2.0942 0.11437-0.11423 1.9061-0.1523 1.9061h6.8157 6.8538v-2.0205z" fill="#706F6F"/>
<path d="m358.03 80.209c-4.9119-1.5249-8.0341-5.2228-9.0622-10.636-1.1423-6.2521 2.018-12.695 7.5391-15.401 3.1223-1.5249 7.1203-1.5249 10.243 0 6.5111 3.2023 9.4049 11.132 6.7014 18.299-1.4469 3.8504-4.4169 6.557-8.4149 7.7388-2.6273 0.80057-4.3788 0.80057-7.0061 0z" fill="#706F6F"/>
<path d="m105.97 74.11v-6.4427h3.8838c2.1323 0 4.5692 0.15249 5.3688 0.38122 3.3888 0.95306 5.1403 5.1465 3.6934 8.73-1.1042 2.6304-2.5511 3.2404-8.3007 3.5454l-4.6453 0.26686v-6.4808z" fill="#706F6F"/>
<path d="m153.14 73.462v-7.1289l4.5692 0.22873c5.6734 0.26686 7.1964 0.91494 8.5291 3.5073 1.1804 2.2492 1.0661 5.7946-0.19038 7.5101-1.5611 2.0586-2.9319 2.5161-8.1483 2.7829l-4.7596 0.22873v-7.1289z" fill="#706F6F"/>
<path d="m219.32 72.432c-1.2946-3.6216-2.4369-6.8239-2.513-7.0908-0.15231-0.38122 0.95191-0.49559 4.6453-0.49559 2.6653 0 4.8357 0.11437 4.8357 0.26686 0 0.15249-0.98999 3.0879-2.1704 6.5189s-2.2084 6.4808-2.3227 6.7858c-0.076153 0.30498-1.1804-2.4017-2.475-5.9852z" fill="#706F6F"/>
<path d="m685.26 78.036c0-0.26686-0.98999-3.2404-2.2084-6.6333-1.2184-3.3929-2.1704-6.2902-2.1704-6.3664 0-0.11437 2.1704-0.19061 4.8357-0.19061 3.6934 0 4.7976 0.11437 4.6453 0.49559-0.11423 0.26686-1.1423 3.3548-2.3607 6.8239-1.8657 5.4896-2.7415 7.3576-2.7415 5.8708z" fill="#706F6F"/>
<path d="m500.97 12.618c0-12.352 0-12.618 0.7996-12.618 0.76153 0 0.7996 0.26686 0.7996 12.618 0 12.352-0.038077 12.618-0.7996 12.618-0.7996 0-0.7996-0.26686-0.7996-12.618z" fill="#505050"/>
<path d="m621.29 12.618c0-12.352 0-12.618 0.7996-12.618 0.7996 0 0.7996 0.26686 0.7996 12.618 0 12.352 0 12.618-0.7996 12.618-0.7996 0-0.7996-0.26686-0.7996-12.618z" fill="#505050"/>
<path d="m597.84 22.645c-1.5611-0.6862-2.1323-1.7155-2.1323-3.736 0-2.2873 1.1042-3.431 4.6834-4.8797 3.7696-1.5249 5.1022-2.8211 4.7595-4.5747-0.38076-1.868-1.5611-2.6686-4.1122-2.6686-1.7515 0.038122-2.3607 0.19061-3.1603 0.99118-0.53307 0.53371-0.95191 1.1818-0.95191 1.4105s-0.38076 0.41935-0.7996 0.41935c-1.8277 0-0.41884-2.8973 1.8277-3.8504 1.7134-0.72432 4.6072-0.72432 6.3207 0 2.3607 0.99118 3.3126 4.1553 2.018 6.6714-0.68537 1.2962-1.7134 1.9061-4.9499 2.9735-3.6934 1.2199-5.1022 3.5454-3.2365 5.4134 1.1423 1.1437 4.6834 1.1437 5.9399 0 0.45692-0.45747 0.87576-1.1055 0.87576-1.4105 0-0.3431 0.34269-0.57184 0.7996-0.57184 1.1423 0 0.98999 1.3343-0.38076 2.8592-1.0281 1.1437-1.4088 1.2962-3.6934 1.4105-1.5992 0.076245-3.008-0.076245-3.8076-0.45747z" fill="#505050"/>
<path d="m641.89 22.454c-2.0561-0.95306-3.2365-2.2492-3.998-4.3841-1.1804-3.431-0.49499-8.2344 1.485-10.407 2.2084-2.3636 6.5872-3.126 9.7856-1.6774 2.5511 1.1818 4.4549 4.8415 2.513 4.8034-0.53307 0-0.98999-0.45747-1.3708-1.4105-1.0661-2.5542-5.5592-3.4691-8.2626-1.6774-1.98 1.3343-2.7415 3.1642-2.7415 6.5189 0 3.3166 0.76153 5.1846 2.7415 6.4808 1.4469 0.99118 3.998 1.2199 5.7876 0.53371 1.2565-0.49559 2.6653-1.9824 2.6653-2.8973 0-0.49559 0.26654-0.72432 0.98999-0.72432 1.2184 0 1.2946 0.87681 0.22846 2.6304-1.6373 2.6686-6.473 3.7741-9.8237 2.2111z" fill="#505050"/>
<path d="m662.72 22.645c-5.7115-2.0586-7.3487-10.446-2.8938-14.906 2.6653-2.6686 6.473-3.2785 10.128-1.563 4.6453 2.173 6.2065 8.8444 3.1223 13.495-1.9419 2.9354-6.6253 4.2697-10.357 2.9735zm6.5111-1.8299c2.3988-1.2199 3.4269-3.2023 3.4269-6.6333 0-2.4017-0.1523-3.0879-1.0661-4.4603-1.4088-2.1349-3.4269-3.0498-6.2065-2.8211-3.5792 0.30498-5.7115 2.478-6.0161 6.0615-0.26654 3.0117 0.1523 4.8034 1.4088 6.2902 2.0181 2.4017 5.5592 3.0498 8.453 1.563z" fill="#505050"/>
<path d="m701.79 22.645c-1.5611-0.6862-2.1323-1.7155-2.1323-3.736 0-2.2873 1.1042-3.431 4.6834-4.8797 3.7696-1.5249 5.1022-2.8211 4.7596-4.5747-0.38076-1.868-1.5611-2.6686-4.1122-2.6686-1.7515 0.038122-2.3607 0.19061-3.1603 0.99118-0.53307 0.53371-0.95191 1.1818-0.95191 1.4105s-0.38076 0.41935-0.7996 0.41935c-1.8277 0-0.41884-2.8973 1.8277-3.8504 1.7134-0.72432 4.6072-0.72432 6.3207 0 2.3607 0.99118 3.3126 4.1553 2.018 6.6714-0.68537 1.2962-1.7134 1.9061-4.9499 2.9735-3.6934 1.2199-5.1022 3.5454-3.2365 5.4134 1.1423 1.1437 4.6834 1.1437 5.9399 0 0.45692-0.45747 0.87576-1.1055 0.87576-1.4105 0-0.3431 0.34269-0.57184 0.7996-0.57184 1.1423 0 0.98999 1.3343-0.38076 2.8592-1.0281 1.1437-1.4088 1.2962-3.6934 1.4105-1.5992 0.076245-3.008-0.076245-3.8076-0.45747z" fill="#505050"/>
<path d="m796.67 22.645c-3.1984-1.1437-5.0642-4.2316-5.0642-8.425 0-5.604 3.2365-8.9969 8.6053-8.9969 4.1122 0 6.5872 1.9061 7.3868 5.7565 0.22846 1.2199 0.34269 2.4017 0.19038 2.6304-0.11423 0.22873-1.6754 0.41935-3.4269 0.41935-2.8938 0-3.1603-0.076245-3.1603-0.80057 0-0.72432 0.26653-0.80057 2.4369-0.80057h2.4369l-0.26654-1.4868c-0.57115-3.0879-2.475-4.3459-6.2826-4.041-4.1503 0.30498-5.9018 2.478-5.9018 7.3195 0 4.5366 1.7134 6.9001 5.2926 7.2814 3.7315 0.41935 6.3207-0.91494 6.8918-3.5073 0.19038-0.80057 0.495-1.1818 1.0281-1.1818 0.91383 0 0.95191 0.76245 0.22846 2.5161-1.4469 3.3548-6.0922 4.8415-10.395 3.3166z" fill="#505050"/>
<path d="m385.03 22.035c0-0.72432 0.26654-0.80057 2.7796-0.80057h2.8177v-7.8151c0-7.5482 0-7.8151 0.7996-7.8151 0.76153 0 0.7996 0.26686 0.7996 7.8151v7.8151h2.7796c2.5511 0 2.8177 0.076245 2.8177 0.80057 0 0.76245-0.26654 0.80057-6.3968 0.80057-6.1303 0-6.3968-0.038122-6.3968-0.80057z" fill="#505050"/>
<path d="m403.42 14.22c0-8.3488 0-8.6156 0.7996-8.6156 0.72345 0 0.7996 0.26686 0.7996 3.2023v3.2023h2.3227 2.3227l1.7515-3.2023c1.4469-2.5923 1.98-3.2023 2.7034-3.2023 1.1423 0 1.1042 0.076245-1.0661 3.7741l-1.5992 2.7829 1.1423 0.72432c1.5231 0.91494 2.0942 2.0586 2.1323 4.2697 0.038073 4.1553-2.0181 5.6802-7.6914 5.6802h-3.6173v-8.6156zm8.6814 6.0615c0.495-0.49559 0.68538-1.3343 0.68538-2.8592 0-3.0879-0.57115-3.5835-4.6072-3.736l-3.1603-0.15249v3.8885 3.8885l3.1603-0.15249c2.3988-0.11437 3.3888-0.3431 3.9219-0.87681z" fill="#505050"/>
<path d="m421.01 14.22v-8.6156h5.1784c4.9499 0 5.2165 0.038122 5.2165 0.80057s-0.26654 0.80057-4.4169 0.80057h-4.3788v3.2023 3.2023h3.5792c3.3507 0 3.6173 0.076245 3.6173 0.80057s-0.26653 0.80057-3.6173 0.80057h-3.5792v3.0117 3.0117h4.3788c4.1503 0 4.4169 0.038122 4.4169 0.80057 0 0.72432-0.26654 0.80057-5.2165 0.80057h-5.1784v-8.6156z" fill="#505050"/>
<path d="m437 14.22c0-8.3488 0-8.6156 0.7996-8.6156 0.76153 0 0.7996 0.26686 0.7996 7.0908v7.1289l4.6834-7.0908c3.7315-5.6802 4.8738-7.1289 5.5972-7.1289h0.91383v8.6156c0 8.3488-0.038073 8.6156-0.7996 8.6156-0.7996 0-0.7996-0.26686-0.7996-7.0908v-7.0526l-4.7596 6.9383c-3.3507 4.994-4.9499 7.0145-5.5972 7.1289l-0.83768 0.11437v-8.6538z" fill="#505050"/>
<path d="m456.99 14.22v-8.6156h3.4649c4.493 0 6.3588 0.53371 8.1484 2.3636 4.3026 4.2697 2.475 12.885-3.0461 14.41-0.87576 0.22873-3.1603 0.41935-5.1022 0.41935l-3.4649 0.038122v-8.6156zm8.7576 6.2902c2.3227-1.1437 3.2365-2.9354 3.2365-6.2902 0-4.994-2.2084-7.0145-7.5011-7.0145h-2.8938v7.0145 7.0145l2.8938-0.038122c1.9419 0 3.3507-0.19061 4.2646-0.6862z" fill="#505050"/>
<path d="m474.74 21.73c0.30461-0.60996 1.6754-3.0117 3.008-5.299l2.4369-4.1935v-3.3166c0-3.2785 0-3.3166 0.98999-3.3166 0.98998 0 0.98998 0.038122 0.98998 3.5073v3.5454l2.97 5.1084c2.8938 4.9559 2.9319 5.1084 1.9038 4.994-0.87576-0.11437-1.4469-0.83869-3.503-4.4603l-2.475-4.3459-2.475 4.4222c-2.0942 3.7741-2.6273 4.4603-3.465 4.4603-0.95191 0-0.95191-0.076245-0.38076-1.1055z" fill="#505050"/>
<path d="m518.14 14.258v-8.6538h3.6173c4.2646 0 6.0161 0.60996 7.1584 2.478 1.485 2.4017 0.68537 5.7946-1.5611 6.5189-0.6473 0.22873-0.60922 0.3431 0.41884 1.4105 1.5992 1.563 1.5992 3.5073 0 5.299-1.1804 1.2962-1.1804 1.2962-5.4068 1.4486l-4.2265 0.11437v-8.6156zm8.2626 5.9471c0.7996-0.80057 0.95191-1.258 0.76153-2.0967-0.45692-1.868-1.2184-2.2873-4.4169-2.4398l-3.008-0.15249v2.8592 2.8592h2.8177c2.475 0 2.9319-0.15249 3.8457-1.0293zm0.26654-7.0145c0.87576-0.6862 1.0661-1.1818 1.0661-2.5923 0-2.5923-1.2184-3.3929-5.0642-3.3929h-2.9319v3.3929 3.431h2.9319c2.3988 0 3.1603-0.19061 3.998-0.83869z" fill="#505050"/>
<path d="m535.73 14.22c0-8.3488 0.038077-8.6156 0.7996-8.6156s0.7996 0.26686 0.7996 8.6156c0 8.3488-0.038077 8.6156-0.7996 8.6156s-0.7996-0.26686-0.7996-8.6156z" fill="#505050"/>
<path d="m543.35 22.035c0-0.72432 0.30461-0.80057 4.3788-0.91494l4.4169-0.11437-4.6072-6.9001c-2.5511-3.7741-4.6072-7.2432-4.6072-7.7007 0-0.76245 0.26654-0.80057 6.0161-0.80057 5.7115 0 5.978 0.038122 5.978 0.80057s-0.26653 0.80057-4.7976 0.80057c-2.6273 0-4.7976 0.11437-4.7976 0.22873s2.0561 3.3548 4.6072 7.2051c2.513 3.8885 4.6072 7.2814 4.6072 7.5863 0 0.49559-1.0281 0.60996-5.5972 0.60996-5.3307 0-5.5972-0.076245-5.5972-0.80057z" fill="#505050"/>
<path d="m560.52 14.22c0-8.3488 0.038077-8.6156 0.7996-8.6156s0.7996 0.26686 0.7996 7.0908v7.1289l4.6834-7.0908c3.7696-5.6802 4.9119-7.1289 5.5972-7.1289h0.91384v8.6156c0 8.3488-0.038077 8.6156-0.7996 8.6156s-0.7996-0.26686-0.7996-7.0908v-7.0526l-4.7215 6.9383c-3.3888 4.994-4.988 7.0145-5.5972 7.1289l-0.87576 0.11437v-8.6538z" fill="#505050"/>
<path d="m580.13 14.22v-8.6156h5.1784c4.9499 0 5.2165 0.038122 5.2165 0.80057s-0.26653 0.80057-4.4169 0.80057h-4.3788v3.2023 3.2023h3.5792c3.3507 0 3.6173 0.076245 3.6173 0.80057s-0.26654 0.80057-3.6173 0.80057h-3.5792v3.0117 3.0117h4.3788c4.1503 0 4.4169 0.038122 4.4169 0.80057 0 0.72432-0.26653 0.80057-5.2165 0.80057h-5.1784v-8.6156z" fill="#505050"/>
<path d="m680.46 14.22c0-8.3488 0.038077-8.6156 0.7996-8.6156s0.7996 0.26686 0.7996 7.0908v7.1289l4.6834-7.0908c3.7696-5.6802 4.9119-7.1289 5.5972-7.1289h0.91384v8.6156c0 8.3488-0.038077 8.6156-0.7996 8.6156s-0.7996-0.26686-0.7996-7.0908v-7.0526l-4.7215 6.9383c-3.3888 4.994-4.988 7.0145-5.5972 7.1289l-0.87576 0.11437v-8.6538z" fill="#505050"/>
<path d="m716.45 16.126c0-5.604 0.11423-6.9383 0.68537-8.1201 1.8657-3.6979 8.3768-3.6979 10.204 0 0.57115 1.1818 0.68537 2.5161 0.68537 8.1201 0 6.4427 0 6.7095-0.76153 6.7095-0.7996 0-0.7996-0.26686-0.7996-6.1758 0-6.8239-0.34269-8.3869-2.0561-9.2637-1.7896-0.91494-3.3888-0.72432-4.8357 0.57184l-1.3327 1.1818-0.11423 6.8239c-0.11423 6.4427-0.19038 6.862-0.91383 6.862-0.72345 0-0.76153-0.3431-0.76153-6.7095z" fill="#505050"/>
<path d="m735.26 14.22v-8.6156h5.1784c4.9499 0 5.2165 0.038122 5.2165 0.80057s-0.26653 0.80057-4.4169 0.80057h-4.3788v7.8151c0 7.5482-0.038077 7.8151-0.7996 7.8151-0.7996 0-0.7996-0.26686-0.7996-8.6156z" fill="#505050"/>
<path d="m746.03 22.035c0-0.72432 0.26654-0.80057 2.8177-0.80057h2.7796v-7.8151c0-7.5482 0.038077-7.8151 0.7996-7.8151s0.7996 0.26686 0.7996 7.8151v7.8151h2.8177c2.513 0 2.7796 0.076245 2.7796 0.80057 0 0.76245-0.26653 0.80057-6.3968 0.80057-6.1303 0-6.3968-0.038122-6.3968-0.80057z" fill="#505050"/>
<path d="m764.04 14.22c0-8.3488 0-8.6156 0.7996-8.6156 0.76153 0 0.7996 0.26686 0.7996 8.6156 0 8.3488-0.038073 8.6156-0.7996 8.6156-0.7996 0-0.7996-0.26686-0.7996-8.6156z" fill="#505050"/>
<path d="m772.84 14.22c0-8.3488 0-8.6156 0.7996-8.6156 0.76153 0 0.79961 0.26686 0.79961 7.0908v7.1289l4.6834-7.0908c3.7315-5.6802 4.8738-7.1289 5.5972-7.1289h0.91383v8.6156c0 8.3488-0.038073 8.6156-0.7996 8.6156-0.7996 0-0.7996-0.26686-0.7996-7.0908v-7.0526l-4.7595 6.9383c-3.3507 4.994-4.9499 7.0145-5.5972 7.1289l-0.83768 0.11437v-8.6538z" fill="#505050"/>
</g>
</g>
</g>
</g>
</g>
</svg>
