<?xml version="1.0" encoding="UTF-8"?>
<svg version="1.1" viewBox="0 0 1000 300" xmlns="http://www.w3.org/2000/svg">
<title>Tactic</title>
<desc>Created with Sketch.</desc>
<g fill="none" fill-rule="evenodd">
<g transform="translate(-140 -2811)">
<g transform="translate(140 2811)">
<rect width="1e3" height="300" fill="#fff" fill-opacity=".01"/>
<g transform="translate(172 32)" fill-rule="nonzero">
<g transform="translate(328.88 128.88) scale(-1 1) rotate(180) translate(-328.1 -128.1)">
<path d="m319.33 254.9c-3.3534-0.83875-29.495-10.37-84.064-30.576l-39.631-14.716-58.38-0.38125-58.456-0.38125-4.4966-2.2112c-5.2587-2.5925-9.7553-7.2437-12.194-12.505-1.5243-3.2787-1.7529-5.4137-1.9816-18.681-0.22864-13.039-0.38107-15.021-1.6005-15.479-0.68592-0.305-12.118-4.4987-25.303-9.3025-15.243-5.5662-25.074-9.5312-26.827-10.98-3.4296-2.745-6.4019-8.3112-6.4019-12.124 0.076214-4.0412 2.515-8.9212 6.0209-11.819 2.0578-1.6775 8.7646-4.575 22.254-9.455 10.67-3.8125 22.102-8.0825 25.455-9.3025l6.1733-2.3637 0.22864-14.945c0.22864-13.267 0.45728-15.402 1.9816-18.681 2.4388-5.2612 6.9354-9.9125 12.194-12.505l4.4966-2.2112 58.456-0.38125 58.38-0.38125 51.673-19.139c28.351-10.446 56.093-20.664 61.581-22.722 9.7553-3.5837 10.213-3.66 19.206-3.66 7.9262 0 9.984 0.305 14.785 2.0587 3.1248 1.1437 30.867 11.361 61.657 22.722l56.017 20.74 58.38 0.38125 58.456 0.38125 4.4966 2.2112c5.2587 2.5925 9.7553 7.2437 12.194 12.505 1.5243 3.2787 1.7529 5.4137 1.9816 18.681l0.22864 15.021 4.1155 1.525c2.2864 0.83875 13.795 5.0325 25.532 9.3025 14.938 5.49 22.254 8.54 24.312 10.294 3.4296 2.8212 5.8684 7.7012 5.9447 11.742 0 3.8125-2.9723 9.3787-6.4019 12.124-1.7529 1.3725-12.042 5.5662-27.97 11.437l-25.227 9.15-0.45728 15.097c-0.30485 13.115-0.60971 15.479-2.0578 18.757-2.4388 5.2612-6.9354 9.9125-12.194 12.505l-4.4966 2.2112-58.456 0.38125-58.38 0.4575-27.589 10.217c-23.702 8.845-48.853 18.071-86.884 31.949-7.4689 2.745-9.9078 3.2787-16.386 3.5075-4.1917 0.1525-8.8408-0.07625-10.365-0.4575z" fill="#fff"/>
<path d="m319.33 254.9c-3.3534-0.83875-29.495-10.37-84.064-30.576l-39.631-14.716-58.38-0.38125-58.456-0.38125-4.4966-2.2112c-5.2587-2.5925-9.7553-7.2437-12.194-12.505-1.5243-3.2787-1.7529-5.4137-1.9816-18.681-0.22864-13.039-0.38107-15.021-1.6005-15.479-0.68592-0.305-12.118-4.4987-25.303-9.3025-15.243-5.5662-25.074-9.5312-26.827-10.98-3.4296-2.745-6.4019-8.3112-6.4019-12.124 0.076214-4.0412 2.515-8.9212 6.0209-11.819 2.0578-1.6775 8.7646-4.575 22.254-9.455 10.67-3.8125 22.102-8.0825 25.455-9.3025l6.1733-2.3637 0.22864-14.945c0.22864-13.267 0.45728-15.402 1.9816-18.681 2.4388-5.2612 6.9354-9.9125 12.194-12.505l4.4966-2.2112 58.456-0.38125 58.38-0.38125 51.673-19.139c28.351-10.446 56.093-20.664 61.581-22.722 9.7553-3.5837 10.213-3.66 19.206-3.66 7.9262 0 9.984 0.305 14.785 2.0587 3.1248 1.1437 30.867 11.361 61.657 22.722l56.017 20.74 58.38 0.38125 58.456 0.38125 4.4966 2.2112c5.2587 2.5925 9.7553 7.2437 12.194 12.505 1.5243 3.2787 1.7529 5.4137 1.9816 18.681l0.22864 15.021 4.1155 1.525c2.2864 0.83875 13.795 5.0325 25.532 9.3025 14.938 5.49 22.254 8.54 24.312 10.294 3.4296 2.8212 5.8684 7.7012 5.9447 11.742 0 3.8125-2.9723 9.3787-6.4019 12.124-1.7529 1.3725-12.042 5.5662-27.97 11.437l-25.227 9.15-0.45728 15.097c-0.30485 13.115-0.60971 15.479-2.0578 18.757-2.4388 5.2612-6.9354 9.9125-12.194 12.505l-4.4966 2.2112-58.456 0.38125-58.38 0.4575-27.589 10.217c-23.702 8.845-48.853 18.071-86.884 31.949-7.4689 2.745-9.9078 3.2787-16.386 3.5075-4.1917 0.1525-8.8408-0.07625-10.365-0.4575zm33.763-13.191c10.289-3.7362 38.412-14.03 62.648-23.027l43.975-16.241 58.532-0.38125 58.456-0.4575 3.3534-2.2112c1.8291-1.22 4.268-3.66 5.4874-5.49l2.2102-3.355 0.30485-17.385 0.22864-17.309 27.97-10.294c23.245-8.54 28.351-10.675 29.952-12.581 3.3534-4.0412 2.134-8.845-2.8961-11.437-1.8291-0.99125-32.696-12.505-52.968-19.749l-2.134-0.83875-0.076214-16.089c0-15.326-0.076214-16.317-1.9053-20.206-1.9816-4.3462-5.4874-7.5487-9.984-9.0737-1.9053-0.61-18.977-0.83875-58.761-0.915h-56.017l-48.472-17.69c-26.675-9.6837-54.798-20.054-62.495-22.951-13.871-5.185-14.1-5.185-22.407-5.2612l-8.3835-0.07625-37.65 13.877c-20.654 7.625-48.853 17.995-62.648 23.027l-24.998 9.15h-55.788c-36.506 0-56.855 0.22875-58.837 0.83875-3.8107 0.99125-8.1549 4.88-10.213 8.845-1.3718 2.745-1.5243 4.8037-1.5243 19.901 0 9.2262-0.15243 16.851-0.30485 16.851s-12.651 4.4987-27.818 9.9887c-29.952 10.904-31.933 11.971-31.933 17.156 0 3.05 1.7529 5.7187 4.649 7.1675 1.6767 0.915 46.948 17.614 52.74 19.52l2.6675 0.83875v16.47c0 18.147 0.5335 20.587 5.2587 25.086 5.1063 4.7275 3.0485 4.575 64.477 4.6512h56.246l61.581 22.494c33.915 12.429 62.571 22.799 63.715 23.18 1.067 0.305 4.9539 0.61 8.6121 0.68625 6.3257 0 7.3165-0.22875 25.15-6.71z" fill="#D81D2B"/>
<path d="m325.05 238.2c-1.4481-0.1525-28.275-9.6075-59.599-21.121-31.324-11.437-59.904-21.884-63.562-23.104l-6.4782-2.3637h-56.779-56.703l-1.9816-2.0587c-1.9053-2.0587-1.9053-2.2112-2.2102-21.579l-0.22864-19.444-7.7738-2.8975c-4.1917-1.525-16.538-6.1-27.284-9.9887-14.785-5.4137-19.282-7.32-18.063-7.7775 0.91456-0.38125 13.109-4.88 27.208-9.9887l25.608-9.3787 0.45728-19.749 0.38107-19.749 2.2102-1.9825 2.2864-1.9062h56.779 56.703l62.648-22.951c55.102-20.206 63.334-22.951 68.211-23.256 6.2495-0.38125 0.91456-2.135 59.675 19.367 15.167 5.5662 37.878 13.877 50.53 18.452l22.94 8.3875h56.932 56.932l1.9053 2.135 1.9816 2.135v19.367 19.444l10.213 3.7362c5.6398 2.0587 17.834 6.4812 27.208 9.9125 9.2981 3.355 16.996 6.3287 16.996 6.5575 0 0.305-12.27 4.9562-27.208 10.37l-27.208 9.8362v19.52 19.52l-1.9816 1.9825-1.9816 1.9825h-56.779-56.779l-23.017 8.4637c-111.35 40.717-105.71 38.811-112.19 38.125zm-10.441-59.399c2.134-0.7625 5.716-2.745 7.85-4.3462 2.2102-1.525 4.1917-2.8212 4.3442-2.8212 0.22864 0 0.68592 1.0675 1.1432 2.3637 0.76214 2.135 3.5058 4.0412 5.8684 4.0412 0.38107 0 1.6767-0.915 2.7437-1.9825 1.9053-1.9062 1.9816-2.2875 1.9816-14.869 0-11.742-0.15243-12.962-1.6005-14.411-1.6005-1.6012-5.2587-2.135-6.9354-0.99125-1.4481 0.99125-2.6675 3.965-2.6675 6.5575 0 3.5837-1.7529 6.4812-6.4019 10.675-6.6306 5.9475-15.243 7.7775-22.102 4.6512-4.1155-1.83-6.3257-4.1175-8.917-9.15-3.582-7.1675-4.5728-13.801-4.4966-31.339 0.076213-23.027 2.3626-32.482 9.2218-38.43 7.1641-6.1 18.139-5.6425 26.37 1.1437 3.5058 2.8975 7.9262 11.209 7.9262 14.945 0 4.575 5.4874 6.7862 8.7646 3.5075 1.4481-1.4487 1.6005-2.6687 1.6005-14.716v-13.191l-2.134-1.6775c-1.1432-0.915-2.7437-1.6012-3.582-1.6775-2.134 0-4.649 2.8975-4.649 5.2612 0 2.5925-0.45728 2.5162-3.8869-0.53375-10.213-8.9212-29.266-10.065-43.823-2.6687-17.377 8.845-27.589 26.84-27.666 48.724 0 10.141 1.6767 18.147 5.2587 25.544 8.8408 18.224 26.294 28.594 45.957 27.297 3.2772-0.22875 7.6976-1.0675 9.8316-1.9062zm229.48-2.2875c2.3626-0.915 5.716-2.5925 7.3927-3.66l3.1248-2.0587v1.9062c0 2.6687 1.9816 4.4987 4.8015 4.4987 4.4204 0 4.8015-1.1437 4.8015-15.784s-0.5335-16.241-4.8015-16.241c-2.9723 0-4.5728 2.0587-5.0301 6.6337-0.76214 6.7862-6.6306 13.039-14.633 15.402-12.728 3.8125-20.959-2.5162-24.007-18.452-2.6675-14.03-2.0578-37.134 1.1432-47.656 2.9723-9.455 8.9932-14.335 17.682-14.335 8.2311 0.07625 14.404 3.5837 18.444 10.599 1.2956 2.2875 2.3626 5.3375 2.3626 6.7862 0 5.3375 5.6398 7.7012 8.7646 3.66 1.5243-1.9062 1.6767-3.1262 1.6767-14.411 0-12.047-0.076214-12.429-1.9816-14.335-1.067-1.0675-2.6675-1.9825-3.5058-1.9825-2.134 0-4.9539 2.9737-4.9539 5.2612v1.9825l-3.7345-2.3637c-6.4782-4.1175-10.822-5.185-21.492-5.185-8.2311 0-10.365 0.305-15.395 2.135-7.4689 2.6687-12.804 6.1-17.682 11.437-8.3073 9.0737-12.118 19.062-12.728 33.245-1.2194 27.907 11.889 48.19 34.982 54.061 6.3257 1.6012 19.13 0.99125 24.769-1.1437zm-325.28-0.38125c0.5335-0.68625 5.5636-14.182 11.203-29.966 5.6398-15.707 12.575-35.304 15.548-43.386l5.335-14.869 3.8107-0.4575c4.268-0.4575 5.335-1.525 5.335-5.2612 0.076213-4.88-0.99078-5.0325-24.16-5.0325-19.587-0.07625-20.73 0.07625-22.178 1.525-3.2772 3.2787-1.2194 8.845 3.2772 8.845 2.7437 0 2.7437 0.38125 0 8.0062l-2.134 6.0237h-12.347-12.27l-1.8291-5.3375c-3.0485-9.0737-2.9723-8.6925-1.4481-8.6925 3.8869 0 5.716-5.795 2.7437-8.7687-1.4481-1.4487-2.6675-1.6775-11.203-1.6775-8.5359 0.07625-9.8316 0.22875-11.203 1.6775-1.9816 1.9062-2.134 5.7187-0.22864 7.3962 0.76214 0.68625 2.8199 1.3725 4.4966 1.525l3.1248 0.22875 7.3927 21.655c4.1155 11.895 10.746 31.339 14.785 43.234 8.6884 25.315 8.8408 25.544 16.233 25.01 3.201-0.22875 5.1063-0.7625 5.716-1.6775zm263.39-0.07625c2.2864-2.2875 2.4388-4.1937 0.68592-6.71-1.067-1.4487-1.9816-1.7537-6.0209-1.7537h-4.7252v-40.031-40.031h4.4204c7.0117 0 9.8316-4.1937 5.6398-8.4637l-1.9816-1.9825h-22.254c-24.922 0-25.836 0.22875-25.836 5.1087 0 4.0412 1.067 4.88 6.5544 5.3375l5.0301 0.38125v39.65 39.65l-5.0301 0.38125c-5.335 0.4575-6.5544 1.2962-6.5544 4.88 0 2.2112 1.2956 4.27 3.201 4.9562 0.68592 0.22875 11.051 0.4575 23.017 0.53375l21.873 0.07625 1.9816-1.9825zm-314.15-0.4575c1.4481-1.4487 1.6005-2.6687 1.6005-14.259 0-14.411-0.5335-16.165-5.1063-16.165-3.582 0-5.0301 1.9062-5.5636 7.4725-0.30486 3.1262-1.1432 5.7187-2.515 7.7775-2.2102 3.355-7.0879 6.405-10.365 6.405h-2.0578l0.22864-39.497 0.15243-39.421 6.0209-0.22875c6.9354-0.305 8.8408-1.4487 8.8408-5.4137 0-5.0325-0.5335-5.1087-29.418-5.1087-24.769-0.07625-25.913 0-27.437 1.525-1.9816 1.9825-2.0578 5.4137-0.30485 7.3962 1.067 1.1437 2.5913 1.4487 7.6214 1.4487h6.3257v39.65c0 39.269-0.076214 39.65-1.6767 39.65-6.8592 0-13.566-8.235-13.566-16.622 0-3.05-1.8291-5.0325-4.649-5.0325-4.9539 0.076249-5.716 2.3637-5.716 16.012 0 10.904 0.5335 13.954 2.6675 15.402 0.5335 0.305 17.224 0.61 37.116 0.61 35.134 0 36.278-0.07625 37.802-1.6012zm256.08 0c1.4481-1.4487 1.6005-2.6687 1.6005-14.259 0-14.411-0.5335-16.165-5.1063-16.165-3.582 0-5.0301 1.9062-5.5636 7.3962-0.22864 2.6687-1.1432 5.8712-2.134 7.4725-1.9816 3.2025-7.6214 6.7862-10.67 6.7862h-2.134v-39.65-39.65h6.1733c7.0879 0 9.0694-1.1437 9.0694-5.2612 0-5.0325-0.5335-5.1087-29.418-5.1087-24.769-0.07625-25.913 0-27.437 1.525-1.9816 1.9825-2.0578 5.4137-0.30486 7.3962 1.067 1.1437 2.5913 1.4487 7.6214 1.4487h6.3257v39.65 39.65h-2.0578c-6.4782 0-13.185-8.3112-13.185-16.394 0-4.8037-5.4112-7.015-8.8408-3.5837-1.6005 1.525-1.6767 2.3637-1.4481 14.792 0.22864 11.971 0.45728 13.191 1.9053 14.259 1.3718 1.0675 6.783 1.22 37.802 1.2962 35.134 0 36.278-0.07625 37.802-1.6012z" fill="#D81D2B"/>
<path d="m198.16 124.59c-2.0578-6.1-3.7345-11.514-3.7345-12.047 0-0.7625 2.2864-0.99125 8.3835-0.99125h8.3835l-3.9631 11.437c-2.2102 6.2525-4.3442 11.666-4.7252 12.047-0.30485 0.305-2.2864-4.3462-4.3442-10.446z" fill="#D81D2B"/>
<path d="m602.93 220.59c-7.2403-4.575-4.1917-16.165 4.1917-16.165 5.6398 0 9.0694 3.4312 9.0694 9.2262 0 6.2525-7.85 10.37-13.261 6.9387zm8.5359-0.99125c2.2864-1.22 4.1155-5.3375 3.5058-8.0062-0.60971-2.6687-4.5728-6.3287-6.8592-6.3287s-6.1733 2.135-7.0879 3.8887c-3.582 6.71 3.7345 14.03 10.441 10.446z" fill="#D81D2B"/>
<path d="m604.22 213.27c0-2.6687 0.30485-4.8037 0.76214-4.8037 0.45728 0 0.83835 0.83875 0.83835 1.9825 0 1.0675 0.30486 1.9825 0.68592 1.9825 1.8291 0 3.2772-1.0675 3.2772-2.5162 0-0.83875 0.38107-1.4487 0.83835-1.4487 1.067 0 0.99078 2.6687-0.22864 3.8125-0.68592 0.7625-0.68592 0.99125 0 0.99125 1.4481 0 1.2194 3.7362-0.30485 4.27-0.68592 0.305-2.2864 0.53375-3.582 0.53375-2.2864 0-2.2864-0.07625-2.2864-4.8037zm5.4112 1.7537c-0.15243-0.7625-1.067-1.525-2.0578-1.6775-1.3718-0.1525-1.7529 0.1525-1.7529 1.4487 0 1.22 0.45728 1.6775 2.0578 1.6775 1.5243 0 1.9816-0.38125 1.7529-1.4487z" fill="#D81D2B"/>
</g>
</g>
</g>
</g>
</g>
</svg>
