<?xml version="1.0" encoding="UTF-8"?>
<svg version="1.1" viewBox="0 0 1000 300" xmlns="http://www.w3.org/2000/svg">
<title>Trojmiasto</title>
<desc>Created with Sketch.</desc>
<g fill="none" fill-rule="evenodd">
<g transform="translate(-140 -8426)">
<g transform="translate(140 8426)">
<rect width="1e3" height="300" fill="#fff" fill-opacity=".01"/>
<g transform="translate(99 7)" fill-rule="nonzero">
<g transform="translate(400.68 143.18) scale(-1 1) rotate(180) translate(-400.65 -143.15)">
<path d="m195.05 285.13c-15.276-1.8667-32.353-9.6-47.696-21.6-6.6041-5.1333-23.481-21.133-27.15-25.8l-2.2014-2.8 3.8691 2.2667c2.068 1.2667 8.2051 4.5333 13.608 7.1333 38.357 18.867 72.845 18.333 99.062-1.4 8.1384-6.1333 12.541-11.267 39.691-46.533 13.342-17.333 24.615-31.467 25.082-31.4 0.40025 0.066667 6.6041 2.8 13.742 6.0667 20.279 9.2667 31.953 13.267 45.428 15.533 9.3391 1.5333 22.481 1.1333 30.486-1 11.007-2.9333 22.948-9.8 34.088-19.8 8.0717-7.1333 20.946-22.6 28.751-34.6 1.601-2.4667 3.0686-4.4 3.202-4.2667 0.13342 0.2-1.0006 3.8667-2.5349 8.2667-16.477 47.733-44.628 75.667-83.719 83-9.606 1.7333-28.618 1.7333-38.824-0.066667-10.073-1.7333-14.075-1.3333-21.213 2.2667-7.0044 3.4667-13.742 8.8667-29.952 24-20.413 18.933-30.352 26.6-42.76 32.867-13.542 6.8-27.817 9.5333-40.959 7.8667z" fill="#2E6DB5"/>
<polygon points="187.12 147.2 187.32 136.87 199.06 136.67 210.8 136.47 210.8 147 210.8 157.53 198.86 157.53 186.92 157.53" fill="#2E6DB5"/>
<polygon points="347.42 147.07 347.42 136.53 359.29 136.53 371.23 136.53 371.23 147.07 371.23 157.53 359.29 157.53 347.42 157.53" fill="#2E6DB5"/>
<path d="m11.874 138.67v-13.333h-5.937-5.937v-8.4-8.4h5.8703 5.8703l0.33354-32c0.26683-27.867 0.46696-32.533 1.5343-35.867 2.4682-7.8 7.8049-10.533 20.68-10.533 4.1359 0 9.4059 0.2 11.807 0.46667l4.336 0.4v8.3333 8.3333h-4.8697c-4.1359 0-5.2032 0.2-6.8709 1.6667l-1.9345 1.6667-0.20012 28.733-0.20012 28.733 6.8709 0.2 6.8042 0.2v8.0667 8.0667l-6.8042 0.2-6.8042 0.2v13.267 13.267h-12.274-12.274v-13.267z" fill="#2E6DB5"/>
<path d="m538.6 138.67v-13.333h-5.937-5.937v-8.4-8.4h5.8703 5.8703l0.33354-32.4c0.20012-21.733 0.53366-33.2 1.134-34.867 1.3342-4.2667 3.7357-7.2 7.4046-9 3.1353-1.6 4.5362-1.8 12.608-2 5.0031-0.13333 10.873 0.066667 13.008 0.33333l3.8024 0.6 0.20012 8.2 0.20012 8.2667h-4.8697c-6.0037 0-6.8042 0.26667-8.3385 3-1.0673 2-1.2007 5.3333-1.4009 30l-0.20012 27.8 7.2045 0.2 7.2045 0.2v8.0667 8.0667l-7.1378 0.2-7.2045 0.2v13.267 13.267h-11.874-11.941v-13.267z" fill="#2E6DB5"/>
<path d="m98.995 126.67c-4.9364-1.4667-9.5393-5.4667-14.409-12.533-1.134-1.7333-1.2007-1.6-1.2007 4.7333l-0.066708 6.5333-11.407-0.2-11.34-0.2v-46.933-46.867l11.741-0.2 11.741-0.2v27.867c0 15.267 0.26683 29.733 0.66708 32 0.93391 5.6667 3.5355 9.2667 8.3385 11.733 3.3354 1.7333 4.6029 1.9333 10.34 1.9333h6.6041l-0.20012 11.4-0.20012 11.333-4.2026 0.13333c-2.3348 0.066666-5.2032-0.13333-6.404-0.53333z" fill="#2E6DB5"/>
<path d="m134.22 126.33c-17.811-4.3333-25.683-19.067-25.683-48.267 0-30.067 6.8042-43.733 24.148-48.267 4.9364-1.2667 17.478-1.4 22.948-0.26667 12.675 2.6667 20.479 10.8 24.482 25.467 1.4009 5.0667 1.5343 7.2667 1.601 23.067 0 14.467-0.20012 18.467-1.2007 22.867-1.6677 7.0667-5.4034 14.533-8.9389 18.133-3.4021 3.3333-9.9395 6.6-15.343 7.6667-5.2699 1-17.144 0.8-22.014-0.4zm16.944-16.933c2.6683-1.9333 4.7363-6 5.8036-11.333 1.2675-6.2667 1.2675-33.733 0-40-1.8011-8.9333-5.4034-12.867-11.674-12.867-6.0037 0-9.2724 3.1333-11.34 10.867-1.8011 6.6667-1.8011 37.4 0 44 1.4009 5.2 3.9358 8.8667 7.0711 10.267 2.8017 1.3333 7.7382 0.86667 10.14-0.93333z" fill="#2E6DB5"/>
<path d="m258.23 126.13c-4.5362-1.5333-8.0717-3.9333-11.874-8.0667l-2.6016-2.8667v5.0667 5.1333l-11.407-0.2-11.407-0.2v-46.933-46.867l12.074-0.2 12.074-0.2 0.20012 34.867c0.20012 33.667 0.20012 34.867 1.601 37.267 4.0692 6.8 13.942 8.2667 18.145 2.6 1.4009-1.9333 1.4676-2.7333 1.6677-38.333l0.20012-36.333h11.807 11.807l0.26683 33.733c0.26683 37.667 0.26683 37.467 5.1365 41.8 4.5362 3.9333 12.074 3.4667 15.343-0.86667 1.4009-2 1.4676-2.6 1.6677-38.333l0.20012-36.333h11.874 11.874v37c0 21.933-0.26683 38.467-0.73379 40.667-1.5343 8.2-5.8036 14.333-11.874 17.067-4.9364 2.1333-13.342 2.4-19.679 0.46667-4.336-1.3333-5.6702-2.1333-9.139-5.6-2.2014-2.2-4.2693-4.8667-4.4694-5.8667-0.66708-2.5333-1.2675-2.3333-2.4015 0.66667-1.3342 3.7333-5.8036 8.2667-10.006 10.133-5.1365 2.2-14.676 2.5333-20.346 0.73333z" fill="#2E6DB5"/>
<path d="m402.32 126.4c-8.1384-1.8-14.809-6.0667-18.145-11.8-1.9345-3.4-3.8691-10.667-3.8691-15v-2.9333h10.873 10.873v2.8667c0 8.4667 7.0044 13.467 15.476 11.067 7.0044-1.9333 9.3391-13.133 3.8691-18.533-1.8678-1.8-4.0692-2.6667-13.875-5.4667-6.404-1.7333-13.408-4.0667-15.543-5.0667-10.673-5.0667-15.143-13.867-14.276-28.133 0.60037-10.733 4.6696-18.4 11.741-22.2 3.1353-1.6667 4.8697-2.0667 9.8061-2.3333 10.873-0.53333 18.011 2.2 22.547 8.6667l2.2681 3.2 0.60037-2c0.26683-1.0667 1.0673-3.2667 1.601-4.9333l1.0673-2.9333h11.474 11.474l-1.2007 2.6c-1.0006 2.2667-1.2007 6.9333-1.601 38-0.33354 23.667-0.73379 36.333-1.2675 38.467-1.8011 6.6667-6.2039 11.667-12.675 14.467-6.8042 2.8667-22.481 3.8667-31.219 2zm22.08-58.667c0-5.4667-0.33354-11.133-0.73379-12.6-2.068-7.4-12.007-12.4-18.211-9.2-3.1353 1.6-4.803 5.8-4.803 12.2 0 4.1333 0.33354 5.8 1.601 8.0667 1.8011 3.2 6.404 6 11.941 7.2667 1.9345 0.46667 4.8697 1.5333 6.404 2.4667 1.5343 0.93333 3.0019 1.6667 3.3354 1.7333 0.26683 0.066667 0.46696-4.4 0.46696-9.9333z" fill="#2E6DB5"/>
<path d="m479.37 126.4c-8.6721-1.8667-16.21-7.2-19.546-13.667-5.2032-10.133-3.5355-24.267 3.669-31.733 3.8024-3.8667 7.3379-5.7333 20.546-10.6 6.4707-2.4 12.608-4.9333 13.608-5.6 6.0704-3.9333 6.0037-14.533-0.20012-18.067-1.2675-0.73333-4.0692-1.4667-6.2706-1.6667-8.005-0.66667-13.475 4.6-13.475 12.8v3.8h-11.007-10.94l0.40025-6.5333c1.0673-18.267 11.407-26.4 33.421-26.4 13.408 0 22.214 3.1333 28.685 10.267 5.0031 5.4667 6.6041 10 6.6708 19.133 0 8.9333-1.2675 13.133-5.3367 17.8-3.9358 4.4667-7.2045 6.2-20.546 10.933-13.142 4.6667-14.743 5.4667-17.144 7.9333-2.3348 2.5333-2.735 8.3333-0.8005 11.4 2.735 4.3333 10.206 6.3333 14.743 3.9333 3.4021-1.8 4.9364-4.2667 5.4034-8.8l0.40025-4h10.807 10.74v3.7333c0 13.4-7.538 22.533-20.946 25.333-5.7369 1.2667-17.211 1.2-22.881 0z" fill="#2E6DB5"/>
<path d="m604.98 126.4c-16.944-4.2667-24.348-17-25.483-43.733-0.93392-21 2.6683-36.867 10.14-45 5.8036-6.2667 13.475-8.9333 25.616-8.9333 16.277 0 25.883 4.8667 31.887 16.067 4.6696 8.8667 6.9377 25.533 5.7369 42.4-1.6677 22.867-7.4713 33.4-20.946 38.267-5.3367 1.8667-20.946 2.4667-26.95 0.93333zm14.676-15.8c3.4688-1.3333 5.8036-4.2 7.4046-9.4 1.4676-4.5333 1.5343-6.2667 1.5343-23.133s-0.066709-18.533-1.5343-23.2c-2.4015-7.4667-7.0044-10.867-13.208-9.7333-5.8703 1.1333-8.9389 6.8667-10.073 19.133-1.9345 20.467 0.26683 39.6 5.1365 44.2 2.735 2.6 7.2045 3.4667 10.74 2.1333z" fill="#2E6DB5"/>
<path d="m187.45 124.87c-0.26683-0.26667-0.46696-23-0.46696-50.6 0-46.267-0.066708-50.267-1.2007-52.533-1.601-3.0667-3.8024-4.2-8.4052-4.2h-3.669v-8.4-8.3333l2.5349-0.46667c3.8024-0.73333 16.877 0.13333 20.946 1.4 5.1365 1.5333 9.0723 4.6667 11.34 9l1.9345 3.6667 0.20012 55.467 0.13342 55.467h-11.407c-6.3373 0-11.674-0.2-11.941-0.46667z" fill="#2E6DB5"/>
<polygon points="347.42 78.067 347.42 30.867 359.29 30.867 371.23 30.867 371.23 78.067 371.23 125.33 359.29 125.33 347.42 125.33" fill="#2E6DB5"/>
<path d="m667.95 68.333c-6.5374-2.4-11.407-7.6667-13.142-14.067-1.0673-3.8667-0.40025-10.667 1.4009-14.133 3.669-7.2 9.9395-11 18.278-11 6.2706 0 10.34 1.6 14.342 5.6 4.0692 4.0667 5.6035 8 5.6035 14.667 0 4.8667-0.26683 6.0667-2.068 9.3333-3.669 6.6-9.139 10-16.81 10.4-3.1353 0.13333-5.8703-0.13333-7.6047-0.8z" fill="#EB7225"/>
<path d="m736.19 127.07c-5.0031-1.4-7.8049-3.2-11.274-7.2l-2.8017-3.2667v4.3333 4.4h-11.874-11.941v-62.667-62.6h12.274 12.274v19.6 19.667l1.8678-2.3333c3.0019-3.5333 4.4027-4.6667 8.6054-6.7333 3.2687-1.6 4.803-1.8667 10.14-1.8667 8.005 0 12.408 1.4667 17.211 5.7333 8.7388 7.8667 12.541 24 11.674 49.533-0.53366 14.267-2.2014 23.067-5.7369 30.267-2.9352 5.9333-7.8716 10.733-12.808 12.4-4.8697 1.6667-13.075 2-17.611 0.73333zm4.9364-20.133c1.601-1.1333 2.8684-2.8 3.9358-5.6 3.669-9.2 3.669-37.333 0-46.467-1.9345-5-4.9364-7.2-9.4059-7.2-9.4058 0-12.341 7.1333-12.341 30.4s2.8685 30.333 12.208 30.467c2.2014 0 3.9358-0.46667 5.6035-1.6z" fill="#56C5E9"/>
<polygon points="776.75 93.467 776.75 30.867 789.02 30.867 801.3 30.867 801.3 93.467 801.3 156.13 789.02 156.13 776.75 156.13" fill="#56C5E9"/>
</g>
</g>
</g>
</g>
</g>
</svg>
