<?xml version="1.0" encoding="UTF-8"?>
<svg version="1.1" viewBox="0 0 1000 300" xmlns="http://www.w3.org/2000/svg">
<title>WIMBP</title>
<desc>Created with Sketch.</desc>
<g fill="none" fill-rule="evenodd">
<g transform="translate(-140 -10926)">
<g transform="translate(140 10926)">
<rect width="1e3" height="300" fill="#fff" fill-opacity=".01"/>
<g transform="translate(114 39)" fill="#000" fill-rule="nonzero">
<g transform="translate(110.1 112.12) scale(-1 1) rotate(180) translate(-110.1 -109.88)">
<path d="m0 182.3c0-41.453 0-40.975 2.9576-47.195 2.7401-5.6982 7.2199-10.265 13.048-13.31 4.3494-2.3054 8.0898-3.1753 13.7-3.1753 7.4374 0 13.396 2.2184 18.789 6.9596l2.0877 1.8269 2.2182-2.0009c2.4791-2.2619 8.3943-5.3502 11.613-6.0896 13.613-3.2188 27.792 3.3493 33.794 15.659 3.0445 6.2201 2.9141 4.3497 3.088 46.499l0.13048 38.234h-4.9583c-4.5668 0-5.2192-0.086996-7.4374-1.2614-4.6103-2.4359-4.2624 0.60897-4.5233-39.148-0.21747-34.711-0.21747-34.711-1.2178-36.581-1.6528-3.0883-3.2185-4.6107-6.1761-6.0896-6.1326-3.0883-13.266-0.73946-16.354 5.2632l-1.1308 2.2184-0.21747 37.712-0.26096 37.669-8.5682 0.13049-8.5247 0.086996v-36.668c-0.043494-41.497 0.13048-39.626-3.4795-43.628-3.3925-3.7843-8.3508-5.0892-13.092-3.4798-2.6096 0.86995-6.0021 3.7843-7.3504 6.3071l-1.0004 1.8704-0.21747 34.711c-0.26096 38.408-0.086987 36.146-3.175 38.756-1.9572 1.6529-4.0884 2.1314-9.2641 2.1314h-4.4363l-0.043494-37.408z"/>
<path d="m143.09 219.23c-10.656-1.9139-18.963-9.0475-23.095-19.965-1.0004-2.6098-1.0004-2.6968-1.1308-41.801l-0.13048-39.148h4.1319c2.3052 0 5.0887 0.21749 6.2631 0.52197 2.7836 0.69596 5.3062 3.2188 6.0021 6.0027 0.34795 1.4789 0.52192 11.701 0.52192 35.363 0 32.449 0.043494 33.276 0.95686 35.32 1.1308 2.4794 3.262 4.7412 5.6542 6.0462 2.4791 1.3484 8.8292 1.4354 11.134 0.17399 2.8706-1.5659 5.4802-4.3497 6.437-7.0031 0.91336-2.3924 0.95686-3.3493 0.95686-39.452v-36.973l8.3073 0.086996 8.3508 0.13049 0.21747 37.973 0.21747 37.93 1.3918 2.2619c4.4363 7.2206 14.657 8.1775 20.616 1.9139 3.262-3.3928 3.088-1.3049 3.349-39.931l0.21747-34.711 1.2178-1.8704c1.9137-2.8273 3.7839-3.5233 10.134-3.6973l5.3497-0.17399-0.13048 38.539c-0.17397 42.802 0 40.061-3.3925 46.934-1.2613 2.5664-2.6096 4.3932-5.3497 7.0901-6.1761 6.1331-12.439 8.6995-21.051 8.656-7.3069 0-13.787-2.3054-18.702-6.5681l-2.1312-1.8704-2.5226 2.0444c-2.9576 2.4359-7.1329 4.5237-10.917 5.5242-3.436 0.91345-9.7426 1.2179-12.874 0.65246z"/>
<path d="m0.043494 96.303c-0.043494-6.1331 0.78288-8.3515 3.7839-10.352l1.8267-1.2179 34.969-0.21749c32.316-0.21749 35.099-0.30448 36.448-1.0439 4.0884-2.2184 6.872-6.2636 7.3069-10.613 0.47843-4.8282-2.3487-9.6999-7.046-12.092l-2.1747-1.1309-37.578-0.13049-37.578-0.13049 0.13048-8.308 0.13048-8.3515 37.665-0.21749c34.925-0.21749 37.796-0.30448 39.144-1.0439 4.1754-2.2619 6.9155-6.3506 7.3069-10.787 0.43494-5.0022-2.7836-10.309-7.6114-12.571-2.0442-0.91345-2.7401-0.95694-36.796-1.1744-26.227-0.17399-34.925-0.34798-35.665-0.78295-1.5223-0.86995-3.3055-3.2188-3.8274-5.0457-0.30445-0.95694-0.43494-3.7408-0.39144-6.2636l0.17397-4.5672h37.23c28.923 0 37.839 0.13049 40.188 0.60896 4.1319 0.82645 10.656 4.0888 13.787 6.8726 3.4795 3.1318 6.611 8.0035 8.2638 12.788 1.1308 3.3058 1.3483 4.6977 1.3918 8.743 0 2.6098-0.26096 5.9157-0.60891 7.3076-0.91337 3.7843-3.262 8.569-5.6542 11.527l-2.1312 2.6098 1.8702 2.3924c2.3921 3.0448 4.7843 7.8295 5.7411 11.44 1.1743 4.5237 1.0004 11.614-0.43494 15.964-2.5226 7.8295-8.0028 14.224-15.136 17.703-6.524 3.2188-5.6977 3.1753-47.408 3.1753l-37.317 0.043497v-5.1327z"/>
<path d="m118.82 95.781c0.17397-5.2632 0.26096-5.7417 1.3918-7.4381 0.6959-1.0004 1.9137-2.2184 2.7401-2.6968 1.4788-0.86995 2.6531-0.91345 36.448-1.1309 32.316-0.21749 35.056-0.30448 36.404-1.0439 2.5226-1.3484 4.6973-3.5668 5.9586-6.0027 1.6528-3.0883 1.7397-8.221 0.26096-11.005-1.2613-2.3054-3.436-4.3932-6.0891-5.7852l-2.0442-1.0439-34.708-0.21749c-39.057-0.26098-36.491-0.043497-38.927-3.7843l-1.2613-1.8704-0.13048-26.881-0.13048-26.881 8.3508 0.13049 8.3508 0.13049 0.086988 21.096 0.13048 21.096 30.011 0.17399c32.838 0.17399 30.793 0 37.317 2.8273 5.0018 2.1749 10.438 7.1771 13.222 12.266 2.6531 4.7412 3.5665 8.482 3.5665 14.224 0 8.5255-2.4356 14.441-8.5247 20.618-2.9141 2.9578-4.4798 4.0888-7.5244 5.6112-6.785 3.3058-5.7846 3.2188-47.669 3.2188l-37.361 0.043497 0.13048-5.6547z"/>
</g>
<g transform="translate(272.55)">
<path d="m7.7864 36.393l-7.7108-29.057h3.9446l4.4203 19.048c0.47573 1.9953 0.88539 3.9773 1.229 5.9462 0.74003-3.1053 1.1761-4.8957 1.3083-5.3714l5.5304-19.622h4.6384l4.1627 14.707c1.044 3.647 1.7972 7.076 2.2597 10.287 0.37002-1.8367 0.85235-3.9443 1.447-6.3228l4.5591-18.671h3.8653l-7.9685 29.057h-3.7067l-6.125-22.14c-0.51538-1.8499-0.81932-2.9863-0.91182-3.4092-0.30394 1.3346-0.58806 2.471-0.85235 3.4092l-6.1647 22.14h-3.9248zm32.072-14.152c0-4.823 1.295-8.5988 3.8851-11.328 2.5901-2.7287 5.9334-4.093 10.03-4.093 2.6826 0 5.1009 0.64086 7.2549 1.9226 2.154 1.2817 3.7959 3.0689 4.9258 5.3615 1.1299 2.2926 1.6948 4.8924 1.6948 7.7994 0 2.9467-0.59466 5.5828-1.784 7.9084-1.1893 2.3256-2.8742 4.0864-5.0547 5.2822-2.1804 1.1959-4.5327 1.7938-7.0567 1.7938-2.7355 0-5.1802-0.66068-7.3342-1.9821-2.154-1.3214-3.786-3.125-4.8961-5.411s-1.6651-4.7041-1.6651-7.2544zm3.9644 0.059462c0 3.5017 0.94154 6.26 2.8247 8.2751 1.8831 2.0151 4.2452 3.0226 7.0864 3.0226 2.8941 0 5.276-1.0174 7.1459-3.0524 1.8699-2.0349 2.8048-4.9221 2.8048-8.6616 0-2.3653-0.39974-4.4299-1.1992-6.194-0.7995-1.764-1.969-3.1317-3.5085-4.1029s-3.2673-1.4568-5.1835-1.4568c-2.7223 0-5.0646 0.93486-7.027 2.8046-1.9624 1.8698-2.9436 4.9915-2.9436 9.3653zm26.819 5.8471l3.4689-0.4757c0.092504 2.2199 0.50877 3.7395 1.2488 4.5587 0.74003 0.81926 1.7642 1.2289 3.0724 1.2289 0.96468 0 1.7972-0.22133 2.4976-0.66399 0.70039-0.44266 1.1827-1.0439 1.447-1.8037 0.2643-0.7598 0.39644-1.9721 0.39644-3.6371v-20.019h3.8455v19.801c0 2.4313-0.29403 4.3143-0.88209 5.6489-0.58806 1.3346-1.5197 2.352-2.7949 3.0524-1.2752 0.70033-2.7718 1.0505-4.4897 1.0505-2.5505 0-4.5029-0.73336-5.8575-2.2001-1.3545-1.4667-2.0053-3.647-1.9525-6.5408zm22.34 8.2454v-29.057h21.011v3.429h-17.166v8.8995h16.076v3.4092h-16.076v9.8905h17.84v3.429h-21.685zm32.072 0l-7.7108-29.057h3.9446l4.4203 19.048c0.47573 1.9953 0.88539 3.9773 1.229 5.9462 0.74003-3.1053 1.1761-4.8957 1.3083-5.3714l5.5304-19.622h4.6384l4.1627 14.707c1.044 3.647 1.7972 7.076 2.2597 10.287 0.37002-1.8367 0.85235-3.9443 1.447-6.3228l4.5591-18.671h3.8653l-7.9685 29.057h-3.7067l-6.125-22.14c-0.51538-1.8499-0.81932-2.9863-0.91182-3.4092-0.30394 1.3346-0.58806 2.471-0.85235 3.4092l-6.1647 22.14h-3.9248zm32.072-14.152c0-4.823 1.295-8.5988 3.8851-11.328 2.5901-2.7287 5.9334-4.093 10.03-4.093 2.6826 0 5.1009 0.64086 7.2549 1.9226 2.154 1.2817 3.7959 3.0689 4.9258 5.3615s1.6948 4.8924 1.6948 7.7994c0 2.9467-0.59466 5.5828-1.784 7.9084-1.1893 2.3256-2.8742 4.0864-5.0547 5.2822s-4.5327 1.7938-7.0567 1.7938c-2.7355 0-5.1802-0.66068-7.3342-1.9821-2.154-1.3214-3.786-3.125-4.8961-5.411-1.11-2.286-1.6651-4.7041-1.6651-7.2544zm3.9644 0.059462c0 3.5017 0.94154 6.26 2.8247 8.2751 1.8831 2.0151 4.2452 3.0226 7.0864 3.0226 2.8941 0 5.276-1.0174 7.1459-3.0524 1.8699-2.0349 2.8048-4.9221 2.8048-8.6616 0-2.3653-0.39974-4.4299-1.1992-6.194-0.7995-1.764-1.969-3.1317-3.5085-4.1029-1.5395-0.97122-3.2673-1.4568-5.1835-1.4568-2.7223 0-5.0646 0.93486-7.027 2.8046-1.9624 1.8698-2.9436 4.9915-2.9436 9.3653zm7.4928-16.748l2.6363-5.5498h4.678l-4.3609 5.5498h-2.9535zm21.289 30.841v-29.057h10.01c2.2597 0 3.9842 0.13874 5.1736 0.41623 1.6651 0.3832 3.0856 1.0769 4.2618 2.0812 1.5329 1.295 2.6793 2.95 3.4391 4.9651 0.75985 2.0151 1.1398 4.3176 1.1398 6.9075 0 2.2067-0.25769 4.1623-0.77306 5.8669-0.51538 1.7046-1.1761 3.1151-1.9822 4.2317-0.80611 1.1166-1.6882 1.9953-2.6463 2.6361-0.95808 0.64087-2.1144 1.1265-3.4689 1.4568-1.3545 0.33035-2.9105 0.49552-4.6681 0.49552h-10.486zm3.8455-3.429h6.2043c1.9162 0 3.4193-0.17838 4.5095-0.53516 1.0902-0.35677 1.9591-0.85889 2.6066-1.5064 0.91182-0.91175 1.6221-2.1373 2.1309-3.6767 0.50877-1.5394 0.76315-3.4058 0.76315-5.5993 0-3.0392-0.49885-5.3747-1.4966-7.0066-0.99772-1.6319-2.2102-2.7253-3.6374-3.2803-1.0308-0.39641-2.6892-0.59462-4.9754-0.59462h-6.1052v22.199zm23.152 3.429v-3.5677l14.886-18.612c1.0572-1.3214 2.0615-2.471 3.013-3.4488h-16.215v-3.429h20.813v3.429l-16.314 20.158-1.7642 2.0415h18.554v3.429h-22.974zm26.958 0v-29.057h3.8455v14.41l14.431-14.41h5.2132l-12.191 11.773 12.726 17.284h-5.0745l-10.347-14.707-4.7573 4.638v10.069h-3.8455zm24.044 0l11.16-29.057h4.1428l11.893 29.057h-4.3807l-3.3896-8.8004h-12.151l-3.1914 8.8004h-4.0834zm8.3848-11.932h9.8516l-3.0328-8.0472c-0.92504-2.4446-1.6122-4.453-2.0615-6.0255-0.37002 1.8632-0.89199 3.7131-1.566 5.5498l-3.1914 8.5229zm31.577 11.932v-29.057h3.8455v29.057h-3.8455zm21.785 0v-29.057h5.7881l6.8783 20.574c0.63431 1.916 1.0968 3.3497 1.3876 4.3011 0.33037-1.0571 0.84574-2.6097 1.5461-4.6579l6.9576-20.217h5.1736v29.057h-3.7067v-24.32l-8.4442 24.32h-3.4689l-8.4046-24.736v24.736h-3.7067zm34.59 0v-29.057h3.8455v29.057h-3.8455zm10.704 0v-29.057h21.011v3.429h-17.166v8.8995h16.076v3.4092h-16.076v9.8905h17.84v3.429h-21.685zm25.035-8.2454l3.4689-0.4757c0.092504 2.2199 0.50877 3.7395 1.2488 4.5587 0.74003 0.81926 1.7642 1.2289 3.0724 1.2289 0.96468 0 1.7972-0.22133 2.4976-0.66399 0.70039-0.44266 1.1827-1.0439 1.447-1.8037 0.2643-0.7598 0.39644-1.9721 0.39644-3.6371v-20.019h3.8455v19.801c0 2.4313-0.29403 4.3143-0.88209 5.6489-0.58806 1.3346-1.5197 2.352-2.7949 3.0524-1.2752 0.70033-2.7718 1.0505-4.4897 1.0505-2.5505 0-4.5029-0.73336-5.8575-2.2001-1.3545-1.4667-2.0053-3.647-1.9525-6.5408zm20.952-1.0901l3.6275-0.31713c0.17179 1.4535 0.57154 2.6461 1.1992 3.5776 0.6277 0.93158 1.6023 1.6848 2.9238 2.2596 1.3215 0.5748 2.8081 0.8622 4.46 0.8622 1.4668 0 2.7619-0.21802 3.8851-0.65408 1.1233-0.43606 1.9591-1.034 2.5075-1.7938 0.54842-0.7598 0.82262-1.589 0.82262-2.4875 0-0.91175-0.26429-1.7079-0.79289-2.3884-0.52859-0.68051-1.4008-1.252-2.6165-1.7145-0.77968-0.30392-2.5042-0.77631-5.1736-1.4172-2.6694-0.64087-4.5393-1.2454-5.6097-1.8136-1.3876-0.72676-2.4216-1.6286-3.1022-2.7055-0.68056-1.0769-1.0208-2.2827-1.0208-3.6173 0-1.4667 0.41626-2.8376 1.2488-4.1128 0.83253-1.2751 2.0483-2.243 3.6473-2.9037 1.599-0.66069 3.3764-0.99103 5.3322-0.99103 2.154 0 4.0536 0.34686 5.6989 1.0406 1.6452 0.69373 2.9106 1.7145 3.7959 3.0623 0.88539 1.3478 1.3611 2.874 1.4272 4.5786l-3.6869 0.27749c-0.19822-1.8367-0.86887-3.2242-2.012-4.1623s-2.8313-1.4073-5.0646-1.4073c-2.3258 0-4.0206 0.42614-5.0844 1.2784-1.0638 0.85229-1.5957 1.8797-1.5957 3.0821 0 1.0439 0.37662 1.9028 1.1299 2.5767 0.74003 0.67391 2.6727 1.3643 5.798 2.0713 3.1253 0.70694 5.2694 1.3247 6.4323 1.8532 1.6915 0.77962 2.9403 1.7673 3.7464 2.9632 0.8061 1.1959 1.2092 2.5734 1.2092 4.1326 0 1.546-0.44269 3.0028-1.3281 4.3705-0.88539 1.3676-2.1573 2.4313-3.8158 3.1911-1.6585 0.7598-3.525 1.1397-5.5998 1.1397-2.6298 0-4.8333-0.3832-6.6107-1.1496-1.7774-0.7664-3.1715-1.9193-4.1825-3.4587-1.0109-1.5394-1.5428-3.2803-1.5957-5.2227zm28.227 9.3355v-29.057h3.8455v14.41l14.431-14.41h5.2132l-12.191 11.773 12.726 17.284h-5.0745l-10.347-14.707-4.7573 4.638v10.069h-3.8455zm24.044 0l11.16-29.057h4.1428l11.893 29.057h-4.3807l-3.3896-8.8004h-12.151l-3.1914 8.8004h-4.0834zm8.3848-11.932h9.8516l-3.0328-8.0472c-0.92504-2.4446-1.6122-4.453-2.0615-6.0255-0.37002 1.8632-0.892 3.7131-1.566 5.5498l-3.1914 8.5229z"/>
<path d="m2.5534 81.465v-29.057h10.902c2.2201 0 4.0008 0.294 5.3421 0.88202 1.3413 0.58802 2.3919 1.4931 3.1517 2.7154 0.75985 1.2223 1.1398 2.5007 1.1398 3.8353 0 1.2421-0.33697 2.4115-1.0109 3.5083-0.67396 1.0967-1.6915 1.9821-3.0526 2.656 1.7576 0.51534 3.1088 1.394 4.0536 2.6361 0.94486 1.2421 1.4173 2.7088 1.4173 4.4002 0 1.361-0.28742 2.6262-0.86226 3.7957-0.57485 1.1694-1.2851 2.0713-2.1309 2.7055-0.84575 0.63426-1.9062 1.1133-3.1815 1.437-1.2752 0.32374-2.8379 0.48561-4.6879 0.48561h-11.081zm3.8455-16.848h6.2836c1.7047 0 2.9271-0.11232 3.6671-0.33695 0.9779-0.2907 1.7146-0.773 2.2102-1.4469 0.49556-0.67391 0.74333-1.5196 0.74333-2.537 0-0.96461-0.23126-1.8136-0.69378-2.547-0.46252-0.73337-1.1233-1.2355-1.9822-1.5064-0.85896-0.27088-2.3324-0.40632-4.4203-0.40632h-5.8079v8.7805zm0 13.419h7.2351c1.2422 0 2.1144-0.046248 2.6165-0.13874 0.88539-0.15857 1.6254-0.42284 2.2201-0.79283 0.59467-0.36999 1.0836-0.90844 1.4668-1.6154 0.38323-0.70694 0.57484-1.5229 0.57484-2.4478 0-1.0835-0.27751-2.025-0.83253-2.8244-0.55502-0.79944-1.3248-1.361-2.3093-1.6848-0.98451-0.32374-2.4018-0.48561-4.2519-0.48561h-6.7197v9.9896zm24.044 3.429v-29.057h3.8455v29.057h-3.8455zm10.466 0v-29.057h10.902c2.2201 0 4.0008 0.294 5.3421 0.88202 1.3413 0.58802 2.3919 1.4931 3.1517 2.7154 0.75985 1.2223 1.1398 2.5007 1.1398 3.8353 0 1.2421-0.33697 2.4115-1.0109 3.5083s-1.6915 1.9821-3.0526 2.656c1.7576 0.51534 3.1088 1.394 4.0536 2.6361 0.94486 1.2421 1.4173 2.7088 1.4173 4.4002 0 1.361-0.28742 2.6262-0.86226 3.7957-0.57485 1.1694-1.2851 2.0713-2.1309 2.7055-0.84575 0.63426-1.9062 1.1133-3.1815 1.437-1.2752 0.32374-2.8379 0.48561-4.6879 0.48561h-11.081zm3.8455-16.848h6.2836c1.7047 0 2.9271-0.11232 3.6671-0.33695 0.9779-0.2907 1.7146-0.773 2.2102-1.4469 0.49556-0.67391 0.74333-1.5196 0.74333-2.537 0-0.96461-0.23126-1.8136-0.69378-2.547-0.46252-0.73337-1.1233-1.2355-1.9822-1.5064-0.85896-0.27088-2.3324-0.40632-4.4203-0.40632h-5.8079v8.7805zm0 13.419h7.2351c1.2422 0 2.1144-0.046248 2.6165-0.13874 0.88539-0.15857 1.6254-0.42284 2.2201-0.79283 0.59467-0.36999 1.0836-0.90844 1.4668-1.6154 0.38323-0.70694 0.57484-1.5229 0.57484-2.4478 0-1.0835-0.27751-2.025-0.83253-2.8244-0.55502-0.79944-1.3248-1.361-2.3093-1.6848-0.98451-0.32374-2.4018-0.48561-4.2519-0.48561h-6.7197v9.9896zm23.232 3.429v-29.057h3.8455v25.628h14.312v3.429h-18.157zm23.39 0v-29.057h3.8455v29.057h-3.8455zm9.4552-14.152c0-4.823 1.295-8.5988 3.8851-11.328 2.5901-2.7287 5.9334-4.093 10.03-4.093 2.6826 0 5.1009 0.64086 7.2549 1.9226 2.154 1.2817 3.7959 3.0689 4.9258 5.3615s1.6948 4.8924 1.6948 7.7994c0 2.9467-0.59466 5.5828-1.784 7.9084-1.1893 2.3256-2.8742 4.0864-5.0547 5.2822s-4.5327 1.7938-7.0567 1.7938c-2.7355 0-5.1802-0.66068-7.3342-1.9821-2.154-1.3214-3.786-3.125-4.8961-5.411s-1.6651-4.7041-1.6651-7.2544zm3.9644 0.059462c0 3.5017 0.94154 6.26 2.8247 8.2751 1.8831 2.0151 4.2452 3.0226 7.0864 3.0226 2.8941 0 5.276-1.0174 7.1459-3.0524 1.8699-2.0349 2.8048-4.9221 2.8048-8.6616 0-2.3653-0.39974-4.4299-1.1992-6.194s-1.969-3.1317-3.5085-4.1029c-1.5395-0.97122-3.2673-1.4568-5.1835-1.4568-2.7223 0-5.0646 0.93486-7.027 2.8046-1.9624 1.8698-2.9436 4.9915-2.9436 9.3653zm36.175 14.092v-25.628h-9.5741v-3.429h23.033v3.429h-9.6138v25.628h-3.8455zm17.483 0v-29.057h21.011v3.429h-17.166v8.8995h16.076v3.4092h-16.076v9.8905h17.84v3.429h-21.685zm26.839 0v-29.057h3.8455v14.41l14.431-14.41h5.2132l-12.191 11.773 12.726 17.284h-5.0745l-10.347-14.707-4.7573 4.638v10.069h-3.8455zm24.044 0l11.16-29.057h4.1428l11.893 29.057h-4.3807l-3.3896-8.8004h-12.151l-3.1914 8.8004h-4.0834zm8.3848-11.932h9.8516l-3.0328-8.0472c-0.92504-2.4446-1.6122-4.453-2.0615-6.0255-0.37002 1.8632-0.892 3.7131-1.566 5.5498l-3.1914 8.5229zm30.923 11.932v-29.057h10.962c1.9294 0 3.4028 0.092496 4.4203 0.27749 1.4272 0.23785 2.6231 0.69042 3.5878 1.3577 0.96468 0.6673 1.741 1.6022 2.3291 2.8046s0.88209 2.5238 0.88209 3.9641c0 2.471-0.78627 4.562-2.3588 6.2732-1.5726 1.7112-4.4137 2.5668-8.5235 2.5668h-7.4531v11.813h-3.8455zm3.8455-15.242h7.5126c2.4844 0 4.2485-0.46248 5.2925-1.3874 1.044-0.92497 1.566-2.2265 1.566-3.9047 0-1.2157-0.30724-2.2562-0.92173-3.1218s-1.4239-1.437-2.4282-1.7145c-0.64753-0.17178-1.8435-0.25767-3.5878-0.25767h-7.4333v10.386zm42.301-13.815h3.8455v16.788c0 2.9203-0.33037 5.2392-0.99111 6.957-0.66074 1.7178-1.8534 3.1151-3.5779 4.1921-1.7245 1.0769-3.9875 1.6154-6.7891 1.6154-2.7223 0-4.9489-0.46908-6.6801-1.4073s-2.9667-2.2959-3.7067-4.0731c-0.74003-1.7773-1.11-4.2053-1.11-7.2841v-16.788h3.8455v16.768c0 2.5238 0.23456 4.3837 0.70369 5.5795 0.46913 1.1959 1.2752 2.1175 2.4183 2.765s2.5405 0.97121 4.1924 0.97121c2.828 0 4.8432-0.64086 6.0458-1.9226 1.2026-1.2817 1.8038-3.7461 1.8038-7.3931v-16.768zm10.089 29.057v-29.057h10.902c2.2201 0 4.0008 0.294 5.3421 0.88202 1.3413 0.58802 2.3919 1.4931 3.1517 2.7154 0.75985 1.2223 1.1398 2.5007 1.1398 3.8353 0 1.2421-0.33697 2.4115-1.0109 3.5083-0.67396 1.0967-1.6915 1.9821-3.0526 2.656 1.7576 0.51534 3.1088 1.394 4.0536 2.6361 0.94486 1.2421 1.4173 2.7088 1.4173 4.4002 0 1.361-0.28742 2.6262-0.86226 3.7957-0.57485 1.1694-1.2851 2.0713-2.1309 2.7055-0.84575 0.63426-1.9062 1.1133-3.1815 1.437-1.2752 0.32374-2.8379 0.48561-4.6879 0.48561h-11.081zm3.8455-16.848h6.2836c1.7047 0 2.9271-0.11232 3.6671-0.33695 0.9779-0.2907 1.7146-0.773 2.2102-1.4469 0.49556-0.67391 0.74333-1.5196 0.74333-2.537 0-0.96461-0.23126-1.8136-0.69378-2.547-0.46252-0.73337-1.1233-1.2355-1.9822-1.5064-0.85896-0.27088-2.3324-0.40632-4.4203-0.40632h-5.8079v8.7805zm0 13.419h7.2351c1.2422 0 2.1144-0.046248 2.6165-0.13874 0.8854-0.15857 1.6254-0.42284 2.2201-0.79283 0.59467-0.36999 1.0836-0.90844 1.4668-1.6154 0.38323-0.70694 0.57484-1.5229 0.57484-2.4478 0-1.0835-0.27751-2.025-0.83253-2.8244-0.55502-0.79944-1.3248-1.361-2.3093-1.6848-0.98451-0.32374-2.4018-0.48561-4.2519-0.48561h-6.7197v9.9896zm23.232 3.429v-29.057h3.8455v25.628h14.312v3.429h-18.157zm23.39 0v-29.057h3.8455v29.057h-3.8455zm31.359-10.188l3.8455 0.97121c-0.8061 3.1581-2.2564 5.5663-4.351 7.2246s-4.6549 2.4875-7.6811 2.4875c-3.1319 0-5.679-0.63756-7.6414-1.9127-1.9624-1.2751-3.4557-3.1217-4.4798-5.5399-1.0242-2.4181-1.5362-5.0146-1.5362-7.7895 0-3.026 0.57814-5.6654 1.7344-7.9183 1.1563-2.253 2.8015-3.9641 4.9357-5.1335 2.1342-1.1694 4.4831-1.7541 7.0468-1.7541 2.9073 0 5.352 0.73996 7.3342 2.2199 1.9822 1.4799 3.3632 3.5611 4.1428 6.2435l-3.786 0.89193c-0.67396-2.1142-1.6518-3.6536-2.9337-4.6182-1.2818-0.96461-2.894-1.4469-4.8366-1.4469-2.2333 0-4.0999 0.53515-5.5998 1.6055-1.4999 1.0703-2.5538 2.5073-3.1616 4.311s-0.91182 3.6635-0.91182 5.5795c0 2.471 0.3601 4.6281 1.0803 6.4714 0.72021 1.8433 1.8402 3.2209 3.3599 4.1326 1.5197 0.91175 3.1649 1.3676 4.9357 1.3676 2.154 0 3.9776-0.62104 5.4709-1.8631 1.4933-1.2421 2.5042-3.0854 3.0328-5.53zm6.2638 10.188v-3.5677l14.886-18.612c1.0572-1.3214 2.0615-2.471 3.013-3.4488h-16.215v-3.429h20.813v3.429l-16.314 20.158-1.7642 2.0415h18.554v3.429h-22.974zm27.077 0v-29.057h3.9446l15.263 22.814v-22.814h3.6869v29.057h-3.9446l-15.263-22.833v22.833h-3.6869zm26.165 0l11.16-29.057h4.1428l11.893 29.057h-4.3807l-3.3896-8.8004h-12.151l-3.1914 8.8004h-4.0834zm8.3848-11.932h9.8516l-3.0328-8.0472c-0.92504-2.4446-1.6122-4.453-2.0615-6.0255-0.37002 1.8632-0.89199 3.7131-1.566 5.5498l-3.1914 8.5229z"/>
<path d="m3.3661 126.54v-29.057h3.8455v29.057h-3.8455zm10.506 0v-29.057h5.7881l6.8783 20.574c0.63431 1.916 1.0968 3.3497 1.3876 4.3011 0.33037-1.0571 0.84574-2.6097 1.5461-4.6579l6.9576-20.217h5.1736v29.057h-3.7067v-24.32l-8.4442 24.32h-3.4689l-8.4046-24.736v24.736h-3.7067zm34.491 0v-4.0632h4.0635v4.0632h-4.0635zm20.04-8.2454l3.4689-0.4757c0.092504 2.2199 0.50877 3.7395 1.2488 4.5587 0.74003 0.81926 1.7642 1.2289 3.0724 1.2289 0.96468 0 1.7972-0.22133 2.4976-0.66399 0.70039-0.44266 1.1827-1.0439 1.447-1.8037 0.2643-0.7598 0.39644-1.9721 0.39644-3.6371v-20.019h3.8455v19.801c0 2.4313-0.29403 4.3143-0.88209 5.6489s-1.5197 2.352-2.7949 3.0524c-1.2752 0.70033-2.7718 1.0505-4.4897 1.0505-2.5505 0-4.5029-0.73336-5.8575-2.2001s-2.0053-3.647-1.9525-6.5408zm21.091-5.9066c0-4.823 1.295-8.5988 3.8851-11.328 2.5901-2.7287 5.9334-4.093 10.03-4.093 2.6826 0 5.1009 0.64086 7.2549 1.9226s3.7959 3.0689 4.9258 5.3615c1.1299 2.2926 1.6948 4.8924 1.6948 7.7994 0 2.9467-0.59466 5.5828-1.784 7.9084-1.1893 2.3256-2.8742 4.0864-5.0547 5.2822s-4.5327 1.7938-7.0567 1.7938c-2.7355 0-5.1802-0.66068-7.3342-1.9821s-3.786-3.125-4.8961-5.411-1.6651-4.7041-1.6651-7.2544zm3.9644 0.059462c0 3.5017 0.94154 6.26 2.8247 8.2751 1.8831 2.0151 4.2452 3.0226 7.0864 3.0226 2.8941 0 5.276-1.0174 7.1459-3.0524 1.8699-2.0349 2.8048-4.9221 2.8048-8.6616 0-2.3653-0.39974-4.4299-1.1992-6.194-0.7995-1.764-1.969-3.1317-3.5085-4.1029-1.5395-0.97122-3.2673-1.4568-5.1835-1.4568-2.7223 0-5.0646 0.93486-7.027 2.8046s-2.9436 4.9915-2.9436 9.3653zm27.474 4.757l3.6275-0.31713c0.17179 1.4535 0.57154 2.6461 1.1992 3.5776s1.6023 1.6848 2.9238 2.2596c1.3215 0.5748 2.8081 0.8622 4.46 0.8622 1.4668 0 2.7619-0.21802 3.8851-0.65408 1.1233-0.43606 1.9591-1.034 2.5075-1.7938 0.54842-0.7598 0.82262-1.589 0.82262-2.4875 0-0.91175-0.26429-1.7079-0.79289-2.3884-0.52859-0.68051-1.4008-1.252-2.6165-1.7145-0.77968-0.30392-2.5042-0.77631-5.1736-1.4172-2.6694-0.64087-4.5393-1.2454-5.6097-1.8136-1.3876-0.72676-2.4216-1.6286-3.1022-2.7055-0.68056-1.0769-1.0208-2.2827-1.0208-3.6173 0-1.4667 0.41626-2.8376 1.2488-4.1128 0.83254-1.2751 2.0483-2.243 3.6473-2.9037s3.3764-0.99103 5.3322-0.99103c2.154 0 4.0536 0.34686 5.6989 1.0406 1.6452 0.69373 2.9106 1.7145 3.7959 3.0623 0.88539 1.3478 1.3611 2.874 1.4272 4.5786l-3.6869 0.27749c-0.19822-1.8367-0.86887-3.2242-2.012-4.1623s-2.8313-1.4073-5.0646-1.4073c-2.3258 0-4.0206 0.42614-5.0844 1.2784s-1.5957 1.8797-1.5957 3.0821c0 1.0439 0.37662 1.9028 1.1299 2.5767 0.74003 0.67391 2.6727 1.3643 5.798 2.0713 3.1253 0.70694 5.2694 1.3247 6.4323 1.8532 1.6915 0.77962 2.9403 1.7673 3.7464 2.9632 0.80611 1.1959 1.2092 2.5734 1.2092 4.1326 0 1.546-0.44269 3.0028-1.3281 4.3705-0.88539 1.3676-2.1573 2.4313-3.8158 3.1911-1.6585 0.7598-3.525 1.1397-5.5998 1.1397-2.6298 0-4.8333-0.3832-6.6107-1.1496-1.7774-0.7664-3.1715-1.9193-4.1825-3.4587-1.0109-1.5394-1.5428-3.2803-1.5957-5.2227zm28.465 9.3355v-29.057h21.011v3.429h-17.166v8.8995h16.076v3.4092h-16.076v9.8905h17.84v3.429h-21.685zm26.998 0v-29.057h10.962c1.9294 0 3.4028 0.092495 4.4203 0.27749 1.4272 0.23785 2.6231 0.69042 3.5878 1.3577 0.96468 0.6673 1.741 1.6022 2.3291 2.8046 0.58806 1.2025 0.88209 2.5238 0.88209 3.9641 0 2.471-0.78627 4.562-2.3588 6.2732s-4.4137 2.5668-8.5235 2.5668h-7.4531v11.813h-3.8455zm3.8455-15.242h7.5126c2.4844 0 4.2485-0.46248 5.2925-1.3874 1.044-0.92497 1.566-2.2265 1.566-3.9047 0-1.2157-0.30724-2.2562-0.92173-3.1218-0.61449-0.86551-1.4239-1.437-2.4282-1.7145-0.64753-0.17178-1.8435-0.25767-3.5878-0.25767h-7.4333v10.386zm23.351 15.242v-29.057h3.8455v11.932h15.104v-11.932h3.8455v29.057h-3.8455v-13.696h-15.104v13.696h-3.8455zm26.007 0l11.16-29.057h4.1428l11.893 29.057h-4.3807l-3.3896-8.8004h-12.151l-3.1914 8.8004h-4.0834zm8.3848-11.932h9.8516l-3.0328-8.0472c-0.92504-2.4446-1.6122-4.453-2.0615-6.0255-0.37002 1.8632-0.892 3.7131-1.566 5.5498l-3.1914 8.5229zm51.657 1.7442l3.8455 0.97121c-0.80611 3.1581-2.2564 5.5663-4.351 7.2246-2.0946 1.6583-4.6549 2.4875-7.6811 2.4875-3.1319 0-5.679-0.63756-7.6414-1.9127-1.9624-1.2751-3.4557-3.1217-4.4798-5.5399s-1.5362-5.0146-1.5362-7.7895c0-3.026 0.57814-5.6654 1.7344-7.9183 1.1563-2.253 2.8015-3.9641 4.9357-5.1335 2.1342-1.1694 4.4831-1.7541 7.0468-1.7541 2.9073 0 5.352 0.73996 7.3342 2.2199 1.9822 1.4799 3.3632 3.5611 4.1428 6.2435l-3.786 0.89193c-0.67396-2.1142-1.6518-3.6536-2.9337-4.6182-1.2818-0.96461-2.894-1.4469-4.8366-1.4469-2.2333 0-4.0999 0.53515-5.5998 1.6055-1.4999 1.0703-2.5538 2.5073-3.1616 4.311s-0.91182 3.6635-0.91182 5.5795c0 2.471 0.3601 4.6281 1.0803 6.4714 0.72021 1.8433 1.8402 3.2208 3.3599 4.1326 1.5197 0.91175 3.1649 1.3676 4.9357 1.3676 2.154 0 3.9776-0.62104 5.4709-1.8631 1.4933-1.2421 2.5042-3.0854 3.0328-5.53zm7.4135-3.9641c0-4.823 1.295-8.5988 3.8851-11.328 2.5901-2.7287 5.9334-4.093 10.03-4.093 2.6826 0 5.1009 0.64086 7.2549 1.9226 2.154 1.2817 3.7959 3.0689 4.9258 5.3615 1.1299 2.2926 1.6948 4.8924 1.6948 7.7994 0 2.9467-0.59466 5.5828-1.784 7.9084-1.1893 2.3256-2.8742 4.0864-5.0547 5.2822s-4.5327 1.7938-7.0567 1.7938c-2.7355 0-5.1802-0.66068-7.3342-1.9821-2.154-1.3214-3.786-3.125-4.8961-5.411s-1.6651-4.7041-1.6651-7.2544zm3.9644 0.059462c0 3.5017 0.94154 6.26 2.8247 8.2751 1.8831 2.0151 4.2452 3.0226 7.0864 3.0226 2.8941 0 5.276-1.0174 7.1459-3.0524 1.8699-2.0349 2.8048-4.9221 2.8048-8.6616 0-2.3653-0.39974-4.4299-1.1992-6.194-0.7995-1.764-1.969-3.1317-3.5085-4.1029-1.5395-0.97122-3.2673-1.4568-5.1835-1.4568-2.7223 0-5.0646 0.93486-7.027 2.8046-1.9624 1.8698-2.9436 4.9915-2.9436 9.3653zm28.742 14.092v-29.057h3.9446l15.263 22.814v-22.814h3.6869v29.057h-3.9446l-15.263-22.833v22.833h-3.6869zm29.416 0v-29.057h12.884c2.5901 0 4.5591 0.26097 5.907 0.78292 1.3479 0.52195 2.4249 1.4436 3.231 2.765 0.8061 1.3214 1.2092 2.7815 1.2092 4.3804 0 2.0614-0.66734 3.799-2.002 5.2128-1.3347 1.4139-3.3962 2.3124-6.1845 2.6956 1.0175 0.48891 1.7906 0.97121 2.3192 1.4469 1.1233 1.0307 2.187 2.319 3.1914 3.865l5.0547 7.9084h-4.8366l-3.8455-6.0453c-1.1233-1.7442-2.0483-3.0788-2.7751-4.0038s-1.3776-1.5724-1.9525-1.9424c-0.57485-0.36999-1.1596-0.62765-1.7543-0.773-0.43609-0.092497-1.1497-0.13874-2.1408-0.13874h-4.46v12.903h-3.8455zm3.8455-16.233h8.2658c1.7576 0 3.1319-0.18169 4.123-0.54507 0.99111-0.36338 1.7443-0.94478 2.2597-1.7442 0.51538-0.79944 0.77306-1.6682 0.77306-2.6064 0-1.3742-0.49885-2.504-1.4966-3.3893-0.99772-0.88533-2.5736-1.328-4.7276-1.328h-9.1975v9.613zm22.221 16.233l11.16-29.057h4.1428l11.893 29.057h-4.3807l-3.3896-8.8004h-12.151l-3.1914 8.8004h-4.0834zm8.3848-11.932h9.8516l-3.0328-8.0472c-0.92504-2.4446-1.6122-4.453-2.0615-6.0255-0.37002 1.8632-0.892 3.7131-1.566 5.5498l-3.1914 8.5229zm21.884 11.932v-29.057h10.01c2.2597 0 3.9842 0.13874 5.1736 0.41623 1.6651 0.3832 3.0856 1.0769 4.2618 2.0812 1.5329 1.295 2.6793 2.95 3.4391 4.9651s1.1398 4.3176 1.1398 6.9075c0 2.2067-0.25769 4.1623-0.77306 5.8669-0.51538 1.7046-1.1761 3.1151-1.9822 4.2317-0.8061 1.1166-1.6882 1.9953-2.6463 2.6361-0.95808 0.64087-2.1144 1.1265-3.4689 1.4568-1.3545 0.33035-2.9105 0.49552-4.6681 0.49552h-10.486zm3.8455-3.429h6.2043c1.9162 0 3.4193-0.17838 4.5095-0.53516 1.0902-0.35677 1.9591-0.85889 2.6066-1.5064 0.91182-0.91176 1.6221-2.1373 2.1309-3.6767 0.50877-1.5394 0.76315-3.4058 0.76315-5.5993 0-3.0392-0.49885-5.3747-1.4966-7.0066-0.99772-1.6319-2.2102-2.7253-3.6374-3.2803-1.0308-0.39642-2.6892-0.59462-4.9754-0.59462h-6.1052v22.199zm22.28 3.429l11.16-29.057h4.1428l11.893 29.057h-4.3807l-3.3896-8.8004h-12.151l-3.1914 8.8004h-4.0834zm8.3848-11.932h9.8516l-3.0328-8.0472c-0.92504-2.4446-1.6122-4.453-2.0615-6.0255-0.37002 1.8632-0.89199 3.7131-1.566 5.5498l-3.1914 8.5229z"/>
<path d="m2.5534 171.61v-29.057h3.8455v14.41l14.431-14.41h5.2132l-12.191 11.773 12.726 17.284h-5.0745l-10.347-14.707-4.7573 4.638v10.069h-3.8455zm26.066-14.152c0-4.823 1.295-8.5988 3.8851-11.328 2.5901-2.7287 5.9334-4.093 10.03-4.093 2.6826 0 5.1009 0.64086 7.2549 1.9226 2.154 1.2817 3.7959 3.0689 4.9258 5.3615 1.1299 2.2926 1.6948 4.8924 1.6948 7.7994 0 2.9467-0.59466 5.5828-1.784 7.9084-1.1893 2.3256-2.8742 4.0864-5.0547 5.2822-2.1804 1.1959-4.5327 1.7938-7.0567 1.7938-2.7355 0-5.1802-0.66068-7.3342-1.9821-2.154-1.3214-3.786-3.125-4.8961-5.411-1.11-2.286-1.6651-4.7041-1.6651-7.2544zm3.9644 0.059462c0 3.5017 0.94154 6.26 2.8247 8.2751 1.8831 2.0151 4.2452 3.0226 7.0864 3.0226 2.8941 0 5.276-1.0174 7.1459-3.0524 1.8699-2.0349 2.8048-4.9221 2.8048-8.6616 0-2.3653-0.39974-4.4299-1.1992-6.194-0.7995-1.764-1.969-3.1317-3.5085-4.1029s-3.2673-1.4568-5.1835-1.4568c-2.7223 0-5.0646 0.93486-7.027 2.8046-1.9624 1.8698-2.9436 4.9915-2.9436 9.3653zm28.841 14.092v-29.057h12.884c2.5901 0 4.5591 0.26097 5.907 0.78292 1.3479 0.52195 2.4249 1.4436 3.231 2.765s1.2092 2.7815 1.2092 4.3804c0 2.0614-0.66734 3.799-2.002 5.2128-1.3347 1.4139-3.3962 2.3124-6.1845 2.6956 1.0175 0.48891 1.7906 0.97121 2.3192 1.4469 1.1233 1.0307 2.187 2.319 3.1914 3.865l5.0547 7.9084h-4.8366l-3.8455-6.0453c-1.1233-1.7442-2.0483-3.0788-2.7751-4.0038-0.72682-0.92497-1.3776-1.5724-1.9525-1.9424-0.57485-0.36999-1.1596-0.62765-1.7543-0.773-0.43609-0.092497-1.1497-0.13874-2.1408-0.13874h-4.46v12.903h-3.8455zm3.8455-16.233h8.2658c1.7576 0 3.1319-0.18169 4.123-0.54507 0.99111-0.36338 1.7443-0.94478 2.2597-1.7442 0.51538-0.79944 0.77306-1.6682 0.77306-2.6064 0-1.3742-0.49885-2.504-1.4966-3.3893-0.99772-0.88533-2.5736-1.328-4.7276-1.328h-9.1975v9.613zm23.093 16.233v-3.5677l14.886-18.612c1.0572-1.3214 2.0615-2.471 3.013-3.4488h-16.215v-3.429h20.813v3.429l-16.314 20.158-1.7642 2.0415h18.554v3.429h-22.974zm27.196 0v-29.057h21.011v3.429h-17.166v8.8995h16.076v3.4092h-16.076v9.8905h17.84v3.429h-21.685zm26.958 0v-29.057h3.9446l15.263 22.814v-22.814h3.6869v29.057h-3.9446l-15.263-22.833v22.833h-3.6869zm30.011 0v-29.057h3.8455v29.057h-3.8455zm9.4552-14.152c0-4.823 1.295-8.5988 3.8851-11.328 2.5901-2.7287 5.9334-4.093 10.03-4.093 2.6826 0 5.1009 0.64086 7.2549 1.9226 2.154 1.2817 3.7959 3.0689 4.9258 5.3615 1.1299 2.2926 1.6948 4.8924 1.6948 7.7994 0 2.9467-0.59466 5.5828-1.784 7.9084-1.1893 2.3256-2.8742 4.0864-5.0547 5.2822-2.1804 1.1959-4.5327 1.7938-7.0567 1.7938-2.7355 0-5.1802-0.66068-7.3342-1.9821-2.154-1.3214-3.786-3.125-4.8961-5.411-1.11-2.286-1.6651-4.7041-1.6651-7.2544zm3.9644 0.059462c0 3.5017 0.94154 6.26 2.8247 8.2751 1.8831 2.0151 4.2452 3.0226 7.0864 3.0226 2.894 0 5.276-1.0174 7.1459-3.0524 1.8699-2.0349 2.8048-4.9221 2.8048-8.6616 0-2.3653-0.39974-4.4299-1.1992-6.194-0.7995-1.764-1.969-3.1317-3.5085-4.1029-1.5395-0.97122-3.2673-1.4568-5.1835-1.4568-2.7223 0-5.0646 0.93486-7.027 2.8046-1.9624 1.8698-2.9436 4.9915-2.9436 9.3653zm33.856 14.092l-7.7108-29.057h3.9446l4.4203 19.048c0.47574 1.9953 0.88539 3.9773 1.229 5.9462 0.74003-3.1053 1.1761-4.8957 1.3083-5.3714l5.5304-19.622h4.6384l4.1627 14.707c1.044 3.647 1.7972 7.076 2.2597 10.287 0.37002-1.8367 0.85235-3.9443 1.447-6.3228l4.5591-18.671h3.8653l-7.9685 29.057h-3.7067l-6.125-22.14c-0.51538-1.8499-0.81932-2.9863-0.91182-3.4092-0.30394 1.3346-0.58806 2.471-0.85235 3.4092l-6.1647 22.14h-3.9248zm31.934-9.3355l3.6275-0.31713c0.17179 1.4535 0.57154 2.6461 1.1992 3.5776 0.6277 0.93158 1.6023 1.6848 2.9238 2.2596 1.3215 0.5748 2.8081 0.8622 4.46 0.8622 1.4668 0 2.7619-0.21802 3.8851-0.65408 1.1233-0.43606 1.9591-1.034 2.5075-1.7938 0.54842-0.75979 0.82262-1.589 0.82262-2.4875 0-0.91176-0.26429-1.7079-0.79289-2.3884-0.5286-0.68051-1.4008-1.252-2.6165-1.7145-0.77968-0.30392-2.5042-0.7763-5.1736-1.4172-2.6694-0.64087-4.5393-1.2454-5.6097-1.8136-1.3876-0.72676-2.4216-1.6286-3.1022-2.7055-0.68056-1.0769-1.0208-2.2827-1.0208-3.6173 0-1.4667 0.41626-2.8376 1.2488-4.1128 0.83254-1.2751 2.0483-2.243 3.6473-2.9037 1.599-0.66069 3.3764-0.99103 5.3322-0.99103 2.154 0 4.0536 0.34686 5.6989 1.0406 1.6452 0.69373 2.9106 1.7145 3.7959 3.0623 0.88539 1.3478 1.3611 2.874 1.4272 4.5786l-3.6869 0.27749c-0.19822-1.8367-0.86887-3.2242-2.012-4.1623s-2.8313-1.4073-5.0646-1.4073c-2.3258 0-4.0206 0.42614-5.0844 1.2784-1.0638 0.85229-1.5957 1.8797-1.5957 3.0821 0 1.0439 0.37662 1.9028 1.1299 2.5767 0.74003 0.67391 2.6727 1.3643 5.798 2.0713 3.1253 0.70694 5.2694 1.3247 6.4323 1.8532 1.6915 0.77962 2.9403 1.7673 3.7464 2.9632 0.80611 1.1959 1.2092 2.5734 1.2092 4.1326 0 1.546-0.44269 3.0028-1.3281 4.3705s-2.1573 2.4313-3.8158 3.1911c-1.6585 0.7598-3.525 1.1397-5.5998 1.1397-2.6298 0-4.8333-0.3832-6.6107-1.1496-1.7774-0.7664-3.1715-1.9193-4.1825-3.4587-1.0109-1.5394-1.5428-3.2803-1.5957-5.2227zm28.227 9.3355v-29.057h3.8455v14.41l14.431-14.41h5.2132l-12.191 11.773 12.726 17.284h-5.0745l-10.347-14.707-4.7573 4.638v10.069h-3.8455zm27.89 0v-29.057h3.8455v29.057h-3.8455zm10.704 0v-29.057h21.011v3.429h-17.166v8.8995h16.076v3.4092h-16.076v9.8905h17.84v3.429h-21.685zm40.596-11.397v-3.4092l12.31-0.01982v10.782c-1.8897 1.5064-3.8389 2.6394-5.8475 3.3992-2.0087 0.7598-4.0701 1.1397-6.1845 1.1397-2.8544 0-5.4478-0.61113-7.7802-1.8334-2.3324-1.2223-4.0933-2.9896-5.2826-5.302-1.1893-2.3124-1.784-4.8957-1.784-7.7499 0-2.8278 0.59136-5.4672 1.7741-7.9183 1.1827-2.4512 2.8841-4.2713 5.1042-5.4606 2.2201-1.1892 4.7771-1.7839 7.6712-1.7839 2.1012 0 4.0008 0.34025 5.6989 1.0208 1.6981 0.68051 3.0295 1.6286 3.9942 2.8443 0.96468 1.2157 1.6981 2.8013 2.2003 4.757l-3.4689 0.95139c-0.43609-1.4799-0.97789-2.6427-1.6254-3.4884-0.64753-0.84569-1.5726-1.5229-2.7751-2.0316-1.2026-0.50873-2.5372-0.7631-4.0041-0.7631-1.7576 0-3.2773 0.26758-4.5591 0.80274-1.2818 0.53516-2.3159 1.2388-3.1022 2.1109-0.78628 0.87211-1.3975 1.8301-1.8336 2.874-0.74003 1.7971-1.11 3.7461-1.11 5.8471 0 2.5899 0.44599 4.7569 1.338 6.5012 0.892 1.7442 2.1903 3.0392 3.8951 3.8848 1.7047 0.84568 3.5151 1.2685 5.4313 1.2685 1.6651 0 3.2905-0.32043 4.8763-0.9613 1.5858-0.64087 2.7883-1.3247 3.6076-2.0514v-5.411h-8.5434zm16.809-2.7551c0-4.823 1.295-8.5988 3.8851-11.328 2.5901-2.7287 5.9334-4.093 10.03-4.093 2.6826 0 5.1009 0.64086 7.2549 1.9226 2.154 1.2817 3.7959 3.0689 4.9258 5.3615 1.1299 2.2926 1.6948 4.8924 1.6948 7.7994 0 2.9467-0.59466 5.5828-1.784 7.9084-1.1893 2.3256-2.8742 4.0864-5.0547 5.2822-2.1804 1.1959-4.5327 1.7938-7.0567 1.7938-2.7355 0-5.1802-0.66068-7.3342-1.9821-2.154-1.3214-3.786-3.125-4.8961-5.411-1.11-2.286-1.6651-4.7041-1.6651-7.2544zm3.9644 0.059462c0 3.5017 0.94154 6.26 2.8247 8.2751 1.8831 2.0151 4.2452 3.0226 7.0864 3.0226 2.8941 0 5.276-1.0174 7.1459-3.0524 1.8699-2.0349 2.8048-4.9221 2.8048-8.6616 0-2.3653-0.39974-4.4299-1.1992-6.194-0.7995-1.764-1.969-3.1317-3.5085-4.1029-1.5395-0.97122-3.2673-1.4568-5.1835-1.4568-2.7223 0-5.0646 0.93486-7.027 2.8046-1.9624 1.8698-2.9436 4.9915-2.9436 9.3653z"/>
<path d="m7.7864 216.68l-7.7108-29.057h3.9446l4.4203 19.048c0.47573 1.9953 0.88539 3.9773 1.229 5.9462 0.74003-3.1053 1.1761-4.8957 1.3083-5.3714l5.5304-19.622h4.6384l4.1627 14.707c1.044 3.647 1.7972 7.076 2.2597 10.287 0.37002-1.8367 0.85235-3.9443 1.447-6.3228l4.5591-18.671h3.8653l-7.9685 29.057h-3.7067l-6.125-22.14c-0.51538-1.8499-0.81932-2.9863-0.91182-3.4092-0.30394 1.3346-0.58806 2.471-0.85235 3.4092l-6.1647 22.14h-3.9248zm58.119-11.397v-3.4092l12.31-0.01982v10.782c-1.8897 1.5064-3.8389 2.6394-5.8475 3.3992-2.0087 0.7598-4.0701 1.1397-6.1845 1.1397-2.8544 0-5.4478-0.61113-7.7802-1.8334-2.3324-1.2223-4.0933-2.9896-5.2826-5.302-1.1893-2.3124-1.784-4.8957-1.784-7.7499 0-2.8278 0.59136-5.4672 1.7741-7.9184 1.1827-2.4512 2.8841-4.2713 5.1042-5.4606s4.7771-1.7839 7.6712-1.7839c2.1012 0 4.0008 0.34025 5.6989 1.0208 1.6981 0.68051 3.0295 1.6286 3.9942 2.8443 0.96468 1.2157 1.6981 2.8013 2.2003 4.757l-3.4689 0.95139c-0.43609-1.4799-0.97789-2.6427-1.6254-3.4884-0.64753-0.84569-1.5726-1.5229-2.7751-2.0316-1.2026-0.50873-2.5372-0.76309-4.0041-0.76309-1.7576 0-3.2773 0.26758-4.5591 0.80274s-2.3159 1.2388-3.1022 2.1109c-0.78628 0.87211-1.3975 1.8301-1.8336 2.874-0.74003 1.7971-1.11 3.7461-1.11 5.8471 0 2.5899 0.44599 4.7569 1.338 6.5012 0.892 1.7442 2.1903 3.0392 3.8951 3.8848 1.7047 0.84568 3.5151 1.2685 5.4313 1.2685 1.6651 0 3.2905-0.32043 4.8763-0.9613s2.7883-1.3247 3.6076-2.0514v-5.411h-8.5434zm17.979 11.397v-29.057h10.01c2.2597 0 3.9842 0.13874 5.1736 0.41623 1.6651 0.3832 3.0856 1.0769 4.2618 2.0812 1.5329 1.295 2.6793 2.95 3.4391 4.9651 0.75985 2.0151 1.1398 4.3176 1.1398 6.9075 0 2.2067-0.25769 4.1623-0.77306 5.8669s-1.1761 3.1151-1.9822 4.2317c-0.80611 1.1166-1.6882 1.9953-2.6463 2.6361-0.95808 0.64087-2.1144 1.1265-3.4689 1.4568-1.3545 0.33035-2.9105 0.49552-4.6681 0.49552h-10.486zm3.8455-3.429h6.2043c1.9162 0 3.4193-0.17838 4.5095-0.53516 1.0902-0.35677 1.9591-0.85889 2.6066-1.5064 0.91182-0.91176 1.6221-2.1373 2.1309-3.6767 0.50877-1.5394 0.76315-3.4058 0.76315-5.5993 0-3.0392-0.49885-5.3747-1.4966-7.0066-0.99772-1.6319-2.2102-2.7253-3.6374-3.2803-1.0308-0.39642-2.6892-0.59462-4.9754-0.59462h-6.1052v22.199zm22.28 3.429l11.16-29.057h4.1428l11.893 29.057h-4.3807l-3.3896-8.8004h-12.151l-3.1914 8.8004h-4.0834zm8.3848-11.932h9.8516l-3.0328-8.0472c-0.92504-2.4446-1.6122-4.453-2.0615-6.0255-0.37002 1.8632-0.89199 3.7131-1.566 5.5498l-3.1914 8.5229zm21.844 11.932v-29.057h3.9446l15.263 22.814v-22.814h3.6869v29.057h-3.9446l-15.263-22.833v22.833h-3.6869zm8.2064-30.841l2.6363-5.5498h4.678l-4.3609 5.5498h-2.9535zm19.842 21.505l3.6275-0.31713c0.17179 1.4535 0.57154 2.6461 1.1992 3.5776 0.6277 0.93158 1.6023 1.6848 2.9238 2.2596s2.8081 0.8622 4.46 0.8622c1.4668 0 2.7619-0.21802 3.8851-0.65408 1.1233-0.43606 1.9591-1.034 2.5075-1.7938 0.54842-0.75979 0.82262-1.589 0.82262-2.4875 0-0.91176-0.26429-1.7079-0.79289-2.3884-0.52859-0.68051-1.4008-1.252-2.6165-1.7145-0.77968-0.30392-2.5042-0.7763-5.1736-1.4172-2.6694-0.64087-4.5393-1.2454-5.6097-1.8136-1.3876-0.72676-2.4216-1.6286-3.1022-2.7055-0.68056-1.0769-1.0208-2.2827-1.0208-3.6173 0-1.4667 0.41626-2.8376 1.2488-4.1128 0.83254-1.2751 2.0483-2.243 3.6473-2.9037 1.599-0.66069 3.3764-0.99103 5.3322-0.99103 2.154 0 4.0536 0.34686 5.6989 1.0406 1.6452 0.69373 2.9106 1.7145 3.7959 3.0623s1.3611 2.874 1.4272 4.5786l-3.6869 0.27749c-0.19822-1.8367-0.86887-3.2242-2.012-4.1623-1.1431-0.93818-2.8313-1.4073-5.0646-1.4073-2.3258 0-4.0206 0.42614-5.0844 1.2784-1.0638 0.85229-1.5957 1.8797-1.5957 3.0821 0 1.0439 0.37662 1.9028 1.1299 2.5767 0.74003 0.67391 2.6727 1.3643 5.798 2.0713 3.1253 0.70694 5.2694 1.3247 6.4323 1.8532 1.6915 0.77962 2.9403 1.7673 3.7464 2.9632 0.8061 1.1958 1.2092 2.5734 1.2092 4.1326 0 1.546-0.44269 3.0028-1.3281 4.3705-0.8854 1.3676-2.1573 2.4313-3.8158 3.1911-1.6585 0.7598-3.525 1.1397-5.5998 1.1397-2.6298 0-4.8333-0.3832-6.6107-1.1496-1.7774-0.7664-3.1715-1.9193-4.1825-3.4587-1.0109-1.5394-1.5428-3.2803-1.5957-5.2227zm28.227 9.3355v-29.057h3.8455v14.41l14.431-14.41h5.2132l-12.191 11.773 12.726 17.284h-5.0745l-10.347-14.707-4.7573 4.638v10.069h-3.8455zm46.305-29.057h3.8455v16.788c0 2.9203-0.33037 5.2392-0.99111 6.957-0.66074 1.7178-1.8534 3.1151-3.5779 4.1921-1.7245 1.0769-3.9875 1.6154-6.7891 1.6154-2.7223 0-4.9489-0.46908-6.6801-1.4073-1.7311-0.93818-2.9667-2.2959-3.7067-4.0731-0.74003-1.7773-1.11-4.2053-1.11-7.2841v-16.788h3.8455v16.768c0 2.5238 0.23456 4.3837 0.70369 5.5795 0.46913 1.1959 1.2752 2.1175 2.4183 2.765 1.1431 0.64748 2.5405 0.97121 4.1924 0.97121 2.828 0 4.8432-0.64086 6.0458-1.9226 1.2026-1.2817 1.8038-3.7461 1.8038-7.3931v-16.768z"/>
</g>
</g>
</g>
</g>
</g>
</svg>
