<?xml version="1.0" encoding="UTF-8"?>
<svg version="1.1" viewBox="0 0 1281 720" xmlns="http://www.w3.org/2000/svg">
<title>BgOrg</title>
<desc>Created with Sketch.</desc>
<g fill="none" fill-rule="evenodd">
<g fill-rule="nonzero">
<rect y="-6.6613e-15" width="1280" height="720" fill="#CF363E"/>
<g style="mix-blend-mode:multiply">
<g transform="translate(1062.2)">
<rect width="218" height="356.24" fill="#E95150"/>
<polygon points="80.046 17.613 77.26 4.3444 63.82 20.032 65.358 34.755" fill="#F47F7F"/>
<polygon points="81.473 19.55 95.189 19.781 81.988 35.684 67.065 36.928" fill="#F47F7F"/>
<polygon points="46.513 61.655 49.296 74.941 62.738 59.254 61.185 44.53" fill="#F47F7F"/>
<polygon points="44.004 60.822 30.288 60.591 43.471 44.688 58.412 43.444" fill="#F47F7F"/>
<polygon points="86.301 57.564 99.516 54.767 83.892 41.272 69.229 42.816" fill="#F47F7F"/>
<polygon points="84.372 60.092 84.142 73.855 68.304 60.609 67.065 45.616" fill="#F47F7F"/>
<polygon points="39.193 22.808 25.961 25.605 41.585 39.1 56.248 37.556" fill="#F47F7F"/>
<polygon points="41.105 20.279 41.317 6.5166 57.845 20.315 58.412 34.755" fill="#F47F7F"/>
<rect transform="translate(63.279 39.642) rotate(-5.31) translate(-63.279 -39.642)" x="59.493" y="35.841" width="7.5719" height="7.6027" fill="#F47F7F"/>
<polygon points="197.95 17.613 195.15 4.3444 181.73 20.032 183.28 34.755" fill="#F47F7F"/>
<polygon points="199.38 19.55 213.09 19.781 199.91 35.684 184.97 36.928" fill="#F47F7F"/>
<polygon points="164.42 61.655 167.2 74.941 180.64 59.254 179.11 44.53" fill="#F47F7F"/>
<polygon points="161.91 60.822 148.19 60.591 161.39 44.688 176.32 43.444" fill="#F47F7F"/>
<polygon points="204.19 57.564 217.42 54.767 201.8 41.272 187.13 42.816" fill="#F47F7F"/>
<polygon points="202.28 60.092 202.06 73.855 186.21 60.609 184.97 45.616" fill="#F47F7F"/>
<polygon points="157.08 22.808 143.87 25.605 159.49 39.1 174.15 37.556" fill="#F47F7F"/>
<polygon points="159.01 20.279 159.24 6.5166 175.73 20.315 176.32 34.755" fill="#F47F7F"/>
<rect transform="translate(181.19 39.642) rotate(-5.31) translate(-181.19 -39.642)" x="177.4" y="35.84" width="7.5719" height="7.6027" fill="#F47F7F"/>
<rect x="111.41" y="30.411" width="15.144" height="15.205" fill="#F47F7F"/>
<rect y="92.319" width="15.144" height="15.205" fill="#F47F7F"/>
<rect x="36.778" y="92.319" width="15.144" height="15.205" fill="#F47F7F"/>
<rect x="72.474" y="92.319" width="15.144" height="15.205" fill="#F47F7F"/>
<rect x="108.17" y="92.319" width="15.144" height="15.205" fill="#F47F7F"/>
<rect x="143.87" y="92.319" width="15.144" height="15.205" fill="#F47F7F"/>
<rect x="179.56" y="92.319" width="15.144" height="15.205" fill="#F47F7F"/>
<polygon points="0 79.286 217.89 79.286 218 87.974 0 87.974" fill="#F47F7F"/>
<polygon points="0 110.78 218 110.78 217.96 119.47 0 119.47" fill="#F47F7F"/>
<polygon points="80.046 137.1 77.26 123.82 63.82 139.5 65.358 154.23" fill="#F47F7F"/>
<polygon points="81.473 139.02 95.189 139.25 81.988 155.16 67.065 156.4" fill="#F47F7F"/>
<polygon points="46.513 181.14 49.296 194.41 62.738 178.73 61.185 164" fill="#F47F7F"/>
<polygon points="44.004 180.29 30.288 180.06 43.471 164.16 58.412 162.92" fill="#F47F7F"/>
<polygon points="86.301 178.12 99.516 175.33 83.892 161.83 69.229 163.39" fill="#F47F7F"/>
<polygon points="84.372 179.55 84.142 193.33 68.304 180.09 67.065 165.09" fill="#F47F7F"/>
<polygon points="39.193 142.28 25.961 145.07 41.585 158.57 56.248 157.01" fill="#F47F7F"/>
<polygon points="41.105 139.76 41.317 125.99 57.845 139.8 58.412 154.23" fill="#F47F7F"/>
<rect transform="translate(63.279 159.11) rotate(-5.31) translate(-63.279 -159.11)" x="59.493" y="155.31" width="7.5719" height="7.6027" fill="#F47F7F"/>
<polygon points="197.95 137.1 195.15 123.82 181.73 139.5 183.28 154.23" fill="#F47F7F"/>
<polygon points="199.38 139.02 213.09 139.25 199.91 155.16 184.97 156.4" fill="#F47F7F"/>
<polygon points="164.42 181.14 167.2 194.41 180.64 178.73 179.11 164" fill="#F47F7F"/>
<polygon points="161.91 180.29 148.19 180.06 161.39 164.16 176.32 162.92" fill="#F47F7F"/>
<polygon points="204.19 178.12 217.42 175.33 201.8 161.83 187.13 163.39" fill="#F47F7F"/>
<polygon points="202.28 179.55 202.06 193.33 186.21 180.09 184.97 165.09" fill="#F47F7F"/>
<polygon points="157.08 142.28 143.87 145.07 159.49 158.57 174.15 157.01" fill="#F47F7F"/>
<polygon points="159.01 139.76 159.24 125.99 175.73 139.8 176.32 154.23" fill="#F47F7F"/>
<rect transform="translate(180.11 162.37) rotate(-5.1428) translate(-180.11 -162.37)" x="176.32" y="158.57" width="7.5719" height="7.6027" fill="#F47F7F"/>
<rect x="111.41" y="149.88" width="15.144" height="15.205" fill="#F47F7F"/>
<polygon points="80.046 255.47 77.26 242.2 63.82 257.89 65.358 272.61" fill="#F47F7F"/>
<polygon points="81.473 257.41 95.189 257.62 81.988 273.54 67.065 274.78" fill="#F47F7F"/>
<polygon points="46.513 299.51 49.296 312.8 62.738 297.11 61.185 282.39" fill="#F47F7F"/>
<polygon points="44.004 298.68 30.288 298.47 43.471 282.55 58.412 281.3" fill="#F47F7F"/>
<polygon points="86.301 296.51 99.516 293.71 83.892 280.22 69.229 281.78" fill="#F47F7F"/>
<polygon points="84.372 297.95 84.142 311.71 68.304 298.47 67.065 283.47" fill="#F47F7F"/>
<polygon points="39.193 260.67 25.961 263.46 41.585 276.96 56.248 275.41" fill="#F47F7F"/>
<polygon points="41.105 258.15 41.317 244.37 57.845 258.18 58.412 272.61" fill="#F47F7F"/>
<rect transform="translate(63.279 277.5) rotate(-5.31) translate(-63.279 -277.5)" x="59.493" y="273.7" width="7.5719" height="7.6027" fill="#F47F7F"/>
<polygon points="197.95 255.47 195.15 242.2 181.73 257.89 183.28 272.61" fill="#F47F7F"/>
<polygon points="199.38 257.41 213.09 257.62 199.91 273.54 184.97 274.78" fill="#F47F7F"/>
<polygon points="164.42 299.51 167.2 312.8 180.64 297.11 179.11 282.39" fill="#F47F7F"/>
<polygon points="161.91 298.68 148.19 298.47 161.39 282.55 176.32 281.3" fill="#F47F7F"/>
<polygon points="204.19 296.51 217.42 293.71 201.8 280.22 187.13 281.78" fill="#F47F7F"/>
<polygon points="202.28 297.95 202.06 311.71 186.21 298.47 184.97 283.47" fill="#F47F7F"/>
<polygon points="157.08 260.67 143.87 263.46 159.49 276.96 174.15 275.41" fill="#F47F7F"/>
<polygon points="159.01 258.15 159.24 244.37 175.73 258.18 176.32 272.61" fill="#F47F7F"/>
<rect transform="translate(180.11 280.76) rotate(-5.1428) translate(-180.11 -280.76)" x="176.32" y="276.96" width="7.5719" height="7.6027" fill="#F47F7F"/>
<rect x="111.41" y="268.27" width="15.144" height="15.205" fill="#F47F7F"/>
<rect y="212.88" width="15.144" height="15.205" fill="#F47F7F"/>
<rect x="36.778" y="212.88" width="15.144" height="15.205" fill="#F47F7F"/>
<rect x="72.474" y="212.88" width="15.144" height="15.205" fill="#F47F7F"/>
<rect x="108.17" y="212.88" width="15.144" height="15.205" fill="#F47F7F"/>
<rect x="143.87" y="212.88" width="15.144" height="15.205" fill="#F47F7F"/>
<rect x="179.56" y="212.88" width="15.144" height="15.205" fill="#F47F7F"/>
<polygon points="0 198.76 217.69 198.76 218 207.45 0 207.45" fill="#F47F7F"/>
<polygon points="0 231.34 218 231.34 217.98 240.03 0 240.03" fill="#F47F7F"/>
<rect y="332.35" width="15.144" height="15.205" fill="#F47F7F"/>
<rect x="36.778" y="332.35" width="15.144" height="15.205" fill="#F47F7F"/>
<rect x="72.474" y="332.35" width="15.144" height="15.205" fill="#F47F7F"/>
<rect x="108.17" y="332.35" width="15.144" height="15.205" fill="#F47F7F"/>
<rect x="143.87" y="332.35" width="15.144" height="15.205" fill="#F47F7F"/>
<rect x="179.56" y="332.35" width="15.144" height="15.205" fill="#F47F7F"/>
<polygon points="0 319.31 218 319.31 217.82 328 0 328" fill="#F47F7F"/>
<polygon points="0 350.81 217.97 350.81 218 359.5 0 359.5" fill="#F47F7F"/>
<g transform="translate(0 91.5)">
<rect y="268" width="217.42" height="356.24" fill="#E95150"/>
<polygon points="80.046 285.61 77.26 272.34 63.82 288.03 65.358 302.76" fill="#F47F7F"/>
<polygon points="81.473 287.55 95.189 287.78 81.988 303.68 67.065 304.93" fill="#F47F7F"/>
<polygon points="46.513 329.66 49.296 342.94 62.738 327.25 61.185 312.53" fill="#F47F7F"/>
<polygon points="44.004 328.82 30.288 328.59 43.471 312.69 58.412 311.44" fill="#F47F7F"/>
<polygon points="86.301 325.56 99.516 322.77 83.892 309.27 69.229 310.82" fill="#F47F7F"/>
<polygon points="84.372 328.09 84.142 341.86 68.304 328.61 67.065 313.62" fill="#F47F7F"/>
<polygon points="39.193 290.81 25.961 293.6 41.585 307.1 56.248 305.56" fill="#F47F7F"/>
<polygon points="41.105 288.28 41.317 274.52 57.845 288.32 58.412 302.76" fill="#F47F7F"/>
<rect transform="translate(63.279 307.64) rotate(-5.31) translate(-63.279 -307.64)" x="59.493" y="303.84" width="7.5719" height="7.6027" fill="#F47F7F"/>
<polygon points="197.95 285.61 195.15 272.34 181.73 288.03 183.28 302.76" fill="#F47F7F"/>
<polygon points="199.38 287.55 213.09 287.78 199.91 303.68 184.97 304.93" fill="#F47F7F"/>
<polygon points="164.42 329.66 167.2 342.94 180.64 327.25 179.11 312.53" fill="#F47F7F"/>
<polygon points="161.91 328.82 148.19 328.59 161.39 312.69 176.32 311.44" fill="#F47F7F"/>
<polygon points="204.19 325.56 217.42 322.77 201.8 309.27 187.13 310.82" fill="#F47F7F"/>
<polygon points="202.28 328.09 202.06 341.86 186.21 328.61 184.97 313.62" fill="#F47F7F"/>
<polygon points="157.08 290.81 143.87 293.6 159.49 307.1 174.15 305.56" fill="#F47F7F"/>
<polygon points="159.01 288.28 159.24 274.52 175.73 288.32 176.32 302.76" fill="#F47F7F"/>
<rect transform="translate(181.19 307.64) rotate(-5.31) translate(-181.19 -307.64)" x="177.4" y="303.84" width="7.5719" height="7.6027" fill="#F47F7F"/>
<rect x="111.41" y="298.41" width="15.144" height="15.205" fill="#F47F7F"/>
<rect y="360.32" width="15.144" height="15.205" fill="#F47F7F"/>
<rect x="36.778" y="360.32" width="15.144" height="15.205" fill="#F47F7F"/>
<rect x="72.474" y="360.32" width="15.144" height="15.205" fill="#F47F7F"/>
<rect x="108.17" y="360.32" width="15.144" height="15.205" fill="#F47F7F"/>
<rect x="143.87" y="360.32" width="15.144" height="15.205" fill="#F47F7F"/>
<rect x="179.56" y="360.32" width="15.144" height="15.205" fill="#F47F7F"/>
<polygon points="0 347.29 217.31 347.29 217.42 355.97 0 355.97" fill="#F47F7F"/>
<polygon points="0 378.78 217.42 378.78 217.38 387.47 0 387.47" fill="#F47F7F"/>
<polygon points="80.046 405.1 77.26 391.82 63.82 407.5 65.358 422.23" fill="#F47F7F"/>
<polygon points="81.473 407.02 95.189 407.25 81.988 423.16 67.065 424.4" fill="#F47F7F"/>
<polygon points="46.513 449.14 49.296 462.41 62.738 446.73 61.185 432" fill="#F47F7F"/>
<polygon points="44.004 448.29 30.288 448.06 43.471 432.16 58.412 430.92" fill="#F47F7F"/>
<polygon points="86.301 446.12 99.516 443.33 83.892 429.83 69.229 431.39" fill="#F47F7F"/>
<polygon points="84.372 447.55 84.142 461.33 68.304 448.09 67.065 433.09" fill="#F47F7F"/>
<polygon points="39.193 410.28 25.961 413.07 41.585 426.57 56.248 425.01" fill="#F47F7F"/>
<polygon points="41.105 407.76 41.317 393.99 57.845 407.8 58.412 422.23" fill="#F47F7F"/>
<rect transform="translate(63.279 427.11) rotate(-5.31) translate(-63.279 -427.11)" x="59.493" y="423.31" width="7.5719" height="7.6027" fill="#F47F7F"/>
<polygon points="197.95 405.1 195.15 391.82 181.73 407.5 183.28 422.23" fill="#F47F7F"/>
<polygon points="199.38 407.02 213.09 407.25 199.91 423.16 184.97 424.4" fill="#F47F7F"/>
<polygon points="164.42 449.14 167.2 462.41 180.64 446.73 179.11 432" fill="#F47F7F"/>
<polygon points="161.91 448.29 148.19 448.06 161.39 432.16 176.32 430.92" fill="#F47F7F"/>
<polygon points="204.19 446.12 217.42 443.33 201.8 429.83 187.13 431.39" fill="#F47F7F"/>
<polygon points="202.28 447.55 202.06 461.33 186.21 448.09 184.97 433.09" fill="#F47F7F"/>
<polygon points="157.08 410.28 143.87 413.07 159.49 426.57 174.15 425.01" fill="#F47F7F"/>
<polygon points="159.01 407.76 159.24 393.99 175.73 407.8 176.32 422.23" fill="#F47F7F"/>
<rect transform="translate(180.11 430.37) rotate(-5.1428) translate(-180.11 -430.37)" x="176.32" y="426.57" width="7.5719" height="7.6027" fill="#F47F7F"/>
<rect x="111.41" y="417.88" width="15.144" height="15.205" fill="#F47F7F"/>
<polygon points="80.046 523.47 77.26 510.2 63.82 525.89 65.358 540.61" fill="#F47F7F"/>
<polygon points="81.473 525.41 95.189 525.62 81.988 541.54 67.065 542.78" fill="#F47F7F"/>
<polygon points="46.513 567.51 49.296 580.8 62.738 565.11 61.185 550.39" fill="#F47F7F"/>
<polygon points="44.004 566.68 30.288 566.47 43.471 550.55 58.412 549.3" fill="#F47F7F"/>
<polygon points="86.301 564.51 99.516 561.71 83.892 548.22 69.229 549.78" fill="#F47F7F"/>
<polygon points="84.372 565.95 84.142 579.71 68.304 566.47 67.065 551.47" fill="#F47F7F"/>
<polygon points="39.193 528.67 25.961 531.46 41.585 544.96 56.248 543.41" fill="#F47F7F"/>
<polygon points="41.105 526.15 41.317 512.37 57.845 526.18 58.412 540.61" fill="#F47F7F"/>
<rect transform="translate(63.279 545.5) rotate(-5.31) translate(-63.279 -545.5)" x="59.493" y="541.7" width="7.5719" height="7.6027" fill="#F47F7F"/>
<polygon points="197.95 523.47 195.15 510.2 181.73 525.89 183.28 540.61" fill="#F47F7F"/>
<polygon points="199.38 525.41 213.09 525.62 199.91 541.54 184.97 542.78" fill="#F47F7F"/>
<polygon points="164.42 567.51 167.2 580.8 180.64 565.11 179.11 550.39" fill="#F47F7F"/>
<polygon points="161.91 566.68 148.19 566.47 161.39 550.55 176.32 549.3" fill="#F47F7F"/>
<polygon points="204.19 564.51 217.42 561.71 201.8 548.22 187.13 549.78" fill="#F47F7F"/>
<polygon points="202.28 565.95 202.06 579.71 186.21 566.47 184.97 551.47" fill="#F47F7F"/>
<polygon points="157.08 528.67 143.87 531.46 159.49 544.96 174.15 543.41" fill="#F47F7F"/>
<polygon points="159.01 526.15 159.24 512.37 175.73 526.18 176.32 540.61" fill="#F47F7F"/>
<rect transform="translate(180.11 548.76) rotate(-5.1428) translate(-180.11 -548.76)" x="176.32" y="544.96" width="7.5719" height="7.6027" fill="#F47F7F"/>
<rect x="111.41" y="536.27" width="15.144" height="15.205" fill="#F47F7F"/>
<rect y="480.88" width="15.144" height="15.205" fill="#F47F7F"/>
<rect x="36.778" y="480.88" width="15.144" height="15.205" fill="#F47F7F"/>
<rect x="72.474" y="480.88" width="15.144" height="15.205" fill="#F47F7F"/>
<rect x="108.17" y="480.88" width="15.144" height="15.205" fill="#F47F7F"/>
<rect x="143.87" y="480.88" width="15.144" height="15.205" fill="#F47F7F"/>
<rect x="179.56" y="480.88" width="15.144" height="15.205" fill="#F47F7F"/>
<polygon points="0 466.76 217.11 466.76 217.42 475.45 0 475.45" fill="#F47F7F"/>
<polygon points="0 499.34 217.42 499.34 217.4 508.03 0 508.03" fill="#F47F7F"/>
<rect y="600.35" width="15.144" height="15.205" fill="#F47F7F"/>
<rect x="36.778" y="600.35" width="15.144" height="15.205" fill="#F47F7F"/>
<rect x="72.474" y="600.35" width="15.144" height="15.205" fill="#F47F7F"/>
<rect x="108.17" y="600.35" width="15.144" height="15.205" fill="#F47F7F"/>
<rect x="143.87" y="600.35" width="15.144" height="15.205" fill="#F47F7F"/>
<rect x="179.56" y="600.35" width="15.144" height="15.205" fill="#F47F7F"/>
<rect x="215" y="600" width="2.42" height="15.205" fill="#F47F7F"/>
<rect x="215" y="481" width="2.42" height="15.205" fill="#F47F7F"/>
<rect x="215" y="360" width="2.42" height="15.205" fill="#F47F7F"/>
<polygon points="0 587.31 217.42 587.31 217.24 596 0 596" fill="#F47F7F"/>
<polygon points="0 618.81 217.39 618.81 217.42 627.5 0 627.5" fill="#F47F7F"/>
<rect x="215" y="241" width="2.42" height="15.205" fill="#F47F7F"/>
<rect x="215" y="121" width="2.42" height="15.205" fill="#F47F7F"/>
<rect x="215" y=".795" width="2.42" height="15.205" fill="#F47F7F"/>
</g>
</g>
<g transform="translate(708.13)">
<g transform="translate(0 359.5)">
<rect width="354.8" height="356.24" fill="#E95150"/>
<polygon points="80.046 17.613 77.26 4.3444 63.82 20.032 65.358 34.755" fill="#F47F7F"/>
<polygon points="81.473 19.55 95.189 19.781 81.988 35.684 67.065 36.928" fill="#F47F7F"/>
<polygon points="46.513 61.655 49.296 74.941 62.738 59.254 61.185 44.53" fill="#F47F7F"/>
<polygon points="44.004 60.822 30.288 60.591 43.471 44.688 58.412 43.444" fill="#F47F7F"/>
<polygon points="86.301 57.564 99.516 54.767 83.892 41.272 69.229 42.816" fill="#F47F7F"/>
<polygon points="84.372 60.092 84.142 73.855 68.304 60.609 67.065 45.616" fill="#F47F7F"/>
<polygon points="39.193 22.808 25.961 25.605 41.585 39.1 56.248 37.556" fill="#F47F7F"/>
<polygon points="41.105 20.279 41.317 6.5166 57.845 20.315 58.412 34.755" fill="#F47F7F"/>
<rect transform="translate(63.279 39.642) rotate(-5.31) translate(-63.279 -39.642)" x="59.493" y="35.841" width="7.5719" height="7.6027" fill="#F47F7F"/>
<polygon points="197.95 17.613 195.15 4.3444 181.73 20.032 183.28 34.755" fill="#F47F7F"/>
<polygon points="199.38 19.55 213.09 19.781 199.91 35.684 184.97 36.928" fill="#F47F7F"/>
<polygon points="164.42 61.655 167.2 74.941 180.64 59.254 179.11 44.53" fill="#F47F7F"/>
<polygon points="161.91 60.822 148.19 60.591 161.39 44.688 176.32 43.444" fill="#F47F7F"/>
<polygon points="204.19 57.564 217.42 54.767 201.8 41.272 187.13 42.816" fill="#F47F7F"/>
<polygon points="202.28 60.092 202.06 73.855 186.21 60.609 184.97 45.616" fill="#F47F7F"/>
<polygon points="157.08 22.808 143.87 25.605 159.49 39.1 174.15 37.556" fill="#F47F7F"/>
<polygon points="159.01 20.279 159.24 6.5166 175.73 20.315 176.32 34.755" fill="#F47F7F"/>
<rect transform="translate(181.19 39.642) rotate(-5.31) translate(-181.19 -39.642)" x="177.4" y="35.84" width="7.5719" height="7.6027" fill="#F47F7F"/>
<polygon points="315.86 17.613 313.07 4.3444 299.63 20.032 301.18 34.755" fill="#F47F7F"/>
<polygon points="317.29 19.55 331 19.781 317.81 35.684 302.88 36.928" fill="#F47F7F"/>
<polygon points="282.32 61.655 285.11 74.941 298.55 59.254 296.99 44.53" fill="#F47F7F"/>
<polygon points="279.81 60.822 266.1 60.591 279.28 44.688 294.22 43.444" fill="#F47F7F"/>
<polygon points="321.03 57.564 334.24 54.767 318.62 41.272 303.96 42.816" fill="#F47F7F"/>
<polygon points="320.18 60.092 319.95 73.855 304.11 60.609 302.88 45.616" fill="#F47F7F"/>
<polygon points="275 22.808 261.77 25.605 277.39 39.1 292.06 37.556" fill="#F47F7F"/>
<polygon points="276.91 20.279 277.13 6.5166 293.65 20.315 294.22 34.755" fill="#F47F7F"/>
<rect transform="translate(298.01 39.643) rotate(-5.31) translate(-298.01 -39.643)" x="294.22" y="35.841" width="7.5719" height="7.6027" fill="#F47F7F"/>
<rect x="111.41" y="30.411" width="15.144" height="15.205" fill="#F47F7F"/>
<rect x="233.65" y="30.411" width="15.144" height="15.205" fill="#F47F7F"/>
<rect x="352.63" y="30.411" width="15.144" height="15.205" fill="#F47F7F"/>
<rect y="92.319" width="15.144" height="15.205" fill="#F47F7F"/>
<rect x="36.778" y="92.319" width="15.144" height="15.205" fill="#F47F7F"/>
<rect x="72.474" y="92.319" width="15.144" height="15.205" fill="#F47F7F"/>
<rect x="108.17" y="92.319" width="15.144" height="15.205" fill="#F47F7F"/>
<rect x="143.87" y="92.319" width="15.144" height="15.205" fill="#F47F7F"/>
<rect x="179.56" y="92.319" width="15.144" height="15.205" fill="#F47F7F"/>
<rect x="215.26" y="92.319" width="15.144" height="15.205" fill="#F47F7F"/>
<rect x="250.95" y="92.319" width="15.144" height="15.205" fill="#F47F7F"/>
<rect x="286.65" y="92.319" width="15.144" height="15.205" fill="#F47F7F"/>
<rect x="322.35" y="92.319" width="15.144" height="15.205" fill="#F47F7F"/>
<rect y="79.286" width="354.8" height="8.6888" fill="#F47F7F"/>
<rect y="110.78" width="354.8" height="8.6888" fill="#F47F7F"/>
<polygon points="80.046 137.1 77.26 123.82 63.82 139.5 65.358 154.23" fill="#F47F7F"/>
<polygon points="81.473 139.02 95.189 139.25 81.988 155.16 67.065 156.4" fill="#F47F7F"/>
<polygon points="46.513 181.14 49.296 194.41 62.738 178.73 61.185 164" fill="#F47F7F"/>
<polygon points="44.004 180.29 30.288 180.06 43.471 164.16 58.412 162.92" fill="#F47F7F"/>
<polygon points="86.301 178.12 99.516 175.33 83.892 161.83 69.229 163.39" fill="#F47F7F"/>
<polygon points="84.372 179.55 84.142 193.33 68.304 180.09 67.065 165.09" fill="#F47F7F"/>
<polygon points="39.193 142.28 25.961 145.07 41.585 158.57 56.248 157.01" fill="#F47F7F"/>
<polygon points="41.105 139.76 41.317 125.99 57.845 139.8 58.412 154.23" fill="#F47F7F"/>
<rect transform="translate(63.279 159.11) rotate(-5.31) translate(-63.279 -159.11)" x="59.493" y="155.31" width="7.5719" height="7.6027" fill="#F47F7F"/>
<polygon points="197.95 137.1 195.15 123.82 181.73 139.5 183.28 154.23" fill="#F47F7F"/>
<polygon points="199.38 139.02 213.09 139.25 199.91 155.16 184.97 156.4" fill="#F47F7F"/>
<polygon points="164.42 181.14 167.2 194.41 180.64 178.73 179.11 164" fill="#F47F7F"/>
<polygon points="161.91 180.29 148.19 180.06 161.39 164.16 176.32 162.92" fill="#F47F7F"/>
<polygon points="204.19 178.12 217.42 175.33 201.8 161.83 187.13 163.39" fill="#F47F7F"/>
<polygon points="202.28 179.55 202.06 193.33 186.21 180.09 184.97 165.09" fill="#F47F7F"/>
<polygon points="157.08 142.28 143.87 145.07 159.49 158.57 174.15 157.01" fill="#F47F7F"/>
<polygon points="159.01 139.76 159.24 125.99 175.73 139.8 176.32 154.23" fill="#F47F7F"/>
<rect transform="translate(180.11 162.37) rotate(-5.1428) translate(-180.11 -162.37)" x="176.32" y="158.57" width="7.5719" height="7.6027" fill="#F47F7F"/>
<polygon points="315.86 137.1 313.07 123.82 299.63 139.5 301.18 154.23" fill="#F47F7F"/>
<polygon points="317.29 139.02 331 139.25 317.81 155.16 302.88 156.4" fill="#F47F7F"/>
<polygon points="282.32 181.14 285.11 194.41 298.55 178.73 296.99 164" fill="#F47F7F"/>
<polygon points="279.81 180.29 266.1 180.06 279.28 164.16 294.22 162.92" fill="#F47F7F"/>
<polygon points="321.03 178.12 334.24 175.33 318.62 161.83 303.96 163.39" fill="#F47F7F"/>
<polygon points="320.18 179.55 319.95 193.33 304.11 180.09 302.88 165.09" fill="#F47F7F"/>
<polygon points="275 142.28 261.77 145.07 277.39 158.57 292.06 157.01" fill="#F47F7F"/>
<polygon points="276.91 139.76 277.13 125.99 293.65 139.8 294.22 154.23" fill="#F47F7F"/>
<rect transform="translate(298.01 159.11) rotate(-5.31) translate(-298.01 -159.11)" x="294.22" y="155.31" width="7.5719" height="7.6027" fill="#F47F7F"/>
<rect x="111.41" y="149.88" width="15.144" height="15.205" fill="#F47F7F"/>
<rect x="233.65" y="149.88" width="15.144" height="15.205" fill="#F47F7F"/>
<rect x="352.63" y="149.88" width="15.144" height="15.205" fill="#F47F7F"/>
<polygon points="80.046 255.47 77.26 242.2 63.82 257.89 65.358 272.61" fill="#F47F7F"/>
<polygon points="81.473 257.41 95.189 257.62 81.988 273.54 67.065 274.78" fill="#F47F7F"/>
<polygon points="46.513 299.51 49.296 312.8 62.738 297.11 61.185 282.39" fill="#F47F7F"/>
<polygon points="44.004 298.68 30.288 298.47 43.471 282.55 58.412 281.3" fill="#F47F7F"/>
<polygon points="86.301 296.51 99.516 293.71 83.892 280.22 69.229 281.78" fill="#F47F7F"/>
<polygon points="84.372 297.95 84.142 311.71 68.304 298.47 67.065 283.47" fill="#F47F7F"/>
<polygon points="39.193 260.67 25.961 263.46 41.585 276.96 56.248 275.41" fill="#F47F7F"/>
<polygon points="41.105 258.15 41.317 244.37 57.845 258.18 58.412 272.61" fill="#F47F7F"/>
<rect transform="translate(63.279 277.5) rotate(-5.31) translate(-63.279 -277.5)" x="59.493" y="273.7" width="7.5719" height="7.6027" fill="#F47F7F"/>
<polygon points="197.95 255.47 195.15 242.2 181.73 257.89 183.28 272.61" fill="#F47F7F"/>
<polygon points="199.38 257.41 213.09 257.62 199.91 273.54 184.97 274.78" fill="#F47F7F"/>
<polygon points="164.42 299.51 167.2 312.8 180.64 297.11 179.11 282.39" fill="#F47F7F"/>
<polygon points="161.91 298.68 148.19 298.47 161.39 282.55 176.32 281.3" fill="#F47F7F"/>
<polygon points="204.19 296.51 217.42 293.71 201.8 280.22 187.13 281.78" fill="#F47F7F"/>
<polygon points="202.28 297.95 202.06 311.71 186.21 298.47 184.97 283.47" fill="#F47F7F"/>
<polygon points="157.08 260.67 143.87 263.46 159.49 276.96 174.15 275.41" fill="#F47F7F"/>
<polygon points="159.01 258.15 159.24 244.37 175.73 258.18 176.32 272.61" fill="#F47F7F"/>
<rect transform="translate(180.11 280.76) rotate(-5.1428) translate(-180.11 -280.76)" x="176.32" y="276.96" width="7.5719" height="7.6027" fill="#F47F7F"/>
<polygon points="315.86 255.47 313.07 242.2 299.63 257.89 301.18 272.61" fill="#F47F7F"/>
<polygon points="317.29 257.41 331 257.62 317.81 273.54 302.88 274.78" fill="#F47F7F"/>
<polygon points="282.32 299.51 285.11 312.8 298.55 297.11 296.99 282.39" fill="#F47F7F"/>
<polygon points="279.81 298.68 266.1 298.47 279.28 282.55 294.22 281.3" fill="#F47F7F"/>
<polygon points="321.03 296.51 334.24 293.71 318.62 280.22 303.96 281.78" fill="#F47F7F"/>
<polygon points="320.18 297.95 319.95 311.71 304.11 298.47 302.88 283.47" fill="#F47F7F"/>
<polygon points="275 260.67 261.77 263.46 277.39 276.96 292.06 275.41" fill="#F47F7F"/>
<polygon points="276.91 258.15 277.13 244.37 293.65 258.18 294.22 272.61" fill="#F47F7F"/>
<rect transform="translate(298.01 277.5) rotate(-5.31) translate(-298.01 -277.5)" x="294.22" y="273.7" width="7.5719" height="7.6027" fill="#F47F7F"/>
<rect x="111.41" y="268.27" width="15.144" height="15.205" fill="#F47F7F"/>
<rect x="233.65" y="268.27" width="15.144" height="15.205" fill="#F47F7F"/>
<rect x="352.63" y="268.27" width="15.144" height="15.205" fill="#F47F7F"/>
<rect y="212.88" width="15.144" height="15.205" fill="#F47F7F"/>
<rect x="36.778" y="212.88" width="15.144" height="15.205" fill="#F47F7F"/>
<rect x="72.474" y="212.88" width="15.144" height="15.205" fill="#F47F7F"/>
<rect x="108.17" y="212.88" width="15.144" height="15.205" fill="#F47F7F"/>
<rect x="143.87" y="212.88" width="15.144" height="15.205" fill="#F47F7F"/>
<rect x="179.56" y="212.88" width="15.144" height="15.205" fill="#F47F7F"/>
<rect x="215.26" y="212.88" width="15.144" height="15.205" fill="#F47F7F"/>
<rect x="250.95" y="212.88" width="15.144" height="15.205" fill="#F47F7F"/>
<rect x="286.65" y="212.88" width="15.144" height="15.205" fill="#F47F7F"/>
<rect x="322.35" y="212.88" width="15.144" height="15.205" fill="#F47F7F"/>
<rect y="198.76" width="354.8" height="8.6888" fill="#F47F7F"/>
<rect y="231.34" width="354.8" height="8.6888" fill="#F47F7F"/>
<rect y="332.35" width="15.144" height="15.205" fill="#F47F7F"/>
<rect x="36.778" y="332.35" width="15.144" height="15.205" fill="#F47F7F"/>
<rect x="72.474" y="332.35" width="15.144" height="15.205" fill="#F47F7F"/>
<rect x="108.17" y="332.35" width="15.144" height="15.205" fill="#F47F7F"/>
<rect x="143.87" y="332.35" width="15.144" height="15.205" fill="#F47F7F"/>
<rect x="179.56" y="332.35" width="15.144" height="15.205" fill="#F47F7F"/>
<rect x="215.26" y="332.35" width="15.144" height="15.205" fill="#F47F7F"/>
<rect x="250.95" y="332.35" width="15.144" height="15.205" fill="#F47F7F"/>
<rect x="286.65" y="332.35" width="15.144" height="15.205" fill="#F47F7F"/>
<rect x="322.35" y="332.35" width="15.144" height="15.205" fill="#F47F7F"/>
<rect y="319.31" width="354.8" height="8.6888" fill="#F47F7F"/>
<rect y="350.81" width="354.8" height="8.6888" fill="#F47F7F"/>
</g>
<rect width="354.8" height="356.24" fill="#E95150"/>
<polygon points="80.046 17.613 77.26 4.3444 63.82 20.032 65.358 34.755" fill="#F47F7F"/>
<polygon points="81.473 19.55 95.189 19.781 81.988 35.684 67.065 36.928" fill="#F47F7F"/>
<polygon points="46.513 61.655 49.296 74.941 62.738 59.254 61.185 44.53" fill="#F47F7F"/>
<polygon points="44.004 60.822 30.288 60.591 43.471 44.688 58.412 43.444" fill="#F47F7F"/>
<polygon points="86.301 57.564 99.516 54.767 83.892 41.272 69.229 42.816" fill="#F47F7F"/>
<polygon points="84.372 60.092 84.142 73.855 68.304 60.609 67.065 45.616" fill="#F47F7F"/>
<polygon points="39.193 22.808 25.961 25.605 41.585 39.1 56.248 37.556" fill="#F47F7F"/>
<polygon points="41.105 20.279 41.317 6.5166 57.845 20.315 58.412 34.755" fill="#F47F7F"/>
<rect transform="translate(63.279 39.642) rotate(-5.31) translate(-63.279 -39.642)" x="59.493" y="35.841" width="7.5719" height="7.6027" fill="#F47F7F"/>
<polygon points="197.95 17.613 195.15 4.3444 181.73 20.032 183.28 34.755" fill="#F47F7F"/>
<polygon points="199.38 19.55 213.09 19.781 199.91 35.684 184.97 36.928" fill="#F47F7F"/>
<polygon points="164.42 61.655 167.2 74.941 180.64 59.254 179.11 44.53" fill="#F47F7F"/>
<polygon points="161.91 60.822 148.19 60.591 161.39 44.688 176.32 43.444" fill="#F47F7F"/>
<polygon points="204.19 57.564 217.42 54.767 201.8 41.272 187.13 42.816" fill="#F47F7F"/>
<polygon points="202.28 60.092 202.06 73.855 186.21 60.609 184.97 45.616" fill="#F47F7F"/>
<polygon points="157.08 22.808 143.87 25.605 159.49 39.1 174.15 37.556" fill="#F47F7F"/>
<polygon points="159.01 20.279 159.24 6.5166 175.73 20.315 176.32 34.755" fill="#F47F7F"/>
<rect transform="translate(181.19 39.642) rotate(-5.31) translate(-181.19 -39.642)" x="177.4" y="35.84" width="7.5719" height="7.6027" fill="#F47F7F"/>
<polygon points="315.86 17.613 313.07 4.3444 299.63 20.032 301.18 34.755" fill="#F47F7F"/>
<polygon points="317.29 19.55 331 19.781 317.81 35.684 302.88 36.928" fill="#F47F7F"/>
<polygon points="282.32 61.655 285.11 74.941 298.55 59.254 296.99 44.53" fill="#F47F7F"/>
<polygon points="279.81 60.822 266.1 60.591 279.28 44.688 294.22 43.444" fill="#F47F7F"/>
<polygon points="321.03 57.564 334.24 54.767 318.62 41.272 303.96 42.816" fill="#F47F7F"/>
<polygon points="320.18 60.092 319.95 73.855 304.11 60.609 302.88 45.616" fill="#F47F7F"/>
<polygon points="275 22.808 261.77 25.605 277.39 39.1 292.06 37.556" fill="#F47F7F"/>
<polygon points="276.91 20.279 277.13 6.5166 293.65 20.315 294.22 34.755" fill="#F47F7F"/>
<rect transform="translate(298.01 39.643) rotate(-5.31) translate(-298.01 -39.643)" x="294.22" y="35.841" width="7.5719" height="7.6027" fill="#F47F7F"/>
<rect x="111.41" y="30.411" width="15.144" height="15.205" fill="#F47F7F"/>
<rect x="233.65" y="30.411" width="15.144" height="15.205" fill="#F47F7F"/>
<rect x="352.63" y="30.411" width="15.144" height="15.205" fill="#F47F7F"/>
<rect y="92.319" width="15.144" height="15.205" fill="#F47F7F"/>
<rect x="36.778" y="92.319" width="15.144" height="15.205" fill="#F47F7F"/>
<rect x="72.474" y="92.319" width="15.144" height="15.205" fill="#F47F7F"/>
<rect x="108.17" y="92.319" width="15.144" height="15.205" fill="#F47F7F"/>
<rect x="143.87" y="92.319" width="15.144" height="15.205" fill="#F47F7F"/>
<rect x="179.56" y="92.319" width="15.144" height="15.205" fill="#F47F7F"/>
<rect x="215.26" y="92.319" width="15.144" height="15.205" fill="#F47F7F"/>
<rect x="250.95" y="92.319" width="15.144" height="15.205" fill="#F47F7F"/>
<rect x="286.65" y="92.319" width="15.144" height="15.205" fill="#F47F7F"/>
<rect x="322.35" y="92.319" width="15.144" height="15.205" fill="#F47F7F"/>
<rect y="79.286" width="354.8" height="8.6888" fill="#F47F7F"/>
<rect y="110.78" width="354.8" height="8.6888" fill="#F47F7F"/>
<polygon points="80.046 137.1 77.26 123.82 63.82 139.5 65.358 154.23" fill="#F47F7F"/>
<polygon points="81.473 139.02 95.189 139.25 81.988 155.16 67.065 156.4" fill="#F47F7F"/>
<polygon points="46.513 181.14 49.296 194.41 62.738 178.73 61.185 164" fill="#F47F7F"/>
<polygon points="44.004 180.29 30.288 180.06 43.471 164.16 58.412 162.92" fill="#F47F7F"/>
<polygon points="86.301 178.12 99.516 175.33 83.892 161.83 69.229 163.39" fill="#F47F7F"/>
<polygon points="84.372 179.55 84.142 193.33 68.304 180.09 67.065 165.09" fill="#F47F7F"/>
<polygon points="39.193 142.28 25.961 145.07 41.585 158.57 56.248 157.01" fill="#F47F7F"/>
<polygon points="41.105 139.76 41.317 125.99 57.845 139.8 58.412 154.23" fill="#F47F7F"/>
<rect transform="translate(63.279 159.11) rotate(-5.31) translate(-63.279 -159.11)" x="59.493" y="155.31" width="7.5719" height="7.6027" fill="#F47F7F"/>
<polygon points="197.95 137.1 195.15 123.82 181.73 139.5 183.28 154.23" fill="#F47F7F"/>
<polygon points="199.38 139.02 213.09 139.25 199.91 155.16 184.97 156.4" fill="#F47F7F"/>
<polygon points="164.42 181.14 167.2 194.41 180.64 178.73 179.11 164" fill="#F47F7F"/>
<polygon points="161.91 180.29 148.19 180.06 161.39 164.16 176.32 162.92" fill="#F47F7F"/>
<polygon points="204.19 178.12 217.42 175.33 201.8 161.83 187.13 163.39" fill="#F47F7F"/>
<polygon points="202.28 179.55 202.06 193.33 186.21 180.09 184.97 165.09" fill="#F47F7F"/>
<polygon points="157.08 142.28 143.87 145.07 159.49 158.57 174.15 157.01" fill="#F47F7F"/>
<polygon points="159.01 139.76 159.24 125.99 175.73 139.8 176.32 154.23" fill="#F47F7F"/>
<rect transform="translate(180.11 162.37) rotate(-5.1428) translate(-180.11 -162.37)" x="176.32" y="158.57" width="7.5719" height="7.6027" fill="#F47F7F"/>
<polygon points="315.86 137.1 313.07 123.82 299.63 139.5 301.18 154.23" fill="#F47F7F"/>
<polygon points="317.29 139.02 331 139.25 317.81 155.16 302.88 156.4" fill="#F47F7F"/>
<polygon points="282.32 181.14 285.11 194.41 298.55 178.73 296.99 164" fill="#F47F7F"/>
<polygon points="279.81 180.29 266.1 180.06 279.28 164.16 294.22 162.92" fill="#F47F7F"/>
<polygon points="321.03 178.12 334.24 175.33 318.62 161.83 303.96 163.39" fill="#F47F7F"/>
<polygon points="320.18 179.55 319.95 193.33 304.11 180.09 302.88 165.09" fill="#F47F7F"/>
<polygon points="275 142.28 261.77 145.07 277.39 158.57 292.06 157.01" fill="#F47F7F"/>
<polygon points="276.91 139.76 277.13 125.99 293.65 139.8 294.22 154.23" fill="#F47F7F"/>
<rect transform="translate(298.01 159.11) rotate(-5.31) translate(-298.01 -159.11)" x="294.22" y="155.31" width="7.5719" height="7.6027" fill="#F47F7F"/>
<rect x="111.41" y="149.88" width="15.144" height="15.205" fill="#F47F7F"/>
<rect x="233.65" y="149.88" width="15.144" height="15.205" fill="#F47F7F"/>
<rect x="352.63" y="149.88" width="15.144" height="15.205" fill="#F47F7F"/>
<polygon points="80.046 255.47 77.26 242.2 63.82 257.89 65.358 272.61" fill="#F47F7F"/>
<polygon points="81.473 257.41 95.189 257.62 81.988 273.54 67.065 274.78" fill="#F47F7F"/>
<polygon points="46.513 299.51 49.296 312.8 62.738 297.11 61.185 282.39" fill="#F47F7F"/>
<polygon points="44.004 298.68 30.288 298.47 43.471 282.55 58.412 281.3" fill="#F47F7F"/>
<polygon points="86.301 296.51 99.516 293.71 83.892 280.22 69.229 281.78" fill="#F47F7F"/>
<polygon points="84.372 297.95 84.142 311.71 68.304 298.47 67.065 283.47" fill="#F47F7F"/>
<polygon points="39.193 260.67 25.961 263.46 41.585 276.96 56.248 275.41" fill="#F47F7F"/>
<polygon points="41.105 258.15 41.317 244.37 57.845 258.18 58.412 272.61" fill="#F47F7F"/>
<rect transform="translate(63.279 277.5) rotate(-5.31) translate(-63.279 -277.5)" x="59.493" y="273.7" width="7.5719" height="7.6027" fill="#F47F7F"/>
<polygon points="197.95 255.47 195.15 242.2 181.73 257.89 183.28 272.61" fill="#F47F7F"/>
<polygon points="199.38 257.41 213.09 257.62 199.91 273.54 184.97 274.78" fill="#F47F7F"/>
<polygon points="164.42 299.51 167.2 312.8 180.64 297.11 179.11 282.39" fill="#F47F7F"/>
<polygon points="161.91 298.68 148.19 298.47 161.39 282.55 176.32 281.3" fill="#F47F7F"/>
<polygon points="204.19 296.51 217.42 293.71 201.8 280.22 187.13 281.78" fill="#F47F7F"/>
<polygon points="202.28 297.95 202.06 311.71 186.21 298.47 184.97 283.47" fill="#F47F7F"/>
<polygon points="157.08 260.67 143.87 263.46 159.49 276.96 174.15 275.41" fill="#F47F7F"/>
<polygon points="159.01 258.15 159.24 244.37 175.73 258.18 176.32 272.61" fill="#F47F7F"/>
<rect transform="translate(180.11 280.76) rotate(-5.1428) translate(-180.11 -280.76)" x="176.32" y="276.96" width="7.5719" height="7.6027" fill="#F47F7F"/>
<polygon points="315.86 255.47 313.07 242.2 299.63 257.89 301.18 272.61" fill="#F47F7F"/>
<polygon points="317.29 257.41 331 257.62 317.81 273.54 302.88 274.78" fill="#F47F7F"/>
<polygon points="282.32 299.51 285.11 312.8 298.55 297.11 296.99 282.39" fill="#F47F7F"/>
<polygon points="279.81 298.68 266.1 298.47 279.28 282.55 294.22 281.3" fill="#F47F7F"/>
<polygon points="321.03 296.51 334.24 293.71 318.62 280.22 303.96 281.78" fill="#F47F7F"/>
<polygon points="320.18 297.95 319.95 311.71 304.11 298.47 302.88 283.47" fill="#F47F7F"/>
<polygon points="275 260.67 261.77 263.46 277.39 276.96 292.06 275.41" fill="#F47F7F"/>
<polygon points="276.91 258.15 277.13 244.37 293.65 258.18 294.22 272.61" fill="#F47F7F"/>
<rect transform="translate(298.01 277.5) rotate(-5.31) translate(-298.01 -277.5)" x="294.22" y="273.7" width="7.5719" height="7.6027" fill="#F47F7F"/>
<rect x="111.41" y="268.27" width="15.144" height="15.205" fill="#F47F7F"/>
<rect x="233.65" y="268.27" width="15.144" height="15.205" fill="#F47F7F"/>
<rect x="352.63" y="268.27" width="15.144" height="15.205" fill="#F47F7F"/>
<rect y="212.88" width="15.144" height="15.205" fill="#F47F7F"/>
<rect x="36.778" y="212.88" width="15.144" height="15.205" fill="#F47F7F"/>
<rect x="72.474" y="212.88" width="15.144" height="15.205" fill="#F47F7F"/>
<rect x="108.17" y="212.88" width="15.144" height="15.205" fill="#F47F7F"/>
<rect x="143.87" y="212.88" width="15.144" height="15.205" fill="#F47F7F"/>
<rect x="179.56" y="212.88" width="15.144" height="15.205" fill="#F47F7F"/>
<rect x="215.26" y="212.88" width="15.144" height="15.205" fill="#F47F7F"/>
<rect x="250.95" y="212.88" width="15.144" height="15.205" fill="#F47F7F"/>
<rect x="286.65" y="212.88" width="15.144" height="15.205" fill="#F47F7F"/>
<rect x="322.35" y="212.88" width="15.144" height="15.205" fill="#F47F7F"/>
<rect y="198.76" width="354.8" height="8.6888" fill="#F47F7F"/>
<rect y="231.34" width="354.8" height="8.6888" fill="#F47F7F"/>
<rect y="332.35" width="15.144" height="15.205" fill="#F47F7F"/>
<rect x="36.778" y="332.35" width="15.144" height="15.205" fill="#F47F7F"/>
<rect x="72.474" y="332.35" width="15.144" height="15.205" fill="#F47F7F"/>
<rect x="108.17" y="332.35" width="15.144" height="15.205" fill="#F47F7F"/>
<rect x="143.87" y="332.35" width="15.144" height="15.205" fill="#F47F7F"/>
<rect x="179.56" y="332.35" width="15.144" height="15.205" fill="#F47F7F"/>
<rect x="215.26" y="332.35" width="15.144" height="15.205" fill="#F47F7F"/>
<rect x="250.95" y="332.35" width="15.144" height="15.205" fill="#F47F7F"/>
<rect x="286.65" y="332.35" width="15.144" height="15.205" fill="#F47F7F"/>
<rect x="322.35" y="332.35" width="15.144" height="15.205" fill="#F47F7F"/>
<rect y="319.31" width="354.8" height="8.6888" fill="#F47F7F"/>
<rect y="350.81" width="354.8" height="8.6888" fill="#F47F7F"/>
</g>
<g transform="translate(354.06)">
<g transform="translate(0 359.5)">
<rect width="354.8" height="356.24" fill="#E95150"/>
<polygon points="80.046 17.613 77.26 4.3444 63.82 20.032 65.358 34.755" fill="#F47F7F"/>
<polygon points="81.473 19.55 95.189 19.781 81.988 35.684 67.065 36.928" fill="#F47F7F"/>
<polygon points="46.513 61.655 49.296 74.941 62.738 59.254 61.185 44.53" fill="#F47F7F"/>
<polygon points="44.004 60.822 30.288 60.591 43.471 44.688 58.412 43.444" fill="#F47F7F"/>
<polygon points="86.301 57.564 99.516 54.767 83.892 41.272 69.229 42.816" fill="#F47F7F"/>
<polygon points="84.372 60.092 84.142 73.855 68.304 60.609 67.065 45.616" fill="#F47F7F"/>
<polygon points="39.193 22.808 25.961 25.605 41.585 39.1 56.248 37.556" fill="#F47F7F"/>
<polygon points="41.105 20.279 41.317 6.5166 57.845 20.315 58.412 34.755" fill="#F47F7F"/>
<rect transform="translate(63.279 39.642) rotate(-5.31) translate(-63.279 -39.642)" x="59.493" y="35.841" width="7.5719" height="7.6027" fill="#F47F7F"/>
<polygon points="197.95 17.613 195.15 4.3444 181.73 20.032 183.28 34.755" fill="#F47F7F"/>
<polygon points="199.38 19.55 213.09 19.781 199.91 35.684 184.97 36.928" fill="#F47F7F"/>
<polygon points="164.42 61.655 167.2 74.941 180.64 59.254 179.11 44.53" fill="#F47F7F"/>
<polygon points="161.91 60.822 148.19 60.591 161.39 44.688 176.32 43.444" fill="#F47F7F"/>
<polygon points="204.19 57.564 217.42 54.767 201.8 41.272 187.13 42.816" fill="#F47F7F"/>
<polygon points="202.28 60.092 202.06 73.855 186.21 60.609 184.97 45.616" fill="#F47F7F"/>
<polygon points="157.08 22.808 143.87 25.605 159.49 39.1 174.15 37.556" fill="#F47F7F"/>
<polygon points="159.01 20.279 159.24 6.5166 175.73 20.315 176.32 34.755" fill="#F47F7F"/>
<rect transform="translate(181.19 39.642) rotate(-5.31) translate(-181.19 -39.642)" x="177.4" y="35.84" width="7.5719" height="7.6027" fill="#F47F7F"/>
<polygon points="315.86 17.613 313.07 4.3444 299.63 20.032 301.18 34.755" fill="#F47F7F"/>
<polygon points="317.29 19.55 331 19.781 317.81 35.684 302.88 36.928" fill="#F47F7F"/>
<polygon points="282.32 61.655 285.11 74.941 298.55 59.254 296.99 44.53" fill="#F47F7F"/>
<polygon points="279.81 60.822 266.1 60.591 279.28 44.688 294.22 43.444" fill="#F47F7F"/>
<polygon points="321.03 57.564 334.24 54.767 318.62 41.272 303.96 42.816" fill="#F47F7F"/>
<polygon points="320.18 60.092 319.95 73.855 304.11 60.609 302.88 45.616" fill="#F47F7F"/>
<polygon points="275 22.808 261.77 25.605 277.39 39.1 292.06 37.556" fill="#F47F7F"/>
<polygon points="276.91 20.279 277.13 6.5166 293.65 20.315 294.22 34.755" fill="#F47F7F"/>
<rect transform="translate(298.01 39.643) rotate(-5.31) translate(-298.01 -39.643)" x="294.22" y="35.841" width="7.5719" height="7.6027" fill="#F47F7F"/>
<rect x="111.41" y="30.411" width="15.144" height="15.205" fill="#F47F7F"/>
<rect x="233.65" y="30.411" width="15.144" height="15.205" fill="#F47F7F"/>
<rect x="352.63" y="30.411" width="15.144" height="15.205" fill="#F47F7F"/>
<rect y="92.319" width="15.144" height="15.205" fill="#F47F7F"/>
<rect x="36.778" y="92.319" width="15.144" height="15.205" fill="#F47F7F"/>
<rect x="72.474" y="92.319" width="15.144" height="15.205" fill="#F47F7F"/>
<rect x="108.17" y="92.319" width="15.144" height="15.205" fill="#F47F7F"/>
<rect x="143.87" y="92.319" width="15.144" height="15.205" fill="#F47F7F"/>
<rect x="179.56" y="92.319" width="15.144" height="15.205" fill="#F47F7F"/>
<rect x="215.26" y="92.319" width="15.144" height="15.205" fill="#F47F7F"/>
<rect x="250.95" y="92.319" width="15.144" height="15.205" fill="#F47F7F"/>
<rect x="286.65" y="92.319" width="15.144" height="15.205" fill="#F47F7F"/>
<rect x="322.35" y="92.319" width="15.144" height="15.205" fill="#F47F7F"/>
<rect y="79.286" width="354.8" height="8.6888" fill="#F47F7F"/>
<rect y="110.78" width="354.8" height="8.6888" fill="#F47F7F"/>
<polygon points="80.046 137.1 77.26 123.82 63.82 139.5 65.358 154.23" fill="#F47F7F"/>
<polygon points="81.473 139.02 95.189 139.25 81.988 155.16 67.065 156.4" fill="#F47F7F"/>
<polygon points="46.513 181.14 49.296 194.41 62.738 178.73 61.185 164" fill="#F47F7F"/>
<polygon points="44.004 180.29 30.288 180.06 43.471 164.16 58.412 162.92" fill="#F47F7F"/>
<polygon points="86.301 178.12 99.516 175.33 83.892 161.83 69.229 163.39" fill="#F47F7F"/>
<polygon points="84.372 179.55 84.142 193.33 68.304 180.09 67.065 165.09" fill="#F47F7F"/>
<polygon points="39.193 142.28 25.961 145.07 41.585 158.57 56.248 157.01" fill="#F47F7F"/>
<polygon points="41.105 139.76 41.317 125.99 57.845 139.8 58.412 154.23" fill="#F47F7F"/>
<rect transform="translate(63.279 159.11) rotate(-5.31) translate(-63.279 -159.11)" x="59.493" y="155.31" width="7.5719" height="7.6027" fill="#F47F7F"/>
<polygon points="197.95 137.1 195.15 123.82 181.73 139.5 183.28 154.23" fill="#F47F7F"/>
<polygon points="199.38 139.02 213.09 139.25 199.91 155.16 184.97 156.4" fill="#F47F7F"/>
<polygon points="164.42 181.14 167.2 194.41 180.64 178.73 179.11 164" fill="#F47F7F"/>
<polygon points="161.91 180.29 148.19 180.06 161.39 164.16 176.32 162.92" fill="#F47F7F"/>
<polygon points="204.19 178.12 217.42 175.33 201.8 161.83 187.13 163.39" fill="#F47F7F"/>
<polygon points="202.28 179.55 202.06 193.33 186.21 180.09 184.97 165.09" fill="#F47F7F"/>
<polygon points="157.08 142.28 143.87 145.07 159.49 158.57 174.15 157.01" fill="#F47F7F"/>
<polygon points="159.01 139.76 159.24 125.99 175.73 139.8 176.32 154.23" fill="#F47F7F"/>
<rect transform="translate(180.11 162.37) rotate(-5.1428) translate(-180.11 -162.37)" x="176.32" y="158.57" width="7.5719" height="7.6027" fill="#F47F7F"/>
<polygon points="315.86 137.1 313.07 123.82 299.63 139.5 301.18 154.23" fill="#F47F7F"/>
<polygon points="317.29 139.02 331 139.25 317.81 155.16 302.88 156.4" fill="#F47F7F"/>
<polygon points="282.32 181.14 285.11 194.41 298.55 178.73 296.99 164" fill="#F47F7F"/>
<polygon points="279.81 180.29 266.1 180.06 279.28 164.16 294.22 162.92" fill="#F47F7F"/>
<polygon points="321.03 178.12 334.24 175.33 318.62 161.83 303.96 163.39" fill="#F47F7F"/>
<polygon points="320.18 179.55 319.95 193.33 304.11 180.09 302.88 165.09" fill="#F47F7F"/>
<polygon points="275 142.28 261.77 145.07 277.39 158.57 292.06 157.01" fill="#F47F7F"/>
<polygon points="276.91 139.76 277.13 125.99 293.65 139.8 294.22 154.23" fill="#F47F7F"/>
<rect transform="translate(298.01 159.11) rotate(-5.31) translate(-298.01 -159.11)" x="294.22" y="155.31" width="7.5719" height="7.6027" fill="#F47F7F"/>
<rect x="111.41" y="149.88" width="15.144" height="15.205" fill="#F47F7F"/>
<rect x="233.65" y="149.88" width="15.144" height="15.205" fill="#F47F7F"/>
<rect x="352.63" y="149.88" width="15.144" height="15.205" fill="#F47F7F"/>
<polygon points="80.046 255.47 77.26 242.2 63.82 257.89 65.358 272.61" fill="#F47F7F"/>
<polygon points="81.473 257.41 95.189 257.62 81.988 273.54 67.065 274.78" fill="#F47F7F"/>
<polygon points="46.513 299.51 49.296 312.8 62.738 297.11 61.185 282.39" fill="#F47F7F"/>
<polygon points="44.004 298.68 30.288 298.47 43.471 282.55 58.412 281.3" fill="#F47F7F"/>
<polygon points="86.301 296.51 99.516 293.71 83.892 280.22 69.229 281.78" fill="#F47F7F"/>
<polygon points="84.372 297.95 84.142 311.71 68.304 298.47 67.065 283.47" fill="#F47F7F"/>
<polygon points="39.193 260.67 25.961 263.46 41.585 276.96 56.248 275.41" fill="#F47F7F"/>
<polygon points="41.105 258.15 41.317 244.37 57.845 258.18 58.412 272.61" fill="#F47F7F"/>
<rect transform="translate(63.279 277.5) rotate(-5.31) translate(-63.279 -277.5)" x="59.493" y="273.7" width="7.5719" height="7.6027" fill="#F47F7F"/>
<polygon points="197.95 255.47 195.15 242.2 181.73 257.89 183.28 272.61" fill="#F47F7F"/>
<polygon points="199.38 257.41 213.09 257.62 199.91 273.54 184.97 274.78" fill="#F47F7F"/>
<polygon points="164.42 299.51 167.2 312.8 180.64 297.11 179.11 282.39" fill="#F47F7F"/>
<polygon points="161.91 298.68 148.19 298.47 161.39 282.55 176.32 281.3" fill="#F47F7F"/>
<polygon points="204.19 296.51 217.42 293.71 201.8 280.22 187.13 281.78" fill="#F47F7F"/>
<polygon points="202.28 297.95 202.06 311.71 186.21 298.47 184.97 283.47" fill="#F47F7F"/>
<polygon points="157.08 260.67 143.87 263.46 159.49 276.96 174.15 275.41" fill="#F47F7F"/>
<polygon points="159.01 258.15 159.24 244.37 175.73 258.18 176.32 272.61" fill="#F47F7F"/>
<rect transform="translate(180.11 280.76) rotate(-5.1428) translate(-180.11 -280.76)" x="176.32" y="276.96" width="7.5719" height="7.6027" fill="#F47F7F"/>
<polygon points="315.86 255.47 313.07 242.2 299.63 257.89 301.18 272.61" fill="#F47F7F"/>
<polygon points="317.29 257.41 331 257.62 317.81 273.54 302.88 274.78" fill="#F47F7F"/>
<polygon points="282.32 299.51 285.11 312.8 298.55 297.11 296.99 282.39" fill="#F47F7F"/>
<polygon points="279.81 298.68 266.1 298.47 279.28 282.55 294.22 281.3" fill="#F47F7F"/>
<polygon points="321.03 296.51 334.24 293.71 318.62 280.22 303.96 281.78" fill="#F47F7F"/>
<polygon points="320.18 297.95 319.95 311.71 304.11 298.47 302.88 283.47" fill="#F47F7F"/>
<polygon points="275 260.67 261.77 263.46 277.39 276.96 292.06 275.41" fill="#F47F7F"/>
<polygon points="276.91 258.15 277.13 244.37 293.65 258.18 294.22 272.61" fill="#F47F7F"/>
<rect transform="translate(298.01 277.5) rotate(-5.31) translate(-298.01 -277.5)" x="294.22" y="273.7" width="7.5719" height="7.6027" fill="#F47F7F"/>
<rect x="111.41" y="268.27" width="15.144" height="15.205" fill="#F47F7F"/>
<rect x="233.65" y="268.27" width="15.144" height="15.205" fill="#F47F7F"/>
<rect x="352.63" y="268.27" width="15.144" height="15.205" fill="#F47F7F"/>
<rect y="212.88" width="15.144" height="15.205" fill="#F47F7F"/>
<rect x="36.778" y="212.88" width="15.144" height="15.205" fill="#F47F7F"/>
<rect x="72.474" y="212.88" width="15.144" height="15.205" fill="#F47F7F"/>
<rect x="108.17" y="212.88" width="15.144" height="15.205" fill="#F47F7F"/>
<rect x="143.87" y="212.88" width="15.144" height="15.205" fill="#F47F7F"/>
<rect x="179.56" y="212.88" width="15.144" height="15.205" fill="#F47F7F"/>
<rect x="215.26" y="212.88" width="15.144" height="15.205" fill="#F47F7F"/>
<rect x="250.95" y="212.88" width="15.144" height="15.205" fill="#F47F7F"/>
<rect x="286.65" y="212.88" width="15.144" height="15.205" fill="#F47F7F"/>
<rect x="322.35" y="212.88" width="15.144" height="15.205" fill="#F47F7F"/>
<rect y="198.76" width="354.8" height="8.6888" fill="#F47F7F"/>
<rect y="231.34" width="354.8" height="8.6888" fill="#F47F7F"/>
<rect y="332.35" width="15.144" height="15.205" fill="#F47F7F"/>
<rect x="36.778" y="332.35" width="15.144" height="15.205" fill="#F47F7F"/>
<rect x="72.474" y="332.35" width="15.144" height="15.205" fill="#F47F7F"/>
<rect x="108.17" y="332.35" width="15.144" height="15.205" fill="#F47F7F"/>
<rect x="143.87" y="332.35" width="15.144" height="15.205" fill="#F47F7F"/>
<rect x="179.56" y="332.35" width="15.144" height="15.205" fill="#F47F7F"/>
<rect x="215.26" y="332.35" width="15.144" height="15.205" fill="#F47F7F"/>
<rect x="250.95" y="332.35" width="15.144" height="15.205" fill="#F47F7F"/>
<rect x="286.65" y="332.35" width="15.144" height="15.205" fill="#F47F7F"/>
<rect x="322.35" y="332.35" width="15.144" height="15.205" fill="#F47F7F"/>
<rect y="319.31" width="354.8" height="8.6888" fill="#F47F7F"/>
<rect y="350.81" width="354.8" height="8.6888" fill="#F47F7F"/>
</g>
<rect width="354.8" height="356.24" fill="#E95150"/>
<polygon points="80.046 17.613 77.26 4.3444 63.82 20.032 65.358 34.755" fill="#F47F7F"/>
<polygon points="81.473 19.55 95.189 19.781 81.988 35.684 67.065 36.928" fill="#F47F7F"/>
<polygon points="46.513 61.655 49.296 74.941 62.738 59.254 61.185 44.53" fill="#F47F7F"/>
<polygon points="44.004 60.822 30.288 60.591 43.471 44.688 58.412 43.444" fill="#F47F7F"/>
<polygon points="86.301 57.564 99.516 54.767 83.892 41.272 69.229 42.816" fill="#F47F7F"/>
<polygon points="84.372 60.092 84.142 73.855 68.304 60.609 67.065 45.616" fill="#F47F7F"/>
<polygon points="39.193 22.808 25.961 25.605 41.585 39.1 56.248 37.556" fill="#F47F7F"/>
<polygon points="41.105 20.279 41.317 6.5166 57.845 20.315 58.412 34.755" fill="#F47F7F"/>
<rect transform="translate(63.279 39.642) rotate(-5.31) translate(-63.279 -39.642)" x="59.493" y="35.841" width="7.5719" height="7.6027" fill="#F47F7F"/>
<polygon points="197.95 17.613 195.15 4.3444 181.73 20.032 183.28 34.755" fill="#F47F7F"/>
<polygon points="199.38 19.55 213.09 19.781 199.91 35.684 184.97 36.928" fill="#F47F7F"/>
<polygon points="164.42 61.655 167.2 74.941 180.64 59.254 179.11 44.53" fill="#F47F7F"/>
<polygon points="161.91 60.822 148.19 60.591 161.39 44.688 176.32 43.444" fill="#F47F7F"/>
<polygon points="204.19 57.564 217.42 54.767 201.8 41.272 187.13 42.816" fill="#F47F7F"/>
<polygon points="202.28 60.092 202.06 73.855 186.21 60.609 184.97 45.616" fill="#F47F7F"/>
<polygon points="157.08 22.808 143.87 25.605 159.49 39.1 174.15 37.556" fill="#F47F7F"/>
<polygon points="159.01 20.279 159.24 6.5166 175.73 20.315 176.32 34.755" fill="#F47F7F"/>
<rect transform="translate(181.19 39.642) rotate(-5.31) translate(-181.19 -39.642)" x="177.4" y="35.84" width="7.5719" height="7.6027" fill="#F47F7F"/>
<polygon points="315.86 17.613 313.07 4.3444 299.63 20.032 301.18 34.755" fill="#F47F7F"/>
<polygon points="317.29 19.55 331 19.781 317.81 35.684 302.88 36.928" fill="#F47F7F"/>
<polygon points="282.32 61.655 285.11 74.941 298.55 59.254 296.99 44.53" fill="#F47F7F"/>
<polygon points="279.81 60.822 266.1 60.591 279.28 44.688 294.22 43.444" fill="#F47F7F"/>
<polygon points="321.03 57.564 334.24 54.767 318.62 41.272 303.96 42.816" fill="#F47F7F"/>
<polygon points="320.18 60.092 319.95 73.855 304.11 60.609 302.88 45.616" fill="#F47F7F"/>
<polygon points="275 22.808 261.77 25.605 277.39 39.1 292.06 37.556" fill="#F47F7F"/>
<polygon points="276.91 20.279 277.13 6.5166 293.65 20.315 294.22 34.755" fill="#F47F7F"/>
<rect transform="translate(298.01 39.643) rotate(-5.31) translate(-298.01 -39.643)" x="294.22" y="35.841" width="7.5719" height="7.6027" fill="#F47F7F"/>
<rect x="111.41" y="30.411" width="15.144" height="15.205" fill="#F47F7F"/>
<rect x="233.65" y="30.411" width="15.144" height="15.205" fill="#F47F7F"/>
<rect x="352.63" y="30.411" width="15.144" height="15.205" fill="#F47F7F"/>
<rect y="92.319" width="15.144" height="15.205" fill="#F47F7F"/>
<rect x="36.778" y="92.319" width="15.144" height="15.205" fill="#F47F7F"/>
<rect x="72.474" y="92.319" width="15.144" height="15.205" fill="#F47F7F"/>
<rect x="108.17" y="92.319" width="15.144" height="15.205" fill="#F47F7F"/>
<rect x="143.87" y="92.319" width="15.144" height="15.205" fill="#F47F7F"/>
<rect x="179.56" y="92.319" width="15.144" height="15.205" fill="#F47F7F"/>
<rect x="215.26" y="92.319" width="15.144" height="15.205" fill="#F47F7F"/>
<rect x="250.95" y="92.319" width="15.144" height="15.205" fill="#F47F7F"/>
<rect x="286.65" y="92.319" width="15.144" height="15.205" fill="#F47F7F"/>
<rect x="322.35" y="92.319" width="15.144" height="15.205" fill="#F47F7F"/>
<rect y="79.286" width="354.8" height="8.6888" fill="#F47F7F"/>
<rect y="110.78" width="354.8" height="8.6888" fill="#F47F7F"/>
<polygon points="80.046 137.1 77.26 123.82 63.82 139.5 65.358 154.23" fill="#F47F7F"/>
<polygon points="81.473 139.02 95.189 139.25 81.988 155.16 67.065 156.4" fill="#F47F7F"/>
<polygon points="46.513 181.14 49.296 194.41 62.738 178.73 61.185 164" fill="#F47F7F"/>
<polygon points="44.004 180.29 30.288 180.06 43.471 164.16 58.412 162.92" fill="#F47F7F"/>
<polygon points="86.301 178.12 99.516 175.33 83.892 161.83 69.229 163.39" fill="#F47F7F"/>
<polygon points="84.372 179.55 84.142 193.33 68.304 180.09 67.065 165.09" fill="#F47F7F"/>
<polygon points="39.193 142.28 25.961 145.07 41.585 158.57 56.248 157.01" fill="#F47F7F"/>
<polygon points="41.105 139.76 41.317 125.99 57.845 139.8 58.412 154.23" fill="#F47F7F"/>
<rect transform="translate(63.279 159.11) rotate(-5.31) translate(-63.279 -159.11)" x="59.493" y="155.31" width="7.5719" height="7.6027" fill="#F47F7F"/>
<polygon points="197.95 137.1 195.15 123.82 181.73 139.5 183.28 154.23" fill="#F47F7F"/>
<polygon points="199.38 139.02 213.09 139.25 199.91 155.16 184.97 156.4" fill="#F47F7F"/>
<polygon points="164.42 181.14 167.2 194.41 180.64 178.73 179.11 164" fill="#F47F7F"/>
<polygon points="161.91 180.29 148.19 180.06 161.39 164.16 176.32 162.92" fill="#F47F7F"/>
<polygon points="204.19 178.12 217.42 175.33 201.8 161.83 187.13 163.39" fill="#F47F7F"/>
<polygon points="202.28 179.55 202.06 193.33 186.21 180.09 184.97 165.09" fill="#F47F7F"/>
<polygon points="157.08 142.28 143.87 145.07 159.49 158.57 174.15 157.01" fill="#F47F7F"/>
<polygon points="159.01 139.76 159.24 125.99 175.73 139.8 176.32 154.23" fill="#F47F7F"/>
<rect transform="translate(180.11 162.37) rotate(-5.1428) translate(-180.11 -162.37)" x="176.32" y="158.57" width="7.5719" height="7.6027" fill="#F47F7F"/>
<polygon points="315.86 137.1 313.07 123.82 299.63 139.5 301.18 154.23" fill="#F47F7F"/>
<polygon points="317.29 139.02 331 139.25 317.81 155.16 302.88 156.4" fill="#F47F7F"/>
<polygon points="282.32 181.14 285.11 194.41 298.55 178.73 296.99 164" fill="#F47F7F"/>
<polygon points="279.81 180.29 266.1 180.06 279.28 164.16 294.22 162.92" fill="#F47F7F"/>
<polygon points="321.03 178.12 334.24 175.33 318.62 161.83 303.96 163.39" fill="#F47F7F"/>
<polygon points="320.18 179.55 319.95 193.33 304.11 180.09 302.88 165.09" fill="#F47F7F"/>
<polygon points="275 142.28 261.77 145.07 277.39 158.57 292.06 157.01" fill="#F47F7F"/>
<polygon points="276.91 139.76 277.13 125.99 293.65 139.8 294.22 154.23" fill="#F47F7F"/>
<rect transform="translate(298.01 159.11) rotate(-5.31) translate(-298.01 -159.11)" x="294.22" y="155.31" width="7.5719" height="7.6027" fill="#F47F7F"/>
<rect x="111.41" y="149.88" width="15.144" height="15.205" fill="#F47F7F"/>
<rect x="233.65" y="149.88" width="15.144" height="15.205" fill="#F47F7F"/>
<rect x="352.63" y="149.88" width="15.144" height="15.205" fill="#F47F7F"/>
<polygon points="80.046 255.47 77.26 242.2 63.82 257.89 65.358 272.61" fill="#F47F7F"/>
<polygon points="81.473 257.41 95.189 257.62 81.988 273.54 67.065 274.78" fill="#F47F7F"/>
<polygon points="46.513 299.51 49.296 312.8 62.738 297.11 61.185 282.39" fill="#F47F7F"/>
<polygon points="44.004 298.68 30.288 298.47 43.471 282.55 58.412 281.3" fill="#F47F7F"/>
<polygon points="86.301 296.51 99.516 293.71 83.892 280.22 69.229 281.78" fill="#F47F7F"/>
<polygon points="84.372 297.95 84.142 311.71 68.304 298.47 67.065 283.47" fill="#F47F7F"/>
<polygon points="39.193 260.67 25.961 263.46 41.585 276.96 56.248 275.41" fill="#F47F7F"/>
<polygon points="41.105 258.15 41.317 244.37 57.845 258.18 58.412 272.61" fill="#F47F7F"/>
<rect transform="translate(63.279 277.5) rotate(-5.31) translate(-63.279 -277.5)" x="59.493" y="273.7" width="7.5719" height="7.6027" fill="#F47F7F"/>
<polygon points="197.95 255.47 195.15 242.2 181.73 257.89 183.28 272.61" fill="#F47F7F"/>
<polygon points="199.38 257.41 213.09 257.62 199.91 273.54 184.97 274.78" fill="#F47F7F"/>
<polygon points="164.42 299.51 167.2 312.8 180.64 297.11 179.11 282.39" fill="#F47F7F"/>
<polygon points="161.91 298.68 148.19 298.47 161.39 282.55 176.32 281.3" fill="#F47F7F"/>
<polygon points="204.19 296.51 217.42 293.71 201.8 280.22 187.13 281.78" fill="#F47F7F"/>
<polygon points="202.28 297.95 202.06 311.71 186.21 298.47 184.97 283.47" fill="#F47F7F"/>
<polygon points="157.08 260.67 143.87 263.46 159.49 276.96 174.15 275.41" fill="#F47F7F"/>
<polygon points="159.01 258.15 159.24 244.37 175.73 258.18 176.32 272.61" fill="#F47F7F"/>
<rect transform="translate(180.11 280.76) rotate(-5.1428) translate(-180.11 -280.76)" x="176.32" y="276.96" width="7.5719" height="7.6027" fill="#F47F7F"/>
<polygon points="315.86 255.47 313.07 242.2 299.63 257.89 301.18 272.61" fill="#F47F7F"/>
<polygon points="317.29 257.41 331 257.62 317.81 273.54 302.88 274.78" fill="#F47F7F"/>
<polygon points="282.32 299.51 285.11 312.8 298.55 297.11 296.99 282.39" fill="#F47F7F"/>
<polygon points="279.81 298.68 266.1 298.47 279.28 282.55 294.22 281.3" fill="#F47F7F"/>
<polygon points="321.03 296.51 334.24 293.71 318.62 280.22 303.96 281.78" fill="#F47F7F"/>
<polygon points="320.18 297.95 319.95 311.71 304.11 298.47 302.88 283.47" fill="#F47F7F"/>
<polygon points="275 260.67 261.77 263.46 277.39 276.96 292.06 275.41" fill="#F47F7F"/>
<polygon points="276.91 258.15 277.13 244.37 293.65 258.18 294.22 272.61" fill="#F47F7F"/>
<rect transform="translate(298.01 277.5) rotate(-5.31) translate(-298.01 -277.5)" x="294.22" y="273.7" width="7.5719" height="7.6027" fill="#F47F7F"/>
<rect x="111.41" y="268.27" width="15.144" height="15.205" fill="#F47F7F"/>
<rect x="233.65" y="268.27" width="15.144" height="15.205" fill="#F47F7F"/>
<rect x="352.63" y="268.27" width="15.144" height="15.205" fill="#F47F7F"/>
<rect y="212.88" width="15.144" height="15.205" fill="#F47F7F"/>
<rect x="36.778" y="212.88" width="15.144" height="15.205" fill="#F47F7F"/>
<rect x="72.474" y="212.88" width="15.144" height="15.205" fill="#F47F7F"/>
<rect x="108.17" y="212.88" width="15.144" height="15.205" fill="#F47F7F"/>
<rect x="143.87" y="212.88" width="15.144" height="15.205" fill="#F47F7F"/>
<rect x="179.56" y="212.88" width="15.144" height="15.205" fill="#F47F7F"/>
<rect x="215.26" y="212.88" width="15.144" height="15.205" fill="#F47F7F"/>
<rect x="250.95" y="212.88" width="15.144" height="15.205" fill="#F47F7F"/>
<rect x="286.65" y="212.88" width="15.144" height="15.205" fill="#F47F7F"/>
<rect x="322.35" y="212.88" width="15.144" height="15.205" fill="#F47F7F"/>
<rect y="198.76" width="354.8" height="8.6888" fill="#F47F7F"/>
<rect y="231.34" width="354.8" height="8.6888" fill="#F47F7F"/>
<rect y="332.35" width="15.144" height="15.205" fill="#F47F7F"/>
<rect x="36.778" y="332.35" width="15.144" height="15.205" fill="#F47F7F"/>
<rect x="72.474" y="332.35" width="15.144" height="15.205" fill="#F47F7F"/>
<rect x="108.17" y="332.35" width="15.144" height="15.205" fill="#F47F7F"/>
<rect x="143.87" y="332.35" width="15.144" height="15.205" fill="#F47F7F"/>
<rect x="179.56" y="332.35" width="15.144" height="15.205" fill="#F47F7F"/>
<rect x="215.26" y="332.35" width="15.144" height="15.205" fill="#F47F7F"/>
<rect x="250.95" y="332.35" width="15.144" height="15.205" fill="#F47F7F"/>
<rect x="286.65" y="332.35" width="15.144" height="15.205" fill="#F47F7F"/>
<rect x="322.35" y="332.35" width="15.144" height="15.205" fill="#F47F7F"/>
<rect y="319.31" width="354.8" height="8.6888" fill="#F47F7F"/>
<rect y="350.81" width="354.8" height="8.6888" fill="#F47F7F"/>
</g>
<g transform="translate(0 359.5)">
<rect width="354.8" height="356.24" fill="#E95150"/>
<polygon points="80.046 17.613 77.26 4.3444 63.82 20.032 65.358 34.755" fill="#F47F7F"/>
<polygon points="81.473 19.55 95.189 19.781 81.988 35.684 67.065 36.928" fill="#F47F7F"/>
<polygon points="46.513 61.655 49.296 74.941 62.738 59.254 61.185 44.53" fill="#F47F7F"/>
<polygon points="44.004 60.822 30.288 60.591 43.471 44.688 58.412 43.444" fill="#F47F7F"/>
<polygon points="86.301 57.564 99.516 54.767 83.892 41.272 69.229 42.816" fill="#F47F7F"/>
<polygon points="84.372 60.092 84.142 73.855 68.304 60.609 67.065 45.616" fill="#F47F7F"/>
<polygon points="39.193 22.808 25.961 25.605 41.585 39.1 56.248 37.556" fill="#F47F7F"/>
<polygon points="41.105 20.279 41.317 6.5166 57.845 20.315 58.412 34.755" fill="#F47F7F"/>
<rect transform="translate(63.279 39.642) rotate(-5.31) translate(-63.279 -39.642)" x="59.493" y="35.841" width="7.5719" height="7.6027" fill="#F47F7F"/>
<polygon points="197.95 17.613 195.15 4.3444 181.73 20.032 183.28 34.755" fill="#F47F7F"/>
<polygon points="199.38 19.55 213.09 19.781 199.91 35.684 184.97 36.928" fill="#F47F7F"/>
<polygon points="164.42 61.655 167.2 74.941 180.64 59.254 179.11 44.53" fill="#F47F7F"/>
<polygon points="161.91 60.822 148.19 60.591 161.39 44.688 176.32 43.444" fill="#F47F7F"/>
<polygon points="204.19 57.564 217.42 54.767 201.8 41.272 187.13 42.816" fill="#F47F7F"/>
<polygon points="202.28 60.092 202.06 73.855 186.21 60.609 184.97 45.616" fill="#F47F7F"/>
<polygon points="157.08 22.808 143.87 25.605 159.49 39.1 174.15 37.556" fill="#F47F7F"/>
<polygon points="159.01 20.279 159.24 6.5166 175.73 20.315 176.32 34.755" fill="#F47F7F"/>
<rect transform="translate(181.19 39.642) rotate(-5.31) translate(-181.19 -39.642)" x="177.4" y="35.84" width="7.5719" height="7.6027" fill="#F47F7F"/>
<polygon points="315.86 17.613 313.07 4.3444 299.63 20.032 301.18 34.755" fill="#F47F7F"/>
<polygon points="317.29 19.55 331 19.781 317.81 35.684 302.88 36.928" fill="#F47F7F"/>
<polygon points="282.32 61.655 285.11 74.941 298.55 59.254 296.99 44.53" fill="#F47F7F"/>
<polygon points="279.81 60.822 266.1 60.591 279.28 44.688 294.22 43.444" fill="#F47F7F"/>
<polygon points="321.03 57.564 334.24 54.767 318.62 41.272 303.96 42.816" fill="#F47F7F"/>
<polygon points="320.18 60.092 319.95 73.855 304.11 60.609 302.88 45.616" fill="#F47F7F"/>
<polygon points="275 22.808 261.77 25.605 277.39 39.1 292.06 37.556" fill="#F47F7F"/>
<polygon points="276.91 20.279 277.13 6.5166 293.65 20.315 294.22 34.755" fill="#F47F7F"/>
<rect transform="translate(298.01 39.643) rotate(-5.31) translate(-298.01 -39.643)" x="294.22" y="35.841" width="7.5719" height="7.6027" fill="#F47F7F"/>
<rect x="111.41" y="30.411" width="15.144" height="15.205" fill="#F47F7F"/>
<rect x="233.65" y="30.411" width="15.144" height="15.205" fill="#F47F7F"/>
<rect x="352.63" y="30.411" width="15.144" height="15.205" fill="#F47F7F"/>
<rect y="92.319" width="15.144" height="15.205" fill="#F47F7F"/>
<rect x="36.778" y="92.319" width="15.144" height="15.205" fill="#F47F7F"/>
<rect x="72.474" y="92.319" width="15.144" height="15.205" fill="#F47F7F"/>
<rect x="108.17" y="92.319" width="15.144" height="15.205" fill="#F47F7F"/>
<rect x="143.87" y="92.319" width="15.144" height="15.205" fill="#F47F7F"/>
<rect x="179.56" y="92.319" width="15.144" height="15.205" fill="#F47F7F"/>
<rect x="215.26" y="92.319" width="15.144" height="15.205" fill="#F47F7F"/>
<rect x="250.95" y="92.319" width="15.144" height="15.205" fill="#F47F7F"/>
<rect x="286.65" y="92.319" width="15.144" height="15.205" fill="#F47F7F"/>
<rect x="322.35" y="92.319" width="15.144" height="15.205" fill="#F47F7F"/>
<rect y="79.286" width="354.8" height="8.6888" fill="#F47F7F"/>
<rect y="110.78" width="354.8" height="8.6888" fill="#F47F7F"/>
<polygon points="80.046 137.1 77.26 123.82 63.82 139.5 65.358 154.23" fill="#F47F7F"/>
<polygon points="81.473 139.02 95.189 139.25 81.988 155.16 67.065 156.4" fill="#F47F7F"/>
<polygon points="46.513 181.14 49.296 194.41 62.738 178.73 61.185 164" fill="#F47F7F"/>
<polygon points="44.004 180.29 30.288 180.06 43.471 164.16 58.412 162.92" fill="#F47F7F"/>
<polygon points="86.301 178.12 99.516 175.33 83.892 161.83 69.229 163.39" fill="#F47F7F"/>
<polygon points="84.372 179.55 84.142 193.33 68.304 180.09 67.065 165.09" fill="#F47F7F"/>
<polygon points="39.193 142.28 25.961 145.07 41.585 158.57 56.248 157.01" fill="#F47F7F"/>
<polygon points="41.105 139.76 41.317 125.99 57.845 139.8 58.412 154.23" fill="#F47F7F"/>
<rect transform="translate(63.279 159.11) rotate(-5.31) translate(-63.279 -159.11)" x="59.493" y="155.31" width="7.5719" height="7.6027" fill="#F47F7F"/>
<polygon points="197.95 137.1 195.15 123.82 181.73 139.5 183.28 154.23" fill="#F47F7F"/>
<polygon points="199.38 139.02 213.09 139.25 199.91 155.16 184.97 156.4" fill="#F47F7F"/>
<polygon points="164.42 181.14 167.2 194.41 180.64 178.73 179.11 164" fill="#F47F7F"/>
<polygon points="161.91 180.29 148.19 180.06 161.39 164.16 176.32 162.92" fill="#F47F7F"/>
<polygon points="204.19 178.12 217.42 175.33 201.8 161.83 187.13 163.39" fill="#F47F7F"/>
<polygon points="202.28 179.55 202.06 193.33 186.21 180.09 184.97 165.09" fill="#F47F7F"/>
<polygon points="157.08 142.28 143.87 145.07 159.49 158.57 174.15 157.01" fill="#F47F7F"/>
<polygon points="159.01 139.76 159.24 125.99 175.73 139.8 176.32 154.23" fill="#F47F7F"/>
<rect transform="translate(180.11 162.37) rotate(-5.1428) translate(-180.11 -162.37)" x="176.32" y="158.57" width="7.5719" height="7.6027" fill="#F47F7F"/>
<polygon points="315.86 137.1 313.07 123.82 299.63 139.5 301.18 154.23" fill="#F47F7F"/>
<polygon points="317.29 139.02 331 139.25 317.81 155.16 302.88 156.4" fill="#F47F7F"/>
<polygon points="282.32 181.14 285.11 194.41 298.55 178.73 296.99 164" fill="#F47F7F"/>
<polygon points="279.81 180.29 266.1 180.06 279.28 164.16 294.22 162.92" fill="#F47F7F"/>
<polygon points="321.03 178.12 334.24 175.33 318.62 161.83 303.96 163.39" fill="#F47F7F"/>
<polygon points="320.18 179.55 319.95 193.33 304.11 180.09 302.88 165.09" fill="#F47F7F"/>
<polygon points="275 142.28 261.77 145.07 277.39 158.57 292.06 157.01" fill="#F47F7F"/>
<polygon points="276.91 139.76 277.13 125.99 293.65 139.8 294.22 154.23" fill="#F47F7F"/>
<rect transform="translate(298.01 159.11) rotate(-5.31) translate(-298.01 -159.11)" x="294.22" y="155.31" width="7.5719" height="7.6027" fill="#F47F7F"/>
<rect x="111.41" y="149.88" width="15.144" height="15.205" fill="#F47F7F"/>
<rect x="233.65" y="149.88" width="15.144" height="15.205" fill="#F47F7F"/>
<rect x="352.63" y="149.88" width="15.144" height="15.205" fill="#F47F7F"/>
<polygon points="80.046 255.47 77.26 242.2 63.82 257.89 65.358 272.61" fill="#F47F7F"/>
<polygon points="81.473 257.41 95.189 257.62 81.988 273.54 67.065 274.78" fill="#F47F7F"/>
<polygon points="46.513 299.51 49.296 312.8 62.738 297.11 61.185 282.39" fill="#F47F7F"/>
<polygon points="44.004 298.68 30.288 298.47 43.471 282.55 58.412 281.3" fill="#F47F7F"/>
<polygon points="86.301 296.51 99.516 293.71 83.892 280.22 69.229 281.78" fill="#F47F7F"/>
<polygon points="84.372 297.95 84.142 311.71 68.304 298.47 67.065 283.47" fill="#F47F7F"/>
<polygon points="39.193 260.67 25.961 263.46 41.585 276.96 56.248 275.41" fill="#F47F7F"/>
<polygon points="41.105 258.15 41.317 244.37 57.845 258.18 58.412 272.61" fill="#F47F7F"/>
<rect transform="translate(63.279 277.5) rotate(-5.31) translate(-63.279 -277.5)" x="59.493" y="273.7" width="7.5719" height="7.6027" fill="#F47F7F"/>
<polygon points="197.95 255.47 195.15 242.2 181.73 257.89 183.28 272.61" fill="#F47F7F"/>
<polygon points="199.38 257.41 213.09 257.62 199.91 273.54 184.97 274.78" fill="#F47F7F"/>
<polygon points="164.42 299.51 167.2 312.8 180.64 297.11 179.11 282.39" fill="#F47F7F"/>
<polygon points="161.91 298.68 148.19 298.47 161.39 282.55 176.32 281.3" fill="#F47F7F"/>
<polygon points="204.19 296.51 217.42 293.71 201.8 280.22 187.13 281.78" fill="#F47F7F"/>
<polygon points="202.28 297.95 202.06 311.71 186.21 298.47 184.97 283.47" fill="#F47F7F"/>
<polygon points="157.08 260.67 143.87 263.46 159.49 276.96 174.15 275.41" fill="#F47F7F"/>
<polygon points="159.01 258.15 159.24 244.37 175.73 258.18 176.32 272.61" fill="#F47F7F"/>
<rect transform="translate(180.11 280.76) rotate(-5.1428) translate(-180.11 -280.76)" x="176.32" y="276.96" width="7.5719" height="7.6027" fill="#F47F7F"/>
<polygon points="315.86 255.47 313.07 242.2 299.63 257.89 301.18 272.61" fill="#F47F7F"/>
<polygon points="317.29 257.41 331 257.62 317.81 273.54 302.88 274.78" fill="#F47F7F"/>
<polygon points="282.32 299.51 285.11 312.8 298.55 297.11 296.99 282.39" fill="#F47F7F"/>
<polygon points="279.81 298.68 266.1 298.47 279.28 282.55 294.22 281.3" fill="#F47F7F"/>
<polygon points="321.03 296.51 334.24 293.71 318.62 280.22 303.96 281.78" fill="#F47F7F"/>
<polygon points="320.18 297.95 319.95 311.71 304.11 298.47 302.88 283.47" fill="#F47F7F"/>
<polygon points="275 260.67 261.77 263.46 277.39 276.96 292.06 275.41" fill="#F47F7F"/>
<polygon points="276.91 258.15 277.13 244.37 293.65 258.18 294.22 272.61" fill="#F47F7F"/>
<rect transform="translate(298.01 277.5) rotate(-5.31) translate(-298.01 -277.5)" x="294.22" y="273.7" width="7.5719" height="7.6027" fill="#F47F7F"/>
<rect x="111.41" y="268.27" width="15.144" height="15.205" fill="#F47F7F"/>
<rect x="233.65" y="268.27" width="15.144" height="15.205" fill="#F47F7F"/>
<rect x="352.63" y="268.27" width="15.144" height="15.205" fill="#F47F7F"/>
<rect y="212.88" width="15.144" height="15.205" fill="#F47F7F"/>
<rect x="36.778" y="212.88" width="15.144" height="15.205" fill="#F47F7F"/>
<rect x="72.474" y="212.88" width="15.144" height="15.205" fill="#F47F7F"/>
<rect x="108.17" y="212.88" width="15.144" height="15.205" fill="#F47F7F"/>
<rect x="143.87" y="212.88" width="15.144" height="15.205" fill="#F47F7F"/>
<rect x="179.56" y="212.88" width="15.144" height="15.205" fill="#F47F7F"/>
<rect x="215.26" y="212.88" width="15.144" height="15.205" fill="#F47F7F"/>
<rect x="250.95" y="212.88" width="15.144" height="15.205" fill="#F47F7F"/>
<rect x="286.65" y="212.88" width="15.144" height="15.205" fill="#F47F7F"/>
<rect x="322.35" y="212.88" width="15.144" height="15.205" fill="#F47F7F"/>
<rect y="198.76" width="354.8" height="8.6888" fill="#F47F7F"/>
<rect y="231.34" width="354.8" height="8.6888" fill="#F47F7F"/>
<rect y="332.35" width="15.144" height="15.205" fill="#F47F7F"/>
<rect x="36.778" y="332.35" width="15.144" height="15.205" fill="#F47F7F"/>
<rect x="72.474" y="332.35" width="15.144" height="15.205" fill="#F47F7F"/>
<rect x="108.17" y="332.35" width="15.144" height="15.205" fill="#F47F7F"/>
<rect x="143.87" y="332.35" width="15.144" height="15.205" fill="#F47F7F"/>
<rect x="179.56" y="332.35" width="15.144" height="15.205" fill="#F47F7F"/>
<rect x="215.26" y="332.35" width="15.144" height="15.205" fill="#F47F7F"/>
<rect x="250.95" y="332.35" width="15.144" height="15.205" fill="#F47F7F"/>
<rect x="286.65" y="332.35" width="15.144" height="15.205" fill="#F47F7F"/>
<rect x="322.35" y="332.35" width="15.144" height="15.205" fill="#F47F7F"/>
<rect y="319.31" width="354.8" height="8.6888" fill="#F47F7F"/>
<rect y="350.81" width="354.8" height="8.6888" fill="#F47F7F"/>
</g>
<rect width="354.8" height="356.24" fill="#E95150"/>
<polygon points="80.046 17.613 77.26 4.3444 63.82 20.032 65.358 34.755" fill="#F47F7F"/>
<polygon points="81.473 19.55 95.189 19.781 81.988 35.684 67.065 36.928" fill="#F47F7F"/>
<polygon points="46.513 61.655 49.296 74.941 62.738 59.254 61.185 44.53" fill="#F47F7F"/>
<polygon points="44.004 60.822 30.288 60.591 43.471 44.688 58.412 43.444" fill="#F47F7F"/>
<polygon points="86.301 57.564 99.516 54.767 83.892 41.272 69.229 42.816" fill="#F47F7F"/>
<polygon points="84.372 60.092 84.142 73.855 68.304 60.609 67.065 45.616" fill="#F47F7F"/>
<polygon points="39.193 22.808 25.961 25.605 41.585 39.1 56.248 37.556" fill="#F47F7F"/>
<polygon points="41.105 20.279 41.317 6.5166 57.845 20.315 58.412 34.755" fill="#F47F7F"/>
<rect transform="translate(63.279 39.642) rotate(-5.31) translate(-63.279 -39.642)" x="59.493" y="35.841" width="7.5719" height="7.6027" fill="#F47F7F"/>
<polygon points="197.95 17.613 195.15 4.3444 181.73 20.032 183.28 34.755" fill="#F47F7F"/>
<polygon points="199.38 19.55 213.09 19.781 199.91 35.684 184.97 36.928" fill="#F47F7F"/>
<polygon points="164.42 61.655 167.2 74.941 180.64 59.254 179.11 44.53" fill="#F47F7F"/>
<polygon points="161.91 60.822 148.19 60.591 161.39 44.688 176.32 43.444" fill="#F47F7F"/>
<polygon points="204.19 57.564 217.42 54.767 201.8 41.272 187.13 42.816" fill="#F47F7F"/>
<polygon points="202.28 60.092 202.06 73.855 186.21 60.609 184.97 45.616" fill="#F47F7F"/>
<polygon points="157.08 22.808 143.87 25.605 159.49 39.1 174.15 37.556" fill="#F47F7F"/>
<polygon points="159.01 20.279 159.24 6.5166 175.73 20.315 176.32 34.755" fill="#F47F7F"/>
<rect transform="translate(181.19 39.642) rotate(-5.31) translate(-181.19 -39.642)" x="177.4" y="35.84" width="7.5719" height="7.6027" fill="#F47F7F"/>
<polygon points="315.86 17.613 313.07 4.3444 299.63 20.032 301.18 34.755" fill="#F47F7F"/>
<polygon points="317.29 19.55 331 19.781 317.81 35.684 302.88 36.928" fill="#F47F7F"/>
<polygon points="282.32 61.655 285.11 74.941 298.55 59.254 296.99 44.53" fill="#F47F7F"/>
<polygon points="279.81 60.822 266.1 60.591 279.28 44.688 294.22 43.444" fill="#F47F7F"/>
<polygon points="321.03 57.564 334.24 54.767 318.62 41.272 303.96 42.816" fill="#F47F7F"/>
<polygon points="320.18 60.092 319.95 73.855 304.11 60.609 302.88 45.616" fill="#F47F7F"/>
<polygon points="275 22.808 261.77 25.605 277.39 39.1 292.06 37.556" fill="#F47F7F"/>
<polygon points="276.91 20.279 277.13 6.5166 293.65 20.315 294.22 34.755" fill="#F47F7F"/>
<rect transform="translate(298.01 39.643) rotate(-5.31) translate(-298.01 -39.643)" x="294.22" y="35.841" width="7.5719" height="7.6027" fill="#F47F7F"/>
<rect x="111.41" y="30.411" width="15.144" height="15.205" fill="#F47F7F"/>
<rect x="233.65" y="30.411" width="15.144" height="15.205" fill="#F47F7F"/>
<rect x="352.63" y="30.411" width="15.144" height="15.205" fill="#F47F7F"/>
<rect y="92.319" width="15.144" height="15.205" fill="#F47F7F"/>
<rect x="36.778" y="92.319" width="15.144" height="15.205" fill="#F47F7F"/>
<rect x="72.474" y="92.319" width="15.144" height="15.205" fill="#F47F7F"/>
<rect x="108.17" y="92.319" width="15.144" height="15.205" fill="#F47F7F"/>
<rect x="143.87" y="92.319" width="15.144" height="15.205" fill="#F47F7F"/>
<rect x="179.56" y="92.319" width="15.144" height="15.205" fill="#F47F7F"/>
<rect x="215.26" y="92.319" width="15.144" height="15.205" fill="#F47F7F"/>
<rect x="250.95" y="92.319" width="15.144" height="15.205" fill="#F47F7F"/>
<rect x="286.65" y="92.319" width="15.144" height="15.205" fill="#F47F7F"/>
<rect x="322.35" y="92.319" width="15.144" height="15.205" fill="#F47F7F"/>
<rect y="79.286" width="354.8" height="8.6888" fill="#F47F7F"/>
<rect y="110.78" width="354.8" height="8.6888" fill="#F47F7F"/>
<polygon points="80.046 137.1 77.26 123.82 63.82 139.5 65.358 154.23" fill="#F47F7F"/>
<polygon points="81.473 139.02 95.189 139.25 81.988 155.16 67.065 156.4" fill="#F47F7F"/>
<polygon points="46.513 181.14 49.296 194.41 62.738 178.73 61.185 164" fill="#F47F7F"/>
<polygon points="44.004 180.29 30.288 180.06 43.471 164.16 58.412 162.92" fill="#F47F7F"/>
<polygon points="86.301 178.12 99.516 175.33 83.892 161.83 69.229 163.39" fill="#F47F7F"/>
<polygon points="84.372 179.55 84.142 193.33 68.304 180.09 67.065 165.09" fill="#F47F7F"/>
<polygon points="39.193 142.28 25.961 145.07 41.585 158.57 56.248 157.01" fill="#F47F7F"/>
<polygon points="41.105 139.76 41.317 125.99 57.845 139.8 58.412 154.23" fill="#F47F7F"/>
<rect transform="translate(63.279 159.11) rotate(-5.31) translate(-63.279 -159.11)" x="59.493" y="155.31" width="7.5719" height="7.6027" fill="#F47F7F"/>
<polygon points="197.95 137.1 195.15 123.82 181.73 139.5 183.28 154.23" fill="#F47F7F"/>
<polygon points="199.38 139.02 213.09 139.25 199.91 155.16 184.97 156.4" fill="#F47F7F"/>
<polygon points="164.42 181.14 167.2 194.41 180.64 178.73 179.11 164" fill="#F47F7F"/>
<polygon points="161.91 180.29 148.19 180.06 161.39 164.16 176.32 162.92" fill="#F47F7F"/>
<polygon points="204.19 178.12 217.42 175.33 201.8 161.83 187.13 163.39" fill="#F47F7F"/>
<polygon points="202.28 179.55 202.06 193.33 186.21 180.09 184.97 165.09" fill="#F47F7F"/>
<polygon points="157.08 142.28 143.87 145.07 159.49 158.57 174.15 157.01" fill="#F47F7F"/>
<polygon points="159.01 139.76 159.24 125.99 175.73 139.8 176.32 154.23" fill="#F47F7F"/>
<rect transform="translate(180.11 162.37) rotate(-5.1428) translate(-180.11 -162.37)" x="176.32" y="158.57" width="7.5719" height="7.6027" fill="#F47F7F"/>
<polygon points="315.86 137.1 313.07 123.82 299.63 139.5 301.18 154.23" fill="#F47F7F"/>
<polygon points="317.29 139.02 331 139.25 317.81 155.16 302.88 156.4" fill="#F47F7F"/>
<polygon points="282.32 181.14 285.11 194.41 298.55 178.73 296.99 164" fill="#F47F7F"/>
<polygon points="279.81 180.29 266.1 180.06 279.28 164.16 294.22 162.92" fill="#F47F7F"/>
<polygon points="321.03 178.12 334.24 175.33 318.62 161.83 303.96 163.39" fill="#F47F7F"/>
<polygon points="320.18 179.55 319.95 193.33 304.11 180.09 302.88 165.09" fill="#F47F7F"/>
<polygon points="275 142.28 261.77 145.07 277.39 158.57 292.06 157.01" fill="#F47F7F"/>
<polygon points="276.91 139.76 277.13 125.99 293.65 139.8 294.22 154.23" fill="#F47F7F"/>
<rect transform="translate(298.01 159.11) rotate(-5.31) translate(-298.01 -159.11)" x="294.22" y="155.31" width="7.5719" height="7.6027" fill="#F47F7F"/>
<rect x="111.41" y="149.88" width="15.144" height="15.205" fill="#F47F7F"/>
<rect x="233.65" y="149.88" width="15.144" height="15.205" fill="#F47F7F"/>
<rect x="352.63" y="149.88" width="15.144" height="15.205" fill="#F47F7F"/>
<polygon points="80.046 255.47 77.26 242.2 63.82 257.89 65.358 272.61" fill="#F47F7F"/>
<polygon points="81.473 257.41 95.189 257.62 81.988 273.54 67.065 274.78" fill="#F47F7F"/>
<polygon points="46.513 299.51 49.296 312.8 62.738 297.11 61.185 282.39" fill="#F47F7F"/>
<polygon points="44.004 298.68 30.288 298.47 43.471 282.55 58.412 281.3" fill="#F47F7F"/>
<polygon points="86.301 296.51 99.516 293.71 83.892 280.22 69.229 281.78" fill="#F47F7F"/>
<polygon points="84.372 297.95 84.142 311.71 68.304 298.47 67.065 283.47" fill="#F47F7F"/>
<polygon points="39.193 260.67 25.961 263.46 41.585 276.96 56.248 275.41" fill="#F47F7F"/>
<polygon points="41.105 258.15 41.317 244.37 57.845 258.18 58.412 272.61" fill="#F47F7F"/>
<rect transform="translate(63.279 277.5) rotate(-5.31) translate(-63.279 -277.5)" x="59.493" y="273.7" width="7.5719" height="7.6027" fill="#F47F7F"/>
<polygon points="197.95 255.47 195.15 242.2 181.73 257.89 183.28 272.61" fill="#F47F7F"/>
<polygon points="199.38 257.41 213.09 257.62 199.91 273.54 184.97 274.78" fill="#F47F7F"/>
<polygon points="164.42 299.51 167.2 312.8 180.64 297.11 179.11 282.39" fill="#F47F7F"/>
<polygon points="161.91 298.68 148.19 298.47 161.39 282.55 176.32 281.3" fill="#F47F7F"/>
<polygon points="204.19 296.51 217.42 293.71 201.8 280.22 187.13 281.78" fill="#F47F7F"/>
<polygon points="202.28 297.95 202.06 311.71 186.21 298.47 184.97 283.47" fill="#F47F7F"/>
<polygon points="157.08 260.67 143.87 263.46 159.49 276.96 174.15 275.41" fill="#F47F7F"/>
<polygon points="159.01 258.15 159.24 244.37 175.73 258.18 176.32 272.61" fill="#F47F7F"/>
<rect transform="translate(180.11 280.76) rotate(-5.1428) translate(-180.11 -280.76)" x="176.32" y="276.96" width="7.5719" height="7.6027" fill="#F47F7F"/>
<polygon points="315.86 255.47 313.07 242.2 299.63 257.89 301.18 272.61" fill="#F47F7F"/>
<polygon points="317.29 257.41 331 257.62 317.81 273.54 302.88 274.78" fill="#F47F7F"/>
<polygon points="282.32 299.51 285.11 312.8 298.55 297.11 296.99 282.39" fill="#F47F7F"/>
<polygon points="279.81 298.68 266.1 298.47 279.28 282.55 294.22 281.3" fill="#F47F7F"/>
<polygon points="321.03 296.51 334.24 293.71 318.62 280.22 303.96 281.78" fill="#F47F7F"/>
<polygon points="320.18 297.95 319.95 311.71 304.11 298.47 302.88 283.47" fill="#F47F7F"/>
<polygon points="275 260.67 261.77 263.46 277.39 276.96 292.06 275.41" fill="#F47F7F"/>
<polygon points="276.91 258.15 277.13 244.37 293.65 258.18 294.22 272.61" fill="#F47F7F"/>
<rect transform="translate(298.01 277.5) rotate(-5.31) translate(-298.01 -277.5)" x="294.22" y="273.7" width="7.5719" height="7.6027" fill="#F47F7F"/>
<rect x="111.41" y="268.27" width="15.144" height="15.205" fill="#F47F7F"/>
<rect x="233.65" y="268.27" width="15.144" height="15.205" fill="#F47F7F"/>
<rect x="352.63" y="268.27" width="15.144" height="15.205" fill="#F47F7F"/>
<rect y="212.88" width="15.144" height="15.205" fill="#F47F7F"/>
<rect x="36.778" y="212.88" width="15.144" height="15.205" fill="#F47F7F"/>
<rect x="72.474" y="212.88" width="15.144" height="15.205" fill="#F47F7F"/>
<rect x="108.17" y="212.88" width="15.144" height="15.205" fill="#F47F7F"/>
<rect x="143.87" y="212.88" width="15.144" height="15.205" fill="#F47F7F"/>
<rect x="179.56" y="212.88" width="15.144" height="15.205" fill="#F47F7F"/>
<rect x="215.26" y="212.88" width="15.144" height="15.205" fill="#F47F7F"/>
<rect x="250.95" y="212.88" width="15.144" height="15.205" fill="#F47F7F"/>
<rect x="286.65" y="212.88" width="15.144" height="15.205" fill="#F47F7F"/>
<rect x="322.35" y="212.88" width="15.144" height="15.205" fill="#F47F7F"/>
<rect y="198.76" width="354.8" height="8.6888" fill="#F47F7F"/>
<rect y="231.34" width="354.8" height="8.6888" fill="#F47F7F"/>
<rect y="332.35" width="15.144" height="15.205" fill="#F47F7F"/>
<rect x="36.778" y="332.35" width="15.144" height="15.205" fill="#F47F7F"/>
<rect x="72.474" y="332.35" width="15.144" height="15.205" fill="#F47F7F"/>
<rect x="108.17" y="332.35" width="15.144" height="15.205" fill="#F47F7F"/>
<rect x="143.87" y="332.35" width="15.144" height="15.205" fill="#F47F7F"/>
<rect x="179.56" y="332.35" width="15.144" height="15.205" fill="#F47F7F"/>
<rect x="215.26" y="332.35" width="15.144" height="15.205" fill="#F47F7F"/>
<rect x="250.95" y="332.35" width="15.144" height="15.205" fill="#F47F7F"/>
<rect x="286.65" y="332.35" width="15.144" height="15.205" fill="#F47F7F"/>
<rect x="322.35" y="332.35" width="15.144" height="15.205" fill="#F47F7F"/>
<rect y="319.31" width="354.8" height="8.6888" fill="#F47F7F"/>
<rect y="350.81" width="354.8" height="8.6888" fill="#F47F7F"/>
</g>
</g>
</g>
</svg>
