<?xml version="1.0" encoding="UTF-8"?>
<svg version="1.1" viewBox="0 0 1275 719" xmlns="http://www.w3.org/2000/svg">
<title>Group 8</title>
<desc>Created with Sketch.</desc>
<g fill="none" fill-rule="evenodd">
<g transform="translate(-2 -1)">
<g transform="translate(2 1)">
<g transform="translate(376 76)">
<g transform="translate(260.46 136.36) rotate(.5) translate(-259.3 -133.91)">
<g transform="translate(3.6117 1.1747)">
<g transform="translate(0 72.266)">
<path transform="translate(254.76 119.48) rotate(-1) translate(-254.76 -119.48)" d="m35.223 188.73s36.375-141.86 223.69-138.46c179.21 3.2573 215.39 135.04 215.39 135.04"/>
<path d="m8.7313 141.62c2.571-5.1738 5.6585-8.3759 9.2626-9.6067 3.6041-1.2307 7.2741-0.90925 11.01 0.96446 2.6372 1.3226 4.8239 3.1374 6.5602 5.4444 1.7362 2.307 2.7637 4.9629 3.0825 7.9676 0.31879 3.0048-0.31289 6.099-1.8951 9.2829-0.92293 1.8572-1.9338 3.2837-3.0326 4.2794-0.5714-0.17608-1.0109-0.34127-1.3186-0.49558-0.52745-0.26452-0.97797-0.57333-1.3516-0.92642 0.81309-0.97324 1.5273-2.0789 2.1426-3.3171 3.0984-6.235 1.2192-11.072-5.6376-14.511-3.6921-1.8517-7.0325-2.3945-10.021-1.6286s-5.439 3.0725-7.3508 6.9196c-0.48344 0.97284-0.91193 2.1666-1.2855 3.5812l31.713 15.904c1.89 0.94787 3.4284 1.4708 4.6151 1.5688 1.1867 0.097999 2.1702-0.16835 2.9503-0.79905 0.78014-0.6307 1.5877-1.6757 2.4228-3.1351 0.72523 0.08751 1.7252 0.45089 2.9998 1.0902-1.1427 1.968-2.593 4.7208-4.351 8.2584-2.1315 4.2893-3.5599 7.3293-4.285 9.12-1.2747-0.63926-2.1647-1.2237-2.6702-1.7535 0.79108-1.8129 0.96133-3.2328 0.51077-4.2597s-1.7747-2.0915-3.9724-3.1937l-27.823-13.954c-2.1977-1.1022-3.8404-1.5255-4.9283-1.2701s-2.1152 1.2455-3.0821 2.9702c-0.72523-0.08751-1.7252-0.45089-2.9998-1.0902 1.2745-2.2333 2.8347-5.2072 4.6806-8.9217l4.0543-8.49zm71.473-22.475c1.7662-2.0584 2.94-3.8799 3.5213-5.4647 0.5813-1.5848 0.69351-3.1521 0.33662-4.702-0.35689-1.5499-1.1761-3.4682-2.4578-5.755 1.266-0.79497 2.4188-1.2312 3.4585-1.3086 1.5843 2.6146 3.8574 5.5981 6.8195 8.9509-2.5792 2.8546-5.7314 6.4526-9.4566 10.794-5.9089 6.8862-10.012 11.781-12.309 14.685-1.0786-0.93561-1.798-1.7228-2.1582-2.3616 0.82479-1.1124 1.3212-2.069 1.4893-2.8698 0.16809-0.80076-0.024727-1.6535-0.57847-2.5581-0.55374-0.90464-1.5559-1.9861-3.0064-3.2443l-22.93-19.89c-1.8597-1.6131-3.3478-2.4306-4.4643-2.4526-1.1165-0.021927-2.3543 0.68334-3.7132 2.1158-0.68128-0.26455-1.5612-0.86462-2.6399-1.8002 1.9742-2.0739 3.9728-4.2897 5.9959-6.6474 1.9589-2.2829 3.846-4.5955 5.6612-6.9378 1.0786 0.93561 1.798 1.7228 2.1582 2.3616-0.82479 1.1124-1.3305 2.0609-1.5172 2.8456-0.18669 0.78463-0.023035 1.5957 0.49097 2.4332 0.51401 0.83754 1.4219 1.8209 2.7237 2.9501l22.763 19.744c1.4506 1.2582 2.6416 2.0628 3.5731 2.4138 0.93148 0.35101 1.8511 0.30002 2.7588-0.15296s1.9717-1.3905 3.192-2.8127l0.28902-0.33682zm60.683-51.053c0.76385 0.68785 1.4403 1.5163 2.0293 2.4854-2.5933 1.422-5.0223 2.8297-7.2872 4.2232-2.2229 1.3677-4.5541 2.8889-6.9937 4.5637-0.74269-1.2219-1.1465-2.2181-1.2115-2.9886 1.0975-0.84897 1.8106-1.5482 2.1393-2.0978s0.31372-1.1193-0.044817-1.7092c-0.30732-0.50561-1.2493-1.3443-2.826-2.5162l-6.6864-4.7433c-6.6686 4.1032-12.154 7.5938-16.455 10.472l0.95202 5.406c0.40456 2.1825 0.91416 3.7794 1.5288 4.7906 0.5122 0.84268 1.1521 1.3029 1.9196 1.3806 0.76756 0.077698 1.7431-0.1897 2.9268-0.80219 0.72896 0.53564 1.4264 1.3512 2.0922 2.4467-1.5028 0.751-3.5334 1.9136-6.0918 3.4877-1.0905 0.67096-2.7926 1.8051-5.1064 3.4024-0.64025-1.0534-1.0313-2.0285-1.173-2.9254 0.96242-0.88163 1.4893-1.9584 1.5806-3.2303 0.091306-1.2719-0.14085-3.5026-0.69648-6.6921l-7.3757-41.572c0.61056-0.60724 1.3772-1.1947 2.2999-1.7624l35.947 25.295c2.4827 1.7144 4.2586 2.7636 5.3277 3.1479 1.0691 0.38423 2.1372 0.36384 3.2043-0.061163zm-23.737-3.1806l-11.472-8.5094c-2.9876-2.1855-5.2755-3.9543-6.8638-5.3063 0.37937 1.7233 0.91707 4.4986 1.6131 8.326l2.2909 14.026 14.432-8.5363zm63.873-58.53c2.4857-0.78594 4.6504-1.5466 6.4943-2.2819 0.36188 1.1549 0.55801 2.1846 0.58841 3.0889-1.0587 0.33475-1.7817 0.89337-2.1689 1.6759-0.38721 0.7825-0.48666 1.9183-0.29834 3.4074 0.18832 1.4891 0.68054 3.504 1.4767 6.0449l10.726 34.232c-0.64965 0.51006-1.5959 0.96157-2.8387 1.3545l-40.219-28.334 7.5126 23.977c0.83956 2.6795 1.6218 4.6916 2.3467 6.0364s1.5303 2.2199 2.4162 2.6252 1.9502 0.41154 3.1931 0.018571c0.44728 0.6202 0.87357 1.577 1.2789 2.8706-2.1148 0.51636-4.415 1.1675-6.9007 1.9534-2.8539 0.90238-5.1337 1.6994-6.8395 2.3911-0.4053-1.2935-0.60144-2.3232-0.58841-3.0889 1.2428-0.39297 2.1118-1.0104 2.6068-1.8524 0.49505-0.84199 0.65631-2.0227 0.48376-3.5422-0.17254-1.5195-0.67858-3.6189-1.5181-6.2984l-8.9673-28.619-0.38475-0.25916c-0.89051-0.5816-1.6669-0.92002-2.3291-1.0153-0.66224-0.095256-1.6062 1.262e-4 -2.832 0.28615-0.49071-0.75879-0.917-1.7156-1.2789-2.8706 1.4244-0.29804 3.1492-0.76726 5.1746-1.4077 1.8412-0.58218 3.3616-1.139 4.561-1.6706l38.063 27.264-7.1869-22.937c-0.81061-2.5871-1.5711-4.5299-2.2816-5.8285-0.71044-1.2986-1.505-2.139-2.3836-2.5213s-1.9394-0.3769-3.1822 0.016077c-0.64994-1.267-1.0762-2.2238-1.2789-2.8706 2.0228-0.48725 4.2079-1.102 6.5555-1.8443zm50.066 46.496c-2.8485 0.10055-5.4152-0.19199-7.7003-0.87764-2.2851-0.68565-4.7567-1.7973-7.415-3.335 0.34811-2.7809 0.45008-6.2947 0.30589-10.541 1.1195-0.33616 2.4405-0.5311 3.9629-0.58485 0.33057 3.9435 1.4273 6.9205 3.2903 8.9312s4.6852 2.9493 8.4668 2.8158c3.1922-0.11269 5.5379-0.9 7.0372-2.3619 1.4992-1.462 2.2094-3.3533 2.1306-5.6742-0.065386-1.9258-0.61182-3.538-1.6393-4.8366-1.0275-1.2986-2.268-2.3548-3.7216-3.1687s-3.4773-1.7683-6.0714-2.8633c-2.9953-1.328-5.3962-2.5287-7.2028-3.602s-3.3683-2.5385-4.6852-4.3954c-1.3169-1.8569-2.0239-4.2174-2.1212-7.0815-0.14083-4.148 1.0745-7.4538 3.646-9.9177s6.1409-3.7764 10.708-3.9376c2.4065-0.08495 4.7251 0.14219 6.9561 0.68143 2.231 0.53924 4.0499 1.2537 5.4569 2.1434 0.14922 4.3949 0.4072 7.6487 0.77396 9.7617-1.0654 0.48256-2.4329 0.75331-4.1027 0.81226-0.82504-4.0249-1.9498-6.7414-3.3744-8.1496-1.4246-1.4082-3.3155-2.0706-5.6729-1.9874-2.6029 0.091884-4.6192 0.80577-6.049 2.1417-1.4298 1.3359-2.1052 3.1643-2.0264 5.4851 0.065387 1.9258 0.62494 3.5623 1.6787 4.9094 1.0537 1.3471 2.3201 2.4395 3.799 3.2772s3.5171 1.8534 6.1145 3.0471c2.9445 1.2804 5.3078 2.4576 7.0898 3.5318 1.782 1.0742 3.3179 2.5031 4.6077 4.2869s1.98 4.0088 2.0705 6.6754c0.087182 2.5678-0.43437 4.9469-1.5647 7.1374-1.1303 2.1905-2.9378 3.9847-5.4226 5.3825s-5.5934 2.1627-9.3259 2.2944zm69.946-13.532c1.6003 0.16465 2.8579 0.59415 3.7727 1.2885-0.81138 3.1667-1.2896 6.9479-1.4347 11.344-4.7556-0.20027-11.09-0.34506-19.002-0.43439-7.8154-0.088231-13.229-0.076054-16.24 0.03653-0.3798-0.78605-0.56543-1.5699-0.55689-2.3516 6.324-10.043 11.475-18.266 15.453-24.671 3.9781-6.4046 7.8966-12.907 11.756-19.509l-10.34-0.11673c-2.2815-0.025757-4.068 0.18616-5.3594 0.63575-1.2915 0.44959-2.345 1.3416-3.1606 2.676-0.81563 1.3344-1.4806 3.3179-1.9948 5.9506-1.9903-0.022469-3.371-0.28235-4.1424-0.77966 0.45343-1.5095 0.81324-3.3377 1.0794-5.4845 0.2662-2.1468 0.41023-4.2217 0.43212-6.2247 3.9794 0.14265 9.901 0.25836 17.765 0.34713 5.8737 0.06631 10.534 0.070066 13.982 0.011268 0.52703 0.64113 0.78521 1.4502 0.77454 2.4273-9.4499 16.213-18.445 30.842-26.987 43.889l11.213 0.12659c3.1553 0.035621 5.5364-0.16958 7.1434-0.61561 1.607-0.44603 2.8421-1.2993 3.7055-2.5599 0.86338-1.2606 1.577-3.2558 2.1408-5.9856zm33.314 20.039c-4.2804-2.0987-7.5824-4.9695-9.9063-8.6124-2.3238-3.643-3.5402-7.6783-3.6492-12.106s0.90894-8.8395 3.0537-13.235c2.1665-4.4401 5.0597-7.9323 8.68-10.477s7.5727-3.9765 11.858-4.2966 8.4571 0.51507 12.517 2.5056c4.1921 2.0554 7.4827 4.8656 9.872 8.4306 2.3892 3.565 3.6712 7.5499 3.8459 11.955 0.17475 4.405-0.83191 8.8497-3.02 13.334-2.1231 4.3513-4.9835 7.8321-8.5813 10.442-3.5978 2.6103-7.5607 4.12-11.889 4.5289-4.3282 0.40892-8.5883-0.41432-12.78-2.4698zm2.8981-2.5043c2.78 1.3631 5.608 1.7592 8.484 1.1885 2.876-0.57072 5.5425-1.9731 7.9998-4.2073 2.4572-2.2342 4.5199-5.0606 6.1881-8.4795 1.9281-3.9517 2.9767-7.9219 3.1457-11.911 0.16903-3.9888-0.53829-7.5545-2.122-10.697s-3.92-5.471-7.0089-6.9855c-2.6035-1.2765-5.3105-1.6684-8.1211-1.1757-2.8106 0.49274-5.4613 1.8066-7.9522 3.9417-2.4909 2.1351-4.6029 4.9787-6.3361 8.5307-1.8632 3.8185-2.9562 7.7118-3.2793 11.68s0.25808 7.5684 1.7435 10.8c1.4854 3.2319 3.9049 5.6699 7.2586 7.3143zm20.679-47.174c-0.56657-0.16374-1.0791-0.33757-1.5376-0.52151s-0.85619-0.40171-1.193-0.65334c2.6944-2.9754 4.9292-5.7751 6.7046-8.399 1.4174 0.049633 2.5982 0.2109 3.5425 0.48379 1.2276 0.35476 2.2826 0.86536 3.1651 1.5318-3.5569 2.4176-7.1174 4.937-10.682 7.5582zm83.66 47.282c2.3364 1.3627 4.3912 2.4755 6.1645 3.3383-0.56831 0.98316-1.2482 1.8155-2.0398 2.497-0.86347-0.27499-1.7107-0.2833-2.5417-0.024915-0.83098 0.25838-1.8534 0.84804-3.0674 1.769-1.214 0.92095-2.9198 2.398-5.1176 4.4313l-28.25 25.877c-0.82793-0.13995-1.7516-0.50723-2.7711-1.1019 2.7695-14.618 5.188-28.382 7.2557-41.294l-30.673 27.121c-0.82793-0.13995-1.8154-0.5444-2.9623-1.2134 3.4097-14.644 6.3894-28.053 8.939-40.227 0.57661-2.8645 0.91369-4.8971 1.0113-6.0976 0.097569-1.2006 0.024883-2.0575-0.21806-2.5707-0.24294-0.51323-0.7645-1.0603-1.5647-1.6414 0.18295-0.80782 0.608-1.7888 1.2751-2.9429 1.9649 1.3175 4.3279 2.7815 7.0891 4.3919 2.8036 1.6352 5.4107 3.0701 7.8212 4.3046-0.56831 0.98316-1.2058 1.8402-1.9123 2.5713-1.5787-0.80646-2.7457-1.2442-3.501-1.3132-0.75532-0.069021-1.3677 0.30255-1.8372 1.1147-0.49419 0.85492-0.98557 2.5402-1.4742 5.056-2.5397 11.665-4.6629 21.087-6.3697 28.265l30.451-26.737c0.67578 0.10836 1.6721 0.54657 2.989 1.3146-1.9835 12.275-4.4252 25.883-7.3252 40.825l19.208-17.605c2.014-1.9119 3.3422-3.4235 3.9846-4.5349 0.71657-1.2396 0.92478-2.3614 0.62463-3.3652-0.30015-1.0039-1.1017-2.0001-2.4047-2.9887 0.14741-0.94287 0.52998-1.9486 1.1477-3.0173 1.71 1.1689 3.7332 2.4346 6.0696 3.7973zm15.803 66.969c0.63301 1.358 0.92536 2.5605 0.87706 3.6076-2.7718 1.2725-5.9906 3.189-9.6566 5.7498-2.5091-2.9127-6.0145-6.8502-10.516-11.813-6.0904-6.7138-10.431-11.389-13.023-14.026 1.0533-0.96621 1.9169-1.5913 2.5909-1.8753 0.99944 0.95503 1.8844 1.5638 2.6549 1.8263 0.77051 0.26253 1.6182 0.17009 2.5432-0.27733 0.925-0.44742 2.1139-1.3375 3.5667-2.6702l22.391-20.54c1.816-1.6659 2.8018-3.0549 2.9575-4.167 0.15565-1.1121-0.39219-2.4313-1.6435-3.9574 0.34298-0.64889 1.0411-1.4564 2.0944-2.4226 1.8439 2.2527 4.5698 5.3677 8.1777 9.3448 6.0242 6.6408 10.729 11.717 14.115 15.23-3.6642 4.0298-6.1859 7.045-7.5652 9.0456-0.93234-0.14751-1.895-0.76857-2.888-1.8632 1.8684-2.0482 2.8598-4.3113 2.9741-6.7894 0.11432-2.4781-1.2849-5.3226-4.1977-8.5335l-4.6174-5.09-14.927 13.693 3.1279 3.4481c2.0853 2.2987 3.8165 3.6019 5.1936 3.9097 1.3771 0.30773 2.9539-0.31978 4.7304-1.8825 1.0486 0.64249 1.9701 1.4016 2.7645 2.2773-1.3011 1.0598-3.3136 2.8391-6.0376 5.3379-2.9782 2.732-5.0517 4.7009-6.2204 5.9067-0.8937-0.98517-1.5642-1.9077-2.0115-2.7675 1.7562-1.8785 2.5814-3.5546 2.4755-5.0284s-1.185-3.3419-3.2372-5.6041l-3.1279-3.4481-9.8608 9.0457c-1.3802 1.2661-2.3085 2.3516-2.785 3.2567-0.47654 0.90511-0.53737 1.8467-0.18248 2.8247s1.1612 2.1603 2.419 3.5469l0.2979 0.32839c2.2839 2.5177 4.2924 4.2183 6.0256 5.1019 1.7332 0.88361 3.3434 1.2282 4.8306 1.0338 1.4872-0.1944 3.3839-0.78107 5.6899-1.76zm20.426 45.541c-1.0873 2.0954-1.8553 3.7399-2.3038 4.9335-0.44851 1.1937-0.66761 2.4426-0.6573 3.7469 0.010309 1.3043 0.36673 2.827 1.0693 4.5681-1.1128 0.52547-2.1218 0.86558-3.0272 1.0204-2.0831-4.4712-3.8726-7.9627-5.3687-10.475 2.1045-3.1757 4.6055-7.6568 7.5029-13.443 2.8974-5.7866 4.994-10.786 6.2899-14.998l-13.287 6.274c-2.2256 1.0509-3.5768 2.0845-4.0537 3.1006-0.47691 1.0162-0.34326 2.4395 0.40095 4.27-0.51901 0.51782-1.4239 1.0815-2.7148 1.691-1.1163-2.7458-2.3098-5.4824-3.5805-8.2098-1.4582-3.1299-2.7852-5.8034-3.9811-8.0206 1.2908-0.60954 2.2999-0.94966 3.0272-1.0204 0.92225 1.7465 1.9239 2.7599 3.0049 3.0404 1.081 0.2805 2.7343-0.10471 4.9598-1.1556l28.176-13.305c2.2256-1.0509 3.5768-2.0845 4.0537-3.1006 0.47691-1.0162 0.34326-2.4395-0.40095-4.27 0.51901-0.51782 1.4239-1.0815 2.7148-1.691 1.0122 2.5222 2.2056 5.2588 3.5805 8.2098 1.2707 2.7274 2.5977 5.401 3.9811 8.0206-1.2908 0.60954-2.2999 0.94966-3.0272 1.0204-0.92225-1.7465-1.9239-2.7599-3.0049-3.0404-1.081-0.2805-2.7343 0.10471-4.9598 1.1556l-12.953 6.1164 19.125 6.4333c2.4622 0.85564 4.1829 1.0523 5.1621 0.58984 0.97926-0.46241 1.1474-1.4419 0.50453-2.9384 0.60803-0.55986 1.5129-1.1235 2.7148-1.691 0.55388 1.5386 1.5599 3.8727 3.018 7.0026 1.3123 2.8169 2.4519 5.088 3.4186 6.8134-1.2908 0.60954-2.3103 0.9273-3.0585 0.95329-0.83893-1.5676-1.9714-2.8329-3.3976-3.7959-1.4261-0.96303-3.7088-1.958-6.8481-2.9848l-16.644-5.4778c-1.5715 4.6696-4.7171 11.555-9.4368 20.657z" fill="#fff" stroke="#fff" stroke-width=".81648"/>
</g>
<g transform="translate(36.327)">
<g transform="translate(0 45.265)" stroke="#fff" stroke-linecap="round" stroke-linejoin="round" stroke-width="2.5995">
<g transform="translate(0 .11272)">
<path d="m445.85 68.77c-28.518-29.556-64.554-53.253-105.49-68.77"/>
<path transform="translate(56.073 40.059) rotate(-3) translate(-56.073 -40.059)" d="m110.41 5.3467c-42.199 15.329-79.362 39.299-108.68 69.424"/>
</g>
</g>
<g transform="translate(123.98)">
<path d="m6.0022 40.679l-5.8347-28.685 3.4878-0.7184 5.8347 28.685c0.24392 1.1992 0.72147 1.857 1.4327 1.9735 0.54127 0.085787 1.2047 0.04778 1.9902-0.11402l14.423-2.9707 0.71249 3.5028-14.423 2.9707c-1.7911 0.36891-3.3006 0.35106-4.5288-0.053555-1.543-0.50415-2.5745-2.0342-3.0944-4.5903zm47.493-10.026c-0.29308-1.391-0.47265-2.9636-0.53871-4.718-0.06606-1.7544-0.021299-3.3357 0.13428-4.744s0.48032-2.799 0.97422-4.172c1.0779-2.9107 3.3474-4.4329 6.8085-4.5666 1.1858-0.045796 2.6987 0.073076 4.5387 0.35662s3.492 0.68717 4.956 1.2109l-0.51999-13.81 3.5092-0.13553 1.4273 37.904-2.5478 0.098398-1.0687-2.8117c-0.77937 0.61037-2.1563 1.3325-4.1308 2.1663s-3.7469 1.2811-5.3172 1.3417-2.9469-0.27303-4.1297-1.001-2.0878-1.7488-2.7149-3.0624c-0.62716-1.3136-1.0873-2.6659-1.3804-4.0569zm2.9415-4.8574c0.12678 6.2803 1.8094 9.3861 5.0479 9.3176 2.6613-0.056292 5.7887-0.86349 9.382-2.4216l-0.31694-15.701c-3.2233-0.76955-6.3741-1.1218-9.4522-1.0567-1.6673 0.035267-2.8798 0.75364-3.6374 2.1551s-1.0987 3.9702-1.0233 7.7061zm29.282-0.73932c-0.041154-2.8346 0.11816-5.1163 0.47793-6.8453 0.35978-1.7289 1.0383-3.0437 2.0355-3.9443s2.1111-1.4968 3.3417-1.7887c1.2306-0.29188 2.8319-0.45227 4.804-0.48116 1.9721-0.028891 3.4563 0.02991 4.4527 0.1764 0.9964 0.14649 1.9798 0.50259 2.9502 1.0683 0.97041 0.56571 1.6732 1.4736 2.1083 2.7238s0.66762 2.9059 0.69755 4.9675c0.057054 3.9298-2.1109 5.9268-6.5041 5.9912l-10.774 0.15784c0.043492 2.9956 0.4093 4.9958 1.0974 6.0006 0.68813 1.0048 1.9781 1.4933 3.8701 1.4656 5.8361-0.085498 9.842-0.30527 12.018-0.65933l0.039283 2.7057c-3.1615 0.94842-7.1632 1.4581-12.005 1.529-3.2387 0.047446-5.4648-0.85425-6.6784-2.7051s-1.8571-5.3048-1.9305-10.362zm3.683-1.634l10.774-0.15784c2.0202-0.029595 3.0188-0.83356 2.9959-2.4119-0.036009-2.4803-0.41908-4.013-1.1492-4.5984-0.73015-0.58534-2.426-0.85851-5.0875-0.81952-3.3028 0.048386-5.27 0.41549-5.9015 1.1013-0.88383 0.97949-1.3815 2.05-1.4929 3.2114-0.11143 1.1615-0.15779 2.3864-0.13909 3.6749zm27.636 14.979l1.4564-25.617 2.4974 0.14326 0.87282 3.2929c2.5175-1.3399 4.1023-2.096 4.7545-2.2683 0.65224-0.17232 1.2391-0.32419 1.7605-0.45562 0.97699-0.23436 2.2179-0.30838 3.7227-0.22205 1.5048 0.086325 2.5061 0.27283 3.0037 0.55951l-0.20021 3.5218c-0.75746-0.23705-1.8406-0.39599-3.2493-0.4768-1.4088-0.080815-2.6728-0.024257-3.792 0.16967-1.1192 0.19393-2.0153 0.4168-2.6881 0.66861-0.67282 0.25181-1.8316 0.71774-3.4764 1.3978l-1.108 19.49-3.554-0.20387zm25.963-20.481l0.44204-3.5481 18.902 2.3762-0.44204 3.5481-15.838 16.612 13.556 1.7041-0.44204 3.5481-18.186-2.2862 0.44204-3.5481 16.076-16.582-14.511-1.8241zm28.024-0.36194l3.8598 0.53881 3.4112 20.72c0.13448 0.66919 0.29177 1.1139 0.47189 1.3342 0.18012 0.22027 0.34191 0.39733 0.48537 0.53117 0.14346 0.13385 0.29241 0.22781 0.44685 0.28189 0.15445 0.054081 0.30204 0.099075 0.4428 0.13499 0.14076 0.03591 0.27467 0.062734 0.40174 0.080472 0.2947-0.023902 0.50778-0.042937 0.63925-0.057106l10.236-20.718 3.9551 0.55212-15.759 31.898-4.2463 4.3829-2.192-0.30599 6.2593-12.297c-2.7321-0.38138-4.3964-2.4023-4.993-6.0629l-3.4193-21.014z" fill="#fff"/>
<polygon transform="translate(36.736 18.105) rotate(4) translate(-36.736 -18.105)" points="32.641 5.7479 36.863 5.0295 40.83 30.575 37.272 31.18" fill="#4E0408"/>
<path transform="translate(39.187 37.608) rotate(4) translate(-39.187 -37.608)" d="m36.999 39.428l-0.45803-2.7156c-0.13393-0.79405 0.17854-1.2556 0.9374-1.3848l2.6086-0.44395c0.72724-0.12377 1.1578 0.21137 1.2917 1.0054l0.45803 2.7156c0.12321 0.73053-0.1788 1.1577-0.90604 1.2814l-2.6086 0.44395c-0.75886 0.12915-1.1999-0.17153-1.3231-0.90206z" fill="#4E0408"/>
</g>
</g>
</g>
</g>
<g transform="translate(104.44 144.94)">
<ellipse cx="158.46" cy="185.53" rx="158.46" ry="158.53" fill="#DB4342" stroke="#640F13" stroke-width="12"/>
<circle cx="158.5" cy="168.5" r="135.5" fill="#F27575" opacity=".5"/>
<g transform="translate(218.2 28.792) rotate(5) translate(-32.5 -26)" fill-rule="nonzero">
<path d="m42.5 9.0526c4.8 1.8105 7.2 6.9404 5.7 12.07-0.3 0.90526-0.6 1.5088-1.2 2.1123 3 2.414 5.4 5.4316 7.2 9.3544 2.4 5.1298 3.3 10.26 2.4 15.389 2.9767 2.8365-8.9492-6.6293-24.124-11.887-13.883-4.81-31.289-5.5218-27.562-5.8102 2.7-4.5263 6.6862-7.9521 11.486-10.366 3.9-1.8105 8.1-2.7158 12-2.7158h0.9c0-0.60351 0.3-1.207 0.3-1.8105 2.4-4.2246 6-6.9404 9.9-6.9404 0.9 0 2.1 0.30175 3 0.60351zm-17.7 0.60351c-3.9 0.60351-7.5 1.5088-11.1 3.3193-4.8 2.414-9.3 5.7333-12.6 10.26-7.8 0.90526 68.7 27.761 63.3 22.028 0-5.4316-1.2-10.863-3.6-15.691-1.5-2.7158-3-5.4316-5.1-7.8456 1.8-8.4491-2.7-16.898-10.8-19.614-1.8-0.90526-3.6-1.207-5.4-1.207-6 0-11.7 3.3193-14.7 8.7509z" fill="#640F13"/>
<g transform="translate(2 15.088)">
<path d="m54.6 32.891c0.6-5.1298 0-10.561-2.4-15.389-6.6-13.881-23.1-19.614-36.9-12.975-5.1 2.414-8.7 6.0351-11.4 10.561 18.3-1.5088 36.9 4.8281 50.7 17.804z" fill="#F1F1F2"/>
<path d="m54.6 35.004c-0.6 0-0.9-0.30175-1.2-0.60351-13.2-12.674-31.2-19.011-49.5-17.2-0.6 0-1.5-0.30175-1.8-0.90526-0.3-0.60351-0.3-1.5088 0-2.1123 3-4.8281 7.2-8.7509 12.3-11.165 7.2-3.3193 15-3.9228 22.5-1.207 7.5 2.7158 13.5 7.8456 16.8 15.088 2.4 5.1298 3.3 10.863 2.7 16.596 0 0.60351-0.6 1.207-1.2 1.5088-0.3-0.30175-0.6 0-0.6 0zm-45.3-22.028c15.9 0 31.5 5.7333 43.5 15.993 0-3.6211-0.9-7.2421-2.7-10.561-3-6.3368-8.1-10.863-14.7-13.277s-13.5-1.8105-19.8 1.207c-3.3 1.5088-6.3 3.9228-8.4 6.6386h2.1z" fill="#640F13"/>
</g>
<g transform="translate(26 6.0351)">
<path d="m20.7 17.502c0.6-0.60351 0.9-1.5088 1.2-2.1123 1.8-5.1298-0.9-10.26-5.7-12.07-4.8-1.8105-10.2 0.90526-11.7 6.0351-0.3 0.60351-0.3 1.207-0.3 1.8105 6 0 11.7 2.1123 16.5 6.3368z" fill="#FFDF00"/>
<path d="m20.7 19.312c-0.3 0-0.9-0.30175-1.2-0.30175-4.5-3.6211-9.9-5.7333-15.6-6.0351-0.6 0-0.9-0.30175-1.5-0.60351-0.3-0.30175-0.6-0.90526-0.3-1.5088 0-0.60351 0.3-1.5088 0.6-2.1123 2.1-6.0351 8.4-9.0526 14.1-7.2421 2.7 0.90526 5.1 3.0175 6.3 5.7333 1.2 2.7158 1.5 5.7333 0.3 8.7509-0.3 0.90526-0.6 1.8105-1.5 2.7158 0 0.30175-0.3 0.60351-1.2 0.60351 0.3 0 0 0 0 0zm-14.1-9.9579c4.8 0.60351 9.6 2.414 13.8 5.4316 0.6-1.8105 0.6-3.9228-0.3-5.7333s-2.4-3.0175-4.2-3.9228c-3.9-1.5088-7.8 0.30175-9.3 4.2246z" fill="#640F13"/>
</g>
<path d="m11.3 23.537s23.4-5.7333 43.8 12.07c0 0 2.7 4.8281 1.2 12.372 0 0-14.7-20.218-52.2-17.804l7.2-6.6386z" fill="#D0D2D3"/>
<path d="m56.6 50.091c-0.6 0-0.9-0.30175-1.2-0.60351-13.2-12.674-31.2-19.011-49.5-17.2-0.6 0-1.5-0.30175-1.8-0.90526-0.3-0.60351-0.3-1.5088 0-2.1123 3-4.8281 7.2-8.7509 12.3-11.165 7.2-3.3193 15-3.9228 22.5-1.207s13.5 7.8456 16.8 15.088c2.4 5.1298 3.3 10.863 2.7 16.596 0 0.60351-0.6 1.207-1.2 1.5088-0.3-0.30175-0.6 0-0.6 0zm-45.3-22.028c15.9 0 31.5 5.7333 43.5 15.993 0-3.6211-0.9-7.2421-2.7-10.561-3-6.3368-8.1-10.863-14.7-13.277-6.6-2.414-13.5-1.8105-19.8 1.207-3.3 1.5088-6.3 3.9228-8.4 6.6386h2.1z" fill="#640F13"/>
</g>
<g transform="translate(18.007 63.029)">
<g transform="translate(5.4419 17.227)">
<g transform="translate(77.791 71.573)" stroke="#1F2436">
<g stroke-width="7.2095">
<path d="m115.56 96.119c0 1.3054-0.88556 2.924-1.9785 3.6155l-53.52 33.865c-1.0927 0.69141-2.8676 0.69519-3.9651 0.007895l-54.107-33.881c-1.0972-0.68705-1.9866-2.301-1.9866-3.6077l7.4166e-16 -58.258c1.6619e-17 -1.3054 0.88906-2.9172 1.9866-3.6007l54.107-33.692c1.0972-0.68321 2.8751-0.67805 3.9693 0.010472l53.512 33.671c1.095 0.68899 1.9827 2.3045 1.9827 3.6112v58.258z" fill="#fff"/>
<path d="m0 42.585c0-3.9144 2.6609-5.4121 5.946-3.3434l46.188 29.084c3.2839 2.0678 5.946 6.9168 5.946 10.832v48.607c0 3.9143-2.6656 5.4183-5.9562 3.3578l-46.168-28.91c-3.2895-2.0598-5.9562-6.9017-5.9562-10.817v-48.81z"/>
<path d="m115.56 42.585c0-3.9144-2.6522-5.3953-5.9245-3.3074l-45.628 29.113c-3.272 2.0877-5.9245 6.9533-5.9245 10.868v48.405c0 3.9142 2.6617 5.4078 5.9447 3.3363l45.588-28.765c3.2832-2.0716 5.9447-6.9231 5.9447-10.839v-48.81z"/>
<path d="m64.008 68.298c-3.2739 2.0831-8.5887 2.0964-11.874 0.027722l-46.585-29.334c-3.0648-1.9298-3.0583-5.0454 0.019737-6.962l46.942-29.23c3.0757-1.9152 8.0548-1.9036 11.119 0.024634l46.377 29.181c3.0654 1.9288 3.0714 5.0697 0.016326 7.0136l-46.015 29.279z"/>
</g>
<g transform="translate(16.653 26.331)" fill="#1F2436" fill-rule="nonzero" stroke-width=".93593">
<ellipse cx="41.388" cy="4.8816" rx="7.4359" ry="4.8816"/>
<ellipse transform="translate(6.2301 46.477) rotate(-6) translate(-6.2301 -46.477)" cx="6.2301" cy="46.477" rx="5.4262" ry="7.6276"/>
<ellipse transform="translate(17.082 72.92) rotate(-6) translate(-17.082 -72.92)" cx="17.082" cy="72.92" rx="5.4262" ry="7.6276"/>
<ellipse transform="translate(58.627 50.78) rotate(23) translate(-58.627 -50.78)" cx="58.627" cy="50.78" rx="5.5267" ry="8.9497"/>
<ellipse transform="translate(58.584 79.784) rotate(23) translate(-58.584 -79.784)" cx="58.584" cy="79.784" rx="5.5267" ry="8.9497"/>
<ellipse transform="translate(83.906 36.052) rotate(23) translate(-83.906 -36.052)" cx="83.906" cy="36.052" rx="5.5267" ry="8.9497"/>
<ellipse transform="translate(83.906 65.342) rotate(23) translate(-83.906 -65.342)" cx="83.906" cy="65.342" rx="5.5267" ry="8.9497"/>
</g>
</g>
<polygon points="220.87 150.08 220.87 79.887 134.43 29.143 45.693 79.899 45.693 150.08 29.779 79.899 0 79.899 134.43 0 265.36 79.899 237.51 79.899" fill="#1F2436" fill-rule="nonzero"/>
</g>
<g transform="translate(13.994 32.105)">
<g transform="translate(111.95)">
<g transform="translate(87.676 68.174) rotate(-15) translate(-41.333 -39.283)">
<g transform="translate(68.653 61.849) rotate(-14) translate(-8.0333 -15.139)">
<path d="m10.81 7.8199c-3.0716-0.82842-6.7711-0.84379-9.1791 3.6664-2.4079 4.5102-2.1875 16.741 1.0134 18.482 3.2009 1.7402 10.66-7.2812 12.687-12.192 2.0268-4.9104-1.4497-9.128-4.5213-9.9564z" fill="#fff"/>
<path d="m10.372 8.7562c-3.3218 1.4459-5.4571 3.8526-6.406 7.2201-0.94883 3.3676-1.0724 7.8188-0.37079 13.354 6.5736-3.1685 10.327-7.1732 11.259-12.014 0.93228-4.841-0.56174-7.6943-4.4821-8.5598z" fill="#E32743"/>
<path d="m13.454 1.7867c-0.77384 1.1306-1.2889 1.9942-1.5453 2.591-0.25638 0.59679-0.44157 1.6361-0.55556 3.1181l-3.0122-0.56792 1.3992-3.4063 0.82682-3.5074 2.8871 1.7725z" fill="#01B26D"/>
<path d="m10.007 1.1526l-0.20073 0.29712c-0.50825 0.75231-0.3104 1.7742 0.44191 2.2825 0.066196 0.044721 0.13556 0.084557 0.20755 0.11919l2.5258 1.2152c0.69561 0.33467 1.5308 0.042075 1.8655-0.65353 0.090961-0.18906 0.13819-0.39617 0.13819-0.60597v-0.96331c0-0.76302-0.45908-1.4511-1.1636-1.7441l-1.5243-0.63382c-0.82959-0.34495-1.7874-0.057796-2.2903 0.68668z" stroke="#1F2436" stroke-width="2.6443"/>
<path d="m8.9325 4.6921l-0.10292 0.15235c-0.46158 0.68323-0.2819 1.6113 0.40133 2.0729 0.060118 0.040615 0.12312 0.076793 0.18849 0.10825l2.2939 1.1036c0.63173 0.30394 1.3902 0.038211 1.6942-0.59352 0.082608-0.1717 0.1255-0.35979 0.1255-0.55033v-0.75914c0-0.76302-0.45908-1.4511-1.1636-1.7441l-1.1466-0.47675c-0.82959-0.34495-1.7874-0.057796-2.2903 0.68668z" stroke="#1F2436" stroke-width="2.6443"/>
<path d="m10.81 7.8199c-3.0716-0.82842-6.7711-0.84379-9.1791 3.6664-2.4079 4.5102-2.1875 16.741 1.0134 18.482 3.2009 1.7402 10.66-7.2812 12.687-12.192 2.0268-4.9104-1.4497-9.128-4.5213-9.9564z" stroke="#1F2436" stroke-width="2.8332"/>
</g>
<g transform="translate(34.214 38.396) rotate(7) translate(-5.1828 -9.7881)">
<path d="m6.9469 5.0571c-1.974-0.53574-4.3516-0.54567-5.899 2.3711-1.5475 2.9167-1.4058 10.827 0.65127 11.952 2.0571 1.1254 6.8509-4.7087 8.1534-7.8842 1.3025-3.1755-0.93168-5.903-2.9057-6.4388z" fill="#fff"/>
<path d="m6.6656 5.6626c-2.1348 0.93503-3.5071 2.4914-4.1169 4.6692-0.60978 2.1778-0.68921 5.0564-0.23829 8.6359 4.2246-2.049 6.6365-4.6389 7.2356-7.7695 0.59914-3.1307-0.36101-4.9759-2.8805-5.5356z" fill="#E32743"/>
<path d="m8.6462 1.1555c-0.49732 0.73113-0.82836 1.2897-0.99313 1.6756-0.16477 0.38594-0.28378 1.0581-0.35704 2.0164l-1.9358-0.36727 0.8992-2.2028 0.53137-2.2682 1.8554 1.1463z" fill="#01B26D"/>
<path d="m6.4241 0.75557l-0.12214 0.18193c-0.3284 0.48915-0.19809 1.1519 0.29106 1.4803 0.04146 0.027835 0.084823 0.052725 0.12977 0.074485l1.6133 0.78105c0.44809 0.21694 0.98721 0.029553 1.2042-0.41854 0.059287-0.12246 0.090085-0.25675 0.090085-0.3928v-0.62077c0-0.49497-0.29723-0.94153-0.75384-1.1326l-0.95914-0.40132c-0.54091-0.22633-1.1664-0.038574-1.4932 0.44824z" stroke="#1F2436" stroke-width="1.7188"/>
<path d="m5.7337 3.0445l-0.059287 0.088306c-0.29825 0.44424-0.1799 1.0461 0.26433 1.3444 0.037653 0.025279 0.077034 0.047883 0.11785 0.067646l1.4651 0.70933c0.40695 0.19702 0.89656 0.026839 1.0936-0.38011 0.053843-0.11121 0.081813-0.23317 0.081813-0.35674v-0.48874c0-0.49497-0.29723-0.94153-0.75384-1.1326l-0.71638-0.29975c-0.54091-0.22633-1.1664-0.038574-1.4932 0.44824z" stroke="#1F2436" stroke-width="1.7188"/>
<path d="m6.9469 5.0571c-1.974-0.53574-4.3516-0.54567-5.899 2.3711-1.5475 2.9167-1.4058 10.827 0.65127 11.952 2.0571 1.1254 6.8509-4.7087 8.1534-7.8842 1.3025-3.1755-0.93168-5.903-2.9057-6.4388z" stroke="#1F2436" stroke-width="1.8416"/>
</g>
<path d="m82.585 45.16c-15.057 1.9069-26.187 0.033066-33.39-5.6214s-13.88-14.358-20.028-26.111l53.419 31.732z" stroke="#1F2436" stroke-linecap="round" stroke-linejoin="round" stroke-width="3.3689"/>
<g transform="translate(9.5348 14.059) rotate(-13) translate(-6.7376 -12.79)">
<path d="m9.1222 6.5829c-2.5921-0.69737-5.7142-0.71031-7.7462 3.0864-2.0321 3.7967-1.846 14.093 0.85521 15.558 2.7012 1.4649 8.9961-6.1294 10.707-10.263 1.7104-4.1336-1.2234-7.684-3.8155-8.3814z" fill="#fff"/>
<path d="m8.7528 7.371c-2.8033 1.2171-4.6053 3.2431-5.406 6.078-0.80072 2.8348-0.90502 6.582-0.31291 11.241 5.5475-2.6672 8.7146-6.0385 9.5013-10.114s-0.47405-6.4771-3.7824-7.2057z" fill="#01B26D"/>
<path d="m11.354 1.5041c-0.65304 0.95172-1.0877 1.6788-1.3041 2.1812-0.21636 0.50238-0.37264 1.3773-0.46884 2.6248l-2.542-0.47808 1.1808-2.8674 0.69775-2.9526 2.4364 1.4921z" fill="#01B26D"/>
<path d="m8.4457 0.96866l-0.17046 0.25169c-0.428 0.63195-0.26266 1.4912 0.36929 1.9192 0.056415 0.038208 0.11558 0.072191 0.17701 0.10167l2.1367 1.0255c0.58647 0.28146 1.2901 0.034207 1.5715-0.55226 0.076333-0.15905 0.11596-0.33322 0.11596-0.50963v-0.80843c0-0.64372-0.3876-1.2241-0.9822-1.4707l-1.2895-0.53486c-0.69846-0.28971-1.5043-0.048209-1.9284 0.57788z" stroke="#1F2436" stroke-width="2.2291"/>
<path d="m7.5392 3.9482l-0.087923 0.12982c-0.3887 0.57392-0.23854 1.3543 0.33538 1.743 0.051235 0.0347 0.10497 0.065563 0.16075 0.092337l1.9405 0.93132c0.53262 0.25562 1.1716 0.031066 1.4272-0.50155 0.069324-0.14445 0.10531-0.30262 0.10531-0.46284v-0.63656c0-0.64372-0.3876-1.2241-0.9822-1.4707l-0.97072-0.40264c-0.69846-0.28971-1.5043-0.048209-1.9284 0.57788z" stroke="#1F2436" stroke-width="2.2291"/>
<path d="m9.1222 6.5829c-2.5921-0.69737-5.7142-0.71031-7.7462 3.0864-2.0321 3.7967-1.846 14.093 0.85521 15.558 2.7012 1.4649 8.9961-6.1294 10.707-10.263 1.7104-4.1336-1.2234-7.684-3.8155-8.3814z" stroke="#1F2436" stroke-width="2.3884"/>
</g>
</g>
<g transform="translate(35.365 26.759) rotate(-9) translate(-32.393 -21.664)">
<g transform="translate(8.9403 20.359) rotate(4) translate(-7.1264 -13.573)">
<path d="m9.6485 6.9859c-2.7416-0.74007-6.0438-0.75379-8.1931 3.2754-2.1493 4.0292-1.9525 14.956 0.90455 16.51 2.8571 1.5546 9.5151-6.5047 11.324-10.891 1.8091-4.3867-1.294-8.1545-4.0356-8.8945z" fill="#fff"/>
<path d="m9.2578 7.8223c-2.965 1.2917-4.871 3.4417-5.7179 6.4501-0.84691 3.0084-0.95723 6.9849-0.33096 11.93 5.8675-2.8305 9.2173-6.4082 10.049-10.733 0.83214-4.3247-0.5014-6.8737-4.0006-7.6468z" fill="#01B26D"/>
<path d="m12.009 1.5962c-0.69072 1.01-1.1505 1.7816-1.3793 2.3147-0.22884 0.53314-0.39414 1.4616-0.49588 2.7855l-2.6886-0.50735 1.2489-3.043 0.73801-3.1333 2.577 1.5835z" fill="#01B26D"/>
<path d="m8.9335 1.0271l-0.18086 0.26793c-0.45399 0.67257-0.2768 1.5858 0.39577 2.0398 0.058884 0.039747 0.12057 0.075171 0.18458 0.10599l2.2526 1.0847c0.62109 0.29907 1.367 0.038028 1.6661-0.58306 0.081346-0.16893 0.12359-0.35402 0.12359-0.54152v-0.86449c0-0.6793-0.40861-1.2919-1.0358-1.5529l-1.3656-0.56833c-0.73909-0.30758-1.5925-0.051656-2.0404 0.61186z" stroke="#1F2436" stroke-width="2.3549"/>
<path d="m7.9747 4.1891l-0.093554 0.1386c-0.41231 0.61081-0.25138 1.4402 0.35943 1.8525 0.053477 0.036097 0.1095 0.068269 0.16763 0.096261l2.0458 0.98511c0.56406 0.27161 1.2415 0.034537 1.5131-0.52952 0.073877-0.15342 0.11224-0.32151 0.11224-0.4918v-0.6821c0-0.6793-0.40861-1.2919-1.0358-1.5529l-1.0285-0.42801c-0.73909-0.30758-1.5925-0.051656-2.0404 0.61186z" stroke="#1F2436" stroke-width="2.3549"/>
<path d="m9.6485 6.9859c-2.7416-0.74007-6.0438-0.75379-8.1931 3.2754-2.1493 4.0292-1.9525 14.956 0.90455 16.51 2.8571 1.5546 9.5151-6.5047 11.324-10.891 1.8091-4.3867-1.294-8.1545-4.0356-8.8945z" stroke="#1F2436" stroke-width="2.5231"/>
</g>
<path d="m64.779 43.153c-12.814-2.7538-23.43-7.4335-31.847-14.039-8.417-6.6057-16.434-16.306-24.05-29.101" stroke="#1F2436" stroke-linecap="round" stroke-linejoin="round" stroke-width="3.4224"/>
</g>
</g>
<g transform="translate(54.679 59.903) scale(-1 1) translate(-54.679 -42.415)">
<g transform="translate(76.419 49.563) rotate(-32) translate(-21.509 -27.798)">
<g transform="translate(30.304 41.728) rotate(16) translate(-6.6081 -12.398)">
<path d="m8.8019 6.3722c-2.501-0.67506-5.5135-0.68758-7.4742 2.9877-1.9607 3.6752-1.7812 13.642 0.82517 15.06 2.6064 1.418 8.6801-5.9332 10.33-9.9346 1.6503-4.0013-1.1805-7.4381-3.6815-8.1132z" fill="#fff"/>
<path d="m8.4454 7.1351c-2.7048 1.1782-4.4435 3.1393-5.2161 5.8835-0.77259 2.7441-0.87323 6.3713-0.30192 10.882 5.3526-2.5819 8.4085-5.8452 9.1676-9.79s-0.45741-6.2698-3.6496-6.9751z" fill="#01B26D"/>
<path d="m10.955 1.456c-0.63011 0.92127-1.0495 1.6251-1.2583 2.1114-0.20876 0.48631-0.35955 1.3332-0.45237 2.5408l-2.4527-0.46278 1.1393-2.7757 0.67325-2.8581 2.3509 1.4444z" fill="#01B26D"/>
<path d="m8.1465 0.94152l-0.16187 0.23978c-0.41412 0.61343-0.25254 1.4464 0.36089 1.8605 0.05374 0.036279 0.11004 0.068609 0.16846 0.096737l2.0552 0.98953c0.56657 0.27279 1.247 0.034638 1.5198-0.53193 0.074191-0.15409 0.11272-0.32291 0.11272-0.49393v-0.78384c0-0.62248-0.37444-1.1838-0.94914-1.423l-1.2365-0.51452c-0.6772-0.2818-1.4592-0.047311-1.8696 0.56062z" stroke="#1F2436" stroke-width="2.1578"/>
<path d="m7.2718 3.8258l-0.082227 0.1218c-0.37609 0.55711-0.22935 1.3136 0.32775 1.6897 0.048805 0.032947 0.099937 0.062309 0.15299 0.087855l1.8665 0.89867c0.51454 0.24774 1.1325 0.031457 1.3802-0.48308 0.067378-0.13994 0.10237-0.29326 0.10237-0.44858v-0.61747c0-0.62248-0.37444-1.1838-0.94914-1.423l-0.92888-0.38653c-0.6772-0.2818-1.4592-0.047311-1.8696 0.56062z" stroke="#1F2436" stroke-width="2.1578"/>
<path d="m8.8019 6.3722c-2.501-0.67506-5.5135-0.68758-7.4742 2.9877-1.9607 3.6752-1.7812 13.642 0.82517 15.06 2.6064 1.418 8.6801-5.9332 10.33-9.9346 1.6503-4.0013-1.1805-7.4381-3.6815-8.1132z" stroke="#1F2436" stroke-width="2.3119"/>
</g>
<g transform="translate(7.4131 22.903) rotate(20) translate(-4.6645 -8.744)">
<path d="m6.2215 4.4864c-1.7679-0.47528-3.8972-0.4841-5.2831 2.1035-1.3859 2.5876-1.259 9.6049 0.58327 10.603 1.8423 0.99839 6.1355-4.1774 7.302-6.9946 1.1665-2.8172-0.8344-5.2369-2.6022-5.7122z" fill="#fff"/>
<path d="m5.9696 5.0236c-1.9119 0.82952-3.1409 2.2103-3.687 4.1423-0.5461 1.932-0.61724 4.4858-0.21341 7.6614 3.7835-1.8178 5.9435-4.1154 6.4801-6.8928 0.53658-2.7774-0.32331-4.4144-2.5797-4.9109z" fill="#01B26D"/>
<path d="m7.7434 1.0251c-0.44539 0.64863-0.74186 1.1441-0.88943 1.4865-0.14756 0.34239-0.25415 0.93869-0.31975 1.7889l-1.7337-0.32583 0.8053-1.9543 0.47588-2.0123 1.6617 1.0169z" fill="#01B26D"/>
<path d="m5.7634 0.65534l-0.11953 0.17637c-0.29172 0.43043-0.17928 1.0158 0.25115 1.3076 0.038583 0.02615 0.079055 0.049398 0.12108 0.069554l1.4583 0.69939c0.39987 0.19177 0.8795 0.023076 1.0713-0.3768 0.051977-0.10838 0.07896-0.22704 0.07896-0.34724v-0.55496c0-0.43628-0.26276-0.82962-0.66579-0.99667l-0.88926-0.36858c-0.47311-0.1961-1.0189-0.032567-1.3062 0.39138z" stroke="#1F2436" stroke-width="1.5105"/>
<path d="m5.1451 2.686l-0.06324 0.093309c-0.26494 0.3909-0.16282 0.92257 0.22809 1.1875 0.035041 0.023749 0.071796 0.044862 0.10996 0.063167l1.3244 0.63517c0.36316 0.17417 0.79874 0.020957 0.97291-0.3422 0.047204-0.098426 0.07171-0.20619 0.07171-0.31535v-0.43783c0-0.43628-0.26276-0.82962-0.66579-0.99667l-0.67185-0.27847c-0.47311-0.1961-1.0189-0.032567-1.3062 0.39138z" stroke="#1F2436" stroke-width="1.5105"/>
<path d="m6.2215 4.4864c-1.7679-0.47528-3.8972-0.4841-5.2831 2.1035-1.3859 2.5876-1.259 9.6049 0.58327 10.603 1.8423 0.99839 6.1355-4.1774 7.302-6.9946 1.1665-2.8172-0.8344-5.2369-2.6022-5.7122z" stroke="#1F2436" stroke-width="1.6183"/>
</g>
<path d="m42.814 31.928c-8.9299-1.9208-16.328-5.1851-22.193-9.7927-5.8654-4.6077-11.044-11.984-15.534-22.128" stroke="#1F2436" stroke-linecap="round" stroke-linejoin="round" stroke-width="2.7491"/>
</g>
<g transform="translate(29.494 31.959) rotate(-9) translate(-25.266 -28.32)">
<g transform="translate(6.0898 18.402) rotate(2) translate(-5.5715 -10.571)">
<path d="m7.4845 5.451c-2.1267-0.57747-4.6883-0.58818-6.3555 2.5558-1.6672 3.1439-1.5146 11.67 0.70167 12.883 2.2163 1.213 7.381-5.0755 8.7843-8.4984 1.4033-3.4229-1.0038-6.3629-3.1305-6.9403z" fill="#fff"/>
<path d="m7.1813 6.1037c-2.3 1.0079-3.7785 2.6855-4.4354 5.0329-0.65696 2.3474-0.74254 5.4503-0.25673 9.3086 4.5515-2.2086 7.15-5.0002 7.7955-8.3748 0.6455-3.3745-0.38894-5.3634-3.1033-5.9667z" fill="#E32743"/>
<path d="m9.3152 1.2455c-0.5358 0.78809-0.89246 1.3901-1.07 1.8061s-0.30574 1.1405-0.38466 2.1735l-2.0856-0.39588 0.96877-2.3744 0.57248-2.4449 1.999 1.2356z" fill="#01B26D"/>
<path d="m6.925 0.80862l-0.13549 0.2019c-0.35396 0.52747-0.2133 1.242 0.31417 1.596 0.044577 0.029913 0.091193 0.056669 0.13951 0.080071l1.7373 0.84148c0.48285 0.23388 1.0639 0.032049 1.2978-0.4508 0.063944-0.13201 0.097162-0.27679 0.097162-0.42348v-0.67543c0-0.52972-0.31805-1.0077-0.80668-1.2122l-1.045-0.43747c-0.57912-0.24243-1.2488-0.041373-1.5987 0.47995z" stroke="#1F2436" stroke-width="1.8398"/>
<path d="m6.1813 3.2759l-0.067766 0.10099c-0.32146 0.47904-0.19372 1.128 0.28532 1.4494 0.040484 0.027167 0.08282 0.051466 0.1267 0.072719l1.5777 0.76422c0.43852 0.21241 0.96619 0.029107 1.1786-0.40941 0.058072-0.11989 0.08824-0.25138 0.08824-0.38459v-0.53311c0-0.52972-0.31805-1.0077-0.80668-1.2122l-0.78348-0.32798c-0.57912-0.24243-1.2488-0.041373-1.5987 0.47995z" stroke="#1F2436" stroke-width="1.8398"/>
<path d="m7.4845 5.451c-2.1267-0.57747-4.6883-0.58818-6.3555 2.5558-1.6672 3.1439-1.5146 11.67 0.70167 12.883 2.2163 1.213 7.381-5.0755 8.7843-8.4984 1.4033-3.4229-1.0038-6.3629-3.1305-6.9403z" stroke="#1F2436" stroke-width="1.9712"/>
</g>
<g transform="translate(33.04 41.893) rotate(-22) translate(-6.8672 -12.92)">
<path d="m9.2713 6.6745c-2.6344-0.70708-5.8075-0.72019-7.8727 3.1294-2.0652 3.8496-1.8762 14.289 0.86918 15.775 2.7453 1.4853 9.143-6.2147 10.881-10.406 1.7384-4.1911-1.2434-7.791-3.8778-8.4981z" fill="#fff"/>
<path d="m8.8958 7.4736c-2.8491 1.2341-4.6805 3.2883-5.4943 6.1626-0.8138 2.8743-0.9198 6.6736-0.31802 11.398 5.6381-2.7044 8.8569-6.1225 9.6565-10.254 0.7996-4.1319-0.4818-6.5673-3.8442-7.306z" fill="#E32743"/>
<path d="m11.539 1.525c-0.66371 0.96497-1.1055 1.7021-1.3254 2.2115-0.2199 0.50937-0.37873 1.3965-0.47649 2.6613l-2.5835-0.48474 1.2001-2.9074 0.70915-2.9937 2.4762 1.5129z" fill="#01B26D"/>
<path d="m8.5894 0.97362l-0.17903 0.26372c-0.43409 0.63943-0.26764 1.5097 0.37179 1.9438 0.057868 0.039285 0.1186 0.074177 0.18169 0.10438l2.1767 1.0422c0.59551 0.28512 1.3094 0.033505 1.5945-0.562 0.077164-0.16116 0.11722-0.33758 0.11722-0.51626v-0.8242c0-0.64985-0.39158-1.2357-0.99205-1.4841l-1.3278-0.54945c-0.70374-0.2912-1.5152-0.048138-1.943 0.58198z" stroke="#1F2436" stroke-width="2.2486"/>
<path d="m7.6681 3.9947l-0.095145 0.14015c-0.39423 0.58071-0.24306 1.3711 0.33765 1.7653 0.052555 0.035678 0.10771 0.067366 0.165 0.094797l1.9768 0.94648c0.54083 0.25894 1.1892 0.030428 1.4481-0.5104 0.070078-0.14637 0.10646-0.30658 0.10646-0.46886v-0.64994c0-0.64985-0.39158-1.2357-0.99205-1.4841l-1.0039-0.41539c-0.70374-0.2912-1.5152-0.048138-1.943 0.58198z" stroke="#1F2436" stroke-width="2.2486"/>
<path d="m9.2713 6.6745c-2.6344-0.70708-5.8075-0.72019-7.8727 3.1294-2.0652 3.8496-1.8762 14.289 0.86918 15.775 2.7453 1.4853 9.143-6.2147 10.881-10.406 1.7384-4.1911-1.2434-7.791-3.8778-8.4981z" stroke="#1F2436" stroke-width="2.4093"/>
</g>
<path d="m50.529 35.164c-10.434-2.244-19.078-6.0573-25.932-11.44-6.8536-5.3828-13.381-13.287-19.583-23.714" stroke="#1F2436" stroke-linecap="round" stroke-linejoin="round" stroke-width="3.2153"/>
</g>
</g>
</g>
<g transform="translate(2.0731 19.054)">
<g transform="translate(27.617 64.983) rotate(-11) translate(-25.137 -15.53)">
<path d="m46.955 0.57918c-6.9346-1.8265-18.295 1.1275-29.03 6.2611-10.063 4.812-17.481 10.741-17.762 17.333-0.041744 0.97962 0.24858 2.2742 0.87097 3.8836l1.731e-5 -6.7e-6c0.87902 2.2731 3.4343 3.4033 5.7075 2.5242 0.87064-0.33668 1.6121-0.94077 2.1177-1.7254 2.6341-4.0875 3.4205-6.9602 5.3007-8.2597 4.1529-2.8703 13.07-3.4987 16.77-5.134 3.4323-1.5169 6.2249-3.726 10.148-6.0714 0.9849-0.58887 3.1693-1.87 6.5532-3.8433l2.2e-5 3.763e-5c1.2947-0.755 1.7322-2.4166 0.9772-3.7113-0.36253-0.62167-0.95715-1.0739-1.6531-1.2572z" fill="#FFFCF2"/>
<path d="m46.904 3.6561c-0.69429 0.062409-1.0926 0.1083-1.1949 0.13768-4.2085 1.2089-11.835 6.5462-15.454 7.7026-7.0368 2.2481-11.055 1.2155-16.095 3.3641-8.8071 3.7546-13.578 8.5305-13.683 10.988-0.019749 0.46346 0.029139 0.96704 0.14666 1.5107l1.1564e-5 -2.5e-6c0.52859 2.4454 2.9395 3.9994 5.385 3.4708 1.1745-0.25386 2.1999-0.96392 2.8508-1.9739 2.6341-4.0875 3.4205-6.9602 5.3007-8.2597 4.1529-2.8703 13.07-3.4987 16.77-5.134 3.4323-1.5169 6.2249-3.726 10.148-6.0714 0.97479-0.58282 3.1246-1.8437 6.4494-3.7827 0.50077-0.29205 0.66998-0.93476 0.37793-1.4355-0.20513-0.35173-0.59516-0.5531-1.0007-0.51664z" fill="#EEDCD8"/>
</g>
<g transform="translate(85.123 35.985) rotate(-11) translate(-44.183 -27.929)">
<path d="m84.718 1.0415c-12.512-3.2846-33.009 2.0276-52.378 11.259-18.156 8.6536-31.539 19.316-32.046 31.171-0.075231 1.7597 0.44732 4.0845 1.5677 6.9743l3.072e-5 -1.19e-5c1.5909 4.1036 6.2071 6.1405 10.311 4.5496 1.5658-0.60702 2.8998-1.6932 3.8115-3.1034 4.7525-7.3506 6.1713-12.517 9.5636-14.854 7.4928-5.1617 23.582-6.2918 30.257-9.2325 6.1926-2.7278 11.231-6.7005 18.309-10.918 1.7764-1.0586 5.7155-3.3612 11.817-6.9078l2.5e-5 4.297e-5c2.33-1.3543 3.121-4.341 1.7667-6.671-0.65218-1.1221-1.7245-1.9381-2.9798-2.2676z" fill="#FFFCF2"/>
<path d="m84.633 6.5742c-1.257 0.11255-1.9779 0.19529-2.1628 0.24822-7.5932 2.1739-21.352 11.772-27.883 13.852-12.696 4.0428-19.947 2.1859-29.04 6.0498-15.89 6.752-24.499 15.341-24.688 19.76-0.035177 0.82283 0.050347 1.716 0.25657 2.6795l6.03e-6 -1.3e-6c0.94551 4.4174 5.293 7.2319 9.7104 6.2864 2.123-0.4544 3.9782-1.7342 5.1569-3.5573 4.7525-7.3506 6.1713-12.517 9.5636-14.854 7.4928-5.1617 23.582-6.2918 30.257-9.2325 6.1926-2.7278 11.231-6.7005 18.309-10.918 1.7587-1.0481 5.6375-3.3156 11.636-6.8026 0.90105-0.52376 1.2069-1.6788 0.68313-2.5798-0.36825-0.63351-1.0699-0.99657-1.7998-0.93122z" fill="#EEDCD8"/>
</g>
</g>
<g transform="translate(211.07 61.6) scale(-1 1) translate(-66.988 -42.546)">
<g transform="translate(27.617 64.983) rotate(-11) translate(-25.137 -15.53)">
<path d="m46.955 0.57918c-6.9346-1.8265-18.295 1.1275-29.03 6.2611-10.063 4.812-17.481 10.741-17.762 17.333-0.041744 0.97962 0.24858 2.2742 0.87097 3.8836l1.731e-5 -6.7e-6c0.87902 2.2731 3.4343 3.4033 5.7075 2.5242 0.87064-0.33668 1.6121-0.94077 2.1177-1.7254 2.6341-4.0875 3.4205-6.9602 5.3007-8.2597 4.1529-2.8703 13.07-3.4987 16.77-5.134 3.4323-1.5169 6.2249-3.726 10.148-6.0714 0.9849-0.58887 3.1693-1.87 6.5532-3.8433l2.2e-5 3.763e-5c1.2947-0.755 1.7322-2.4166 0.9772-3.7113-0.36253-0.62167-0.95715-1.0739-1.6531-1.2572z" fill="#FFFCF2"/>
<path d="m46.904 3.6561c-0.69429 0.062409-1.0926 0.1083-1.1949 0.13768-4.2085 1.2089-11.835 6.5462-15.454 7.7026-7.0368 2.2481-11.055 1.2155-16.095 3.3641-8.8071 3.7546-13.578 8.5305-13.683 10.988-0.019749 0.46346 0.029139 0.96704 0.14666 1.5107l1.1564e-5 -2.5e-6c0.52859 2.4454 2.9395 3.9994 5.385 3.4708 1.1745-0.25386 2.1999-0.96392 2.8508-1.9739 2.6341-4.0875 3.4205-6.9602 5.3007-8.2597 4.1529-2.8703 13.07-3.4987 16.77-5.134 3.4323-1.5169 6.2249-3.726 10.148-6.0714 0.97479-0.58282 3.1246-1.8437 6.4494-3.7827 0.50077-0.29205 0.66998-0.93476 0.37793-1.4355-0.20513-0.35173-0.59516-0.5531-1.0007-0.51664z" fill="#EEDCD8"/>
</g>
<g transform="translate(85.123 35.985) rotate(-11) translate(-44.183 -27.929)">
<path d="m84.718 1.0415c-12.512-3.2846-33.009 2.0276-52.378 11.259-18.156 8.6536-31.539 19.316-32.046 31.171-0.075231 1.7597 0.44732 4.0845 1.5677 6.9743l3.072e-5 -1.19e-5c1.5909 4.1036 6.2071 6.1405 10.311 4.5496 1.5658-0.60702 2.8998-1.6932 3.8115-3.1034 4.7525-7.3506 6.1713-12.517 9.5636-14.854 7.4928-5.1617 23.582-6.2918 30.257-9.2325 6.1926-2.7278 11.231-6.7005 18.309-10.918 1.7764-1.0586 5.7155-3.3612 11.817-6.9078l2.5e-5 4.297e-5c2.33-1.3543 3.121-4.341 1.7667-6.671-0.65218-1.1221-1.7245-1.9381-2.9798-2.2676z" fill="#FFFCF2"/>
<path d="m84.633 6.5742c-1.257 0.11255-1.9779 0.19529-2.1628 0.24822-7.5932 2.1739-21.352 11.772-27.883 13.852-12.696 4.0428-19.947 2.1859-29.04 6.0498-15.89 6.752-24.499 15.341-24.688 19.76-0.035177 0.82283 0.050347 1.716 0.25657 2.6795l6.03e-6 -1.3e-6c0.94551 4.4174 5.293 7.2319 9.7104 6.2864 2.123-0.4544 3.9782-1.7342 5.1569-3.5573 4.7525-7.3506 6.1713-12.517 9.5636-14.854 7.4928-5.1617 23.582-6.2918 30.257-9.2325 6.1926-2.7278 11.231-6.7005 18.309-10.918 1.7587-1.0481 5.6375-3.3156 11.636-6.8026 0.90105-0.52376 1.2069-1.6788 0.68313-2.5798-0.36825-0.63351-1.0699-0.99657-1.7998-0.93122z" fill="#EEDCD8"/>
</g>
</g>
<g transform="translate(210.55 59.512) scale(-1 1) translate(-70.357 -44.634)">
<g transform="translate(29.025 68.167) rotate(-11) translate(-26.432 -16.248)">
<path d="m49.303 0.60813c-7.2814-1.9178-19.21 1.1839-30.482 6.5741-10.566 5.0526-18.355 11.278-18.65 18.2-0.043831 1.0286 0.26101 2.3879 0.91452 4.0778l1.818e-5 -7e-6c0.92297 2.3868 3.6061 3.5734 5.9928 2.6504 0.91417-0.35351 1.6927-0.98781 2.2236-1.8117 2.7658-4.2919 3.5915-7.3082 5.5657-8.6727 4.3605-3.0138 13.724-3.6737 17.609-5.3906 3.6039-1.5927 6.5361-3.9123 10.655-6.375 1.0341-0.61831 3.3278-1.9635 6.8809-4.0355l2.31e-5 3.952e-5c1.3594-0.79275 1.8188-2.5374 1.0261-3.8969-0.38066-0.65276-1.005-1.1276-1.7357-1.32z" fill="#F0E8E6"/>
<path d="m49.25 3.8389c-0.729 0.065529-1.1472 0.11372-1.2546 0.14457-4.419 1.2693-12.426 6.8735-16.227 8.0877-7.3887 2.3605-11.608 1.2763-16.9 3.5324-9.2475 3.9424-14.257 8.957-14.367 11.537-0.020736 0.48663 0.030596 1.0154 0.154 1.5863l1.2143e-5 -2.6e-6c0.55502 2.5677 3.0865 4.1993 5.6542 3.6443 1.2332-0.26656 2.3099-1.0121 2.9934-2.0726 2.7658-4.2919 3.5915-7.3082 5.5657-8.6727 4.3605-3.0138 13.724-3.6737 17.609-5.3906 3.6039-1.5927 6.5361-3.9123 10.655-6.375 1.0235-0.61196 3.2808-1.9359 6.7718-3.9719 0.52581-0.30665 0.70348-0.98149 0.39682-1.5073-0.21538-0.36932-0.62492-0.58075-1.0507-0.54248z" fill="#E4DAD7"/>
</g>
<g transform="translate(89.443 37.812) rotate(-11) translate(-46.451 -29.364)">
<path d="m88.954 1.0936c-8.4202-2.2105-16.502 5.6436-30.681 6.466-6.2848 0.36452-23.043 4.5378-30.346 8.0183-19.063 9.0863-27.086 17.62-27.619 30.067-0.078992 1.8477 0.46969 4.2887 1.646 7.323l3.225e-5 -1.25e-5c1.6704 4.3087 6.5175 6.4475 10.826 4.7771 1.6441-0.63737 3.0447-1.7778 4.0021-3.2586 4.9902-7.7182 6.4799-13.143 10.042-15.596 7.8674-5.4198 24.761-6.6064 31.77-9.6941 6.5022-2.8642 11.793-7.0355 19.224-11.464 1.8652-1.1115 6.0012-3.5293 12.408-7.2532l2.63e-5 4.51e-5c2.4465-1.422 3.277-4.558 1.855-7.0045-0.68479-1.1782-1.8107-2.035-3.1288-2.381z" fill="#F0E8E6"/>
<path d="m88.865 6.9029c-1.3198 0.11818-2.0768 0.20505-2.2709 0.26063-7.9728 2.2826-22.42 12.361-29.277 14.544-13.331 4.245-20.944 2.2952-30.492 6.3523-16.685 7.0896-25.724 16.108-25.922 20.748-0.036936 0.86397 0.052864 1.8018 0.2694 2.8134l6.32e-6 -1.3e-6c0.99278 4.6383 5.5577 7.5935 10.196 6.6008 2.2291-0.47712 4.1771-1.8209 5.4148-3.7352 4.9902-7.7182 6.4799-13.143 10.042-15.596 7.8674-5.4198 24.761-6.6064 31.77-9.6941 6.5022-2.8642 11.793-7.0355 19.224-11.464 1.8467-1.1005 5.9193-3.4814 12.218-7.1427 0.9461-0.54995 1.2672-1.7627 0.71729-2.7088-0.38666-0.66519-1.1234-1.0464-1.8898-0.97778z" fill="#E4DAD7"/>
</g>
</g>
<g transform="translate(0 14.878)">
<g transform="translate(29.025 68.167) rotate(-11) translate(-26.432 -16.248)">
<path d="m49.303 0.60813c-7.2814-1.9178-19.21 1.1839-30.482 6.5741-10.566 5.0526-18.355 11.278-18.65 18.2-0.043831 1.0286 0.26101 2.3879 0.91452 4.0778l1.818e-5 -7e-6c0.92297 2.3868 3.6061 3.5734 5.9928 2.6504 0.91417-0.35351 1.6927-0.98781 2.2236-1.8117 2.7658-4.2919 3.5915-7.3082 5.5657-8.6727 4.3605-3.0138 13.724-3.6737 17.609-5.3906 3.6039-1.5927 6.5361-3.9123 10.655-6.375 1.0341-0.61831 3.3278-1.9635 6.8809-4.0355l2.31e-5 3.952e-5c1.3594-0.79275 1.8188-2.5374 1.0261-3.8969-0.38066-0.65276-1.005-1.1276-1.7357-1.32z" fill="#F0E8E6"/>
<path d="m49.25 3.8389c-0.729 0.065529-1.1472 0.11372-1.2546 0.14457-4.419 1.2693-12.426 6.8735-16.227 8.0877-7.3887 2.3605-11.608 1.2763-16.9 3.5324-9.2475 3.9424-14.257 8.957-14.367 11.537-0.020736 0.48663 0.030596 1.0154 0.154 1.5863l1.2143e-5 -2.6e-6c0.55502 2.5677 3.0865 4.1993 5.6542 3.6443 1.2332-0.26656 2.3099-1.0121 2.9934-2.0726 2.7658-4.2919 3.5915-7.3082 5.5657-8.6727 4.3605-3.0138 13.724-3.6737 17.609-5.3906 3.6039-1.5927 6.5361-3.9123 10.655-6.375 1.0235-0.61196 3.2808-1.9359 6.7718-3.9719 0.52581-0.30665 0.70348-0.98149 0.39682-1.5073-0.21538-0.36932-0.62492-0.58075-1.0507-0.54248z" fill="#E4DAD7"/>
</g>
<g transform="translate(89.443 37.812) rotate(-11) translate(-46.451 -29.364)">
<path d="m88.954 1.0936c-8.4202-2.2105-16.502 5.6436-30.681 6.466-6.2848 0.36452-23.043 4.5378-30.346 8.0183-19.063 9.0863-27.086 17.62-27.619 30.067-0.078992 1.8477 0.46969 4.2887 1.646 7.323l3.225e-5 -1.25e-5c1.6704 4.3087 6.5175 6.4475 10.826 4.7771 1.6441-0.63737 3.0447-1.7778 4.0021-3.2586 4.9902-7.7182 6.4799-13.143 10.042-15.596 7.8674-5.4198 24.761-6.6064 31.77-9.6941 6.5022-2.8642 11.793-7.0355 19.224-11.464 1.8652-1.1115 6.0012-3.5293 12.408-7.2532l2.63e-5 4.51e-5c2.4465-1.422 3.277-4.558 1.855-7.0045-0.68479-1.1782-1.8107-2.035-3.1288-2.381z" fill="#F0E8E6"/>
<path d="m88.865 6.9029c-1.3198 0.11818-2.0768 0.20505-2.2709 0.26063-7.9728 2.2826-22.42 12.361-29.277 14.544-13.331 4.245-20.944 2.2952-30.492 6.3523-16.685 7.0896-25.724 16.108-25.922 20.748-0.036936 0.86397 0.052864 1.8018 0.2694 2.8134l6.32e-6 -1.3e-6c0.99278 4.6383 5.5577 7.5935 10.196 6.6008 2.2291-0.47712 4.1771-1.8209 5.4148-3.7352 4.9902-7.7182 6.4799-13.143 10.042-15.596 7.8674-5.4198 24.761-6.6064 31.77-9.6941 6.5022-2.8642 11.793-7.0355 19.224-11.464 1.8467-1.1005 5.9193-3.4814 12.218-7.1427 0.9461-0.54995 1.2672-1.7627 0.71729-2.7088-0.38666-0.66519-1.1234-1.0464-1.8898-0.97778z" fill="#E4DAD7"/>
</g>
</g>
<path d="m140.71 34.75l-11.159 3.9671c-0.67864 0.24125-1.4244-0.11331-1.6656-0.79195-0.053519-0.15055-0.078917-0.30964-0.074931-0.46937l0.29771-11.928-7.2077-9.4818c-0.43587-0.57339-0.32439-1.3915 0.249-1.8274 0.12456-0.094689 0.26515-0.16619 0.41504-0.21108l11.357-3.4015 6.712-9.8148c0.40657-0.59452 1.2181-0.74688 1.8126-0.3403 0.13356 0.091341 0.24896 0.20674 0.3403 0.3403l6.712 9.8148 11.357 3.4015c0.68996 0.20665 1.0818 0.93349 0.87512 1.6235-0.044892 0.14989-0.11639 0.29048-0.21108 0.41504l-7.2077 9.4818 0.29771 11.928c0.017971 0.72002-0.55115 1.3183-1.2712 1.3363-0.15972 0.0039867-0.31882-0.021412-0.46937-0.07493l-11.159-3.9671z" fill="#E7B33F"/>
<path d="m133.24 24.847l-4.135 14.304c-0.6215 0.093426-1.2011-0.33466-1.2945-0.95616-0.009827-0.06537-0.013939-0.13147-0.012289-0.19756l0.31123-12.47-7.2077-9.4818c-0.43587-0.57339-0.32439-1.3915 0.249-1.8274 0.12456-0.094689 0.26515-0.16619 0.41504-0.21108l11.357-3.4015 5.7622-8.4258c0.25892-0.37861 0.77574-0.47564 1.1543-0.21672 0.26186 0.17908 0.39883 0.4917 0.35296 0.80561 0 0-1.2829 3.6636-3.8486 10.991l-9.7216 2.7896 6.6177 8.2981z" fill="#FFD000"/>
<path transform="translate(151.16 20.487) scale(-1 1) translate(-151.16 -20.487)" d="m153.97 24.847l-4.135 14.304c-0.6215 0.093426-1.2011-0.33466-1.2945-0.95616-0.009826-0.06537-0.013938-0.13147-0.012289-0.19756l0.31123-12.47-7.2077-9.4818c-0.43587-0.57339-0.32439-1.3915 0.249-1.8274 0.12456-0.094689 0.26515-0.16619 0.41504-0.21108l11.357-3.4015 5.7622-8.4258c0.25892-0.37861 0.77574-0.47564 1.1543-0.21672 0.26186 0.17908 0.39883 0.4917 0.35296 0.80561 0 0-1.2829 3.6636-3.8486 10.991l-9.7216 2.7896 6.6177 8.2981z" fill="#FFD000"/>
<path d="m140.71 34.75l-11.159 3.9671c-0.67864 0.24125-1.4244-0.11331-1.6656-0.79195-0.053519-0.15055-0.078917-0.30964-0.074931-0.46937l0.29771-11.928-7.2077-9.4818c-0.43587-0.57339-0.32439-1.3915 0.249-1.8274 0.12456-0.094689 0.26515-0.16619 0.41504-0.21108l11.357-3.4015 6.712-9.8148c0.40657-0.59452 1.2181-0.74688 1.8126-0.3403 0.13356 0.091341 0.24896 0.20674 0.3403 0.3403l6.712 9.8148 11.357 3.4015c0.68996 0.20665 1.0818 0.93349 0.87512 1.6235-0.044892 0.14989-0.11639 0.29048-0.21108 0.41504l-7.2077 9.4818 0.29771 11.928c0.017971 0.72002-0.55115 1.3183-1.2712 1.3363-0.15972 0.0039867-0.31882-0.021412-0.46937-0.07493l-11.159-3.9671z" stroke="#1F2436" stroke-width="4.4024"/>
</g>
</g>
</g>
<g transform="translate(335 48)" fill-rule="nonzero">
<g transform="translate(76.5 93) rotate(-3) translate(-71.5 -89)">
<path d="m30.356 7.7718c11.289 17.8 23.582 21.561 32.112 21.561 6.2719 0 10.537-2.0056 10.537-2.0056-17.561 21.561 10.537 42.62 10.537 42.62-7.0246 2.0056-12.042 7.0197-15.554 12.786 1.7561-0.75211 3.5123-1.0028 5.2684-1.0028 7.7772 0 14.049 5.7662 15.053 13.037 1.2544 0.2507 2.7596 0.50141 4.014 0.50141 9.0316 0 17.311-6.0169 17.311-6.0169 0.50176 17.048 25.589 27.327 25.589 27.327-1.2544-0.2507-2.2579-0.2507-3.2614-0.2507-15.053 0-20.321 18.552-20.321 18.552-6.5228-6.0169-12.042-8.0225-16.809-8.0225 0 0.75211 0.25088 1.5042 0.25088 2.2563 0 10.78-8.7807 19.555-19.568 19.555-3.0105 0-5.7702-0.75211-8.2789-1.7549-21.575 3.5099-22.83 23.315-22.83 23.315-4.7667-5.2648-12.042-6.769-18.816-6.769-9.5333 0-18.314 3.0085-18.314 3.0085 15.304-9.2761 6.0211-29.332 6.0211-29.332h1.0035c19.067 0 22.328-11.783 22.579-18.803-2.7596-3.2592-4.5158-7.5211-4.5158-12.034 0-6.2676 3.2614-11.783 8.0281-15.293-7.7772-3.0085-15.053-3.0085-15.053-3.0085 16.307-33.845-17.311-41.868-17.311-41.868 24.335-12.285 22.328-38.358 22.328-38.358zm0-6.2676c-0.75263 0-1.2544 0-2.007 0.2507-2.7596 1.0028-4.5158 3.5099-4.2649 6.5183 0 1.0028 1.2544 22.313-18.816 32.09-2.5088 1.2535-3.7632 3.7606-3.5123 6.2676 0.25088 2.7577 2.2579 4.7634 4.7667 5.5155 0 0 11.289 3.0085 15.304 11.783 2.5088 5.5155 1.7561 12.786-2.2579 21.31-1.0035 2.0056-0.75263 4.262 0.25088 6.0169 1.0035 1.7549 3.0105 3.0085 5.2684 3.0085 0 0 1.5053 0 3.7632 0.50141-1.7561 3.5099-2.7596 7.5211-2.7596 11.532 0 5.0141 1.5053 9.7775 4.2649 13.789-1.0035 7.2704-6.2719 10.53-16.056 10.53h-1.0035-0.25088c-2.007 0-4.014 1.0028-5.2684 2.7577-1.2544 1.7549-1.2544 4.0113-0.50175 6.0169 0.25088 0.50141 6.7737 15.293-3.5123 21.31-2.7596 1.7549-3.7632 5.2648-2.5088 8.0225 1.0035 2.2563 3.2614 3.7606 5.7702 3.7606 0.75263 0 1.5053 0 2.007-0.2507 0 0 8.0281-2.7577 16.307-2.7577 6.5228 0 11.289 1.5042 14.3 4.7634 1.2544 1.2535 3.0105 2.0056 4.7667 2.0056 0.75263 0 1.5053 0 2.007-0.2507 2.5088-0.75211 4.014-3.0085 4.2649-5.5155 0-1.5042 1.5053-13.789 15.805-17.048 2.7596 1.0028 5.7702 1.5042 8.7807 1.5042 12.293 0 22.83-8.7746 25.339-20.307 2.2579 1.0028 4.2649 2.7577 6.7737 4.7634 1.2544 1.0028 2.7596 1.7549 4.2649 1.7549 0.50175 0 1.2544 0 1.7561-0.2507 2.007-0.50141 3.7632-2.2563 4.2649-4.262 0 0 4.2649-14.039 14.3-14.039 0.75263 0 1.5053 0 2.2579 0.2507h1.0035c2.7596 0 5.2684-1.7549 6.0211-4.5127 1.0035-3.0084-0.75263-6.2676-3.7632-7.5211-6.0211-2.507-21.325-11.031-21.575-21.561 0-2.2563-1.5053-4.5127-3.5123-5.5155-1.0035-0.75211-2.007-1.0028-2.7596-1.0028-1.2544 0-2.7596 0.50141-3.7632 1.2535 0 0-6.2719 4.5127-12.544 4.7634-2.007-5.2648-6.0211-9.2761-11.039-11.532 1.0035-0.50141 2.2579-1.0028 3.2614-1.5042 2.2579-0.75211 4.014-2.507 4.5158-5.0141 0.50175-2.2563-0.50175-4.7634-2.5088-6.2676 0 0-12.293-9.5268-13.547-20.558-0.50175-4.5127 0.75263-8.7746 4.2649-13.037 1.7561-2.2563 1.7561-5.5155 0-8.0225-1.2544-1.5042-3.0105-2.2563-5.0175-2.2563-1.0035 0-2.007 0.2507-2.7596 0.75211 0 0-3.0105 1.5042-7.7772 1.5042-9.7842 0-19.067-6.5183-26.844-18.552-1.5053-1.7549-3.5123-2.7577-5.5193-2.7577z" fill="#640F13"/>
<g transform="translate(5.0175 5.0141)">
<path d="m35.123 85.992c3.0105-2.0056 6.5228-3.2592 10.537-3.2592 3.2614 0 6.5228 1.0028 9.0316 2.507 1.7561-3.2592 4.5158-6.0169 8.2789-7.2704 3.7632-5.7662 8.7807-10.78 15.554-12.786 0 0-28.098-21.059-10.537-42.62 0 0-23.081 11.532-42.9-19.304 0 0 2.007 26.324-22.328 38.107 0 0 33.618 8.2732 17.311 41.868 0-0.50141 7.2754-0.2507 15.053 2.7577z" fill="#7AB17B"/>
<path d="m35.123 87.496h-0.50175c-7.5263-2.7577-14.3-3.0085-14.551-3.0085-0.50175 0-1.0035-0.2507-1.2544-0.75211-0.25088-0.50141-0.25088-1.0028 0-1.5042 4.7667-10.028 5.5193-18.552 2.2579-25.572-5.0175-10.78-18.314-14.29-18.565-14.29-0.75263-0.2507-1.0035-0.75211-1.2544-1.2535 0-0.75211 0.25088-1.2535 0.75263-1.5042 23.081-11.282 21.575-35.6 21.575-36.603 0-0.75211 0.50175-1.5042 1.0035-1.5042 0.75263-0.2507 1.5053 0 1.7561 0.75211 18.816 29.332 40.642 19.054 40.642 18.803 0.75263-0.2507 1.5053-0.2507 2.007 0.50141 0.50175 0.50141 0.50175 1.5042 0 2.0056-4.2649 5.2648-6.0211 10.78-5.2684 16.546 1.7561 13.287 15.304 23.566 15.554 23.817 0.50175 0.2507 0.75263 1.0028 0.50175 1.5042 0 0.50141-0.50175 1.0028-1.0035 1.2535-5.7702 1.7549-10.788 5.7662-14.802 12.285-0.25088 0.2507-0.50175 0.50141-0.75263 0.75211-3.0105 0.50141-5.5193 3.0085-7.0246 6.0169-0.25088 0.50141-0.50175 0.75211-1.0035 0.75211-0.50175 0-0.75263 0-1.2544-0.2507-5.5193-3.2592-12.795-2.7577-18.063 0.75211-0.25088 0.50141-0.50175 0.50141-0.75263 0.50141zm-12.544-6.0169c2.7596 0.2507 7.2754 1.0028 12.293 2.7577 5.7702-3.5099 13.046-4.0113 19.318-1.2535 1.7561-3.0085 4.5158-5.2648 7.7772-6.5183 3.7632-5.7662 8.2789-10.028 13.547-12.034-4.2649-3.7606-13.046-12.786-14.551-24.068-0.75263-5.2648 0.50175-10.279 3.2614-15.042-7.5263 1.7549-23.081 2.0056-37.381-17.299-0.75263 8.0225-4.2649 23.566-19.819 32.842 4.7667 1.7549 13.046 6.2676 17.06 14.792 3.2614 7.0197 2.7596 15.794-1.5053 25.823z" fill="#640F13"/>
</g>
<g transform="translate(77.772 85.239)">
<path d="m31.861 3.7606s-10.788 8.0225-21.325 5.5155c0 0.75211 0.25088 1.2535 0.25088 2.0056 0 5.7662-3.2614 10.78-8.2789 13.287 7.5263 2.0056 13.296 8.5239 14.3 16.546 4.7667 0 10.286 2.0056 16.809 8.0225 0 0 6.2719-21.31 23.833-18.301 0 0.2507-25.339-10.028-25.589-27.076z" fill="#7AB17B"/>
<path d="m33.618 50.893c-0.50175 0-0.75263-0.2507-1.0035-0.50141-5.5193-5.0141-10.788-7.5211-15.805-7.5211-0.75263 0-1.5053-0.50141-1.5053-1.5042-1.0035-7.2704-6.0211-13.287-13.046-15.042-0.75263-0.2507-1.0035-0.75211-1.2544-1.2535 0-0.75211 0.25088-1.2535 0.75263-1.5042 4.5158-2.2563 7.2754-7.0197 7.2754-12.034 0-0.50141 0-1.0028-0.25088-1.5042 0-0.50141 0-1.2535 0.50175-1.5042 0.50175-0.2507 1.0035-0.75211 1.5053-0.50141 9.7842 2.0056 19.819-5.2648 20.07-5.2648 0.50175-0.2507 1.0035-0.50141 1.7561-0.2507 0.75263 0.2507 0.75263 0.75211 1.0035 1.5042 0.50175 15.794 24.335 25.823 24.586 25.823 0.75263 0.2507 1.2544 1.0028 1.0035 2.0056-0.25088 0.75211-1.0035 1.2535-1.7561 1.0028-15.805-2.7577-22.077 16.797-22.077 17.048-0.25088 0.50141-0.50175 1.0028-1.0035 1.0028h-0.75263zm-15.554-11.031c4.7667 0.2507 9.7842 2.507 14.802 6.769 2.007-4.7634 7.2754-15.293 17.812-17.048-7.2754-4.0113-18.314-11.783-20.07-23.065-3.5123 2.0056-10.788 5.5155-18.314 4.7634v0.2507c0 5.0141-2.2579 9.7775-6.2719 13.037 6.2719 2.7577 10.788 8.5239 12.042 15.293z" fill="#640F13"/>
</g>
<g transform="translate(5.0175 115.32)">
<path d="m61.967 31.338c-6.7737-3.0085-11.289-9.7775-11.289-17.8 0-1.7549 0.25088-3.5099 0.75263-5.2648-1.7561 0.50141-3.7632 1.0028-5.5193 1.0028-5.7702 0-10.788-2.507-14.049-6.5183-0.25088 7.0197-3.7632 19.054-23.833 18.803 0 0 9.2825 20.056-6.0211 29.332 0 0 25.84-8.7746 37.13 3.7606 0 0 1.2544-19.806 22.83-23.315z" fill="#7AB17B"/>
<path d="m39.137 56.158c-0.50175 0-0.75263-0.2507-1.2544-0.50141-10.788-11.783-35.374-3.2592-35.625-3.2592-0.75263 0.2507-1.5053 0-2.007-0.75211-0.25088-0.75211 0-1.5042 0.50175-2.0056 13.798-8.2732 5.5193-27.076 5.2684-27.327-0.25088-0.50141-0.25088-1.0028 0-1.5042 0.25088-0.50141 0.75263-0.75211 1.2544-0.75211 17.812 0.50141 21.826-9.0254 22.077-17.299 0-0.75211 0.50175-1.2535 1.0035-1.5042 0.50175-0.2507 1.2544 0 1.7561 0.50141 4.2649 5.0141 11.54 7.2704 18.063 5.2648 0.50175-0.2507 1.2544 0 1.5053 0.2507 0.50175 0.50141 0.50175 1.0028 0.50175 1.5042-0.50175 1.5042-0.75263 3.2592-0.75263 4.7634 0 7.0197 4.014 13.287 10.537 16.296 0.75263 0.2507 1.0035 1.0028 1.0035 1.7549s-0.50175 1.2535-1.2544 1.2535c-20.07 3.2592-21.575 21.059-21.575 21.811 0 0.75211-0.50175 1.2535-1.0035 1.5042 0.25088 0 0 0 0 0zm-18.816-10.028c6.2719 0 12.795 1.2535 17.812 5.2648 1.2544-5.5155 5.5193-16.797 19.568-20.808-5.2684-4.0113-8.7807-10.279-8.7807-17.048 0-1.0028 0-2.0056 0.25088-3.0085-5.7702 1.0028-12.042-0.50141-16.558-4.262-1.2544 6.769-5.7702 16.296-22.83 16.797 1.7561 4.7634 4.5158 16.296-2.007 24.569 3.5123-0.75211 7.7772-1.5042 12.544-1.5042z" fill="#640F13"/>
</g>
<path d="m54.691 78.22c-1.0035 0-1.5053-0.75211-1.5053-1.5042 0.25088-23.315-7.7772-34.597-7.7772-34.597-0.50175-0.75211-0.25088-1.7549 0.25088-2.2563 0.75263-0.50141 1.7561-0.2507 2.2579 0.2507 0.25088 0.50141 8.7807 12.034 8.2789 36.603 0 0.75211-0.75263 1.5042-1.5053 1.5042z" fill="#640F13"/>
<path d="m108.88 112.82h-0.50176c-16.558-5.5155-27.596-1.0028-27.596-1.0028-0.75263 0.2507-1.7561 0-2.007-0.75211s0-1.7549 0.75263-2.0056c0.50175-0.2507 12.293-5.0141 29.854 1.0028 0.75263 0.2507 1.2544 1.2535 1.0035 2.0056-0.25088 0.2507-0.75263 0.75211-1.5053 0.75211z" fill="#640F13"/>
<path d="m33.618 150.17c-0.50175 0-1.2544-0.2507-1.5053-1.0028s0-1.7549 0.75263-2.0056c16.056-6.5183 21.575-23.566 21.575-23.817 0.25088-0.75211 1.2544-1.2535 2.007-1.0028s1.2544 1.2535 1.0035 2.0056c-0.25088 0.75211-6.2719 18.552-23.582 25.823h-0.25088z" fill="#640F13"/>
<g transform="translate(52.684 107.8)">
<ellipse cx="22.328" cy="21.31" rx="19.568" ry="19.555" fill="#DB4342"/>
<path d="m22.328 42.369c-11.54 0-21.074-9.5268-21.074-21.059 0-11.532 9.5333-21.059 21.074-21.059s21.074 9.5268 21.074 21.059c0 11.532-9.2825 21.059-21.074 21.059zm0-39.11c-9.7842 0-18.063 8.0225-18.063 18.051 0 10.028 8.0281 18.051 18.063 18.051 9.7842 0 18.063-8.0225 18.063-18.051 0-10.028-8.0281-18.051-18.063-18.051z" fill="#640F13"/>
</g>
<g transform="translate(57.702 80.225)">
<path d="m15.554 1.5042c-6.0211 0-11.039 3.5099-13.547 8.2732 5.5193 3.2592 9.5333 9.2761 9.5333 16.045 0 1.5042-0.25088 3.0085-0.50175 4.5127 2.007-0.75211 4.2649-1.2535 6.5228-1.2535 1.7561 0 3.5123 0.2507 5.0175 0.75211 4.7667-2.507 8.2789-7.5211 8.2789-13.287 0-8.2732-7.0246-15.042-15.304-15.042z" fill="#DB4342"/>
<path d="m11.039 32.09c-0.50175 0-0.75263-0.2507-1.0035-0.50141-0.50175-0.50141-0.50175-1.0028-0.50175-1.5042 0.25088-1.5042 0.50175-2.7577 0.50175-4.0113 0-6.0169-3.2614-11.783-8.5298-14.792-0.75263-0.50141-1.0035-1.2535-0.75263-2.0056 2.7596-5.7662 8.5298-9.2761 14.802-9.2761 9.2825 0 16.809 7.5211 16.809 16.797 0 6.2676-3.5123 11.783-9.0316 14.792-0.25088 0.2507-0.75263 0.2507-1.2544 0-3.5123-1.0028-7.2754-0.75211-10.537 0.50141-0.25088-0.2507-0.50175 0-0.50175 0zm6.2719-4.5127c1.5053 0 3.2614 0.2507 4.7667 0.50141 4.2649-2.507 6.7737-6.769 6.7737-11.783 0-7.5211-6.0211-13.538-13.547-13.538-4.5158 0-8.7807 2.2563-11.289 6.2676 5.5193 3.7606 8.7807 10.028 8.7807 16.546 0 0.75211 0 1.5042-0.25088 2.2563 2.007 0 3.2614-0.2507 4.7667-0.2507z" fill="#640F13"/>
</g>
<g transform="translate(30.105 85.239)">
<path d="m38.635 25.321c0.25088-1.5042 0.50175-3.0085 0.50175-4.5127 0-10.279-8.2789-18.552-18.565-18.552s-18.565 8.2732-18.565 18.552 8.2789 18.552 18.565 18.552c2.007 0 3.7632-0.2507 5.5193-1.0028 1.7561-6.0169 6.5228-10.78 12.544-13.037z" fill="#DB4342"/>
<path d="m20.572 41.115c-11.039 0-20.07-9.0254-20.07-20.056s9.0316-20.056 20.07-20.056c11.039 0 20.07 9.0254 20.07 20.056 0 1.5042-0.25088 3.2592-0.50175 4.7634-0.25088 0.50141-0.50175 1.0028-1.0035 1.0028-5.5193 2.0056-9.7842 6.5183-11.289 12.034-0.25088 0.50141-0.50175 1.0028-1.0035 1.0028-2.2579 0.75211-4.2649 1.2535-6.2719 1.2535zm0-37.104c-9.2825 0-17.06 7.5211-17.06 17.048 0 9.2761 7.5263 17.048 17.06 17.048 1.5053 0 3.0105-0.2507 4.2649-0.50141 2.007-6.0169 6.5228-10.78 12.293-13.037 0.25088-1.0028 0.25088-2.2563 0.25088-3.2592 0.25088-9.7775-7.5263-17.299-16.809-17.299z" fill="#640F13"/>
</g>
<ellipse cx="70.998" cy="124.35" rx="6.0211" ry="6.0169" fill="#E86363"/>
<ellipse cx="44.907" cy="102.29" rx="4.2649" ry="4.262" fill="#E86363"/>
<ellipse cx="76.768" cy="89.501" rx="2.7596" ry="2.7577" fill="#E86363"/>
<path d="m85.8 112.82c2.007 3.0085 3.2614 6.769 3.2614 10.78 0 10.78-8.7807 19.555-19.568 19.555-4.014 0-7.7772-1.2535-10.788-3.2592 3.5123 5.2648 9.5333 8.7746 16.307 8.7746 10.788 0 19.568-8.7746 19.568-19.555 0-7.0197-3.5123-12.786-8.7807-16.296z" fill="#BC3839"/>
<path d="m75.012 150.17c-11.54 0-21.074-9.5268-21.074-21.059s9.5333-21.059 21.074-21.059 21.074 9.5268 21.074 21.059-9.2825 21.059-21.074 21.059zm0-39.11c-9.7842 0-18.063 8.0225-18.063 18.051s8.0281 18.051 18.063 18.051c9.7842 0 18.063-8.0225 18.063-18.051s-8.0281-18.051-18.063-18.051z" fill="#640F13"/>
<path d="m69.242 106.05c0-4.5127-1.7561-8.7746-4.2649-12.034 0.25088 1.5042 0.50175 3.0085 0.50175 4.5127 0 12.535-10.286 22.814-22.83 22.814-0.75263 0-1.5053 0-2.2579-0.2507 3.0105 2.0056 6.5228 3.2592 10.537 3.2592 2.007 0 3.7632-0.2507 5.5193-1.0028 1.7561-6.2676 6.2719-11.031 12.293-13.037 0.25088-1.2535 0.50175-2.507 0.50175-4.262z" fill="#BC3839"/>
<path d="m50.677 126.35c-11.039 0-20.07-9.0254-20.07-20.056 0-11.031 9.0316-20.056 20.07-20.056s20.07 9.0254 20.07 20.056c0 1.5042-0.25088 3.2592-0.50175 4.7634-0.25088 0.50141-0.50175 1.0028-1.0035 1.0028-5.5193 2.0056-9.7842 6.5183-11.289 12.034-0.25088 0.50141-0.50175 1.0028-1.0035 1.0028-2.2579 0.75211-4.2649 1.2535-6.2719 1.2535zm0-37.104c-9.2825 0-17.06 7.5211-17.06 17.048 0 9.2761 7.5263 17.048 17.06 17.048 1.5053 0 3.0105-0.2507 4.2649-0.50141 2.007-6.0169 6.5228-10.78 12.293-13.037 0.25088-1.0028 0.25088-2.2563 0.25088-3.2592 0.25088-9.7775-7.5263-17.299-16.809-17.299z" fill="#640F13"/>
<path d="m83.542 104.54c-15.053 6.2676-7.0246-5.7662-14.3-12.034-5.5193-4.5127-3.0105-8.0225-3.0105-9.0254-2.7596 1.5042-5.0175 3.7606-6.5228 6.5183 5.5193 3.2592 9.5333 9.2761 9.5333 16.045 0 1.5042-0.25088 3.0085-0.50175 4.5127 2.007-0.75211 4.2649-1.0028 6.5228-1.0028 1.7561 0 3.5123 0.2507 5.0175 0.75211 2.5088-1.2535 4.7667-3.5099 6.2719-6.0169-1.0035 0-2.007-0.2507-3.0105 0.2507z" fill="#BC3839"/>
<path d="m68.74 112.32c-0.50175 0-0.75263-0.2507-1.0035-0.50141-0.50175-0.50141-0.50175-1.0028-0.50175-1.5042 0.25088-1.5042 0.50175-2.7577 0.50175-4.0113 0-6.0169-3.2614-11.783-8.5298-14.792-0.75263-0.50141-1.0035-1.2535-0.75263-2.0056 2.7596-5.7662 8.5298-9.2761 14.802-9.2761 9.2825 0 16.809 7.5211 16.809 16.797 0 6.2676-3.5123 11.783-9.0316 14.792-0.25088 0.2507-0.75263 0.2507-1.2544 0-3.5123-1.0028-7.2754-0.75211-10.537 0.50141-0.25088-0.2507-0.50175 0-0.50175 0zm6.2719-4.5127c1.5053 0 3.2614 0.2507 4.7667 0.50141 4.2649-2.507 6.7737-6.769 6.7737-11.783 0-7.5211-6.0211-13.538-13.547-13.538-4.5158 0-8.7807 2.2563-11.289 6.2676 5.5193 3.7606 8.7807 10.028 8.7807 16.546 0 0.75211 0 1.5042-0.25088 2.2563 2.007 0 3.2614-0.2507 4.7667-0.2507z" fill="#640F13"/>
<path d="m40.14 92.51h-0.50175c-7.5263-2.7577-14.3-3.0085-14.551-3.0085-0.50175 0-1.0035-0.2507-1.2544-0.75211-0.25088-0.50141-0.25088-1.0028 0-1.5042 4.7667-10.028 5.5193-18.552 2.2579-25.572-5.0175-10.78-18.314-14.29-18.565-14.29-0.75263-0.2507-1.0035-0.75211-1.2544-1.2535 0-0.75211 0.25088-1.2535 0.75263-1.5042 23.081-11.282 21.575-35.6 21.575-36.603 0-0.75211 0.50175-1.5042 1.0035-1.5042 0.75263-0.2507 1.5053 0 1.7561 0.75211 18.816 29.332 40.642 19.054 40.642 18.803 0.75263-0.2507 1.5053-0.2507 2.007 0.50141 0.50175 0.50141 0.50175 1.5042 0 2.0056-4.2649 5.2648-6.0211 10.78-5.2684 16.546 1.7561 13.287 15.304 23.566 15.554 23.817 0.50175 0.2507 0.75263 1.0028 0.50175 1.5042 0 0.50141-0.50175 1.0028-1.0035 1.2535-5.7702 1.7549-10.788 5.7662-14.802 12.285-0.25088 0.2507-0.50175 0.50141-0.75263 0.75211-3.0105 0.50141-5.5193 3.0085-7.0246 6.0169-0.25088 0.50141-0.50175 0.75211-1.0035 0.75211s-0.75263 0-1.2544-0.2507c-5.5193-3.2592-12.795-2.7577-18.063 0.75211-0.25088 0.50141-0.50175 0.50141-0.75263 0.50141zm-12.544-6.0169c2.7596 0.2507 7.2754 1.0028 12.293 2.7577 5.7702-3.5099 13.046-4.0113 19.318-1.2535 1.7561-3.0085 4.5158-5.2648 7.7772-6.5183 3.7632-5.7662 8.2789-10.028 13.547-12.034-4.2649-3.7606-13.046-12.786-14.551-24.068-0.75263-5.2648 0.50175-10.279 3.2614-15.042-7.5263 1.7549-23.081 2.0056-37.381-17.299-0.75263 8.0225-4.2649 23.566-19.819 32.842 4.7667 1.7549 13.046 6.2676 17.06 14.792 3.2614 7.0197 2.7596 15.794-1.5053 25.823z" fill="#640F13"/>
<ellipse transform="translate(33.888 39.245) rotate(-59.008) translate(-33.888 -39.245)" cx="33.888" cy="39.245" rx="6.5225" ry="4.0111" fill="#98CF97"/>
<ellipse transform="translate(25.322 143.79) rotate(-59.008) translate(-25.322 -143.79)" cx="25.322" cy="143.79" rx="3.5121" ry="2.2562" fill="#98CF97"/>
<ellipse transform="translate(108.26 121.29) rotate(-59.008) translate(-108.26 -121.29)" cx="108.26" cy="121.29" rx="3.5121" ry="2.2562" fill="#98CF97"/>
<ellipse transform="translate(40.199 52.704) rotate(-59.008) translate(-40.199 -52.704)" cx="40.199" cy="52.704" rx="3.5121" ry="2.2562" fill="#98CF97"/>
</g>
<g transform="translate(546.12 109.9) rotate(6) translate(-65 -71.5)">
<path d="m88.75 7.0246c0.75 0 1.75 0.25088 2.5 0.50175 4 1.5053 6 5.7702 4.75 10.035-0.25 0.75263-0.5 1.2544-1 1.7561 2.5 2.007 4.5 4.5158 6 7.7772 2 4.2649 2.75 8.5298 2 12.795 4.75 4.5158 8.75 9.7842 11.75 16.056 5.75 11.791 6.75 24.837 4 36.879 1.5 1.5053 2.25 2.5088 2.25 2.7596 1.5 2.2579 1 5.0175-1.25 6.5228-0.75 0.50175-1.75 0.75263-2.75 0.75263-0.5 0-1 0-1.5-0.25088h-0.25c-5 11.54-14 21.325-26.25 27.346-7.75 3.7632-16 5.5193-24 5.5193-20.5 0-40-11.54-49.75-31.109-6-12.293-7-25.589-3.75-37.632-1.5-0.50175-2.75-1.5053-3.25-3.2614-0.75-2.5088 0.75-5.0175 3.25-5.7702 0.25 0 1.5-0.50175 3.5-0.75263 5.25-11.039 14-20.572 25.75-26.342 6.25-3.0105 12.75-4.7667 19.25-5.2684 2.25-3.7632 5.5-6.7737 9.5-8.7807 3.25-1.5053 6.75-2.2579 10-2.2579h0.75c0-0.50175 0.25-1.0035 0.25-1.5053 2-3.5123 5-5.7702 8.25-5.7702zm0-6.2719c-5 0-9.75 2.7596-12.25 7.2754-3.25 0.50175-6.25 1.2544-9.25 2.7596-4 2.007-7.75 4.7667-10.5 8.5298-6.5 0.75263-12.75 2.7596-18.5 5.5193-11.75 5.7702-21.25 15.053-27.5 26.342-0.5 0.25088-1 0.25088-1 0.25088-5.75 1.7561-9.25 7.7772-7.5 13.798 0.5 1.5053 1.25 3.0105 2.25 4.014-2 12.795-0.25 26.091 5.5 37.882 10.25 21.074 32 34.872 55.25 34.872 9.25 0 18.25-2.007 26.75-6.2719 11.75-5.7702 21.25-15.053 27.5-26.342 1.5-0.25088 3-1.0035 4.25-1.7561 2.5-1.7561 4-4.2649 4.5-7.2754 0.5-3.0105-0.25-5.7702-1.75-8.2789l-0.75-0.75263c2.25-12.795 0.5-26.091-5.25-37.882-2.75-5.7702-6.5-11.039-11-15.805 0-4.5158-1-9.0316-3-13.046-1.25-2.2579-2.5-4.5158-4.25-6.5228 1.5-7.0246-2.25-14.049-9-16.307-1.5-0.75263-3-1.0035-4.5-1.0035z" fill="#640F13"/>
<g transform="translate(57.5 12.544)">
<path d="m45.5 27.346c0.5-4.2649 0-8.7807-2-12.795-5.5-11.54-19.25-16.307-30.75-10.788-4.25 2.007-7.25 5.0175-9.5 8.7807 15.25-1.2544 30.75 4.014 42.25 14.802z" fill="#F1F1F2"/>
<path d="m45.5 29.102c-0.5 0-0.75-0.25088-1-0.50175-11-10.537-26-15.805-41.25-14.3-0.5 0-1.25-0.25088-1.5-0.75263s-0.25-1.2544 0-1.7561c2.5-4.014 6-7.2754 10.25-9.2825 6-2.7596 12.5-3.2614 18.75-1.0035 6.25 2.2579 11.25 6.5228 14 12.544 2 4.2649 2.75 9.0316 2.25 13.798 0 0.50175-0.5 1.0035-1 1.2544-0.25-0.25088-0.5 0-0.5 0zm-37.75-18.314c13.25 0 26.25 4.7667 36.25 13.296 0-3.0105-0.75-6.0211-2.25-8.7807-2.5-5.2684-6.75-9.0316-12.25-11.039s-11.25-1.5053-16.5 1.0035c-2.75 1.2544-5.25 3.2614-7 5.5193h1.75z" fill="#640F13"/>
</g>
<g transform="translate(7.5 22.579)">
<g transform="translate(5)">
<path d="m58.25 41.144c28.5 10.035 42.75 23.332 48 29.102 2.75-12.042 1.75-24.837-4-36.879-13.25-27.596-46.25-38.886-73.5-25.589-11.75 5.7702-20.75 15.304-25.75 26.342 7.25-1.2544 26.75-2.7596 55.25 7.0246z" fill="#DB4342"/>
<path d="m106.25 71.751c-0.5 0-0.75-0.25088-1.25-0.50175-4.75-5.2684-18.75-18.565-47.25-28.6-28.5-9.7842-47.75-8.2789-54.75-7.0246-0.5 0-1.25-0.25088-1.5-0.50175-0.25-0.50175-0.5-1.0035-0.25-1.5053 5.5-11.791 15-21.325 26.5-27.095 28.25-13.547 62-1.7561 75.75 26.342 5.75 11.791 7.25 25.088 4.25 37.882-0.25 0.50175-0.5 1.0035-1.25 1.2544 0-0.25088 0-0.25088-0.25-0.25088zm-91-40.14c10.25 0 25 1.5053 43.5 8.0281 25.75 9.0316 40 20.823 46.5 27.346 2-11.039 0.5-22.579-4.5-32.865-12.75-26.593-45-37.882-71.5-24.837-10.25 5.0175-18.5 13.046-23.75 22.83 2.5-0.25088 5.75-0.50175 9.75-0.50175z" fill="#640F13"/>
</g>
<g transform="translate(0 40.14)">
<path d="m105.75 38.384c0-0.25088-12.25-16.809-45.5-28.349-33.25-11.54-53.25-6.2719-53.25-6.0211-1 0.25088-1.75 0.25088-2.75 0-3 12.293-2 25.589 3.75 37.632 13.25 27.596 46.25 38.886 73.5 25.589 12.25-6.0211 21.25-15.805 26.25-27.346-0.5-0.25088-1.25-0.75263-2-1.5053z" fill="#DB4342"/>
<path d="m57.75 74.26c-21 0-41.25-11.791-51-32.112-5.75-12.042-7.25-25.84-4-38.886 0-0.50175 0.5-0.75263 0.75-1.0035 0.25-0.25088 0.75-0.25088 1.25-0.25088 0.5 0.25088 1.25 0.25088 1.75 0 0.25 0 20.25-5.7702 54.25 6.2719 33.75 11.791 46.25 28.851 46.5 28.851 0.25 0.50175 0.75 0.75263 1.5 1.0035 0.5 0.25088 0.75 0.50175 0.75 0.75263 0.25 0.50175 0.25 0.75263 0 1.2544-5.5 12.293-15 22.077-27 28.098-8 4.2649-16.5 6.0211-24.75 6.0211zm-52.25-68.74c-2.75 11.791-1.25 24.335 4 35.374 12.75 26.593 45 37.882 71.5 24.837 11-5.2684 19.75-14.3 25-25.088-0.5-0.50175-1-0.75263-1.25-1.2544s-12.5-16.558-44.75-27.847c-32.75-11.289-52.25-6.2719-52.5-6.0211-0.75 0-1.5 0.25088-2 0z" fill="#640F13"/>
</g>
</g>
<ellipse cx="59.25" cy="65.228" rx="37.75" ry="37.882" fill="#F27575"/>
<ellipse transform="translate(51.76 121.44) rotate(19.154) translate(-51.76 -121.44)" cx="51.76" cy="121.44" rx="16.999" ry="5.5191" fill="#BC3839"/>
<g transform="translate(5 52.684)">
<path d="m110.75 50.175c-1-0.25088-1.75-1.0035-2.25-1.7561 0-0.25088-12.25-16.809-45.5-28.349-33.25-11.54-53.25-6.2719-53.25-6.0211-2.5 0.75263-5-0.75263-5.75-3.2614-0.75-2.5088 0.75-5.0175 3.25-5.7702 1-0.25088 22.75-6.5228 59 6.2719 36.25 12.795 49.75 31.109 50.25 31.861 1.5 2.2579 1 5.0175-1.25 6.5228-1.5 0.75263-3.25 1.0035-4.5 0.50175z" fill="#DB4342"/>
<path d="m112.25 51.932c-0.75 0-1.5 0-2-0.25088-1.25-0.50175-2.25-1.2544-3-2.2579 0-0.25088-12.25-16.307-44.75-27.847-32.75-11.289-52.25-6.2719-52.5-6.0211-3.25 1.0035-6.75-1.0035-7.75-4.2649-1-3.2614 1-6.7737 4.25-7.7772 1-0.25088 23-6.5228 60 6.2719 36.75 12.795 50.5 31.611 51 32.363 1 1.2544 1.25 3.0105 1 4.7667-0.25 1.7561-1.25 3.0105-2.5 4.014-1.25 0.75263-2.5 1.0035-3.75 1.0035zm-1-3.2614c1 0.25088 2 0.25088 2.75-0.50175 0.75-0.50175 1.25-1.2544 1.25-2.007 0.25-0.75263 0-1.7561-0.5-2.2579-0.5-0.75263-13.5-18.816-49.5-31.36-36-12.544-57.25-6.5228-58-6.2719-1.75 0.50175-2.5 2.2579-2 4.014 0.5 1.7561 2.25 2.7596 4 2.2579 0.25 0 20.25-5.7702 54.25 6.2719 33.75 11.791 46.25 28.851 46.5 28.851 0 0.25088 0.5 0.75263 1.25 1.0035z" fill="#640F13"/>
</g>
<g transform="translate(77.5 5.0175)">
<path d="m17.25 14.551c0.5-0.50175 0.75-1.2544 1-1.7561 1.5-4.2649-0.75-8.5298-4.75-10.035s-8.5 0.75263-9.75 5.0175c-0.25 0.50175-0.25 1.0035-0.25 1.5053 5 0 9.75 1.7561 13.75 5.2684z" fill="#FFDF00"/>
<path d="m17.25 16.056c-0.25 0-0.75-0.25088-1-0.25088-3.75-3.0105-8.25-4.7667-13-5.0175-0.5 0-0.75-0.25088-1.25-0.50175-0.25-0.25088-0.5-0.75263-0.25-1.2544 0-0.50175 0.25-1.2544 0.5-1.7561 1.75-5.0175 7-7.5263 11.75-6.0211 2.25 0.75263 4.25 2.5088 5.25 4.7667s1.25 4.7667 0.25 7.2754c-0.25 0.75263-0.5 1.5053-1.25 2.2579 0 0.25088-0.25 0.50175-1 0.50175 0.25 0 0 0 0 0zm-11.75-8.2789c4 0.50175 8 2.007 11.5 4.5158 0.5-1.5053 0.5-3.2614-0.25-4.7667s-2-2.5088-3.5-3.2614c-3.25-1.2544-6.5 0.25088-7.75 3.5123z" fill="#640F13"/>
</g>
<ellipse cx="44.5" cy="45.66" rx="4.5" ry="4.5158" fill="#BC3839"/>
<ellipse cx="75.5" cy="52.935" rx="4.5" ry="4.5158" fill="#BC3839"/>
<ellipse cx="104.25" cy="66.232" rx="4.5" ry="4.5158" fill="#BC3839"/>
<ellipse cx="33" cy="79.026" rx="4.5" ry="4.5158" fill="#BC3839"/>
<ellipse cx="63.75" cy="86.302" rx="4.5" ry="4.5158" fill="#BC3839"/>
<ellipse cx="92.5" cy="99.849" rx="4.5" ry="4.5158" fill="#BC3839"/>
<path d="m18.75 56.196c-1.75 3.0105-2.75 6.5228-3.25 10.035 4.75-1.0035 23.5-3.5123 52 6.5228 3.25 1.2544 6.5 2.2579 9.25 3.5123 0.25-1.7561 0.5-3.5123 0.5-5.5193 0-1.5053-0.25-3.2614-0.5-4.7667-2-0.75263-4.25-1.5053-6.25-2.2579-24.5-8.5298-42.5-8.5298-51.75-7.5263z" fill="#F27575"/>
<path d="m117.25 104.62c-0.75 0-1.5 0-2-0.25088-1.25-0.50175-2.25-1.2544-3-2.2579 0-0.25088-12.25-16.307-44.75-27.847-32.75-11.289-52.25-6.2719-52.5-6.0211-3.25 1.0035-6.75-1.0035-7.75-4.2649s1-6.7737 4.25-7.7772c1-0.25088 23-6.5228 60 6.2719 36.75 12.795 50.5 31.611 51 32.363 1 1.2544 1.25 3.0105 1 4.7667-0.25 1.7561-1.25 3.0105-2.5 4.014-1.25 0.75263-2.5 1.0035-3.75 1.0035zm-1-3.2614c1 0.25088 2 0.25088 2.75-0.50175 0.75-0.50176 1.25-1.2544 1.25-2.007 0.25-0.75263 0-1.7561-0.5-2.2579-0.5-0.75263-13.5-18.816-49.5-31.36-36-12.544-57.25-6.5228-58-6.2719-1.75 0.50175-2.5 2.2579-2 4.014 0.5 1.7561 2.25 2.7596 4 2.2579 0.25 0 20.25-5.7702 54.25 6.2719 33.75 11.791 46.25 28.851 46.5 28.851 0 0.25088 0.5 0.75263 1.25 1.0035z" fill="#640F13"/>
<ellipse cx="26.75" cy="60.211" rx="6.25" ry="1.5053" fill="#fff"/>
<ellipse cx="44.5" cy="47.667" rx="2" ry="1.2544" fill="#992E34"/>
<ellipse cx="75.5" cy="55.193" rx="2" ry="1.2544" fill="#992E34"/>
<ellipse cx="104.25" cy="68.74" rx="2" ry="1.2544" fill="#992E34"/>
<ellipse cx="92.5" cy="101.61" rx="2" ry="1.2544" fill="#992E34"/>
<ellipse cx="63.75" cy="88.56" rx="2" ry="1.2544" fill="#992E34"/>
<ellipse cx="33" cy="80.782" rx="2" ry="1.2544" fill="#992E34"/>
<ellipse cx="43.5" cy="43.653" rx="1" ry="1" fill="#fff"/>
<ellipse cx="74.5" cy="50.928" rx="1" ry="1" fill="#fff"/>
<ellipse cx="61.75" cy="84.546" rx="1" ry="1" fill="#fff"/>
<ellipse cx="32" cy="76.267" rx="1" ry="1" fill="#fff"/>
<path d="m65.25 19.568s19.5-4.7667 36.5 10.035c0 0 2.25 4.014 1 10.286 0 0-12.25-16.809-43.5-14.802l6-5.5193z" fill="#D0D2D3"/>
<path d="m103 41.646c-0.5 0-0.75-0.25088-1-0.50175-11-10.537-26-15.805-41.25-14.3-0.5 0-1.25-0.25088-1.5-0.75263s-0.25-1.2544 0-1.7561c2.5-4.014 6-7.2754 10.25-9.2825 6-2.7596 12.5-3.2614 18.75-1.0035s11.25 6.5228 14 12.544c2 4.2649 2.75 9.0316 2.25 13.798 0 0.50175-0.5 1.0035-1 1.2544-0.25-0.25088-0.5 0-0.5 0zm-37.75-18.314c13.25 0 26.25 4.7667 36.25 13.296 0-3.0105-0.75-6.0211-2.25-8.7807-2.5-5.2684-6.75-9.0316-12.25-11.039-5.5-2.007-11.25-1.5053-16.5 1.0035-2.75 1.2544-5.25 3.2614-7 5.5193h1.75z" fill="#640F13"/>
<path d="m104.25 99.849s-4.5 16.558-22.75 25.339c0 0 15.25 0 28.25-20.572l-5.5-4.7667z" fill="#AE3334"/>
</g>
</g>
<path d="m0.052281 314.15h377.42" stroke="#fff" stroke-opacity=".01"/>
<path d="m897 314h377.42" stroke="#fff" stroke-opacity=".01"/>
<path d="m644 718.57v-144.57" stroke="#fff" stroke-opacity=".01"/>
<path d="m644 84.824v-84.395" stroke="#fff" stroke-opacity=".01"/>
</g>
</g>
</g>
</svg>
