<?xml version="1.0" encoding="UTF-8"?>
<svg version="1.1" viewBox="0 0 217 33" xmlns="http://www.w3.org/2000/svg">
<title>logoSite</title>
<desc>Created with Sketch.</desc>
<g fill="none" fill-rule="evenodd">
<g fill-rule="nonzero" stroke-width=".3">
<path d="m3.0737 22.297c-0.10533 0.010977-0.23699 0.032931-0.39498 0.065862v8.0187c0 0.36224 0.026332 0.65313 0.078997 0.87267 0.052665 0.21954 0.13693 0.39517 0.25279 0.52689 0.11586 0.13172 0.26069 0.22228 0.43448 0.27168 0.17379 0.049397 0.38708 0.079583 0.63987 0.09056 0.052665 0.15368 0.078997 0.38968 0.078997 0.70801-0.24226-0.021954-0.54244-0.035675-0.90056-0.041164s-0.7215-0.0082327-1.0902-0.0082327h-0.60038c-0.20013 0-0.40025 0.0027442-0.60038 0.0082327s-0.38182 0.010977-0.54508 0.016466c-0.16326 0.0054885-0.29755 0.013721-0.40288 0.024698 0-0.31833 0.026332-0.55434 0.078997-0.70801 0.42132-0.021954 0.70834-0.12898 0.86107-0.32108 0.15273-0.1921 0.22909-0.56257 0.22909-1.1114v-6.9484c0-0.54885-0.076363-0.91932-0.22909-1.1114-0.15273-0.1921-0.43975-0.29912-0.86107-0.32108-0.052665-0.15368-0.078997-0.38968-0.078997-0.70801 0.41079 0.021954 0.8084 0.035675 1.1929 0.041164 0.38445 0.0054885 0.70307 0.0082327 0.95586 0.0082327 0.27386 0 0.60301-0.0054884 0.98746-0.016466 0.38445-0.010977 0.80313-0.016465 1.256-0.016465 0.57931 0 1.0796 0.087815 1.5009 0.26345 0.42132 0.17563 0.7689 0.41438 1.0428 0.71625 0.27386 0.30187 0.47661 0.65587 0.60828 1.062 0.13166 0.40615 0.19749 0.83974 0.19749 1.3008 0 0.41713-0.07373 0.84248-0.22119 1.2761-0.14746 0.43359-0.37128 0.82602-0.67147 1.1773-0.30019 0.35126-0.6741 0.63941-1.1218 0.86444-0.44765 0.22503-0.97166 0.33754-1.572 0.33754-0.22119 0-0.42395-0.016465-0.60828-0.049396-0.18433-0.032931-0.35022-0.076839-0.49768-0.13172-0.021066-0.087816-0.028966-0.18112-0.023699-0.27991s0.018432-0.18661 0.039498-0.26345c0.26332 0.065862 0.55298 0.098793 0.86896 0.098793 0.29492 0 0.57931-0.038419 0.85317-0.11526 0.27386-0.076839 0.51874-0.21405 0.73467-0.41164 0.21593-0.19759 0.38972-0.46652 0.52138-0.80681 0.13166-0.34029 0.19749-0.77387 0.19749-1.3008 0-0.46104-0.052664-0.8809-0.15799-1.2596s-0.26859-0.70527-0.48978-0.9797-0.50031-0.48847-0.83737-0.64215c-0.33705-0.15368-0.74257-0.23052-1.2166-0.23052-0.17906 0-0.34232 0.010977-0.48978 0.032931zm12.982 9.764c0.44238 0 0.8084-0.035675 1.0981-0.10703 0.28966-0.071351 0.53718-0.18935 0.74257-0.35401 0.20539-0.16466 0.37918-0.3787 0.52138-0.64215 0.14219-0.26345 0.27649-0.58727 0.40288-0.97146 0.15799 0.054885 0.28965 0.10977 0.39498 0.16465 0.10533 0.054885 0.20539 0.13172 0.30019 0.23052-0.11586 0.3842-0.21329 0.79308-0.29229 1.2267s-0.14483 0.84248-0.19749 1.2267c-0.15799 0-0.35022-0.0027442-0.57668-0.0082327-0.22646-0.0054886-0.47661-0.010977-0.75047-0.016466s-0.55824-0.0082327-0.85317-0.0082327h-1.9117c-0.38972 0-0.7768 0.0027442-1.1613 0.0082327s-0.74783 0.010977-1.0902 0.016466c-0.34232 0.0054885-0.61354 0.013721-0.81367 0.024698 0-0.31833 0.026332-0.55434 0.078997-0.70801 0.21066-0.010977 0.38708-0.041163 0.52928-0.09056 0.14219-0.049397 0.25542-0.13447 0.33969-0.25521s0.14483-0.28266 0.18169-0.48573c0.036865-0.20308 0.055298-0.46378 0.055298-0.78211v-6.7673c0-0.54885-0.076363-0.91932-0.22909-1.1114s-0.43975-0.29912-0.86107-0.32108c-0.031599-0.087816-0.052664-0.19484-0.063197-0.32108-0.010533-0.12624-0.015799-0.25521-0.015799-0.38694 0.15799 0.010977 0.32125 0.021954 0.48978 0.032931l0.52138 0.016466h0.90056c0.33705 0 0.66094-0.0027442 0.97166-0.0082327s0.62407-0.01921 0.94006-0.041164c0 0.31833-0.026332 0.55434-0.078997 0.70801-0.21066 0.010977-0.38445 0.041163-0.52138 0.09056-0.13693 0.049397-0.24752 0.12898-0.33179 0.23875s-0.14483 0.25796-0.18169 0.44457c-0.036865 0.18661-0.055298 0.42261-0.055298 0.70801v6.7179c0 0.30736 0.018432 0.55982 0.055298 0.75741 0.036865 0.19759 0.10796 0.35401 0.21329 0.46927 0.10533 0.11526 0.25016 0.19484 0.43448 0.23875 0.18433 0.043908 0.42395 0.065862 0.71887 0.065862h0.094796zm11.449-10.423c0.17906-0.043908 0.38445-0.065862 0.61618-0.065862l3.7602 8.9901c0.1264 0.30736 0.23962 0.55982 0.33969 0.75741s0.19486 0.35401 0.28439 0.46927c0.08953 0.11526 0.17906 0.19759 0.26859 0.24698 0.08953 0.049397 0.19749 0.085071 0.32389 0.10703 0.042132 0.1427 0.068464 0.26345 0.078997 0.36224 0.010533 0.098793 0.015799 0.21405 0.015799 0.34577-0.084264 0-0.20012-0.0027443-0.34759-0.0082328-0.14746-0.0054885-0.31072-0.013721-0.48978-0.024698l-0.52138-0.016465h-0.44238c-0.1264 0-0.27649 0.0027442-0.45028 0.0082327s-0.34495 0.010977-0.51348 0.016466c-0.16853 0.0054885-0.32915 0.010977-0.48188 0.016465s-0.26596 0.0082328-0.33969 0.0082328c0-0.13172 0.0052664-0.25796 0.015799-0.37871 0.010533-0.12075 0.042131-0.23052 0.094796-0.32931 0.22119-0.021954 0.39235-0.054885 0.51348-0.098793 0.12113-0.043908 0.20276-0.11251 0.24489-0.20582 0.042132-0.093305 0.047398-0.21679 0.015799-0.37047-0.031599-0.15368-0.10006-0.35675-0.20539-0.60922l-0.69517-1.6795c-0.68464 0-1.4061 0.0054884-2.1645 0.016465-0.72677 0.010977-1.4009 0.027442-2.0223 0.049396l-0.41078 1.1361c-0.24226 0.64764-0.31599 1.095-0.22119 1.3419 0.094797 0.24698 0.35812 0.38694 0.78997 0.41987 0.073731 0.18661 0.1106 0.42261 0.1106 0.70801-0.17906-0.021954-0.40815-0.035675-0.68727-0.041164-0.27912-0.0054885-0.55034-0.0082327-0.81367-0.0082327-0.26332 0-0.51084 0.0054884-0.74257 0.016465-0.23173 0.010977-0.42132 0.021954-0.56878 0.032931 0-0.10977 0.0078996-0.22777 0.023699-0.35401 0.015799-0.12624 0.044765-0.23875 0.086896-0.33754 0.13693-0.032931 0.25806-0.082327 0.36339-0.14819s0.20539-0.16465 0.30019-0.29638c0.094797-0.13172 0.18696-0.30461 0.27649-0.51866 0.08953-0.21405 0.19749-0.48573 0.32389-0.81504l3.2705-8.7432zm-1.8011 6.8002h3.5865l-1.2008-2.9309c-0.073731-0.16466-0.13956-0.31833-0.19749-0.46103s-0.11586-0.28814-0.17379-0.43633c-0.057931-0.14819-0.11849-0.29912-0.18169-0.4528-0.042132-0.13172-0.094796-0.27442-0.15799-0.4281-0.10533 0.36224-0.20539 0.67508-0.30019 0.93853-0.094797 0.2854-0.18959 0.55982-0.28439 0.82327l-1.0902 2.9473zm18.622-6.8167c0.23173 0.021954 0.48188 0.035675 0.75047 0.041164 0.26859 0.0054885 0.51348 0.0082327 0.73467 0.0082327 0.22119 0 0.47398-0.0027442 0.75837-0.0082327 0.28439-0.0054885 0.53191-0.01921 0.74257-0.041164 0 0.10977-0.0052664 0.22503-0.015799 0.34577-0.010533 0.12075-0.031599 0.24149-0.063198 0.36224-0.17906 0-0.32652 0.038419-0.44238 0.11526-0.11586 0.076839-0.21066 0.20582-0.28439 0.38694-0.073731 0.18112-0.12639 0.41987-0.15799 0.71625-0.031599 0.29638-0.047398 0.66959-0.047398 1.1197v8.1998c-0.084264 0.032931-0.18433 0.054885-0.30019 0.065862-0.11586 0.010977-0.23172 0.016465-0.34759 0.016465l-6.5567-8.9243v5.697c0 0.46104 0.015799 0.84797 0.047398 1.1608 0.031599 0.31285 0.089529 0.56257 0.17379 0.74918s0.19749 0.31833 0.33969 0.39517 0.31862 0.11526 0.52928 0.11526c0.031599 0.098793 0.052664 0.20307 0.063198 0.31284 0.010533 0.10977 0.015799 0.24149 0.015799 0.39517-0.24226-0.021954-0.50558-0.035675-0.78997-0.041164s-0.54244-0.0082327-0.77417-0.0082327-0.50294 0.0027442-0.81367 0.0082327-0.56614 0.01921-0.76627 0.041164c0-0.1427 0.0052664-0.27168 0.015799-0.38694 0.010533-0.11526 0.031599-0.22228 0.063198-0.32108 0.21066 0 0.38708-0.038419 0.52928-0.11526s0.25542-0.20856 0.33969-0.39517c0.084264-0.18661 0.14219-0.43633 0.17379-0.74918 0.031599-0.31285 0.047398-0.69978 0.047398-1.1608v-6.8002l-0.063197-0.082327c-0.14746-0.19759-0.28965-0.32656-0.42658-0.38694-0.13693-0.060374-0.33705-0.10154-0.60038-0.12349-0.031599-0.12075-0.052664-0.24698-0.063198-0.37871-0.010533-0.13172-0.015799-0.24149-0.015799-0.32931 0.15799 0.021954 0.34232 0.035675 0.55298 0.041164 0.21066 0.0054885 0.41605 0.0082327 0.61618 0.0082327 0.42132 0 0.77417-0.016465 1.0586-0.049396l6.146 8.4962v-5.4501c0-0.45006-0.015799-0.82327-0.047398-1.1197-0.031599-0.29638-0.089529-0.53513-0.17379-0.71625-0.084264-0.18112-0.19749-0.3101-0.33969-0.38694-0.14219-0.076839-0.31862-0.11526-0.52928-0.11526-0.031599-0.18661-0.052664-0.32656-0.063198-0.41987-0.010533-0.093305-0.015799-0.18935-0.015799-0.28815zm10.675-0.098793c0.58985 0 1.0954 0.074094 1.5167 0.22228 0.42132 0.14819 0.74257 0.31559 0.96376 0.5022 0 0.31833 0.0052664 0.68606 0.015799 1.1032 0.010533 0.41713 0.036865 0.77388 0.078997 1.0703-0.11586 0.054885-0.25542 0.093304-0.41868 0.11526-0.16326 0.021954-0.31862 0.032931-0.46608 0.032931-0.084264-0.47201-0.17906-0.85895-0.28439-1.1608s-0.22909-0.53787-0.37128-0.70801c-0.14219-0.17014-0.30019-0.28815-0.47398-0.35401-0.17379-0.065862-0.36075-0.098793-0.56088-0.098793-0.47398 0-0.8479 0.1427-1.1218 0.4281-0.27386 0.2854-0.41078 0.69155-0.41078 1.2184 0 0.48299 0.12113 0.87816 0.36339 1.1855 0.24226 0.30736 0.54508 0.58178 0.90846 0.82327 0.36339 0.24149 0.75573 0.46926 1.1771 0.68332 0.42132 0.21405 0.81367 0.46103 1.1771 0.74095 0.36339 0.27991 0.66621 0.61745 0.90846 1.0126 0.24226 0.39517 0.36339 0.89462 0.36339 1.4984 0 0.41713-0.081629 0.81504-0.24489 1.1937-0.16326 0.37871-0.38708 0.71076-0.67147 0.99616-0.28439 0.2854-0.62144 0.51043-1.0112 0.67508s-0.8163 0.24698-1.2797 0.24698c-0.36865 0-0.69254-0.01921-0.97166-0.057629s-0.53718-0.098792-0.77417-0.18112c-0.23699-0.082328-0.47398-0.18935-0.71097-0.32108-0.23699-0.13172-0.50294-0.29638-0.79787-0.49396 0.063198-0.41713 0.1027-0.83425 0.1185-1.2514 0.0158-0.41713 0.023699-0.77936 0.023699-1.0867 0.11586-0.032931 0.25279-0.057629 0.41078-0.074095 0.15799-0.016466 0.30545-0.024698 0.44238-0.024698 0.021066 0.41713 0.07373 0.79034 0.15799 1.1197 0.084264 0.32931 0.21329 0.61197 0.38708 0.84797 0.17379 0.23601 0.40552 0.41712 0.69517 0.54336 0.28966 0.12624 0.65567 0.18935 1.0981 0.18935 0.29492 0 0.55298-0.046652 0.77417-0.13996 0.22119-0.093305 0.40552-0.21679 0.55298-0.37047 0.14746-0.15368 0.26069-0.33205 0.33969-0.53513 0.078997-0.20308 0.1185-0.41987 0.1185-0.65039 0-0.49397-0.12113-0.89462-0.36339-1.202-0.24226-0.30736-0.54508-0.57355-0.90846-0.79857-0.36339-0.22503-0.75837-0.43908-1.185-0.64215-0.42658-0.20308-0.82156-0.44457-1.185-0.72448-0.36339-0.27991-0.66621-0.62843-0.90846-1.0456-0.24226-0.41713-0.36339-0.96048-0.36339-1.6301 0-0.4281 0.071096-0.82053 0.21329-1.1773 0.14219-0.35675 0.33968-0.66411 0.59248-0.92207 0.25279-0.25796 0.55561-0.45554 0.90846-0.59276 0.35285-0.13721 0.7452-0.20582 1.1771-0.20582zm8.5264 0.11526c0.15799 0 0.40025 0.0027442 0.72677 0.0082327 0.32652 0.0054885 0.67674 0.010977 1.0507 0.016466s0.7452 0.0082327 1.1139 0.0082327h2.4489c0.46345 0 0.97956-0.010977 1.5483-0.032931 0.052665 0.054885 0.094796 0.13172 0.12639 0.23052 0.031599 0.098793 0.047398 0.20307 0.047398 0.31284-0.97957 1.7893-1.9591 3.5236-2.9387 5.2031-0.91637 1.5917-1.8538 3.1668-2.8123 4.7256h2.4331c0.48452 0 0.8874-0.024698 1.2087-0.074095 0.32126-0.049397 0.58458-0.14819 0.78997-0.29638s0.36865-0.35949 0.48978-0.63392c0.12113-0.27443 0.22382-0.63666 0.30809-1.0867 0.34759 0.032931 0.62144 0.12623 0.82157 0.27991-0.084264 0.36224-0.15009 0.76839-0.19749 1.2184-0.047398 0.45006-0.076364 0.89462-0.086896 1.3337-0.38972-0.010977-0.75573-0.01921-1.0981-0.024698-0.34232-0.0054886-0.67674-0.010977-1.0033-0.016466s-0.6583-0.0082327-0.99536-0.0082327h-2.1013c-0.34759 0-0.67674 0.0027442-0.98746 0.0082327s-0.59247 0.010977-0.84527 0.016466c-0.25279 0.0054885-0.45818 0.013721-0.61618 0.024698-0.042132-0.087816-0.07373-0.17014-0.094796-0.24698-0.021066-0.076839-0.031599-0.17014-0.031599-0.27991 1.0112-1.7014 2.0065-3.3864 2.9861-5.0549 0.94797-1.6246 1.8854-3.2711 2.8123-4.9396h-2.2435c-0.34759 0-0.64514 0.024698-0.89266 0.074095-0.24752 0.049397-0.45818 0.15093-0.63197 0.30461-0.17379 0.15368-0.31862 0.36773-0.43448 0.64215-0.11586 0.27443-0.21592 0.63666-0.30019 1.0867-0.13693 0-0.29492-0.010977-0.47398-0.032931-0.17906-0.021954-0.32125-0.065862-0.42658-0.13172 0.094797-0.35126 0.16853-0.76564 0.22119-1.2431s0.078997-0.94127 0.078997-1.3913zm11.544 5.5653c0-0.83425 0.13429-1.5999 0.40288-2.2969 0.26859-0.69704 0.63724-1.298 1.106-1.803 0.46872-0.50494 1.0217-0.89462 1.6589-1.169s1.3192-0.41164 2.046-0.41164c0.75837 0 1.4562 0.13721 2.0934 0.41164s1.1876 0.66136 1.651 1.1608c0.46345 0.49945 0.82683 1.0977 1.0902 1.7947 0.26332 0.69704 0.39498 1.4682 0.39498 2.3134 0 0.8123-0.12903 1.567-0.38708 2.264-0.25806 0.69704-0.61881 1.3035-1.0823 1.8194s-1.0138 0.92206-1.651 1.2184-1.3403 0.44457-2.1092 0.44457c-0.77944 0-1.4904-0.14544-2.1329-0.43633s-1.1928-0.69429-1.651-1.2102c-0.45818-0.51592-0.81103-1.1224-1.0586-1.8194-0.24752-0.69704-0.37128-1.4572-0.37128-2.2805zm1.6273-0.44457c0 0.69155 0.084262 1.3611 0.25279 2.0088 0.16853 0.64764 0.41868 1.2212 0.75047 1.7206s0.73993 0.90011 1.2245 1.202 1.0428 0.4528 1.6747 0.4528c0.51612 0 0.97693-0.118 1.3824-0.35401 0.40552-0.23601 0.75047-0.55708 1.0349-0.96323 0.28439-0.40615 0.50031-0.88364 0.64777-1.4325s0.22119-1.1361 0.22119-1.7618c0-0.73546-0.10006-1.427-0.30019-2.0746s-0.47398-1.213-0.82157-1.6959c-0.34759-0.48299-0.761-0.86169-1.2402-1.1361-0.47925-0.27443-1.0033-0.41164-1.572-0.41164-0.46345 0-0.8953 0.10702-1.2955 0.32108s-0.7452 0.51592-1.0349 0.9056c-0.28966 0.38968-0.51611 0.8562-0.67937 1.3996-0.16326 0.54336-0.24489 1.1498-0.24489 1.8194zm3.1915-6.3392c0.25279-0.54885 0.46081-1.0538 0.62407-1.5148 0.16326-0.46104 0.29755-0.90011 0.40288-1.3172 0.23173-0.087816 0.44501-0.14544 0.63987-0.17289 0.19486-0.027442 0.37128-0.035675 0.52928-0.024698 0.094797 0.010977 0.18169 0.027442 0.26069 0.049396 0.078997 0.021954 0.14483 0.043908 0.19749 0.065862-0.34759 0.41713-0.7057 0.89736-1.0744 1.4407-0.36865 0.54336-0.7057 1.0675-1.0112 1.5725-0.094797 0.010977-0.19222 0.0082328-0.29229-0.0082327-0.10006-0.016466-0.19223-0.046652-0.27649-0.09056zm9.2058 1.202c0.25279 0.021954 0.55298 0.035675 0.90056 0.041164s0.64251 0.0082327 0.88476 0.0082327h0.42658c0.15799 0 0.32389-0.0027442 0.49768-0.0082327s0.34495-0.010977 0.51348-0.016466c0.16853-0.0054885 0.32652-0.013721 0.47398-0.024698 0 0.087816-0.0052664 0.19484-0.015799 0.32108-0.010533 0.12624-0.031599 0.25521-0.063198 0.38694-0.27386 0.021954-0.48978 0.05214-0.64777 0.09056s-0.26596 0.11526-0.32389 0.23052c-0.057931 0.11526-0.065831 0.28266-0.023699 0.5022 0.042132 0.21954 0.12639 0.51043 0.25279 0.87267 0.16853 0.50494 0.34758 1.0428 0.53718 1.6136 0.18959 0.57081 0.37918 1.1498 0.56878 1.7371s0.37392 1.1718 0.55298 1.7536c0.10533 0.35126 0.21066 0.69155 0.31599 1.0209l2.7017-8.5291c0.084264-0.032931 0.17906-0.054885 0.28439-0.065862 0.10533-0.010977 0.24226-0.016466 0.41078-0.016466 0.26332 0.71351 0.53981 1.4572 0.82947 2.2311 0.28966 0.77388 0.57668 1.556 0.86106 2.3463 0.28439 0.79035 0.56351 1.5752 0.83737 2.3546 0.20013 0.57081 0.39498 1.1251 0.58458 1.663l1.5325-5.4665c0.11586-0.41713 0.18959-0.76564 0.22119-1.0456 0.031599-0.27991 0.018433-0.51043-0.039498-0.69155s-0.16589-0.31833-0.32389-0.41164c-0.15799-0.093305-0.36338-0.15642-0.61618-0.18935-0.042132-0.10977-0.071097-0.23326-0.086896-0.37047-0.0158-0.13721-0.023699-0.24973-0.023699-0.33754 0.44238 0.032931 0.95322 0.049396 1.5325 0.049396 0.24226 0 0.50031-0.0027442 0.77417-0.0082327s0.51611-0.01921 0.72677-0.041164c0 0.10977-0.007899 0.22503-0.023699 0.34577-0.015799 0.12075-0.044764 0.24149-0.086896 0.36224-0.13693 0.032931-0.25806 0.09056-0.36338 0.17289-0.10533 0.082328-0.20802 0.21131-0.30809 0.38694s-0.20276 0.40889-0.30809 0.69978c-0.10533 0.29089-0.22119 0.66685-0.34759 1.1279l-2.3067 8.1339c-0.17906 0.065862-0.38972 0.098793-0.63197 0.098793-0.24226-0.70253-0.50031-1.4325-0.77417-2.1899-0.27386-0.75742-0.55034-1.5203-0.82947-2.2887-0.27912-0.76839-0.56088-1.5313-0.84527-2.2887-0.25279-0.65862-0.49505-1.3008-0.72677-1.9265l-2.6859 8.595c-0.084264 0.032931-0.18959 0.057629-0.31599 0.074094-0.1264 0.016466-0.24752 0.024698-0.36339 0.024698-0.45292-1.4709-0.91373-2.9308-1.3824-4.3798-0.46872-1.449-0.94533-2.8979-1.4298-4.3469-0.14746-0.43908-0.26859-0.78211-0.36339-1.0291-0.094797-0.24698-0.18433-0.43085-0.26859-0.55159-0.084264-0.12075-0.17379-0.19759-0.26859-0.23052-0.094797-0.032931-0.21066-0.060373-0.34759-0.082327-0.031599-0.10977-0.052664-0.22503-0.063197-0.34577s-0.015799-0.24149-0.015799-0.36224zm25.763 0c0.010533 0.18661 0.028966 0.39243 0.055298 0.61745 0.026333 0.22503 0.052665 0.45554 0.078997 0.69155 0.026332 0.23601 0.055298 0.46652 0.086896 0.69155 0.031599 0.22503 0.068464 0.42536 0.1106 0.60099-0.084264 0.076839-0.18696 0.12898-0.30809 0.15642-0.12113 0.027442-0.25542 0.041164-0.40288 0.041164-0.021066-0.25247-0.071097-0.50494-0.15009-0.75741s-0.21592-0.4775-0.41078-0.67508c-0.19486-0.19759-0.45555-0.35675-0.78207-0.4775-0.32652-0.12075-0.74257-0.18112-1.2481-0.18112h-1.1376v4.5115h0.66357c0.32652 0 0.60038-0.01921 0.82157-0.057629s0.40025-0.10702 0.53718-0.20582c0.13693-0.098793 0.23699-0.236 0.30019-0.41164 0.063198-0.17563 0.094796-0.39517 0.094796-0.65862 0.13693-0.043908 0.26069-0.074094 0.37128-0.09056 0.1106-0.016466 0.23962-0.024698 0.38708-0.024698-0.021066 0.2854-0.031598 0.58727-0.031598 0.9056v1.8441c0 0.35126 0.010532 0.66959 0.031598 0.955-0.14746 0-0.27649-0.0054885-0.38708-0.016466s-0.22382-0.032931-0.33969-0.065862c-0.021066-0.2854-0.065831-0.52141-0.1343-0.70801s-0.17116-0.33754-0.30809-0.4528c-0.13693-0.11526-0.31335-0.19484-0.52928-0.23875s-0.48714-0.065862-0.81367-0.065862h-0.66357v2.9802c0 0.30736 0.018432 0.55982 0.055298 0.75741 0.036865 0.19759 0.10796 0.35401 0.21329 0.46927 0.10533 0.11526 0.25016 0.19484 0.43448 0.23875 0.18433 0.043908 0.42395 0.065862 0.71887 0.065862h0.094797c0.48452 0 0.8795-0.043908 1.185-0.13172 0.30546-0.087816 0.55561-0.21954 0.75047-0.39517s0.35285-0.39243 0.47398-0.65039 0.23962-0.55708 0.35548-0.89737c0.158 0.054885 0.28966 0.10977 0.39498 0.16465 0.10533 0.054885 0.20539 0.13172 0.30019 0.23052-0.11586 0.3842-0.21329 0.79308-0.29229 1.2267s-0.14483 0.84248-0.19749 1.2267c-0.15799 0-0.35022-0.0027442-0.57668-0.0082327-0.22646-0.0054886-0.47661-0.010977-0.75047-0.016466s-0.55824-0.0082327-0.85317-0.0082327h-1.9117c-0.38972 0-0.7768 0.0027442-1.1613 0.0082327s-0.74783 0.010977-1.0902 0.016466c-0.34232 0.0054885-0.61354 0.013721-0.81367 0.024698 0-0.31833 0.026332-0.55434 0.078997-0.70801 0.21066-0.010977 0.38708-0.041163 0.52928-0.09056 0.1422-0.049397 0.25542-0.13447 0.33969-0.25521s0.14483-0.28266 0.18169-0.48573c0.036865-0.20308 0.055297-0.46378 0.055297-0.78211v-6.7673c0-0.54885-0.076362-0.91932-0.22909-1.1114s-0.43975-0.29912-0.86106-0.32108c-0.031599-0.087816-0.052665-0.19484-0.063198-0.32108-0.010533-0.12624-0.015799-0.25521-0.015799-0.38694 0.15799 0.010977 0.35812 0.01921 0.60038 0.024698s0.49241 0.010977 0.75047 0.016466c0.25806 0.0054885 0.50294 0.0082327 0.73467 0.0082327h0.56878c1.0849 0 1.9749-0.0054884 2.6701-0.016466 0.69518-0.010977 1.1744-0.021954 1.4377-0.032931zm6.2513 2.1405c0-0.54885-0.076363-0.91932-0.22909-1.1114-0.15273-0.1921-0.43975-0.29912-0.86106-0.32108-0.052664-0.15368-0.078996-0.38968-0.078996-0.70801 0.57931 0.032931 1.2165 0.049396 1.9117 0.049396 0.33706 0 0.66094-0.0027442 0.97166-0.0082327 0.31072-0.0054885 0.62407-0.01921 0.94006-0.041164 0 0.31833-0.026332 0.55434-0.078996 0.70801-0.42132 0.021954-0.70834 0.12898-0.86106 0.32108-0.15273 0.1921-0.22909 0.56257-0.22909 1.1114v3.1943l2.8281-3.0955c0.27386-0.29638 0.47135-0.54062 0.59248-0.73271s0.17906-0.34577 0.17379-0.46103c-0.005266-0.11526-0.05793-0.19759-0.15799-0.24698-0.10006-0.049397-0.23436-0.079583-0.40288-0.09056-0.031599-0.10977-0.052665-0.22503-0.063198-0.34577s-0.015799-0.24149-0.015799-0.36224c0.17906 0.021954 0.41605 0.035675 0.71097 0.041164s0.60037 0.0082327 0.91636 0.0082327c0.65304 0 1.1955-0.016465 1.6273-0.049396 0 0.10977-0.005266 0.23052-0.015799 0.36224-0.010533 0.13172-0.036865 0.24698-0.078997 0.34577-0.17906 0.010977-0.35022 0.038419-0.51348 0.082327-0.16326 0.043908-0.33179 0.118-0.50558 0.22228s-0.36075 0.24698-0.56088 0.4281-0.42658 0.40889-0.67937 0.68332l-2.5595 2.865c0.35812 0.31833 0.70044 0.70801 1.027 1.169 0.40025 0.53787 0.81103 1.0922 1.2324 1.663 0.25279 0.35126 0.51611 0.6888 0.78997 1.0126 0.27386 0.32382 0.54771 0.60922 0.82157 0.8562 0.27386 0.24698 0.54771 0.44457 0.82157 0.59276s0.54771 0.22777 0.82157 0.23875c0 0.087816-0.005267 0.1921-0.0158 0.31284-0.010533 0.12075-0.031598 0.236-0.063197 0.34577-0.40025 0-0.82156 0.0054884-1.2639 0.016465-0.44238 0.010977-0.85843 0.038419-1.2481 0.082327-0.18959-0.31833-0.45555-0.72997-0.79787-1.2349-0.34232-0.50494-0.7215-1.0318-1.1376-1.5807-0.41605-0.54885-0.85053-1.0757-1.3034-1.5807-0.34759-0.40615-0.6741-0.75741-0.97956-1.0538v3.2602c0 0.54885 0.076363 0.91932 0.22909 1.1114 0.15273 0.1921 0.43975 0.29912 0.86106 0.32108 0.052664 0.15368 0.078996 0.38968 0.078996 0.70801-0.63198-0.032931-1.2692-0.049396-1.9117-0.049396-0.30546 0-0.63197 0.0027442-0.97956 0.0082327-0.34759 0.0054885-0.65831 0.01921-0.93216 0.041164 0-0.31833 0.026332-0.55434 0.078996-0.70801 0.42132-0.021954 0.70834-0.12898 0.86106-0.32108 0.15273-0.1921 0.22909-0.56257 0.22909-1.1114v-6.9484z" fill="#fff" stroke="#fff"/>
<path d="m38.81 9.6901v-8.8694h1.0392v8.8694c0 0.37078 0.098306 0.5952 0.29492 0.67325 0.1498 0.058544 0.34173 0.087816 0.5758 0.087816h4.2974v1.0831h-4.2974c-0.53367 0-0.96434-0.097572-1.292-0.29272-0.41196-0.24393-0.61793-0.76107-0.61793-1.5514zm13.917-0.62203c-0.07022-0.42445-0.10533-0.90255-0.10533-1.4343 0-0.53178 0.030428-1.0099 0.091285-1.4343 0.060857-0.42445 0.17087-0.84157 0.33003-1.2514 0.34642-0.8684 1.0252-1.3026 2.0364-1.3026 0.34642 0 0.78645 0.053665 1.3201 0.161 0.53367 0.10733 1.0112 0.24881 1.4325 0.42444v-4.1859h1.0252v11.489h-0.74433l-0.28088-0.86352c-0.23407 0.17563-0.64367 0.37809-1.2288 0.60739-0.58516 0.2293-1.1071 0.34395-1.5659 0.34395s-0.85667-0.11709-1.1937-0.35126c-0.33705-0.23418-0.58984-0.55373-0.75837-0.95866-0.16853-0.40493-0.2879-0.81961-0.35812-1.2441zm0.93392-1.3831c0 1.9027 0.47281 2.854 1.4184 2.854 0.7771 0 1.6946-0.22442 2.7526-0.67325v-4.7567c-0.93626-0.25369-1.8538-0.38054-2.7526-0.38054-0.48686 0-0.84497 0.20978-1.0744 0.62935-0.22938 0.41957-0.34407 1.1953-0.34407 2.3271zm8.0577-0.07318c0-0.85865 0.056175-1.549 0.16853-2.071 0.11235-0.52202 0.31599-0.91719 0.61091-1.1855 0.29492-0.26833 0.62261-0.44396 0.98307-0.52689 0.36046-0.082938 0.82859-0.12441 1.4044-0.12441s1.0088 0.024393 1.2991 0.07318c0.29024 0.048787 0.5758 0.16099 0.85668 0.33663 0.28088 0.17563 0.48217 0.45371 0.60389 0.83425s0.18257 0.88303 0.18257 1.5075c0 1.1904-0.64133 1.7856-1.924 1.7856h-3.1458c0 0.90743 0.098306 1.5148 0.29492 1.8222 0.19662 0.30736 0.57111 0.46103 1.1235 0.46103 1.704 0 2.8743-0.048786 3.511-0.14636v0.81961c-0.9269 0.27321-2.0972 0.40981-3.511 0.40981-0.94563 0-1.5916-0.28296-1.9381-0.84889-0.34642-0.56593-0.51962-1.6148-0.51962-3.1467zm1.0392-0.43908h3.1458c0.58985 0 0.88476-0.23905 0.88476-0.71716 0-0.75132-0.10533-1.2172-0.31599-1.3977-0.21066-0.18051-0.70453-0.27077-1.4816-0.27077-0.96435 0-1.5401 0.10245-1.7274 0.30736-0.26215 0.29272-0.41195 0.61471-0.4494 0.96597s-0.056176 0.72204-0.056176 1.1123zm7.7908 4.3615v-7.7717h0.73028l0.30897 0.98061c0.71156-0.44884 1.161-0.70497 1.3482-0.76839 0.18725-0.063423 0.35578-0.11953 0.50558-0.16831 0.28088-0.087816 0.64133-0.13172 1.0814-0.13172s0.73496 0.039029 0.88476 0.11709v1.0684c-0.2247-0.058544-0.54303-0.087816-0.95498-0.087816s-0.77943 0.039029-1.1024 0.11709c-0.32301 0.078059-0.58048 0.161-0.77241 0.24881-0.19193 0.087816-0.52196 0.24881-0.99009 0.48299v5.9129h-1.0392zm6.878-6.6886v-1.0831h5.5614v1.0831l-3.9885 5.5909h3.9885v1.0831h-5.3507v-1.0831l4.0587-5.5909h-4.2693zm7.5942-1.0831h1.1376l1.8117 6.0739c0.065538 0.19515 0.12874 0.32199 0.18959 0.38054s0.11469 0.10489 0.1615 0.13904c0.046813 0.034151 0.093626 0.056104 0.14044 0.065862 0.046813 0.0097574 0.091285 0.017075 0.13342 0.021954s0.081922 0.007318 0.11937 0.007318c0.084264-0.019515 0.14512-0.034151 0.18257-0.043908l2.1347-6.6447h1.1656l-3.2863 10.231-1.0533 1.4929h-0.64602l1.3201-3.9517c-0.80519 0-1.3669-0.53665-1.6853-1.61l-1.8257-6.1617z" fill="#fff" stroke="#fff"/>
<polygon points="48.062 0.83537 49.311 0.83537 49.213 8.6656 48.16 8.6656" fill="#FF4300" stroke="#FF4300"/>
<path d="m47.977 11.198v-0.83425c0-0.24393 0.11235-0.3659 0.33705-0.3659h0.77241c0.21534 0 0.32301 0.12197 0.32301 0.3659v0.83425c0 0.22442-0.10767 0.33663-0.32301 0.33663h-0.77241c-0.2247 0-0.33705-0.11221-0.33705-0.33663z" fill="#FF4300" stroke="#FF4300"/>
</g>
<g transform="translate(8.79 6.6341)" stroke="#fff" stroke-width=".6742">
<path d="m86.774 0.38713h25.065"/>
<path d="m0.69868 0.38713h25.065"/>
</g>
<g transform="translate(0 5.8293)" stroke="#fff" stroke-opacity=".01" stroke-width=".6742">
<path d="m120.5 1.192h96.021"/>
</g>
</g>
</svg>
